<?xml version="1.0" encoding="iso-8859-1"?>
<!-- Generator: Adobe Illustrator 19.0.0, SVG Export Plug-In . SVG Version: 6.00 Build 0)  -->
<svg version="1.1" id="Capa_1" xmlns="http://www.w3.org/2000/svg" xmlns:xlink="http://www.w3.org/1999/xlink" x="0px" y="0px"
	 viewBox="0 0 512 512" style="enable-background:new 0 0 512 512;" xml:space="preserve">
<path style="fill:#EDA751;" d="M56.658,440.642c-1.664,0-3.354-0.278-5.011-0.866c-7.806-2.767-11.89-11.339-9.123-19.145
	c5.931-16.728,16.872-29.177,31.642-36.006c17.928-8.291,39.701-7.663,64.708,1.862c25.081,9.552,37.315-3.642,60.455-31.977
	l0.853-1.045c5.24-6.413,14.687-7.368,21.1-2.126c6.414,5.24,7.366,14.687,2.126,21.1l-0.85,1.042
	c-11.665,14.285-22.684,27.777-36.903,36.632c-17.624,10.976-36.417,12.419-57.456,4.403c-16.935-6.452-31.268-7.373-41.448-2.667
	c-9.188,4.247-13.751,12.571-15.962,18.805C68.611,436.803,62.83,440.642,56.658,440.642z"/>
<path style="opacity:0.2;fill:#A35F00;enable-background:new    ;" d="M220.854,375.569v-24.546c-6.4-4.864-15.544-3.83-20.67,2.443
	l-0.853,1.045c-23.14,28.334-35.373,41.529-60.455,31.977c-0.851-0.324-1.69-0.612-2.534-0.916
	c-0.369,11.888-0.539,22.693-0.617,31.43c18.036,5.039,34.436,2.762,49.932-6.889C199.18,401.691,209.81,389.072,220.854,375.569z"
	/>
<path style="fill:#FCD79D;" d="M47.152,410.268c-1.771,3.244-3.327,6.695-4.628,10.365c-2.767,7.806,1.317,16.377,9.123,19.145
	c1.656,0.588,3.347,0.866,5.011,0.866c6.172,0,11.954-3.839,14.134-9.989c0.694-1.956,1.62-4.118,2.847-6.295
	C66.848,416.968,54.298,412.369,47.152,410.268z"/>
<path style="fill:#EDA751;" d="M131.301,358.482c-9.641,0-19.024-1.502-27.858-4.551c-20.939-7.229-36.619-22.507-44.152-43.026
	c-4.567-12.439,1.815-26.225,14.254-30.791c12.435-4.568,26.225,1.814,30.791,14.255c2.541,6.92,7.509,11.699,14.765,14.204
	c12.716,4.387,29.821,1.125,45.756-8.736c11.268-6.971,26.054-3.491,33.028,7.777c6.973,11.268,3.491,26.055-7.777,33.028
	C171.088,352.409,150.679,358.482,131.301,358.482z"/>
<path style="fill:#82C7E6;" d="M197.886,307.612c-6.974-11.268-21.76-14.748-33.028-7.777c-15.934,9.861-33.04,13.124-45.756,8.736
	c-3.534-1.22-6.521-2.984-8.953-5.267c-10.562,13.99-27.896,23.585-40.211,26.882c8.388,10.828,19.811,19.017,33.505,23.743
	c8.835,3.05,18.218,4.551,27.858,4.551c19.378,0,39.787-6.072,58.808-17.843C201.377,333.667,204.859,318.879,197.886,307.612z"/>
<g>
	<path style="fill:#EDA751;" d="M305.293,504.502c-0.537,0-1.077-0.018-1.621-0.054c-13.221-0.883-23.224-12.317-22.342-25.538
		c2.478-37.123-1.575-59.113-5.41-71.024c-4.062-12.614,2.87-26.131,15.483-30.193c12.617-4.064,26.131,2.869,30.193,15.483
		c7.448,23.126,10.01,53.048,7.615,88.931C328.363,494.783,317.815,504.502,305.293,504.502z"/>
	<path style="fill:#EDA751;" d="M222.892,504.502c-12.524,0-23.07-9.718-23.917-22.396c-2.395-35.883,0.167-65.804,7.615-88.931
		c4.063-12.613,17.583-19.541,30.193-15.483c12.613,4.062,19.544,17.579,15.484,30.193c-3.836,11.911-7.888,33.902-5.41,71.024
		c0.882,13.222-9.122,24.655-22.342,25.538C223.969,504.483,223.428,504.502,222.892,504.502z"/>
	<path style="fill:#EDA751;" d="M382.214,351.428c-14.277,0-28.394-3.182-41.762-9.497c-11.982-5.661-17.106-19.961-11.446-31.943
		c5.66-11.982,19.96-17.107,31.943-11.446c22.737,10.744,49.438,3.181,66.433-18.821c8.098-10.487,23.166-12.421,33.655-4.321
		c10.487,8.101,12.421,23.169,4.321,33.656c-14.485,18.752-34.452,32.459-56.225,38.598
		C400.197,350.174,391.174,351.428,382.214,351.428z"/>
</g>
<path style="fill:#82C7E6;" d="M418.065,289.551c-16.534,14.185-38.194,17.932-57.116,8.991
	c-11.983-5.661-26.283-0.535-31.943,11.446c-5.66,11.982-0.536,26.282,11.446,31.943c13.368,6.315,27.485,9.497,41.762,9.497
	c8.96,0,17.984-1.253,26.919-3.773c15.751-4.441,30.544-12.86,43.014-24.266C430.691,318.131,421.267,301.552,418.065,289.551z"/>
<g>
	<path style="opacity:0.2;fill:#A35F00;enable-background:new    ;" d="M321.594,393.174c-4.062-12.614-17.577-19.547-30.193-15.484
		c-12.613,4.062-19.544,17.58-15.483,30.193c2.888,8.97,5.898,23.657,6.152,46.215c17.096-2.231,33.138-7.593,47.45-15.454
		C328.441,421.428,325.795,406.219,321.594,393.174z"/>
	<path style="opacity:0.2;fill:#A35F00;enable-background:new    ;" d="M236.782,377.692c-12.611-4.058-26.13,2.87-30.193,15.484
		c-4.201,13.045-6.846,28.252-7.926,45.472c14.312,7.86,30.354,13.223,47.45,15.454c0.253-22.557,3.263-37.246,6.152-46.215
		C256.327,395.27,249.395,381.754,236.782,377.692z"/>
</g>
<ellipse style="fill:#FCD690;" cx="264.094" cy="333.023" rx="110.667" ry="102.827"/>
<path style="opacity:0.15;fill:#C18F00;enable-background:new    ;" d="M247.932,434.764
	c-50.571-33.202-34.898-101.25-26.313-131.01v-65.708c-40.038,15.478-68.191,52.172-68.191,94.981
	C153.428,384.718,194.475,427.495,247.932,434.764z"/>
<path style="opacity:0.1;enable-background:new    ;" d="M164.858,299.835c-10.491,6.493-21.482,10.103-31.402,10.575
	c-1.354,14.245-2.4,30.457-3.11,48.054c0.319,0.003,0.637,0.019,0.957,0.019c19.378,0,39.787-6.072,58.807-17.843
	c11.268-6.973,14.75-21.76,7.777-33.028C190.912,296.344,176.126,292.864,164.858,299.835z"/>
<path style="fill:#82C7E6;" d="M233.849,223.028v212.981c0,9.494-9.49,16.044-18.372,12.69
	c-16.16-6.102-38.135-15.914-52.641-22.703c-8.69-4.067-14.207-12.81-14.132-22.403c0.345-43.917,2.97-145.456,22.935-165.546
	L233.849,223.028z"/>
<path style="opacity:0.1;enable-background:new    ;" d="M360.949,298.543c-11.983-5.661-26.283-0.535-31.943,11.446
	c-5.66,11.982-0.536,26.282,11.446,31.943c13.368,6.315,27.485,9.497,41.762,9.497c5.076,0,10.171-0.417,15.26-1.224
	c-0.694-14.572-1.624-28.091-2.78-40.17c-0.264-2.757-0.537-5.423-0.82-8.003C382.959,304.571,371.526,303.541,360.949,298.543z"/>
<path style="fill:#82C7E6;" d="M294.335,223.028v212.981c0,9.494,9.49,16.044,18.372,12.69c16.16-6.102,38.135-15.914,52.641-22.703
	c8.69-4.067,14.207-12.81,14.132-22.403c-0.345-43.917-2.97-145.456-22.935-165.546L294.335,223.028z"/>
<path style="fill:#FFFFFF;" d="M346.197,343.905h-20.774c-4.143,0-7.5-3.357-7.5-7.5c0-4.143,3.357-7.5,7.5-7.5h20.773
	c4.143,0,7.5,3.357,7.5,7.5C353.696,340.548,350.339,343.905,346.197,343.905z"/>
<circle style="fill:#DEE2E5;" cx="233.845" cy="422.581" r="22.049"/>
<circle style="opacity:0.1;enable-background:new    ;" cx="233.845" cy="422.581" r="8.01"/>
<path style="fill:#EDA751;" d="M196.745,154.716c21.654-18.171,36.112-48.673,5.569-93.765
	C171.529,15.504,125.695,4.112,89.912,8.327c-8.822,1.039-16.224,7.251-18.78,15.758c-10.365,34.507-7.105,81.624,32.306,119.833
	C142.541,181.828,175.091,172.886,196.745,154.716z"/>
<path style="fill:#FF91AB;" d="M69.693,29.366C61.195,63.294,66,107.621,103.439,143.919c33.893,32.859,62.856,30.511,84.076,17.473
	C172.921,62.322,109.172,36.051,69.693,29.366z"/>
<path style="fill:#EDA751;" d="M331.438,154.716c-21.654-18.171-36.113-48.673-5.569-93.765
	c30.785-45.448,76.619-56.84,112.402-52.624c8.822,1.039,16.224,7.251,18.78,15.758c10.365,34.507,7.105,81.624-32.306,119.833
	C385.643,181.828,353.092,172.886,331.438,154.716z"/>
<path style="fill:#FF91AB;" d="M458.492,29.366c8.498,33.928,3.693,78.255-33.746,114.553
	c-33.893,32.859-62.856,30.511-84.076,17.473C355.263,62.322,419.013,36.051,458.492,29.366z"/>
<path style="fill:#FFDC9C;" d="M452.497,182.141c0,86.144-84.352,123.874-188.405,123.874S75.688,268.285,75.688,182.141
	S160.039,26.164,264.093,26.164S452.497,95.997,452.497,182.141z"/>
<path style="opacity:0.15;fill:#C18F00;enable-background:new    ;" d="M163.493,50.246
	c-52.765,27.641-87.806,76.378-87.806,131.896c0,74.052,62.333,112.327,145.931,121.614
	C101.616,232.074,117.266,135.657,163.493,50.246z"/>
<path style="fill:#495059;" d="M422.254,97.365c-10.698-13.651-23.901-25.828-39.075-36.088H145.006
	c-15.174,10.26-28.378,22.437-39.076,36.088H422.254z"/>
<g>
	<ellipse style="fill:#FF91AB;" cx="171.636" cy="185.777" rx="34.109" ry="27.169"/>
	<ellipse style="fill:#FF91AB;" cx="356.541" cy="185.777" rx="34.109" ry="27.169"/>
</g>
<circle style="fill:#DEE2E5;" cx="264.094" cy="65.58" r="47.69"/>
<circle style="opacity:0.1;enable-background:new    ;" cx="264.094" cy="65.58" r="18.666"/>
<path d="M350.622,203.685c-1.063,4.004,1.321,8.11,5.324,9.174c8.623,2.289,26.973,11.469,33.387,16.203
	c1.341,0.989,2.901,1.467,4.448,1.467c2.3,0,4.569-1.055,6.04-3.047c2.46-3.333,1.752-8.028-1.58-10.488
	c-7.784-5.745-27.825-15.814-38.445-18.633C355.787,197.297,351.684,199.682,350.622,203.685z M344.163,158.674v-12.047
	c0-4.143-3.357-7.5-7.5-7.5c-4.143,0-7.5,3.357-7.5,7.5v12.047c0,4.143,3.357,7.5,7.5,7.5
	C340.805,166.174,344.163,162.817,344.163,158.674z M264.092,175.425c9.5,0,18.535-4.114,24.787-11.289
	c2.721-3.122,2.397-7.86-0.727-10.582c-3.123-2.722-7.859-2.396-10.582,0.727c-3.403,3.905-8.316,6.145-13.479,6.145
	s-10.076-2.239-13.48-6.145c-2.723-3.122-7.46-3.447-10.582-0.727c-3.123,2.722-3.447,7.46-0.727,10.582
	C245.557,171.311,254.592,175.425,264.092,175.425z M365.778,187.623c8.848-1.172,29.309,0.326,37.042,2.26
	c0.611,0.152,1.223,0.226,1.825,0.226c3.36,0,6.418-2.275,7.27-5.683c1.004-4.019-1.438-8.091-5.457-9.096
	c-9.385-2.346-31.75-4.018-42.645-2.578c-4.107,0.543-6.996,4.311-6.453,8.418C357.904,185.279,361.689,188.163,365.778,187.623z
	 M465.622,269.465c-6.658-5.142-14.921-7.381-23.263-6.314c-8.344,1.071-15.771,5.328-20.91,11.985
	c-2.444,3.164-5.115,5.99-7.957,8.47c-0.224,0.173-0.435,0.358-0.637,0.553c-9.319,7.886-20.443,12.024-31.701,11.689
	c-0.116-0.931-0.234-1.857-0.354-2.778c7.228-3.078,14.019-6.493,20.338-10.237c38.506-22.814,58.858-57.634,58.858-100.693
	c0-18.915-3.928-37.511-11.418-55.024c20.777-30.983,26.504-69.069,15.655-105.189c-3.422-11.396-13.268-19.656-25.083-21.048
	c-35.983-4.244-71.398,7.023-97.94,30.961c-14.28-5.107-29.31-8.802-44.789-10.947c-9.094-6.598-20.261-10.502-32.329-10.502
	s-23.235,3.905-32.329,10.502c-15.479,2.144-30.509,5.84-44.789,10.947c-26.54-23.935-61.953-35.201-97.937-30.96
	C77.218,2.271,67.373,10.533,63.95,21.928c-10.849,36.12-5.122,74.205,15.655,105.188c-7.49,17.513-11.418,36.109-11.418,55.025
	c0,32.451,11.221,59.829,33.35,81.372c1.458,1.419,3.345,2.126,5.23,2.126c1.953,0,3.905-0.759,5.375-2.269
	c2.89-2.968,2.825-7.716-0.143-10.605c-19.119-18.612-28.812-42.374-28.812-70.624c0-27.394,9.269-54.131,26.472-77.276h115.716
	c9.97,9.829,23.645,15.908,38.717,15.908c15.073,0,28.747-6.079,38.717-15.908h115.715c17.203,23.145,26.472,49.882,26.472,77.276
	c0,38.003-17.329,67.539-51.506,87.789c-7.152,4.238-14.988,8.018-23.437,11.338c-0.037,0.013-0.074,0.029-0.111,0.043
	c-18.974,7.441-41.071,12.537-65.656,15.153c-0.033,0.003-0.066,0.007-0.1,0.011c-3.396,0.36-6.837,0.676-10.326,0.941
	c-0.138,0.009-0.276,0.017-0.413,0.033c-9.462,0.708-19.258,1.068-29.356,1.068c-10.131,0-19.958-0.368-29.46-1.084
	c-0.021-0.002-0.041-0.003-0.062-0.005c-38.425-2.902-71.41-11.592-96.517-25.566c-3.62-2.016-8.187-0.715-10.2,2.905
	c-2.015,3.619-0.714,8.186,2.905,10.2c5.242,2.918,10.791,5.621,16.627,8.105c-0.31,2.372-0.606,4.779-0.887,7.218
	c-9.321,3.132-18.058,3.57-24.948,1.193c-5.094-1.758-8.422-4.931-10.172-9.698c-2.899-7.898-8.7-14.194-16.336-17.728
	c-7.636-3.534-16.188-3.883-24.082-0.983c-16.301,5.984-24.693,24.115-18.709,40.418c8.323,22.672,25.635,39.552,48.745,47.53
	c9.537,3.292,19.733,4.962,30.305,4.962c3.526,0,7.103-0.195,10.7-0.57c-0.167,4.79-0.303,9.496-0.414,14.082
	c-0.015-0.005-0.028-0.01-0.043-0.015c-26.97-10.272-50.7-10.831-70.525-1.66c-16.646,7.696-28.942,21.634-35.562,40.308
	c-2.009,5.663-1.69,11.77,0.894,17.193c2.585,5.425,7.128,9.518,12.789,11.525c2.425,0.86,4.955,1.297,7.52,1.297
	c9.504,0,18.024-6.021,21.201-14.982c1.73-4.877,5.223-11.353,12.041-14.504c8.189-3.786,20.841-2.768,35.63,2.867
	c8.822,3.361,17.432,5.22,25.739,5.527c2.442,2.311,5.252,4.269,8.389,5.738c8.922,4.176,20.149,9.252,31.131,13.956
	c-0.369,11.272-0.136,23.306,0.702,35.861C192.593,499.088,206.385,512,222.891,512c0.686,0,1.395-0.023,2.122-0.07
	c17.326-1.158,30.48-16.196,29.325-33.52c-0.823-12.332-0.953-23.803-0.404-34.178c0.417-0.387,0.821-0.788,1.215-1.198
	c2.993,0.21,5.987,0.324,8.943,0.324c3.373,0,6.733-0.149,10.078-0.413c0.633,10.718,0.534,22.596-0.324,35.465
	c-1.155,17.325,12,32.362,29.329,33.52c0.702,0.047,1.414,0.07,2.118,0.07c10.748,0,20.644-5.408,26.473-14.467
	c2.242-3.483,1.235-8.124-2.248-10.365c-3.482-2.243-8.124-1.236-10.365,2.248c-3.26,5.065-8.973,7.955-14.983,7.547
	c-9.074-0.607-15.965-8.482-15.359-17.557c0.798-11.958,0.966-23.145,0.53-33.444c1.557,2.903,3.79,5.444,6.578,7.371
	c3.571,2.469,7.761,3.739,11.987,3.739c2.511,0,5.035-0.449,7.45-1.36c2.279-0.861,4.69-1.804,7.177-2.799
	c0.044,3.199,0.045,6.451-0.008,9.744c-0.066,4.142,3.237,7.553,7.379,7.619c0.041,0.001,0.082,0.001,0.122,0.001
	c4.087,0,7.432-3.279,7.497-7.38c0.088-5.506,0.046-10.92-0.126-16.158c10.981-4.703,22.207-9.779,31.129-13.954
	c11.307-5.292,18.55-16.775,18.452-29.255c-0.104-13.178-0.395-28.592-1.044-44.674c8.444-0.304,16.915-1.64,25.233-3.987
	c23.311-6.573,44.664-21.215,60.125-41.231C481.908,299.899,479.364,280.081,465.622,269.465z M437.395,15.776
	c4.928,0.581,9.159,3.57,11.402,7.861c-18.35,4.129-41.615,12.754-62.565,30.675c-9.182-6.108-18.986-11.504-29.281-16.132
	C379.531,20.454,408.246,12.339,437.395,15.776z M90.79,15.776c29.144-3.435,57.863,4.68,80.442,22.404
	c-10.296,4.628-20.098,10.024-29.28,16.132C121.002,36.39,97.736,27.766,79.386,23.637C81.629,19.346,85.861,16.357,90.79,15.776z
	 M100.179,92.554c-0.09,0.107-0.171,0.22-0.255,0.332c-4.633,5.935-8.791,12.1-12.447,18.458
	C71.545,83.15,72.341,55.58,75.491,38.134c15.796,3.484,35.725,10.64,53.927,25.266c-4.604,3.634-9.018,7.457-13.207,11.475
	C110.363,80.484,105.014,86.393,100.179,92.554z M122.424,89.865c1.36-1.405,2.744-2.797,4.17-4.164
	c6.388-6.127,13.336-11.777,20.75-16.925h61.658c0.432,7.531,2.381,14.659,5.545,21.088H122.424z M210.188,53.777h-36.961
	c13.313-6.363,27.587-11.325,42.487-14.722C213.206,43.61,211.33,48.557,210.188,53.777z M264.092,105.773
	c-22.16,0-40.19-18.03-40.19-40.19s18.029-40.189,40.19-40.189c22.16,0,40.189,18.029,40.189,40.189
	C304.282,87.743,286.253,105.773,264.092,105.773z M354.957,53.777h-36.96c-1.142-5.22-3.018-10.167-5.526-14.722
	C327.37,42.452,341.645,47.413,354.957,53.777z M313.637,89.865c3.164-6.43,5.113-13.558,5.545-21.088h61.658
	c7.415,5.147,14.363,10.798,20.749,16.925c1.426,1.367,2.81,2.759,4.17,4.164H313.637z M440.706,111.344
	c-3.646-6.34-7.792-12.489-12.409-18.409c-0.097-0.132-0.193-0.264-0.298-0.389c-4.833-6.157-10.181-12.064-16.026-17.671
	c-4.189-4.018-8.603-7.841-13.207-11.475c18.202-14.627,38.13-21.782,53.926-25.266C455.843,55.58,456.64,83.15,440.706,111.344z
	 M66.333,308.32c-3.135-8.538,1.261-18.033,9.799-21.167c4.136-1.519,8.613-1.335,12.611,0.515c3.999,1.852,7.037,5.148,8.556,9.285
	c0.827,2.254,1.867,4.348,3.107,6.273c-7.98,8.481-18.705,14.816-27.557,18.137C70.234,317.343,68.045,312.984,66.333,308.32z
	 M130.87,407.507c-18.864-7.186-35.208-8.041-47.264-2.465c-11.556,5.34-17.191,15.513-19.883,23.104
	c-1.06,2.988-3.899,4.995-7.065,4.995c-0.851,0-1.692-0.146-2.505-0.435c-1.887-0.669-3.4-2.032-4.262-3.84
	c-0.861-1.808-0.968-3.842-0.298-5.729c5.239-14.78,14.825-25.743,27.721-31.705c16.025-7.412,35.838-6.717,58.891,2.061
	c1.744,0.665,3.43,1.213,5.09,1.687c-0.038,2.865-0.068,5.659-0.089,8.351c-0.02,2.479,0.262,4.915,0.796,7.275
	C138.371,410.043,134.655,408.949,130.87,407.507z M142.629,350.241c-12.92,1.65-25.457,0.493-36.738-3.401
	c-8.728-3.013-16.418-7.6-22.843-13.474c9.668-4.365,20.151-11.197,28.399-19.991c1.631,0.882,3.367,1.649,5.21,2.285
	c8.288,2.859,18.035,3.043,28.224,0.653C143.904,327.463,143.172,338.946,142.629,350.241z M166.016,419.203
	c-6.014-2.814-9.864-8.919-9.812-15.553c0.215-27.481,1.245-64.778,4.695-97.168c0-0.003,0.001-0.006,0.001-0.008
	c0.285-2.674,0.588-5.31,0.907-7.909c17.083,5.805,36.187,9.96,56.918,12.395c2.396,3.93,4.969,7.574,7.624,10.929v72.107
	c-12.675,3.328-22.052,14.881-22.052,28.585c0,5.621,1.578,10.88,4.314,15.358C194.542,432.225,178.131,424.874,166.016,419.203z
	 M224.03,496.964c-9.125,0.582-16.971-6.349-17.572-15.358c-0.665-9.969-0.929-19.57-0.804-28.688
	c2.486,0.994,4.896,1.937,7.174,2.797c2.446,0.924,4.975,1.369,7.474,1.369c4.917,0,9.713-1.734,13.534-4.951
	c0.005,0,0.009,0,0.014,0c1.639,0,3.246-0.14,4.813-0.398c-0.17,8.674,0.06,17.928,0.71,27.673
	C239.977,488.483,233.088,496.358,224.03,496.964z M233.849,437.134c-8.024,0-14.553-6.528-14.553-14.553
	c0-8.024,6.528-14.553,14.553-14.553c8.025,0,14.553,6.528,14.553,14.553C248.401,430.606,241.873,437.134,233.849,437.134z
	 M245.564,395.457c-1.356-0.588-2.764-1.079-4.216-1.46v-56.33c6.147,5.429,11.669,9.267,15.2,11.516
	C256.258,362.794,254.316,379.284,245.564,395.457z M286.836,426.03c-7.825,1.629-15.869,2.42-24.004,2.323
	c0.371-1.867,0.57-3.796,0.57-5.771c0-6.641-2.203-12.777-5.915-17.717c12.399-21.62,13.899-43.826,14.08-55.638
	c3.527-2.242,9.08-6.093,15.27-11.56L286.836,426.03L286.836,426.03z M286.836,316.438c-8.716,9.932-17.868,16.569-22.743,19.745
	c-4.881-3.179-14.031-9.815-22.743-19.745v-3.544c7.416,0.408,14.998,0.62,22.743,0.62c7.75,0,15.332-0.212,22.743-0.619V316.438z
	 M362.168,419.203c-14.984,7.014-36.542,16.602-52.11,22.479c-1.897,0.717-3.942,0.468-5.608-0.684
	c-1.661-1.148-2.614-2.968-2.614-4.99V321.889c2.652-3.352,5.223-6.992,7.616-10.917c20.748-2.432,39.839-6.596,56.925-12.407
	c4.18,34.071,5.369,75.328,5.603,105.084C372.031,410.284,368.18,416.39,362.168,419.203z M407.097,340.436
	c-7.223,2.038-14.565,3.19-21.869,3.44c-0.601-11.079-1.393-22.239-2.428-33.003c11.129-0.061,22.021-3.331,31.769-9.422
	c3.788,7.842,10.687,17.765,22.812,24.275C428.09,332.378,417.831,337.41,407.097,340.436z M459.423,304.473
	c-2.88,3.729-6.003,7.228-9.312,10.505c-14.196-4.912-20.628-15.827-23.432-23.155c2.333-2.314,4.555-4.817,6.64-7.515
	c2.691-3.486,6.58-5.715,10.949-6.276c4.372-0.563,8.698,0.614,12.185,3.307C463.65,286.896,464.982,297.276,459.423,304.473z
	 M164.371,172.752c-10.895-1.44-33.262,0.231-42.645,2.578c-4.019,1.005-6.462,5.077-5.458,9.095
	c0.853,3.408,3.91,5.684,7.271,5.684c0.603,0,1.214-0.073,1.824-0.226c7.735-1.934,28.198-3.431,37.044-2.26
	c4.099,0.541,7.875-2.345,8.418-6.453C171.366,177.064,168.477,173.295,164.371,172.752z M199.021,158.674v-12.047
	c0-4.143-3.357-7.5-7.5-7.5s-7.5,3.357-7.5,7.5v12.047c0,4.143,3.357,7.5,7.5,7.5S199.021,162.817,199.021,158.674z
	 M168.389,198.361c-10.62,2.819-30.661,12.888-38.445,18.633c-3.332,2.46-4.04,7.155-1.58,10.488c1.471,1.992,3.74,3.047,6.04,3.047
	c1.547,0,3.108-0.478,4.448-1.467c6.414-4.734,24.764-13.914,33.387-16.203c4.003-1.063,6.387-5.17,5.324-9.174
	C176.501,199.682,172.393,197.297,168.389,198.361z M264.092,39.417c-14.428,0-26.165,11.737-26.165,26.164
	s11.738,26.165,26.165,26.165c14.428,0,26.164-11.738,26.164-26.165C290.256,51.155,278.519,39.417,264.092,39.417z M264.092,76.747
	c-6.157,0-11.166-5.009-11.166-11.166c0-6.156,5.009-11.165,11.166-11.165c6.156,0,11.165,5.009,11.165,11.165
	C275.256,71.74,270.249,76.747,264.092,76.747z"/>
<g>
</g>
<g>
</g>
<g>
</g>
<g>
</g>
<g>
</g>
<g>
</g>
<g>
</g>
<g>
</g>
<g>
</g>
<g>
</g>
<g>
</g>
<g>
</g>
<g>
</g>
<g>
</g>
<g>
</g>
</svg>
