<?xml version="1.0" encoding="iso-8859-1"?>
<!-- Generator: Adobe Illustrator 19.0.0, SVG Export Plug-In . SVG Version: 6.00 Build 0)  -->
<svg version="1.1" id="Capa_1" xmlns="http://www.w3.org/2000/svg" xmlns:xlink="http://www.w3.org/1999/xlink" x="0px" y="0px"
	 viewBox="0 0 511.998 511.998" style="enable-background:new 0 0 511.998 511.998;" xml:space="preserve">
<circle style="fill:#DEE2E5;" cx="145.279" cy="144.3" r="100.67"/>
<path style="opacity:0.05;enable-background:new    ;" d="M145.275,244.97c27.887,0,53.123-11.341,71.354-29.66
	C68.142,235.994,72.946,104.666,98.725,55.029c-32.162,16.805-54.117,50.473-54.117,89.274
	C44.608,199.899,89.678,244.97,145.275,244.97z"/>
<path style="fill:#82C7E6;" d="M69.322,216.479L69.322,216.479c-1.464,2.983-5.716,2.983-7.179,0l0,0
	c-4.49-9.15-11.89-16.55-21.04-21.04l0,0c-2.983-1.464-2.983-5.715,0-7.179l0,0c9.15-4.49,16.55-11.89,21.04-21.04l0,0
	c1.464-2.983,5.716-2.983,7.179,0l0,0c4.49,9.15,11.89,16.55,21.04,21.04l0,0c2.983,1.464,2.983,5.716,0,7.179l0,0
	C81.212,199.929,73.812,207.329,69.322,216.479z"/>
<path style="fill:#BD4568;" d="M246.888,130.483L246.888,130.483c-2.336,4.76-9.122,4.76-11.458,0l0,0
	c-7.166-14.602-18.976-26.413-33.578-33.578l0,0c-4.76-2.336-4.76-9.122,0-11.458l0,0c14.602-7.166,26.413-18.976,33.578-33.578l0,0
	c2.336-4.76,9.122-4.76,11.458,0l0,0c7.166,14.602,18.976,26.413,33.578,33.578l0,0c4.76,2.336,4.76,9.122,0,11.458l0,0
	C265.864,104.07,254.054,115.881,246.888,130.483z"/>
<circle style="fill:#7694E4;" cx="117.699" cy="119.27" r="28.09"/>
<circle style="fill:#78CFC0;" cx="132.749" cy="244.97" r="28.09"/>
<path style="fill:#EDA751;" d="M122.896,450.293c-2.006,0-4.04-0.486-5.927-1.51c-6.038-3.28-8.273-10.834-4.993-16.871
	c9.212-16.959,20.589-27.305,34.78-31.63c14.178-4.32,30.495-2.634,51.348,5.31c20.807,7.922,30.959-3.024,50.157-26.533
	l0.707-0.865c4.347-5.32,12.185-6.11,17.506-1.764c5.321,4.348,6.111,12.185,1.764,17.506l-0.704,0.861
	c-9.678,11.852-18.82,23.046-30.617,30.393c-14.625,9.106-30.217,10.302-47.67,3.654c-32.938-12.547-44.883-4.428-55.406,14.945
	C131.585,447.94,127.31,450.293,122.896,450.293z"/>
<path style="fill:#FCD79D;" d="M117.144,423.436c-1.794,2.618-3.518,5.436-5.169,8.476c-3.28,6.038-1.044,13.591,4.993,16.871
	c1.887,1.024,3.921,1.51,5.927,1.51c4.414,0,8.688-2.353,10.943-6.504c1.461-2.689,2.952-5.151,4.519-7.382
	C132.566,427.328,123.718,424.517,117.144,423.436z"/>
<path style="opacity:0.2;fill:#A35F00;enable-background:new    ;" d="M266.473,376.43c-5.321-4.345-13.159-3.556-17.506,1.764
	l-0.707,0.865c-18.134,22.205-28.201,33.193-46.795,27.668c0.206,0.404,0.405,0.81,0.617,1.212
	c4.732,8.967,10.664,17.086,17.563,24.224c5.932-1.171,11.673-3.488,17.271-6.973c11.797-7.347,20.939-18.541,30.617-30.393
	l0.704-0.861C272.583,388.614,271.794,380.777,266.473,376.43z"/>
<path style="fill:#495059;" d="M253.219,504.5c-2.202,0-4.44-0.368-6.635-1.144c-10.365-3.664-15.797-15.037-12.132-25.402
	c5.957-16.851,13.227-40.555,7.598-51.811c-4.916-9.833-0.931-21.791,8.902-26.707c9.835-4.915,21.791-0.93,26.707,8.902
	c12.166,24.331,4.464,54.215-5.672,82.884C269.098,499.393,261.418,504.5,253.219,504.5z"/>
<path style="fill:#EDA751;" d="M194.626,383.772c-17.984,0-37.053-5.995-54.95-17.995c-9.131-6.123-11.569-18.489-5.447-27.619
	c6.123-9.131,18.49-11.567,27.619-5.447c20.645,13.843,41.712,15.034,54.978,3.11c8.175-7.349,20.76-6.68,28.111,1.497
	c7.35,8.176,6.679,20.761-1.496,28.111C229.842,377.654,212.787,383.772,194.626,383.772z"/>
<path style="fill:#7694E4;" d="M216.827,335.821c-11.305,10.161-28.275,10.791-45.82,2.191
	c-1.249,20.08-12.157,29.775-19.546,34.706c14.332,7.359,29.08,11.054,43.166,11.054c18.161,0,35.216-6.118,48.816-18.343
	c8.176-7.35,8.846-19.935,1.496-28.111C237.586,329.141,225.002,328.472,216.827,335.821z"/>
<path style="opacity:0.2;enable-background:new    ;" d="M216.827,335.821c-6.655,5.982-15.281,8.634-24.824,8.071
	c-1,5.644-1.529,11.437-1.529,17.344c0,7.667,0.866,15.184,2.564,22.51c0.53,0.01,1.061,0.026,1.589,0.026
	c18.161,0,35.216-6.119,48.816-18.343c8.176-7.35,8.846-19.935,1.496-28.111C237.586,329.141,225.002,328.472,216.827,335.821z"/>
<path style="fill:#495059;" d="M390.529,503.503c-7.288,0-14.307-4.016-17.803-10.973c-18.673-37.163-33.482-56.213-37.371-59.198
	c-8.9-6.454-10.868-18.889-4.414-27.79c6.454-8.9,18.915-10.87,27.816-4.418c18.388,13.334,42.569,59.652,49.543,73.53
	c4.936,9.823,0.974,21.788-8.85,26.724C396.583,502.82,393.533,503.503,390.529,503.503z"/>
<path style="opacity:0.2;enable-background:new    ;" d="M384.336,432.158c-8.349-13.008-17.52-25.189-25.579-31.033
	c-8.9-6.453-21.362-4.483-27.816,4.418c-6.454,8.9-4.487,21.336,4.414,27.789c2.263,1.737,8.227,8.924,16.494,21.942
	C364.049,449.556,375.069,441.748,384.336,432.158z"/>
<path style="opacity:0.2;enable-background:new    ;" d="M250.952,399.436c-9.833,4.916-13.818,16.873-8.902,26.707
	c2.84,5.679,2.394,14.528,0.492,24.066c11.429,6.771,24.174,11.556,37.687,14.049c4.765-19.799,5.803-39.174-2.57-55.92
	C272.742,398.506,260.787,394.521,250.952,399.436z"/>
<path style="fill:#EDA751;" d="M383.256,371.473c-4.936,0-9.628-0.447-13.98-1.473c-10.7-2.522-17.33-13.241-14.808-23.942
	c2.522-10.699,13.238-17.325,23.942-14.808c10.592,2.494,38-5.422,54.375-10.153c5.414-1.565,10.526-3.043,15.33-4.316
	c10.63-2.823,21.525,3.515,24.341,14.141c2.817,10.626-3.515,21.525-14.141,24.341c-4.375,1.159-9.281,2.578-14.475,4.079
	C423.905,365.103,401.868,371.473,383.256,371.473z"/>
<path style="fill:#7694E4;" d="M431.822,321.375c-16.466,4.756-43.023,12.321-53.411,9.875c-10.704-2.517-21.42,4.108-23.942,14.808
	c-2.522,10.701,4.108,21.42,14.808,23.942c4.352,1.025,9.044,1.473,13.98,1.473c18.035,0,39.279-5.979,58.716-11.591
	C432.051,346.083,430.882,330.063,431.822,321.375z"/>
<path style="opacity:0.2;enable-background:new    ;" d="M413.503,361.236c0-11.652-2.029-22.866-5.766-33.348
	c-11.8,2.823-23.293,4.782-29.328,3.361c-10.704-2.517-21.42,4.108-23.942,14.808c-2.522,10.701,4.107,21.42,14.808,23.942
	c4.351,1.026,9.044,1.473,13.98,1.473c9.384,0,19.638-1.626,30.053-3.969C413.437,365.426,413.503,363.337,413.503,361.236z"/>
<path style="fill:#FCD690;" d="M301.988,395.586l73.525-85.453c-16.746-20.771-43.446-34.212-73.525-34.212
	c-30.079,0-56.779,13.441-73.525,34.212L301.988,395.586z"/>
<path style="fill:#7694E4;" d="M384.469,398.745c5.974-11.321,9.332-24.05,9.332-37.509c0-27.813-14.326-52.514-36.491-68.089
	c-13.139,18.321-40.401,56.335-50.987,71.096c-2.129,2.968-6.542,2.967-8.671-0.002l-50.986-71.095
	c-22.166,15.575-36.491,40.276-36.491,68.089c0,13.459,3.359,26.188,9.332,37.509h164.962V398.745z"/>
<path style="fill:#495059;" d="M219.508,398.745c14.939,28.312,46.258,47.806,82.48,47.806c36.223,0,67.541-19.494,82.48-47.806
	H219.508z"/>
<path style="opacity:0.1;enable-background:new    ;" d="M288.581,445.643c-41.956-27.546-28.953-84.002-21.831-108.691v-54.515
	c-33.217,12.841-56.575,43.284-56.575,78.8C210.176,404.122,244.23,439.612,288.581,445.643z"/>
<g>
	<circle style="fill:#82C7E6;" cx="243.589" cy="375.67" r="7.335"/>
	<circle style="fill:#82C7E6;" cx="366.259" cy="349.68" r="7.335"/>
	<circle style="fill:#82C7E6;" cx="351.589" cy="381.8" r="7.335"/>
	<circle style="fill:#82C7E6;" cx="253.279" cy="340.5" r="7.335"/>
</g>
<path style="fill:#EDA751;" d="M246.115,213.301c17.966-15.075,29.961-40.382,4.62-77.792
	c-25.541-37.706-63.567-47.157-93.255-43.66c-7.319,0.862-13.46,6.015-15.58,13.073c-8.6,28.629-5.895,67.719,26.803,99.419
	C201.144,235.795,228.149,228.376,246.115,213.301z"/>
<path style="fill:#FF91AB;" d="M140.705,109.304c-7.05,28.149-3.064,64.924,27.998,95.038
	c28.119,27.262,52.149,25.313,69.753,14.496C226.348,136.647,173.459,114.852,140.705,109.304z"/>
<path style="fill:#EDA751;" d="M357.862,213.301c-17.966-15.075-29.961-40.382-4.62-77.792
	c25.541-37.706,63.567-47.157,93.255-43.66c7.319,0.862,13.46,6.015,15.58,13.073c8.599,28.629,5.895,67.719-26.803,99.419
	C402.833,235.795,375.828,228.376,357.862,213.301z"/>
<path style="fill:#FF91AB;" d="M463.272,109.304c7.05,28.149,3.064,64.924-27.997,95.038
	c-28.119,27.262-52.149,25.313-69.753,14.496C377.628,136.647,430.518,114.852,463.272,109.304z"/>
<path style="fill:#FFDC9C;" d="M458.298,236.055c0,71.469-69.982,102.772-156.31,102.772s-156.31-31.303-156.31-102.772
	s69.982-129.406,156.31-129.406S458.298,164.585,458.298,236.055z"/>
<path style="opacity:0.15;fill:#C17A00;enable-background:new    ;" d="M218.527,126.628
	c-43.776,22.933-72.848,63.367-72.848,109.427c0,61.437,51.715,93.192,121.072,100.897
	C167.191,277.481,180.175,197.489,218.527,126.628z"/>
<g>
	<ellipse style="fill:#FF91AB;" cx="241.159" cy="232.57" rx="28.3" ry="22.538"/>
	<ellipse style="fill:#FF91AB;" cx="394.559" cy="232.57" rx="28.3" ry="22.538"/>
	<path style="fill:#FF91AB;" d="M338.74,243.643c0,6.1-3.426,11.741-8.924,14.381c-3.618,1.737-7.671,2.71-11.953,2.71
		s-8.335-0.973-11.953-2.71c-5.499-2.639-8.924-8.281-8.924-14.381v-19.12c0-2.463,1.812-4.551,4.251-4.898l0,0
		c11.029-1.568,22.224-1.568,33.253,0l0,0c2.439,0.347,4.251,2.435,4.251,4.898L338.74,243.643L338.74,243.643z"/>
</g>
<path d="M429.917,257.447c-6.542-4.829-23.395-13.294-32.328-15.665c-4.002-1.061-8.11,1.321-9.173,5.325
	c-1.063,4.003,1.321,8.11,5.325,9.173c6.9,1.832,22.144,9.452,27.268,13.235c1.34,0.989,2.9,1.466,4.448,1.466
	c2.3,0,4.569-1.054,6.04-3.046C433.956,264.603,433.249,259.907,429.917,257.447z M479.706,329.001
	c-1.875-7.076-6.393-12.999-12.721-16.677c-6.331-3.679-13.713-4.67-20.791-2.793c-4.934,1.308-10.301,2.859-15.49,4.36
	c-0.313,0.091-0.647,0.187-0.968,0.28c-0.042,0.012-0.083,0.023-0.124,0.036c-1.814,0.524-3.742,1.079-5.762,1.653
	c27.48-19.103,41.95-46.52,41.95-79.805c0-15.79-3.173-31.157-9.252-45.604c17.091-25.903,21.748-57.604,12.713-87.685
	c-2.986-9.94-11.576-17.149-21.885-18.363c-29.938-3.528-59.42,5.726-81.645,25.456c-19.91-7.019-41.49-10.71-63.741-10.71
	c-4.46,0-8.891,0.156-13.289,0.449c1.81-2.366,2.838-5.296,2.838-8.422c0-5.336-2.977-10.11-7.767-12.462
	c-13.042-6.4-23.749-17.107-30.149-30.15c-2.351-4.789-7.126-7.765-12.462-7.765s-10.111,2.976-12.462,7.766
	c-2.805,5.717-6.439,10.985-10.733,15.638c-18.086-16.474-40.788-26.159-65.189-27.808V7.5c0-4.143-3.358-7.5-7.5-7.5
	s-7.5,3.357-7.5,7.5v28.899C81.618,40.265,37.108,87.181,37.108,144.303c0,11.783,1.876,23.31,5.574,34.348
	c-1.553,1.073-3.182,2.041-4.884,2.876c-3.968,1.948-6.433,5.903-6.433,10.323s2.465,8.375,6.434,10.323
	c7.618,3.737,13.872,9.991,17.61,17.608c1.946,3.969,5.902,6.435,10.322,6.435h0.001c2.419,0,4.696-0.742,6.584-2.062
	c7.518,6.889,15.895,12.626,25.03,17.138c-0.125,1.209-0.19,2.436-0.19,3.678c0,19.625,15.966,35.591,35.591,35.591
	c4.914,0,9.752-1.033,14.206-2.97c4.344,9.289,10.281,17.789,17.819,25.437c2.907,2.949,7.655,2.983,10.606,0.077
	c2.95-2.908,2.984-7.656,0.077-10.607c-14.781-14.996-22.276-33.986-22.276-56.443c0-67.22,66.756-121.906,148.81-121.906
	s148.809,54.687,148.809,121.906c0,31.046-14.166,55.181-42.105,71.734c-7.526,4.459-15.972,8.305-25.23,11.525
	c-0.09,0.03-0.179,0.058-0.268,0.092c-16.966,5.869-36.665,9.628-58.506,11.147c-0.049,0.003-0.099,0.006-0.148,0.01
	c-7.288,0.503-14.809,0.763-22.551,0.763c-7.734,0-15.261-0.257-22.557-0.763c-0.036-0.003-0.072-0.006-0.108-0.009
	c-31.466-2.196-58.619-9.056-79.418-20.165c-3.653-1.954-8.198-0.571-10.149,3.082s-0.571,8.197,3.083,10.148
	c4.822,2.576,9.948,4.935,15.346,7.085c-0.343,0.919-0.67,1.843-0.981,2.77c-10.729,5.775-25.898,3.252-41.178-6.994
	c-12.552-8.417-29.609-5.051-38.025,7.5c-8.416,12.549-5.052,29.607,7.499,38.025c4.086,2.74,8.253,5.181,12.473,7.352
	c0.005,0.002,0.01,0.005,0.015,0.008c15.185,7.81,31.082,11.906,46.639,11.906c4.376,0,8.726-0.34,13.002-1.004
	c1.232,3.488,2.696,6.915,4.383,10.28c-3.318,0.337-6.913-0.318-11.237-1.965c-22.49-8.567-40.35-10.308-56.205-5.476
	c-16.168,4.928-28.986,16.449-39.184,35.224c-5.249,9.66-1.66,21.791,8.005,27.044c2.915,1.582,6.202,2.418,9.506,2.418
	c7.323,0,14.042-3.994,17.534-10.424c8.148-14.999,15.321-23.257,46.146-11.517c17.81,6.785,34.577,6.148,49.926-1.825
	c0.99,9.895-4.165,27.406-9.122,41.426c-2.44,6.902-2.046,14.341,1.108,20.946c3.155,6.605,8.693,11.588,15.594,14.026
	c2.952,1.045,6.026,1.574,9.136,1.574c11.59,0,21.974-7.345,25.839-18.277c4.043-11.437,8.717-25.866,10.961-40.346
	c3.936,0.437,7.929,0.674,11.97,0.674c12.527,0,24.621-2.158,35.819-6.174c5.395,7.46,15.537,22.786,28.217,48.02
	c4.681,9.317,14.07,15.105,24.504,15.105c4.235,0,8.484-1.01,12.289-2.922c11.504-5.78,17.479-19.002,14.21-31.438
	c-1.054-4.007-5.155-6.398-9.161-5.347c-4.006,1.054-6.399,5.155-5.347,9.161c1.479,5.623-1.228,11.604-6.436,14.221
	c-1.75,0.88-3.618,1.325-5.555,1.325c-4.727,0-8.981-2.621-11.102-6.84c-11.769-23.424-21.438-38.672-27.631-47.513
	c7.343-3.968,14.119-8.828,20.174-14.466c5.411,7.686,11.265,17.085,17.471,28.061c1.379,2.44,3.919,3.81,6.535,3.81
	c1.25,0,2.518-0.313,3.684-0.973c3.605-2.038,4.876-6.613,2.838-10.22c-7.167-12.675-13.936-23.401-20.184-31.993
	c3.264-4.213,6.188-8.721,8.721-13.504c0.015-0.027,0.03-0.054,0.045-0.081c0.007-0.013,0.014-0.026,0.021-0.039
	c4.146-7.857,7.034-16.081,8.654-24.58c15.328-2.211,31.608-6.91,46.167-11.118c5.139-1.486,9.991-2.89,14.314-4.034
	c7.075-1.876,12.997-6.395,16.675-12.725C480.589,343.459,481.581,336.076,479.706,329.001z M65.732,207.64
	c-4.093-6.295-9.496-11.698-15.791-15.79c2.2-1.43,4.283-3.029,6.247-4.762c0.151-0.118,0.295-0.244,0.435-0.372
	c0.001-0.001,0.001-0.001,0.002-0.001c0.099-0.091,0.198-0.182,0.292-0.277c3.357-3.07,6.33-6.557,8.815-10.378
	c4.093,6.295,9.496,11.697,15.791,15.791C75.228,195.942,69.825,201.345,65.732,207.64z M132.747,265.56
	c-11.354,0-20.591-9.237-20.591-20.591s9.237-20.591,20.591-20.591c2.018,0,4.016,0.308,5.934,0.886
	c-0.33,3.571-0.502,7.168-0.502,10.79c0,9.689,1.207,18.837,3.58,27.428C138.981,264.842,135.935,265.56,132.747,265.56z
	 M141.041,210.379c-2.708-0.649-5.489-1-8.294-1c-13.016,0-24.417,7.027-30.623,17.484c-7.634-3.989-14.637-8.987-20.914-14.951
	c3.424-4.049,7.67-7.391,12.456-9.739c3.968-1.948,6.433-5.903,6.433-10.323s-2.465-8.375-6.433-10.322
	c-7.618-3.739-13.872-9.994-17.611-17.612c-1.948-3.968-5.903-6.433-10.323-6.433c-4.42,0.001-8.375,2.466-10.322,6.433
	c-0.273,0.556-0.563,1.102-0.862,1.643c-1.616-6.923-2.44-14.032-2.44-21.255c0-51.373,41.794-93.168,93.167-93.168
	c22.828,0,44.268,8.093,61.222,22.939c-2.535,1.724-5.186,3.284-7.949,4.64c-3.173,1.557-5.571,4.226-6.813,7.411
	c-11.353-2.505-23.207-3.13-35.133-1.723c-6.138,0.723-11.655,3.582-15.754,7.866c-6.373-5.447-14.58-8.593-23.153-8.593
	c-19.625,0-35.591,15.966-35.591,35.591s15.966,35.591,35.591,35.591c4.977,0,9.783-1.016,14.2-2.94
	c2.488,13.587,7.705,26.668,15.535,38.534C144.707,196.924,142.571,203.581,141.041,210.379z M130.222,135.574
	c-3.579,2.766-7.923,4.283-12.527,4.283c-11.354,0-20.591-9.237-20.591-20.591s9.237-20.591,20.591-20.591
	c6.237,0,12.138,2.885,16.019,7.676C131.163,116.037,130.008,125.859,130.222,135.574z M186.678,138.773
	c-12.854,10.641-23.329,22.748-31.215,35.872c-11.498-21.643-11.224-42.641-8.921-56.522c12.37,2.872,27.581,8.488,41.657,19.421
	C187.691,137.954,187.179,138.358,186.678,138.773z M200.731,128.393c-16.714-14.044-35.088-21.128-49.957-24.683
	c1.779-2.412,4.497-4.048,7.584-4.411c11.439-1.346,38.803-1.971,64.085,16.994C214.871,119.814,207.614,123.856,200.731,128.393z
	 M256.852,104.39c-6.338,1.508-12.549,3.334-18.605,5.469c-9.166-8.137-19.563-14.494-30.721-18.904
	c5.39-2.873,10.428-6.351,15.018-10.342c0.212-0.164,0.419-0.338,0.617-0.528c0.041-0.039,0.076-0.082,0.115-0.122
	c7.247-6.456,13.347-14.185,17.884-22.814c7.602,14.459,19.567,26.424,34.026,34.027C268.482,94.695,262.337,99.135,256.852,104.39z
	 M381.534,116.293c25.282-18.965,52.647-18.339,64.084-16.994c3.087,0.364,5.806,1.999,7.585,4.412
	c-14.87,3.555-33.243,10.639-49.957,24.683C396.363,123.856,389.106,119.814,381.534,116.293z M448.515,174.645
	c-7.887-13.124-18.361-25.23-31.215-35.871c-0.502-0.416-1.014-0.819-1.521-1.229c14.076-10.934,29.287-16.549,41.657-19.421
	C459.738,132.004,460.012,153.002,448.515,174.645z M150.823,363.853c-2.343-1.335-4.67-2.763-6.969-4.305
	c-5.682-3.81-7.205-11.533-3.396-17.213c3.811-5.681,11.533-7.204,17.214-3.396c1.77,1.187,3.546,2.282,5.324,3.302
	C161.539,351.155,157.524,358.283,150.823,363.853z M194.626,376.272c-9.661,0-19.537-1.898-29.273-5.561
	c5.758-6.216,9.655-13.62,11.664-22.15c9.198,3.019,18.157,3.73,26.303,2.078c-0.424,3.497-0.644,7.031-0.644,10.598
	c0,4.879,0.405,9.689,1.19,14.417C200.821,376.059,197.734,376.272,194.626,376.272z M301.989,346.326
	c2.698,0,5.371-0.033,8.021-0.093l-8.021,11.185l-8.02-11.183C296.619,346.296,299.292,346.326,301.989,346.326z M191.916,421.835
	c-17.632-6.716-30.726-8.172-41.208-4.584c-11.895,4.073-18.533,13.892-23.459,22.958c-0.866,1.594-2.534,2.584-4.353,2.584
	c-0.824,0-1.615-0.202-2.347-0.6c-2.395-1.302-3.285-4.308-1.984-6.701c8.226-15.144,18.162-24.314,30.376-28.037
	c12.503-3.81,27.275-2.175,46.494,5.145c9.186,3.498,17.234,3.973,24.832,1.422c2.06,2.8,4.271,5.471,6.614,8.014
	C216.081,426.826,204.807,426.745,191.916,421.835z M264.915,488.723c-1.75,4.951-6.45,8.277-11.696,8.277
	c-1.401,0-2.792-0.24-4.136-0.716c-3.124-1.105-5.631-3.359-7.059-6.35c-1.428-2.989-1.606-6.358-0.501-9.482
	c4.652-13.159,9.001-27.226,9.893-39.231c7.425,4.097,15.432,7.283,23.846,9.454C273.237,464.068,268.772,477.815,264.915,488.723z
	 M367.656,410.09c-0.416,0.382-0.784,0.799-1.094,1.248c-7.797,8.613-17.445,15.474-28.28,20.218
	c-0.596,0.169-1.174,0.421-1.726,0.744c-10.634,4.385-22.357,6.751-34.567,6.751c-5.686,0-11.263-0.524-16.676-1.515
	c-0.308-0.076-0.622-0.134-0.945-0.17c-13.77-2.671-26.428-8.446-36.975-16.737c-0.52-0.571-1.122-1.048-1.776-1.427
	c-0.196-0.163-0.385-0.334-0.58-0.499c-0.492-0.574-1.055-1.057-1.669-1.446c-3.725-3.338-7.13-7.022-10.176-11.011h137.596
	C369.782,407.561,368.738,408.842,367.656,410.09z M385.787,369.909c-0.016,0.119-0.033,0.238-0.044,0.359
	c-0.899,7.233-2.885,14.251-5.944,20.977h-155.62c-1.674-3.681-3.02-7.451-4.049-11.294c-0.01-0.046-0.015-0.092-0.027-0.139
	c-0.025-0.103-0.061-0.199-0.09-0.3c-1.549-5.932-2.337-12.038-2.337-18.276c0-8.807,1.57-17.381,4.668-25.573
	c15.744,4.809,33.368,8.033,52.458,9.587l16.755,23.362c2.404,3.354,6.303,5.358,10.43,5.358c0.001,0,0.001,0,0.002,0
	c4.126,0,8.024-2.002,10.431-5.355l16.754-23.363c19.117-1.549,36.724-4.771,52.461-9.584c3.097,8.19,4.667,16.763,4.667,25.569
	C386.301,364.158,386.128,367.05,385.787,369.909z M401.286,362.245c0.004-0.337,0.015-0.671,0.015-1.009
	c0-8.065-1.094-15.965-3.249-23.623c8.459-1.537,17.845-3.959,26.203-6.285c0.562,7.483,2.463,15.914,6.349,23.995
	C420.912,358.034,410.845,360.623,401.286,362.245z M463.942,342.254c-1.665,2.865-4.346,4.911-7.548,5.76
	c-3.46,0.917-7.191,1.977-11.111,3.106c-5.102-9.151-6.144-18.399-6.208-24.032c3.808-1.095,7.462-2.13,10.965-3.058
	c3.204-0.851,6.543-0.402,9.408,1.263c2.864,1.665,4.909,4.346,5.758,7.551C466.055,336.047,465.606,339.389,463.942,342.254z
	 M441.744,231.766c1.004-4.018-1.438-8.091-5.457-9.096c-7.888-1.971-26.693-3.376-35.858-2.166
	c-4.106,0.543-6.995,4.311-6.453,8.418c0.543,4.106,4.309,6.993,8.418,6.453c7.077-0.938,24.076,0.302,30.255,1.848
	c0.611,0.152,1.223,0.225,1.825,0.225C437.834,237.448,440.891,235.173,441.744,231.766z M378.07,186.384
	c-11.575,0-20.993,9.418-20.993,20.994c0,4.143,3.357,7.5,7.5,7.5s7.5-3.357,7.5-7.5c0-3.306,2.688-5.994,5.993-5.994
	s5.994,2.688,5.994,5.994c0,4.143,3.357,7.5,7.5,7.5c4.142,0,7.5-3.357,7.5-7.5C399.064,195.802,389.646,186.384,378.07,186.384z
	 M317.862,268.233c5.318,0,10.432-1.16,15.198-3.448c8.007-3.844,13.18-12.143,13.18-21.143v-19.12
	c0-6.159-4.598-11.457-10.695-12.324c-11.734-1.666-23.631-1.666-35.365,0c-6.098,0.867-10.695,6.165-10.695,12.324v19.12
	c0,9,5.173,17.299,13.18,21.143C307.432,267.073,312.545,268.233,317.862,268.233z M304.484,226.76
	c8.89-1.081,17.868-1.083,26.756,0v16.883c0,3.267-1.833,6.258-4.67,7.619c-2.726,1.309-5.655,1.972-8.708,1.972
	c-3.052,0-5.982-0.663-8.708-1.972c-2.837-1.361-4.67-4.353-4.67-7.619L304.484,226.76L304.484,226.76z M251.66,207.378
	c0-3.306,2.689-5.994,5.994-5.994c3.305,0,5.994,2.688,5.994,5.994c0,4.143,3.358,7.5,7.5,7.5c4.143,0,7.5-3.357,7.5-7.5
	c0-11.576-9.418-20.994-20.994-20.994c-11.576,0-20.994,9.418-20.994,20.994c0,4.143,3.358,7.5,7.5,7.5
	S251.66,211.52,251.66,207.378z M238.135,241.782c-8.933,2.371-25.785,10.836-32.328,15.665c-3.333,2.46-4.04,7.156-1.58,10.488
	c1.471,1.992,3.74,3.046,6.04,3.046c1.547,0,3.108-0.477,4.448-1.466c5.124-3.783,20.367-11.403,27.268-13.235
	c4.003-1.063,6.387-5.17,5.325-9.173C246.246,243.104,242.141,240.722,238.135,241.782z M199.438,222.67
	c-4.019,1.005-6.462,5.077-5.457,9.096c0.852,3.407,3.91,5.683,7.27,5.683c0.602,0,1.214-0.073,1.825-0.225
	c6.179-1.545,23.178-2.782,30.255-1.848c4.11,0.542,7.876-2.347,8.418-6.453c0.543-4.107-2.347-7.875-6.453-8.418
	C226.131,219.294,207.326,220.698,199.438,222.67z"/>
<g>
</g>
<g>
</g>
<g>
</g>
<g>
</g>
<g>
</g>
<g>
</g>
<g>
</g>
<g>
</g>
<g>
</g>
<g>
</g>
<g>
</g>
<g>
</g>
<g>
</g>
<g>
</g>
<g>
</g>
</svg>
