<?xml version="1.0" encoding="iso-8859-1"?>
<!-- Generator: Adobe Illustrator 19.0.0, SVG Export Plug-In . SVG Version: 6.00 Build 0)  -->
<svg version="1.1" id="Capa_1" xmlns="http://www.w3.org/2000/svg" xmlns:xlink="http://www.w3.org/1999/xlink" x="0px" y="0px"
	 viewBox="0 0 512 512" style="enable-background:new 0 0 512 512;" xml:space="preserve">
<path style="fill:#EDA751;" d="M190.717,358.892c20.991-17.487,35.007-46.842,5.398-90.238
	c-29.842-43.738-74.273-54.702-108.96-50.645c-8.552,1-15.727,6.978-18.204,15.165c-10.048,33.209-6.888,78.553,31.316,115.326
	C138.172,384.984,169.725,376.379,190.717,358.892z"/>
<path style="fill:#FF91AB;" d="M67.555,238.257c-8.237,32.652-3.58,75.312,32.713,110.244
	c32.855,31.623,60.931,29.363,81.501,16.815C167.622,269.974,105.825,244.691,67.555,238.257z"/>
<path style="fill:#EDA751;" d="M321.284,358.892c-20.991-17.487-35.007-46.842-5.398-90.238
	c29.842-43.738,74.273-54.702,108.96-50.645c8.552,1,15.727,6.978,18.204,15.165c10.048,33.209,6.888,78.553-31.317,115.326
	C373.828,384.984,342.275,376.379,321.284,358.892z"/>
<path style="fill:#FF91AB;" d="M444.445,238.257c8.237,32.652,3.58,75.312-32.713,110.244
	c-32.855,31.623-60.931,29.363-81.501,16.815C344.379,269.974,406.175,244.691,444.445,238.257z"/>
<path style="fill:#FFDC9C;" d="M438.634,385.285c0,82.904-81.768,119.215-182.634,119.215S73.366,468.189,73.366,385.285
	S155.134,235.175,256,235.175S438.634,302.382,438.634,385.285z"/>
<path style="opacity:0.15;fill:#C17A00;enable-background:new    ;" d="M158.482,258.352
	c-51.149,26.602-85.116,73.505-85.116,126.934c0,71.267,60.424,108.102,141.461,117.039
	C98.501,433.34,113.672,340.55,158.482,258.352z"/>
<g>
	<ellipse style="fill:#FF91AB;" cx="166.38" cy="388.78" rx="33.07" ry="26.14"/>
	<ellipse style="fill:#FF91AB;" cx="345.62" cy="388.78" rx="33.07" ry="26.14"/>
	<ellipse style="fill:#FF91AB;" cx="256" cy="382.95" rx="26.589" ry="32.687"/>
</g>
<path id="SVGCleanerId_0" style="fill:#F5D141;" d="M301.456,90.614c0-25.564-21.104-46.2-46.841-45.435
	c-23.651,0.703-43.062,19.883-44.031,43.524c-0.583,14.223,5.376,27.064,15.111,35.776c5.945,5.32,9.495,12.806,9.495,20.784v5.588
	h41.621v-5.59c0-7.859,3.346-15.36,9.241-20.557C295.496,116.378,301.456,104.195,301.456,90.614z"/>
<g>
	<path id="SVGCleanerId_0_1_" style="fill:#F5D141;" d="M301.456,90.614c0-25.564-21.104-46.2-46.841-45.435
		c-23.651,0.703-43.062,19.883-44.031,43.524c-0.583,14.223,5.376,27.064,15.111,35.776c5.945,5.32,9.495,12.806,9.495,20.784v5.588
		h41.621v-5.59c0-7.859,3.346-15.36,9.241-20.557C295.496,116.378,301.456,104.195,301.456,90.614z"/>
</g>
<path style="opacity:0.2;fill:#C18F00;enable-background:new    ;" d="M250.447,150.851c1.12-13.918-0.444-29.511-11.182-40.641
	c-16.653-17.261-12.338-46.43-0.054-61.801c-16.164,6.5-27.88,22.066-28.628,40.293c-0.583,14.223,5.376,27.064,15.111,35.777
	c5.945,5.32,9.495,12.806,9.495,20.784v5.588H250.447z"/>
<circle style="fill:#495059;" cx="256" cy="180.22" r="26.802"/>
<path style="fill:#DEE2E5;" d="M283.431,182.17h-54.863c-4.968,0-8.995-4.027-8.995-8.995v-13.329c0-4.968,4.027-8.995,8.995-8.995
	h54.863c4.968,0,8.995,4.027,8.995,8.995v13.329C292.427,178.143,288.399,182.17,283.431,182.17z"/>
<path style="opacity:0.1;enable-background:new    ;" d="M244.78,150.851h-16.211c-4.968,0-8.995,4.027-8.995,8.995v13.329
	c0,4.968,4.027,8.995,8.995,8.995h16.802C239.85,174.049,240.339,157.564,244.78,150.851z"/>
<path d="M220.693,130.067c3.958,3.542,6.408,8.321,6.899,13.333c-8.641,0.509-15.52,7.679-15.52,16.446v13.329
	c0,7.046,4.449,13.057,10.678,15.416c3.773,14.931,17.378,25.927,33.248,25.927c15.871,0,29.476-10.996,33.249-25.927
	c6.229-2.359,10.678-8.37,10.678-15.416v-13.329c0-8.768-6.882-15.939-15.525-16.446c0.468-5.038,2.815-9.725,6.609-13.07
	c2.145-1.891,4.149-3.968,5.958-6.174c2.627-3.202,2.16-7.928-1.043-10.555c-3.203-2.628-7.929-2.159-10.555,1.043
	c-1.299,1.583-2.739,3.075-4.28,4.434c-7.01,6.18-11.22,14.941-11.728,24.272h-26.729c-0.522-9.252-4.806-18.078-11.938-24.461
	c-8.487-7.595-13.086-18.485-12.619-29.88c0.811-19.786,16.958-35.746,36.761-36.334c20.736-0.635,38.251,15.7,39.086,36.372
	c0.167,4.139,3.653,7.362,7.796,7.191c4.139-0.168,7.358-3.658,7.191-7.797c-1.166-28.849-25.613-51.6-54.519-50.761
	c-27.636,0.822-50.17,23.098-51.303,50.713C202.439,104.284,208.855,119.474,220.693,130.067z M256,199.518
	c-7.143,0-13.457-3.966-16.79-9.848h33.581C269.457,195.551,263.143,199.518,256,199.518z M283.432,158.351
	c0.824,0,1.495,0.671,1.495,1.495v13.329c0,0.824-0.671,1.495-1.495,1.495h-54.863c-0.824,0-1.495-0.671-1.495-1.495v-13.329
	c0-0.824,0.671-1.495,1.495-1.495H283.432z M179.939,53.328l12.493,7.564c1.214,0.735,2.554,1.085,3.877,1.085
	c2.537,0,5.013-1.288,6.423-3.616c2.145-3.544,1.012-8.155-2.532-10.301l-12.493-7.563c-3.542-2.146-8.156-1.012-10.3,2.531
	C175.262,46.571,176.396,51.183,179.939,53.328z M256,29.351c4.142,0,7.5-3.357,7.5-7.5V7.5c0-4.143-3.358-7.5-7.5-7.5
	s-7.5,3.357-7.5,7.5v14.351C248.5,25.993,251.858,29.351,256,29.351z M173.168,114.227c0.475,0,0.957-0.045,1.44-0.139l14.335-2.789
	c4.066-0.791,6.721-4.729,5.93-8.795c-0.791-4.066-4.731-6.722-8.794-5.93l-14.336,2.789c-4.066,0.791-6.721,4.729-5.93,8.795
	C166.511,111.74,169.65,114.227,173.168,114.227z M317.126,102.504c-0.791,4.066,1.864,8.004,5.93,8.795l14.335,2.789
	c0.484,0.094,0.965,0.139,1.44,0.139c3.517,0,6.657-2.486,7.353-6.068c0.791-4.066-1.864-8.004-5.93-8.795l-14.335-2.789
	C321.853,95.787,317.918,98.438,317.126,102.504z M315.691,61.977c1.323,0,2.663-0.35,3.877-1.085l12.493-7.564
	c3.543-2.146,4.677-6.757,2.531-10.301c-2.145-3.542-6.756-4.678-10.3-2.531L311.8,48.06c-3.544,2.146-4.677,6.757-2.532,10.301
	C310.678,60.688,313.154,61.977,315.691,61.977z M354.595,390.842c8.558-1.122,28.358,0.314,35.841,2.171
	c0.607,0.15,1.214,0.223,1.813,0.223c3.365,0,6.426-2.282,7.273-5.695c0.997-4.021-1.453-8.088-5.473-9.086
	c-9.113-2.262-30.829-3.873-41.406-2.485c-4.107,0.539-7,4.305-6.461,8.412C346.722,388.488,350.484,391.375,354.595,390.842z
	 M290.089,382.954c0-22.159-15.292-40.188-34.089-40.188s-34.089,18.028-34.089,40.188S237.203,423.14,256,423.14
	S290.089,405.113,290.089,382.954z M236.911,382.954c0-13.889,8.564-25.188,19.089-25.188c10.526,0,19.089,11.299,19.089,25.188
	c0,13.888-8.563,25.186-19.089,25.186C245.474,408.141,236.911,396.842,236.911,382.954z M333.848,362.701v-11.593
	c0-4.143-3.358-7.5-7.5-7.5s-7.5,3.357-7.5,7.5v11.593c0,4.143,3.358,7.5,7.5,7.5S333.848,366.844,333.848,362.701z
	 M339.653,405.959c-1.056,4.006,1.336,8.108,5.341,9.164c8.34,2.198,26.09,11.014,32.295,15.561
	c1.336,0.979,2.888,1.451,4.427,1.451c2.309,0,4.586-1.064,6.056-3.068c2.448-3.341,1.724-8.034-1.617-10.482
	c-7.56-5.54-27.024-15.247-37.337-17.965C344.811,399.565,340.709,401.955,339.653,405.959z M450.228,231.003
	c-3.349-11.068-12.97-19.093-24.512-20.442c-34.87-4.083-69.191,6.732-94.948,29.721c-23.325-8.26-48.648-12.607-74.767-12.607
	c-26.12,0-51.442,4.347-74.768,12.607c-25.758-22.987-60.082-33.792-94.948-29.721c-11.541,1.35-21.163,9.374-24.512,20.442
	c-10.518,34.763-5.009,71.408,15.052,101.261c-7.201,16.784-10.958,34.655-10.958,53.021c0,48.485,26.358,85.393,76.226,106.732
	c3.809,1.627,8.216-0.136,9.846-3.944c1.63-3.809-0.136-8.217-3.944-9.847c-21.336-9.13-37.868-21.344-49.14-36.304
	c-11.935-15.841-17.987-34.897-17.987-56.638c0-78.636,78.565-142.61,175.134-142.61s175.134,63.975,175.134,142.61
	c0,36.457-16.753,64.797-49.795,84.232C350.773,487.496,307.431,497,256,497c-27.464,0-52.749-2.719-75.152-8.082
	c-4.026-0.963-8.076,1.521-9.04,5.548c-0.964,4.028,1.52,8.076,5.548,9.04C200.901,509.143,227.361,512,256,512
	c54.103,0,100.075-10.22,132.944-29.554c37.414-22.008,57.189-55.605,57.189-97.161c0-18.366-3.757-36.237-10.958-53.021
	C455.236,302.411,460.745,265.765,450.228,231.003z M122.096,273.348c-15.543,12.775-28.083,27.383-37.35,43.239
	c-15.081-26.767-14.383-52.9-11.393-69.566c15.165,3.345,34.219,10.165,51.663,23.984
	C124.036,271.778,123.06,272.555,122.096,273.348z M137.599,261.918c-20.179-17.091-42.549-25.377-60.271-29.377
	c2.18-3.869,6.127-6.548,10.698-7.083c13.772-1.611,47.063-2.354,77.403,21.158C155.684,251,146.375,256.112,137.599,261.918z
	 M346.571,246.617c30.339-23.509,63.629-22.768,77.402-21.158c4.571,0.535,8.518,3.213,10.698,7.083
	c-17.72,3.999-40.09,12.285-60.271,29.376C365.625,256.112,356.316,251,346.571,246.617z M427.253,316.586
	c-9.267-15.855-21.806-30.463-37.35-43.239c-0.964-0.792-1.94-1.57-2.921-2.343c17.446-13.82,36.499-20.64,51.663-23.984
	C441.636,263.687,442.334,289.82,427.253,316.586z M157.405,390.842c4.102,0.532,7.872-2.355,8.412-6.461
	c0.539-4.107-2.354-7.873-6.461-8.412c-10.577-1.384-32.293,0.224-41.406,2.485c-4.02,0.998-6.47,5.065-5.473,9.086
	c0.847,3.413,3.908,5.695,7.273,5.695c0.598,0,1.206-0.072,1.813-0.223C129.047,391.156,148.848,389.72,157.405,390.842z
	 M185.652,370.201c4.142,0,7.5-3.357,7.5-7.5v-11.593c0-4.143-3.358-7.5-7.5-7.5s-7.5,3.357-7.5,7.5v11.593
	C178.152,366.844,181.51,370.201,185.652,370.201z M172.347,405.959c-1.056-4.005-5.159-6.396-9.164-5.34
	c-10.313,2.718-29.777,12.425-37.337,17.965c-3.341,2.448-4.065,7.142-1.617,10.482c1.469,2.006,3.747,3.068,6.056,3.068
	c1.539,0,3.091-0.473,4.427-1.451c6.206-4.547,23.956-13.362,32.295-15.561C171.012,414.067,173.403,409.965,172.347,405.959z"/>
<g>
</g>
<g>
</g>
<g>
</g>
<g>
</g>
<g>
</g>
<g>
</g>
<g>
</g>
<g>
</g>
<g>
</g>
<g>
</g>
<g>
</g>
<g>
</g>
<g>
</g>
<g>
</g>
<g>
</g>
</svg>
