<?xml version="1.0" encoding="iso-8859-1"?>
<!-- Generator: Adobe Illustrator 19.0.0, SVG Export Plug-In . SVG Version: 6.00 Build 0)  -->
<svg version="1.1" id="Capa_1" xmlns="http://www.w3.org/2000/svg" xmlns:xlink="http://www.w3.org/1999/xlink" x="0px" y="0px"
	 viewBox="0 0 512 512" style="enable-background:new 0 0 512 512;" xml:space="preserve">
<path style="fill:#EDA751;" d="M372.379,421.192c-28.951,0-45.087-20.338-60.768-40.104c-2.235-2.818-4.545-5.73-6.936-8.655
	c-5.239-6.414-4.287-15.861,2.126-21.1c6.414-5.239,15.861-4.289,21.1,2.126c2.525,3.092,4.904,6.09,7.204,8.989
	c19.061,24.025,26.678,32.102,46.748,27.591c6.339-1.426,8.637-6.193,13.251-21.852c5.079-17.237,12.753-43.283,44.947-49.859
	c8.113-1.659,16.036,3.577,17.693,11.692c1.657,8.114-3.577,16.035-11.692,17.693c-13.212,2.698-16.741,10.487-22.181,28.951
	c-4.617,15.67-10.94,37.129-35.442,42.637C382.664,420.597,377.333,421.192,372.379,421.192z"/>
<path style="fill:#FCD79D;" d="M440.052,318.329c-5.227,1.068-9.798,2.655-13.826,4.628c0.658,6.833,3.33,19.315,12.576,27.239
	c2.052-1.095,4.429-1.906,7.251-2.483c8.114-1.658,13.349-9.579,11.692-17.693C456.088,321.906,448.165,316.67,440.052,318.329z"/>
<g>
	<path style="fill:#EDA751;" d="M211.606,504.5c-9.883,0-19.138-6.154-22.621-16.002c-14.934-42.243,1.027-83.248,23.469-105.147
		c9.485-9.253,24.675-9.068,33.928,0.416c9.255,9.485,9.068,24.674-0.416,33.929c-6.435,6.28-21.088,28.366-11.741,54.807
		c4.417,12.493-2.13,26.202-14.624,30.619C216.96,504.056,214.26,504.5,211.606,504.5z"/>
	<path style="fill:#EDA751;" d="M280.874,504.5c-9.883,0-19.139-6.154-22.621-16.003c-14.934-42.241,1.027-83.246,23.469-105.145
		c9.484-9.255,24.673-9.069,33.928,0.416c9.254,9.484,9.068,24.673-0.416,33.929c-6.435,6.28-21.088,28.366-11.741,54.807
		c4.417,12.493-2.131,26.201-14.624,30.618C286.226,504.056,283.527,504.5,280.874,504.5z"/>
	<path style="fill:#EDA751;" d="M143.69,347.973c-24.904,0-56.099-5.542-78.936-28.377c-9.37-9.37-9.37-24.561,0-33.931
		c9.369-9.37,24.561-9.371,33.931-0.001c7.968,7.969,33.518,20.564,73.197,11.214c12.899-3.032,25.817,4.952,28.857,17.849
		c3.04,12.898-4.95,25.818-17.849,28.858C177.446,344.868,162.328,347.973,143.69,347.973z"/>
</g>
<g>
	<path style="opacity:0.2;fill:#A35F00;enable-background:new    ;" d="M335.105,362.449c-2.3-2.9-4.679-5.898-7.204-8.989
		c-5.24-6.415-14.687-7.366-21.1-2.126c-6.414,5.241-7.366,14.687-2.126,21.1c2.391,2.925,4.701,5.838,6.936,8.656
		c12.547,15.814,25.391,31.982,44.849,37.821c8.766-8.334,16.269-17.842,22.215-28.249
		C360.923,393.613,353.125,385.16,335.105,362.449z"/>
	<path style="opacity:0.2;fill:#A35F00;enable-background:new    ;" d="M281.722,383.351c-16.36,15.964-29.258,42.082-29.274,71.427
		c3.806,0.316,7.655,0.487,11.547,0.487c12.74,0,25.054-1.738,36.698-4.962c1.479-16.012,10.029-28.203,14.543-32.608
		c9.484-9.255,9.67-24.445,0.416-33.928C306.396,374.283,291.206,374.096,281.722,383.351z"/>
	<path style="opacity:0.2;fill:#A35F00;enable-background:new    ;" d="M212.455,383.351c-11.738,11.454-21.691,28.138-26.39,47.487
		c13.343,9.412,28.664,16.473,45.265,20.522c1.188-16.533,10.025-29.162,14.639-33.665c9.484-9.254,9.671-24.443,0.416-33.928
		C237.13,374.284,221.939,374.099,212.455,383.351z"/>
	<path style="opacity:0.2;fill:#A35F00;enable-background:new    ;" d="M171.883,296.879c-12.483,2.942-23.564,3.709-33.143,3.134
		c-3.138,10.504-4.822,21.574-4.822,33.008c0,4.979,0.326,9.886,0.945,14.711c3.01,0.164,5.962,0.242,8.828,0.242
		c18.638,0,33.756-3.106,39.202-4.389c12.898-3.04,20.888-15.961,17.849-28.858C197.7,301.831,184.781,293.847,171.883,296.879z"/>
</g>
<ellipse style="fill:#FCD690;" cx="263.993" cy="333.021" rx="110.667" ry="102.827"/>
<path style="opacity:0.15;fill:#C17A00;enable-background:new    ;" d="M247.834,434.757
	c-50.57-33.201-34.897-101.248-26.313-131.007v-65.707c-40.037,15.478-68.19,52.171-68.19,94.978
	C153.331,384.711,194.377,427.488,247.834,434.757z"/>
<path style="fill:#EDA751;" d="M196.649,154.713c21.654-18.171,36.112-48.673,5.569-93.763
	C171.433,15.503,125.599,4.111,89.816,8.327c-8.822,1.039-16.224,7.251-18.779,15.758c-10.365,34.507-7.105,81.623,32.306,119.832
	C142.445,181.825,174.995,172.883,196.649,154.713z"/>
<path style="fill:#FF91AB;" d="M69.597,29.364c-8.498,33.928-3.693,78.254,33.746,114.551
	c33.892,32.859,62.855,30.511,84.075,17.473C172.824,62.32,109.076,36.05,69.597,29.364z"/>
<path style="fill:#EDA751;" d="M331.339,154.713c-21.654-18.171-36.112-48.673-5.569-93.763
	C356.556,15.503,402.39,4.111,438.172,8.327c8.822,1.039,16.224,7.251,18.779,15.758c10.365,34.507,7.105,81.623-32.305,119.832
	C385.543,181.825,352.994,172.883,331.339,154.713z"/>
<path style="fill:#FF91AB;" d="M458.391,29.364c8.498,33.928,3.693,78.254-33.746,114.551
	c-33.892,32.859-62.856,30.511-84.075,17.473C355.164,62.32,418.913,36.05,458.391,29.364z"/>
<path style="fill:#FFDC9C;" d="M452.396,182.138c0,86.143-84.351,123.873-188.403,123.873S75.591,268.281,75.591,182.138
	S159.942,26.162,263.993,26.162S452.396,95.995,452.396,182.138z"/>
<path style="opacity:0.15;fill:#C17A00;enable-background:new    ;" d="M163.396,50.245
	c-52.765,27.641-87.805,76.377-87.805,131.893c0,74.051,62.332,112.326,145.929,121.613
	C101.521,232.071,117.17,135.654,163.396,50.245z"/>
<g>
	<path style="fill:#7694E4;" d="M231.552,158.606h-28.534v88.635c0,7.88,6.388,14.268,14.268,14.268l0,0
		c7.88,0,14.268-6.388,14.268-14.268v-88.635H231.552z"/>
	<path style="fill:#7694E4;" d="M376.692,158.606h-28.534v88.635c0,7.88,6.388,14.268,14.268,14.268l0,0
		c7.88,0,14.268-6.388,14.268-14.268v-88.635H376.692z"/>
</g>
<g>
	<circle style="fill:#FFFFFF;" cx="217.285" cy="152.646" r="20.224"/>
	<circle style="fill:#FFFFFF;" cx="362.421" cy="152.646" r="20.224"/>
</g>
<path style="fill:#FF91AB;" d="M289.854,211.778c13.686,0,23.46,10.282,27.465-10.555c4.966-25.834-7.439-48.575-27.465-48.575
	c-20.026,0-32.431,22.74-27.465,48.575C266.393,222.06,276.168,211.778,289.854,211.778z"/>
<path style="fill:#EDA751;" d="M316.777,363.051c-14.931,0-30.325-3.83-44.287-11.335c-22.715-12.209-38.634-32.584-43.674-55.899
	c-2.799-12.953,5.431-25.721,18.382-28.521c12.953-2.799,25.72,5.43,28.52,18.382c2.066,9.561,9.17,18.225,19.488,23.77
	c10.999,5.912,23.697,7.297,33.142,3.617c12.345-4.812,26.255,1.297,31.067,13.644c4.811,12.347-1.297,26.255-13.645,31.066
	C336.706,361.309,326.847,363.051,316.777,363.051z"/>
<g>
	<path style="fill:#7694E4;" d="M126.059,137.883c-4.142,0-7.5-3.357-7.5-7.5V94.317c0-4.143,3.358-7.5,7.5-7.5
		c4.142,0,7.5,3.357,7.5,7.5v36.065C133.559,134.525,130.201,137.883,126.059,137.883z"/>
	<path style="fill:#7694E4;" d="M148.556,133.084c-4.142,0-7.5-3.357-7.5-7.5V85.894c0-4.143,3.358-7.5,7.5-7.5
		c4.142,0,7.5,3.357,7.5,7.5v39.69C156.056,129.726,152.698,133.084,148.556,133.084z"/>
	<path style="fill:#7694E4;" d="M171.054,135.483c-4.142,0-7.5-3.357-7.5-7.5V80.952c0-4.143,3.358-7.5,7.5-7.5
		c4.142,0,7.5,3.357,7.5,7.5v47.032C178.554,132.126,175.196,135.483,171.054,135.483z"/>
</g>
<path d="M155.908,438.067l2.526-12.368c0.71-3.476-1.112-6.974-4.368-8.384l-10.971-4.751l4.808-7.297
	c1.933-2.934,1.571-6.814-0.871-9.34l-12.087-12.501c-2.88-2.979-7.628-3.06-10.605-0.179c-2.978,2.879-3.058,7.627-0.179,10.604
	l7.909,8.181l-6.417,9.737c-1.219,1.85-1.558,4.146-0.925,6.27c0.633,2.124,2.173,3.859,4.207,4.74l13.582,5.881l-2.115,10.354
	c-0.504,2.466,0.263,5.02,2.042,6.802l10.835,10.846c1.465,1.466,3.385,2.199,5.306,2.199c1.918,0,3.836-0.731,5.301-2.194
	c2.93-2.927,2.933-7.676,0.005-10.606L155.908,438.067z M51.449,255.896c-0.42,4.12,2.581,7.802,6.701,8.221
	c0.259,0.026,0.515,0.04,0.77,0.04c3.8,0,7.059-2.879,7.452-6.741l1.684-16.53c0.412-4.041-2.469-7.675-6.497-8.197l-6.291-0.816
	l4.201-9.952c1.362-3.228,0.309-6.969-2.538-9.011l-10.337-7.414l6.11-11.501c1.943-3.658,0.553-8.198-3.105-10.142
	c-3.656-1.941-8.198-0.554-10.142,3.104l-9.187,17.292c-1.762,3.316-0.799,7.424,2.252,9.613l10.797,7.744l-5.706,13.52
	c-0.911,2.158-0.761,4.618,0.406,6.65c1.167,2.032,3.216,3.402,5.539,3.703l8.834,1.145L51.449,255.896z M351.763,449.292
	l3.895-2.368c3.539-2.152,4.664-6.767,2.511-10.306c-2.153-3.538-6.767-4.663-10.305-2.511l-11.777,7.162
	c-1.929,1.173-3.227,3.153-3.534,5.39c-0.307,2.237,0.411,4.493,1.953,6.142l5.792,6.193l-7.745,5.266
	c-3.277,2.229-4.255,6.623-2.232,10.031l5.696,9.594c1.402,2.36,3.896,3.672,6.457,3.672c1.302,0,2.621-0.339,3.821-1.052
	c3.562-2.115,4.735-6.716,2.621-10.278l-2.095-3.528l9.157-6.227c1.812-1.232,2.994-3.195,3.237-5.372
	c0.242-2.178-0.48-4.353-1.977-5.953L351.763,449.292z M455.454,314.253c-5.014-3.313-11.017-4.477-16.903-3.272
	c-36.612,7.479-45.394,37.281-50.641,55.088c-4.392,14.905-5.84,16.235-7.702,16.654c-4.784,1.077-8.286,1.234-11.15,0.752
	c8.367-15.13,13.098-32.285,13.098-50.454c0-13.007-2.384-25.649-7.083-37.693c12.809-4.992,24.332-10.968,34.386-17.876
	c32.995-22.671,50.436-55.63,50.436-95.314c0-19.097-3.89-37.681-11.348-55.129c20.72-30.964,26.423-69.003,15.586-105.082
	C460.711,10.534,450.865,2.272,439.05,0.88c-35.951-4.235-71.345,7.008-97.881,30.91c-24.071-8.6-50.21-13.127-77.174-13.127
	S210.891,23.19,186.82,31.79C160.285,7.886,124.898-3.364,88.939,0.879C77.123,2.27,67.277,10.532,63.855,21.927
	C53.017,58.005,58.72,96.045,79.44,127.009c-7.459,17.448-11.348,36.031-11.348,55.129c0,50.164,27.509,88.532,78.31,110.534
	c-29.112,0.58-42.269-12.165-42.414-12.31c-5.948-5.948-13.857-9.224-22.269-9.224c-8.413,0.001-16.321,3.276-22.267,9.225
	c-12.279,12.279-12.279,32.259,0,44.538c20.001,20.001,49.131,30.573,84.239,30.573c1.503,0,3.042-0.033,4.587-0.074
	c5.061,22.845,17.714,43.126,35.372,58.441c-9.976,24.819-10.628,52-1.734,77.158c4.443,12.561,16.375,21,29.691,21
	c3.572,0,7.103-0.608,10.498-1.808c16.373-5.789,24.982-23.817,19.194-40.19c-3.942-11.15-2.808-21.172-0.424-28.776
	c1.598,0.297,3.206,0.567,4.826,0.803c-1.995,16.556-0.167,32.991,5.481,48.968C255.623,503.559,267.555,512,280.874,512
	c3.571,0,7.103-0.608,10.497-1.808c8.636-3.053,15.502-9.699,18.838-18.235c1.508-3.858-0.397-8.208-4.255-9.716
	c-3.858-1.512-8.208,0.397-9.716,4.255c-1.749,4.473-5.345,7.955-9.867,9.554c-1.784,0.631-3.634,0.95-5.499,0.95
	c-6.975,0-13.224-4.422-15.55-11.004c-4.925-13.929-6.488-28.26-4.674-42.691c1.111,0.029,2.225,0.047,3.344,0.047
	c10.733,0,21.133-1.351,31.024-3.867c-1.599,6.012-2.489,12.915-1.85,20.507c0.33,3.913,3.608,6.87,7.465,6.87
	c0.21,0,0.424-0.009,0.638-0.026c4.127-0.348,7.192-3.975,6.844-8.103c-0.886-10.516,2.16-19.389,5.307-25.511
	c8.977-3.876,17.347-8.772,24.939-14.53c10.484,6.717,21.664,10.001,34.017,10.001c5.623,0,11.578-0.698,17.697-2.074
	c28.805-6.475,36.139-31.364,40.992-47.834c5.427-18.42,7.893-21.968,16.488-23.723c5.887-1.203,10.954-4.626,14.266-9.639
	c3.313-5.013,4.475-11.016,3.272-16.903C463.891,322.633,460.468,317.566,455.454,314.253z M440.658,111.252
	c-9.561-16.574-22.543-31.84-38.66-45.183c-1.095-0.906-2.202-1.799-3.318-2.681c18.198-14.619,38.12-21.772,53.913-25.255
	C455.74,55.56,456.539,83.091,440.658,111.252z M437.295,15.775c4.929,0.581,9.16,3.57,11.403,7.861
	c-18.344,4.128-41.601,12.748-62.545,30.657c-9.21-6.148-18.99-11.55-29.236-16.164C379.485,20.439,408.173,12.347,437.295,15.775z
	 M90.694,15.775c29.122-3.427,57.809,4.666,80.379,22.354c-10.247,4.615-20.026,10.016-29.236,16.164
	c-20.944-17.91-44.201-26.53-62.545-30.658C81.534,19.345,85.765,16.355,90.694,15.775z M75.395,38.134
	c15.793,3.483,35.715,10.637,53.913,25.255c-1.116,0.882-2.223,1.774-3.317,2.68c-16.117,13.343-29.099,28.609-38.66,45.183
	C71.45,83.091,72.249,55.56,75.395,38.134z M145.832,333.021c0,2.492,0.098,4.963,0.273,7.414c-0.805,0.012-1.624,0.039-2.414,0.039
	c-21.646,0-51.994-4.542-73.632-26.181c-6.431-6.431-6.431-16.894,0-23.324c3.115-3.115,7.256-4.831,11.662-4.831
	c4.406,0,8.548,1.716,11.663,4.831c5.261,5.261,14.011,9.978,24.005,12.94c9.777,2.898,20.364,4.133,31.593,3.696
	C146.891,315.869,145.832,324.365,145.832,333.021z M226.488,487.608c-1.899,3.976-5.232,6.975-9.384,8.442
	c-1.784,0.631-3.634,0.95-5.499,0.95c-6.974,0-13.223-4.422-15.55-11.002c-7.211-20.397-7.137-42.352,0.059-62.719
	c9.186,6.041,19.328,10.895,30.174,14.313c-2.978,9.945-4.252,22.932,0.866,37.41C228.624,479.155,228.387,483.632,226.488,487.608z
	 M263.994,428.352c-56.884,0-103.163-42.766-103.163-95.331c0-10.73,1.899-21.173,5.641-31.152c0.012-0.031,0.023-0.063,0.034-0.093
	c0.183-0.487,0.374-0.972,0.566-1.458c4.275,1.337,8.678,2.577,13.21,3.72c4.016,1.012,8.094-1.423,9.106-5.439
	c1.012-4.017-1.423-8.093-5.44-9.105c-6.418-1.618-12.443-3.402-18.102-5.333c-0.337-0.142-0.677-0.265-1.022-0.355
	c-66.967-23.245-81.732-67.34-81.732-101.666c0-81.87,81.153-148.476,180.902-148.476c99.75,0,180.903,66.605,180.903,148.476
	c0,35.015-14.781,62.923-43.93,82.952c-26.377,18.124-64.26,29.331-109.691,32.488c-4.272-3.9-7.164-8.563-8.227-13.483
	c-3.668-16.972-20.459-27.793-37.435-24.129c-16.556,3.58-27.253,19.644-24.366,36.183c-1.243-0.142-2.498-0.274-3.724-0.428
	c-4.116-0.52-7.861,2.394-8.379,6.504c-0.518,4.109,2.394,7.86,6.503,8.379c3.379,0.426,6.836,0.789,10.309,1.123
	c7.981,19.37,23.082,35.902,42.982,46.597c14.884,8,31.426,12.229,47.838,12.229c11.195,0,21.867-1.947,31.719-5.788
	c7.754-3.022,13.992-9.009,17.352-16.579C357.963,393.569,315.295,428.352,263.994,428.352z M354.119,308.946
	c-3.018-1.941-6.316-3.316-9.732-4.131c5.681-1.358,11.193-2.867,16.517-4.531c4.148,10.455,6.255,21.437,6.255,32.736
	c0,2.965-0.155,5.897-0.443,8.794c-0.632-2.198-2.25-4.083-4.555-4.952c-3.877-1.463-8.203,0.495-9.665,4.371
	c-1.65,4.375-5.093,7.857-9.448,9.554c-8.109,3.162-16.949,4.765-26.272,4.765c-13.942,0-28.028-3.61-40.737-10.441
	c-18.07-9.711-31.418-25.003-37.601-42.746c-0.005-0.014-0.01-0.027-0.015-0.041c-0.92-2.646-1.685-5.345-2.278-8.09
	c-1.921-8.89,3.748-17.685,12.637-19.605c8.891-1.922,17.685,3.747,19.605,12.636c1.969,9.112,7.553,17.479,15.704,23.85
	c0.057,0.046,0.114,0.09,0.172,0.134c2.277,1.764,4.74,3.383,7.393,4.809c12.878,6.92,27.981,8.453,39.417,3.998
	c4.91-1.915,10.49-1.351,14.93,1.507c3.483,2.239,8.124,1.235,10.365-2.25C358.609,315.827,357.602,311.186,354.119,308.946z
	 M449.307,337.154c-1.104,1.67-2.792,2.811-4.753,3.211c-17.669,3.608-22.317,15.321-27.874,34.18
	c-4.543,15.421-9.693,32.898-29.894,37.439c-5.042,1.134-9.889,1.709-14.406,1.709c-8.01,0-15.195-1.741-22.09-5.388
	c3.679-3.674,7.095-7.579,10.215-11.694c6.671,2.6,13.904,2.79,22.996,0.746c11.039-2.483,14.335-11.897,18.799-27.049
	c4.844-16.441,11.479-38.958,39.255-44.632c1.96-0.398,3.96-0.014,5.631,1.091c1.671,1.104,2.812,2.793,3.212,4.755
	C450.797,333.483,450.41,335.484,449.307,337.154z M481.708,229.632c-1.964-3.646-6.513-5.009-10.16-3.047l-13.112,7.063
	c-2.644,1.424-4.183,4.288-3.913,7.278l0.829,9.177l-9.376,2.062c-3.439,0.757-5.889,3.804-5.889,7.325v16.072
	c0,4.143,3.358,7.5,7.5,7.5c4.142,0,7.5-3.357,7.5-7.5v-10.043l9.94-2.185c3.689-0.812,6.199-4.238,5.859-8l-0.978-10.826
	l8.754-4.715C482.308,237.826,483.672,233.278,481.708,229.632z M194.153,198.357c-10.624,2.821-30.664,12.89-38.445,18.633
	c-3.333,2.461-4.04,7.156-1.579,10.488c1.471,1.992,3.74,3.046,6.039,3.046c1.547,0,3.108-0.477,4.449-1.466
	c6.412-4.734,24.761-13.914,33.387-16.204c4.003-1.063,6.387-5.171,5.323-9.174C202.264,199.678,198.156,197.299,194.153,198.357z
	 M188.169,187.62c4.106,0.543,7.875-2.346,8.418-6.453c0.542-4.106-2.347-7.875-6.453-8.418
	c-10.893-1.437-33.259,0.233-42.644,2.578c-4.019,1.005-6.462,5.077-5.457,9.096c0.852,3.407,3.91,5.683,7.27,5.683
	c0.602,0,1.214-0.073,1.825-0.226C158.862,187.946,179.323,186.449,188.169,187.62z M424.001,216.99
	c-7.781-5.744-27.822-15.813-38.445-18.633c-4.007-1.058-8.111,1.321-9.174,5.324c-1.063,4.003,1.32,8.11,5.323,9.174
	c8.626,2.29,26.975,11.47,33.387,16.204c1.34,0.989,2.901,1.466,4.449,1.466c2.299,0,4.569-1.054,6.04-3.046
	C428.041,224.146,427.334,219.451,424.001,216.99z M362.425,180.373c15.288,0,27.724-12.438,27.724-27.725
	c0-15.287-12.438-27.724-27.724-27.724c-15.288,0-27.724,12.437-27.724,27.724C334.7,167.935,347.137,180.373,362.425,180.373z
	 M362.425,139.924c7.017,0,12.725,5.708,12.725,12.725c0,7.017-5.708,12.726-12.725,12.726c-7.017,0-12.725-5.709-12.725-12.726
	C349.7,145.632,355.408,139.924,362.425,139.924z M263.946,219.373c5.693,3.741,11.843,2.379,17.268,1.177
	c2.821-0.625,5.738-1.271,8.64-1.271c2.901,0,5.818,0.646,8.639,1.271c2.764,0.612,5.714,1.266,8.697,1.266
	c2.874,0,5.778-0.606,8.571-2.442c5.855-3.849,7.897-11.394,8.924-16.733c3.305-17.197-0.189-34.083-9.349-45.17
	c-6.564-7.946-15.614-12.322-25.482-12.322c-9.869,0-18.919,4.376-25.483,12.322c-9.159,11.087-12.653,27.973-9.348,45.17
	C256.05,207.979,258.091,215.524,263.946,219.373z M275.935,167.023c2.591-3.137,7.11-6.876,13.919-6.876
	c6.809,0,11.328,3.739,13.919,6.876c6.247,7.562,8.616,20.123,6.182,32.784c-0.994,5.174-2.129,6.689-2.398,6.988
	c-0.978,0.177-3.877-0.461-5.818-0.891c-3.271-0.725-7.341-1.627-11.884-1.627c-4.544,0-8.614,0.902-11.884,1.627
	c-1.942,0.43-4.841,1.065-5.819,0.891c-0.27-0.299-1.404-1.814-2.398-6.988C267.319,187.148,269.688,174.585,275.935,167.023z
	 M383.122,181.167c0.544,4.106,4.316,6.993,8.418,6.453c8.844-1.172,29.308,0.326,37.042,2.26c0.611,0.152,1.222,0.226,1.825,0.226
	c3.36,0,6.418-2.275,7.27-5.683c1.005-4.019-1.439-8.091-5.457-9.096c-9.385-2.346-31.752-4.016-42.645-2.578
	C385.468,173.292,382.579,177.06,383.122,181.167z M217.285,180.373c15.288,0,27.724-12.438,27.724-27.725
	c0-15.287-12.438-27.724-27.724-27.724s-27.724,12.437-27.724,27.724C189.56,167.935,201.998,180.373,217.285,180.373z
	 M217.285,139.924c7.017,0,12.725,5.708,12.725,12.725c0,7.017-5.708,12.726-12.725,12.726c-7.017,0-12.725-5.709-12.725-12.726
	C204.56,145.632,210.269,139.924,217.285,139.924z"/>
<g>
</g>
<g>
</g>
<g>
</g>
<g>
</g>
<g>
</g>
<g>
</g>
<g>
</g>
<g>
</g>
<g>
</g>
<g>
</g>
<g>
</g>
<g>
</g>
<g>
</g>
<g>
</g>
<g>
</g>
</svg>
