<?xml version="1.0" encoding="iso-8859-1"?>
<!-- Generator: Adobe Illustrator 19.0.0, SVG Export Plug-In . SVG Version: 6.00 Build 0)  -->
<svg version="1.1" id="Capa_1" xmlns="http://www.w3.org/2000/svg" xmlns:xlink="http://www.w3.org/1999/xlink" x="0px" y="0px"
	 viewBox="0 0 512 512" style="enable-background:new 0 0 512 512;" xml:space="preserve">
<circle style="fill:#F5D141;" cx="108.11" cy="83.38" r="48.892"/>
<path style="fill:#EDA751;" d="M392.629,436.903c-19.591,0-40.991-9.121-60.286-46.063c-3.227-6.177-0.835-13.801,5.343-17.027
	c6.179-3.229,13.803-0.835,17.027,5.343c9.556,18.292,19.355,28.608,29.959,31.536c9.312,2.574,19.941-0.263,31.191-3.264
	c16.348-4.36,36.69-9.785,56.823,2.414c5.96,3.612,7.864,11.372,4.252,17.333s-11.372,7.864-17.333,4.252
	c-10.409-6.308-20.931-3.962-37.237,0.387C413.412,434.203,403.288,436.902,392.629,436.903z"/>
<path style="fill:#FCD79D;" d="M476.938,427.175c3.612-5.961,1.708-13.721-4.252-17.333c-3.137-1.901-6.279-3.373-9.41-4.489
	c-4.009,4.51-9.184,12.435-10.054,23.268c2.163,0.623,4.277,1.53,6.383,2.806C465.566,435.039,473.326,433.135,476.938,427.175z"/>
<g>
	<path style="fill:#EDA751;" d="M330.888,504.5c-10.103,0-18.827-7.569-20.029-17.849c-2.563-21.924-2.469-48.267,0.253-70.47
		c1.358-11.068,11.426-18.941,22.499-17.583c11.068,1.358,18.94,11.431,17.583,22.499c-2.319,18.908-2.406,42.231-0.228,60.865
		c1.296,11.076-6.634,21.104-17.71,22.398C332.462,504.455,331.67,504.5,330.888,504.5z"/>
	<path style="fill:#EDA751;" d="M268.323,504.5c-10.103,0-18.827-7.569-20.028-17.849c-2.563-21.924-2.469-48.267,0.253-70.47
		c1.357-11.068,11.429-18.941,22.499-17.583c11.068,1.358,18.94,11.431,17.583,22.499c-2.319,18.908-2.406,42.231-0.228,60.865
		c1.295,11.076-6.634,21.104-17.71,22.398C269.897,504.455,269.106,504.5,268.323,504.5z"/>
	<path style="fill:#EDA751;" d="M199.573,453.811c-3.044,0-6.133-0.69-9.039-2.148c-9.967-5-13.994-17.134-8.992-27.101
		c9.595-19.123,11.998-34.13,14.119-47.369c2.281-14.242,4.64-28.969,15.917-41.593c7.429-8.317,20.194-9.036,28.509-1.606
		c8.316,7.429,9.036,20.193,1.606,28.509c-3.24,3.627-4.34,9.721-6.159,21.077c-2.325,14.517-5.509,34.399-17.899,59.091
		C214.093,449.732,206.969,453.811,199.573,453.811z"/>
</g>
<path style="opacity:0.2;fill:#C18F00;enable-background:new    ;" d="M384.672,410.691c-10.604-2.928-20.403-13.244-29.96-31.536
	c-3.225-6.178-10.849-8.571-17.027-5.343c-6.178,3.227-8.57,10.851-5.343,17.027c14.765,28.267,30.761,40.235,46.236,44.302
	c7.533-7.007,14.02-15.006,19.227-23.768C393.209,411.907,388.81,411.835,384.672,410.691z"/>
<g>
	<path style="opacity:0.2;fill:#A35F00;enable-background:new    ;" d="M333.612,398.598c-11.073-1.358-21.141,6.516-22.499,17.583
		c-1.883,15.358-2.506,32.696-1.865,49.184c14.313-1.159,27.867-4.85,40.156-10.596c-0.08-11.55,0.516-23.278,1.791-33.672
		C352.552,410.029,344.679,399.956,333.612,398.598z"/>
	<path style="opacity:0.2;fill:#A35F00;enable-background:new    ;" d="M271.047,398.598c-11.07-1.358-21.143,6.516-22.499,17.583
		c-1.425,11.621-2.122,24.376-2.103,37.039c12.359,6.249,26.092,10.384,40.655,11.897c-0.638-14.713-0.128-30.493,1.531-44.02
		C289.987,410.029,282.115,399.956,271.047,398.598z"/>
	<path style="opacity:0.2;fill:#A35F00;enable-background:new    ;" d="M240.087,333.994c-8.315-7.43-21.08-6.711-28.509,1.606
		c-11.278,12.623-13.636,27.35-15.917,41.593c-0.809,5.051-1.663,10.361-2.937,16.056c5.741,16.21,15.537,30.687,28.25,42.366
		c9.639-21.44,12.462-38.93,14.561-52.035c1.819-11.355,2.919-17.449,6.159-21.076C249.123,354.187,248.403,341.422,240.087,333.994
		z"/>
</g>
<ellipse style="fill:#FCD690;" cx="299.52" cy="359.81" rx="93.13" ry="86.54"/>
<path style="opacity:0.15;fill:#C17A00;enable-background:new    ;" d="M285.92,445.43c-42.557-27.94-29.368-85.205-22.143-110.249
	v-55.296c-33.693,13.025-57.385,43.904-57.385,79.929C206.391,403.314,240.934,439.313,285.92,445.43z"/>
<path style="fill:#EDA751;" d="M242.845,209.76c18.223-15.291,30.39-40.96,4.686-78.906c-25.907-38.246-64.478-47.833-94.591-44.285
	c-7.424,0.875-13.653,6.102-15.803,13.261c-8.723,29.039-5.979,68.689,27.187,100.844
	C197.23,232.575,224.622,225.051,242.845,209.76z"/>
<path style="fill:#FF91AB;" d="M135.925,104.273c-7.151,28.552-3.108,65.855,28.399,96.4c28.522,27.652,52.896,25.676,70.753,14.703
	C222.796,132.007,169.148,109.899,135.925,104.273z"/>
<path style="fill:#EDA751;" d="M356.194,209.76c-18.223-15.291-30.39-40.96-4.686-78.906c25.907-38.246,64.478-47.833,94.591-44.285
	c7.424,0.875,13.653,6.102,15.803,13.261c8.723,29.039,5.979,68.689-27.187,100.844C401.809,232.575,374.417,225.051,356.194,209.76
	z"/>
<path style="fill:#FF91AB;" d="M463.114,104.273c7.151,28.552,3.108,65.855-28.399,96.4c-28.522,27.652-52.896,25.676-70.753,14.703
	C376.243,132.007,429.891,109.899,463.114,104.273z"/>
<path style="fill:#FFDC9C;" d="M458.069,232.839c0,72.493-70.985,104.244-158.549,104.244s-158.55-31.751-158.55-104.244
	s70.985-131.26,158.549-131.26S458.069,160.346,458.069,232.839z"/>
<path style="opacity:0.15;fill:#C17A00;enable-background:new    ;" d="M214.862,121.844
	c-44.404,23.261-73.892,64.275-73.892,110.994c0,62.317,52.456,94.528,122.806,102.342
	C162.79,274.859,175.961,193.721,214.862,121.844z"/>
<g>
	<ellipse style="fill:#FF91AB;" cx="197.47" cy="247.79" rx="28.707" ry="22.861"/>
	<ellipse style="fill:#FF91AB;" cx="353.07" cy="247.79" rx="28.707" ry="22.861"/>
	<path style="fill:#FF91AB;" d="M303.839,253.492c0-15.777-12.79-28.566-28.566-28.566c-15.777,0-28.566,12.79-28.566,28.566
		s12.79,9.202,28.566,9.202C291.05,262.694,303.839,269.269,303.839,253.492z"/>
</g>
<path style="fill:#EDA751;" d="M373.428,367.228c-7.482,0-14.67-4.175-18.167-11.355c-4.883-10.025-0.715-22.111,9.311-26.994
	c4.125-2.009,16.41-12.384,26.114-27.258c7.448-11.42,15.411-28.504,11.043-45.047c-2.847-10.782,3.585-21.83,14.366-24.677
	c10.787-2.847,21.831,3.586,24.677,14.366c14.65,55.479-36.575,108.232-58.518,118.92
	C379.408,366.571,376.394,367.228,373.428,367.228z"/>
<g>
	<path style="fill:#82C7E6;" d="M384.211,161.601c5.46,6.019,13.466,16.941,14.055,29.727c0.509,11.044-8.047,20.632-19.102,20.634
		c-10.573,0.002-19.145-8.568-19.145-19.141c0-13.395,8.38-24.915,14.051-31.177C376.784,158.647,381.494,158.606,384.211,161.601z"
		/>
	<path style="fill:#82C7E6;" d="M267.299,135.308c5.46,6.019,13.466,16.941,14.055,29.727c0.509,11.044-8.047,20.632-19.102,20.634
		c-10.573,0.002-19.145-8.568-19.145-19.141c0-13.395,8.38-24.915,14.051-31.177C259.872,132.354,264.582,132.313,267.299,135.308z"
		/>
</g>
<path d="M74.375,142.885c-18.066-10.267-30.362-27.855-33.734-48.258c-0.675-4.087-4.533-6.854-8.622-6.177
	c-4.087,0.675-6.853,4.535-6.177,8.622c4.113,24.89,19.102,46.341,41.123,58.853c1.17,0.665,2.442,0.98,3.698,0.98
	c2.61,0,5.146-1.364,6.527-3.796C79.237,149.51,77.976,144.931,74.375,142.885z M40.411,48.25c1.265,0.825,2.687,1.22,4.092,1.22
	c2.449,0,4.85-1.198,6.288-3.402c5.615-8.606,13.229-15.96,22.02-21.27C83.428,18.389,95.632,15,108.105,15
	c21.684,0,41.61,9.949,54.669,27.297c2.492,3.309,7.194,3.972,10.503,1.481c3.31-2.491,3.973-7.193,1.481-10.503
	C158.839,12.128,134.545,0,108.105,0C92.899,0,78.014,4.135,65.057,11.958c-10.71,6.469-19.988,15.429-26.829,25.912
	C35.965,41.339,36.942,45.986,40.411,48.25z M32.385,74.315c0.543,0.12,1.085,0.178,1.619,0.178c3.444,0,6.547-2.388,7.317-5.89
	c0.444-2.016,0.988-4.04,1.618-6.016c1.257-3.946-0.923-8.165-4.87-9.423c-3.943-1.256-8.165,0.923-9.423,4.87
	c-0.768,2.41-1.432,4.881-1.974,7.344C25.782,69.424,28.339,73.425,32.385,74.315z M352.265,271.728
	c7.009,1.86,22.491,9.602,27.696,13.443c1.341,0.989,2.901,1.466,4.448,1.466c2.3,0,4.569-1.054,6.04-3.046
	c2.46-3.333,1.752-8.028-1.58-10.488c-6.631-4.893-23.706-13.471-32.755-15.873c-4.005-1.064-8.111,1.319-9.174,5.324
	C345.879,266.558,348.263,270.664,352.265,271.728z M285.484,270.921c2.941,0.318,5.82,0.63,8.56,0.63
	c4.526,0,8.675-0.851,12.098-3.923c3.497-3.139,5.197-7.763,5.197-14.136c0-19.887-16.18-36.066-36.066-36.066
	c-19.887,0-36.066,16.18-36.066,36.066c0,6.373,1.7,10.997,5.197,14.136c5.496,4.935,12.861,4.139,20.658,3.293
	c3.299-0.357,6.71-0.727,10.211-0.727S282.185,270.564,285.484,270.921z M263.448,256.008c-2.959,0.32-7.325,0.791-8.934,0.402
	c-0.122-0.404-0.308-1.284-0.308-2.918c0-11.616,9.45-21.066,21.066-21.066s21.066,9.45,21.066,21.066
	c0,1.634-0.185,2.514-0.308,2.918c-1.61,0.388-5.975-0.082-8.934-0.402c-3.522-0.382-7.516-0.814-11.825-0.814
	C270.964,255.194,266.971,255.626,263.448,256.008z M476.572,403.428c-22.865-13.854-45.854-7.724-62.66-3.243
	c-9.444,2.52-18.399,4.9-25.499,3.658c7.112-12.489,11.302-26.641,11.702-41.66c10.236-8.348,21.871-20.653,31.44-35.622
	c6.287-9.835,12.706-22.441,16.337-36.809c11.718-16.129,17.676-35.26,17.676-56.912c0-16.021-3.224-31.611-9.398-46.268
	c17.345-26.256,22.076-58.401,12.914-88.899c-3.016-10.043-11.694-17.324-22.107-18.552c-30.367-3.58-60.254,5.818-82.778,25.837
	c-20.2-7.129-42.099-10.879-64.679-10.879c-22.58,0-44.478,3.75-64.678,10.879c-12.566-11.168-27.424-19.027-43.379-23.172
	c-0.133-7.023-1.129-13.979-2.991-20.699c-1.104-3.991-5.233-6.334-9.229-5.225c-3.991,1.105-6.331,5.237-5.226,9.229
	c1.255,4.53,2.032,9.196,2.331,13.919c-3.992-0.436-8.025-0.65-12.085-0.632c-2.544-28.757-26.751-51.386-56.157-51.386
	c-31.095,0-56.393,25.298-56.393,56.393s25.298,56.392,56.393,56.392c6.006,0,11.947-0.967,17.601-2.825
	c0.323,4.048,0.882,8.069,1.671,12.045c-6.246,1.84-12.703,2.772-19.272,2.772c-4.143,0-7.5,3.357-7.5,7.5s3.357,7.5,7.5,7.5
	c7.919,0,15.705-1.111,23.241-3.304c2.844,8.051,6.698,15.805,11.522,23.107c-6.175,14.657-9.399,30.247-9.399,46.269
	c0,44.495,24.917,77.707,71.021,95.985c-0.771,2.06-1.467,4.139-2.08,6.238c-9.686,13.192-12.067,27.908-14.156,40.945
	c-2.035,12.703-4.341,27.103-13.416,45.19c-3.318,6.612-3.862,14.119-1.533,21.14c2.33,7.02,7.254,12.713,13.864,16.029
	c3.895,1.954,8.067,2.945,12.402,2.945c10.549,0,20.039-5.854,24.766-15.276c2.798-5.576,5.25-11.128,7.412-16.768
	c2.445,2.085,4.998,4.06,7.654,5.914c-0.939,17.823-0.44,36.247,1.442,52.34c1.63,13.954,13.443,24.477,27.477,24.477
	c1.084,0,2.176-0.065,3.241-0.19c7.346-0.859,13.918-4.527,18.506-10.329c4.588-5.803,6.641-13.044,5.781-20.39
	c-0.96-8.208-1.472-17.703-1.507-27.363c1.714,0.082,3.44,0.123,5.175,0.123c0.669,0,1.335-0.012,2-0.024
	c0.037,11.763,0.673,23.279,1.891,33.695C305.042,501.477,316.854,512,330.888,512c1.084,0,2.176-0.065,3.241-0.19
	c9.834-1.149,18.362-7.524,22.258-16.638c1.628-3.809-0.14-8.216-3.949-9.844c-3.807-1.63-8.217,0.141-9.844,3.949
	c-1.787,4.182-5.698,7.107-10.213,7.635c-0.491,0.058-0.994,0.087-1.493,0.087c-6.423,0-11.831-4.823-12.579-11.22
	c-1.198-10.24-1.804-21.632-1.794-33.277c8.951-1.429,17.501-3.966,25.484-7.455c-0.131,5.135-0.136,10.33-0.004,15.423
	c0.104,4.075,3.441,7.307,7.493,7.307c0.065,0,0.132-0.001,0.197-0.003c4.142-0.106,7.411-3.55,7.304-7.69
	c-0.2-7.755-0.074-15.753,0.359-23.356c0.847-0.558,1.685-1.126,2.512-1.706c9.937,6.299,20.708,9.381,32.77,9.381
	c11.655-0.001,22.289-2.84,31.67-5.344c16.14-4.303,23.99-5.719,31.418-1.219c4.598,2.786,10.002,3.616,15.222,2.333
	c5.219-1.28,9.627-4.517,12.412-9.112C489.101,421.574,486.06,409.179,476.572,403.428z M448.149,170.77
	c-8.005-13.365-18.654-25.693-31.736-36.524c-0.543-0.449-1.096-0.887-1.645-1.329c14.364-11.189,29.902-16.913,42.512-19.829
	C459.642,127.22,459.95,148.672,448.149,170.77z M445.221,94.017c3.216,0.379,6.041,2.107,7.86,4.648
	c-15.115,3.595-33.832,10.789-50.845,25.104c-7.047-4.649-14.481-8.787-22.24-12.385C405.709,92.013,433.581,92.649,445.221,94.017z
	 M219.044,111.383c-7.759,3.599-15.194,7.736-22.241,12.385c-17.012-14.315-35.73-21.509-50.844-25.104
	c1.819-2.541,4.644-4.269,7.86-4.648C165.456,92.648,193.329,92.012,219.044,111.383z M129.955,97.672
	c-2.301,7.658-3.716,15.421-4.286,23.168c-5.475,2.57-11.47,3.935-17.564,3.935c-22.824,0-41.393-18.568-41.393-41.392
	S85.28,41.99,108.105,41.99c21.55,0,39.298,16.557,41.212,37.618C140.147,81.689,132.701,88.528,129.955,97.672z M141.759,113.088
	c12.61,2.916,28.148,8.64,42.511,19.829c-0.549,0.443-1.102,0.88-1.645,1.33c-13.082,10.831-23.731,23.158-31.736,36.523
	C139.089,148.671,139.397,127.219,141.759,113.088z M210.931,439.308c-2.167,4.32-6.52,7.004-11.358,7.004
	c-1.978,0-3.887-0.455-5.675-1.352c-3.03-1.52-5.287-4.13-6.354-7.347c-1.067-3.218-0.818-6.658,0.702-9.689
	c8.828-17.594,11.854-31.725,13.949-44.194c3.499,12.425,9.657,23.852,17.869,33.717
	C217.565,424.878,214.565,432.067,210.931,439.308z M278.304,492.178c-2.103,2.659-5.114,4.341-8.487,4.735
	c-0.491,0.058-0.994,0.087-1.493,0.087c-6.424,0-11.832-4.823-12.579-11.22c-1.517-12.973-2.083-27.569-1.673-42.081
	c7.886,3.746,16.366,6.552,25.271,8.253c-0.033,10.895,0.51,21.462,1.611,30.883C281.347,486.201,280.406,489.52,278.304,492.178z
	 M299.519,438.852c-47.216,0-85.628-35.456-85.628-79.037c0-6.647,0.884-13.16,2.623-19.48c0.002-0.009,0.005-0.018,0.007-0.027
	c0.609-2.208,1.318-4.394,2.137-6.552c7.046,2.148,14.48,4.012,22.337,5.548c0.486,0.096,0.971,0.141,1.447,0.141
	c3.515,0,6.653-2.482,7.352-6.062c0.795-4.065-1.856-8.005-5.921-8.8c-9.546-1.866-18.425-4.221-26.633-7.041
	c-0.17-0.068-0.341-0.128-0.513-0.183c-17.117-5.943-31.271-13.942-42.235-23.928c-2.447-2.229-4.703-4.562-6.808-6.976
	c1.017-0.215,2.009-0.626,2.9-1.284c5.204-3.842,20.687-11.582,27.696-13.443c4.003-1.063,6.387-5.17,5.324-9.174
	c-1.063-4.003-5.165-6.383-9.174-5.324c-9.052,2.403-26.126,10.98-32.755,15.873c-0.861,0.635-1.543,1.421-2.044,2.293
	c-7.403-12.339-11.163-26.569-11.163-42.557c0-68.242,67.761-123.761,151.05-123.761s151.049,55.519,151.049,123.761
	c0,5.674-0.483,11.132-1.424,16.37c-0.328-1.613-0.69-3.231-1.121-4.86c-3.897-14.76-19.079-23.604-33.843-19.702
	c-7.151,1.889-13.14,6.449-16.861,12.841c-0.171,0.294-0.33,0.592-0.489,0.89c-0.46-0.223-0.948-0.404-1.463-0.533
	c-7.993-1.997-27.044-3.419-36.33-2.195c-4.106,0.543-6.995,4.312-6.453,8.418c0.543,4.106,4.316,6.988,8.418,6.453
	c7.19-0.947,24.451,0.309,30.729,1.877c0.61,0.152,1.222,0.225,1.824,0.225c0.01,0,0.019-0.002,0.029-0.002
	c0.089,1.96,0.381,3.926,0.894,5.869c3.665,13.879-3.455,28.889-10.072,39.035c-9.577,14.679-20.927,23.546-23.118,24.612
	c-1.117,0.544-2.182,1.161-3.201,1.836c-17.75,3.713-37.435,5.611-58.567,5.611c-7.356,0-14.645-0.232-21.662-0.692
	c-4.098-0.268-7.703,2.861-7.974,6.995c-0.271,4.133,2.861,7.703,6.995,7.974c7.342,0.48,14.959,0.724,22.641,0.724
	c16.472,0,32.139-1.115,46.808-3.29c-1.287,6.015-0.545,12.248,2.19,17.865c1.813,3.724,6.303,5.274,10.027,3.459
	c3.724-1.814,5.272-6.304,3.459-10.027c-1.484-3.048-1.693-6.491-0.588-9.696c1.105-3.204,3.392-5.787,6.439-7.271
	c5.677-2.765,18.855-14.18,29.114-29.903c8.278-12.693,17.083-31.855,12.012-51.061c-0.865-3.277-0.402-6.695,1.303-9.625
	c1.705-2.93,4.45-5.02,7.727-5.885c6.765-1.786,13.725,2.265,15.512,9.029c3.387,12.827,2.807,25.232,0.151,36.523
	c-0.016,0.063-0.028,0.125-0.043,0.188c-3.103,13.064-8.98,24.625-14.713,33.592c-13.964,21.845-31.54,35.865-39.948,39.962
	c-0.507,0.246-1.037,0.463-1.578,0.643c-3.93,1.309-6.056,5.556-4.747,9.485c1.047,3.145,3.974,5.133,7.115,5.133
	c0.785,0,1.584-0.124,2.37-0.386c0.634-0.211,1.261-0.451,1.879-0.707C377.361,410.126,342.014,438.852,299.519,438.852z
	 M470.523,423.287c-1.464,2.414-4.617,3.188-7.032,1.726c-13.667-8.283-27.287-4.651-43.059-0.446
	c-8.491,2.267-18.116,4.836-27.804,4.837c-7.377,0-14.122-1.526-20.416-4.63c2.577-2.517,5.002-5.171,7.27-7.942
	c1.061,0.416,2.124,0.795,3.191,1.089c11.272,3.117,23.388-0.115,35.123-3.247c15.75-4.199,33.602-8.961,51.001,1.583
	c1.17,0.709,1.993,1.83,2.319,3.159C471.443,420.742,471.232,422.117,470.523,423.287z M336.345,232.481c4.143,0,7.5-3.357,7.5-7.5
	v-10.138c0-4.143-3.357-7.5-7.5-7.5s-7.5,3.357-7.5,7.5v10.138C328.845,229.124,332.202,232.481,336.345,232.481z M214.202,207.344
	c-4.143,0-7.5,3.357-7.5,7.5v10.138c0,4.143,3.357,7.5,7.5,7.5s7.5-3.357,7.5-7.5v-10.138
	C221.702,210.701,218.345,207.344,214.202,207.344z M191.51,235.649c-9.286-1.226-28.336,0.198-36.33,2.195
	c-4.019,1.005-6.462,5.076-5.458,9.095c0.853,3.408,3.91,5.684,7.271,5.684c0.602,0,1.214-0.073,1.824-0.225
	c6.277-1.568,23.542-2.826,30.729-1.877c4.091,0.546,7.874-2.346,8.418-6.453C198.505,239.961,195.616,236.192,191.51,235.649z"/>
<g>
</g>
<g>
</g>
<g>
</g>
<g>
</g>
<g>
</g>
<g>
</g>
<g>
</g>
<g>
</g>
<g>
</g>
<g>
</g>
<g>
</g>
<g>
</g>
<g>
</g>
<g>
</g>
<g>
</g>
</svg>
