<?xml version="1.0" encoding="iso-8859-1"?>
<!-- Generator: Adobe Illustrator 19.0.0, SVG Export Plug-In . SVG Version: 6.00 Build 0)  -->
<svg version="1.1" id="Capa_1" xmlns="http://www.w3.org/2000/svg" xmlns:xlink="http://www.w3.org/1999/xlink" x="0px" y="0px"
	 viewBox="0 0 512 512" style="enable-background:new 0 0 512 512;" xml:space="preserve">
<path style="fill:#EDA751;" d="M152.123,434.48c-3.492,0-6.957-1.499-9.356-4.4c-4.271-5.164-3.547-12.813,1.616-17.083
	c20.354-16.836,36.169-16.681,52.905-16.519c8.432,0.082,17.153,0.167,27.992-1.866c17.078-3.205,25.584-20.635,28.443-58.28
	c0.508-6.682,6.346-11.688,13.017-11.18c6.682,0.507,11.687,6.335,11.18,13.017c-1.622,21.362-4.91,36.919-10.351,48.961
	c-7.939,17.572-20.662,28.114-37.814,31.333c-13.175,2.474-23.551,2.372-32.704,2.283c-14.766-0.151-23.681-0.231-37.202,10.952
	C157.587,433.569,154.847,434.48,152.123,434.48z"/>
<path style="fill:#FCD79D;" d="M142.767,430.08c2.399,2.902,5.864,4.4,9.356,4.4c2.724,0,5.464-0.912,7.727-2.784
	c1.806-1.493,3.528-2.781,5.195-3.899c-2.851-8.365-10.367-15.181-15.485-18.786c-1.695,1.212-3.417,2.531-5.176,3.986
	C139.22,417.267,138.495,424.917,142.767,430.08z"/>
<g>
	<path style="fill:#EDA751;" d="M307.293,433.645c-8.97,0-17.028-6.252-18.97-15.378c-3.492-16.413-8.607-35.944-17.242-41.329
		c-9.098-5.674-11.872-17.65-6.198-26.747c5.674-9.099,17.65-11.872,26.747-6.198c19.7,12.288,28.109,35.349,34.671,66.194
		c2.23,10.487-4.462,20.798-14.949,23.03C309.99,433.506,308.63,433.645,307.293,433.645z"/>
	<path style="fill:#EDA751;" d="M171.038,370.161c-5.055,0-10.229-0.558-15.483-1.821c-10.425-2.506-16.844-12.989-14.339-23.414
		c2.506-10.425,12.988-16.842,23.415-14.339c17.924,4.32,40.036-11.769,49.221-20.873c7.615-7.548,19.907-7.493,27.456,0.122
		c7.548,7.615,7.493,19.907-0.122,27.456C235.069,343.354,206.021,370.161,171.038,370.161z"/>
	<path style="fill:#EDA751;" d="M387.082,377.122c-8.97,0-17.028-6.252-18.97-15.378c-3.723-17.498-18.858-22.45-21.684-22.701
		c-10.69-0.834-18.677-10.176-17.841-20.866c0.835-10.688,10.142-18.659,20.869-17.843c17.805,1.391,48.926,17.099,56.634,53.33
		c2.231,10.487-4.462,20.798-14.949,23.03C389.78,376.982,388.419,377.122,387.082,377.122z"/>
	<path style="fill:#EDA751;" d="M337.235,275.733c-8.156,0-15.748-5.181-18.438-13.35c-3.353-10.184,2.186-21.158,12.37-24.51
		c12.284-4.044,36.655-16.428,40.965-34.356c2.506-10.426,12.988-16.844,23.414-14.339c10.425,2.506,16.844,12.99,14.339,23.414
		c-10,41.597-57.214,59.079-66.577,62.161C341.293,275.417,339.246,275.733,337.235,275.733z"/>
</g>
<g>
	<path style="opacity:0.2;fill:#A35F00;enable-background:new    ;" d="M266.741,325.151c-6.672-0.508-12.509,4.498-13.017,11.18
		c-1.884,24.802-6.22,40.825-13.842,49.791c7.585,3.581,15.716,6.184,24.214,7.713c1.242-2.111,2.405-4.339,3.474-6.706
		c5.44-12.042,8.729-27.599,10.351-48.961C278.428,331.486,273.423,325.658,266.741,325.151z"/>
	<path style="opacity:0.2;fill:#A35F00;enable-background:new    ;" d="M213.852,309.714c-4.986,4.942-13.784,11.937-23.65,16.613
		c2.2,8.553,5.67,16.886,10.484,24.748c2.137,3.49,4.487,6.803,7.029,9.929c17.213-8.364,29.701-19.975,33.47-23.712
		c7.616-7.548,7.67-19.841,0.122-27.456C233.759,302.221,221.467,302.166,213.852,309.714z"/>
</g>
<ellipse transform="matrix(-0.5222 -0.8528 0.8528 -0.5222 183.2083 698.6902)" style="fill:#FCD690;" cx="287.324" cy="298.024" rx="76.379" ry="82.198"/>
<path style="opacity:0.15;fill:#C17A00;enable-background:new    ;" d="M316.566,368.72c-44.911-1.414-61.379-50.597-67.485-72.777
	l-25.488-41.621c-19.357,25.334-22.956,59.497-6.351,86.613C237.293,373.678,279.886,384.852,316.566,368.72z"/>
<path style="fill:#EDA751;" d="M175.515,211.188c6.668-19.909,3.994-44.838-32.844-61.552c-37.129-16.846-70.58-6.283-91.61,10.268
	c-5.185,4.08-7.464,10.886-5.783,17.266c6.82,25.878,27.161,54.458,66.946,63.373C151.698,249.387,168.847,231.097,175.515,211.188z
	"/>
<path style="fill:#FF91AB;" d="M46.414,181.072c7.778,24.787,28.016,51.001,65.81,59.469c34.214,7.667,51.65-5.056,60.033-21.545
	C124.585,161.905,74.014,169.993,46.414,181.072z"/>
<path style="fill:#EDA751;" d="M260.832,158.941c-20.764-3.11-41.755-16.822-39.898-57.232
	c1.871-40.729,26.484-65.724,50.785-76.933c5.991-2.764,13.089-1.701,18.008,2.697c19.951,17.837,36.162,48.946,26.019,88.436
	C305.682,155.089,281.596,162.051,260.832,158.941z"/>
<path style="fill:#FF91AB;" d="M292.686,30.258c18.543,18.194,32.694,48.136,23.059,85.65c-8.722,33.96-27.979,43.708-46.478,43.68
	C240.083,91.176,270.273,49.807,292.686,30.258z"/>
<path style="fill:#FFDC9C;" d="M348.15,129.355c33.415,54.565-5.38,111.183-71.289,151.545s-133.974,49.183-167.389-5.382
	S102.399,144,168.308,103.638C234.217,63.275,314.735,74.789,348.15,129.355z"/>
<path style="opacity:0.15;fill:#C17A00;enable-background:new    ;" d="M113.929,157.913c-22.7,37.976-25.991,82.439-4.456,117.604
	c28.724,46.906,83.054,46.971,139.609,20.426C145.265,297.088,117.779,229.945,113.929,157.913z"/>
<g>
	
		<ellipse transform="matrix(-0.5222 -0.8528 0.8528 -0.5222 56.1018 512.6367)" style="fill:#FF91AB;" cx="171.653" cy="240.603" rx="20.18" ry="25.337"/>
	
		<ellipse transform="matrix(0.5222 0.8528 -0.8528 0.5222 281.9872 -165.6048)" style="fill:#FF91AB;" cx="288.789" cy="168.86" rx="20.18" ry="25.337"/>
</g>
<path style="fill:#B77866;" d="M412.23,168.467V62.381H310.914v106.086c0,10.981-4.438,21.497-12.305,29.158l-17.081,16.633
	c-16.403,15.974-25.656,37.898-25.656,60.794v202.553c0,14.854,12.041,26.895,26.895,26.895h157.609
	c14.854,0,26.895-12.041,26.895-26.895V275.052c0-22.896-9.252-44.82-25.656-60.794l-17.081-16.633
	C416.668,189.964,412.23,179.448,412.23,168.467z"/>
<path style="fill:#DEE2E5;" d="M415.271,62.381H307.873c-8.155,0-14.766-6.611-14.766-14.766v-11.91
	c0-15.577,12.628-28.205,28.205-28.205h80.521c15.577,0,28.205,12.628,28.205,28.205v11.909
	C430.037,55.77,423.426,62.381,415.271,62.381z"/>
<path style="fill:#FFFFFF;" d="M415.441,425.204H307.703c-5.094,0-9.223-4.129-9.223-9.223V278.978c0-5.094,4.129-9.223,9.223-9.223
	H415.44c5.094,0,9.223,4.129,9.223,9.223v137.004C424.664,421.075,420.534,425.204,415.441,425.204z"/>
<path style="fill:#F5D141;" d="M330.326,333.474c0-17.257,13.989-31.246,31.246-31.246s31.246,13.989,31.246,31.246v71.992h-62.492
	V333.474z"/>
<path style="fill:#BD4568;" d="M298.481,376.728v39.253c0,5.094,4.129,9.223,9.223,9.223h107.737c5.094,0,9.223-4.129,9.223-9.223
	v-85.18L298.481,376.728z"/>
<path style="opacity:0.1;enable-background:new    ;" d="M255.873,458.031v19.574c0,14.853,12.041,26.895,26.895,26.895h157.609
	c14.854,0,26.895-12.041,26.895-26.895v-19.574H255.873z"/>
<path style="opacity:0.1;enable-background:new    ;" d="M321.505,232.184c14.65-21.079,15.761-61.986,15.765-120.241
	c0.001-8.469,6.87-15.337,15.338-15.337h59.622V62.381H310.914v106.086c0,10.982-4.438,21.497-12.305,29.158l-17.081,16.633
	c-16.403,15.973-25.656,37.898-25.656,60.793v202.553c0,14.854,12.041,26.895,26.895,26.895h100.492
	C301.452,449.091,285.686,283.722,321.505,232.184z"/>
<path d="M344.288,410.688h34.567c4.143,0,7.5-3.357,7.5-7.5s-3.357-7.5-7.5-7.5h-34.567c-4.142,0-7.5,3.357-7.5,7.5
	S340.146,410.688,344.288,410.688z M307.703,262.255c-9.221,0-16.723,7.502-16.723,16.723v137.004
	c0,9.221,7.502,16.723,16.723,16.723H415.44c9.221,0,16.723-7.502,16.723-16.723V278.978c0-9.221-7.502-16.723-16.723-16.723
	H307.703z M417.163,415.981c0,0.95-0.772,1.723-1.723,1.723H307.703c-0.95,0-1.723-0.772-1.723-1.723V381.98l111.183-40.467
	L417.163,415.981L417.163,415.981z M417.163,278.978v46.572L305.98,366.017v-87.04c0-0.95,0.772-1.723,1.723-1.723H415.44
	C416.391,277.255,417.163,278.027,417.163,278.978z M167.345,219.639c1.415,2.311,3.879,3.584,6.403,3.584
	c1.336,0,2.688-0.357,3.91-1.105c3.532-2.163,4.643-6.78,2.479-10.313l-4.673-7.631c-2.163-3.533-6.78-4.641-10.314-2.479
	c-3.532,2.163-4.643,6.78-2.479,10.313L167.345,219.639z M467.272,392.36c4.143,0,7.5-3.358,7.5-7.5V275.052
	c0-24.77-10.178-48.887-27.923-66.167l-17.081-16.633c-6.379-6.212-10.037-14.881-10.037-23.785V69.432
	c10.148-2.071,17.807-11.066,17.807-21.817v-11.91C437.537,16.018,421.52,0,401.832,0h-80.521c-13.489,0-25.252,7.52-31.324,18.587
	c-6.553-3.493-14.467-3.825-21.411-0.622c-24.586,11.343-42.857,32.208-50.734,57.693c-18.525,4.014-36.67,11.307-53.451,21.583
	c-17.166,10.512-31.764,23.435-43.48,37.807c-26.297-4.582-53.201,2.208-74.489,18.962c-7.549,5.94-10.845,15.781-8.396,25.07
	c7.198,27.314,25.618,49.46,50.843,61.378c2.106,13.646,6.77,26.832,14.206,38.977c16.971,27.712,43.265,41.911,76.252,41.909
	c1.172,0,2.356-0.025,3.545-0.06c-6.927,2.57-12.612,2.945-16.492,2.011c-14.429-3.462-28.988,5.452-32.457,19.879
	c-3.469,14.43,5.449,28.991,19.878,32.459c5.602,1.347,11.4,2.029,17.235,2.029c20.706,0,39.283-8.549,52.555-16.97
	c4.703,4.506,9.967,8.409,15.71,11.672c-4.644,11.36-10.568,13.969-15.405,14.877c-10.122,1.897-18.47,1.814-26.543,1.738
	c-17.343-0.162-35.287-0.343-57.752,18.239c-4.041,3.343-6.538,8.059-7.032,13.279c-0.494,5.221,1.074,10.322,4.417,14.362
	c3.742,4.525,9.259,7.121,15.136,7.121c4.554,0,8.996-1.601,12.507-4.505c11.421-9.445,17.98-9.389,32.349-9.231
	c9.494,0.094,20.263,0.198,34.161-2.411c6.231-1.169,11.986-3.217,17.232-6.105v57.876c0,18.966,15.43,34.396,34.395,34.396h157.608
	c18.966,0,34.396-15.43,34.396-34.396v-57.368c0-4.142-3.357-7.5-7.5-7.5c-4.142,0-7.5,3.358-7.5,7.5v57.368
	c0,10.694-8.701,19.396-19.396,19.396H282.768c-10.694,0-19.395-8.701-19.395-19.396V275.052c0-20.746,8.524-40.946,23.389-55.421
	l17.08-16.633c6.145-5.983,10.537-13.54,12.807-21.722c0.14-0.39,0.252-0.792,0.325-1.207c0.943-3.776,1.441-7.672,1.441-11.602
	V94.214c0-0.014,0-0.029,0-0.043v-24.29h86.316v98.586c0,12.927,5.311,25.513,14.572,34.531l17.081,16.633
	c14.863,14.474,23.388,34.674,23.388,55.421V384.86C459.772,389.003,463.129,392.36,467.272,392.36z M274.86,31.586
	c1.94-0.895,4.077-1.042,6.063-0.533c-9.418,9.598-19.616,23.231-25.688,41.062c-4.301-0.12-8.646-0.071-13.032,0.185
	c-2.486,0.145-4.971,0.371-7.456,0.636C245.233,47.694,265.726,35.8,274.86,31.586z M87.556,222.749
	c-17.601-10.761-26.809-25.917-31.508-37.185c10.396-3.369,23.871-5.954,38.852-4.443C90.125,194.832,87.61,208.896,87.556,222.749z
	 M52.469,170.954c0.449-1.999,1.552-3.836,3.231-5.157c7.908-6.224,27.836-19.089,55.12-16.932
	c-3.781,5.806-7.127,11.78-10.017,17.87C82.125,164.017,65.318,166.921,52.469,170.954z M171.037,362.661
	c-4.655,0-9.275-0.543-13.729-1.613c-6.388-1.535-10.335-7.982-8.8-14.368c1.536-6.386,7.98-10.335,14.364-8.802
	c14.475,3.488,29.721-3.491,40.136-10.118c1.911,5.966,4.524,11.681,7.838,17.093c0.907,1.482,1.872,2.914,2.864,4.322
	C202.422,356.057,187.343,362.661,171.037,362.661z M248.372,401.47c-5.565,4.935-12.276,8.172-19.999,9.621
	c-12.455,2.338-22.437,2.241-31.245,2.153c-15.329-0.157-26.41-0.269-42.06,12.674c-1.062,0.878-2.188,1.063-2.945,1.063
	c-1.39,0-2.693-0.612-3.577-1.681c-0.789-0.954-1.159-2.157-1.043-3.39c0.117-1.232,0.706-2.345,1.66-3.134
	c18.24-15.088,32.057-14.954,48.052-14.798c8.794,0.083,17.883,0.174,29.448-1.996c9.117-1.71,16.297-6.588,21.709-14.749V401.47z
	 M303.414,146.422c-5.933,3.002-12.45,6.771-16.295,9.886c-3.218,2.607-3.713,7.33-1.106,10.549
	c1.482,1.829,3.648,2.778,5.832,2.778c1.658,0,3.327-0.547,4.717-1.673c1.515-1.227,3.964-2.819,6.852-4.496v4.999
	c0,1.197-0.071,2.388-0.201,3.571c-2.779,0.433-5.665,0.991-8.045,1.702c-3.969,1.186-6.226,5.363-5.04,9.333
	c0.916,3.067,3.624,5.087,6.637,5.311c-1.024,1.37-2.154,2.666-3.389,3.868l-17.08,16.633
	c-17.746,17.281-27.924,41.398-27.924,66.167v85.184c-6.812-3.624-12.829-8.326-17.873-13.981c-0.134-0.166-0.273-0.324-0.418-0.476
	c-2.372-2.713-4.529-5.635-6.443-8.76c-3.928-6.414-6.637-13.363-8.12-20.715c4.419-1.164,8.917-2.528,13.494-4.099
	c3.918-1.346,6.003-5.611,4.658-9.529c-1.346-3.918-5.613-5.999-9.529-4.658c-6.36,2.184-12.385,3.893-18.103,5.191
	c-0.449,0.062-0.884,0.159-1.301,0.295c-49.979,10.878-75.786-10.539-88.868-31.902c-31.201-50.951-5.92-123.43,56.357-161.567
	c42.213-25.851,93.164-30.121,131.189-11.329v47.718H303.414z M303.414,82.231c-10.233-4.306-21.21-7.284-32.681-8.859
	c3.904-9.99,9.306-18.358,14.889-25.134c0.29,10.473,7.841,19.163,17.792,21.194V82.231z M415.271,54.881H307.873
	c-4.007,0-7.267-3.26-7.267-7.267V35.705c0-11.417,9.288-20.705,20.705-20.705h80.521c11.417,0,20.705,9.288,20.705,20.705v11.909
	C422.537,51.621,419.278,54.881,415.271,54.881z M259.279,163.339c1.415,2.311,3.879,3.584,6.403,3.584
	c1.336,0,2.688-0.356,3.91-1.104c3.532-2.163,4.643-6.78,2.48-10.314l-4.673-7.631c-2.164-3.533-6.78-4.641-10.313-2.479
	c-3.532,2.163-4.643,6.78-2.48,10.313L259.279,163.339z M173.086,248.501c-5.766,6.045-14.755,20.517-17.516,27.321
	c-1.557,3.839,0.293,8.212,4.131,9.77c0.924,0.374,1.878,0.552,2.816,0.552c2.964,0,5.77-1.768,6.953-4.683
	c2.12-5.227,10.105-18.031,14.471-22.608c2.858-2.997,2.746-7.744-0.252-10.604C180.693,245.391,175.945,245.501,173.086,248.501z
	 M233.284,173.093c-4.084-0.684-7.954,2.063-8.645,6.146c-0.548,3.242-2.465,6.085-5.259,7.796
	c-2.796,1.712-6.201,2.128-9.336,1.142c-3.958-1.243-8.162,0.957-9.403,4.907c-1.241,3.952,0.956,8.162,4.907,9.403
	c2.59,0.813,5.257,1.215,7.913,1.215c4.805,0,9.57-1.314,13.753-3.875c6.493-3.978,10.945-10.571,12.216-18.09
	C240.12,177.653,237.369,173.783,233.284,173.093z M171.119,237.215c-1.682-3.784-6.111-5.49-9.899-3.808
	c-7.634,3.392-21.459,13.347-26.605,18.586c-2.902,2.956-2.858,7.704,0.097,10.606c1.46,1.434,3.358,2.148,5.255,2.148
	c1.942,0,3.883-0.75,5.352-2.245c3.951-4.024,16.214-12.82,21.993-15.389C171.097,245.433,172.802,241,171.119,237.215z"/>
<g>
</g>
<g>
</g>
<g>
</g>
<g>
</g>
<g>
</g>
<g>
</g>
<g>
</g>
<g>
</g>
<g>
</g>
<g>
</g>
<g>
</g>
<g>
</g>
<g>
</g>
<g>
</g>
<g>
</g>
</svg>
