<?xml version="1.0" encoding="iso-8859-1"?>
<!-- Generator: Adobe Illustrator 19.0.0, SVG Export Plug-In . SVG Version: 6.00 Build 0)  -->
<svg version="1.1" id="Capa_1" xmlns="http://www.w3.org/2000/svg" xmlns:xlink="http://www.w3.org/1999/xlink" x="0px" y="0px"
	 viewBox="0 0 512.001 512.001" style="enable-background:new 0 0 512.001 512.001;" xml:space="preserve">
<path style="fill:#78CFC0;" d="M280.847,484.824l140.306-23.721c9.351-1.581,12.687-13.3,5.57-19.569l-9.356-8.241
	c-2.772-2.441-2.677-6.791,0.198-9.11l70.811-57.113c7.439-6,4.502-17.955-4.871-19.824l-50.281-10.029
	c-4.302-0.858-6.233-5.913-3.6-9.421l72.603-96.727c5.419-7.219,0.576-17.56-8.439-18.02l-64.428-3.288
	c-4.378-0.223-7.025-4.939-4.934-8.793l64.618-119.099c4.542-8.372-2.705-18.253-12.054-16.437L327.346,94.501
	c-2.314,0.45-4.676-0.508-6.025-2.442l-55.3-79.33c-4.86-6.972-15.179-6.972-20.039,0l-55.3,79.33
	c-1.348,1.934-3.71,2.891-6.024,2.442L35.012,65.434c-9.35-1.816-16.596,8.066-12.054,16.437L87.576,200.97
	c2.091,3.854-0.555,8.569-4.934,8.793l-64.428,3.288c-9.014,0.46-13.857,10.802-8.439,18.02l72.603,96.727
	c2.633,3.508,0.702,8.563-3.6,9.421l-50.281,10.029c-9.373,1.869-12.31,13.824-4.871,19.824l70.811,57.113
	c2.875,2.319,2.97,6.668,0.198,9.11l-9.356,8.241c-7.116,6.268-3.78,17.988,5.57,19.569l140.306,23.721
	C247.603,487.605,264.4,487.605,280.847,484.824z"/>
<path style="fill:#EDA751;" d="M48.165,434.779c-2.538,0-5.105-0.701-7.402-2.17c-6.406-4.095-8.278-12.607-4.184-19.013
	c9.723-15.207,24.255-24.789,42.026-27.711c16.462-2.705,35.988,0.181,58.041,8.582c23.023,8.765,34.255-3.346,55.496-29.357
	l0.781-0.957c4.81-5.887,13.483-6.761,19.37-1.952c5.888,4.811,6.761,13.482,1.951,19.37l-0.778,0.953
	c-10.709,13.114-20.824,25.5-33.876,33.629c-16.181,10.076-33.433,11.399-52.745,4.043c-17.446-6.647-32.173-9.052-43.774-7.143
	c-10.126,1.665-17.746,6.694-23.296,15.375C57.149,432.535,52.704,434.779,48.165,434.779z"/>
<path style="fill:#FCD79D;" d="M42.898,405.262c-2.283,2.557-4.398,5.331-6.318,8.334c-4.095,6.405-2.222,14.918,4.184,19.013
	c2.297,1.469,4.864,2.17,7.402,2.17c4.54,0,8.984-2.245,11.611-6.353c1.412-2.21,2.961-4.18,4.649-5.921
	C60.077,413.838,51.556,408.131,42.898,405.262z"/>
<g>
	<path style="fill:#EDA751;" d="M314.519,504.5c-2.437,0-4.913-0.408-7.341-1.266c-11.469-4.054-17.479-16.638-13.425-28.107
		c9.366-26.491-9.005-40.765-9.792-41.359c-9.704-7.335-11.623-21.148-4.288-30.851c7.336-9.704,21.149-11.623,30.851-4.288
		c22.386,16.922,38.724,51.679,24.76,91.18C332.089,498.85,323.591,504.5,314.519,504.5z"/>
	<path style="fill:#EDA751;" d="M197.483,504.5c-9.072,0-17.569-5.649-20.766-14.689c-13.965-39.502,2.373-74.259,24.76-91.181
		c9.703-7.337,23.516-5.416,30.852,4.288c7.335,9.704,5.415,23.517-4.288,30.851c-0.787,0.595-19.158,14.868-9.792,41.358
		c4.054,11.469-1.956,24.053-13.424,28.108C202.398,504.092,199.919,504.5,197.483,504.5z"/>
	<path style="fill:#EDA751;" d="M371.913,365.443c-15.091,0-30.973-3.188-46.739-9.447c-11.305-4.489-16.831-17.293-12.343-28.599
		c4.49-11.304,17.294-16.827,28.599-12.343c11.042,4.385,48.49,16.477,66.787-12.003c6.576-10.234,20.2-13.199,30.436-6.626
		c10.234,6.575,13.2,20.202,6.626,30.436c-13.056,20.32-32.687,33.194-56.772,37.231
		C383.119,364.995,377.571,365.443,371.913,365.443z"/>
	<path style="fill:#EDA751;" d="M140.09,365.443c-5.66,0-11.206-0.448-16.595-1.351c-24.086-4.036-43.717-16.91-56.772-37.232
		c-6.575-10.234-3.609-23.86,6.626-30.435c10.234-6.574,23.86-3.608,30.435,6.627c18.296,28.479,55.745,16.388,66.788,12.002
		c11.306-4.485,24.11,1.038,28.598,12.343c4.489,11.306-1.037,24.11-12.343,28.599C171.064,362.256,155.179,365.443,140.09,365.443z
		"/>
</g>
<g>
	<path style="opacity:0.2;fill:#A35F00;enable-background:new    ;" d="M341.431,315.055c-11.305-4.485-24.109,1.039-28.599,12.343
		c-4.488,11.306,1.038,24.11,12.343,28.599c15.766,6.259,31.648,9.447,46.739,9.447c2.093,0,4.166-0.082,6.226-0.205
		c0.968-5.86,1.474-11.861,1.474-17.972c0-8.955-1.081-17.676-3.123-26.056C361.861,322.3,347.568,317.492,341.431,315.055z"/>
	<path style="opacity:0.2;fill:#A35F00;enable-background:new    ;" d="M310.525,398.629c-9.703-7.336-23.516-5.416-30.851,4.288
		c-7.336,9.704-5.416,23.517,4.288,30.851c0.587,0.444,10.959,8.507,12.299,23.575c14.891-4.844,28.501-12.296,40.211-21.777
		C331.319,419.909,321.674,407.057,310.525,398.629z"/>
	<path style="opacity:0.2;fill:#A35F00;enable-background:new    ;" d="M201.478,398.629c-11.149,8.427-20.794,21.28-25.947,36.937
		c11.711,9.48,25.321,16.932,40.212,21.777c1.34-15.068,11.712-23.131,12.299-23.575c9.704-7.335,11.623-21.148,4.288-30.851
		C224.993,393.213,211.181,391.293,201.478,398.629z"/>
	<path style="opacity:0.2;fill:#A35F00;enable-background:new    ;" d="M212.294,362.201c-5.887-4.809-14.559-3.935-19.37,1.952
		l-0.781,0.957c-18.823,23.051-29.792,35.172-48.066,31.536c4.856,9.724,11.091,18.72,18.48,26.754
		c5.829-1.401,11.496-3.799,17.034-7.247c13.053-8.129,23.168-20.515,33.876-33.629l0.778-0.953
		C219.055,375.683,218.181,367.011,212.294,362.201z"/>
	<path style="opacity:0.2;fill:#A35F00;enable-background:new    ;" d="M170.572,315.055c-6.137,2.438-20.431,7.245-35.06,6.156
		c-2.042,8.38-3.123,17.101-3.123,26.056c0,6.111,0.506,12.112,1.474,17.972c2.061,0.123,4.133,0.205,6.227,0.205
		c15.09,0,30.974-3.188,46.738-9.447c11.306-4.489,16.832-17.293,12.343-28.599S181.878,310.57,170.572,315.055z"/>
</g>
<ellipse style="fill:#FCD690;" cx="256.001" cy="347.27" rx="101.59" ry="94.4"/>
<path style="opacity:0.15;fill:#C17A00;enable-background:new    ;" d="M241.167,440.658
	c-46.422-30.478-32.035-92.945-24.155-120.263v-60.318c-36.754,14.208-62.597,47.892-62.597,87.189
	C154.414,394.717,192.094,433.986,241.167,440.658z"/>
<path style="fill:#82C7E6;" d="M163.283,385.89c15.885,32.876,51.423,55.773,92.718,55.773s76.833-22.897,92.718-55.773H163.283z"/>
<path style="opacity:0.1;enable-background:new    ;" d="M241.166,440.658c-20.994-13.783-29.55-34.109-31.896-54.768h-45.987
	C177.23,414.754,206.326,435.92,241.166,440.658z"/>
<path style="fill:#EDA751;" d="M194.179,183.582c19.878-16.68,33.15-44.681,5.112-86.073c-28.26-41.72-70.334-52.177-103.182-48.307
	c-8.098,0.954-14.893,6.656-17.239,14.465c-9.515,31.677-6.522,74.928,29.656,110.003
	C144.421,208.47,174.301,200.262,194.179,183.582z"/>
<path style="fill:#FF91AB;" d="M77.548,68.514c-7.801,31.145-3.39,71.836,30.978,105.156c31.113,30.164,57.701,28.008,77.179,16.039
	C172.309,98.767,113.788,74.652,77.548,68.514z"/>
<path style="fill:#EDA751;" d="M317.823,183.582c-19.878-16.68-33.15-44.681-5.112-86.073c28.26-41.72,70.335-52.177,103.182-48.307
	c8.098,0.954,14.893,6.656,17.239,14.465c9.515,31.677,6.522,74.928-29.656,110.003C367.581,208.47,337.701,200.262,317.823,183.582
	z"/>
<path style="fill:#FF91AB;" d="M434.455,68.514c7.801,31.145,3.39,71.836-30.978,105.156
	c-31.112,30.164-57.701,28.008-77.179,16.039C339.694,98.767,398.214,74.652,434.455,68.514z"/>
<path style="fill:#7694E4;" d="M428.951,208.758c0,79.078-77.432,113.713-172.95,113.713s-172.95-34.635-172.95-113.713
	s77.432-143.183,172.95-143.183C351.519,65.575,428.951,129.68,428.951,208.758z"/>
<g>
	<path style="fill:#F5D141;" d="M93.607,159.393c-6.827,15.389-10.556,32.016-10.556,49.364c0,18.646,4.309,34.818,12.14,48.65
		c14.444-7.002,24.814-26.132,24.814-48.65C120.006,185.424,108.872,165.725,93.607,159.393z"/>
	<path style="fill:#F5D141;" d="M418.396,159.393c6.827,15.389,10.556,32.016,10.556,49.364c0,18.646-4.309,34.818-12.141,48.65
		c-14.444-7.002-24.814-26.132-24.814-48.65C391.996,185.424,403.131,165.725,418.396,159.393z"/>
</g>
<path style="opacity:0.1;enable-background:new    ;" d="M163.654,87.682c-48.437,25.374-80.603,70.113-80.603,121.076
	c0,67.978,57.22,103.113,133.961,111.638C106.853,254.595,121.22,166.086,163.654,87.682z"/>
<g>
	<ellipse style="fill:#FF91AB;" cx="171.131" cy="212.09" rx="31.32" ry="24.938"/>
	<ellipse style="fill:#FF91AB;" cx="340.871" cy="212.09" rx="31.32" ry="24.938"/>
</g>
<g>
	<path style="fill:#FFDC9C;" d="M163.851,177.027c-2.672,14.64,7.504,28.652,22.511,30.438c12.859,1.531,25.096-6.929,28.205-19.5
		c3.629-14.671-5.885-29.14-20.525-31.812l-18.62-3.398c-3.753-0.685-7.354,1.791-8.058,5.541L163.851,177.027z"/>
	<path style="fill:#FFDC9C;" d="M348.151,177.027c2.672,14.64-7.504,28.652-22.511,30.438c-12.859,1.531-25.096-6.929-28.206-19.5
		c-3.629-14.671,5.885-29.14,20.525-31.812l18.62-3.398c3.753-0.685,7.354,1.791,8.058,5.541L348.151,177.027z"/>
</g>
<path style="fill:#FF91AB;" d="M229.741,217.967c0,14.503,11.757,20.386,26.26,20.386c14.503,0,26.26-5.883,26.26-20.386
	s-11.757-26.26-26.26-26.26C241.498,191.707,229.741,203.464,229.741,217.967z"/>
<path style="fill:#495059;" d="M167,401.122h178.003c4.938,0,9.536-2.664,11.855-7.023c2.273-4.271,4.245-8.706,5.891-13.281
	c1.78-4.949-1.952-10.159-7.211-10.159H156.464c-5.259,0-8.991,5.21-7.211,10.159c1.645,4.574,3.618,9.009,5.891,13.281
	C157.464,398.458,162.062,401.122,167,401.122z"/>
<ellipse style="fill:#B77866;" cx="256.001" cy="385.89" rx="49.883" ry="36.997"/>
<ellipse style="opacity:0.1;enable-background:new    ;" cx="256.001" cy="385.89" rx="25.755" ry="13.842"/>
<path d="M164.656,43.056c1.395,2.389,3.905,3.72,6.484,3.72c1.284,0,2.586-0.33,3.774-1.024c3.577-2.088,4.784-6.681,2.696-10.258
	l-11.261-19.289c-2.089-3.578-6.683-4.783-10.258-2.695c-3.577,2.088-4.784,6.681-2.696,10.258L164.656,43.056z M337.088,45.752
	c1.189,0.693,2.49,1.023,3.774,1.023c2.579,0,5.09-1.332,6.483-3.72l11.262-19.289c2.088-3.577,0.881-8.17-2.696-10.259
	c-3.578-2.086-8.17-0.881-10.258,2.696l-11.262,19.289C332.304,39.07,333.511,43.663,337.088,45.752z M36.656,181.508
	c1.46,1.436,3.358,2.15,5.256,2.15c1.941,0,3.882-0.749,5.351-2.244c2.903-2.954,2.861-7.703-0.094-10.605l-17.063-16.765
	c-2.955-2.904-7.703-2.861-10.606,0.094c-2.903,2.954-2.861,7.703,0.094,10.605L36.656,181.508z M510.212,216.346
	c-2.949-6.298-9.097-10.431-16.042-10.785l-57.878-2.954c-0.109-2.29-0.279-4.571-0.509-6.841l59.853-110.317
	c3.5-6.45,2.979-14.134-1.361-20.051c-4.34-5.918-11.51-8.725-18.715-7.325l-34.325,6.667c-0.291-1.078-0.598-2.154-0.92-3.229
	c-3.212-10.694-12.453-18.449-23.543-19.756c-33.058-3.892-65.603,6.391-90.065,28.284c-4.856-1.725-9.799-3.274-14.825-4.634
	L272.173,8.44c-1.381-1.982-3.095-3.664-5.037-4.993C263.899,1.232,260.028,0,256.001,0l0,0c-6.443,0-12.488,3.155-16.172,8.44
	l-39.71,56.964c-5.025,1.36-9.969,2.909-14.824,4.634c-24.46-21.894-57.002-32.181-90.064-28.284
	c-11.09,1.307-20.332,9.061-23.545,19.756c-0.323,1.074-0.629,2.151-0.92,3.229l-34.324-6.667
	c-7.204-1.403-14.376,1.408-18.715,7.326s-4.861,13.601-1.362,20.05l59.854,110.32c-0.23,2.267-0.4,4.545-0.509,6.832l-57.878,2.961
	c-6.945,0.354-13.092,4.485-16.042,10.783c-2.95,6.299-2.189,13.667,1.986,19.229l10.478,13.96c1.474,1.964,3.725,2.999,6.004,2.998
	c1.566,0,3.147-0.489,4.497-1.502c3.313-2.486,3.982-7.188,1.496-10.5l-10.479-13.96c-1.227-1.635-0.687-3.245-0.399-3.862
	c0.289-0.616,1.181-2.062,3.222-2.165l57.288-2.924c2.61,35.678,21.136,64.633,54,84.104c6.857,4.063,14.316,7.704,22.324,10.914
	c-14.557,2.805-32.093,1.964-42.114-13.635c-8.799-13.696-27.099-17.683-40.799-8.883c-1.329,0.854-2.564,1.799-3.707,2.819
	L47.134,268.35c-2.487-3.314-7.188-3.981-10.5-1.496c-3.313,2.486-3.982,7.188-1.496,10.5l21.858,29.12
	c-2.388,7.975-1.424,16.905,3.417,24.442c0.448,0.697,0.923,1.362,1.385,2.042l-34.768,6.934
	c-7.222,1.44-12.799,6.777-14.557,13.929c-1.757,7.15,0.712,14.465,6.444,19.088l25.425,20.507
	c-5.359,4.498-10.086,9.892-14.083,16.142c-6.315,9.88-3.415,23.056,6.462,29.371c3.429,2.192,7.385,3.352,11.442,3.352
	c7.299,0,14.002-3.668,17.93-9.813c3.442-5.386,7.74-8.887,13.288-10.79l8.922,7.197l-7.984,7.032
	c-5.483,4.83-7.646,12.196-5.646,19.224c2.001,7.028,7.719,12.15,14.923,13.369l76.9,13.001c0.833,3.615,1.88,7.224,3.148,10.81
	c4.165,11.777,15.351,19.69,27.836,19.69c3.347,0,6.658-0.57,9.841-1.694c7.436-2.629,13.402-7.996,16.801-15.113
	c0.578-1.21,1.063-2.447,1.468-3.702l4.311,0.728c8.659,1.465,17.376,2.196,26.096,2.196c8.718,0,17.438-0.731,26.096-2.195
	l4.311-0.729c0.405,1.255,0.89,2.492,1.468,3.702c3.399,7.116,9.366,12.483,16.801,15.111c3.18,1.125,6.491,1.695,9.842,1.695
	c12.486,0,23.673-7.912,27.837-19.69c1.268-3.587,2.315-7.195,3.148-10.81l76.9-13.001c7.205-1.219,12.923-6.341,14.924-13.369
	c2-7.027-0.163-14.394-5.647-19.224l-7.983-7.032l23.94-19.309c3.224-2.601,3.73-7.322,1.129-10.547
	c-2.602-3.223-7.321-3.73-10.547-1.129l-25.363,20.458c-3.095,2.496-4.92,6.208-5.006,10.184c-0.086,3.976,1.575,7.763,4.56,10.391
	l9.356,8.241c1.611,1.42,1.329,3.173,1.134,3.861c-0.196,0.689-0.88,2.327-2.997,2.685l-72.147,12.197
	c1.032-17.43-2.953-34.486-11.731-49.413c2.482-2.5,4.842-5.123,7.064-7.871H345c7.785,0,14.865-4.215,18.475-10.999
	c2.449-4.603,4.578-9.401,6.328-14.267c1.228-3.415,1.154-7.126-0.116-10.453c0.741,0.015,1.487,0.041,2.222,0.041
	c6.073,0,12.073-0.489,17.834-1.454c19.606-3.285,36.502-11.958,49.729-25.376l42.563,8.489c2.122,0.423,2.752,2.097,2.924,2.797
	s0.39,2.476-1.295,3.834l-18.099,14.598c-3.224,2.601-3.73,7.322-1.129,10.547c1.482,1.837,3.652,2.791,5.843,2.791
	c1.652,0,3.317-0.544,4.704-1.662l18.098-14.598c5.732-4.623,8.201-11.938,6.444-19.089s-7.335-12.488-14.557-13.929l-34.767-6.934
	c0.462-0.681,0.937-1.346,1.385-2.042c4.841-7.537,5.805-16.466,3.417-24.441l53.219-70.9
	C512.401,230.012,513.161,222.644,510.212,216.346z M444.205,79.442l34.215-6.645c2.117-0.411,3.334,0.893,3.759,1.471
	c0.425,0.579,1.302,2.132,0.273,4.027l-51.186,94.343c-1.43-4.888-3.149-9.7-5.154-14.423
	C441.692,134.789,447.976,107.008,444.205,79.442z M418.16,142.446c-8.759-14.916-20.533-28.666-35.082-40.71
	c-0.809-0.67-1.63-1.326-2.452-1.981c16.214-12.837,33.862-19.257,48.011-22.448C431.379,93.038,431.923,117.417,418.16,142.446z
	 M415.016,56.65c4.046,0.477,7.555,2.807,9.6,6.189c-16.684,3.852-37.602,11.731-56.524,27.789
	c-8.098-5.375-16.671-10.124-25.636-14.217C370.953,54.417,402.097,55.13,415.016,56.65z M252.135,17.019
	c1.269-1.823,3.126-2.019,3.866-2.019c0.647,0,2.15,0.15,3.367,1.409c0.174,0.18,0.342,0.382,0.501,0.61l30.517,43.778
	c-11.216-1.796-22.716-2.722-34.384-2.722c-11.669,0-23.169,0.926-34.385,2.722L252.135,17.019z M96.986,56.65
	c12.922-1.521,44.064-2.233,72.561,19.761c-8.965,4.093-17.539,8.841-25.636,14.217C124.988,74.57,104.07,66.691,87.387,62.839
	C89.431,59.457,92.94,57.127,96.986,56.65z M83.365,77.306c14.149,3.191,31.797,9.611,48.011,22.449
	c-0.822,0.655-1.643,1.311-2.452,1.981c-14.549,12.045-26.323,25.795-35.082,40.711C80.079,117.418,80.623,93.038,83.365,77.306z
	 M80.736,172.637L29.55,78.294c-1.028-1.895-0.151-3.447,0.274-4.026c0.424-0.58,1.639-1.89,3.759-1.472l34.214,6.646
	c-3.77,27.567,2.513,55.348,18.093,78.774C83.885,162.938,82.166,167.75,80.736,172.637z M137.53,288.815
	c-30.919-18.319-46.711-44.97-46.967-79.215c-0.001-0.028,0-0.056-0.001-0.084c-0.002-0.254-0.011-0.503-0.011-0.758
	c0-74.815,74.221-135.683,165.45-135.683s165.45,60.867,165.45,135.683c0,0.206-0.008,0.408-0.009,0.614
	c-0.008,0.161-0.01,0.321-0.007,0.48c-0.332,34.124-16.12,60.689-46.964,78.963c-8.381,4.966-17.785,9.247-28.094,12.83
	c-0.076,0.026-0.151,0.049-0.226,0.078c-25.171,8.713-55.74,13.248-90.151,13.248s-64.979-4.535-90.15-13.247
	c-0.077-0.029-0.154-0.053-0.231-0.079C155.314,298.061,145.91,293.78,137.53,288.815z M256.001,341.394
	c-20.937,0-39.283,8.744-49.305,21.766h-43.205c-1.045-5.223-1.577-10.547-1.577-15.894c0-10.095,1.843-19.913,5.478-29.272
	c25.467,7.886,55.424,11.977,88.61,11.977c33.185,0,63.143-4.091,88.61-11.977c3.635,9.359,5.477,19.177,5.477,29.272
	c0,5.347-0.532,10.671-1.576,15.894h-43.206C295.283,350.137,276.938,341.394,256.001,341.394z M298.384,385.891
	c0,3.783-1.04,7.398-2.913,10.725c-0.308,0.409-0.575,0.849-0.795,1.317c-6.633,10.276-21.467,17.454-38.675,17.454
	c-17.21,0-32.045-7.179-38.677-17.457c-0.219-0.465-0.485-0.903-0.791-1.31c-1.874-3.328-2.915-6.944-2.915-10.729
	c0-3.786,1.041-7.404,2.917-10.732c0.305-0.405,0.569-0.841,0.788-1.304c6.631-10.279,21.467-17.46,38.678-17.46
	c17.209,0,32.044,7.179,38.676,17.457c0.22,0.466,0.485,0.904,0.792,1.311C297.343,378.49,298.384,382.106,298.384,385.891z
	 M72.277,308.475c0.012-0.025,0.024-0.049,0.036-0.073c1.128-2.237,2.834-4.216,5.09-5.666c6.738-4.329,15.742-2.368,20.071,4.37
	c10.674,16.614,28.637,23.943,51.312,21.235c-1.244,6.19-1.872,12.509-1.872,18.924c0,3.478,0.198,6.948,0.573,10.395
	c-7.901,0.571-15.531,0.243-22.753-0.965c-21.943-3.678-39.822-15.395-51.702-33.889C70.169,318.35,70.073,312.906,72.277,308.475z
	 M28.334,361.232c-1.684-1.358-1.466-3.133-1.294-3.833c0.172-0.7,0.801-2.374,2.923-2.797l42.563-8.489
	c13.227,13.418,30.123,22.091,49.729,25.377c5.76,0.964,11.76,1.453,17.833,1.453c0.734,0,1.481-0.027,2.222-0.041
	c-1.27,3.328-1.344,7.039-0.115,10.455c0.687,1.91,1.45,3.806,2.25,5.689c-1.621-0.382-3.318-0.898-5.13-1.588
	c-23.304-8.877-44.139-11.896-61.928-8.974c-7.103,1.168-13.734,3.302-19.835,6.314L28.334,361.232z M164.245,465.905
	l-72.146-12.197c-2.117-0.357-2.801-1.996-2.997-2.685c-0.196-0.688-0.478-2.441,1.134-3.861l9.355-8.241
	c2.984-2.628,4.646-6.416,4.56-10.392c-0.062-2.827-1.016-5.512-2.668-7.73c6.801,1.104,14.378,3.237,22.692,6.405
	c16.343,6.225,31.417,6.874,45.7,1.917C165.4,440.734,163.494,453.22,164.245,465.905z M129.516,413.186
	c-18.704-7.126-34.739-9.664-47.661-7.535c-12.176,2.002-21.73,8.306-28.398,18.735c-1.158,1.812-3.136,2.893-5.292,2.893
	c-1.188,0-2.35-0.342-3.362-0.988c-2.911-1.861-3.765-5.744-1.905-8.655c8.544-13.362,21.312-21.782,36.923-24.351
	c15.14-2.486,33.36,0.269,54.156,8.19c7.429,2.83,14.181,3.834,20.509,3.041c3.542,2.616,7.9,4.105,12.513,4.105h1.913
	c0.922,1.141,1.871,2.258,2.84,3.356C158.706,418.771,145.17,419.149,129.516,413.186z M166.999,393.621
	c-2.229,0-4.234-1.167-5.234-3.046c-2.113-3.971-3.948-8.107-5.463-12.292c0.001-0.002,0.033-0.124,0.162-0.124h1.068
	c0.008,0,0.016,0.002,0.024,0.002c0.01,0,0.02-0.002,0.029-0.002h41.918c-0.57,2.513-0.885,5.093-0.885,7.731
	s0.314,5.218,0.885,7.73L166.999,393.621L166.999,393.621z M211.178,477.627c1.293,3.657,1.084,7.6-0.588,11.101
	s-4.607,6.142-8.264,7.435c-1.573,0.556-3.203,0.837-4.843,0.837c-6.142,0-11.645-3.895-13.694-9.69
	c-7.39-20.903-5.969-42.609,3.736-60.753c7.754,5.837,16.312,10.646,25.423,14.306C208.682,449.062,205.493,461.547,211.178,477.627
	z M286.682,472.627c-0.441,1.246-0.788,2.51-1.057,3.783l-6.029,1.019c-15.656,2.648-31.533,2.648-47.19,0l-6.028-1.019
	c-0.269-1.272-0.617-2.536-1.057-3.783c-4.423-12.511-1.379-21.515,2.163-27.025c9.197,2.332,18.776,3.561,28.518,3.561
	c9.742,0,19.32-1.228,28.517-3.561C288.061,451.112,291.105,460.116,286.682,472.627z M256.001,434.163
	c-25.191,0-49.092-9.341-66.602-25.542h17.297c10.022,13.022,28.368,21.766,49.305,21.766c20.937,0,39.282-8.744,49.305-21.766
	h17.297C305.093,424.822,281.192,434.163,256.001,434.163z M328.213,487.31c-2.049,5.796-7.553,9.69-13.694,9.69
	c-1.643,0-3.271-0.281-4.841-0.837c-3.658-1.293-6.594-3.934-8.266-7.435c-1.673-3.502-1.881-7.444-0.588-11.101
	c5.685-16.08,2.495-28.565-1.77-36.764c9.111-3.66,17.669-8.469,25.423-14.306C334.182,444.702,335.603,466.408,328.213,487.31z
	 M355.692,378.279c-1.507,4.19-3.342,8.326-5.455,12.296c-1,1.879-3.005,3.046-5.233,3.046H312.5c0.57-2.513,0.885-5.093,0.885-7.73
	c0-2.638-0.315-5.219-0.885-7.731h41.917c0.01,0,0.02,0.002,0.029,0.002c0.008,0,0.016-0.002,0.024-0.002h1.069
	C355.666,378.16,355.7,378.28,355.692,378.279L355.692,378.279L355.692,378.279z M438.969,322.808
	c-11.88,18.493-29.758,30.211-51.7,33.888c-7.223,1.209-14.854,1.536-22.754,0.965c0.375-3.447,0.573-6.917,0.573-10.395
	c0-6.414-0.628-12.733-1.871-18.923c22.673,2.71,40.637-4.619,51.311-21.236c4.33-6.739,13.332-8.698,20.072-4.371
	c2.256,1.449,3.962,3.429,5.09,5.665c0.012,0.026,0.025,0.051,0.037,0.077C441.929,312.909,441.832,318.351,438.969,322.808z
	 M496.23,226.569l-49.815,66.366c-1.144-1.02-2.378-1.966-3.707-2.82c-13.699-8.797-32.001-4.811-40.8,8.884
	c-10.021,15.6-27.555,16.438-42.112,13.635c8.007-3.209,15.466-6.85,22.323-10.913c32.864-19.471,51.39-48.425,54-84.104
	l57.288,2.924c2.041,0.104,2.933,1.55,3.222,2.166C496.917,223.324,497.456,224.935,496.23,226.569z M481.898,154.044
	l-17.064,16.765c-2.955,2.902-2.997,7.651-0.094,10.605c1.468,1.495,3.408,2.244,5.35,2.244c1.897,0,3.796-0.716,5.256-2.15
	l17.064-16.765c2.955-2.902,2.997-7.651,0.094-10.605C489.601,151.183,484.852,151.142,481.898,154.044z M256.001,103.373
	c4.143,0,7.5-3.357,7.5-7.5v-8.228c0-4.143-3.357-7.5-7.5-7.5c-4.142,0-7.5,3.357-7.5,7.5v8.228
	C248.501,100.016,251.859,103.373,256.001,103.373z M189.384,194.716c4.142,0,7.5-3.357,7.5-7.5v-11.058c0-4.143-3.358-7.5-7.5-7.5
	s-7.5,3.357-7.5,7.5v11.058C181.884,191.358,185.241,194.716,189.384,194.716z M162.575,214.399
	c4.112,0.542,7.876-2.347,8.418-6.453c0.543-4.107-2.347-7.875-6.453-8.418c-10.06-1.33-30.711,0.214-39.376,2.38
	c-4.019,1.005-6.462,5.076-5.458,9.095c0.852,3.408,3.91,5.684,7.271,5.684c0.602,0,1.214-0.073,1.824-0.226
	C135.699,214.736,154.674,213.354,162.575,214.399z M256.001,169.549c4.143,0,7.5-3.357,7.5-7.5v-8.227c0-4.143-3.357-7.5-7.5-7.5
	c-4.142,0-7.5,3.357-7.5,7.5v8.227C248.501,166.191,251.859,169.549,256.001,169.549z M177.165,228.376
	c-1.063-4.003-5.169-6.385-9.174-5.324c-9.808,2.604-28.313,11.899-35.499,17.204c-3.333,2.46-4.04,7.155-1.58,10.488
	c1.471,1.992,3.74,3.047,6.04,3.047c1.547,0,3.108-0.477,4.448-1.467c5.72-4.222,22.737-12.729,30.442-14.774
	C175.845,236.486,178.228,232.379,177.165,228.376z M349.427,214.399c7.901-1.047,26.876,0.337,33.774,2.062
	c0.61,0.152,1.222,0.226,1.824,0.226c3.36,0,6.419-2.275,7.27-5.684c1.004-4.018-1.439-8.091-5.458-9.095
	c-8.666-2.166-29.316-3.709-39.376-2.38c-4.106,0.543-6.995,4.311-6.453,8.418C341.552,212.053,345.323,214.935,349.427,214.399z
	 M256.001,136.461c4.143,0,7.5-3.357,7.5-7.5v-8.228c0-4.143-3.357-7.5-7.5-7.5c-4.142,0-7.5,3.357-7.5,7.5v8.228
	C248.501,133.104,251.859,136.461,256.001,136.461z M340.161,237.55c7.705,2.046,24.722,10.553,30.441,14.774
	c1.341,0.989,2.901,1.467,4.448,1.467c2.3,0,4.569-1.055,6.04-3.047c2.46-3.333,1.752-8.028-1.58-10.488
	c-7.188-5.305-25.692-14.6-35.5-17.204c-4.005-1.064-8.11,1.319-9.174,5.324C333.775,232.38,336.158,236.486,340.161,237.55z
	 M322.619,194.716c4.143,0,7.5-3.357,7.5-7.5v-11.058c0-4.143-3.357-7.5-7.5-7.5s-7.5,3.357-7.5,7.5v11.058
	C315.119,191.358,318.477,194.716,322.619,194.716z"/>
<g>
	<path style="fill:#FFFFFF;" d="M189.431,215.148c-1.309,0-2.627-0.077-3.956-0.235c-9.295-1.107-17.465-5.85-23.005-13.355
		c-5.462-7.4-7.648-16.832-5.997-25.878l0.006-0.036l3.514-18.73c1.461-7.784,8.985-12.964,16.777-11.536l18.618,3.397
		c9.046,1.65,17.098,7.027,22.092,14.752c5.064,7.834,6.615,17.152,4.367,26.238C218.132,204.793,204.585,215.148,189.431,215.148z
		 M171.226,178.39c-0.919,5.058,0.257,10.122,3.313,14.261s7.569,6.756,12.71,7.368c9.053,1.07,17.851-5.009,20.038-13.854
		c1.244-5.025,0.39-10.173-2.403-14.493c-2.796-4.324-7.124-7.216-12.188-8.14l-18.064-3.296L171.226,178.39z"/>
	<path style="fill:#FFFFFF;" d="M322.571,215.148c-15.154,0-28.699-10.355-32.416-25.382c-2.248-9.086-0.696-18.404,4.367-26.238
		c4.994-7.725,13.046-13.102,22.091-14.752l18.62-3.397c7.793-1.429,15.317,3.753,16.775,11.537l3.521,18.765
		c1.651,9.046-0.535,18.478-5.998,25.878c-5.539,7.505-13.71,12.248-23.005,13.355C325.199,215.071,323.879,215.148,322.571,215.148
		z M337.369,160.236l-18.064,3.296c-5.063,0.924-9.391,3.814-12.186,8.14c-2.793,4.32-3.647,9.468-2.404,14.493
		c2.188,8.846,10.987,14.923,20.038,13.854c5.141-0.612,9.655-3.23,12.711-7.368c3.055-4.139,4.23-9.201,3.313-14.259
		L337.369,160.236z"/>
	<path style="fill:#FFFFFF;" d="M256.001,245.854c-20.824,0-33.76-10.686-33.76-27.886c0-18.616,15.145-33.761,33.76-33.761
		c18.616,0,33.761,15.145,33.761,33.761C289.762,235.168,276.825,245.854,256.001,245.854z M256.001,199.207
		c-10.344,0-18.76,8.416-18.76,18.761c0,8.551,6.312,12.886,18.76,12.886c12.448,0,18.761-4.335,18.761-12.886
		C274.762,207.623,266.346,199.207,256.001,199.207z"/>
</g>
<g>
</g>
<g>
</g>
<g>
</g>
<g>
</g>
<g>
</g>
<g>
</g>
<g>
</g>
<g>
</g>
<g>
</g>
<g>
</g>
<g>
</g>
<g>
</g>
<g>
</g>
<g>
</g>
<g>
</g>
</svg>
