<?xml version="1.0" encoding="iso-8859-1"?>
<!-- Generator: Adobe Illustrator 19.0.0, SVG Export Plug-In . SVG Version: 6.00 Build 0)  -->
<svg version="1.1" id="Capa_1" xmlns="http://www.w3.org/2000/svg" xmlns:xlink="http://www.w3.org/1999/xlink" x="0px" y="0px"
	 viewBox="0 0 512 512" style="enable-background:new 0 0 512 512;" xml:space="preserve">
<path id="SVGCleanerId_0" style="fill:#EDA751;" d="M103.55,446.609c-32.502,0-45.69-12.859-56.313-23.215
	c-7.49-7.301-13.406-13.069-27.428-15.63c-8.148-1.489-13.546-9.3-12.057-17.447c1.488-8.148,9.301-13.549,17.446-12.058
	c23.02,4.206,34.084,14.993,42.974,23.659c9.05,8.822,15.079,14.7,35.264,14.7c0.327,0,0.657-0.002,0.991-0.005
	c21.2-0.196,25.413-8.074,34.642-25.335c6.398-11.966,14.361-26.857,30.244-39.913c6.398-5.258,15.848-4.336,21.106,2.064
	c5.259,6.398,4.335,15.848-2.063,21.106c-11.286,9.275-17.159,20.26-22.839,30.884c-10.232,19.135-21.828,40.825-60.813,41.183
	C104.318,446.606,103.931,446.609,103.55,446.609z"/>
<g>
	<path id="SVGCleanerId_0_1_" style="fill:#EDA751;" d="M103.55,446.609c-32.502,0-45.69-12.859-56.313-23.215
		c-7.49-7.301-13.406-13.069-27.428-15.63c-8.148-1.489-13.546-9.3-12.057-17.447c1.488-8.148,9.301-13.549,17.446-12.058
		c23.02,4.206,34.084,14.993,42.974,23.659c9.05,8.822,15.079,14.7,35.264,14.7c0.327,0,0.657-0.002,0.991-0.005
		c21.2-0.196,25.413-8.074,34.642-25.335c6.398-11.966,14.361-26.857,30.244-39.913c6.398-5.258,15.848-4.336,21.106,2.064
		c5.259,6.398,4.335,15.848-2.063,21.106c-11.286,9.275-17.159,20.26-22.839,30.884c-10.232,19.135-21.828,40.825-60.813,41.183
		C104.318,446.606,103.931,446.609,103.55,446.609z"/>
</g>
<path style="fill:#FCD79D;" d="M7.752,390.317c-1.489,8.147,3.909,15.958,12.057,17.447c3.71,0.678,6.842,1.586,9.596,2.681
	c6.37-8.203,8.75-20.749,8.164-28.965c-3.705-1.286-7.799-2.384-12.371-3.22C17.053,376.768,9.24,382.169,7.752,390.317z"/>
<g>
	<path style="fill:#EDA751;" d="M193.661,504.5c-0.966,0-1.941-0.059-2.925-0.178c-13.154-1.598-22.521-13.559-20.923-26.712
		c3.51-28.876,2.085-54.922-3.631-66.352c-5.926-11.853-1.122-26.264,10.73-32.19c11.855-5.925,26.264-1.121,32.19,10.73
		c13.805,27.611,11.155,70.496,8.347,93.603C215.97,495.57,205.619,504.5,193.661,504.5z"/>
	<path style="fill:#EDA751;" d="M275.52,504.5c-0.966,0-1.942-0.059-2.925-0.178c-13.154-1.599-22.521-13.559-20.922-26.712
		c3.511-28.876,2.085-54.921-3.631-66.352c-5.926-11.853-1.122-26.264,10.73-32.19c11.854-5.925,26.264-1.121,32.19,10.73
		c13.806,27.612,11.155,70.497,8.346,93.603C297.829,495.57,287.478,504.5,275.52,504.5z"/>
	<path style="fill:#EDA751;" d="M100.261,362.476c-28.212,0-58.159-13.673-79.103-48.455c-6.836-11.353-3.175-26.096,8.177-32.932
		c11.352-6.836,26.095-3.175,32.931,8.177c3.869,6.425,24.809,37.602,57.231,20.441c11.714-6.196,26.232-1.73,32.43,9.982
		c6.199,11.712,1.73,26.23-9.981,32.43C129.591,358.658,115.167,362.476,100.261,362.476z"/>
	<path style="fill:#EDA751;" d="M360.241,380.253c-2.532,0-4.91-0.167-7.11-0.44c-23.286-2.891-44.285-19.312-60.729-47.484
		c-6.68-11.445-2.818-26.137,8.627-32.817c11.446-6.676,26.137-2.818,32.816,8.627c9.708,16.633,19.383,23.331,25.2,24.054
		c4.379,0.53,9.559-2.193,15.384-8.134c9.275-9.464,24.467-9.614,33.929-0.337c9.463,9.278,9.613,24.467,0.337,33.93
		C391.06,375.642,373.55,380.253,360.241,380.253z"/>
</g>
<g>
	<path style="opacity:0.2;fill:#A35F00;enable-background:new    ;" d="M359.046,332.194c-5.817-0.723-15.493-7.422-25.2-24.054
		c-6.679-11.445-21.371-15.303-32.816-8.627c-11.445,6.68-15.307,21.372-8.627,32.817c15.812,27.088,35.835,43.305,58.054,47.083
		c6.27-14.313,9.738-29.976,9.738-46.389c0-0.259-0.009-0.516-0.01-0.774C359.799,332.252,359.419,332.239,359.046,332.194z"/>
	<path style="opacity:0.2;fill:#A35F00;enable-background:new    ;" d="M301.22,435.338c-0.903-16.127-3.752-32.529-10.258-45.541
		c-5.926-11.851-20.336-16.655-32.19-10.73c-11.852,5.926-16.656,20.338-10.73,32.19c4.044,8.087,5.937,23.489,5.457,42.031
		C270.843,450.317,286.994,444.1,301.22,435.338z"/>
	<path style="opacity:0.2;fill:#A35F00;enable-background:new    ;" d="M176.912,379.066c-11.852,5.926-16.656,20.338-10.73,32.19
		c3.205,6.41,5.061,17.418,5.454,30.941c14.629,6.949,30.833,11.378,47.965,12.672c0.584-21.57-1.313-46.701-10.499-65.072
		C203.177,377.945,188.766,373.142,176.912,379.066z"/>
	<path style="opacity:0.2;fill:#A35F00;enable-background:new    ;" d="M169.314,351.365
		c-15.883,13.056-23.846,27.947-30.244,39.913c-4.033,7.544-7.109,13.295-11.063,17.397c6.407,7.621,13.756,14.513,21.882,20.514
		c6.749-7.186,11.315-15.702,15.629-23.768c5.68-10.624,11.554-21.608,22.839-30.884c6.398-5.259,7.322-14.709,2.063-21.106
		C185.161,347.028,175.712,346.107,169.314,351.365z"/>
	<path style="opacity:0.2;fill:#A35F00;enable-background:new    ;" d="M119.496,309.707c-6.477,3.428-12.494,4.923-18.01,5.076
		c-0.952,5.953-1.449,12.043-1.449,18.241c0,10.122,1.325,19.958,3.804,29.369c13.629-0.557,26.742-4.261,38.104-10.274
		c11.712-6.2,16.18-20.718,9.981-32.43C145.729,307.977,131.21,303.51,119.496,309.707z"/>
</g>
<ellipse style="fill:#FCD690;" cx="230.113" cy="333.021" rx="110.667" ry="102.827"/>
<path style="opacity:0.15;fill:#C17A00;enable-background:new    ;" d="M213.956,434.761
	c-50.571-33.201-34.898-101.249-26.313-131.009v-65.708c-40.038,15.478-68.191,52.172-68.191,94.98
	C119.451,384.715,160.498,427.492,213.956,434.761z"/>
<path style="fill:#EDA751;" d="M162.769,154.714c21.654-18.171,36.112-48.673,5.569-93.765C137.553,15.503,91.719,4.11,55.936,8.326
	c-8.822,1.039-16.224,7.25-18.78,15.758c-10.365,34.507-7.105,81.624,32.306,119.833
	C108.564,181.826,141.115,172.885,162.769,154.714z"/>
<path style="fill:#FF91AB;" d="M35.716,29.363c-8.498,33.928-3.693,78.255,33.746,114.552
	c33.893,32.859,62.856,30.511,84.076,17.473C138.945,62.32,75.195,36.049,35.716,29.363z"/>
<path style="fill:#EDA751;" d="M297.462,154.714c-21.654-18.171-36.112-48.673-5.569-93.765
	c30.785-45.447,76.62-56.84,112.402-52.624c8.822,1.039,16.224,7.25,18.78,15.758c10.365,34.507,7.105,81.623-32.306,119.833
	C351.666,181.826,319.116,172.885,297.462,154.714z"/>
<path style="fill:#FF91AB;" d="M424.514,29.363c8.498,33.928,3.693,78.255-33.746,114.552
	c-33.892,32.859-62.856,30.511-84.076,17.473C321.286,62.32,385.036,36.049,424.514,29.363z"/>
<path style="fill:#FFDC9C;" d="M418.52,182.138c0,86.144-84.352,123.874-188.404,123.874S41.711,268.282,41.711,182.138
	S126.063,26.161,230.115,26.161C334.169,26.161,418.52,95.996,418.52,182.138z"/>
<path style="opacity:0.15;fill:#C17A00;enable-background:new    ;" d="M129.517,50.244
	c-52.765,27.641-87.806,76.378-87.806,131.895c0,74.052,62.333,112.327,145.931,121.614C67.64,232.072,83.29,135.655,129.517,50.244
	z"/>
<g style="opacity:0.2;">
	<ellipse cx="137.666" cy="185.775" rx="34.109" ry="27.169"/>
	<ellipse cx="322.571" cy="185.775" rx="34.109" ry="27.169"/>
</g>
<path style="fill:#78CFC0;" d="M493.335,365.627h-54.194c-6.163,0-11.158-4.996-11.158-11.158v-70.653
	c0-3.116,2.526-5.642,5.642-5.642h65.226c3.116,0,5.642,2.526,5.642,5.642v70.653C504.492,360.631,499.498,365.627,493.335,365.627z
	"/>
<path d="M484.315,262.578c0.365,0,0.736-0.026,1.108-0.082c4.097-0.606,6.927-4.421,6.32-8.518
	c-1.224-8.264,0.607-14.618,2.546-21.346c2.034-7.057,4.137-14.354,1.878-22.712c-1.081-3.999-5.201-6.366-9.197-5.283
	c-3.999,1.081-6.364,5.198-5.284,9.197c1.166,4.315-0.148,8.873-1.811,14.646c-2.082,7.223-4.673,16.212-2.971,27.696
	C477.457,259.901,480.659,262.578,484.315,262.578z M449.714,262.578c0.365,0,0.736-0.026,1.108-0.082
	c4.098-0.607,6.927-4.421,6.32-8.519c-1.224-8.264,0.607-14.618,2.546-21.345c2.034-7.058,4.137-14.354,1.879-22.712
	c-1.081-3.999-5.2-6.366-9.197-5.283c-3.999,1.081-6.364,5.198-5.284,9.197c1.166,4.315-0.148,8.873-1.811,14.645
	c-2.082,7.224-4.672,16.213-2.971,27.698C442.856,259.901,446.058,262.578,449.714,262.578z M364.264,216.991
	c-7.783-5.745-27.824-15.813-38.447-18.634c-3.999-1.059-8.11,1.321-9.173,5.324c-1.063,4.004,1.321,8.111,5.325,9.174
	c8.624,2.289,26.973,11.469,33.386,16.204c1.34,0.989,2.901,1.466,4.449,1.466c2.299,0,4.569-1.054,6.04-3.046
	C368.303,224.147,367.596,219.452,364.264,216.991z M173.449,156.462c-2.326,0.77-5.71,1.333-9.062,1.671
	c0.419-0.935,0.657-1.969,0.657-3.06v-12.047c0-1.986-0.777-3.786-2.037-5.128c3.78,0.314,7.796,0.922,10.442,1.798
	c0.782,0.259,1.576,0.382,2.356,0.382c3.146,0,6.077-1.996,7.12-5.146c1.301-3.933-0.832-8.175-4.765-9.476
	c-6.694-2.215-16.108-2.806-20.615-2.806c-4.508,0-13.922,0.591-20.615,2.806c-3.933,1.301-6.066,5.543-4.765,9.476
	c1.301,3.932,5.542,6.066,9.476,4.765c2.646-0.876,6.662-1.483,10.442-1.798c-1.26,1.342-2.037,3.142-2.037,5.128v12.047
	c0,1.091,0.238,2.125,0.657,3.06c-3.352-0.339-6.736-0.902-9.061-1.671c-3.932-1.302-8.175,0.831-9.477,4.764
	c-1.302,3.932,0.831,8.175,4.764,9.477c6.693,2.216,16.109,2.807,20.616,2.807c4.508,0,13.924-0.591,20.616-2.807
	c3.933-1.302,6.065-5.545,4.764-9.477C181.623,157.293,177.381,155.158,173.449,156.462z M498.852,270.675h-65.226
	c-7.246,0-13.142,5.896-13.142,13.142v3.92h-18.599c-9.827,0-17.822,7.995-17.822,17.822v4.707
	c-5.649,1.373-10.819,4.289-14.989,8.544c-6.003,6.123-8.828,5.973-9.104,5.943c-1.913-0.238-7.096-2.929-13.535-11.248
	c-1.18-6.177-2.925-12.238-5.232-18.154c9.346-3.647,18.026-7.82,25.956-12.519c38.506-22.814,58.859-57.634,58.859-100.692
	c0-19.098-3.89-37.681-11.349-55.13c20.72-30.965,26.422-69.004,15.586-105.084c-3.423-11.394-13.27-19.656-25.084-21.047
	c-35.951-4.24-71.346,7.008-97.883,30.91c-24.071-8.601-50.211-13.127-77.175-13.127s-53.104,4.527-77.175,13.127
	C126.405,7.886,91.013-3.36,55.058,0.878C43.243,2.27,33.396,10.531,29.973,21.926C19.137,58.005,24.84,96.046,45.559,127.01
	c-7.459,17.448-11.349,36.031-11.349,55.13c0,35.099,13.055,64.156,38.802,86.367c12.625,10.891,28.02,19.86,46.001,26.873
	c-0.963,2.471-1.824,4.969-2.591,7.488c-0.144,0.073-0.294,0.135-0.436,0.211c-25.787,13.648-42.722-10.082-47.297-17.682
	c-4.34-7.206-11.226-12.292-19.39-14.319c-8.164-2.027-16.629-0.755-23.835,3.586c-7.206,4.34-12.291,11.226-14.319,19.391
	c-2.027,8.165-0.753,16.63,3.586,23.835c20.226,33.588,50.601,52.086,85.529,52.086c5.966,0,11.952-0.577,17.876-1.701
	c3.029,8.367,7.11,16.285,12.088,23.622c-7.24,13.327-10.557,17.076-25.839,17.217l-0.947,0.005c-17.134,0-21.441-4.2-30.029-12.57
	c-9.112-8.884-21.59-21.049-46.859-25.665c-5.913-1.087-11.891,0.202-16.835,3.621c-4.943,3.417-8.261,8.554-9.34,14.466
	c-2.229,12.201,5.885,23.941,18.088,26.172c11.771,2.15,16.452,6.713,23.541,13.623c10.969,10.695,25.993,25.343,61.545,25.343
	l1.224-0.006c31.389-0.29,47.343-13.712,57.785-28.831c2.268,12.816,2.231,31.523-0.189,51.433
	c-2.095,17.239,10.225,32.968,27.466,35.063c1.272,0.154,2.559,0.232,3.826,0.232c15.887,0,29.313-11.907,31.233-27.695
	c1.253-10.31,2.545-25.172,2.256-40.983c0.986,0.023,1.974,0.035,2.965,0.035c5.383,0,10.682-0.345,15.876-0.999
	c0.301,10.393-0.298,22.288-1.764,34.348c-2.095,17.238,10.225,32.966,27.466,35.063c1.271,0.154,2.559,0.232,3.827,0.232
	c12.789,0,24.543-7.993,29.252-19.889c1.524-3.851-0.362-8.209-4.213-9.733c-3.849-1.522-8.209,0.361-9.734,4.214
	c-2.71,6.847-9.917,11.196-17.326,10.286c-9.028-1.098-15.481-9.335-14.383-18.362c1.69-13.9,2.292-27.22,1.786-38.966
	c11.461-2.891,22.236-7.353,32.044-13.127c0.975,8.908,1.316,18.726,0.984,29.375c-0.129,4.14,3.123,7.601,7.263,7.729
	c0.08,0.003,0.159,0.004,0.238,0.004c4.034,0,7.365-3.206,7.492-7.267c0.453-14.527-0.259-27.745-2.109-39.383
	c11.776-9.404,21.555-20.923,28.653-33.926c5.449,2.141,11.052,3.594,16.742,4.301c2.659,0.329,5.361,0.496,8.032,0.496
	c13.435,0,33.675-4.311,53.812-24.851c2.803-2.859,4.94-6.124,6.431-9.599v1.165c0,10.288,8.37,18.658,18.658,18.658h54.194
	c10.288,0,18.658-8.37,18.658-18.658v-70.652C511.992,276.57,506.097,270.675,498.852,270.675z M100.261,354.975
	c-29.461,0-55.273-15.919-72.679-44.824c-2.273-3.774-2.939-8.207-1.878-12.483c1.062-4.275,3.725-7.883,7.499-10.155
	c3.773-2.272,8.206-2.938,12.483-1.878c4.276,1.062,7.882,3.726,10.155,7.5c10.92,18.134,31.682,34.583,56.865,27.382
	c-0.496,4.126-0.753,8.297-0.753,12.507c0,7.092,0.729,14.026,2.105,20.748C109.474,354.567,104.859,354.975,100.261,354.975z
	 M406.781,111.253c-9.561-16.575-22.544-31.841-38.661-45.184c-1.095-0.906-2.202-1.798-3.317-2.68
	c18.198-14.62,38.12-21.773,53.914-25.256C421.863,55.56,422.663,83.091,406.781,111.253z M403.418,15.774
	c4.928,0.581,9.16,3.57,11.403,7.861c-18.345,4.128-41.602,12.748-62.546,30.658c-9.21-6.148-18.991-11.55-29.237-16.165
	C345.606,20.436,374.298,12.337,403.418,15.774z M56.813,15.774c29.123-3.433,57.812,4.664,80.381,22.354
	c-10.247,4.615-20.026,10.016-29.237,16.165c-20.943-17.91-44.201-26.53-62.545-30.658C47.654,19.343,51.885,16.355,56.813,15.774z
	 M41.515,38.133C57.308,41.616,77.23,48.77,95.429,63.388c-1.116,0.882-2.223,1.775-3.318,2.681
	c-16.117,13.343-29.099,28.609-38.66,45.184C37.568,83.091,38.368,55.56,41.515,38.133z M104.648,439.103l-1.099,0.006
	c-29.449,0-40.938-11.202-51.08-21.089c-7.736-7.54-15.043-14.663-31.312-17.634c-4.067-0.743-6.771-4.655-6.028-8.722
	c0.36-1.971,1.465-3.683,3.113-4.821c1.646-1.138,3.639-1.564,5.607-1.206c20.77,3.795,30.501,13.281,39.09,21.654
	c9.645,9.4,17.262,16.826,40.496,16.826l1.061-0.005c20.545-0.19,28.582-7.621,35.758-19.527c3.434,3.753,7.131,7.29,11.066,10.584
	C143.182,427.795,131.547,438.855,104.648,439.103z M210.004,482.494C208.999,490.764,201.972,497,193.66,497
	c-0.667,0-1.347-0.041-2.02-0.123c-9.028-1.097-15.48-9.335-14.383-18.362c2.076-17.081,2.503-33.121,1.324-46.218
	c10.422,4.736,21.693,8.085,33.541,9.782C212.516,457.587,211.238,472.346,210.004,482.494z M205.532,312.795
	c7.993,0.477,16.264,0.718,24.583,0.718c36.342,0,69.119-4.507,96.922-13.198c2.224,5.611,3.86,11.372,4.896,17.254
	c0.027,0.21,0.067,0.419,0.112,0.627c0.821,4.869,1.236,9.817,1.236,14.828c0,52.566-46.28,95.333-103.164,95.333
	s-103.164-42.767-103.164-95.333c0-7.716,0.983-15.285,2.925-22.639c0.031-0.109,0.063-0.217,0.09-0.327
	c0.88-3.281,1.953-6.52,3.215-9.709c11.052,3.443,22.944,6.237,35.653,8.365c4.083,0.681,7.951-2.072,8.636-6.157
	c0.685-4.085-2.073-7.952-6.158-8.636c-14.195-2.378-27.258-5.61-39.149-9.677c-0.402-0.184-0.812-0.333-1.226-0.44
	c-19.207-6.708-35.323-15.612-48.127-26.655c-22.294-19.232-33.6-44.47-33.6-75.01c0-81.871,81.154-148.477,180.904-148.477
	c99.751,0,180.905,66.606,180.905,148.477c0,38.003-17.33,67.539-51.506,87.789c-9.168,5.432-19.456,10.115-30.729,14.033
	c-0.077,0.026-0.155,0.051-0.232,0.08c-27.495,9.519-60.873,14.473-98.438,14.473c-8.024,0-15.995-0.232-23.691-0.69
	c-4.147-0.257-7.686,2.906-7.933,7.04C198.245,308.997,201.397,312.549,205.532,312.795z M403.341,352.402
	c-13.239,13.504-27.74,20.351-43.1,20.351c-2.057,0-4.139-0.129-6.185-0.382c-4.173-0.519-8.303-1.557-12.344-3.078
	c3.942-10.543,6.221-21.807,6.53-33.521c3.377,2.146,6.714,3.472,9.904,3.868c6.828,0.826,14.11-2.65,21.64-10.331
	c1.266-1.291,2.714-2.334,4.277-3.134v5.958c0,9.827,7.995,17.822,17.822,17.822h3.427
	C404.742,350.815,404.091,351.638,403.341,352.402z M401.885,334.954c-1.556,0-2.822-1.266-2.822-2.822v-5.959
	c1.469,0.747,2.833,1.715,4.046,2.904c1.747,1.713,3.016,3.728,3.837,5.877H401.885z M420.484,328.405
	c-1.57-3.66-3.858-7.081-6.874-10.038c-4.103-4.023-9.106-6.789-14.547-8.112v-4.698c0-1.557,1.266-2.822,2.822-2.822h18.599
	V328.405z M496.993,354.468c0,2.018-1.641,3.658-3.658,3.658h-54.194c-2.017,0-3.658-1.641-3.658-3.658v-68.794h61.509
	L496.993,354.468L496.993,354.468z M134.414,198.358c-10.622,2.82-30.663,12.889-38.447,18.634
	c-3.333,2.461-4.04,7.156-1.579,10.488c1.471,1.992,3.74,3.046,6.039,3.046c1.547,0,3.108-0.477,4.449-1.466
	c6.413-4.735,24.762-13.915,33.386-16.204c4.003-1.063,6.387-5.17,5.325-9.174C142.525,199.68,138.42,197.296,134.414,198.358z
	 M277.306,161.225c-1.302,3.932,0.831,8.175,4.763,9.477c6.693,2.216,16.109,2.807,20.617,2.807c4.509,0,13.924-0.591,20.616-2.807
	c3.933-1.302,6.065-5.545,4.764-9.477c-1.302-3.933-5.546-6.067-9.477-4.764c-2.326,0.77-5.71,1.333-9.061,1.671
	c0.419-0.935,0.657-1.969,0.657-3.06v-12.046c0-1.986-0.777-3.786-2.037-5.128c3.78,0.314,7.796,0.922,10.442,1.798
	c0.782,0.259,1.576,0.382,2.357,0.382c3.146,0,6.077-1.996,7.12-5.146c1.301-3.933-0.833-8.175-4.765-9.476
	c-6.694-2.215-16.108-2.806-20.615-2.806c-4.508,0-13.923,0.591-20.615,2.806c-3.933,1.301-6.066,5.543-4.765,9.476
	c1.301,3.933,5.538,6.066,9.477,4.765c2.646-0.876,6.661-1.483,10.442-1.798c-1.26,1.342-2.037,3.142-2.037,5.128v12.047
	c0,1.091,0.238,2.125,0.657,3.06c-3.352-0.339-6.736-0.902-9.061-1.672C282.848,155.161,278.608,157.293,277.306,161.225z
	 M128.429,187.62c4.108,0.548,7.875-2.347,8.418-6.453c0.542-4.107-2.347-7.875-6.453-8.418
	c-10.894-1.439-33.259,0.233-42.645,2.579c-4.019,1.005-6.462,5.077-5.457,9.096c0.852,3.407,3.91,5.683,7.27,5.683
	c0.602,0,1.214-0.073,1.825-0.226C99.123,187.945,119.585,186.451,128.429,187.62z M323.383,181.167
	c0.543,4.106,4.316,6.999,8.418,6.453c8.845-1.171,29.307,0.326,37.043,2.261c0.611,0.152,1.222,0.226,1.825,0.226
	c3.36,0,6.418-2.275,7.27-5.683c1.005-4.019-1.438-8.091-5.457-9.096c-9.387-2.347-31.753-4.02-42.645-2.579
	C325.73,173.293,322.841,177.06,323.383,181.167z M210.983,173.588h38.266c4.142,0,7.5-3.357,7.5-7.5s-3.358-7.5-7.5-7.5h-38.266
	c-4.142,0-7.5,3.357-7.5,7.5C203.483,170.23,206.841,173.588,210.983,173.588z"/>
<g>
</g>
<g>
</g>
<g>
</g>
<g>
</g>
<g>
</g>
<g>
</g>
<g>
</g>
<g>
</g>
<g>
</g>
<g>
</g>
<g>
</g>
<g>
</g>
<g>
</g>
<g>
</g>
<g>
</g>
</svg>
