<?xml version="1.0" encoding="iso-8859-1"?>
<!-- Generator: Adobe Illustrator 19.0.0, SVG Export Plug-In . SVG Version: 6.00 Build 0)  -->
<svg version="1.1" id="Capa_1" xmlns="http://www.w3.org/2000/svg" xmlns:xlink="http://www.w3.org/1999/xlink" x="0px" y="0px"
	 viewBox="0 0 512 512" style="enable-background:new 0 0 512 512;" xml:space="preserve">
<g>
	<path style="fill:#EDA751;" d="M221.238,471.59c-1.875,0-3.781-0.251-5.676-0.778c-11.249-3.129-17.831-14.783-14.703-26.032
		l10.88-39.122c3.128-11.247,14.778-17.834,26.033-14.702c11.249,3.129,17.831,14.783,14.703,26.032l-10.88,39.122
		C238.993,465.463,230.495,471.59,221.238,471.59z"/>
	<path style="fill:#EDA751;" d="M367.448,425.468c-9.828,0-19.13-2.783-28.09-8.362c-12.529-7.802-22.238-19.69-32.516-32.277
		l-0.749-0.918c-4.616-5.651-3.778-13.975,1.873-18.592c5.652-4.617,13.975-3.777,18.592,1.874l0.751,0.921
		c20.389,24.965,31.169,36.598,53.268,28.176c44.068-16.786,72.578-17.05,98.403-0.91c6.189,3.867,8.069,12.019,4.201,18.207
		c-3.867,6.188-12.018,8.071-18.207,4.201c-18.149-11.341-39.172-10.448-74.991,3.197
		C382.143,423.971,374.654,425.468,367.448,425.468z"/>
</g>
<path style="fill:#FCD79D;" d="M478.981,395.379c-3.176-1.985-6.393-3.719-9.674-5.207c-5.456,3.712-12.092,11.949-13.068,23.209
	c3.011,1.171,5.909,2.64,8.735,4.407c6.19,3.87,14.34,1.987,18.207-4.201C487.05,407.398,485.169,399.246,478.981,395.379z"/>
<g>
	<path style="fill:#EDA751;" d="M312.334,504.5c-0.33,0-0.663-0.007-0.997-0.023c-11.663-0.541-20.678-10.435-20.138-22.099
		c0.915-19.708-1.67-47.157-7.581-58.978c-5.221-10.444-0.989-23.142,9.454-28.364c10.445-5.221,23.142-0.988,28.364,9.454
		c11.345,22.689,12.88,60.867,11.999,79.848C332.91,495.669,323.558,504.5,312.334,504.5z"/>
	<path style="fill:#EDA751;" d="M135.982,388.276c-15.188,0-29.954-5.129-44.118-15.356c-9.466-6.835-11.599-20.05-4.764-29.516
		s20.049-11.599,29.516-4.764c20.027,14.46,35.207,6.843,63.787-16.97c8.968-7.473,22.3-6.262,29.775,2.711
		c7.474,8.97,6.26,22.301-2.711,29.775c-14.275,11.893-29.745,24.018-48.063,30.152
		C151.504,386.955,143.689,388.276,135.982,388.276z"/>
	<path style="fill:#EDA751;" d="M379.16,365.859c-16.159,0-31.543-3.441-42.525-9.279c-10.309-5.481-14.224-18.281-8.742-28.591
		c5.481-10.308,18.278-14.225,28.591-8.742c13.7,7.285,47.476,5.908,56.586-8.271c6.311-9.823,19.391-12.668,29.214-6.358
		c9.823,6.312,12.669,19.392,6.358,29.214C433.95,356.696,405.526,365.859,379.16,365.859z"/>
</g>
<g>
	<path style="opacity:0.2;fill:#A35F00;enable-background:new    ;" d="M237.772,390.956c-11.255-3.132-22.905,3.455-26.033,14.703
		l-9.222,33.16c11.648,7.816,24.88,13.67,39.143,17.055l10.814-38.886C255.603,405.739,249.02,394.085,237.772,390.956z"/>
	<path style="opacity:0.2;fill:#A35F00;enable-background:new    ;" d="M321.436,404.492c-5.221-10.442-17.918-14.676-28.364-9.455
		c-10.443,5.221-14.676,17.92-9.454,28.364c3.636,7.271,6.011,20.456,7.09,34.115c14.788-2.466,28.621-7.561,40.942-14.744
		C329.874,428.988,326.72,415.06,321.436,404.492z"/>
	<path style="opacity:0.2;fill:#A35F00;enable-background:new    ;" d="M374.985,398.045c-18.478,4.502-29.084-7.169-47.675-29.932
		l-0.752-0.921c-4.617-5.651-12.94-6.491-18.592-1.874s-6.49,12.942-1.874,18.592l0.75,0.918
		c10.278,12.587,19.988,24.475,32.516,32.277c5.343,3.327,10.809,5.652,16.434,6.993
		C363.446,416.365,369.931,407.598,374.985,398.045z"/>
	<path style="opacity:0.2;fill:#A35F00;enable-background:new    ;" d="M383.915,323.384c-10.488,0.74-21.102-0.771-27.432-4.137
		c-10.312-5.482-23.109-1.566-28.591,8.742c-5.481,10.309-1.567,23.109,8.742,28.591c10.982,5.839,26.366,9.279,42.525,9.279
		c2.221,0,4.457-0.071,6.698-0.204c0.862-5.375,1.311-10.875,1.311-16.473C387.17,340.3,386.037,331.663,383.915,323.384z"/>
	<path style="opacity:0.2;fill:#A35F00;enable-background:new    ;" d="M180.403,321.671c-10.4,8.665-19.021,15.173-26.751,19.266
		c-0.215,2.723-0.328,5.472-0.328,8.246c0,12.274,2.149,24.083,6.107,35.116c18.306-6.138,33.767-18.256,48.035-30.142
		c8.97-7.474,10.184-20.804,2.711-29.775C202.703,315.409,189.371,314.198,180.403,321.671z"/>
</g>
<ellipse style="fill:#FCD690;" cx="270.249" cy="349.18" rx="97.51" ry="90.61"/>
<path style="opacity:0.15;fill:#C17A00;enable-background:new    ;" d="M256.008,438.826
	c-44.559-29.255-30.749-89.213-23.185-115.435v-57.897c-35.278,13.638-60.085,45.969-60.085,83.689
	C172.738,394.729,208.905,432.421,256.008,438.826z"/>
<path style="fill:#EDA751;" d="M210.907,192.07c19.08-16.01,31.82-42.887,4.907-82.618c-27.125-40.045-67.511-50.083-99.04-46.368
	c-7.773,0.916-14.295,6.388-16.547,13.884c-9.133,30.405-6.261,71.92,28.466,105.587C163.146,215.959,191.826,208.08,210.907,192.07
	z"/>
<path style="fill:#FF91AB;" d="M98.957,81.621c-7.488,29.895-3.254,68.952,29.734,100.935
	c29.864,28.953,55.384,26.884,74.081,15.395C189.914,110.66,133.743,87.512,98.957,81.621z"/>
<path style="fill:#EDA751;" d="M329.587,192.07c-19.08-16.01-31.82-42.887-4.907-82.618c27.125-40.045,67.511-50.083,99.04-46.368
	c7.773,0.916,14.295,6.388,16.547,13.884c9.133,30.405,6.26,71.92-28.466,105.587C377.348,215.959,348.667,208.08,329.587,192.07z"
	/>
<path style="fill:#FF91AB;" d="M441.536,81.621c7.487,29.895,3.254,68.952-29.735,100.935
	c-29.863,28.953-55.384,26.884-74.081,15.395C350.58,110.66,406.75,87.512,441.536,81.621z"/>
<path style="fill:#FFDC9C;" d="M436.254,216.235c0,75.903-74.324,109.148-166.007,109.148S104.24,292.138,104.24,216.235
	S178.564,78.8,270.247,78.8S436.254,140.332,436.254,216.235z"/>
<path style="opacity:0.15;fill:#C17A00;enable-background:new    ;" d="M181.607,100.019
	c-46.492,24.355-77.368,67.298-77.368,116.215c0,65.249,54.923,98.974,128.583,107.156
	C127.086,260.232,140.876,175.277,181.607,100.019z"/>
<g>
	<ellipse style="fill:#FF91AB;" cx="188.789" cy="219.44" rx="30.06" ry="23.936"/>
	<ellipse style="fill:#FF91AB;" cx="351.709" cy="219.44" rx="30.06" ry="23.936"/>
</g>
<g>
	<path style="fill:#495059;" d="M313.921,165.996L313.921,165.996c-2.699,0.904-4.519,3.433-4.519,6.28v17.359
		c0,13.441,10.452,24.889,23.885,25.367c14.102,0.501,25.692-10.782,25.692-24.772v-17.953c0-2.847-1.819-5.375-4.519-6.28l0,0
		C341.306,161.589,327.075,161.589,313.921,165.996z"/>
	<path style="fill:#495059;" d="M218.445,122.214c-14.494,0-27.762-8.132-34.34-21.047l-5.975-11.73
		c-5.797-11.379,4.614-24.252,16.954-20.963l10.331,2.753c7.446,1.984,14.74-3.727,14.537-11.43
		c-0.064-2.425,0.034-4.891,0.307-7.388c0.422-3.87,1.26-7.618,2.466-11.199c15.141-44.947,79.905-44.947,95.046,0
		c1.206,3.581,2.044,7.328,2.466,11.199c0.272,2.497,0.371,4.963,0.307,7.388c-0.203,7.703,7.091,13.415,14.537,11.43l10.331-2.753
		c12.34-3.289,22.751,9.583,16.954,20.963l-5.975,11.73c-6.579,12.915-19.847,21.047-34.34,21.047
		C322.051,122.214,218.445,122.214,218.445,122.214z"/>
</g>
<g>
	<path style="fill:#FFFFFF;" d="M255.933,85.238c-1.919,0-3.839-0.732-5.304-2.196c-2.929-2.93-2.929-7.678,0-10.607l28.627-28.627
		c2.93-2.928,7.678-2.928,10.607,0c2.929,2.93,2.929,7.678,0,10.607l-28.627,28.627C259.772,84.506,257.852,85.238,255.933,85.238z"
		/>
	<path style="fill:#FFFFFF;" d="M284.56,85.238c-1.919,0-3.839-0.732-5.304-2.196l-28.627-28.627c-2.929-2.93-2.929-7.678,0-10.607
		c2.93-2.928,7.678-2.928,10.607,0l28.627,28.627c2.929,2.93,2.929,7.678,0,10.607C288.399,84.506,286.479,85.238,284.56,85.238z"/>
</g>
<path style="fill:#B77866;" d="M103.4,335.272l-26.382,7.069l8.731,32.585c1.952,7.285,9.44,11.608,16.725,9.656l0,0
	c7.285-1.952,11.608-9.44,9.656-16.725L103.4,335.272z"/>
<path style="fill:#DEE2E5;" d="M35.108,137.705L35.108,137.705c-14.07,44.47-9.931,92.705,11.51,134.127l23.937,46.244l26.31-7.05
	L50.516,138.049C48.439,130.298,37.529,130.054,35.108,137.705z"/>
<path style="fill:#BD4568;" d="M123.813,329.802L56.606,347.81c-3.504,0.939-7.105-1.141-8.044-4.644l-3.1-11.566
	c-0.939-3.504,1.14-7.105,4.644-8.044l67.207-18.008c3.504-0.939,7.105,1.141,8.044,4.644l3.099,11.566
	C129.396,325.262,127.317,328.864,123.813,329.802z"/>
<path d="M482.955,389.019c-28.068-17.541-58.502-17.469-105.048,0.262c-4.972,1.894-9.055,2.574-12.841,2.037
	c2.95-5.77,5.312-11.85,7.016-18.172c2.365,0.141,4.731,0.215,7.079,0.215c33.185,0,61.517-13.261,75.79-35.472
	c8.537-13.285,4.674-31.039-8.613-39.579c-13.286-8.534-31.042-4.673-39.578,8.613c-4.622,7.193-21.812,10.296-35.369,8.721
	c7.167-2.945,13.874-6.25,20.065-9.918c34.214-20.272,52.299-51.217,52.299-89.49c0-14.382-2.56-28.63-7.513-42.257
	c-0.121-0.423-0.276-0.83-0.465-1.216c-0.619-1.651-1.275-3.291-1.965-4.922c18.235-27.449,23.229-61.102,13.638-93.029
	c-3.118-10.38-12.088-17.906-22.852-19.175c-20.939-2.468-42.381,1.109-61.068,10.055c-5.494-4.668-12.847-6.383-20.052-4.464
	l-10.33,2.753c-1.72,0.457-2.983-0.269-3.583-0.741c-0.589-0.465-1.571-1.506-1.525-3.246c0.073-2.781-0.044-5.606-0.349-8.396
	c-0.474-4.342-1.42-8.642-2.814-12.781C316.934,15.236,295.49,0,270.247,0s-46.688,15.236-54.63,38.816
	c-1.395,4.139-2.341,8.439-2.814,12.779c-0.305,2.791-0.422,5.616-0.349,8.398c0.046,1.739-0.937,2.78-1.525,3.245
	c-0.6,0.473-1.864,1.199-3.583,0.741l-10.33-2.753c-7.204-1.919-14.559-0.205-20.052,4.464
	c-18.689-8.947-40.137-12.524-61.068-10.056c-10.764,1.269-19.733,8.795-22.852,19.176c-9.591,31.926-4.596,65.579,13.638,93.028
	c-6.534,15.459-9.942,31.836-9.942,48.395c0,30.77,11.303,56.336,33.595,75.988c11.167,9.844,24.836,17.965,40.864,24.307
	c-0.524,1.384-1.013,2.777-1.469,4.178c-20.548,16.478-31.06,20.79-42.221,15.729c2.847-1.177,5.222-3.233,6.787-5.946
	c1.879-3.255,2.378-7.046,1.404-10.675l-3.098-11.564c-0.973-3.63-3.301-6.664-6.555-8.543s-7.045-2.38-10.676-1.405l-13.205,3.538
	L57.761,136.107c-1.802-6.726-7.69-11.35-14.652-11.505c-0.121-0.002-0.24-0.004-0.36-0.004c-6.81,0-12.727,4.32-14.79,10.844
	c-14.772,46.689-10.511,96.351,12,139.837l19.652,37.966l-11.445,3.066c-3.629,0.973-6.662,3.301-8.541,6.555
	c-1.88,3.255-2.379,7.047-1.405,10.676l3.099,11.566c1.683,6.277,7.382,10.427,13.594,10.427c1.201,0,2.422-0.155,3.637-0.48
	l13.168-3.528l6.79,25.341c1.462,5.458,4.963,10.021,9.857,12.846c3.26,1.882,6.877,2.844,10.543,2.844
	c1.838,0,3.688-0.242,5.511-0.73c1.306-0.35,2.557-0.824,3.749-1.398c9.078,3.548,18.417,5.348,27.816,5.348
	c8.495,0,17.177-1.466,25.803-4.357c3.819-1.278,7.613-2.829,11.458-4.679c5.955,13.375,14.986,25.264,26.27,34.889l-5.879,21.14
	c-3.537,12.714,2.126,25.847,12.962,32.292l-4.066,14.623c-1.11,3.99,1.226,8.125,5.217,9.234c0.672,0.188,1.348,0.276,2.013,0.276
	c3.284,0,6.299-2.174,7.222-5.493l4.065-14.62c0.064,0,0.128,0.007,0.193,0.007c12.806,0,24.148-8.623,27.582-20.971l3.415-12.277
	c5.854,0.949,11.872,1.449,18.012,1.449c3.965,0,7.878-0.214,11.73-0.615c1.576,11.03,2.248,24.19,1.73,35.356
	c-0.732,15.776,11.507,29.206,27.301,29.939c0.444,0.02,0.888,0.029,1.326,0.029c10.66,0,20.37-5.868,25.341-15.315
	c1.929-3.666,0.521-8.201-3.146-10.13c-3.667-1.928-8.201-0.52-10.13,3.146c-2.368,4.502-6.992,7.299-12.065,7.299
	c-0.222,0-0.444-0.006-0.649-0.015c-7.514-0.349-13.342-6.745-12.993-14.259c0.574-12.367-0.16-26.522-1.927-38.607
	c9.202-2.245,17.916-5.63,25.958-9.983c1.883,10.332,2.727,20.515,3.102,27.999c0.2,4.01,3.514,7.126,7.484,7.126
	c0.126,0,0.253-0.003,0.38-0.01c4.137-0.206,7.323-3.728,7.116-7.864c-0.469-9.4-1.646-22.825-4.539-35.972
	c0.348-0.264,0.696-0.527,1.04-0.795c9.561,5.541,19.691,8.347,30.142,8.347c8.058,0,16.538-1.674,25.206-4.975
	c38.416-14.635,55.104-12.12,68.345-3.847c4.692,2.933,10.243,3.86,15.638,2.62c5.391-1.244,9.974-4.514,12.906-9.206
	C495.595,407.875,492.64,395.071,482.955,389.019z M419.379,315.03c4.067-6.327,12.523-8.167,18.851-4.102
	c6.328,4.066,8.169,12.522,4.103,18.85c-11.5,17.897-35.115,28.581-63.171,28.581c-1.447,0-2.902-0.042-4.358-0.103
	c0.295-2.989,0.453-6.014,0.453-9.074c0-6.214-0.613-12.336-1.826-18.332C390.299,331.915,411.191,327.774,419.379,315.03z
	 M53.278,268.385c-20.672-39.936-24.585-85.542-11.02-128.417c0.078-0.244,0.15-0.398,0.515-0.368
	c0.396,0.009,0.433,0.145,0.499,0.391L87.68,305.725l-13.238,3.547L53.278,268.385z M104.272,374.47
	c-0.822,1.424-2.149,2.442-3.738,2.868c-1.587,0.424-3.247,0.208-4.671-0.615c-1.425-0.822-2.443-2.149-2.869-3.738l-6.79-25.34
	l11.893-3.187l6.79,25.341C105.313,371.387,105.095,373.046,104.272,374.47z M103.875,327.381c-0.161,0.036-0.318,0.081-0.474,0.127
	l-28.319,7.588c-0.001,0-0.003,0.001-0.004,0.001c-0.002,0-0.003,0.001-0.004,0.001l-19.508,5.227l-2.616-9.767l19.354-5.186
	c0.003-0.001,0.006-0.001,0.009-0.002l26.49-7.098c0.002-0.001,0.004-0.001,0.006-0.001c0.002-0.001,0.004-0.001,0.006-0.002
	l19.543-5.237l2.616,9.767L103.875,327.381z M157.02,377.197c-7.088,2.375-14.166,3.579-21.038,3.579
	c-5.707,0-11.407-0.855-17.031-2.513c1.366-3.952,1.531-8.219,0.425-12.348l-5.344-19.944c7.776,5.194,15.127,7.39,22.246,7.39
	c10.019,0,19.576-4.344,29.2-10.768c-0.154,2.184-0.24,4.38-0.24,6.589c0,8.027,1.045,15.83,3.001,23.302
	C164.436,374.395,160.728,375.956,157.02,377.197z M425.851,152.029c-1.603-2.712-3.303-5.385-5.111-8.011
	c-8.237-11.96-18.512-22.874-30.4-32.399c15.327-12.048,31.961-18.135,45.372-21.195
	C438.273,105.399,438.698,128.391,425.851,152.029z M369.047,92.841c2.304-4.522,2.976-9.465,2.096-14.162
	c15.878-7.338,33.995-10.23,51.7-8.146c3.648,0.43,6.834,2.465,8.776,5.442c-15.937,3.729-35.808,11.282-53.822,26.516
	c-3.374-2.23-6.854-4.35-10.422-6.367L369.047,92.841z M185.636,78.172c0.579-0.716,2.476-2.72,5.534-2.72
	c0.614,0,1.275,0.081,1.982,0.27l10.33,2.753c5.873,1.565,11.973,0.302,16.741-3.463c4.751-3.751,7.385-9.368,7.225-15.411
	c-0.055-2.108,0.034-4.255,0.267-6.379c0.355-3.267,1.068-6.503,2.117-9.617C236.936,22.515,255.367,15,270.247,15
	c14.88,0,33.31,7.515,40.415,28.604c1.049,3.115,1.762,6.352,2.117,9.619c0.232,2.123,0.321,4.27,0.267,6.377
	c-0.16,6.044,2.474,11.661,7.225,15.412c4.769,3.766,10.872,5.029,16.741,3.463l10.33-2.753c4.227-1.128,6.82,1.591,7.516,2.45
	c0.695,0.859,2.809,3.966,0.824,7.86l-5.975,11.73c-5.326,10.456-15.925,16.951-27.658,16.951H218.445
	c-11.733,0-22.331-6.495-27.657-16.951l-0.983-1.93c-0.002-0.004-0.003-0.008-0.005-0.012s-0.004-0.007-0.006-0.01l-4.982-9.779
	C182.828,82.138,184.941,79.031,185.636,78.172z M180.235,109.326c8.485,12.69,22.667,20.388,38.21,20.388h103.604
	c15.543,0,29.725-7.699,38.211-20.389c4.694,2.656,9.184,5.488,13.45,8.491c0.282,0.228,0.576,0.432,0.881,0.613
	c19.564,13.973,34.418,31.462,43.582,50.965c0.026,0.078,0.047,0.157,0.076,0.234c-16.501,1.522-33.861,2.047-51.812,1.566
	c-0.429-5.628-4.175-10.494-9.595-12.308c-14.604-4.894-30.694-4.894-45.303,0h-0.001c-3.549,1.189-6.375,3.688-8.028,6.85
	c-61.833-8.867-113.892-25.991-145.984-40.856c2.695-2.224,5.484-4.384,8.389-6.458c0.295-0.176,0.58-0.374,0.853-0.593
	C171.039,114.821,175.534,111.985,180.235,109.326z M351.479,172.911v17.317c0,4.734-1.877,9.153-5.285,12.442
	c-3.407,3.287-7.917,4.993-12.641,4.835c-9.182-0.326-16.651-8.344-16.651-17.871V172.91
	C328.078,169.31,340.305,169.31,351.479,172.911z M117.65,70.532c17.709-2.083,35.824,0.808,51.701,8.146
	c-0.88,4.698-0.208,9.64,2.096,14.163l1.673,3.283c-3.569,2.017-7.048,4.137-10.423,6.367
	c-18.013-15.234-37.885-22.787-53.821-26.516C110.818,72.997,114.003,70.962,117.65,70.532z M104.782,90.424
	c13.411,3.06,30.045,9.147,45.372,21.195c-3.721,2.981-7.277,6.103-10.668,9.346c-0.233,0.192-0.453,0.403-0.664,0.625
	c-7.176,6.944-13.576,14.453-19.069,22.427c-1.809,2.626-3.509,5.299-5.111,8.011C101.795,128.39,102.221,105.399,104.782,90.424z
	 M234.369,454.1c-1.636,5.882-7.036,9.99-13.131,9.99c-1.231,0-2.462-0.169-3.66-0.501c-0.003-0.001-0.005-0.002-0.008-0.003
	c-0.002-0.001-0.004-0.001-0.006-0.001c-7.242-2.019-11.494-9.551-9.479-16.794l4.375-15.733c7.733,4.78,16.178,8.629,25.153,11.378
	L234.369,454.1z M270.247,432.291c-49.631,0-90.009-37.282-90.009-83.108c0-7.444,1.049-14.731,3.122-21.781
	c0.024-0.074,0.047-0.148,0.068-0.223c0.572-1.923,1.215-3.829,1.939-5.715c8.722,2.68,18.01,4.922,27.89,6.686
	c0.446,0.08,0.89,0.118,1.327,0.118c3.564,0,6.726-2.551,7.374-6.183c0.729-4.077-1.986-7.974-6.064-8.701
	c-11.535-2.06-22.175-4.785-31.924-8.135c-0.279-0.111-0.56-0.208-0.844-0.284c-17.216-6.014-31.572-14.034-42.872-23.996
	c-18.921-16.679-28.515-38.459-28.515-64.735c0-15.755,3.419-31.033,9.849-45.27c0.307-0.496,0.549-1.023,0.731-1.569
	c5.675-12.079,13.527-23.385,23.339-33.56c32.687,15.979,88.976,35.229,156.243,44.821v8.978c0,17.51,13.96,32.252,31.118,32.861
	c0.397,0.015,0.793,0.021,1.188,0.021c6.41,0,12.529-1.858,17.769-5.335c1.211,3.176,4.481,5.226,7.984,4.766
	c7.56-1,25.707,0.322,32.306,1.972c0.61,0.152,1.222,0.226,1.824,0.226c3.36,0,6.418-2.275,7.271-5.684
	c1.004-4.019-1.439-8.09-5.458-9.095c-7.325-1.83-23.547-3.196-33.949-2.637c2.947-4.934,4.524-10.584,4.524-16.502v-4.036
	c4.283,0.111,8.545,0.187,12.763,0.187c15.406,0,30.35-0.742,44.658-2.219c3.184,10.333,4.854,21.087,4.854,32.073
	c0,33.148-15.122,58.915-44.945,76.586c-8.021,4.752-17.021,8.85-26.887,12.281c-0.086,0.029-0.172,0.056-0.257,0.088
	c-24.124,8.348-53.427,12.693-86.417,12.693c-7.052,0-14.06-0.204-20.828-0.607c-4.153-0.273-7.687,2.906-7.933,7.04
	c-0.247,4.135,2.905,7.687,7.04,7.933c7.065,0.421,14.373,0.635,21.721,0.635c31.767,0,60.458-3.904,84.875-11.429
	c0.351,0.913,0.678,1.831,0.993,2.752c0.005,0.015,0.01,0.03,0.015,0.044c2.737,8.023,4.125,16.373,4.125,24.932
	C360.256,395.009,319.878,432.291,270.247,432.291z M476.822,409.611c-0.809,1.295-2.073,2.196-3.56,2.539
	c-1.484,0.346-3.017,0.088-4.313-0.724c-20.428-12.766-43.319-12.048-81.635,2.549c-6.957,2.649-13.641,3.992-19.867,3.992
	c-6.348,0-12.394-1.345-18.331-4.089c2.748-2.921,5.313-5.995,7.68-9.207c8.084,2.823,16.648,2.362,26.451-1.375
	c41.593-15.844,68.178-16.296,91.758-1.558C477.676,403.408,478.492,406.94,476.822,409.611z M350.951,244.162
	c7.37,1.956,23.646,10.094,29.118,14.133c1.34,0.989,2.9,1.466,4.448,1.466c2.3,0,4.569-1.054,6.04-3.046
	c2.46-3.332,1.753-8.028-1.58-10.488c-6.918-5.106-24.733-14.056-34.177-16.563c-4.01-1.061-8.111,1.321-9.174,5.324
	C344.564,238.992,346.948,243.1,350.951,244.162z M185.693,229.664c-9.44,2.507-27.257,11.455-34.177,16.563
	c-3.332,2.46-4.04,7.155-1.58,10.488c1.471,1.992,3.74,3.046,6.04,3.046c1.547,0,3.108-0.477,4.448-1.466
	c5.473-4.039,21.749-12.177,29.118-14.133c4.003-1.063,6.387-5.17,5.324-9.174C193.804,230.985,189.703,228.604,185.693,229.664z
	 M270.247,211.209c8.63,0,16.835-3.737,22.513-10.254c2.722-3.123,2.396-7.86-0.728-10.581c-3.123-2.722-7.86-2.396-10.581,0.728
	c-2.828,3.246-6.912,5.107-11.204,5.107c-4.291,0-8.375-1.862-11.204-5.108c-2.723-3.122-7.46-3.448-10.582-0.727
	c-3.122,2.722-3.448,7.459-0.727,10.582C253.413,207.472,261.619,211.209,270.247,211.209z M206.303,177.443
	c-4.143,0-7.5,3.357-7.5,7.5v10.614c0,4.143,3.357,7.5,7.5,7.5s7.5-3.357,7.5-7.5v-10.614
	C213.803,180.801,210.446,177.443,206.303,177.443z M180.532,221.949c4.096,0.538,7.875-2.346,8.418-6.453
	c0.543-4.105-2.347-7.875-6.453-8.418c-9.682-1.278-29.565,0.205-37.907,2.29c-4.019,1.005-6.462,5.076-5.458,9.095
	c0.853,3.408,3.91,5.684,7.271,5.684c0.602,0,1.214-0.073,1.824-0.226C154.825,222.27,172.97,220.947,180.532,221.949z"/>
<g>
</g>
<g>
</g>
<g>
</g>
<g>
</g>
<g>
</g>
<g>
</g>
<g>
</g>
<g>
</g>
<g>
</g>
<g>
</g>
<g>
</g>
<g>
</g>
<g>
</g>
<g>
</g>
<g>
</g>
</svg>
