<?xml version="1.0" encoding="iso-8859-1"?>
<!-- Generator: Adobe Illustrator 19.0.0, SVG Export Plug-In . SVG Version: 6.00 Build 0)  -->
<svg version="1.1" id="Capa_1" xmlns="http://www.w3.org/2000/svg" xmlns:xlink="http://www.w3.org/1999/xlink" x="0px" y="0px"
	 viewBox="0 0 512 512" style="enable-background:new 0 0 512 512;" xml:space="preserve">
<g>
	<path style="fill:#EDA751;" d="M100.451,367.568c-8.061,0-16.518-0.223-25.369-0.67c-12.983-0.656-22.976-11.713-22.32-24.697
		c0.656-12.984,11.678-22.977,24.697-22.32c34.53,1.746,63.14-0.403,80.568-6.048c12.368-4.007,25.64,2.774,29.646,15.141
		c4.005,12.367-2.773,25.64-15.141,29.645C154.152,364.573,129.976,367.568,100.451,367.568z"/>
	<path style="fill:#EDA751;" d="M367.127,416.71c-33.15,0-52.458-23.636-69.843-44.915c-5.14-6.291-4.207-15.56,2.086-20.7
		c6.291-5.14,15.558-4.208,20.7,2.086c23.15,28.336,35.192,39.162,61.494,31.956c9.477-2.597,13.046-7.844,19.594-18.519
		c7.114-11.598,15.969-26.033,37.163-35.929c7.361-3.439,16.116-0.257,19.553,7.106c3.438,7.361,0.256,16.116-7.106,19.553
		c-13.184,6.156-18.442,14.727-24.53,24.653c-7.029,11.461-15.779,25.725-36.9,31.512
		C381.286,415.718,373.916,416.71,367.127,416.71z"/>
</g>
<path style="fill:#FCD79D;" d="M457.875,337.794c-3.438-7.364-12.192-10.545-19.553-7.106c-3.895,1.819-7.371,3.792-10.498,5.872
	c1.42,6.757,5.794,18.651,15.036,25.396c2.295-1.653,4.886-3.197,7.909-4.608C458.131,353.91,461.312,345.155,457.875,337.794z"/>
<g>
	<path style="fill:#EDA751;" d="M217.526,504.5c-12.521,0-22.937-9.865-23.497-22.497c-1.413-31.905,0.368-58.671,2.758-71.044
		c2.466-12.763,14.819-21.113,27.576-18.645c12.763,2.465,21.112,14.812,18.645,27.576c-1.042,5.396-3.425,26.699-1.949,60.031
		c0.575,12.987-9.488,23.982-22.474,24.556C218.231,504.493,217.878,504.5,217.526,504.5z"/>
	<path style="fill:#EDA751;" d="M289.133,504.5c-12.521,0-22.937-9.865-23.497-22.497c-1.411-31.896,0.368-58.662,2.757-71.04
		c2.465-12.765,14.817-21.112,27.573-18.65c12.764,2.465,21.114,14.81,18.65,27.573c-1.042,5.4-3.425,26.711-1.95,60.034
		c0.575,12.987-9.488,23.982-22.474,24.556C289.838,504.493,289.485,504.5,289.133,504.5z"/>
</g>
<g>
	<path style="opacity:0.2;fill:#A35F00;enable-background:new    ;" d="M366.921,387.285c-17.08-0.154-28.466-11.601-46.85-34.105
		c-5.142-6.294-14.409-7.226-20.7-2.086c-6.293,5.141-7.226,14.409-2.086,20.7c13.659,16.72,28.511,34.888,50.327,41.909
		C355.229,405.78,361.741,396.901,366.921,387.285z"/>
	<path style="opacity:0.2;fill:#A35F00;enable-background:new    ;" d="M295.967,392.313c-12.756-2.462-25.108,5.885-27.573,18.65
		c-1.613,8.354-2.946,23.268-3.209,41.884c17.032-1.561,33.093-6.275,47.518-13.509c0.542-10.114,1.394-16.76,1.914-19.452
		C317.081,407.123,308.731,394.778,295.967,392.313z"/>
	<path style="opacity:0.2;fill:#A35F00;enable-background:new    ;" d="M224.363,392.314c-12.756-2.467-25.109,5.882-27.576,18.645
		c-1.222,6.325-2.284,16.419-2.842,29.032c14.223,6.933,29.997,11.427,46.694,12.897c0.274-17.811,1.645-29.249,2.369-32.999
		C245.475,407.127,237.127,394.78,224.363,392.314z"/>
	<path style="opacity:0.2;fill:#A35F00;enable-background:new    ;" d="M158.027,313.834c-8.423,2.728-19.464,4.637-32.516,5.687
		c-0.538,4.468-0.824,9.007-0.824,13.607c0,11.554,1.746,22.73,4.996,33.314c16.623-1.365,30.956-3.97,42.848-7.822
		c12.368-4.005,19.146-17.279,15.141-29.645C183.667,316.609,170.395,309.828,158.027,313.834z"/>
</g>
<ellipse style="fill:#FCD690;" cx="252.67" cy="333.13" rx="108.56" ry="100.88"/>
<path style="opacity:0.15;fill:#C17A00;enable-background:new    ;" d="M236.813,432.935
	c-49.611-32.572-34.236-99.329-25.814-128.524V239.95c-39.278,15.184-66.898,51.182-66.898,93.178
	C144.102,383.839,184.37,425.805,236.813,432.935z"/>
<path style="fill:#EDA751;" d="M186.598,158.2c21.244-17.826,35.428-47.75,5.463-91.986c-30.201-44.585-75.166-55.761-110.27-51.626
	c-8.655,1.02-15.916,7.113-18.423,15.459c-10.169,33.853-6.97,80.075,31.693,117.56C133.422,184.798,165.354,176.026,186.598,158.2z
	"/>
<path style="fill:#FF91AB;" d="M61.955,35.228c-8.337,33.285-3.623,76.771,33.106,112.38c33.25,32.236,61.664,29.932,82.481,17.141
	C163.225,67.559,100.685,41.787,61.955,35.228z"/>
<path style="fill:#EDA751;" d="M318.736,158.2c-21.244-17.826-35.428-47.75-5.463-91.986c30.201-44.585,75.166-55.761,110.27-51.626
	c8.654,1.02,15.916,7.113,18.423,15.459c10.169,33.853,6.97,80.075-31.693,117.56C371.912,184.798,339.979,176.026,318.736,158.2z"
	/>
<path style="fill:#FF91AB;" d="M443.379,35.228c8.336,33.285,3.623,76.771-33.106,112.38c-33.25,32.236-61.664,29.932-82.481,17.141
	C342.108,67.559,404.649,41.787,443.379,35.228z"/>
<path style="fill:#FFDC9C;" d="M437.498,185.105c0,84.51-82.751,121.524-184.831,121.524c-102.079,0-184.831-37.014-184.831-121.524
	S150.588,32.087,252.667,32.087S437.498,100.595,437.498,185.105z"/>
<path style="opacity:0.15;fill:#C17A00;enable-background:new    ;" d="M153.976,55.712c-51.764,27.117-86.14,74.929-86.14,129.393
	c0,72.647,61.151,110.196,143.163,119.307C93.273,234.091,108.627,139.503,153.976,55.712z"/>
<g>
	<circle style="fill:#78CFC0;" cx="307.36" cy="152.15" r="21.615"/>
	<circle style="fill:#78CFC0;" cx="167.37" cy="152.15" r="21.615"/>
</g>
<path style="fill:#FF91AB;" d="M236.19,156.397c16.943,0,35.815,10.541,38.803,27.988c1.604,9.365-5.569,18.154-15.216,18.154
	c-14.602,0-18.581-10.414-33.374-10.414c-12.525,0-22.508-4.632-22.508-15.363C203.896,169.259,212.75,156.397,236.19,156.397z"/>
<path style="fill:#FFFFFF;" d="M272.356,194.032c-7.128-9.849-27.011-7.919-32.014,3.693c-5.212,12.095,3.137,27.712,7.386,39.035
	c2.049,5.46,7.262,9.075,13.093,9.075l0,0c6.886,0,12.731-5.01,13.817-11.809C276.639,221.49,278.385,202.363,272.356,194.032z"/>
<path style="fill:#FF91AB;" d="M244.552,41.217c1.15-17.149,15.114-31.066,32.266-32.175c5.256-0.34,10.277,0.499,14.833,2.272
	c1.772,0.689,3.726,0.672,5.469-0.088c5.49-2.392,11.548-3.726,17.919-3.726c21.207,0,38.973,14.686,43.709,34.44
	c0.441,1.839,1.599,3.401,3.204,4.4c10.994,6.848,17.99,19.509,16.667,33.69c-1.584,16.981-15.368,30.642-32.361,32.09
	c-10.236,0.873-19.66-2.588-26.655-8.745c-4.093-3.603-9.144-5.868-14.464-7.063c-8.124-1.826-15.415-5.85-21.216-11.417
	c-3.868-3.712-8.616-6.454-13.794-7.84C254.625,72.906,243.408,58.275,244.552,41.217z"/>
<path style="fill:#EDA751;" d="M284.824,367.568c-8.061,0-16.519-0.223-25.37-0.67c-12.983-0.656-22.976-11.713-22.32-24.697
	c0.656-12.984,11.697-22.977,24.697-22.32c34.531,1.746,63.14-0.403,80.568-6.048c12.368-4.007,25.64,2.774,29.645,15.141
	c4.005,12.367-2.773,25.64-15.141,29.645C338.524,364.573,314.348,367.568,284.824,367.568z"/>
<g style="opacity:0.1;">
	<path d="M365.723,49.052c-1.196-0.981-2.453-1.89-3.771-2.711c-1.605-1-2.763-2.562-3.204-4.4
		c-0.444-1.852-1.002-3.659-1.667-5.414c-12.342,4.305-24.245,12.546-28.581,23.568c-1.472,3.742,0.368,7.968,4.109,9.441
		c0.876,0.344,1.777,0.507,2.664,0.507c2.905,0,5.649-1.75,6.777-4.617C344.475,59.261,354.037,52.021,365.723,49.052z"/>
	<path d="M291.499,37.042c-3.848,1.165-6.023,5.229-4.859,9.078c1.538,5.079,4.812,22.201-16.754,30.865
		c0.081,0.022,0.161,0.049,0.242,0.071c5.179,1.386,9.926,4.129,13.794,7.84c0.267,0.256,0.553,0.492,0.826,0.742
		c17.705-11.555,19.988-29.988,15.828-43.736C299.411,38.053,295.349,35.879,291.499,37.042z"/>
</g>
<g style="opacity:0.1;">
	<circle cx="324.04" cy="31.07" r="7.396"/>
	<circle cx="269.48" cy="38.466" r="7.396"/>
	<circle cx="347.43" cy="86.27" r="7.396"/>
</g>
<path d="M464.671,334.621c-2.51-5.376-6.963-9.453-12.539-11.479c-5.578-2.027-11.609-1.76-16.983,0.75
	c-23.236,10.85-33.146,27.006-40.384,38.803c-6.602,10.763-8.794,13.457-15.182,15.208c-8.75,2.398-15.268,2.578-21.364,0.37
	c2.281-4.66,4.223-9.512,5.801-14.534c5.682-2.952,10.302-7.576,13.274-13.394c3.771-7.384,4.44-15.794,1.886-23.68
	c-2.283-7.053-6.905-12.925-13.135-16.787c-1.083-4.624-2.5-9.175-4.222-13.624c9.129-3.569,17.611-7.65,25.363-12.243
	c37.821-22.408,57.813-56.609,57.813-98.905c0-18.518-3.887-36.745-11.224-53.902c20.407-30.431,26.031-67.837,15.375-103.312
	c-3.373-11.233-13.08-19.378-24.728-20.75c-23.726-2.797-47.946,1.406-68.962,11.819C345.756,7.227,331.139,0,315.039,0
	c-7.2,0-14.187,1.442-20.767,4.287c-5.722-2.211-11.758-3.128-17.938-2.729c-15.318,0.99-28.442,10.236-34.962,23.314
	c-22.43,1.082-44.146,5.383-64.363,12.592C150.951,14.012,116.206,2.981,80.913,7.141c-11.647,1.372-21.354,9.517-24.728,20.75
	c-10.64,35.422-5.048,72.768,15.284,103.174c-7.313,17.126-11.133,35.351-11.133,54.041c0,51.665,29.171,90.169,83.143,111.195
	c-1.791,4.62-3.239,9.327-4.333,14.112c-16.264,2.503-37.303,3.193-61.31,1.979c-17.087-0.87-31.7,12.34-32.564,29.431
	c-0.864,17.094,12.339,31.703,29.432,32.566c8.922,0.451,17.585,0.68,25.747,0.68c16.189,0,30.962-0.904,44.033-2.682
	c8.61,20.618,23.791,38.189,43.13,50.457c-1.611,16.411-2.021,38.183-1.077,59.493C187.274,498.97,200.886,512,217.526,512
	c0.468,0,0.939-0.01,1.391-0.03c8.282-0.367,15.927-3.936,21.524-10.053c5.597-6.115,8.478-14.045,8.11-22.328
	c-0.71-16.044-0.5-28.865-0.052-38.156c1.384,0.046,2.771,0.077,4.167,0.077c1.783,0,3.556-0.045,5.322-0.12
	c-0.415,10.348-0.583,24.27,0.156,40.946C258.881,498.97,272.493,512,289.133,512c0.468,0,0.936-0.01,1.391-0.03
	c11.374-0.503,21.543-7.178,26.538-17.419c1.815-3.724,0.27-8.214-3.454-10.029c-3.723-1.814-8.212-0.268-10.028,3.453
	c-2.583,5.298-7.84,8.749-13.736,9.01c-0.238,0.012-0.475,0.016-0.71,0.016c-8.594,0-15.624-6.732-16.005-15.327
	c-0.769-17.397-0.525-31.67-0.059-41.854c11.571-1.921,22.606-5.456,32.807-10.367c-0.646,7.26-1.19,17.431-1.178,30.244
	c0.004,4.14,3.361,7.492,7.5,7.492h0.008c4.142-0.004,7.496-3.365,7.492-7.508c-0.021-21.665,1.641-35.044,2.282-38.369
	c0.09-0.464,0.168-0.933,0.236-1.404c2.719-1.898,5.351-3.903,7.882-6.017c11.558,6.935,23.726,10.32,37.028,10.32
	c7.665,0,15.805-1.165,24.193-3.464c23.983-6.57,33.999-22.9,41.313-34.824c5.901-9.622,10.166-16.575,21.309-21.777
	c5.376-2.51,9.453-6.964,11.48-12.539C467.447,346.027,467.18,339.996,464.671,334.621z M100.451,360.068
	c-7.911,0-16.318-0.223-24.989-0.66c-8.833-0.446-15.655-7.996-15.209-16.828c0.446-8.83,7.989-15.644,16.827-15.208
	c22.83,1.155,43.24,0.634,59.784-1.491c-0.169,2.402-0.263,4.817-0.263,7.246c0,8.512,1.06,16.797,3.056,24.748
	C127.949,359.324,114.82,360.068,100.451,360.068z M364.91,331.287c1.319,4.074,0.974,8.42-0.975,12.235
	c-1.943,3.803-5.245,6.623-9.302,7.949c-0.018,0.006-0.036,0.013-0.054,0.019c-0.001,0-0.003,0.001-0.004,0.002
	c-17.584,5.691-41.051,8.577-69.752,8.577c-7.912,0-16.319-0.223-24.99-0.66c-4.279-0.217-8.217-2.086-11.09-5.264
	c-2.872-3.179-4.335-7.285-4.119-11.563c0.217-4.282,2.084-8.221,5.259-11.092c2.971-2.686,6.756-4.138,10.737-4.138
	c0.276,0,0.554,0.007,0.831,0.021c35.413,1.793,64.98-0.483,83.258-6.403c4.076-1.318,8.422-0.973,12.237,0.975
	C360.761,323.893,363.59,327.211,364.91,331.287z M283.321,312.976c23.537-1.817,45.144-5.773,64.339-11.76
	c0.516,1.311,1.004,2.632,1.456,3.963c-3.028,0.056-6.065,0.561-9.027,1.52C327.122,310.897,307.387,313.048,283.321,312.976z
	 M425.884,115.448c-9.919-17.199-23.497-32.947-40.267-46.343c-0.05-0.283-0.102-0.565-0.157-0.847
	c17.672-14.021,36.97-20.896,52.117-24.255C440.636,61.075,441.372,87.951,425.884,115.448z M422.665,22.037
	c4.726,0.557,8.793,3.393,10.994,7.474c-15.729,3.561-35.394,10.557-53.931,24.249c-3.405-5.446-8.034-10.171-13.727-13.734
	c-0.691-2.844-1.608-5.581-2.721-8.201C381.435,23.11,402.247,19.633,422.665,22.037z M252.036,41.719
	c0.156-2.333,0.617-4.584,1.332-6.721c0.101-0.25,0.192-0.504,0.267-0.766c3.619-9.824,12.784-17.002,23.668-17.705
	c4.016-0.256,7.932,0.338,11.629,1.777c3.65,1.421,7.622,1.348,11.185-0.201C304.84,16.044,309.86,15,315.039,15
	c13.052,0,24.743,6.645,31.476,17.102c0.045,0.086,0.083,0.175,0.132,0.26c0.145,0.254,0.305,0.493,0.474,0.724
	c1.937,3.224,3.418,6.783,4.335,10.607c0.901,3.751,3.222,6.952,6.531,9.014c5.682,3.539,9.781,8.833,11.823,14.918
	c0.03,0.104,0.061,0.207,0.096,0.309c1.161,3.598,1.614,7.461,1.246,11.4c-1.24,13.296-12.216,24.179-25.529,25.314
	c-7.778,0.654-15.254-1.789-21.064-6.903c-4.815-4.239-10.796-7.184-17.775-8.751c-6.625-1.488-12.734-4.777-17.667-9.51
	c-4.834-4.639-10.728-7.983-17.049-9.675C259.592,66.472,251.169,54.657,252.036,41.719z M82.669,22.037
	c13.975-1.648,47.817-2.399,78.603,21.766c-9.968,4.497-19.483,9.743-28.432,15.705c-20.481-17.487-43.2-25.935-61.164-29.998
	C73.876,25.429,77.944,22.594,82.669,22.037z M67.758,44.001c15.416,3.416,34.817,10.404,52.559,24.617
	c-1.777,1.407-3.534,2.837-5.255,4.307c-14.763,12.609-26.74,26.92-35.691,42.387C63.96,87.86,64.703,61.044,67.758,44.001z
	 M229.376,491.79c-2.893,3.16-6.842,5.005-11.141,5.194c-0.237,0.012-0.474,0.016-0.709,0.016c-8.593,0-15.623-6.732-16.004-15.328
	c-0.797-17.998-0.605-36.256,0.479-51.048c9.825,4.47,20.423,7.678,31.55,9.407c-0.489,9.726-0.735,23.262,0.016,40.221
	C233.756,484.532,232.267,488.63,229.376,491.79z M324.88,398.513c-0.35,0.264-0.676,0.564-0.981,0.894
	c-3.908,3.582-8.122,6.86-12.602,9.804c-0.258,0.149-0.506,0.314-0.743,0.491c-16.537,10.663-36.575,16.808-57.887,16.808
	c-55.728,0-101.065-41.891-101.065-93.382c0-4.91,0.406-9.759,1.211-14.53c0.04-0.175,0.068-0.353,0.095-0.531
	c1.005-5.736,2.593-11.356,4.751-16.829c8.477,2.632,17.467,4.89,26.97,6.75c0.486,0.096,0.971,0.141,1.448,0.141
	c3.515,0,6.652-2.481,7.352-6.06c0.796-4.065-1.855-8.005-5.92-8.801c-11.163-2.185-21.552-4.94-31.16-8.241
	c-0.212-0.087-0.426-0.163-0.641-0.228c-20.107-6.986-36.743-16.396-49.643-28.149c-20.39-18.579-30.729-42.649-30.729-71.542
	c0-17.724,3.876-35.018,11.29-51.199c0.145-0.265,0.275-0.537,0.387-0.816c8.381-17.958,21.125-34.528,37.79-48.762
	c3.753-3.205,7.662-6.246,11.702-9.13c0.009-0.006,0.017-0.013,0.026-0.019c12.451-8.886,26.204-16.225,40.894-21.883
	c0.337-0.1,0.667-0.227,0.99-0.375c18.367-6.961,38.171-11.305,58.705-12.767c-0.015,0.187-0.038,0.372-0.051,0.559
	c-1.345,20.07,11.743,38.4,31.121,43.585c3.882,1.039,7.526,3.116,10.54,6.008c6.907,6.627,15.471,11.233,24.765,13.321
	c4.496,1.01,8.248,2.818,11.152,5.375c7.956,7.004,17.939,10.752,28.453,10.752c1.258,0,2.525-0.054,3.796-0.162
	c18.249-1.556,33.182-14.362,37.855-31.518c12.517,11.443,22.678,24.334,30.274,38.471c1.208,2.249,2.342,4.517,3.405,6.801
	c0.049,0.111,0.099,0.222,0.154,0.331c7.577,16.395,11.413,33.657,11.413,51.426c0,37.229-16.977,66.163-50.459,86
	c-8.991,5.327-19.08,9.918-30.137,13.76c-0.069,0.023-0.138,0.045-0.207,0.071c-26.959,9.334-59.69,14.192-96.528,14.192
	c-10.737,0-21.296-0.423-31.382-1.257c-4.128-0.346-7.752,2.728-8.093,6.856s2.729,7.751,6.856,8.093
	c9.754,0.806,19.93,1.227,30.266,1.284c-3.829,1.349-7.39,3.455-10.49,6.258c-6.146,5.558-9.762,13.179-10.18,21.46
	c-0.419,8.28,2.412,16.228,7.972,22.379c5.559,6.15,13.18,9.769,21.46,10.187c8.922,0.451,17.585,0.68,25.748,0.68
	c23.66,0,44.097-1.921,61.012-5.706c-1.221,2.688-2.557,5.312-4.028,7.854c-0.046,0.067-0.097,0.128-0.141,0.197
	c-0.15,0.233-0.283,0.473-0.404,0.715C336.796,385.647,331.271,392.493,324.88,398.513z M451.323,346.48
	c-0.658,1.81-1.982,3.257-3.728,4.071c-15.227,7.109-21.31,17.027-27.75,27.527c-6.668,10.873-14.227,23.196-32.488,28.199
	c-7.098,1.944-13.904,2.931-20.23,2.931c-9.12,0-17.6-2.037-25.709-6.191c3.321-3.673,6.381-7.566,9.169-11.653
	c9.719,4.233,20.177,4.507,32.96,1.004c12.758-3.497,17.721-11.588,24.004-21.831c6.934-11.302,14.791-24.111,33.944-33.056
	c1.745-0.814,3.702-0.901,5.513-0.243c1.811,0.657,3.256,1.981,4.071,3.728C451.894,342.712,451.98,344.67,451.323,346.48z
	 M231.739,200.332c-2.254,11.457,2.664,23.502,6.734,33.456c0.814,1.992,1.584,3.874,2.234,5.607
	c3.129,8.337,11.212,13.939,20.114,13.939c10.619,0,19.545-7.623,21.223-18.126c2.861-17.928,2.595-31.412-0.78-40.224
	c1.402-3.779,1.807-7.872,1.123-11.866c-1.732-10.111-7.91-19.17-17.396-25.506c-8.29-5.538-18.788-8.715-28.801-8.715
	c-28.99,0-39.794,17.091-39.794,27.864c0,14.103,11.498,22.863,30.008,22.863C228.4,199.625,230.11,199.878,231.739,200.332z
	 M267.231,232.843c-0.508,3.182-3.204,5.491-6.41,5.491c-2.686,0-5.126-1.691-6.071-4.21c-0.727-1.936-1.536-3.916-2.393-6.013
	c-3.676-8.988-8.249-20.176-5.128-27.42c1.209-2.805,4.78-4.926,9.1-5.401c0.592-0.065,1.179-0.098,1.755-0.098
	c3.566,0,6.733,1.216,8.196,3.236C268.833,201.955,270.423,212.848,267.231,232.843z M211.396,176.762
	c0-3.435,5.876-12.864,24.794-12.864c11.839,0,25.631,6.58,30.162,17.482c-3.603-1.077-7.577-1.451-11.668-1
	c-6.051,0.667-11.482,3.049-15.533,6.626c-3.557-1.39-7.656-2.381-12.747-2.381C213.346,184.625,211.396,179.698,211.396,176.762z
	 M137.59,189.447c4.104,0.547,7.876-2.346,8.419-6.452s-2.346-7.876-6.452-8.419c-10.703-1.415-32.671,0.229-41.891,2.532
	c-4.019,1.005-6.461,5.077-5.457,9.096c0.853,3.407,3.91,5.683,7.271,5.683c0.603,0,1.215-0.073,1.825-0.226
	C108.882,189.767,128.928,188.301,137.59,189.447z M143.444,199.702c-10.434,2.771-30.12,12.659-37.765,18.303
	c-3.333,2.461-4.04,7.156-1.58,10.488c1.471,1.992,3.74,3.046,6.04,3.046c1.547,0,3.108-0.477,4.448-1.466
	c6.283-4.639,24.258-13.631,32.706-15.873c4.003-1.063,6.387-5.17,5.324-9.174C151.555,201.023,147.45,198.641,143.444,199.702z
	 M307.362,181.267c16.054,0,29.114-13.062,29.114-29.115s-13.061-29.114-29.114-29.114c-16.054,0-29.115,13.061-29.115,29.114
	S291.308,181.267,307.362,181.267z M307.362,138.037c7.782,0,14.114,6.332,14.114,14.114c0,7.783-6.332,14.115-14.114,14.115
	c-7.783,0-14.115-6.332-14.115-14.115C293.247,144.369,299.579,138.037,307.362,138.037z M167.373,123.037
	c-16.054,0-29.115,13.061-29.115,29.114s13.062,29.115,29.115,29.115c16.054,0,29.115-13.062,29.115-29.115
	S183.426,123.037,167.373,123.037z M167.373,166.267c-7.783,0-14.115-6.332-14.115-14.115c0-7.782,6.332-14.114,14.115-14.114
	s14.115,6.332,14.115,14.114C181.488,159.935,175.156,166.267,167.373,166.267z M369.055,218.005
	c-7.646-5.644-27.332-15.532-37.765-18.303c-4.003-1.061-8.111,1.32-9.174,5.324c-1.063,4.004,1.321,8.11,5.324,9.174
	c8.446,2.242,26.423,11.234,32.706,15.873c1.341,0.989,2.9,1.466,4.448,1.466c2.3,0,4.569-1.054,6.04-3.046
	C373.095,225.16,372.388,220.465,369.055,218.005z M328.725,182.995c0.543,4.106,4.311,6.998,8.419,6.452
	c8.664-1.147,28.708,0.319,36.285,2.214c0.611,0.152,1.223,0.226,1.825,0.226c3.36-0.001,6.418-2.275,7.271-5.683
	c1.004-4.019-1.439-8.091-5.457-9.096c-9.22-2.306-31.189-3.947-41.891-2.532C331.071,175.119,328.182,178.889,328.725,182.995z"/>
<g>
</g>
<g>
</g>
<g>
</g>
<g>
</g>
<g>
</g>
<g>
</g>
<g>
</g>
<g>
</g>
<g>
</g>
<g>
</g>
<g>
</g>
<g>
</g>
<g>
</g>
<g>
</g>
<g>
</g>
</svg>
