<?xml version="1.0" encoding="iso-8859-1"?>
<!-- Generator: Adobe Illustrator 19.0.0, SVG Export Plug-In . SVG Version: 6.00 Build 0)  -->
<svg version="1.1" id="Capa_1" xmlns="http://www.w3.org/2000/svg" xmlns:xlink="http://www.w3.org/1999/xlink" x="0px" y="0px"
	 viewBox="0 0 512 512" style="enable-background:new 0 0 512 512;" xml:space="preserve">
<path style="fill:#EDA751;" d="M68.854,425.103c-1.083,0-2.183-0.133-3.28-0.412c-7.124-1.806-11.435-9.046-9.629-16.169
	c3.753-14.8,14.045-27.86,28.237-35.832c11.991-6.737,32.154-12.959,60.117-4.338c22.756,7.007,32.833-5.379,51.689-31.808
	l0.693-0.971c4.27-5.982,12.58-7.369,18.562-3.1c5.981,4.27,7.37,12.58,3.1,18.561l-0.691,0.968
	c-9.506,13.324-18.485,25.907-30.565,34.569c-14.975,10.738-31.535,13.099-50.627,7.214c-18.941-5.835-31.797-2.074-39.246,2.109
	c-7.864,4.417-13.504,11.404-15.473,19.169C80.215,421.089,74.799,425.103,68.854,425.103z"/>
<path style="fill:#FCD79D;" d="M59.821,398.066c-1.652,3.351-2.961,6.85-3.875,10.456c-1.806,7.124,2.504,14.363,9.628,16.169
	c1.098,0.279,2.197,0.412,3.28,0.412c5.945,0,11.361-4.014,12.889-10.04c0.624-2.46,1.618-4.84,2.933-7.087
	C77.947,401.793,68.013,398.791,59.821,398.066z"/>
<g>
	<path style="fill:#EDA751;" d="M293.543,479.543c-0.418,0-0.838-0.013-1.26-0.037c-11.739-0.685-20.7-10.757-20.015-22.495
		c2.02-34.616,1.455-53.688-2.015-68.026c-2.766-11.428,4.255-22.936,15.685-25.702c11.422-2.771,22.936,4.255,25.703,15.685
		c5.242,21.652,5.045,47.85,3.138,80.524C314.118,470.808,304.733,479.543,293.543,479.543z"/>
	<path style="fill:#EDA751;" d="M218.457,479.543c-11.191,0-20.575-8.735-21.235-20.052c-1.908-32.673-2.104-58.872,3.137-80.524
		c2.766-11.428,14.272-18.453,25.703-15.685c11.429,2.766,18.452,14.273,15.685,25.702c-3.47,14.337-4.035,33.409-2.015,68.026
		c0.685,11.738-8.275,21.81-20.014,22.495C219.296,479.531,218.875,479.543,218.457,479.543z"/>
	<path style="fill:#EDA751;" d="M377.957,343.848c-25.064,0-46.881-7.813-53.207-10.31c-10.938-4.318-16.304-16.684-11.988-27.622
		c4.316-10.937,16.681-16.302,27.622-11.988c14.713,5.806,47.381,13.176,65.712-0.497c9.426-7.033,22.766-5.09,29.796,4.334
		c7.032,9.425,5.091,22.766-4.334,29.797C414.944,339.957,395.642,343.848,377.957,343.848z"/>
	<path style="fill:#EDA751;" d="M134.043,343.848c-17.688,0-36.986-3.889-53.602-16.286c-9.425-7.031-11.366-20.371-4.335-29.797
		c7.032-9.425,20.372-11.366,29.797-4.334c8.015,5.979,32.064,13.777,65.712,0.497c10.938-4.318,23.305,1.05,27.622,11.988
		c4.317,10.938-1.05,23.304-11.988,27.622C180.924,336.034,159.104,343.848,134.043,343.848z"/>
</g>
<g>
	<path style="opacity:0.2;fill:#A35F00;enable-background:new    ;" d="M171.616,293.928c-12.086,4.77-22.924,6.811-32.235,7.204
		c-1.289,6.55-1.969,13.298-1.969,20.194c0,7.665,0.834,15.15,2.418,22.381c22.575-1.049,41.587-7.867,47.42-10.169
		c10.938-4.318,16.305-16.684,11.988-27.622C194.92,294.979,182.553,289.611,171.616,293.928z"/>
	<path style="opacity:0.2;fill:#A35F00;enable-background:new    ;" d="M215.245,332.473c-5.982-4.269-14.292-2.882-18.562,3.1
		l-0.693,0.971c-17.444,24.45-27.383,36.868-46.789,33.045c4.903,9.479,11.201,18.205,18.644,25.94
		c6.722-1.598,13.119-4.565,19.245-8.958c12.081-8.662,21.059-21.246,30.565-34.569l0.691-0.968
		C222.615,345.053,221.226,336.742,215.245,332.473z"/>
	<path style="opacity:0.2;fill:#A35F00;enable-background:new    ;" d="M226.062,363.283c-11.431-2.769-22.937,4.256-25.703,15.685
		c-2.747,11.349-3.99,23.963-4.286,38.087c12.852,7.035,27.242,11.84,42.57,13.859c-0.37-19.02,0.625-31.685,3.105-41.929
		C244.513,377.556,237.491,366.049,226.062,363.283z"/>
	<path style="opacity:0.2;fill:#A35F00;enable-background:new    ;" d="M315.907,415.985c-0.336-13.694-1.589-25.954-4.267-37.017
		c-2.766-11.43-14.28-18.455-25.703-15.685c-11.43,2.767-18.451,14.274-15.685,25.702c2.468,10.195,3.465,22.791,3.109,41.661
		C288.726,428.374,303.113,423.297,315.907,415.985z"/>
	<path style="opacity:0.2;fill:#A35F00;enable-background:new    ;" d="M312.762,305.916c-4.316,10.938,1.05,23.304,11.988,27.622
		c5.667,2.237,23.771,8.737,45.502,10.067c1.57-7.198,2.395-14.649,2.395-22.278c0-6.984-0.699-13.816-2.02-20.445
		c-11.843-0.987-23.137-4.149-30.242-6.953C329.443,289.614,317.079,294.98,312.762,305.916z"/>
</g>
<ellipse style="fill:#FCD690;" cx="256" cy="321.33" rx="98.2" ry="91.25"/>
<path style="opacity:0.15;fill:#C17A00;enable-background:new    ;" d="M241.659,411.608
	c-44.876-29.463-30.968-89.849-23.35-116.257v-58.309c-35.529,13.735-60.513,46.297-60.513,84.285
	C157.797,367.197,194.222,405.158,241.659,411.608z"/>
<path style="fill:#EDA751;" d="M196.237,163.095c19.216-16.124,32.046-43.192,4.942-83.206
	c-27.319-40.33-67.992-50.439-99.745-46.698c-7.828,0.922-14.397,6.434-16.665,13.983c-9.198,30.622-6.305,72.432,28.668,106.339
	C148.136,187.154,177.021,179.219,196.237,163.095z"/>
<path style="fill:#FF91AB;" d="M83.49,51.859c-7.541,30.108-3.277,69.443,29.946,101.654c30.076,29.159,55.779,27.075,74.608,15.505
	C175.095,81.105,118.524,57.792,83.49,51.859z"/>
<path style="fill:#EDA751;" d="M315.763,163.095c-19.216-16.124-32.046-43.192-4.942-83.206
	c27.319-40.33,67.992-50.439,99.746-46.698c7.828,0.922,14.397,6.434,16.665,13.983c9.198,30.622,6.305,72.432-28.668,106.339
	C363.864,187.154,334.979,179.219,315.763,163.095z"/>
<path style="fill:#FF91AB;" d="M428.51,51.859c7.541,30.108,3.277,69.443-29.946,101.654
	c-30.076,29.159-55.779,27.075-74.608,15.505C336.905,81.105,393.476,57.792,428.51,51.859z"/>
<path style="fill:#FFDC9C;" d="M423.19,187.432c0,76.444-74.853,109.925-167.19,109.925S88.81,263.875,88.81,187.432
	c0-76.444,74.853-138.414,167.19-138.414S423.19,110.988,423.19,187.432z"/>
<path style="opacity:0.15;fill:#C17A00;enable-background:new    ;" d="M166.729,70.388C119.906,94.917,88.81,138.165,88.81,187.432
	c0,65.713,55.315,99.679,129.499,107.92C111.82,231.742,125.708,146.181,166.729,70.388z"/>
<g>
	<path style="fill:#7694E4;" d="M202.34,157.322C159.46,84.635,41.743,106.415,20.487,205.08
		c-2.389,11.089,1.155,22.627,9.378,30.44l0,0c16.225,15.416,42.646,10.118,51.997-10.216c18.475-40.176,55.23-81.037,99.569-68.278
		L202.34,157.322z"/>
	<path style="fill:#7694E4;" d="M309.66,157.322c42.88-72.687,160.597-50.907,181.852,47.758c2.389,11.089-1.155,22.627-9.378,30.44
		l0,0c-16.225,15.416-42.647,10.118-51.997-10.216c-18.475-40.176-55.23-81.037-99.569-68.278L309.66,157.322z"/>
</g>
<path style="fill:#FF91AB;" d="M256,216.935c6.019,0,13.37,2.039,19.568,4.247c7.193,2.563,14.783-3.102,14.266-10.72
	c-1.497-22.037-16.406-37.275-33.833-37.275c-17.428,0-32.337,15.238-33.833,37.275c-0.517,7.618,7.073,13.283,14.266,10.72
	C242.63,218.974,249.981,216.935,256,216.935z"/>
<g>
	<path style="fill:#7694E4;" d="M54.097,304.22c0,12.867-10.431,23.299-23.299,23.299S7.5,317.087,7.5,304.22
		c0-27.066,20.081-44.249,30.026-42.228C49.411,264.407,54.097,284.307,54.097,304.22z"/>
	<path style="fill:#7694E4;" d="M457.903,296.768c0,12.867,10.431,23.299,23.299,23.299s23.299-10.431,23.299-23.299
		c0-27.066-20.081-44.249-30.026-42.228C462.589,256.955,457.903,276.855,457.903,296.768z"/>
</g>
<path d="M61.597,304.22c0-13.527-2.2-45.437-22.577-49.577c-6.04-1.227-13.095,1.144-19.866,6.676C7.161,271.12,0,287.157,0,304.22
	c0,16.982,13.816,30.799,30.799,30.799C47.781,335.019,61.597,321.202,61.597,304.22z M30.799,320.019
	c-8.711,0-15.799-7.087-15.799-15.799c0-14.755,6.991-25.788,13.533-31.193c3.465-2.863,6.249-3.702,7.274-3.702
	c0.089,0,0.164,0.006,0.226,0.017c5.122,1.041,10.565,13.618,10.565,34.878C46.597,312.932,39.51,320.019,30.799,320.019z
	 M492.847,253.867c-4.646-3.797-9.424-6.105-13.918-6.783c2.989-1.647,5.805-3.689,8.372-6.128
	c10.042-9.542,14.465-23.895,11.544-37.456c-5.616-26.068-18.15-48.828-36.248-65.817c-9.179-8.617-19.527-15.565-30.667-20.684
	c8.756-22.775,9.675-48.042,2.484-71.982c-3.134-10.435-12.15-18.001-22.97-19.274c-32.006-3.775-63.508,6.176-87.199,27.35
	C302.773,45.499,279.524,41.518,256,41.518s-46.773,3.981-68.245,11.574c-23.692-21.175-55.198-31.126-87.199-27.351
	c-10.82,1.275-19.837,8.842-22.97,19.275c-7.191,23.94-6.272,49.207,2.484,71.982c-11.14,5.119-21.488,12.066-30.667,20.684
	c-18.097,16.989-30.631,39.749-36.247,65.817c-2.921,13.562,1.502,27.914,11.544,37.457c7.546,7.17,17.197,10.998,27.29,10.998
	c2.545,0,5.121-0.244,7.696-0.739c12.908-2.482,23.475-10.784,28.991-22.778c0.105-0.229,0.214-0.458,0.321-0.688
	c11.131,26.729,34.192,47.404,67.344,60.587c-0.371,0.975-0.72,1.955-1.057,2.939c-29.546,7.225-44.74-3.738-44.896-3.855
	c-6.165-4.599-13.753-6.521-21.36-5.415c-7.61,1.107-14.334,5.112-18.933,11.276c-9.492,12.725-6.863,30.801,5.861,40.293
	c15.809,11.794,35.353,17.773,58.087,17.773c6.697,0,13.645-0.531,20.73-1.576c1.394,4.321,3.094,8.518,5.081,12.569
	c-3.842,0.868-8.069,0.468-13.346-1.156c-30.507-9.406-52.729-2.49-65.999,4.967c-15.976,8.974-27.58,23.745-31.834,40.527
	c-2.819,11.12,3.934,22.462,15.056,25.283c1.678,0.425,3.402,0.641,5.123,0.641c9.525,0,17.815-6.454,20.159-15.696
	c1.466-5.782,5.794-11.057,11.876-14.473c6.169-3.464,16.965-6.533,33.364-1.481c19.185,5.915,36.776,4.158,52.395-5.162
	c0.983,0.8,1.984,1.58,2.998,2.346c-1.93,19.506-1.116,41.16,0.089,61.792c0.887,15.205,13.503,27.115,28.723,27.115
	c0.566,0,1.138-0.017,1.697-0.05c7.677-0.448,14.721-3.859,19.833-9.605s7.68-13.138,7.232-20.814
	c-0.886-15.187-1.253-27.168-1.123-36.932c3.262,0.285,6.564,0.437,9.904,0.437c3.34,0,6.642-0.152,9.904-0.437
	c0.13,9.762-0.237,21.743-1.123,36.932c-0.447,7.677,2.121,15.069,7.232,20.814c5.112,5.746,12.155,9.157,19.819,9.604
	c0.572,0.034,1.144,0.052,1.711,0.052c11.972,0,22.813-7.543,26.977-18.771c1.44-3.884-0.541-8.2-4.424-9.641
	c-3.887-1.438-8.199,0.541-9.641,4.424c-1.993,5.376-7.183,8.987-12.912,8.987c-0.269,0-0.539-0.008-0.824-0.025
	c-3.677-0.215-7.051-1.849-9.499-4.601c-2.449-2.752-3.68-6.293-3.465-9.97c0.97-16.63,1.333-29.6,1.112-40.137
	c9.635-2.179,18.76-5.592,27.168-10.054c0.471,7.78,0.582,16.454,0.349,26.534c-0.096,4.142,3.184,7.576,7.324,7.672
	c0.06,0.001,0.118,0.002,0.177,0.002c4.062,0,7.4-3.244,7.495-7.326c0.327-14.122,0.002-25.704-1.023-36.006
	c16.331-12.339,28.662-29.121,34.868-48.361c7.085,1.045,14.033,1.576,20.731,1.576c22.735,0,42.278-5.979,58.086-17.773
	c6.165-4.599,10.169-11.322,11.276-18.933c1.107-7.61-0.815-15.196-5.415-21.361c-9.495-12.725-27.57-15.352-40.292-5.86
	c-0.156,0.116-15.357,11.075-44.897,3.854c-0.333-0.972-0.678-1.94-1.044-2.904c4.468-1.764,8.763-3.661,12.86-5.697
	c26.327-13.085,44.861-31.861,54.473-54.92c0.106,0.228,0.214,0.456,0.319,0.684c5.516,11.994,16.083,20.296,28.991,22.778
	c2.576,0.495,5.15,0.739,7.696,0.739c1.259,0,2.512-0.06,3.754-0.178c-11.864,10.319-13.362,33.865-13.362,44.99
	c0,16.982,13.816,30.799,30.799,30.799S512,313.75,512,296.768C512,279.706,504.84,263.668,492.847,253.867z M151.331,335.107
	c-5.922,0.819-11.714,1.241-17.288,1.241c-19.432,0-35.957-4.979-49.118-14.797c-6.095-4.547-7.354-13.205-2.808-19.3
	c2.203-2.953,5.424-4.871,9.069-5.401c3.645-0.534,7.279,0.39,10.232,2.594c5.416,4.04,13.867,7.126,23.185,8.466
	c8.514,1.223,17.469,1.045,26.738-0.513c-0.69,4.582-1.045,9.229-1.045,13.93C150.297,326.003,150.655,330.602,151.331,335.107z
	 M410.582,299.442c2.952-2.203,6.585-3.129,10.23-2.593c3.646,0.53,6.866,2.448,9.069,5.4c2.203,2.953,3.124,6.587,2.594,10.233
	s-2.448,6.865-5.401,9.068c-13.161,9.818-29.686,14.797-49.117,14.797c-5.574,0-11.366-0.422-17.288-1.241
	c0.676-4.505,1.034-9.104,1.034-13.781c0-4.706-0.356-9.357-1.047-13.943C385.646,311.546,403.41,304.793,410.582,299.442z
	 M417.908,111.666c-4.841-1.48-9.786-2.651-14.82-3.465c-0.138-0.022-0.275-0.038-0.414-0.06
	c-7.376-9.504-16.047-18.262-25.807-26.074c15.487-12.189,32.305-18.333,45.846-21.412
	C425.002,73.767,425.501,92.022,417.908,111.666z M409.69,40.639c3.716,0.438,6.955,2.523,8.916,5.57
	c-16.064,3.749-36.113,11.357-54.28,26.731c-7.004-4.631-14.431-8.824-22.223-12.514c-0.689-0.326-1.39-0.632-2.084-0.95
	C367.415,38.497,397.276,39.178,409.69,40.639z M102.311,40.638c12.416-1.459,42.275-2.141,69.671,18.837
	c-0.694,0.318-1.395,0.624-2.084,0.95c-7.792,3.691-15.219,7.883-22.223,12.514c-18.168-15.373-38.217-22.981-54.281-26.73
	C95.355,43.162,98.596,41.076,102.311,40.638z M89.287,60.654c13.541,3.08,30.358,9.223,45.846,21.412
	c-9.76,7.813-18.432,16.571-25.808,26.075c-0.138,0.022-0.275,0.037-0.413,0.059c-5.035,0.815-9.98,1.986-14.82,3.466
	C86.499,92.022,86.998,73.767,89.287,60.654z M75.048,222.17c-3.468,7.541-10.1,12.759-18.195,14.315
	c-7.973,1.532-15.926-0.801-21.821-6.402c-6.277-5.965-9.04-14.94-7.212-23.425c4.971-23.075,15.984-43.146,31.85-58.04
	c9.591-9.005,20.639-15.909,32.576-20.468c0.2-0.065,0.397-0.145,0.594-0.228c5.961-2.232,12.137-3.89,18.469-4.914
	c1.029-0.167,2.055-0.312,3.079-0.444c0.072-0.009,0.143-0.019,0.214-0.03c27.818-3.508,53.742,5.842,71.319,25.111
	c-1.749,0.338-3.46,0.823-5.112,1.461c-21.609-5.297-43.522,0.319-63.548,16.353C100.794,178.642,85.803,198.782,75.048,222.17z
	 M138.67,386.617c-21.484-6.619-36.398-2.164-45.127,2.738c-9.647,5.419-16.598,14.116-19.07,23.863
	c-0.654,2.581-2.965,4.384-5.619,4.384c-0.479,0-0.963-0.061-1.437-0.181c-3.104-0.787-4.989-3.953-4.202-7.058
	c3.25-12.816,12.23-24.164,24.641-31.136c10.711-6.018,28.813-11.546,54.236-3.709c9.676,2.979,17.987,3.015,25.632,0.061
	c2.311,3.272,4.825,6.407,7.525,9.392C164.259,390.362,152.435,390.86,138.67,386.617z M228.781,467.418
	c-2.449,2.752-5.823,4.386-9.514,4.602c-7.639,0.455-14.117-5.413-14.558-12.966c-1.311-22.453-1.567-38.482-0.753-51.801
	c8.411,4.464,17.538,7.879,27.177,10.059c-0.221,10.539,0.141,23.51,1.112,40.137C232.459,461.125,231.229,464.666,228.781,467.418z
	 M361.855,269.24c-27.139,13.487-63.742,20.616-105.855,20.616c-6.787,0-13.53-0.188-20.043-0.558
	c-4.129-0.217-7.678,2.927-7.913,7.063c-0.235,4.135,2.927,7.678,7.063,7.913c6.795,0.386,13.825,0.581,20.894,0.581
	c31.851,0,60.87-3.946,85.509-11.528c0.78,2.026,1.472,4.074,2.077,6.142c0.036,0.129,0.07,0.258,0.112,0.385
	c1.996,6.956,3.005,14.137,3.005,21.47c0,46.182-40.689,83.753-90.703,83.753s-90.703-37.571-90.703-83.753
	c0-7.332,1.008-14.512,3.004-21.465c0.045-0.134,0.081-0.271,0.119-0.408c0.604-2.061,1.293-4.102,2.07-6.121
	c8.967,2.776,18.548,5.071,28.714,6.864c0.44,0.078,0.879,0.115,1.311,0.115c3.571,0,6.736-2.561,7.378-6.199
	c0.719-4.079-2.005-7.969-6.084-8.688c-11.88-2.094-22.85-4.896-32.893-8.367c-0.053-0.02-0.107-0.036-0.16-0.055
	c-14.049-4.87-26.263-11.061-36.487-18.544c-17.555-12.848-28.784-29.284-33.445-48.872c16.241-26.057,40.406-48.485,68.304-47.351
	c-0.025,2.122,0.842,4.242,2.568,5.746c3.122,2.72,7.859,2.396,10.582-0.727c2.859-3.281,6.987-5.163,11.324-5.163
	s8.465,1.882,11.324,5.163c1.483,1.701,3.564,2.572,5.657,2.572c1.748,0,3.503-0.607,4.924-1.846
	c3.123-2.722,3.448-7.459,0.727-10.582c-1.899-2.179-4.083-4.041-6.467-5.566c-16.983-27.53-45.473-43.702-77.587-44.944
	c12.648-13.247,28.338-24.477,46.139-32.908c24.12-11.421,51.674-17.46,79.68-17.46c28.007,0,55.56,6.039,79.682,17.464
	c17.801,8.431,33.491,19.66,46.139,32.908c-32.114,1.242-60.605,17.414-77.588,44.945c-2.383,1.525-4.567,3.387-6.466,5.566
	c-2.722,3.122-2.396,7.86,0.728,10.581c3.121,2.72,7.859,2.396,10.581-0.728c2.859-3.28,6.986-5.162,11.324-5.162
	c4.337,0,8.465,1.882,11.324,5.163c1.483,1.701,3.564,2.572,5.657,2.572c1.748,0,3.504-0.607,4.925-1.846
	c1.725-1.503,2.591-3.622,2.567-5.743c27.907-1.131,52.073,21.305,68.314,47.367C407.083,235.283,389.829,255.338,361.855,269.24z
	 M455.147,236.485c-8.096-1.557-14.728-6.774-18.195-14.315c-10.755-23.388-25.746-43.528-42.213-56.711
	c-20.027-16.034-41.941-21.652-63.549-16.353c-1.652-0.638-3.363-1.123-5.112-1.461c17.625-19.324,43.641-28.671,71.551-25.079
	c0.048,0.006,0.094,0.015,0.142,0.021c0.972,0.127,1.945,0.263,2.92,0.421c6.332,1.024,12.508,2.682,18.468,4.914
	c0.197,0.083,0.393,0.163,0.592,0.228c11.937,4.559,22.985,11.463,32.577,20.468c15.866,14.895,26.88,34.965,31.851,58.04
	c1.828,8.484-0.936,17.46-7.212,23.424C471.071,235.685,463.115,238.017,455.147,236.485z M481.201,312.566
	c-8.712,0-15.799-7.087-15.799-15.799c0-21.26,5.443-33.837,10.564-34.878c0.061-0.012,0.138-0.018,0.227-0.018
	c1.024,0,3.808,0.839,7.272,3.701c6.543,5.405,13.534,16.439,13.534,31.194C497,305.48,489.913,312.566,481.201,312.566z
	 M375.545,217.68c-6.962-5.14-24.895-14.147-34.402-16.672c-4.003-1.062-8.11,1.319-9.174,5.324
	c-1.063,4.004,1.321,8.11,5.324,9.174c7.429,1.973,23.83,10.173,29.342,14.242c1.341,0.989,2.901,1.467,4.449,1.467
	c2.299,0,4.569-1.055,6.04-3.046C379.584,224.836,378.877,220.141,375.545,217.68z M170.857,201.008
	c-9.507,2.524-27.44,11.532-34.402,16.672c-3.333,2.461-4.04,7.156-1.579,10.489c1.471,1.991,3.74,3.046,6.04,3.046
	c1.547,0,3.108-0.478,4.449-1.467c5.512-4.07,21.914-12.27,29.342-14.242c4.003-1.063,6.387-5.17,5.324-9.174
	S174.862,199.947,170.857,201.008z M382.541,180.568c-8.398-2.099-28.41-3.595-38.16-2.306c-4.106,0.543-6.995,4.313-6.452,8.419
	s4.314,6.99,8.419,6.452c7.616-1.009,25.906,0.324,32.555,1.987c0.611,0.152,1.223,0.226,1.825,0.226
	c3.36-0.001,6.418-2.275,7.27-5.683C389.002,185.646,386.56,181.573,382.541,180.568z M256,165.688
	c-21.84,0-39.603,19.03-41.316,44.267c-0.413,6.084,2.262,11.928,7.154,15.633c4.923,3.729,11.322,4.723,17.112,2.66
	c6.998-2.494,12.894-3.813,17.05-3.813s10.052,1.318,17.051,3.813c1.99,0.709,4.051,1.057,6.099,1.057
	c3.914,0,7.781-1.271,11.014-3.718c4.892-3.706,7.566-9.55,7.152-15.633C295.602,184.718,277.841,165.688,256,165.688z
	 M281.106,213.629c-0.423,0.32-1.563,1.007-3.021,0.489c-8.719-3.107-16.149-4.684-22.086-4.684c-5.936,0-13.367,1.576-22.085,4.683
	c-1.459,0.521-2.598-0.168-3.021-0.488c-0.506-0.383-1.341-1.238-1.244-2.659c1.191-17.547,12.273-30.282,26.351-30.282
	c14.077,0,25.159,12.735,26.351,30.283C282.447,212.391,281.612,213.246,281.106,213.629z M165.652,193.134
	c4.113,0.541,7.876-2.346,8.418-6.452c0.544-4.107-2.345-7.876-6.452-8.419c-9.749-1.29-29.762,0.207-38.16,2.306
	c-4.019,1.005-6.461,5.077-5.457,9.096c0.852,3.408,3.91,5.683,7.27,5.683c0.603,0,1.214-0.073,1.825-0.226
	C139.747,193.458,158.037,192.125,165.652,193.134z"/>
<g>
</g>
<g>
</g>
<g>
</g>
<g>
</g>
<g>
</g>
<g>
</g>
<g>
</g>
<g>
</g>
<g>
</g>
<g>
</g>
<g>
</g>
<g>
</g>
<g>
</g>
<g>
</g>
<g>
</g>
</svg>
