<?xml version="1.0" encoding="iso-8859-1"?>
<!-- Generator: Adobe Illustrator 19.0.0, SVG Export Plug-In . SVG Version: 6.00 Build 0)  -->
<svg version="1.1" id="Capa_1" xmlns="http://www.w3.org/2000/svg" xmlns:xlink="http://www.w3.org/1999/xlink" x="0px" y="0px"
	 viewBox="0 0 512 512" style="enable-background:new 0 0 512 512;" xml:space="preserve">
<circle style="fill:#82C7E6;" cx="42.733" cy="290.22" r="19.391"/>
<path style="fill:#EDA751;" d="M310.013,466.683c-9.887,0-19.244-2.799-28.258-8.413c-12.603-7.848-22.37-19.808-32.709-32.469
	l-0.752-0.921c-4.644-5.685-3.8-14.058,1.885-18.703s14.058-3.8,18.702,1.885l0.755,0.925c20.51,25.116,31.354,36.816,53.584,28.344
	c45.289-17.252,85.638-18.164,110.701-2.497c6.225,3.89,8.117,12.09,4.227,18.315s-12.091,8.117-18.316,4.226
	c-17.68-11.051-50.259-9.256-87.15,4.797C324.795,465.178,317.262,466.683,310.013,466.683z"/>
<path style="fill:#FCD79D;" d="M433.921,434.834c-3.192-1.995-6.635-3.718-10.301-5.176c-4.21,4.539-10.088,12.887-10.507,24.407
	c2.425,0.935,4.676,2.033,6.72,3.31c6.225,3.891,14.425,1.999,18.316-4.226C442.038,446.924,440.146,438.724,433.921,434.834z"/>
<path style="fill:#EDA751;" d="M105.605,403.198c-22.076,0-49.727-4.911-69.968-25.152c-8.305-8.305-8.305-21.771,0-30.076
	c8.305-8.303,21.77-8.303,30.075,0c7.063,7.064,29.713,18.232,64.881,9.941c11.431-2.691,22.883,4.389,25.577,15.821
	c2.694,11.433-4.389,22.884-15.821,25.578C135.522,400.446,122.122,403.198,105.605,403.198z"/>
<path style="opacity:0.2;fill:#A35F00;enable-background:new    ;" d="M130.592,357.911c-12.055,2.842-22.638,3.397-31.628,2.615
	c-2.753,9.372-4.231,19.236-4.231,29.42c0,4.362,0.279,8.664,0.804,12.896c3.448,0.246,6.819,0.356,10.067,0.356
	c16.517,0,29.917-2.752,34.743-3.889c11.432-2.694,18.516-14.145,15.821-25.578C153.475,362.3,142.024,355.219,130.592,357.911z"/>
<ellipse style="fill:#FCD690;" cx="212.231" cy="389.95" rx="98.09" ry="91.14"/>
<path style="opacity:0.15;fill:#C17A00;enable-background:new    ;" d="M197.912,480.121
	c-44.823-29.428-30.932-89.743-23.323-116.12V305.76c-35.488,13.718-60.441,46.242-60.441,84.185
	C114.148,435.762,150.53,473.678,197.912,480.121z"/>
<path style="fill:#EDA751;" d="M152.543,231.901c19.193-16.105,32.008-43.141,4.936-83.108
	c-27.286-40.282-67.912-50.38-99.628-46.643c-7.819,0.921-14.38,6.426-16.645,13.967c-9.187,30.585-6.298,72.347,28.634,106.214
	C104.499,255.931,133.349,248.006,152.543,231.901z"/>
<path style="fill:#FF91AB;" d="M39.929,120.796c-7.532,30.072-3.273,69.361,29.911,101.533
	c30.041,29.125,55.713,27.043,74.521,15.487C131.426,150.008,74.922,126.723,39.929,120.796z"/>
<path style="fill:#EDA751;" d="M271.927,231.901c-19.193-16.105-32.008-43.141-4.936-83.108
	c27.286-40.282,67.911-50.38,99.628-46.643c7.819,0.921,14.38,6.426,16.645,13.967c9.187,30.585,6.298,72.347-28.634,106.214
	C319.972,255.931,291.121,248.006,271.927,231.901z"/>
<path style="fill:#FF91AB;" d="M384.541,120.796c7.532,30.072,3.273,69.361-29.911,101.533
	c-30.041,29.125-55.713,27.043-74.52,15.487C293.044,150.008,349.549,126.723,384.541,120.796z"/>
<path style="fill:#FFDC9C;" d="M379.227,256.209c0,76.353-74.765,109.795-166.992,109.795S45.243,332.562,45.243,256.209
	s74.765-138.25,166.992-138.25C304.462,117.959,379.227,179.855,379.227,256.209z"/>
<path style="opacity:0.15;fill:#C17A00;enable-background:new    ;" d="M123.07,139.304c-46.768,24.5-77.827,67.697-77.827,116.905
	c0,65.636,55.249,99.561,129.346,107.792C68.225,300.467,82.097,215.007,123.07,139.304z"/>
<g>
	<ellipse style="fill:#FF91AB;" cx="104.751" cy="242.07" rx="30.24" ry="24.08"/>
	<ellipse style="fill:#FF91AB;" cx="268.641" cy="242.07" rx="30.24" ry="24.08"/>
	<ellipse style="fill:#FF91AB;" cx="186.701" cy="226.25" rx="16.201" ry="22.01"/>
</g>
<path style="fill:#82C7E6;" d="M352.291,429.135c-2.001-0.292-3.509-1.927-3.722-3.937c-3.145-29.605-28.191-52.67-58.631-52.67
	c-3.727,0-7.37,0.357-10.904,1.022c-1.58,0.298-3.203-0.288-4.207-1.544c-14.649-18.322-37.19-30.059-62.472-30.059
	c-29.064,0-54.493,15.518-68.486,38.713c-0.874,1.449-2.514,2.237-4.198,2.07c-1.918-0.191-3.863-0.291-5.832-0.291
	c-23.406,0-43.622,13.64-53.147,33.402c-0.676,1.403-2.04,2.341-3.59,2.493c-21.79,2.13-38.834,20.444-38.938,42.77
	C38.053,484.973,58.216,504.5,82.086,504.5h263.987c21.022,0,38.57-16.819,38.592-37.841
	C384.685,447.59,370.615,431.805,352.291,429.135z"/>
<g style="opacity:0.1;">
	<path d="M155.55,463.303c-3.098,0-5.997-1.935-7.079-5.023c-1.934-5.524-7.169-9.236-13.027-9.236
		c-5.559,0-10.55,3.309-12.715,8.43c-1.614,3.815-6.013,5.599-9.829,3.985c-3.815-1.613-5.6-6.014-3.986-9.829
		c4.519-10.683,14.933-17.586,26.531-17.586c12.223,0,23.147,7.748,27.184,19.279c1.369,3.91-0.691,8.188-4.601,9.558
		C157.209,463.167,156.372,463.303,155.55,463.303z"/>
	<path d="M212.888,411.147c-3.08,0-5.967-1.912-7.063-4.98c-1.495-4.184-4.788-7.314-9.035-8.589
		c-5.323-1.599-11.055,0.138-14.601,4.419c-2.641,3.19-7.37,3.636-10.56,0.993c-3.19-2.642-3.635-7.369-0.993-10.56
		c7.397-8.934,19.355-12.553,30.465-9.22c8.734,2.622,15.78,9.317,18.85,17.911c1.393,3.9-0.639,8.192-4.54,9.585
		C214.578,411.005,213.726,411.147,212.888,411.147z"/>
	<path d="M258.906,465.955c-3.232,0-6.216-2.105-7.185-5.361c-3.563-11.965-0.296-24.877,8.525-33.698
		c13.229-13.226,34.754-13.227,47.982,0c2.929,2.929,2.929,7.678,0,10.607c-2.929,2.93-7.678,2.929-10.607,0.001
		c-7.38-7.382-19.39-7.382-26.769,0c-4.922,4.922-6.744,12.13-4.755,18.81c1.182,3.971-1.078,8.147-5.048,9.329
		C260.336,465.853,259.615,465.955,258.906,465.955z"/>
</g>
<path style="fill:#495059;" d="M398.087,71.323l-22.556-22.556l36.595-36.595c2.991-2.992,7.048-4.672,11.278-4.672h59.922
	c2.946,0,5.333,2.388,5.333,5.333v21.232c0,2.946-2.388,5.333-5.333,5.333h-53.315L398.087,71.323z"/>
<path style="fill:#DEE2E5;" d="M404.821,120.407l-78.374-78.374l6.466-3.657c21.686-12.264,48.89-8.559,66.506,9.058l0,0
	c17.617,17.617,21.322,44.82,9.058,66.506L404.821,120.407z"/>
<path style="fill:#495059;" d="M389.785,139.301L307.553,57.07c-4.685-4.685-4.685-12.28,0-16.965l0,0
	c4.685-4.685,12.28-4.685,16.965,0l82.231,82.232c4.685,4.685,4.685,12.28,0,16.965l0,0
	C402.065,143.985,394.469,143.985,389.785,139.301z"/>
<path style="fill:#EDA751;" d="M304.382,394.719c-1.579,0-3.182-0.178-4.786-0.546c-35.162-8.087-60.757-36.245-67.764-44.683
	c-7.503-9.035-6.262-22.443,2.774-29.946c9.033-7.504,22.442-6.264,29.947,2.774c9.543,11.492,26.944,26.35,44.577,30.405
	c11.446,2.632,18.591,14.045,15.958,25.491C322.824,388.056,314.068,394.719,304.382,394.719z"/>
<g>
	<circle style="fill:#82C7E6;" cx="380.161" cy="355.29" r="19.391"/>
	<circle style="fill:#82C7E6;" cx="414.281" cy="283.7" r="13.663"/>
</g>
<path d="M266.001,108.929c1.913,0,3.827-0.728,5.29-2.184c2.987-2.972,14.914-11.639,19.986-15.02
	c3.446-2.297,4.378-6.953,2.081-10.4c-2.297-3.446-6.953-4.378-10.401-2.08c-3.264,2.175-17.656,12.301-22.245,16.867
	c-2.937,2.921-2.949,7.67-0.027,10.607C262.149,108.191,264.075,108.929,266.001,108.929z M380.16,328.403
	c-14.828,0-26.891,12.064-26.891,26.891s12.063,26.891,26.891,26.891s26.891-12.064,26.891-26.891S394.988,328.403,380.16,328.403z
	 M380.16,367.185c-6.557,0-11.891-5.334-11.891-11.891c0-6.557,5.334-11.891,11.891-11.891c6.557,0,11.891,5.334,11.891,11.891
	C392.051,361.851,386.717,367.185,380.16,367.185z M114.875,207.369v10.678c0,4.143,3.358,7.5,7.5,7.5s7.5-3.357,7.5-7.5v-10.678
	c0-4.143-3.358-7.5-7.5-7.5C118.233,199.869,114.875,203.227,114.875,207.369z M243.521,207.369v10.678c0,4.143,3.358,7.5,7.5,7.5
	s7.5-3.357,7.5-7.5v-10.678c0-4.143-3.358-7.5-7.5-7.5C246.879,199.869,243.521,203.227,243.521,207.369z M162.997,226.246
	c0,16.546,10.411,29.507,23.701,29.507c13.29,0,23.702-12.961,23.702-29.507s-10.411-29.507-23.702-29.507
	S162.997,209.7,162.997,226.246z M195.399,226.246c0,8.549-4.586,14.507-8.702,14.507s-8.701-5.958-8.701-14.507
	c0-8.549,4.585-14.507,8.701-14.507C190.814,211.739,195.399,217.697,195.399,226.246z M71.75,282.586
	c1.547,0,3.108-0.477,4.448-1.466c5.507-4.064,21.888-12.255,29.305-14.224c4.003-1.064,6.387-5.17,5.325-9.174
	c-1.063-4.003-5.169-6.384-9.173-5.324c-9.495,2.52-27.409,11.519-34.365,16.653c-3.333,2.46-4.04,7.155-1.58,10.488
	C67.18,281.532,69.45,282.586,71.75,282.586z M483.326,0h-59.921c-6.265,0-12.154,2.44-16.582,6.868l-21.915,21.915
	c-17.652-7.495-38.306-6.765-55.688,3.065l-1.736,0.982c-3.31-2.415-7.273-3.739-11.449-3.739c-5.208,0-10.104,2.028-13.786,5.71
	c-7.602,7.602-7.602,19.971,0,27.572l33.158,33.158c-20.426,3.476-39.426,12.571-54.967,26.439
	c-21.293-7.543-44.389-11.512-68.205-11.512c-23.82,0-46.917,3.97-68.212,11.514C120.364,100.854,88.919,90.936,56.974,94.7
	c-10.81,1.272-19.818,8.832-22.951,19.258c-9.635,32.076-4.63,65.887,13.67,93.476c-6.538,15.446-9.95,31.883-9.95,48.774
	c0,2.554,0.086,5.069,0.24,7.552c-12.569,2.251-22.141,13.256-22.141,26.463c0,14.827,12.064,26.891,26.891,26.891
	c4.285,0,8.476-1.043,12.233-2.97c4.86,6.999,10.734,13.475,17.63,19.4c8.924,7.668,19.384,14.265,31.3,19.774
	c-22.567-0.658-32.761-10.531-32.881-10.651c-11.216-11.215-29.464-11.213-40.681,0c-5.433,5.434-8.426,12.657-8.426,20.341
	c0,7.685,2.993,14.908,8.425,20.341c12.119,12.12,27.639,20.273,46.236,24.344c-0.653,1.103-1.284,2.223-1.874,3.37
	c-6.054,0.793-11.849,2.655-17.248,5.547c-3.651,1.955-5.026,6.5-3.071,10.151c1.352,2.525,3.941,3.962,6.618,3.962
	c1.195-0.001,2.407-0.287,3.534-0.891c4.144-2.219,8.619-3.575,13.303-4.032c4.135-0.404,7.82-2.972,9.618-6.702
	c8.537-17.713,26.746-29.158,46.391-29.158c1.686,0,3.398,0.086,5.092,0.254c4.557,0.45,9.014-1.77,11.36-5.659
	c3.756-6.227,8.313-11.74,13.495-16.447c0.477-0.33,0.912-0.718,1.302-1.15c12.926-11.184,29.516-17.489,47.266-17.489
	c3.659,0,7.318,0.275,10.92,0.819c0.803,1.392,1.726,2.737,2.787,4.014c7.385,8.895,34.394,38.586,71.857,47.202
	c2.128,0.488,4.303,0.736,6.463,0.736c7.948,0,15.201-3.213,20.446-8.533c9.122,8.415,14.959,19.848,16.283,32.306
	c0.41,3.853,2.62,7.15,5.78,9.028c0.118,0.074,0.24,0.141,0.361,0.208c0.092,0.051,0.184,0.103,0.278,0.151
	c0.07,0.035,0.14,0.067,0.211,0.099c1.075,0.525,2.238,0.9,3.469,1.08c14.812,2.157,25.97,15.095,25.955,30.094
	C377.147,483.386,363.199,497,346.072,497H82.086c-9.63,0-19.107-3.973-26.001-10.899c-6.763-6.794-10.463-15.659-10.42-24.961
	c0.016-3.505,0.538-6.962,1.551-10.277c1.211-3.961-1.019-8.153-4.98-9.364c-3.964-1.209-8.154,1.02-9.364,4.982
	c-1.441,4.714-2.183,9.623-2.206,14.59c-0.062,13.322,5.19,25.971,14.789,35.613C55.142,506.417,68.494,512,82.086,512h263.987
	c25.389,0,46.065-20.336,46.092-45.333c0.003-3.048-0.313-6.036-0.9-8.938c10.208,0.233,18.607,2.264,24.593,6.006
	c3.347,2.092,7.129,3.168,10.98,3.168c1.568,0,3.148-0.179,4.714-0.54c5.412-1.249,10.013-4.53,12.956-9.239
	c2.943-4.71,3.877-10.283,2.628-15.695c-1.249-5.411-4.53-10.012-9.239-12.954c-20.065-12.543-49.187-15.507-82.516-8.515
	c-2.727-15.548-10.91-29.588-23.093-39.666c0.033-0.135,0.079-0.264,0.11-0.4c2.438-10.602-1.352-21.208-8.961-27.973
	c5.529-2.689,10.736-5.609,15.563-8.753c3.471-2.261,4.453-6.907,2.192-10.378c-2.261-3.472-6.907-4.451-10.377-2.192
	c-7.599,4.95-16.294,9.313-25.854,13.005c-13.062-4.983-26.385-16.141-34.637-26.077c-4.909-5.912-11.827-9.559-19.479-10.267
	c-7.653-0.711-15.12,1.606-21.03,6.515c-6.519,5.414-10.033,13.121-10.35,20.987c-2.364-0.191-4.736-0.313-7.11-0.313
	c-20.536,0-39.784,6.993-55.084,19.457c-11.432-2.052-22.02-4.735-31.709-8.057c-0.263-0.11-0.528-0.205-0.796-0.284
	c-16.916-5.89-31.114-13.704-42.395-23.397c-16.107-13.84-25.704-31.239-28.648-51.853c-0.004-0.037-0.01-0.073-0.015-0.11
	c-0.639-4.513-0.965-9.177-0.965-13.995c0-72.096,71.548-130.75,159.492-130.75c51.001,0,96.485,19.729,125.701,50.363
	c-3.688,6.633-6.693,13.166-7.897,16.744c-1.321,3.926,0.791,8.18,4.717,9.5c0.793,0.267,1.6,0.394,2.392,0.394
	c3.132,0,6.054-1.978,7.108-5.11c0.835-2.483,2.321-5.763,4.092-9.224c14.824,19.843,23.379,43.159,23.379,68.084
	c0,20.795-5.999,38.884-17.83,53.762c-2.578,3.242-2.04,7.96,1.203,10.538c3.242,2.579,7.96,2.04,10.539-1.202
	c13.993-17.599,21.088-38.827,21.088-63.098c0-16.89-3.412-33.326-9.948-48.77c13.595-20.433,17.885-40.862,18.39-57.399
	c1.026,0.164,2.06,0.266,3.097,0.266c4.992,0,9.985-1.901,13.786-5.701c3.683-3.683,5.71-8.578,5.71-13.786
	c0-4.176-1.324-8.14-3.739-11.45l0.982-1.737c9.83-17.382,10.56-38.035,3.065-55.686l15.046-15.046h50.209
	c7.077,0,12.833-5.757,12.833-12.833V12.834C496.16,5.757,490.403,0,483.326,0z M42.733,302.114
	c-6.557,0-11.891-5.334-11.891-11.891c0-5.586,3.878-10.273,9.079-11.542c1.607,7.924,4.106,15.418,7.482,22.472
	C45.949,301.781,44.372,302.114,42.733,302.114z M429.947,441.194c1.311,0.819,2.226,2.101,2.573,3.607
	c0.348,1.508,0.088,3.06-0.732,4.372s-2.101,2.226-3.608,2.573c-1.507,0.348-3.06,0.088-4.372-0.732
	c-9.544-5.966-22.781-8.776-38.48-8.23c-2.546-4.098-5.729-7.773-9.414-10.883C397.876,429.705,416.593,432.848,429.947,441.194z
	 M239.399,325.313c2.494-2.072,5.567-3.178,8.77-3.178c0.429,0,0.861,0.021,1.293,0.061c3.662,0.339,6.972,2.083,9.321,4.912
	c9.46,11.392,26.215,25.875,43.973,31.616c0.047,0.015,0.092,0.03,0.139,0.044c1.512,0.485,3.03,0.914,4.553,1.264
	c7.397,1.701,12.032,9.103,10.331,16.501c-0.241,1.048-0.604,2.037-1.056,2.968c-0.073,0.141-0.145,0.283-0.208,0.427
	c-2.336,4.421-6.929,7.292-12.134,7.292c-1.034,0-2.08-0.12-3.105-0.355c-32.875-7.562-57.049-34.186-63.675-42.166
	C232.752,338.858,233.558,330.162,239.399,325.313z M126.847,362.033c5.657,1.738,11.561,3.283,17.703,4.638
	c-2.162,2.669-4.191,5.478-6.063,8.432c-5.257-0.371-10.465-0.09-15.532,0.767C123.819,371.157,125.118,366.536,126.847,362.033z
	 M109.211,368.301c-0.97,4.051-1.671,8.164-2.087,12.329c-7.48,3.306-14.326,7.965-20.153,13.733
	c-19.028-2.829-34.503-10.091-46.031-21.621c-2.6-2.6-4.032-6.057-4.032-9.734s1.432-7.134,4.032-9.733
	c5.368-5.367,14.102-5.366,19.468-0.001c4.761,4.762,12.649,9.021,21.64,11.687C90.478,367.459,99.58,368.571,109.211,368.301z
	 M89.371,152.674c-13.942,11.543-25.25,24.704-33.697,38.979c-12.948-23.817-12.505-46.983-9.92-62.054
	c13.513,3.077,30.286,9.209,45.736,21.364C90.781,151.53,90.07,152.095,89.371,152.674z M104.023,141.827
	c-18.139-15.341-38.15-22.937-54.187-26.681c1.957-3.035,5.188-5.112,8.892-5.549c12.391-1.459,42.181-2.137,69.526,18.771
	C119.789,132.258,111.687,136.753,104.023,141.827z M296.203,128.362c18.515-14.204,38.042-18.498,52.755-19.282l10.495,10.495
	c-14.575,5.168-27.632,12.626-38.997,22.257C312.786,136.753,304.676,132.254,296.203,128.362z M368.8,191.659
	c-3.581-6.051-7.675-11.901-12.269-17.513c1.885-2.781,3.55-4.873,4.618-5.631c3.379-2.396,4.177-7.076,1.781-10.456
	c-2.396-3.38-7.077-4.176-10.456-1.78c-1.944,1.378-4.075,3.697-6.23,6.53c-3.506-3.497-7.218-6.882-11.146-10.134
	c-0.699-0.579-1.41-1.144-2.119-1.712c11.099-8.757,23.962-15.287,38.39-19.468l8.638,8.639
	C380.909,153.821,379.245,172.45,368.8,191.659z M401.446,133.997c-1.753,1.754-4.605,1.754-6.358,0l-2.49-2.49
	c-0.003-0.003-0.007-0.007-0.01-0.01l-79.731-79.731c-1.753-1.753-1.753-4.604,0.001-6.358c0.849-0.85,1.978-1.316,3.179-1.316
	s2.33,0.467,3.179,1.317l82.231,82.231c0.849,0.849,1.317,1.978,1.317,3.179C402.763,132.02,402.295,133.148,401.446,133.997z
	 M403.097,108.076l-64.319-64.319c18.315-9.146,40.743-5.615,55.339,8.981C408.712,67.333,412.244,89.762,403.097,108.076z
	 M481.16,31.899h-51.149c-1.989,0-3.897,0.79-5.303,2.196l-14.422,14.422c-1.694-2.229-3.544-4.368-5.563-6.387
	c-2.019-2.019-4.157-3.868-6.386-5.562l19.094-19.094c1.595-1.596,3.717-2.475,5.974-2.475h57.755L481.16,31.899L481.16,31.899z
	 M96.458,244.55c4.112,0.541,7.875-2.348,8.418-6.453c0.542-4.107-2.347-7.876-6.454-8.418c-9.741-1.286-29.732,0.208-38.117,2.304
	c-4.018,1.005-6.461,5.077-5.456,9.096c0.852,3.408,3.91,5.683,7.27,5.683c0.602,0,1.215-0.073,1.825-0.225
	C70.581,244.875,88.846,243.543,96.458,244.55z M267.893,266.897c7.417,1.969,23.798,10.159,29.305,14.224
	c1.34,0.989,2.901,1.466,4.448,1.466c2.299,0,4.569-1.054,6.04-3.046c2.46-3.333,1.752-8.028-1.58-10.488
	c-6.956-5.135-24.87-14.133-34.364-16.653c-4.001-1.059-8.11,1.321-9.173,5.324S263.89,265.833,267.893,266.897z M311.278,246.761
	c3.36,0,6.418-2.275,7.27-5.683c1.005-4.018-1.438-8.091-5.457-9.096c-8.385-2.096-28.375-3.591-38.117-2.304
	c-4.106,0.542-6.996,4.312-6.454,8.418s4.313,6.995,8.417,6.453c7.61-1.006,25.877,0.325,32.514,1.985
	C310.064,246.688,310.675,246.761,311.278,246.761z M435.44,283.703c0-11.669-9.494-21.163-21.163-21.163
	s-21.163,9.494-21.163,21.163s9.494,21.162,21.163,21.162C425.947,304.865,435.44,295.372,435.44,283.703z M408.114,283.703
	c0-3.398,2.765-6.163,6.163-6.163c3.398,0,6.163,2.765,6.163,6.163c0,3.397-2.765,6.162-6.163,6.162
	C410.879,289.865,408.114,287.101,408.114,283.703z M264.667,172.053c1.233,0.767,2.603,1.133,3.955,1.133
	c2.505,0,4.954-1.255,6.375-3.538c2.864-4.604,7.673-11.075,11.323-14.538c3.004-2.852,3.129-7.599,0.278-10.603
	c-2.851-3.005-7.598-3.131-10.603-0.278c-5.489,5.208-11.215,13.447-13.733,17.493C260.073,165.239,261.15,169.864,264.667,172.053z
	"/>
<g>
</g>
<g>
</g>
<g>
</g>
<g>
</g>
<g>
</g>
<g>
</g>
<g>
</g>
<g>
</g>
<g>
</g>
<g>
</g>
<g>
</g>
<g>
</g>
<g>
</g>
<g>
</g>
<g>
</g>
</svg>
