<?xml version="1.0" encoding="iso-8859-1"?>
<!-- Generator: Adobe Illustrator 19.0.0, SVG Export Plug-In . SVG Version: 6.00 Build 0)  -->
<svg version="1.1" id="Capa_1" xmlns="http://www.w3.org/2000/svg" xmlns:xlink="http://www.w3.org/1999/xlink" x="0px" y="0px"
	 viewBox="0 0 512 512" style="enable-background:new 0 0 512 512;" xml:space="preserve">
<path style="fill:#495059;" d="M241.924,494.103H76.477c-3.763,0-6.814-3.051-6.814-6.814V365.487
	c0-7.255,5.881-13.136,13.136-13.136h145.989c7.255,0,13.136,5.881,13.136,13.136V494.103z"/>
<path style="fill:#7694E4;" d="M241.924,405.274H69.662v82.014c0,3.763,3.051,6.814,6.814,6.814h165.447L241.924,405.274
	L241.924,405.274z"/>
<g style="opacity:0.1;">
	<path d="M155.793,481.578c-4.142,0-7.5-3.357-7.5-7.5v-48.78c0-4.143,3.358-7.5,7.5-7.5s7.5,3.357,7.5,7.5v48.78
		C163.293,478.221,159.935,481.578,155.793,481.578z"/>
	<path d="M120.307,481.578c-4.142,0-7.5-3.357-7.5-7.5v-48.78c0-4.143,3.358-7.5,7.5-7.5s7.5,3.357,7.5,7.5v48.78
		C127.807,478.221,124.449,481.578,120.307,481.578z"/>
	<path d="M191.28,481.578c-4.142,0-7.5-3.357-7.5-7.5v-48.78c0-4.143,3.358-7.5,7.5-7.5s7.5,3.357,7.5,7.5v48.78
		C198.78,478.221,195.422,481.578,191.28,481.578z"/>
</g>
<path style="fill:#EDA751;" d="M62.354,465.958c-2.982,0-5.98-1.015-8.434-3.093c-5.505-4.663-6.189-12.904-1.528-18.409
	c16.244-19.187,45.612-23.447,87.284-12.665c18.045,4.67,27.776-7.874,44.083-39.679c5.342-10.421,10.388-20.263,16.573-27.834
	c4.564-5.586,12.793-6.415,18.38-1.852c5.587,4.565,6.416,12.793,1.852,18.38c-4.433,5.427-8.865,14.072-13.558,23.225
	c-6.757,13.18-14.416,28.119-25.032,38.947c-13.878,14.154-30.313,18.899-48.842,14.105c-30.258-7.829-51.852-6.316-60.804,4.254
	C69.746,464.388,66.062,465.958,62.354,465.958z"/>
<path style="fill:#FCD79D;" d="M52.392,444.456c-4.661,5.505-3.978,13.746,1.528,18.409c2.454,2.078,5.452,3.093,8.434,3.093
	c3.708,0,7.392-1.571,9.975-4.622c1.17-1.382,2.562-2.604,4.155-3.676c-2.668-11.786-12.113-18.215-17.524-19.585
	C56.575,439.979,54.384,442.104,52.392,444.456z"/>
<g>
	<path style="fill:#EDA751;" d="M250.083,504.5c-10.691,0-19.806-8.16-20.79-19.013c-2.337-25.78-11.09-55.06-20.361-68.11
		c-6.685-9.41-4.476-22.456,4.933-29.141c9.409-6.683,22.456-4.476,29.141,4.934c15.746,22.165,25.366,60.442,27.914,88.543
		c1.042,11.495-7.431,21.658-18.926,22.7C251.353,504.471,250.715,504.5,250.083,504.5z"/>
	<path style="fill:#EDA751;" d="M127.771,407.389c-7.853,0-15.377-4.447-18.934-12.027c-9.315-19.852-8.072-40.539,3.409-56.754
		c13.975-19.738,40.95-30.167,70.404-27.201c11.484,1.153,19.859,11.399,18.705,22.883c-1.154,11.485-11.402,19.862-22.884,18.705
		c-16.166-1.623-27.976,3.926-32.112,9.767c-1.093,1.544-3.998,5.647,0.318,14.847c4.903,10.449,0.407,22.894-10.042,27.797
		C133.765,406.751,130.744,407.389,127.771,407.389z"/>
</g>
<path style="opacity:0.2;fill:#A35F00;enable-background:new    ;" d="M182.65,311.406c-12.541-1.263-24.627-0.089-35.457,3.189
	c-3.285,10.088-5.059,20.792-5.059,31.88c0,7.379,0.796,14.585,2.288,21.556c0.201-2.801,1.338-4.424,1.937-5.271
	c4.136-5.841,15.947-11.389,32.112-9.767c11.482,1.157,21.73-7.22,22.884-18.705C202.509,322.805,194.134,312.56,182.65,311.406z"/>
<g>
	<path style="fill:#EDA751;" d="M313.009,498.714c-5.033,0-10.08-1.806-14.089-5.468c-8.522-7.784-9.121-21.003-1.337-29.526
		c4.208-4.607,5.974-9.604,5.556-15.723c-0.784-11.489-9.114-23.271-12.224-25.913c-9.218-6.807-11.242-19.788-4.501-29.082
		c6.777-9.342,19.845-11.424,29.188-4.646c10.532,7.638,26.505,29.594,29.042,54.49c1.879,18.438-3.723,35.404-16.199,49.064
		C324.323,496.423,318.675,498.714,313.009,498.714z M290.996,422.143c0.022,0.016,0.045,0.033,0.066,0.048
		C291.04,422.175,291.018,422.159,290.996,422.143z"/>
	<path style="fill:#EDA751;" d="M372.961,378.854c-27.825,0-50.372-22.208-56.964-29.435c-7.778-8.529-7.169-21.747,1.359-29.525
		c8.528-7.777,21.747-7.169,29.525,1.358c9.062,9.935,20.526,16.546,27.26,15.733c5.513-0.671,10.257-7.421,13.266-12.966
		c5.505-10.144,18.193-13.906,28.337-8.399c10.144,5.505,13.905,18.193,8.399,28.337c-13.952,25.708-32.147,32.962-44.954,34.52
		C377.089,378.733,375.009,378.854,372.961,378.854z"/>
</g>
<g>
	<path style="opacity:0.2;fill:#A35F00;enable-background:new    ;" d="M218.712,362.426c-5.586-4.563-13.815-3.734-18.38,1.852
		c-6.185,7.571-11.231,17.413-16.573,27.834c-5.575,10.872-10.38,19.491-15.013,25.943c5.921,6.384,12.617,12.114,19.951,17.06
		c7.281-9.598,13.069-20.866,18.309-31.085c4.693-9.152,9.125-17.798,13.558-23.225
		C225.128,375.219,224.299,366.991,218.712,362.426z"/>
	<path style="opacity:0.2;fill:#A35F00;enable-background:new    ;" d="M266.864,454.977c-4.676-22.466-12.736-46.154-23.856-61.807
		c-6.685-9.41-19.733-11.617-29.141-4.934c-9.41,6.685-11.618,19.732-4.933,29.141c5.169,7.276,10.176,19.601,14.001,33.549
		c10.483,2.945,21.58,4.534,33.066,4.534C259.664,455.461,263.286,455.292,266.864,454.977z"/>
	<path style="opacity:0.2;fill:#A35F00;enable-background:new    ;" d="M315.603,388.356c-9.343-6.778-22.411-4.696-29.188,4.646
		c-6.741,9.294-4.717,22.275,4.501,29.082c2.938,2.496,10.529,13.154,12.019,24.014c13.783-5.773,26.155-14.006,36.482-24.105
		C333.202,406.309,323.046,393.754,315.603,388.356z"/>
	<path style="opacity:0.2;fill:#A35F00;enable-background:new    ;" d="M371.807,346.475c0-3.213-0.157-6.391-0.448-9.534
		c-6.827-0.879-16.568-7.016-24.479-15.69c-7.778-8.527-20.996-9.135-29.525-1.358c-8.528,7.778-9.137,20.996-1.359,29.525
		c6.091,6.677,25.805,26.129,50.714,29.052C370.022,368.349,371.807,357.605,371.807,346.475z"/>
</g>
<ellipse style="fill:#FCD690;" cx="256" cy="346.48" rx="96.39" ry="89.57"/>
<path style="opacity:0.15;fill:#C17A00;enable-background:new    ;" d="M241.924,435.093c-44.049-28.92-30.397-88.193-22.92-114.114
	v-57.235c-34.875,13.482-59.397,45.443-59.397,82.732C159.607,391.501,195.36,428.762,241.924,435.093z"/>
<path style="fill:#EDA751;" d="M197.339,191.16c18.862-15.827,31.456-42.396,4.851-81.673
	c-26.815-39.587-66.739-49.51-97.907-45.838c-7.684,0.905-14.132,6.315-16.358,13.726c-9.029,30.057-6.189,71.098,28.14,104.379
	C150.124,214.775,178.477,206.987,197.339,191.16z"/>
<path style="fill:#FF91AB;" d="M86.67,81.974c-7.402,29.553-3.217,68.164,29.394,99.78c29.522,28.622,54.751,26.576,73.234,15.219
	C176.586,110.681,121.058,87.798,86.67,81.974z"/>
<path style="fill:#EDA751;" d="M314.661,191.16c-18.862-15.827-31.456-42.396-4.851-81.673
	c26.815-39.587,66.739-49.51,97.907-45.838c7.684,0.905,14.132,6.315,16.358,13.726c9.029,30.057,6.189,71.098-28.14,104.379
	C361.876,214.775,333.523,206.987,314.661,191.16z"/>
<path style="fill:#FF91AB;" d="M425.33,81.974c7.402,29.553,3.217,68.164-29.394,99.78c-29.522,28.622-54.751,26.576-73.234,15.219
	C335.414,110.681,390.942,87.798,425.33,81.974z"/>
<path style="fill:#FFDC9C;" d="M420.108,215.048c0,75.035-73.474,107.899-164.108,107.899S91.892,290.083,91.892,215.048
	S165.365,79.185,256,79.185S420.108,140.013,420.108,215.048z"/>
<path style="opacity:0.15;fill:#C17A00;enable-background:new    ;" d="M168.374,100.162
	c-45.96,24.077-76.483,66.528-76.483,114.886c0,64.503,54.295,97.842,127.112,105.931
	C114.477,258.542,128.109,174.558,168.374,100.162z"/>
<g>
	<ellipse style="fill:#FF91AB;" cx="175.47" cy="218.21" rx="29.714" ry="23.663"/>
	<ellipse style="fill:#FF91AB;" cx="336.53" cy="218.21" rx="29.714" ry="23.663"/>
</g>
<path style="fill:#495059;" d="M106.211,110.714c-2.521,0-5.078-0.59-7.469-1.835c-7.934-4.133-11.015-13.914-6.882-21.848
	c13.952-26.783,37.058-47.39,68.677-61.249C187.824,13.822,220.835,7.5,256,7.5s68.175,6.322,95.463,18.282
	c31.619,13.859,54.726,34.466,68.677,61.249c4.133,7.934,1.052,17.715-6.882,21.848c-7.933,4.132-17.715,1.051-21.847-6.882
	c-10.454-20.067-28.269-35.728-52.952-46.546C315.239,45.273,286.725,39.894,256,39.894s-59.239,5.38-82.459,15.557
	c-24.683,10.818-42.499,26.479-52.952,46.546C117.702,107.539,112.057,110.714,106.211,110.714z"/>
<g>
	<path style="fill:#7694E4;" d="M87.809,181.975L87.809,181.975c-30.558-11.122-46.314-44.91-35.191-75.468l2.008-5.516
		c11.122-30.558,44.91-46.314,75.468-35.191l0,0c9.379,3.414,14.214,13.784,10.801,23.163l-29.923,82.213
		C107.558,180.553,97.188,185.389,87.809,181.975z"/>
	<path style="fill:#7694E4;" d="M424.191,181.975L424.191,181.975c30.558-11.122,46.314-44.91,35.191-75.468l-2.008-5.516
		c-11.122-30.558-44.91-46.314-75.468-35.191l0,0c-9.379,3.414-14.214,13.784-10.801,23.163l29.923,82.213
		C404.442,180.553,414.812,185.389,424.191,181.975z"/>
</g>
<path d="M380.242,208.177c-8.254-2.064-27.927-3.534-37.508-2.266c-4.106,0.543-6.995,4.313-6.452,8.419
	c0.543,4.105,4.312,6.998,8.419,6.452c7.464-0.988,25.387,0.318,31.903,1.947c0.61,0.152,1.222,0.226,1.825,0.226
	c3.36,0,6.418-2.275,7.27-5.683C386.704,213.254,384.26,209.182,380.242,208.177z M466.43,103.941l-2.008-5.517
	c-6.064-16.661-18.254-29.964-34.324-37.457c-7.555-3.523-15.543-5.544-23.618-6.087c-13.731-14.756-31.206-26.851-52.007-35.969
	C326.243,6.54,292.191,0,256,0s-70.243,6.54-98.474,18.912c-20.801,9.118-38.276,21.213-52.006,35.969
	c-8.075,0.543-16.063,2.564-23.618,6.087c-16.07,7.493-28.26,20.796-34.324,37.457l-2.008,5.517
	c-6.064,16.662-5.277,34.688,2.216,50.757c7.494,16.07,20.796,28.26,37.458,34.324l0,0c0.614,0.223,1.235,0.411,1.857,0.586
	c-1.796,8.379-2.709,16.901-2.709,25.439c0,30.132,10.964,55.231,32.587,74.602c7.704,6.902,16.659,12.946,26.776,18.143
	c-15.741,5.01-28.893,14.142-37.63,26.48c-2.388,3.373-4.385,6.912-5.998,10.577H82.798c-11.379,0-20.636,9.257-20.636,20.636
	v61.462c-5.939,3.274-11.114,7.488-15.494,12.661c-7.327,8.652-6.248,21.652,2.405,28.979c3.659,3.098,8.3,4.815,13.089,4.861
	v13.839c0,7.893,6.421,14.314,14.314,14.314h151.608c5.206,6.39,13.128,10.398,21.999,10.398c0.864,0,1.737-0.04,2.588-0.117
	c15.594-1.414,27.132-15.252,25.719-30.848c-1.119-12.339-3.483-25.751-6.74-38.589c7.176-1.017,14.11-2.727,20.729-5.046
	c1.526,3.155,3.006,7.134,3.277,11.108c0.28,4.099-0.767,7.04-3.611,10.154c-5.116,5.602-7.745,12.859-7.401,20.438
	c0.343,7.578,3.617,14.569,9.217,19.685c5.246,4.791,12.045,7.43,19.147,7.43c7.961,0,15.606-3.37,20.975-9.246
	c1.257-1.377,2.473-2.811,3.614-4.26c2.562-3.255,2-7.971-1.255-10.532c-3.255-2.563-7.971-2-10.532,1.255
	c-0.915,1.163-1.893,2.314-2.902,3.421c-2.57,2.813-6.085,4.362-9.899,4.362c-3.349,0-6.556-1.245-9.031-3.506
	c-2.642-2.413-4.186-5.711-4.349-9.287c-0.162-3.575,1.079-6.999,3.493-9.643c5.606-6.138,8.06-13.102,7.5-21.292
	c-0.405-5.934-2.343-11.523-4.459-16.029c8.138-4.21,15.609-9.411,22.229-15.427c3.755,7.018,7.677,16.635,8.792,27.576
	c0.553,5.421,0.378,10.748-0.52,15.831c-0.72,4.079,2.003,7.97,6.082,8.69c0.441,0.078,0.879,0.115,1.313,0.115
	c3.57,0,6.735-2.56,7.377-6.197c1.138-6.446,1.364-13.161,0.671-19.96c-1.273-12.493-5.83-25.613-12.951-37.48
	c5.332-6.641,9.769-13.941,13.156-21.74c6.941,2.313,13.859,3.488,20.649,3.488c2.387,0,4.788-0.144,7.135-0.431
	c14.559-1.773,35.163-9.87,50.64-38.389c3.618-6.667,4.423-14.344,2.268-21.617c-2.156-7.272-7.015-13.27-13.681-16.889
	c-6.668-3.618-14.343-4.425-21.618-2.268c-7.273,2.156-13.271,7.016-16.889,13.683c-3.944,7.268-6.983,9.025-7.573,9.097
	c-2.196,0.268-9.369-2.406-17.364-9.867c-0.564-1.835-1.184-3.656-1.866-5.462c7.85-3.112,15.155-6.654,21.853-10.622
	c33.851-20.056,51.743-50.673,51.743-88.54c0-8.539-0.913-17.061-2.709-25.439c0.622-0.175,1.243-0.363,1.857-0.586
	c16.662-6.065,29.964-18.254,37.458-34.324C471.707,138.629,472.494,120.604,466.43,103.941z M359.712,340.763
	c5.169,2.678,10.507,4.252,15.334,3.668c6.975-0.849,13.351-6.513,18.953-16.834c1.707-3.146,4.537-5.439,7.969-6.455
	c3.432-1.019,7.054-0.637,10.2,1.07c3.145,1.707,5.438,4.537,6.455,7.968c1.017,3.432,0.637,7.055-1.07,10.2
	c-12.426,22.897-28.213,29.308-39.269,30.652c-6.786,0.826-13.888,0.026-21.132-2.368c1.791-7.129,2.742-14.557,2.742-22.189
	C359.894,344.562,359.829,342.658,359.712,340.763z M163.548,32.65C189.895,21.104,221.864,15,256,15
	c34.135,0,66.104,6.104,92.452,17.65c14.677,6.433,27.481,14.448,38.245,23.905c-2.473,0.593-4.93,1.313-7.356,2.195
	c-3.802,1.384-7.074,3.585-9.699,6.328c-0.996-0.768-2.015-1.52-3.046-2.264c-0.276-0.226-0.561-0.44-0.864-0.624
	c-7.273-5.152-15.379-9.717-24.262-13.61C317.307,37.99,287.752,32.392,256,32.392c-31.751,0-61.307,5.598-85.47,16.188
	c-8.885,3.894-16.992,8.46-24.266,13.612c-0.3,0.183-0.582,0.394-0.855,0.617c-1.033,0.745-2.054,1.499-3.051,2.268
	c-2.624-2.743-5.897-4.944-9.699-6.328c-2.426-0.883-4.883-1.603-7.356-2.195C136.066,47.099,148.871,39.084,163.548,32.65z
	 M149.165,78.81c0.725-0.595,1.476-1.173,2.225-1.753c7.785,3.079,15.069,7.192,21.777,12.292
	c-11.111,5.116-21.553,11.281-31.139,18.428l5.914-16.25C149.476,87.313,149.824,82.953,149.165,78.81z M166.311,67.357
	c3.271-1.785,6.674-3.475,10.24-5.038c22.28-9.765,49.753-14.926,79.449-14.926s57.168,5.161,79.449,14.926
	c3.565,1.563,6.969,3.253,10.24,5.038c-8.124,4.164-15.693,9.378-22.643,15.583C302.208,75.585,279.514,71.686,256,71.686
	s-46.208,3.9-67.045,11.255C182.005,76.735,174.435,71.521,166.311,67.357z M360.61,77.057c0.749,0.58,1.5,1.159,2.225,1.753
	c-0.659,4.143-0.311,8.503,1.223,12.717l5.914,16.25c-9.587-7.147-20.028-13.313-31.139-18.428
	C345.541,84.248,352.825,80.136,360.61,77.057z M95.513,175.458c-0.018,0.002-0.035,0.006-0.052,0.009
	c-1.694,0.24-3.432,0.063-5.086-0.54c0,0,0,0-0.001,0c-26.623-9.689-40.398-39.232-30.708-65.854l2.008-5.517
	c4.694-12.896,14.129-23.193,26.567-28.994c6.566-3.061,13.553-4.658,20.584-4.811c0.038,0.001,0.076,0.005,0.114,0.005
	c0.113,0,0.226-0.012,0.339-0.017c0.216-0.003,0.431-0.018,0.647-0.018c5.926,0,11.869,1.039,17.603,3.126
	c5.478,1.994,8.312,8.072,6.318,13.549l-16.264,44.686c-0.006,0.016-0.012,0.031-0.017,0.047l-13.641,37.479
	c-0.966,2.654-2.907,4.773-5.466,5.966C97.51,175.016,96.519,175.31,95.513,175.458z M118.367,342.941
	c8.175-11.546,21.534-19.561,37.627-22.852c-2.578,8.529-3.888,17.357-3.888,26.386c0,0.943,0.018,1.883,0.047,2.82
	c-5.17,2.298-9.3,5.439-11.915,9.13c-4.33,6.111-4.448,13.638-0.352,22.367c3.119,6.648,0.28,14.582-6.321,17.76
	c-0.065,0.032-0.131,0.06-0.195,0.094c-1.78,0.821-3.663,1.242-5.601,1.242c-5.179,0-9.946-3.027-12.144-7.714
	C107.491,374.837,108.489,356.892,118.367,342.941z M153.466,374.422c-2.461-5.246-1.428-6.703-0.987-7.326
	c0.342-0.483,0.901-1.044,1.63-1.629c2.483,11.651,7.206,22.555,13.73,32.306h-14.044
	C156.919,390.555,157.062,382.085,153.466,374.422z M77.162,365.486c0-3.107,2.528-5.636,5.636-5.636h12.996
	c-1.832,12.232,0.112,25.236,5.903,37.923H77.162V365.486z M77.162,412.773h39.936c3.341,1.362,6.953,2.115,10.673,2.115
	c3.703,0,7.304-0.713,10.725-2.115h24.791c-8.53,12.251-14.259,13.69-21.731,11.757c-25.771-6.669-47.285-7.794-64.393-3.427v-8.33
	H77.162z M66.605,456.49c-0.292,0.344-0.624,0.644-0.982,0.904c-0.105,0.067-0.208,0.137-0.31,0.21
	c-0.877,0.55-1.897,0.854-2.959,0.854c-0.927,0-2.303-0.229-3.587-1.316c-2.341-1.982-2.633-5.499-0.65-7.84
	c14.225-16.803,41.034-20.251,79.681-10.25c20.351,5.27,32.476-8.037,42.954-25.713c2.697,2.649,5.556,5.152,8.556,7.504
	c-4.329,7.09-8.431,12.543-12.687,16.884c-12.031,12.271-25.642,16.228-41.608,12.095C101.335,441.107,77.68,443.414,66.605,456.49z
	 M77.162,486.603v-19.44c0.305-0.317,0.604-0.641,0.89-0.979c6.789-8.017,26.677-8.703,53.201-1.841
	c21.015,5.439,40.406-0.134,56.076-16.114c4.941-5.04,9.611-11.182,14.425-18.996c2.304,1.323,4.664,2.567,7.082,3.723
	c6.306,14.542,11.342,35.062,12.987,53.209c0.013,0.147,0.035,0.292,0.05,0.438L77.162,486.603L77.162,486.603z M251.312,496.944
	c-0.405,0.037-0.818,0.056-1.229,0.056c-4.758,0-8.936-2.449-11.308-6.216c-0.144-0.292-0.301-0.576-0.481-0.845
	c-0.822-1.545-1.364-3.274-1.532-5.13c-1.338-14.762-4.79-31.045-9.359-45.003c9.088,2.434,18.682,3.741,28.596,3.741
	c0.152,0,0.304-0.005,0.456-0.005c3.414,12.849,5.871,26.442,6.996,38.848C264.119,489.748,258.675,496.276,251.312,496.944z
	 M368.219,290.684c-7.931,4.699-16.831,8.75-26.588,12.141c-0.074,0.025-0.148,0.048-0.222,0.076
	c-23.841,8.251-52.802,12.546-85.41,12.546c-7.452,0-14.843-0.23-21.969-0.686c-4.126-0.274-7.699,2.872-7.963,7.006
	c-0.264,4.134,2.873,7.699,7.007,7.963c7.443,0.476,15.156,0.717,22.925,0.717c31.379,0,59.724-3.853,83.853-11.279
	c0.832,2.172,1.557,4.372,2.184,6.594c0.013,0.047,0.024,0.093,0.038,0.14c1.869,6.67,2.818,13.55,2.818,20.573
	c0,45.254-39.878,82.071-88.894,82.071s-88.894-36.817-88.894-82.071c0-9.407,1.691-18.56,5.035-27.292
	c7.991,2.452,16.467,4.53,25.442,6.207c0.465,0.087,0.929,0.129,1.386,0.129c3.54,0,6.69-2.517,7.364-6.123
	c0.761-4.072-1.923-7.989-5.995-8.75c-10.686-1.997-20.575-4.582-29.678-7.716c-0.135-0.052-0.271-0.097-0.407-0.141
	c-17.457-6.058-31.957-14.181-43.266-24.312c-18.311-16.403-27.596-37.744-27.596-63.43c0-8.739,1.092-17.463,3.236-25.993
	c0.731-0.264,1.456-0.554,2.169-0.886c6.19-2.887,10.886-8.012,13.223-14.43l13.158-36.152
	c14.124-15.253,32.464-27.924,53.152-36.68c22.297-9.437,46.411-14.222,71.67-14.222s49.374,4.785,71.67,14.222
	c20.688,8.756,39.028,21.427,53.152,36.68l13.158,36.152c2.336,6.418,7.032,11.543,13.223,14.43
	c0.713,0.333,1.438,0.622,2.169,0.886c2.145,8.53,3.236,17.254,3.236,25.993C412.608,247.784,397.674,273.231,368.219,290.684z
	 M421.626,174.927C421.625,174.927,421.625,174.927,421.626,174.927c-1.65,0.601-3.382,0.779-5.072,0.542
	c-0.034-0.005-0.068-0.012-0.102-0.017c-0.994-0.15-1.973-0.44-2.909-0.878c-2.56-1.193-4.501-3.312-5.466-5.966l-13.641-37.479
	c-0.005-0.016-0.012-0.031-0.017-0.047l-16.264-44.686c-1.994-5.477,0.841-11.555,6.318-13.549
	c5.782-2.104,11.699-3.102,17.523-3.102c20.993,0,40.747,12.969,48.333,33.811l2.008,5.517
	C462.024,135.694,448.249,165.237,421.626,174.927z M201.068,179.229c-2.48,1.92-4.118,3.189-8.28,3.189s-5.8-1.269-8.28-3.189
	c-3.274-2.535-7.986-1.936-10.521,1.34c-2.536,3.274-1.936,7.985,1.339,10.521c3.254,2.52,8.173,6.327,17.463,6.327
	s14.208-3.808,17.462-6.327c3.275-2.536,3.875-7.247,1.339-10.521C209.055,177.293,204.343,176.693,201.068,179.229z
	 M172.392,228.241c-9.344,2.48-26.971,11.334-33.815,16.387c-3.333,2.461-4.04,7.156-1.579,10.488
	c1.471,1.992,3.74,3.046,6.039,3.046c1.547,0,3.108-0.477,4.449-1.466c5.403-3.989,21.477-12.025,28.754-13.957
	c4.004-1.063,6.388-5.17,5.325-9.173C180.502,229.563,176.397,227.181,172.392,228.241z M167.299,220.782
	c4.109,0.541,7.876-2.346,8.419-6.452s-2.345-7.876-6.452-8.419c-9.583-1.267-29.253,0.202-37.508,2.266
	c-4.019,1.005-6.462,5.077-5.457,9.096c0.852,3.407,3.91,5.683,7.27,5.683c0.602,0,1.214-0.073,1.825-0.226
	C141.912,221.1,159.835,219.793,167.299,220.782z M338.014,180.568c-2.535-3.275-7.246-3.875-10.522-1.34
	c-2.48,1.92-4.118,3.189-8.28,3.189s-5.8-1.269-8.28-3.189c-3.274-2.535-7.985-1.936-10.522,1.34
	c-2.536,3.274-1.936,7.985,1.339,10.521c3.254,2.52,8.173,6.327,17.462,6.327c9.29,0,14.208-3.808,17.463-6.327
	C339.95,188.554,340.55,183.843,338.014,180.568z M373.423,244.628c-6.844-5.053-24.472-13.907-33.815-16.387
	c-4.001-1.06-8.11,1.322-9.173,5.325c-1.063,4.003,1.321,8.11,5.325,9.173c7.277,1.932,23.351,9.968,28.754,13.957
	c1.34,0.989,2.901,1.466,4.449,1.466c2.299,0,4.569-1.054,6.04-3.046C377.463,251.784,376.756,247.089,373.423,244.628z
	 M277.593,189.419c-3.124-2.721-7.86-2.396-10.582,0.727c-2.78,3.19-6.794,5.02-11.012,5.02c-4.218,0-8.231-1.829-11.012-5.02
	c-2.722-3.122-7.46-3.447-10.582-0.727c-3.123,2.722-3.448,7.459-0.726,10.582c5.629,6.459,13.765,10.164,22.319,10.164
	c8.555,0,16.69-3.705,22.319-10.164C281.041,196.878,280.716,192.141,277.593,189.419z"/>
<g>
</g>
<g>
</g>
<g>
</g>
<g>
</g>
<g>
</g>
<g>
</g>
<g>
</g>
<g>
</g>
<g>
</g>
<g>
</g>
<g>
</g>
<g>
</g>
<g>
</g>
<g>
</g>
<g>
</g>
</svg>
