<?xml version="1.0" encoding="iso-8859-1"?>
<!-- Generator: Adobe Illustrator 19.0.0, SVG Export Plug-In . SVG Version: 6.00 Build 0)  -->
<svg version="1.1" id="Capa_1" xmlns="http://www.w3.org/2000/svg" xmlns:xlink="http://www.w3.org/1999/xlink" x="0px" y="0px"
	 viewBox="0 0 512.001 512.001" style="enable-background:new 0 0 512.001 512.001;" xml:space="preserve">
<path style="fill:#EDA751;" d="M187.287,427.452c-7.687,0-15.65-1.474-23.854-4.423c-34.084-12.251-51.912-16.605-68.088-3.648
	c-6.463,5.179-15.899,4.133-21.075-2.329c-5.177-6.464-4.133-15.899,2.33-21.075c31.045-24.868,64.564-12.817,96.977-1.166
	c24.408,8.774,36.87-5.289,56.802-30.896c2.68-3.445,5.453-7.006,8.284-10.472c5.238-6.413,14.684-7.365,21.096-2.126
	c6.413,5.239,7.365,14.685,2.126,21.097c-2.607,3.192-5.151,6.46-7.842,9.919c-10.077,12.945-20.496,26.333-34.194,35.223
	C209.687,424.149,198.796,427.452,187.287,427.452z"/>
<path style="fill:#FCD79D;" d="M87.827,388.595c-3.774,1.981-7.519,4.411-11.229,7.383c-6.463,5.176-7.505,14.611-2.33,21.074
	c5.177,6.463,14.612,7.507,21.075,2.329c2.629-2.106,5.305-3.747,8.084-4.979C102.325,402.706,94.96,393.494,87.827,388.595z"/>
<g>
	<path style="fill:#EDA751;" d="M253.605,504.457c-2.654,0-5.351-0.444-7.996-1.379c-12.49-4.416-19.037-18.121-14.621-30.613
		c8.147-23.044,15.606-48.341,9.157-61.239c-5.925-11.851-1.122-26.26,10.728-32.185c11.852-5.925,26.261-1.121,32.185,10.728
		c13.639,27.279,7.132,59.18-6.836,98.686C272.74,498.303,263.485,504.457,253.605,504.457z"/>
	<path style="fill:#EDA751;" d="M170.123,363.738c-27.646,0-55.438-10.469-72.897-27.931c-9.368-9.368-9.368-24.557,0-33.925
		s24.558-9.369,33.925,0.001c9.563,9.563,27.833,15.171,44.408,13.629c9.734-0.902,17.439-4.208,20.614-8.843
		c7.487-10.931,22.417-13.724,33.347-6.24c10.931,7.486,13.724,22.416,6.239,33.346c-11.476,16.76-31.282,27.24-55.768,29.509
		C176.716,363.588,173.418,363.738,170.123,363.738z"/>
	<path style="fill:#EDA751;" d="M383.826,484.76c-2.654,0-5.352-0.444-7.996-1.379c-12.49-4.417-19.036-18.122-14.62-30.614
		c2.777-7.853,2.268-14.257-1.603-20.155c-3.891-5.929-9.519-9.041-10.705-9.493c-12.5-4.388-19.057-18.071-14.669-30.573
		c4.386-12.5,18.098-19.069,30.598-14.683c12.187,4.276,29.849,16.435,39.519,36.624c8.01,16.723,8.733,35.49,2.094,54.273
		C402.962,478.607,393.707,484.76,383.826,484.76z"/>
</g>
<g>
	<path style="opacity:0.2;fill:#A35F00;enable-background:new    ;" d="M402.574,411.044c-9.941-18.13-26.268-29.152-37.743-33.179
		c-12.5-4.387-26.212,2.182-30.599,14.682c-4.388,12.501,2.17,26.185,14.67,30.573c1.186,0.452,6.814,3.564,10.705,9.493
		c1.804,2.748,2.867,5.611,3.219,8.675C378.114,433.742,391.618,423.425,402.574,411.044z"/>
	<path style="opacity:0.2;fill:#A35F00;enable-background:new    ;" d="M250.873,379.042c-11.85,5.925-16.653,20.334-10.728,32.185
		c3.459,6.919,2.914,17.406,0.411,29.198c13.99,7.161,29.528,11.973,46.009,13.881c5.715-24.407,5.967-45.588-3.507-64.536
		C277.133,377.922,262.724,373.119,250.873,379.042z"/>
	<path style="opacity:0.2;fill:#A35F00;enable-background:new    ;" d="M259.757,351.318c-6.413-5.238-15.858-4.287-21.096,2.126
		c-2.831,3.466-5.604,7.027-8.284,10.472c-14.307,18.381-24.765,30.812-38.555,33.12c5.901,8.981,12.998,17.199,21.091,24.444
		c2.346-1.146,4.658-2.447,6.933-3.923c13.698-8.89,24.117-22.278,34.194-35.223c2.691-3.459,5.235-6.727,7.842-9.919
		C267.121,366.003,266.169,356.557,259.757,351.318z"/>
	<path style="opacity:0.2;fill:#A35F00;enable-background:new    ;" d="M229.519,300.428c-10.93-7.484-25.861-4.691-33.347,6.24
		c-3.173,4.635-10.88,7.941-20.614,8.843c-0.575,0.054-1.156,0.078-1.735,0.115c-0.865,5.68-1.321,11.482-1.321,17.383
		c0,10.537,1.427,20.767,4.107,30.528c1.129-0.068,2.256-0.148,3.379-0.252c24.487-2.27,44.293-12.749,55.769-29.509
		C243.243,322.844,240.45,307.915,229.519,300.428z"/>
</g>
<ellipse style="fill:#FCD690;" cx="302.56" cy="333.004" rx="110.648" ry="102.809"/>
<path style="opacity:0.15;fill:#C17A00;enable-background:new    ;" d="M286.399,434.727
	c-50.561-33.195-34.891-101.231-26.308-130.985v-65.696c-40.03,15.475-68.178,52.162-68.178,94.962
	C191.913,384.69,232.952,427.459,286.399,434.727z"/>
<path style="fill:#EDA751;" d="M235.224,154.732c21.651-18.167,36.106-48.664,5.568-93.747
	C210.013,15.546,164.187,4.156,128.41,8.37c-8.82,1.039-16.221,7.249-18.776,15.755c-10.363,34.501-7.104,81.609,32.301,119.811
	C181.029,181.838,213.573,172.898,235.224,154.732z"/>
<path style="fill:#FF91AB;" d="M108.193,29.405c-8.496,33.922-3.692,78.24,33.74,114.531c33.886,32.853,62.844,30.506,84.06,17.469
	C211.403,62.355,147.665,36.089,108.193,29.405z"/>
<path style="fill:#EDA751;" d="M369.891,154.732c-21.651-18.167-36.106-48.664-5.568-93.747
	c30.78-45.439,76.606-56.829,112.381-52.614c8.82,1.039,16.221,7.249,18.776,15.755c10.363,34.501,7.104,81.609-32.299,119.811
	C424.085,181.838,391.541,172.898,369.891,154.732z"/>
<path style="fill:#FF91AB;" d="M496.92,29.405c8.496,33.922,3.692,78.24-33.74,114.531c-33.886,32.853-62.844,30.506-84.06,17.469
	C393.711,62.355,457.449,36.089,496.92,29.405z"/>
<path style="fill:#FFDC9C;" d="M490.926,182.151c0,86.128-84.336,123.851-188.369,123.851S114.188,268.28,114.188,182.151
	S198.523,26.203,302.557,26.203S490.926,96.023,490.926,182.151z"/>
<path style="opacity:0.15;fill:#C17A00;enable-background:new    ;" d="M201.977,50.281c-52.755,27.636-87.789,76.364-87.789,131.87
	c0,74.038,62.321,112.306,145.904,121.591C140.112,232.075,155.759,135.675,201.977,50.281z"/>
<path style="fill:#FF91AB;" d="M302.557,167.938c-7.41,0-14.067-3.187-18.705-8.253c-0.692,2.016-1.085,4.168-1.085,6.418
	c0,7.053-4.431,8.607-5.888,9.117c-10.314,3.617-15.743,14.911-12.127,25.226c2.857,8.147,10.504,13.246,18.675,13.246
	c2.173,0,4.384-0.361,6.55-1.121c23.867-8.37,32.371-29.493,32.371-46.469c0-2.25-0.393-4.403-1.085-6.419
	C316.624,164.751,309.968,167.938,302.557,167.938z"/>
<path style="opacity:0.1;enable-background:new    ;" d="M283.427,201.396c-3.096,0-5.993-1.933-7.076-5.02
	c-1.371-3.907,0.686-8.186,4.595-9.557c11.495-4.031,13.749-13.836,14.07-19.321c0.242-4.134,3.782-7.29,7.924-7.048
	c4.134,0.242,7.29,3.789,7.048,7.924c-0.904,15.44-9.905,27.626-24.08,32.595C285.088,201.259,284.25,201.396,283.427,201.396z"/>
<g>
	<ellipse style="fill:#FF91AB;" cx="210.119" cy="185.783" rx="34.103" ry="27.165"/>
	<ellipse style="fill:#FF91AB;" cx="394.992" cy="185.783" rx="34.103" ry="27.165"/>
</g>
<path style="fill:#7694E4;" d="M502.69,271.467c-6.239-17.142-27.644-26.332-54.475-25.89c-3.003,0.049-5.785,1.704-7.232,4.336
	c-2.916,5.305-7.692,9.617-13.828,11.851c-1.089,0.396-2.186,0.713-3.287,0.955c-1.681,0.37-3.005,1.619-3.591,3.237
	c-3.3,9.116-10.458,16.76-20.281,20.335c-11.188,4.072-23.123,1.886-31.984-4.766c-3.343-2.509-8.045-2.07-11.051,0.837
	c-6.695,6.476-11.909,13.352-15.33,20.263c-0.553,1.117-1.855,1.647-3.035,1.246c-9.225-3.133-21.258-5.536-35.437-5.355
	c-12.762,0.163-21.558,12.867-17.193,24.861l17.337,47.633c4.365,11.994,19.269,16.072,29.151,7.993
	c10.979-8.975,18.651-18.55,23.704-26.881c0.646-1.064,1.983-1.498,3.122-0.998c19.319,8.465,48.749,8.124,78.578-2.732
	C483.13,331.914,512.156,297.474,502.69,271.467z"/>
<path style="opacity:0.1;enable-background:new    ;" d="M319.329,323.57c-1.375-3.777-5.551-5.724-9.33-4.35l-22.556,8.21l0,0
	l4.979,13.68c0,0,0,0,0.001,0l22.556-8.21C318.756,331.524,320.704,327.347,319.329,323.57z M328.735,349.415
	c-1.375-3.778-5.552-5.724-9.33-4.35l-22.556,8.21l4.979,13.68l0,0l22.556-8.21C328.163,357.37,330.111,353.193,328.735,349.415z"/>
<path style="fill:#7694E4;" d="M151.176,294.379c-9.892-10.149-20.094-16.956-28.829-21.264c-1.127-0.556-1.677-1.86-1.276-3.049
	c3.445-10.214,4.349-22.862,2.633-36.625c-0.446-3.576-3.721-6.174-7.291-5.671c-13.924,1.962-28.075-5.24-34.327-18.646
	c-6.464-13.86-2.416-29.923,8.87-39.212c2.785-2.293,3.072-6.483,0.754-9.247c-19.814-23.625-44.263-35.005-62.499-26.501
	c-25.083,11.697-28.912,56.574-8.552,100.236c13.411,28.761,33.973,49.809,53.615,57.489c1.169,0.457,1.812,1.718,1.514,2.936
	c-2.315,9.461-3.657,21.651-2.242,35.753c1.275,12.699,14.697,20.355,26.265,14.961l45.941-21.423
	C157.321,318.722,160.085,303.519,151.176,294.379z"/>
<path style="opacity:0.1;enable-background:new    ;" d="M106.772,315.807c-1.699-3.643-6.03-5.221-9.673-3.52
	c-3.643,1.699-5.219,6.03-3.52,9.673l10.145,21.755l13.194-6.153l0,0L106.772,315.807z M141.844,325.939l-10.145-21.756
	c-1.7-3.643-6.031-5.221-9.673-3.52c-3.643,1.699-5.22,6.03-3.521,9.673l10.145,21.756L141.844,325.939L141.844,325.939z"/>
<path style="fill:#EDA751;" d="M432.322,380.414c-11.596,0-21.795-8.427-23.664-20.243c-1.053-6.656-3.337-13.851-6.787-21.39
	c-5.513-12.046-0.218-26.282,11.83-31.796c12.049-5.512,26.282-0.217,31.796,11.83c5.265,11.504,8.814,22.894,10.549,33.857
	c2.071,13.086-6.858,25.373-19.944,27.442C434.832,380.317,433.569,380.414,432.322,380.414z"/>
<path d="M509.737,268.903c-4.291-11.789-14.199-20.63-28.122-25.757c11.15-17.657,16.812-38.116,16.812-60.994
	c0-19.094-3.889-37.674-11.346-55.12c20.716-30.959,26.418-68.992,15.583-105.063c-3.422-11.393-13.267-19.653-25.08-21.045
	c-35.953-4.24-71.334,7.007-97.864,30.905c-24.067-8.598-50.201-13.124-77.16-13.124c-26.96,0-53.094,4.526-77.161,13.124
	c-26.532-23.9-61.913-35.146-97.864-30.906c-11.814,1.392-21.658,9.651-25.081,21.045c-10.836,36.072-5.134,74.104,15.583,105.063
	c-7.458,17.444-11.347,36.025-11.347,55.12c0,13.737,2.042,26.568,6.038,38.412c-10.115,0.376-19.478-5.25-23.842-14.609
	c-4.885-10.477-2.073-22.917,6.84-30.253c2.869-2.362,4.639-5.718,4.983-9.448c0.346-3.738-0.839-7.531-3.249-10.406
	c-22.975-27.394-50.338-38.306-71.415-28.478c-29.278,13.652-34.628,62.059-12.18,110.201c13.017,27.914,32.87,49.85,53.725,59.605
	c-2.152,10.775-2.673,22.49-1.502,34.152c0.841,8.384,5.715,15.877,13.038,20.042c3.971,2.26,8.415,3.397,12.868,3.397
	c3.748,0,7.503-0.807,10.988-2.433l1.621-0.756c18.244,12.534,41.848,19.658,65.522,19.658c3.528,0,7.082-0.163,10.557-0.486
	c3.47-0.321,6.909-0.833,10.296-1.489c2.208,5.908,4.938,11.587,8.141,16.991c-7.111,4.469-13.849,4.796-23.01,1.501
	c-32.754-11.774-69.879-25.119-104.197,2.371c-4.689,3.756-7.635,9.112-8.295,15.084c-0.66,5.971,1.045,11.842,4.802,16.532
	c3.755,4.689,9.112,7.633,15.083,8.294c5.972,0.658,11.844-1.045,16.532-4.802c12.551-10.052,26.207-7.603,60.864,4.853
	c8.979,3.228,17.859,4.865,26.391,4.865c12.96,0,25.288-3.735,36.641-11.104c1.939-1.259,3.838-2.619,5.731-4.086
	c1.761,1.293,3.566,2.534,5.406,3.734c0.128,12.753-5.786,31.312-11.147,46.473c-5.787,16.37,2.822,34.395,19.193,40.182
	c3.394,1.199,6.925,1.808,10.494,1.808c13.316,0,25.247-8.439,29.687-21c6.857-19.395,11.012-34.496,13.115-47.785
	c2.038,0.098,4.088,0.149,6.151,0.149c16.922,0,33.263-3.293,48.314-9.61c0.851,0.858,1.705,1.856,2.467,3.018
	c1.797,2.737,3.296,6.488,0.802,13.542c-5.787,16.368,2.821,34.393,19.189,40.182c3.392,1.199,6.924,1.808,10.497,1.808
	c13.226,0,25.13-8.361,29.618-20.807c1.406-3.895-0.613-8.192-4.509-9.598c-3.892-1.407-8.192,0.613-9.598,4.509
	c-2.352,6.519-8.585,10.898-15.512,10.898c-1.866,0-3.715-0.319-5.497-0.95c-8.572-3.03-13.08-12.471-10.05-21.044
	c3.572-10.103,2.786-18.859-2.403-26.769c-0.381-0.58-0.772-1.136-1.172-1.67c3.189-1.851,6.31-3.833,9.335-5.983
	c6.038-4.29,11.596-9.129,16.624-14.399c2.709,3.545,5.027,7.319,6.925,11.281c2.941,6.142,4.797,12.644,5.514,19.332
	c0.412,3.846,3.663,6.7,7.447,6.7c0.267,0,0.537-0.015,0.809-0.044c4.117-0.441,7.098-4.137,6.656-8.255
	c-0.898-8.384-3.22-16.53-6.9-24.212c-2.826-5.9-6.399-11.448-10.653-16.561c3.666-5.065,6.877-10.408,9.6-15.962
	c5.714,5.723,13.599,9.187,22.263,9.187c1.648,0,3.313-0.132,4.95-0.391c8.307-1.314,15.605-5.785,20.551-12.589
	c4.944-6.804,6.943-15.125,5.629-23.431c-0.314-1.983-0.703-3.981-1.127-5.987C499.536,325.091,518.931,294.162,509.737,268.903z
	 M479.19,111.277c-9.559-16.571-22.539-31.835-38.653-45.175c-1.095-0.906-2.202-1.799-3.316-2.68
	c18.195-14.616,38.113-21.769,53.903-25.251C494.269,55.597,495.067,83.121,479.19,111.277z M475.827,15.818
	c4.928,0.581,9.158,3.569,11.402,7.859c-18.341,4.127-41.595,12.745-62.535,30.652c-9.208-6.147-18.987-11.548-29.231-16.161
	C418.027,20.48,446.712,12.386,475.827,15.818z M129.287,15.818c29.116-3.428,57.799,4.664,80.365,22.351
	c-10.245,4.613-20.023,10.014-29.231,16.161c-20.941-17.906-44.193-26.526-62.534-30.653
	C120.129,19.387,124.359,16.398,129.287,15.818z M113.991,38.172c15.79,3.482,35.709,10.635,53.903,25.251
	c-1.116,0.882-2.223,1.774-3.316,2.679c-16.114,13.34-29.094,28.604-38.653,45.175C110.045,83.122,110.845,55.597,113.991,38.172z
	 M102.334,336.089c-0.003,0.001-0.006,0.003-0.008,0.004l-5.683,2.649c-3.276,1.528-6.959,1.379-10.103-0.41
	c-3.152-1.794-5.169-4.894-5.531-8.504c-1.459-14.522,0.318-26.082,2.065-33.223c1.186-4.853-1.422-9.883-6.068-11.7
	c-18.497-7.232-37.484-27.799-49.55-53.675c-18.265-39.169-16.01-80.508,4.926-90.271c3.05-1.423,6.397-2.113,9.95-2.113
	c13.06,0,28.907,9.336,43.057,25.954c-13.558,11.762-17.725,31.133-10.097,47.492c7.396,15.858,23.812,25.02,41.088,23.04
	c1.42,12.274,0.589,23.435-2.415,32.336c-1.594,4.728,0.583,9.961,5.065,12.172c6.591,3.25,16.586,9.318,26.775,19.772
	c0,0.001,0,0.001,0,0.001c2.533,2.598,3.611,6.135,2.959,9.702c-0.651,3.559-2.903,6.476-6.181,8.004L102.334,336.089z
	 M179.297,355.817c-3.019,0.28-6.106,0.422-9.174,0.422c-17.443,0-34.764-4.392-49.226-12.26l28.026-13.068
	c4.127-1.925,7.611-4.883,10.187-8.5c3.678,0.559,7.376,0.848,11.001,0.848c2.078,0,4.13-0.093,6.141-0.28
	c3.127-0.29,6.068-0.8,8.798-1.501c-0.421,3.807-0.635,7.652-0.635,11.531c0,7.464,0.803,14.756,2.324,21.809
	C184.286,355.251,181.799,355.585,179.297,355.817z M188.609,303.767c-2.297,1.742-6.858,3.64-13.744,4.279
	c-3.517,0.328-7.217,0.28-10.941-0.124c0.153-6.935-2.464-13.734-7.379-18.776v0.001c-8.184-8.396-17.494-15.529-27.133-20.806
	c1.142-4.312,1.894-8.954,2.292-13.825c14.203,17.145,34.275,30.917,59.772,40.852C190.399,298.137,189.442,300.937,188.609,303.767
	z M215.763,411.266c-8.881,5.765-18.461,8.686-28.476,8.686c-6.798,0-13.97-1.34-21.318-3.98
	c-33.657-12.098-55.519-18.299-75.314-2.444c-1.562,1.251-3.518,1.822-5.506,1.6c-1.991-0.221-3.775-1.202-5.027-2.764
	c-1.252-1.564-1.82-3.519-1.601-5.509c0.22-1.989,1.202-3.773,2.764-5.025c27.768-22.243,57.875-11.421,89.753,0.038
	c13.797,4.959,25.354,3.967,36.578-3.283c3.148,3.963,6.577,7.721,10.253,11.254C217.17,410.331,216.47,410.808,215.763,411.266z
	 M269.152,485.957c-2.326,6.581-8.573,11.002-15.547,11.002c-1.864,0-3.713-0.32-5.497-0.95
	c-8.573-3.03-13.081-12.471-10.051-21.044c5.035-14.241,10.015-29.872,11.538-43.371c9.915,4.663,20.622,8.063,31.883,9.964
	C279.485,453.742,275.572,467.798,269.152,485.957z M302.557,428.323c-56.875,0-103.146-42.758-103.146-95.314
	c0-11.284,2.101-22.251,6.238-32.693c7.232,2.256,14.828,4.242,22.794,5.944c0.528,0.112,1.055,0.167,1.574,0.167
	c3.462,0,6.574-2.413,7.326-5.934c0.865-4.05-1.717-8.034-5.767-8.899c-34.229-7.312-61.092-19.975-79.842-37.643
	c-19.938-18.787-30.048-42.943-30.048-71.798c0-81.856,81.139-148.449,180.872-148.449s180.871,66.594,180.871,148.449
	c0,21.78-5.802,40.965-17.24,57.107c-5.647-0.869-11.696-1.277-18.097-1.179c-5.702,0.095-10.943,3.244-13.68,8.222
	c-2.145,3.902-5.632,6.892-9.824,8.416c-0.755,0.275-1.538,0.503-2.332,0.678c-4.171,0.919-7.546,3.912-9.028,8.008
	c-2.674,7.387-8.432,13.16-15.796,15.841c-8.419,3.065-17.733,1.676-24.918-3.717c-6.287-4.719-15.018-4.113-20.764,1.444
	c-6.145,5.943-11.107,12.157-14.793,18.519c-10.544-3.082-22.14-4.629-33.893-4.474c-6.587,0.085-12.838,2.68-17.543,7.119
	c-6.865-0.289-13.647-0.748-20.198-1.389c-4.12-0.391-7.789,2.611-8.192,6.733c-0.404,4.121,2.61,7.789,6.732,8.193
	c4.531,0.443,9.171,0.798,13.863,1.081c-0.731,4.37-0.358,8.915,1.197,13.186l17.337,47.632c2.877,7.904,9.438,13.956,17.552,16.187
	c2.268,0.623,4.582,0.928,6.885,0.928c5.947,0,11.805-2.035,16.508-5.88c9.078-7.422,16.995-16.076,23.09-25.216
	c11.262,4.06,25.005,5.649,39.726,4.636C385.755,402.215,346.481,428.323,302.557,428.323z M445.69,366.117
	c-2.589,3.563-6.411,5.905-10.764,6.594c-0.864,0.137-1.741,0.206-2.604,0.206c-7.751,0-14.308-5.307-16.024-12.77
	c-0.024-0.135-0.051-0.268-0.082-0.4c-0.051-0.248-0.112-0.492-0.152-0.745c-0.252-1.592-0.578-3.212-0.954-4.851
	c-0.001-0.006-0.003-0.013-0.004-0.02c-1.355-5.897-3.496-12.085-6.417-18.467c-3.784-8.269-0.137-18.073,8.13-21.857
	c2.218-1.015,4.544-1.494,6.838-1.494c6.256,0,12.252,3.576,15.02,9.625c3.328,7.273,5.912,14.475,7.756,21.527
	c0.008,0.031,0.016,0.063,0.024,0.094c0.905,3.469,1.645,6.906,2.18,10.289C449.328,358.196,448.28,362.555,445.69,366.117z
	 M458.223,330.592c-1.666-4.938-3.625-9.91-5.909-14.897c-7.226-15.786-25.947-22.749-41.734-15.527
	c-15.787,7.225-22.752,25.947-15.528,41.735c1.158,2.53,2.168,5.009,3.033,7.427c-13.752,0.849-26.238-0.889-35.792-5.074
	c-4.56-2-9.953-0.293-12.547,3.976c-3.812,6.286-10.73,15.72-22.039,24.964c-2.81,2.297-6.427,3.063-9.926,2.103
	c-3.487-0.959-6.197-3.457-7.434-6.855l-17.337-47.633c-1.237-3.397-0.768-7.053,1.289-10.028c2.062-2.984,5.325-4.724,8.953-4.771
	c14.607-0.171,25.969,2.593,32.931,4.959c4.722,1.601,9.952-0.555,12.166-5.021c3.044-6.15,7.695-12.274,13.822-18.2
	c0.396-0.382,0.996-0.485,1.336-0.229c11.251,8.446,25.848,10.62,39.051,5.816c11.148-4.058,19.947-12.631,24.313-23.634
	c0.964-0.256,1.917-0.556,2.844-0.893c7.605-2.768,13.94-8.196,17.835-15.284c0.146-0.265,0.461-0.446,0.784-0.451
	c24.353-0.397,42.455,7.63,47.304,20.958C501.79,290.917,485.944,314.288,458.223,330.592z M471.684,280.131l-1.456-0.679
	l0.679-1.456c1.751-3.753,0.127-8.215-3.626-9.965c-3.751-1.75-8.214-0.127-9.965,3.626l-0.679,1.456l-1.456-0.679
	c-3.752-1.75-8.214-0.127-9.965,3.626c-1.751,3.753-0.127,8.215,3.626,9.965l1.456,0.679l-0.679,1.456
	c-1.751,3.753-0.127,8.215,3.626,9.965c1.025,0.479,2.104,0.705,3.164,0.705c2.823,0,5.528-1.604,6.801-4.331l0.679-1.456
	l1.456,0.679c1.025,0.479,2.103,0.705,3.164,0.705c2.823,0,5.528-1.604,6.801-4.331
	C477.061,286.343,475.437,281.881,471.684,280.131z M55.599,171.484l-1.509-0.549l0.549-1.509c1.417-3.892-0.59-8.194-4.482-9.611
	c-3.892-1.415-8.194,0.591-9.611,4.481l-0.549,1.509l-1.509-0.549c-3.891-1.413-8.194,0.591-9.611,4.481
	c-1.417,3.892,0.59,8.194,4.481,9.611l1.51,0.549l-0.549,1.509c-1.417,3.892,0.59,8.194,4.482,9.611
	c0.847,0.308,1.712,0.454,2.563,0.454c3.063,0,5.939-1.892,7.047-4.936l0.549-1.509l1.509,0.549
	c0.847,0.308,1.713,0.454,2.564,0.454c3.062,0,5.938-1.892,7.047-4.936C61.497,177.204,59.49,172.901,55.599,171.484z
	 M231.154,134.107c-12.218,0-22.158,9.94-22.158,22.159c0,4.142,3.357,7.498,7.499,7.498c4.141,0,7.498-3.356,7.498-7.498
	c0-3.949,3.212-7.162,7.161-7.162s7.161,3.212,7.161,7.162c0,4.142,3.357,7.498,7.498,7.498s7.498-3.356,7.498-7.498
	C253.311,144.048,243.371,134.107,231.154,134.107z M395.808,181.18c0.543,4.106,4.323,6.986,8.416,6.452
	c8.844-1.172,29.302,0.326,37.035,2.26c0.611,0.152,1.223,0.226,1.825,0.226c3.359,0,6.417-2.275,7.27-5.682
	c1.004-4.018-1.439-8.089-5.456-9.094c-9.383-2.346-31.745-4.015-42.637-2.577C398.154,173.307,395.266,177.075,395.808,181.18z
	 M359.301,163.764c4.142,0,7.499-3.356,7.499-7.498c0-3.949,3.212-7.162,7.162-7.162c3.948,0,7.161,3.212,7.161,7.162
	c0,4.142,3.356,7.498,7.499,7.498s7.498-3.356,7.498-7.498c0-12.219-9.939-22.159-22.158-22.159
	c-12.219,0-22.159,9.94-22.159,22.159C351.802,160.407,355.159,163.764,359.301,163.764z M302.557,175.436
	c9.497,0,18.53-4.113,24.782-11.287c2.72-3.121,2.397-7.858-0.727-10.58c-3.122-2.721-7.857-2.395-10.58,0.727
	c-3.402,3.904-8.314,6.144-13.476,6.144s-10.074-2.239-13.477-6.144c-2.721-3.12-7.458-3.447-10.58-0.727
	c-3.122,2.721-3.446,7.459-0.727,10.58C284.026,171.323,293.059,175.436,302.557,175.436z M436.679,216.997
	c-7.782-5.745-27.821-15.81-38.439-18.629c-4.002-1.062-8.108,1.321-9.171,5.324c-1.063,4.002,1.321,8.108,5.324,9.171
	c8.619,2.289,26.967,11.466,33.38,16.2c1.341,0.989,2.9,1.467,4.447,1.467c2.3,0,4.568-1.055,6.039-3.046
	C440.719,224.151,440.012,219.457,436.679,216.997z M206.872,198.368c-10.618,2.818-30.656,12.884-38.438,18.629
	c-3.332,2.46-4.04,7.154-1.581,10.486c1.471,1.992,3.739,3.045,6.039,3.045c1.547,0,3.107-0.477,4.447-1.466
	c6.415-4.733,24.761-13.911,33.381-16.2c4.002-1.064,6.386-5.169,5.324-9.172C214.982,199.689,210.877,197.306,206.872,198.368z
	 M200.89,187.632c4.105,0.549,7.873-2.346,8.416-6.452c0.542-4.105-2.347-7.873-6.452-8.416
	c-10.891-1.436-33.253,0.233-42.637,2.577c-4.018,1.005-6.461,5.076-5.456,9.094c0.852,3.406,3.909,5.682,7.269,5.682
	c0.602,0,1.214-0.073,1.825-0.226C171.587,187.959,192.045,186.462,200.89,187.632z"/>
<g>
</g>
<g>
</g>
<g>
</g>
<g>
</g>
<g>
</g>
<g>
</g>
<g>
</g>
<g>
</g>
<g>
</g>
<g>
</g>
<g>
</g>
<g>
</g>
<g>
</g>
<g>
</g>
<g>
</g>
</svg>
