<?xml version="1.0" encoding="iso-8859-1"?>
<!-- Generator: Adobe Illustrator 19.0.0, SVG Export Plug-In . SVG Version: 6.00 Build 0)  -->
<svg version="1.1" id="Capa_1" xmlns="http://www.w3.org/2000/svg" xmlns:xlink="http://www.w3.org/1999/xlink" x="0px" y="0px"
	 viewBox="0 0 512 512" style="enable-background:new 0 0 512 512;" xml:space="preserve">
<path style="fill:#EDA751;" d="M107.377,487.642c-5.306,0-10.326-3.179-12.417-8.407c-6.151-15.378-5.281-32.178,2.328-44.943
	c5.598-9.392,17.537-21.197,42.618-24.098c28.713-3.323,37.364-14.18,53.067-33.889c1.939-2.434,3.941-4.946,6.052-7.53
	c4.671-5.719,13.093-6.567,18.812-1.896c5.718,4.672,6.567,13.094,1.895,18.812c-2.039,2.496-3.973,4.924-5.846,7.275
	c-16.758,21.034-31.23,39.198-70.906,43.789c-11.425,1.322-19.071,5.1-22.724,11.228c-3.97,6.66-2.845,15.381-0.469,21.321
	c2.742,6.856-0.592,14.636-7.448,17.379C110.71,487.334,109.029,487.642,107.377,487.642z"/>
<path style="fill:#FCD79D;" d="M112.337,486.683c6.856-2.743,10.19-10.523,7.448-17.379c-0.679-1.697-1.249-3.626-1.634-5.665
	c-9.887-0.485-19.852,2.161-26.121,5.777c0.675,3.302,1.638,6.592,2.928,9.819c2.091,5.228,7.111,8.407,12.417,8.407
	C109.029,487.642,110.71,487.334,112.337,486.683z"/>
<path style="opacity:0.2;fill:#A35F00;enable-background:new    ;" d="M217.835,366.88c-5.719-4.671-14.141-3.823-18.812,1.896
	c-2.111,2.584-4.113,5.096-6.052,7.53c-12.716,15.96-20.811,26.114-38.676,31.164c5.065,7.984,11.155,15.328,18.108,21.861
	c19.05-8.233,29.708-21.586,41.481-36.364c1.873-2.351,3.807-4.778,5.846-7.275C224.401,379.973,223.553,371.552,217.835,366.88z"/>
<g>
	<path style="fill:#82C7E6;" d="M212.048,281.844L59.105,268.463c-19.645-1.719-37.469,12.508-39.27,32.146
		c-1.465,15.979,7.863,30.429,21.959,36.195c2.14,0.875,3.225,3.329,2.433,5.501c-4.215,11.564-2.311,24.997,6.169,35.103
		c9.78,11.655,25.438,15.465,39,10.735c2.102-0.733,4.387,0.176,5.44,2.137c5.477,10.201,15.933,17.162,28.352,18.824
		c43.03,5.76,66.917-4.447,92.191-49.767S212.048,281.844,212.048,281.844z"/>
	<path style="fill:#82C7E6;" d="M299.952,281.844l152.943-13.381c19.645-1.719,37.469,12.508,39.27,32.146
		c1.465,15.979-7.863,30.429-21.96,36.195c-2.14,0.875-3.225,3.329-2.433,5.501c4.215,11.564,2.311,24.997-6.169,35.103
		c-9.78,11.655-25.438,15.465-39,10.735c-2.102-0.733-4.387,0.176-5.44,2.137c-5.477,10.201-15.933,17.162-28.352,18.824
		c-43.031,5.76-66.917-4.447-92.191-49.767C271.347,314.017,299.952,281.844,299.952,281.844z"/>
</g>
<path style="opacity:0.1;enable-background:new    ;" d="M436.01,281.063c2.302-3.779,4.37-7.673,6.221-11.667l-142.28,12.448
	c0,0-28.605,32.173-3.331,77.493c20.739,37.188,40.552,50.723,70.766,51.204c10.704-17.7,16.829-38.18,16.829-59.988
	c0-7.121-0.659-14.099-1.91-20.887c2.573-1.348,5.089-2.74,7.532-4.187C409.688,313.718,425.222,298.774,436.01,281.063z"/>
<path style="opacity:0.1;enable-background:new    ;" d="M69.768,269.396c1.851,3.994,3.919,7.888,6.221,11.667
	c10.788,17.711,26.323,32.655,46.173,44.415c2.443,1.447,4.959,2.839,7.532,4.187c-1.252,6.788-1.91,13.766-1.91,20.887
	c0,21.808,6.125,42.288,16.829,59.988c30.214-0.481,50.027-14.016,70.766-51.204c25.274-45.32-3.331-77.493-3.331-77.493
	L69.768,269.396z"/>
<g>
	<path style="fill:#EDA751;" d="M221.39,504.5c-10.659,0-19.885-7.956-21.207-18.805c-3.066-25.15-0.214-58.575,1.758-76.261
		c1.31-11.742,11.889-20.201,23.631-18.888c11.741,1.31,20.197,11.889,18.888,23.63c-2.961,26.545-3.637,51.346-1.81,66.343
		c1.429,11.726-6.918,22.393-18.645,23.822C223.127,504.448,222.253,504.5,221.39,504.5z"/>
	<path style="fill:#EDA751;" d="M290.61,504.5c-0.863,0-1.736-0.052-2.615-0.159c-11.727-1.43-20.074-12.096-18.645-23.822
		c1.828-14.997,1.151-39.798-1.81-66.343c-1.309-11.741,7.147-22.321,18.888-23.63c11.738-1.318,22.32,7.146,23.631,18.888
		c1.972,17.686,4.824,51.111,1.758,76.261C310.495,496.543,301.268,504.5,290.61,504.5z"/>
	<path style="fill:#EDA751;" d="M148.742,363.883c-22.204,0-50.017-4.94-70.375-25.3c-8.354-8.354-8.354-21.897,0-30.251
		c8.353-8.353,21.898-8.354,30.251,0.001c7.105,7.103,29.886,18.335,65.26,9.997c11.499-2.707,23.018,4.415,25.727,15.913
		c2.71,11.5-4.414,23.018-15.913,25.729C178.838,361.114,165.36,363.883,148.742,363.883z"/>
	<path style="fill:#EDA751;" d="M363.258,363.883c-16.621,0-30.095-2.768-34.951-3.913c-11.499-2.711-18.623-14.229-15.913-25.729
		c2.71-11.498,14.227-18.617,25.727-15.913c15.47,3.646,49.015,6.249,65.26-9.997c8.354-8.354,21.898-8.354,30.251-0.001
		c8.354,8.354,8.354,21.897,0,30.251C413.277,358.941,385.461,363.883,363.258,363.883z"/>
</g>
<g>
	<path style="opacity:0.2;fill:#A35F00;enable-background:new    ;" d="M312.954,448.166c-0.505-14.982-1.828-29.162-2.896-38.732
		c-1.31-11.742-11.892-20.207-23.631-18.888c-11.741,1.31-20.197,11.889-18.888,23.63c1.906,17.087,2.864,33.446,2.818,46.938
		C285.638,459.367,300.029,454.871,312.954,448.166z"/>
	<path style="opacity:0.2;fill:#A35F00;enable-background:new    ;" d="M225.572,390.546c-11.742-1.313-22.32,7.146-23.631,18.888
		c-1.067,9.57-2.39,23.75-2.896,38.732c12.925,6.705,27.316,11.201,42.596,12.948c-0.046-13.492,0.912-29.851,2.818-46.938
		C245.769,402.435,237.313,391.855,225.572,390.546z"/>
	<path style="opacity:0.2;fill:#A35F00;enable-background:new    ;" d="M370.074,320.815c-12.219,0.863-24.298-0.681-31.952-2.485
		c-11.5-2.704-23.017,4.415-25.728,15.913c-2.71,11.5,4.414,23.018,15.913,25.729c4.856,1.145,18.33,3.913,34.951,3.913
		c3.322,0,6.771-0.114,10.301-0.37c0.526-4.253,0.806-8.576,0.806-12.96C374.365,340.257,372.866,330.285,370.074,320.815z"/>
	<path style="opacity:0.2;fill:#A35F00;enable-background:new    ;" d="M173.878,318.329c-12.205,2.877-22.909,3.423-31.989,2.614
		c-2.767,9.432-4.254,19.36-4.254,29.609c0,4.384,0.28,8.707,0.806,12.96c3.529,0.256,6.979,0.37,10.301,0.37
		c16.618,0,30.096-2.769,34.951-3.913c11.499-2.711,18.623-14.229,15.913-25.729C196.896,322.744,185.377,315.622,173.878,318.329z"
		/>
</g>
<ellipse style="fill:#FCD690;" cx="256" cy="350.55" rx="98.66" ry="91.68"/>
<path style="opacity:0.15;fill:#C17A00;enable-background:new    ;" d="M241.592,441.256c-45.086-29.601-31.113-90.268-23.459-116.8
	v-58.582c-35.695,13.799-60.795,46.513-60.795,84.678C157.338,396.638,193.933,434.776,241.592,441.256z"/>
<path style="fill:#EDA751;" d="M195.958,191.582c19.306-16.2,32.196-43.394,4.965-83.595
	c-27.446-40.518-68.309-50.675-100.211-46.917c-7.865,0.927-14.464,6.464-16.743,14.049c-9.241,30.765-6.335,72.771,28.802,106.836
	C147.632,215.753,176.652,207.781,195.958,191.582z"/>
<path style="fill:#FF91AB;" d="M82.685,79.827c-7.576,30.248-3.292,69.768,30.086,102.128
	c30.217,29.295,56.039,27.202,74.957,15.577C174.717,109.209,117.882,85.787,82.685,79.827z"/>
<path style="fill:#EDA751;" d="M316.042,191.582c-19.306-16.2-32.196-43.394-4.965-83.595
	c27.446-40.518,68.309-50.675,100.211-46.917c7.865,0.927,14.464,6.464,16.742,14.049c9.241,30.765,6.335,72.771-28.802,106.836
	C364.368,215.753,335.348,207.781,316.042,191.582z"/>
<path style="fill:#FF91AB;" d="M429.315,79.827c7.576,30.248,3.292,69.768-30.086,102.128
	c-30.217,29.295-56.039,27.202-74.957,15.577C337.283,109.209,394.118,85.787,429.315,79.827z"/>
<path style="fill:#FFDC9C;" d="M423.971,216.032c0,76.801-75.203,110.439-167.971,110.439S88.029,292.833,88.029,216.032
	S163.232,76.972,256,76.972S423.971,139.232,423.971,216.032z"/>
<path style="opacity:0.15;fill:#C17A00;enable-background:new    ;" d="M166.312,98.442c-47.042,24.644-78.283,68.094-78.283,117.59
	c0,66.02,55.573,100.144,130.104,108.424C111.146,260.55,125.099,174.59,166.312,98.442z"/>
<g>
	<ellipse style="fill:#FF91AB;" cx="173.57" cy="219.27" rx="30.413" ry="24.22"/>
	<ellipse style="fill:#FF91AB;" cx="338.421" cy="219.27" rx="30.413" ry="24.22"/>
	<ellipse style="fill:#FF91AB;" cx="256" cy="208.49" rx="17.06" ry="20.16"/>
</g>
<path d="M256,55.831c22.914,0,44.542-2.199,60.898-6.193c20.327-4.964,30.208-12.069,30.208-21.723C347.106,0.783,265.326,0,256,0
	c-22.914,0-44.541,2.199-60.898,6.193c-20.327,4.964-30.208,12.069-30.208,21.722C164.894,55.048,246.675,55.831,256,55.831z
	 M202.549,19.878C217.276,16.732,236.258,15,256,15s38.724,1.732,53.451,4.878c13.737,2.934,19.898,6.261,22.017,8.037
	c-2.119,1.776-8.279,5.104-22.016,8.038c-14.727,3.146-33.71,4.878-53.452,4.878s-38.725-1.733-53.452-4.878
	c-13.737-2.934-19.897-6.262-22.016-8.038C182.651,26.139,188.812,22.812,202.549,19.878z M499.634,299.924
	c-2.161-23.564-23.419-41.029-47.393-38.933l-31.88,2.789c7.336-14.184,11.109-30.201,11.109-47.748
	c0-16.992-3.434-33.527-10.014-49.064c18.41-27.742,23.447-61.746,13.757-94.006c-3.145-10.47-12.192-18.06-23.048-19.34
	c-32.125-3.786-63.752,6.193-87.544,27.438C303.201,73.467,279.964,69.472,256,69.472s-47.2,3.995-68.622,11.589
	c-23.792-21.245-55.419-31.222-87.544-27.438c-10.857,1.279-19.903,8.87-23.048,19.34c-9.69,32.26-4.652,66.264,13.757,94.006
	c-6.58,15.537-10.014,32.072-10.014,49.064c0,17.652,3.68,33.607,10.978,47.737l-31.749-2.778
	c-23.977-2.082-45.231,15.367-47.393,38.933c-1.651,18.009,7.87,34.773,23.901,42.616c-3.954,13.714-0.854,28.679,8.384,39.689
	c10.899,12.989,28.638,18.344,44.82,13.751c4.481,7.247,11.187,12.995,19.144,16.636c-8.778,5.407-14.318,12.047-17.77,17.836
	c-8.796,14.758-9.862,34.036-2.849,51.568c3.188,7.972,10.796,13.122,19.381,13.122c2.656,0,5.261-0.503,7.746-1.496
	c10.684-4.274,15.899-16.443,11.626-27.127c-1.633-4.081-2.626-10.379-0.053-14.695c2.982-5.003,10.969-6.904,17.143-7.619
	c18.631-2.156,33.443-7.306,46.099-16.074c0.851,0.634,1.708,1.26,2.58,1.869c-1.202,16.618-1.976,38.593,0.22,56.602
	C194.503,501.082,206.821,512,221.39,512c1.159,0,2.339-0.071,3.523-0.214c15.813-1.929,27.109-16.362,25.182-32.175
	c-0.913-7.486-1.17-17.983-0.762-30.08c2.206,0.128,4.427,0.201,6.667,0.201s4.461-0.073,6.667-0.201
	c0.408,12.096,0.15,22.593-0.762,30.08c-1.928,15.813,9.369,30.246,25.197,32.177c1.17,0.141,2.351,0.212,3.508,0.212
	c11.597,0,22.023-6.9,26.563-17.58c1.62-3.811-0.156-8.216-3.968-9.836c-3.813-1.62-8.216,0.158-9.836,3.969
	c-2.181,5.132-7.189,8.447-12.758,8.447c-0.563,0-1.142-0.035-1.707-0.103c-7.604-0.928-13.035-7.868-12.108-15.472
	c1.053-8.64,1.328-20.219,0.817-33.762c9.675-1.877,18.869-4.99,27.391-9.15c0.47,8.224,0.695,15.957,0.66,23.071
	c-0.021,4.143,3.32,7.518,7.462,7.538h0.039c4.124,0,7.478-3.333,7.499-7.462c0.048-9.606-0.35-20.241-1.178-31.661
	c7.123-4.98,13.551-10.78,19.135-17.241c8.918,3.553,18.82,5.291,30.505,5.291c6.331,0,13.186-0.509,20.684-1.513
	c13.813-1.849,25.864-9.466,32.723-20.556c16.184,4.592,33.921-0.764,44.82-13.752c9.239-11.011,12.339-25.975,8.384-39.689
	C491.766,334.697,501.285,317.933,499.634,299.924z M413.481,151.188c-8.499-14.38-19.883-27.638-33.925-39.263
	c-0.717-0.594-1.446-1.174-2.173-1.756c15.575-12.266,32.491-18.446,46.109-21.543C426.103,103.807,426.563,127.172,413.481,151.188
	z M410.411,68.519c3.76,0.443,7.036,2.562,9.008,5.654c-16.144,3.763-36.304,11.406-54.57,26.864
	c-7.734-5.124-15.914-9.661-24.462-13.584C367.921,66.367,397.931,67.05,410.411,68.519z M101.589,68.519
	c12.476-1.468,42.489-2.153,70.024,18.933c-8.548,3.923-16.728,8.46-24.462,13.584c-18.265-15.457-38.426-23.101-54.571-26.864
	C94.553,71.081,97.829,68.961,101.589,68.519z M88.508,88.626c13.618,3.097,30.535,9.277,46.109,21.543
	c-0.727,0.582-1.456,1.162-2.173,1.756c-14.042,11.625-25.426,24.883-33.925,39.263C85.438,127.172,85.897,103.807,88.508,88.626z
	 M101.443,386.73c-2.813-5.238-8.92-7.622-14.518-5.67c-10.952,3.82-23.325,0.416-30.785-8.474
	c-6.437-7.671-8.302-18.29-4.868-27.713c2.189-6.001-0.728-12.595-6.639-15.012c-11.501-4.705-18.466-16.186-17.331-28.569
	c1.408-15.362,15.389-26.737,31.148-25.358l43.472,3.804c3.813,4.748,8.128,9.235,12.95,13.448
	c9.17,8.01,19.998,14.872,32.384,20.577c-22.885-0.6-33.216-10.612-33.336-10.733c-5.457-5.458-12.712-8.464-20.43-8.464
	c-7.717,0-14.972,3.006-20.429,8.462c-11.264,11.265-11.264,29.593,0,40.857c17.987,17.989,44.157,27.497,75.679,27.497
	c1.131,0,2.291-0.03,3.446-0.055c2.354,10.278,6.414,19.972,11.895,28.806c-10.565,3.299-23.272,3.761-39.9,1.537
	C114.104,400.321,105.816,394.876,101.443,386.73z M150.025,356.362c-0.425,0.004-0.862,0.021-1.283,0.021
	c-19.146,0-45.978-4.008-65.072-23.103c-5.416-5.417-5.416-14.229,0-19.645c2.624-2.624,6.112-4.069,9.822-4.069
	s7.199,1.445,9.823,4.07c4.784,4.783,12.71,9.063,21.746,11.741c8.489,2.516,17.654,3.633,27.355,3.357
	c-1.709,7.106-2.578,14.396-2.578,21.818C149.838,352.503,149.905,354.439,150.025,356.362z M142.116,429.305
	c-13.868,1.605-23.39,6.598-28.304,14.839c-6.756,11.335-2.466,24.256-0.99,27.946c1.202,3.005-0.266,6.428-3.268,7.629
	c-0.704,0.281-1.437,0.424-2.178,0.424c-2.416,0-4.557-1.449-5.454-3.692c-5.289-13.223-4.613-27.548,1.807-38.318
	c4.517-7.577,14.196-17.186,34.65-20.167c1.528,0.055,3.029,0.085,4.498,0.085c11.683,0,21.587-1.738,30.505-5.291
	c1.527,1.766,3.117,3.483,4.767,5.147C168.235,423.958,156.57,427.632,142.116,429.305z M223.111,496.896
	c-7.76,0.93-14.566-4.585-15.483-12.107c-1.747-14.332-1.462-31.624-0.629-46.273c8.521,4.16,17.715,7.273,27.389,9.15
	c-0.511,13.542-0.236,25.121,0.817,33.762C236.132,489.029,230.701,495.97,223.111,496.896z M256,434.732
	c-50.267,0-91.162-37.763-91.162-84.18c0-9.463,1.674-18.674,4.973-27.477c0.013-0.034,0.025-0.068,0.038-0.102
	c0.072-0.191,0.141-0.382,0.215-0.573c9.198,2.83,19.022,5.174,29.492,6.995c4.08,0.711,7.964-2.023,8.674-6.104
	c0.709-4.081-2.024-7.965-6.104-8.674c-12.067-2.099-23.185-4.906-33.344-8.39c-0.357-0.149-0.718-0.276-1.083-0.367
	c-17.206-6.024-31.586-14.038-42.958-23.972c-19.384-16.933-29.212-39.09-29.212-65.857c0-72.543,71.987-131.56,160.471-131.56
	s160.471,59.018,160.471,131.56c0,19.877-5.371,37.133-16.019,51.618c-0.213,0.247-0.41,0.507-0.59,0.78
	c-7.273,9.652-16.913,18.06-28.912,25.17c-8.125,4.814-17.243,8.964-27.236,12.438c-0.08,0.027-0.16,0.052-0.239,0.082
	C319.054,314.57,289.393,318.97,256,318.97c-6.845,0-13.634-0.189-20.181-0.563c-4.142-0.224-7.679,2.926-7.915,7.061
	c-0.236,4.136,2.926,7.679,7.061,7.915c6.829,0.389,13.906,0.586,21.034,0.586c32.168,0,61.217-3.957,85.931-11.584
	c0.068,0.176,0.132,0.353,0.199,0.529c0.012,0.032,0.023,0.066,0.036,0.098c3.315,8.821,4.996,18.053,4.996,27.538
	C347.162,396.97,306.267,434.732,256,434.732z M359.529,328.511c5.91,0.171,12.62-0.064,19.432-1.176
	c12.704-2.071,22.704-6.681,29.723-13.7c2.624-2.623,6.112-4.068,9.823-4.068c3.71,0,7.198,1.444,9.822,4.068
	c5.415,5.415,5.415,14.228,0,19.645c-19.094,19.095-45.926,23.103-65.072,23.103c-0.42,0-0.858-0.017-1.283-0.021
	c0.12-1.923,0.187-3.859,0.187-5.809C362.162,343.052,361.274,335.688,359.529,328.511z M467.367,329.861
	c-5.912,2.418-8.828,9.012-6.64,15.012c3.434,9.424,1.569,20.043-4.868,27.714c-7.458,8.891-19.829,12.295-30.784,8.475
	c-5.598-1.956-11.705,0.432-14.519,5.67c-4.373,8.145-12.661,13.59-22.739,14.938c-16.63,2.227-29.336,1.764-39.901-1.536
	c5.481-8.834,9.541-18.528,11.896-28.807c1.155,0.026,2.315,0.055,3.446,0.055c31.522,0,57.691-9.508,75.679-27.497
	c11.264-11.265,11.263-29.593-0.001-40.856c-5.456-5.457-12.711-8.463-20.429-8.462c-7.717,0-14.973,3.005-20.429,8.463
	c-8.061,8.061-21.767,10.221-32.844,10.476c4.677-2.17,9.14-4.501,13.361-7.002c12.693-7.52,23.18-16.499,31.384-26.757
	l43.569-3.812c15.76-1.373,29.739,9.996,31.148,25.358C485.832,313.677,478.868,325.157,467.367,329.861z M303.973,191.37
	c3.114,2.411,7.819,6.056,16.727,6.056c8.906,0,13.612-3.644,16.727-6.056c3.275-2.535,3.874-7.246,1.338-10.521
	c-2.536-3.276-7.248-3.875-10.522-1.338c-2.348,1.817-3.765,2.915-7.543,2.915s-5.195-1.098-7.542-2.915
	c-3.276-2.537-7.986-1.939-10.522,1.338C300.1,184.123,300.698,188.834,303.973,191.37z M256,236.148
	c13.541,0,24.558-12.408,24.558-27.66s-11.017-27.66-24.558-27.66c-13.541,0-24.558,12.408-24.558,27.66
	C231.442,223.74,242.459,236.148,256,236.148z M256,195.828c5.181,0,9.558,5.798,9.558,12.66s-4.377,12.66-9.558,12.66
	s-9.558-5.798-9.558-12.66S250.819,195.828,256,195.828z M376.081,246.45c-6.993-5.162-25.004-14.209-34.55-16.744
	c-4.004-1.06-8.11,1.321-9.174,5.324c-1.063,4.004,1.321,8.11,5.324,9.174c7.465,1.981,23.95,10.224,29.492,14.314
	c1.34,0.989,2.901,1.467,4.448,1.467c2.299,0,4.569-1.055,6.04-3.047C380.122,253.606,379.414,248.91,376.081,246.45z
	 M198.843,179.511c-2.348,1.817-3.765,2.915-7.542,2.915c-3.778,0-5.195-1.098-7.543-2.915c-3.276-2.537-7.986-1.936-10.522,1.338
	c-2.536,3.275-1.937,7.986,1.338,10.521c3.114,2.412,7.82,6.056,16.727,6.056c8.906,0,13.612-3.644,16.726-6.056
	c3.275-2.535,3.874-7.246,1.338-10.521C206.829,177.572,202.117,176.974,198.843,179.511z M338.346,215.273
	c0.543,4.107,4.307,7.001,8.418,6.453c7.661-1.011,26.04,0.327,32.72,1.997c0.611,0.152,1.223,0.226,1.825,0.226
	c3.36,0,6.418-2.275,7.27-5.683c1.005-4.019-1.438-8.091-5.457-9.096c-8.431-2.108-28.53-3.608-38.325-2.315
	C340.692,207.398,337.803,211.167,338.346,215.273z M170.469,229.706c-9.545,2.534-27.556,11.581-34.551,16.744
	c-3.333,2.46-4.04,7.155-1.58,10.488c1.471,1.992,3.74,3.047,6.04,3.047c1.547,0,3.108-0.478,4.448-1.467
	c5.542-4.091,22.028-12.333,29.492-14.314c4.003-1.064,6.387-5.17,5.324-9.174C178.579,231.026,174.472,228.646,170.469,229.706z
	 M165.235,221.727c4.105,0.547,7.875-2.346,8.418-6.453c0.542-4.106-2.346-7.875-6.453-8.418
	c-9.793-1.293-29.893,0.208-38.325,2.315c-4.019,1.005-6.462,5.077-5.457,9.096c0.852,3.408,3.91,5.683,7.27,5.683
	c0.603,0,1.214-0.073,1.825-0.226C139.196,222.052,157.579,220.713,165.235,221.727z"/>
<g>
</g>
<g>
</g>
<g>
</g>
<g>
</g>
<g>
</g>
<g>
</g>
<g>
</g>
<g>
</g>
<g>
</g>
<g>
</g>
<g>
</g>
<g>
</g>
<g>
</g>
<g>
</g>
<g>
</g>
</svg>
