<?xml version="1.0" encoding="iso-8859-1"?>
<!-- Generator: Adobe Illustrator 19.0.0, SVG Export Plug-In . SVG Version: 6.00 Build 0)  -->
<svg version="1.1" id="Capa_1" xmlns="http://www.w3.org/2000/svg" xmlns:xlink="http://www.w3.org/1999/xlink" x="0px" y="0px"
	 viewBox="0 0 511.998 511.998" style="enable-background:new 0 0 511.998 511.998;" xml:space="preserve">
<path style="fill:#EDA751;" d="M374.825,420.007c-35.262,0-53.802-22.7-73.282-46.546l-0.278-0.34
	c-5.249-6.425-4.296-15.89,2.13-21.14c6.427-5.251,15.89-4.296,21.14,2.13l0.278,0.34c21.666,26.523,32.541,39.831,62.379,34.261
	c16.523-3.088,21.911-9.443,29.37-18.239c7.847-9.254,17.614-20.771,39.278-25.246c8.118-1.686,16.075,3.548,17.752,11.674
	c1.678,8.126-3.548,16.074-11.674,17.752c-11.523,2.38-15.866,7.501-22.438,15.254c-8.8,10.377-19.752,23.292-46.769,28.341
	C386.296,419.449,380.351,420.007,374.825,420.007z"/>
<path style="fill:#FCD79D;" d="M473.592,356.903c-1.677-8.126-9.634-13.36-17.752-11.674c-6.256,1.292-11.515,3.174-16.028,5.416
	c0.715,7.819,4.682,20,11.435,27.99c2.85-1.73,6.222-3.062,10.671-3.981C470.044,372.976,475.271,365.029,473.592,356.903z"/>
<g>
	<path style="fill:#EDA751;" d="M113.085,367.342c-21.966,0-44.437-8.053-65.237-23.424c-10.678-7.89-12.937-22.941-5.047-33.618
		c7.891-10.679,22.944-12.937,33.618-5.047c18.034,13.326,44.963,23.87,70.851-1.575c9.468-9.306,24.688-9.174,33.994,0.293
		c9.307,9.469,9.175,24.687-0.293,33.994c-18.46,18.144-40.588,28.271-63.995,29.293
		C115.68,367.314,114.383,367.342,113.085,367.342z"/>
	<path style="fill:#EDA751;" d="M209.331,504.499c-11.687,0-21.933-8.536-23.737-20.441c-5.141-33.94-1.525-70.147,4.011-89.427
		c3.666-12.76,16.973-20.133,29.739-16.471c12.76,3.665,20.134,16.979,16.471,29.739c-3.324,11.576-6.992,40.534-2.687,68.959
		c1.988,13.126-7.041,25.378-20.167,27.366C211.741,504.409,210.527,504.499,209.331,504.499z"/>
	<path style="fill:#EDA751;" d="M291.455,504.499c-11.687,0-21.933-8.536-23.737-20.441c-5.141-33.94-1.525-70.147,4.011-89.427
		c3.665-12.76,16.974-20.133,29.739-16.471c12.76,3.665,20.134,16.979,16.471,29.739c-3.324,11.576-6.992,40.534-2.687,68.959
		c1.988,13.126-7.042,25.378-20.167,27.366C293.865,504.409,292.651,504.499,291.455,504.499z"/>
</g>
<g>
	<path style="opacity:0.2;fill:#A35F00;enable-background:new    ;" d="M147.27,303.677c-8.555,8.408-17.221,12.869-25.644,14.616
		c-0.672,5.027-1.02,10.147-1.02,15.342c0,11.377,1.666,22.393,4.77,32.852c20.285-2.815,39.361-12.565,55.596-28.522
		c9.469-9.307,9.6-24.525,0.293-33.994C171.958,294.504,156.738,294.372,147.27,303.677z"/>
	<path style="opacity:0.2;fill:#A35F00;enable-background:new    ;" d="M219.343,378.159c-12.767-3.662-26.073,3.712-29.739,16.471
		c-3.027,10.544-5.476,26.153-6.237,43.682c14.376,8.221,30.571,13.899,47.872,16.369c-0.51-20.256,2.124-38.247,4.576-46.783
		C239.477,395.137,232.103,381.823,219.343,378.159z"/>
	<path style="opacity:0.2;fill:#A35F00;enable-background:new    ;" d="M301.467,378.159c-12.766-3.662-26.074,3.712-29.739,16.471
		c-3.979,13.86-6.967,36.466-6.422,60.689c17.294-1.797,33.577-6.785,48.168-14.326c0.595-14.433,2.584-26.547,4.465-33.096
		C321.601,395.137,314.227,381.823,301.467,378.159z"/>
	<path style="opacity:0.2;fill:#A35F00;enable-background:new    ;" d="M366.937,389.26c-16.09-2.962-26.194-15.307-42.125-34.808
		l-0.278-0.34c-5.25-6.426-14.713-7.382-21.14-2.13c-6.426,5.25-7.379,14.716-2.13,21.14l0.278,0.34
		c13.901,17.016,27.327,33.442,46.689,41.459C355.559,407.179,361.866,398.565,366.937,389.26z"/>
</g>
<ellipse style="fill:#FCD690;" cx="250.893" cy="333.631" rx="110.867" ry="103.027"/>
<path style="opacity:0.15;fill:#C17A00;enable-background:new    ;" d="M234.701,435.563
	c-50.666-33.264-34.963-101.439-26.362-131.255v-65.831c-40.113,15.507-68.319,52.27-68.319,95.159
	C140.019,385.422,181.143,428.28,234.701,435.563z"/>
<path style="fill:#EDA751;" d="M183.418,154.99c21.695-18.205,36.18-48.765,5.579-93.941C158.154,15.517,112.235,4.103,76.384,8.327
	c-8.839,1.041-16.255,7.264-18.815,15.788c-10.385,34.572-7.119,81.777,32.367,120.058
	C129.112,182.152,161.723,173.194,183.418,154.99z"/>
<path style="fill:#FF91AB;" d="M56.126,29.404c-8.514,33.992-3.7,78.402,33.809,114.767c33.956,32.921,62.974,30.568,84.234,17.506
	C159.548,62.422,95.68,36.102,56.126,29.404z"/>
<path style="fill:#EDA751;" d="M318.363,154.99c-21.695-18.205-36.18-48.765-5.579-93.941
	c30.843-45.533,76.763-56.947,112.613-52.723c8.839,1.041,16.255,7.264,18.815,15.788c10.385,34.572,7.119,81.777-32.367,120.058
	C372.67,182.152,340.059,173.194,318.363,154.99z"/>
<path style="fill:#FF91AB;" d="M445.655,29.404c8.514,33.992,3.7,78.402-33.809,114.767c-33.956,32.921-62.974,30.568-84.234,17.506
	C342.233,62.422,406.102,36.102,445.655,29.404z"/>
<path style="fill:#FFDC9C;" d="M439.649,182.466c0,86.306-84.51,124.106-188.758,124.106S62.133,268.771,62.133,182.466
	s84.51-156.27,188.758-156.27S439.649,96.161,439.649,182.466z"/>
<path style="opacity:0.15;fill:#C17A00;enable-background:new    ;" d="M150.104,50.324
	c-52.865,27.693-87.971,76.521-87.971,132.143c0,74.191,62.45,112.538,146.205,121.842C88.11,232.493,103.79,135.895,150.104,50.324
	z"/>
<g>
	<ellipse style="fill:#FF91AB;" cx="134.316" cy="186.104" rx="34.179" ry="27.219"/>
	<ellipse style="fill:#FF91AB;" cx="319.561" cy="186.104" rx="34.179" ry="27.219"/>
	<path style="fill:#FF91AB;" d="M225.796,208.149c-12.743-0.6-22.545-11.577-22.545-24.332v-19.208c0-3.544,1.589-6.928,4.383-9.11
		c5.326-4.159,12.026-6.64,19.308-6.64s13.982,2.481,19.308,6.64c2.794,2.181,4.383,5.565,4.383,9.11v19.876
		C250.631,197.949,239.4,208.789,225.796,208.149z"/>
</g>
<path style="fill:#7694E4;" d="M427.152,257.637l-52.197-5.74c-11.651-1.281-20.057-11.765-18.777-23.416l11.795-107.264
	c1.281-11.651,11.765-20.057,23.416-18.777l52.197,5.74c11.651,1.281,20.058,11.765,18.777,23.415l-11.795,107.264
	C449.286,250.512,438.802,258.917,427.152,257.637z"/>
<circle style="opacity:0.1;enable-background:new    ;" cx="392.949" cy="129.786" r="8.839"/>
<circle style="fill:#FFFFFF;" cx="410.469" cy="169.105" r="15.06"/>
<rect x="357.456" y="211.933" transform="matrix(-0.994 -0.1093 0.1093 -0.994 783.4591 481.8109)" style="opacity:0.1;enable-background:new    ;" width="94.957" height="14.999"/>
<path style="fill:#EDA751;" d="M338.839,344.864c-11.153,0-21.154-7.806-23.511-19.157c-2.7-12.998,5.651-25.723,18.65-28.422
	c32.2-6.686,48.51-26.886,51.325-63.574c1.016-13.237,12.575-23.149,25.807-22.128c13.238,1.016,23.143,12.571,22.128,25.807
	c-4.445,57.921-36.226,95.91-89.488,106.967C342.102,344.699,340.459,344.864,338.839,344.864z"/>
<path d="M226.964,215.676c8.057,0,15.645-3.03,21.504-8.621c6.231-5.944,9.663-13.96,9.663-22.569v-19.876
	c0-5.853-2.717-11.468-7.267-15.02c-6.894-5.383-15.167-8.229-23.924-8.229c-8.757,0-17.029,2.845-23.925,8.229
	c-4.55,3.554-7.266,9.168-7.266,15.02v19.208c0,17.063,13.043,31.04,29.692,31.824C225.952,215.664,226.458,215.676,226.964,215.676
	z M210.749,183.816v-19.208c0-1.27,0.561-2.465,1.498-3.198c4.232-3.304,9.313-5.051,14.693-5.051
	c5.381,0,10.461,1.746,14.692,5.051c0.939,0.733,1.499,1.929,1.499,3.198v19.876c0,4.47-1.782,8.631-5.018,11.718
	c-3.232,3.084-7.458,4.66-11.967,4.455c0,0,0,0,0-0.001C217.658,200.257,210.749,192.702,210.749,183.816z M480.937,355.387
	c-1.217-5.897-4.66-10.966-9.694-14.273c-5.029-3.304-11.042-4.449-16.919-3.23c-24.199,4.998-35.345,18.144-43.481,27.74
	c-7.174,8.459-11.125,13.118-25.027,15.716c-12.526,2.339-20.323,0.815-26.734-2.772c5.01-10.51,8.314-21.899,9.586-33.873
	c17.565-7.05,32.276-17.56,43.885-31.436c11.365-13.584,19.398-29.967,24.031-48.902c11.318-2.931,20.121-12.703,21.438-24.677
	l11.795-107.264c0.839-7.626-1.343-15.123-6.143-21.107c-3.815-4.758-8.924-8.102-14.689-9.697
	c12.629-33.584,7.152-63.861,2.408-79.655c-3.428-11.409-13.288-19.684-25.12-21.077c-36.039-4.249-71.52,7.036-98.11,31.014
	c-24.287-8.666-50.59-13.197-77.274-13.197c-27.016,0-53.206,4.536-77.323,13.154C146.985,7.901,111.524-3.363,75.506,0.878
	c-11.833,1.395-21.692,9.669-25.118,21.077c-10.858,36.146-5.144,74.256,15.617,105.275c-7.475,17.482-11.372,36.1-11.372,55.235
	c0,34.766,12.797,63.63,38.035,85.792c11.507,10.104,25.607,18.716,41.912,25.598c1.649,0.696,3.335,1.366,5.031,2.028
	c-0.853,2.188-1.631,4.395-2.331,6.621c-16.62,13.2-35.587,12.098-56.404-3.284c-6.774-5.007-15.097-7.077-23.423-5.825
	c-8.332,1.251-15.678,5.671-20.684,12.446c-5.007,6.775-7.075,15.095-5.824,23.425c1.251,8.331,5.671,15.676,12.446,20.681
	c22.036,16.286,46.137,24.894,69.694,24.894c1.401,0,2.82-0.031,4.217-0.092c7.494-0.327,14.946-1.539,22.239-3.611
	c7.527,19.424,20.727,36.33,37.722,48.972c-1.626,14.326-3.09,38.621,0.916,65.068c2.315,15.29,15.709,26.818,31.152,26.818
	c1.579,0,3.178-0.121,4.752-0.359c17.194-2.604,29.063-18.712,26.459-35.905c-1.786-11.795-2.047-23.134-1.778-32.15
	c3.988,0.381,8.033,0.576,12.126,0.576c2.327,0,4.637-0.07,6.932-0.195c-0.298,14.264,0.532,28.362,2.48,41.215
	c2.315,15.29,15.709,26.818,31.152,26.818c1.579,0,3.178-0.121,4.752-0.359c11.999-1.817,21.719-10.14,25.367-21.719
	c1.245-3.95-0.948-8.162-4.899-9.407c-3.948-1.244-8.162,0.948-9.407,4.899c-1.915,6.076-7.014,10.443-13.307,11.396
	c-0.833,0.127-1.677,0.19-2.507,0.19c-8.091,0-15.108-6.047-16.323-14.065c-1.913-12.629-2.69-26.578-2.28-40.683
	c0.02-0.004,0.039-0.008,0.059-0.011c11.94-2.1,23.26-5.876,33.666-11.063c-0.604,7.003-0.98,15.526-0.676,25.062
	c0.132,4.142,3.621,7.435,7.734,7.258c4.141-0.132,7.39-3.595,7.258-7.734c-0.365-11.474,0.336-23.799,1.927-34.349
	c3.069-2.194,6.021-4.524,8.844-6.984c13.08,8.785,27.258,13.076,43.161,13.076c6.09,0,12.572-0.635,19.265-1.886
	c29.635-5.538,42.047-20.174,51.111-30.862c6.347-7.486,9.243-10.902,18.235-12.76c5.892-1.217,10.957-4.655,14.263-9.683
	C481.004,367.291,482.155,361.277,480.937,355.387z M116.647,359.765c-21.43,0.942-43.772-6.678-64.342-21.879
	c-3.553-2.625-5.871-6.477-6.527-10.846c-0.655-4.368,0.429-8.73,3.055-12.283c2.626-3.554,6.478-5.872,10.848-6.527
	c4.37-0.655,8.729,0.429,12.282,3.055c21.087,15.582,42.261,19.303,61.16,11.138c-0.397,3.704-0.603,7.443-0.603,11.213
	c0,7.941,0.909,15.686,2.622,23.156C129.065,358.492,122.87,359.493,116.647,359.765z M451.973,120.692
	c2.293,2.86,3.335,6.441,2.935,10.086l-11.796,107.264c-0.302,2.751-1.44,5.252-3.13,7.27c0.286-2.419,0.543-4.86,0.734-7.348
	c1.331-17.34-11.693-32.528-29.028-33.858c-8.4-0.656-16.547,2.017-22.943,7.502c-6.396,5.484-10.273,13.131-10.918,21.529
	c-0.309,4.02-0.788,7.805-1.436,11.373l-0.616-0.068c-3.644-0.4-6.913-2.196-9.206-5.057c-2.293-2.859-3.335-6.441-2.935-10.086
	l11.795-107.264c0.4-3.644,2.196-6.913,5.057-9.206c2.86-2.293,6.443-3.337,10.086-2.935l46.913,5.158
	c0.024,0.003,0.048,0.006,0.072,0.008l5.211,0.573C446.41,116.035,449.679,117.831,451.973,120.692z M433.68,99.546l-14.664-1.612
	c-9.181-12.696-20.365-24.288-33.213-34.437c18.257-14.673,38.248-21.843,54.086-25.33C442.734,53.664,443.481,75.806,433.68,99.546
	z M424.52,15.775c4.949,0.584,9.197,3.589,11.445,7.9c-18.389,4.136-41.71,12.778-62.706,30.743
	c-7.25-4.831-14.904-9.256-22.936-13.2c-2.111-1.036-4.249-2.029-6.402-2.997C366.541,20.464,395.308,12.336,424.52,15.775z
	 M77.261,15.775c29.188-3.433,57.943,4.68,80.561,22.414c-10.276,4.626-20.084,10.043-29.32,16.21
	c-20.99-17.954-44.301-26.59-62.682-30.724C68.066,19.363,72.313,16.359,77.261,15.775z M61.925,38.173
	c15.83,3.489,35.804,10.66,54.049,25.32c-1.123,0.887-2.236,1.785-3.338,2.697c-16.153,13.372-29.162,28.673-38.742,45.285
	C57.963,83.241,58.768,55.639,61.925,38.173z M211.838,496.809c-0.833,0.127-1.677,0.19-2.507,0.19
	c-8.091,0-15.108-6.047-16.323-14.065c-2.511-16.579-3.032-35.628-1.557-53.752c9.967,5.427,20.853,9.534,32.385,12.061
	c-0.385,10.012-0.197,23.059,1.875,36.736C227.079,486.997,220.854,495.443,211.838,496.809z M326.112,399.169
	c-0.18,0.161-0.354,0.331-0.521,0.511c-4.212,4.064-8.809,7.78-13.733,11.105c-0.042,0.027-0.089,0.046-0.131,0.075
	c-12.958,8.735-28.042,14.581-43.809,17.005c-0.062,0.01-0.124,0.018-0.186,0.027c-0.932,0.142-1.867,0.27-2.803,0.388
	c-4.595,0.577-9.28,0.882-14.04,0.882c-57,0-103.372-42.853-103.372-95.526c0-8.373,1.152-16.572,3.431-24.511
	c0.048-0.151,0.094-0.302,0.133-0.455c0.773-2.639,1.675-5.247,2.697-7.825c10.356,3.236,21.41,5.909,33.074,7.968
	c0.441,0.078,0.88,0.115,1.313,0.115c3.57,0,6.734-2.56,7.377-6.197c0.72-4.079-2.003-7.97-6.082-8.689
	c-13.375-2.361-25.708-5.502-36.997-9.382c-0.337-0.138-0.678-0.257-1.023-0.342c-19.598-6.852-35.961-15.988-48.877-27.328
	c-21.853-19.188-32.933-44.261-32.933-74.52c0-82.032,81.312-148.77,181.259-148.77c58.516,0,113.245,23.38,147.113,61.927
	l-5.796-0.637c-15.738-1.732-29.959,9.668-31.69,25.411l-5.831,53.029c-9.581-0.913-20.812-1.282-27.836-0.353
	c-4.106,0.542-6.995,4.312-6.453,8.418c0.542,4.106,4.311,6.991,8.418,6.453c5.467-0.723,15.559-0.401,24.23,0.401l-2.471,22.469
	c-9.119-4.961-20.636-10.195-27.757-12.085c-4.01-1.06-8.11,1.321-9.174,5.324c-1.063,4.004,1.321,8.111,5.324,9.174
	c7.27,1.93,21.711,8.894,29.819,13.84l-0.065,0.594c-0.839,7.626,1.343,15.122,6.143,21.107c4.407,5.497,10.54,9.108,17.419,10.312
	c-5.053,12.498-13.438,21.119-25.626,26.446c-27.265,8.986-59.48,13.546-95.767,13.546c-9.263,0-18.419-0.309-27.213-0.917
	c-4.151-0.277-7.715,2.833-8,6.965c-0.285,4.133,2.833,7.714,6.965,8c9.138,0.632,18.643,0.952,28.248,0.952
	c20.759,0,40.282-1.455,58.436-4.322c-0.921,2.472-1.556,5.084-1.838,7.806c-0.428,4.12,2.565,7.807,6.686,8.234
	c4.122,0.427,7.807-2.566,8.234-6.686c0.746-7.188,6.008-13.007,13.094-14.478c6.077-1.262,11.651-2.994,16.751-5.181
	c0.081-0.034,0.162-0.067,0.241-0.103c18.919-8.191,31.123-22.819,36.87-44.247c0.115-0.343,0.203-0.699,0.268-1.064
	c1.548-6.053,2.602-12.626,3.148-19.747c0.339-4.405,2.373-8.416,5.727-11.292c3.353-2.876,7.614-4.283,12.029-3.933
	c9.092,0.697,15.922,8.662,15.225,17.755c-0.512,6.667-1.402,13.045-2.656,19.133c-0.052,0.211-0.098,0.425-0.132,0.643
	c-3.905,18.506-11.243,34.275-21.925,47.043c-10.756,12.858-24.706,22.409-41.602,28.532c-0.21,0.063-0.415,0.133-0.617,0.213
	c-5.259,1.872-10.789,3.427-16.607,4.635c-2.809,0.582-5.72,0.431-8.429-0.447c-3.941-1.272-8.169,0.885-9.445,4.826
	c-1.275,3.94,0.885,8.169,4.826,9.445c3.127,1.012,6.378,1.525,9.664,1.525c2.153,0,4.319-0.224,6.436-0.663
	c2.546-0.529,5.03-1.135,7.485-1.779c-1.78,9.604-5.104,18.7-9.724,27.073c-0.168,0.261-0.317,0.53-0.449,0.804
	C338.165,385.629,332.604,392.812,326.112,399.169z M465.166,364.075c-1.104,1.68-2.797,2.828-4.765,3.235
	c-14.056,2.902-19.888,9.782-26.642,17.749c-8.451,9.965-18.029,21.259-42.426,25.818c-5.787,1.081-11.342,1.63-16.51,1.63
	c-11.969,0-22.406-2.855-32.289-8.905c3.326-3.791,6.389-7.793,9.16-11.984c10.54,5.92,22.011,7.241,36.875,4.467
	c19.143-3.577,25.894-11.54,33.713-20.759c7.472-8.813,15.939-18.801,35.082-22.753c1.961-0.409,3.964-0.025,5.642,1.078
	c1.684,1.105,2.834,2.8,3.241,4.771C466.655,360.389,466.271,362.397,465.166,364.075z M125.066,187.943
	c4.108,0.541,7.875-2.347,8.418-6.453c0.542-4.106-2.347-7.875-6.453-8.418c-10.917-1.443-33.319,0.233-42.721,2.583
	c-4.019,1.005-6.461,5.077-5.457,9.096c0.853,3.407,3.91,5.683,7.271,5.683c0.603,0,1.215-0.073,1.825-0.226
	C95.696,188.271,116.203,186.773,125.066,187.943z M299.648,166.455c4.143,0,7.5-3.358,7.5-7.5v-12.069c0-4.143-3.357-7.5-7.5-7.5
	c-4.143,0-7.5,3.357-7.5,7.5v12.069C292.148,163.098,295.505,166.455,299.648,166.455z M154.234,139.387c-4.143,0-7.5,3.357-7.5,7.5
	v12.069c0,4.142,3.357,7.5,7.5,7.5s7.5-3.358,7.5-7.5v-12.069C161.733,142.743,158.375,139.387,154.234,139.387z M131.062,198.73
	c-10.637,2.824-30.714,12.91-38.513,18.666c-3.332,2.46-4.04,7.155-1.58,10.488c1.471,1.992,3.74,3.046,6.04,3.046
	c1.547,0,3.107-0.477,4.448-1.466c6.429-4.745,24.815-13.943,33.454-16.236c4.003-1.063,6.387-5.17,5.324-9.174
	C139.173,200.051,135.067,197.67,131.062,198.73z"/>
<g>
</g>
<g>
</g>
<g>
</g>
<g>
</g>
<g>
</g>
<g>
</g>
<g>
</g>
<g>
</g>
<g>
</g>
<g>
</g>
<g>
</g>
<g>
</g>
<g>
</g>
<g>
</g>
<g>
</g>
</svg>
