<?xml version="1.0" encoding="iso-8859-1"?>
<!-- Generator: Adobe Illustrator 19.0.0, SVG Export Plug-In . SVG Version: 6.00 Build 0)  -->
<svg version="1.1" id="Capa_1" xmlns="http://www.w3.org/2000/svg" xmlns:xlink="http://www.w3.org/1999/xlink" x="0px" y="0px"
	 viewBox="0 0 512.001 512.001" style="enable-background:new 0 0 512.001 512.001;" xml:space="preserve">
<path style="fill:#EDA751;" d="M283.379,478.317c-2.716,0-5.579-0.17-8.611-0.533c-16.89-2.023-30.895-12.027-41.623-29.731
	c-8.271-13.652-13.746-30.252-18.576-44.9c-1.304-3.952-2.535-7.685-3.778-11.248c-2.522-7.222,1.288-15.119,8.508-17.641
	c7.223-2.521,15.12,1.29,17.641,8.509c1.323,3.791,2.591,7.635,3.933,11.706c9.988,30.29,19.069,53.631,37.19,55.803
	c16.456,1.971,21.396-4.544,30.364-16.374c8.403-11.082,18.862-24.875,40.422-29.493c7.482-1.609,14.84,3.163,16.442,10.641
	c1.602,7.479-3.163,14.841-10.641,16.442c-11.504,2.464-17.086,9.825-24.151,19.144
	C321.511,462.496,309.512,478.317,283.379,478.317z"/>
<path style="fill:#FCD79D;" d="M365.29,415.057c-1.602-7.478-8.961-12.25-16.442-10.641c-5.95,1.274-11.05,3.25-15.499,5.672
	c0.06,7.376,2.695,19.283,11.936,25.124c2.687-1.664,5.729-2.934,9.364-3.713C362.128,429.898,366.893,422.537,365.29,415.057z"/>
<path id="SVGCleanerId_0" style="fill:#EDA751;" d="M173.302,504.5c-8.222,0-16.119-4.595-19.95-12.487
	c-9.188-18.928-8.701-40.852,1.334-60.151c9.949-19.131,28.008-32.506,48.31-35.779c12.087-1.946,23.456,6.267,25.403,18.349
	s-6.268,23.456-18.349,25.403c-6.534,1.053-12.532,5.716-16.045,12.473c-1.659,3.19-5.055,11.557-0.785,20.353
	c5.344,11.01,0.752,24.267-10.257,29.611C179.845,503.782,176.547,504.5,173.302,504.5z"/>
<g>
	<path id="SVGCleanerId_0_1_" style="fill:#EDA751;" d="M173.302,504.5c-8.222,0-16.119-4.595-19.95-12.487
		c-9.188-18.928-8.701-40.852,1.334-60.151c9.949-19.131,28.008-32.506,48.31-35.779c12.087-1.946,23.456,6.267,25.403,18.349
		s-6.268,23.456-18.349,25.403c-6.534,1.053-12.532,5.716-16.045,12.473c-1.659,3.19-5.055,11.557-0.785,20.353
		c5.344,11.01,0.752,24.267-10.257,29.611C179.845,503.782,176.547,504.5,173.302,504.5z"/>
</g>
<path style="fill:#EDA751;" d="M81.156,464.439c-0.07,0-0.139,0-0.209-0.001c-12.237-0.112-22.066-10.125-21.953-22.362
	c0.414-44.973,33.57-71.166,54.37-77.113c11.767-3.366,24.032,3.448,27.395,15.214c3.364,11.766-3.448,24.031-15.214,27.395
	c-3.615,1.033-22.019,11.259-22.237,34.913C103.197,454.652,93.298,464.439,81.156,464.439z"/>
<g>
	<path style="opacity:0.2;fill:#A35F00;enable-background:new    ;" d="M260.799,439.438c-7.876-10.047-13.727-26.162-19.925-44.958
		c-1.342-4.07-2.61-7.914-3.933-11.706c-2.521-7.22-10.418-11.03-17.641-8.509c-7.221,2.522-11.031,10.419-8.509,17.641
		c1.243,3.563,2.474,7.296,3.778,11.248c4.83,14.647,10.305,31.248,18.576,44.9c0.907,1.497,1.847,2.919,2.801,4.306
		c8.074-3.037,15.795-6.94,23.031-11.677C259.594,440.277,260.191,439.852,260.799,439.438z"/>
	<path style="opacity:0.2;fill:#A35F00;enable-background:new    ;" d="M202.995,396.083c-20.302,3.273-38.362,16.648-48.31,35.779
		c-3.367,6.475-5.653,13.246-6.866,20.099c0.332,0.124,0.661,0.253,0.995,0.375c13.817,5.028,28.148,7.64,42.62,7.784
		c0.545-3.466,1.762-6.257,2.57-7.812c3.513-6.757,9.512-11.42,16.045-12.473c12.081-1.948,20.296-13.321,18.349-25.403
		C226.45,402.349,215.081,394.136,202.995,396.083z"/>
	<path style="opacity:0.2;fill:#A35F00;enable-background:new    ;" d="M113.366,364.964c-10.468,2.992-24.062,11.118-35.04,24.179
		c0.47,0.983,0.951,1.964,1.451,2.939c6.756,13.2,15.824,24.949,26.718,34.833c5.479-12.705,16.361-18.573,19.052-19.342
		c11.766-3.364,18.578-15.629,15.214-27.395C137.398,368.412,125.133,361.598,113.366,364.964z"/>
</g>
<ellipse transform="matrix(0.342 -0.9397 0.9397 0.342 -200.3939 403.5255)" style="fill:#FCD690;" cx="187.944" cy="344.856" rx="94.969" ry="102.199"/>
<path style="opacity:0.15;fill:#C17A00;enable-background:new    ;" d="M141.776,428.037c-33.399-44.787,1.696-98.89,18.546-122.004
	l20.755-57.023c-39.635,0.785-75.657,23.737-89.178,60.886C75.571,354.756,97.68,404.844,141.776,428.037z"/>
<path style="fill:#EDA751;" d="M185.812,168.838c24.532-8.929,46.714-30.833,34.45-79.612
	c-12.361-49.165-48.539-73.528-80.923-81.172c-7.984-1.885-16.37,1.168-21.275,7.743c-19.896,26.673-31.949,68.591-9.815,114.199
	C130.209,175.245,161.281,177.767,185.812,168.838z"/>
<path style="fill:#FF91AB;" d="M115.146,19.924c-18.091,26.76-27.923,66.745-6.897,110.071
	c19.034,39.222,44.912,46.333,67.444,41.719C194.32,81.131,147.295,38.196,115.146,19.924z"/>
<path style="fill:#EDA751;" d="M302.701,211.382c-13.053-22.609-15.966-53.646,24.784-83.13
	c41.072-29.717,84.445-25.126,114.167-10.165c7.328,3.688,11.79,11.417,11.32,19.607c-1.904,33.221-19.616,73.079-65.886,93.789
	C341.178,252.031,315.754,233.99,302.701,211.382z"/>
<path style="fill:#FF91AB;" d="M452.555,142.731c-3.342,32.128-21.513,69.078-65.468,88.752
	c-39.792,17.811-64.185,6.624-78.482-11.394C352.561,138.726,416.182,136.063,452.555,142.731z"/>
<path style="fill:#FFDC9C;" d="M399.096,273.42c-27.21,74.757-112.329,80.857-202.629,47.991S44.883,229.157,72.093,154.4
	s122.47-108.717,212.769-75.851S426.306,198.662,399.096,273.42z"/>
<path style="opacity:0.15;fill:#C17A00;enable-background:new    ;" d="M189.953,67.673C135.432,74.995,89.628,106.22,72.093,154.4
	c-23.39,64.264,18.615,117.169,88.229,151.633C78.823,205.924,122.859,127.193,189.953,67.673z"/>
<g>
	
		<ellipse transform="matrix(0.342 -0.9397 0.9397 0.342 -75.0479 268.5289)" style="fill:#FF91AB;" cx="154.221" cy="187.853" rx="25.09" ry="31.504"/>
	
		<ellipse transform="matrix(-0.342 0.9397 -0.9397 -0.342 653.7129 34.7881)" style="fill:#FF91AB;" cx="314.677" cy="246.267" rx="25.09" ry="31.504"/>
	<path style="fill:#FF91AB;" d="M206.686,257.114c0.18,0.147,0.359,0.292,0.537,0.435c6.261,5.049,14.014,7.871,22.056,8.028
		c0.229,0.004,0.459,0.008,0.691,0.012c13.266,0.186,25.168-8.137,29.705-20.604l9.515-26.143c1.576-4.329-0.189-9.163-4.183-11.459
		l0,0c-14.794-8.505-30.948-14.384-47.747-17.378l0,0c-4.535-0.808-8.995,1.761-10.57,6.09l-9.515,26.143
		C192.636,234.703,196.404,248.729,206.686,257.114z"/>
</g>
<g>
	<path style="fill:#82C7E6;" d="M101.889,137.841c17.368-3.003,27.431,1.375,34.145,7.001c4.887,4.095,12.386,0.001,11.62-6.329
		c-3.557-29.413-28.119-48.295-53.495-43.851c-13.088,2.292-21.42,15.747-16.923,28.866
		C80.712,133.669,91.325,139.668,101.889,137.841z"/>
	<path style="fill:#82C7E6;" d="M386.914,241.582c-11.374-13.464-21.897-16.579-30.656-16.585c-6.376-0.005-9.489-7.96-4.834-12.318
		c21.631-20.245,52.583-18.921,69.166,0.795c8.553,10.169,6.287,25.831-5.591,32.99
		C405.818,251.998,393.832,249.771,386.914,241.582z"/>
</g>
<path style="fill:#EDA751;" d="M238.449,432.593c-12.678,0-28.374-4.393-46.926-17.578c-9.974-7.09-12.314-20.924-5.224-30.898
	c7.09-9.975,20.925-12.313,30.898-5.224c12.744,9.058,20.985,10.43,24.438,8.688c4.127-2.074,7.342-9.964,7.462-15.633
	c0.257-12.234,10.388-21.972,22.619-21.686c12.235,0.256,21.944,10.383,21.686,22.619c-0.405,19.254-10.413,43.509-31.858,54.292
	C255.537,430.195,247.817,432.593,238.449,432.593z"/>
<path style="opacity:0.1;fill:#C18F00;enable-background:new    ;" d="M238.449,432.593c-12.678,0-28.374-4.393-46.926-17.578
	c-9.974-7.09-12.314-20.924-5.224-30.898c7.09-9.975,20.925-12.313,30.898-5.224c12.744,9.058,20.985,10.43,24.438,8.688
	c4.127-2.074,7.342-9.964,7.462-15.633c0.257-12.234,10.388-21.972,22.619-21.686c12.235,0.256,21.944,10.383,21.686,22.619
	c-0.405,19.254-10.413,43.509-31.858,54.292C255.537,430.195,247.817,432.593,238.449,432.593z"/>
<path style="fill:#EDA751;" d="M114.835,381.377c-1.252,0-2.52-0.106-3.795-0.326c-17.651-3.047-32.794-14.928-40.507-31.781
	c-8.16-17.829-6.989-38.523,3.132-55.354c6.307-10.49,19.924-13.877,30.408-7.57c10.487,6.307,13.877,19.921,7.57,30.408
	c-2.579,4.29-2.884,9.551-0.815,14.073c0.78,1.703,3.094,5.751,7.75,6.553c12.059,2.082,20.147,13.546,18.066,25.605
	C134.783,373.769,125.419,381.377,114.835,381.377z"/>
<path style="opacity:0.15;fill:#C18F00;enable-background:new    ;" d="M114.835,381.377c-1.252,0-2.52-0.106-3.795-0.326
	c-17.651-3.047-32.794-14.928-40.507-31.781c-8.16-17.829-6.989-38.523,3.132-55.354c6.307-10.49,19.924-13.877,30.408-7.57
	c10.487,6.307,13.877,19.921,7.57,30.408c-2.579,4.29-2.884,9.551-0.815,14.073c0.78,1.703,3.094,5.751,7.75,6.553
	c12.059,2.082,20.147,13.546,18.066,25.605C134.783,373.769,125.419,381.377,114.835,381.377z"/>
<path d="M268.744,200.88c-15.589-8.962-32.469-15.105-50.168-18.26c-8.148-1.448-16.106,3.137-18.935,10.908l-9.516,26.143
	c-5.643,15.504-0.893,32.887,11.819,43.255c0.001,0,0.001,0,0.001,0.001l0.567,0.459c7.515,6.061,16.968,9.502,26.637,9.689
	l0.714,0.012c0.18,0.003,0.358,0.004,0.538,0.004c16.188,0,30.738-10.208,36.319-25.542l9.516-26.144
	C279.065,213.634,275.914,205.003,268.744,200.88z M262.141,216.276l-9.516,26.143c-3.425,9.41-12.328,15.673-22.204,15.673
	c-0.108,0-0.218,0-0.326-0.002l-0.672-0.012c-6.342-0.123-12.555-2.384-17.488-6.364l-0.511-0.413
	c-7.77-6.338-10.665-16.987-7.203-26.499l9.516-26.144c0.33-0.905,1.261-1.444,2.206-1.271c15.991,2.85,31.241,8.4,45.325,16.496
	C262.104,214.364,262.471,215.371,262.141,216.276z M147.47,197.186c-10.166-0.913-30.848,1.506-39.464,4.048
	c-3.973,1.172-6.243,5.342-5.071,9.315c0.963,3.265,3.95,5.38,7.19,5.38c0.702,0,1.417-0.1,2.125-0.309
	c6.864-2.024,25.892-4.205,33.878-3.495c4.123,0.377,7.771-2.672,8.141-6.799C154.64,201.201,151.596,197.556,147.47,197.186z
	 M445.025,111.387c-29.942-15.071-64.284-16.527-94.96-4.2c-18.098-14.955-39.302-27.192-62.638-35.686
	c-23.337-8.494-47.447-12.749-70.923-12.926c-15.574-29.161-42.819-50.12-75.443-57.821c-10.916-2.576-22.303,1.566-29.01,10.559
	c-9.924,13.304-25.467,40.379-22.88,76.868c-6.92,2.158-12.839,6.797-16.577,13.125c-4.386,7.424-5.28,16.411-2.454,24.654
	c0.87,2.537,2.081,4.889,3.569,7.021c-3.394,6.052-6.305,12.37-8.666,18.854c-10.855,29.823-9.076,58.617,5.286,85.586
	c7.519,14.117,18.339,27.393,32.287,39.722c-0.055,0.064-0.109,0.129-0.164,0.194c-5.412-1.907-11.265-2.2-16.961-0.781
	c-7.688,1.913-14.172,6.707-18.254,13.496c-11.397,18.955-12.715,42.26-3.523,62.34c4.15,9.07,10.213,16.867,17.583,22.932
	c-12.402,11.3-29.491,32.96-29.802,66.685c-0.073,7.921,2.943,15.397,8.493,21.051s12.97,8.807,20.855,8.879l0.313,0.002
	c16.201,0,29.504-13.182,29.653-29.384c0.09-9.782,3.987-16.557,7.859-20.898c7.635,6.28,16.155,11.621,25.369,15.845
	c-7.038,19.059-6.198,39.729,2.567,57.785c4.929,10.151,15.407,16.711,26.697,16.711c4.507,0,8.86-1.004,12.936-2.983
	c5.607-2.722,10.138-7.048,13.104-12.512c1.977-3.64,0.628-8.193-3.013-10.169c-3.639-1.979-8.193-0.629-10.169,3.013
	c-1.463,2.693-3.701,4.828-6.474,6.174c-2.019,0.98-4.166,1.478-6.385,1.478c-5.67,0-10.73-3.166-13.203-8.262
	c-6.932-14.281-7.599-30.672-2.052-45.858c9.776,3.065,19.752,4.82,29.696,5.26c-0.13,0.236-0.267,0.466-0.391,0.706
	c-1.397,2.689-3.737,8.205-3.7,14.949c0.022,4.129,3.376,7.459,7.499,7.459h0.042c4.143-0.023,7.481-3.399,7.459-7.541
	c-0.021-3.647,1.397-6.771,2.009-7.946c2.425-4.663,6.382-7.851,10.583-8.528c2.192-0.352,4.333-0.965,6.391-1.796
	c1.617-0.371,3.224-0.784,4.825-1.228c1.393,2.744,2.808,5.305,4.275,7.726c11.984,19.779,27.847,30.979,47.143,33.29
	c3.246,0.391,6.444,0.588,9.506,0.588c29.862,0,43.844-18.44,53.095-30.644c6.603-8.708,10.964-14.46,19.745-16.341
	c11.511-2.465,18.87-13.836,16.405-25.348c-1.195-5.576-4.488-10.353-9.273-13.452c-4.791-3.102-10.503-4.151-16.074-2.952
	c-24.282,5.201-36.155,20.86-44.829,32.299c-8.688,11.458-11.314,14.913-23.494,13.456c-3.232-0.387-7.845-1.886-13.254-9.38
	c23.685-12.374,34.754-39.153,35.2-60.417c0.122-5.769-1.405-11.316-4.357-16.116c0.236-3.023,0.327-6.067,0.278-9.117
	c9.088-0.236,17.781-1.116,26.005-2.662c40.834-7.676,69.644-31.592,83.318-69.161c2.36-6.483,4.19-13.194,5.481-20.012
	c2.51-0.677,4.95-1.7,7.246-3.083c7.465-4.498,12.556-11.957,13.969-20.464c1.204-7.253-0.349-14.615-4.267-20.718
	c25.443-26.291,30.939-57.017,31.887-73.583C461.102,126.925,455.044,116.43,445.025,111.387z M137.615,15.353
	c12.765,3.013,42.539,13.088,61.915,43.81c-9.973,0.776-19.76,2.319-29.256,4.593c-12.377-21.75-29.485-36.42-43.954-45.807
	C129.435,15.416,133.591,14.402,137.615,15.353z M117.573,30.154c12.311,7.895,26.845,20.071,37.784,37.858
	c-14.611,4.89-28.304,11.671-40.638,20.266c-3.471-0.942-7.025-1.509-10.621-1.688C102.524,62.447,110.086,43.065,117.573,30.154z
	 M85.509,108.934c2.153-3.646,5.777-6.154,9.942-6.884c6.015-1.054,12.079-0.532,17.764,1.453c0.163,0.065,0.327,0.126,0.493,0.179
	c3.326,1.216,6.52,2.93,9.489,5.133c9.194,6.825,15.167,17.325,16.887,29.65c-7.616-6.092-16.695-9.107-27.528-9.107
	c-3.765,0-7.744,0.365-11.945,1.091h0.001c-4.661,0.808-9.299-0.695-12.557-3.701c-0.032-0.03-0.065-0.059-0.097-0.088
	c-1.613-1.516-2.884-3.398-3.628-5.566C82.908,116.948,83.327,112.63,85.509,108.934z M77.353,346.149
	c-7.129-15.577-6.104-33.659,2.74-48.369c2.018-3.355,5.222-5.724,9.021-6.67c1.183-0.294,2.379-0.44,3.566-0.44
	c2.629,0,5.217,0.712,7.527,2.103c3.355,2.018,5.725,5.221,6.67,9.021c0.946,3.8,0.356,7.739-1.662,11.096
	c-3.855,6.412-4.307,14.284-1.205,21.06c1.275,2.784,5.124,9.412,13.292,10.82c7.965,1.375,13.326,8.974,11.952,16.939
	c-1.218,7.051-7.281,12.168-14.419,12.168c-0.841,0-1.69-0.073-2.521-0.216c-5.539-0.956-10.787-2.939-15.553-5.765
	c-0.021-0.012-0.043-0.025-0.064-0.036C88.404,362.925,81.591,355.41,77.353,346.149z M95.809,442.417
	c-0.073,8.008-6.647,14.522-14.653,14.522l-0.14-0.001c-3.915-0.035-7.581-1.594-10.324-4.389
	c-2.743-2.794-4.233-6.488-4.197-10.403c0.253-27.529,13.858-45.419,24.134-55.026c4.563,8.824,10.327,16.97,17.1,24.249
	C101.902,417.765,95.944,427.85,95.809,442.417z M277.171,457.729c20.724,2.484,28.01-7.124,37.234-19.29
	c8.052-10.619,17.179-22.655,36.021-26.691c1.654-0.355,3.35-0.045,4.772,0.876c1.425,0.923,2.404,2.345,2.76,4.004
	c0.733,3.424-1.455,6.806-4.878,7.538c-14.228,3.048-21.189,12.228-28.558,21.946c-8.78,11.58-18.732,24.706-41.143,24.706
	c-2.466,0-5.061-0.162-7.72-0.482c-14.482-1.733-26.629-10.539-36.1-26.169c-0.795-1.312-1.575-2.678-2.348-4.104
	c0.412,0.008,0.826,0.03,1.236,0.03c4.352,0,8.601-0.472,12.732-1.372C258.467,450.277,267.009,456.512,277.171,457.729z
	 M258.175,420.473c-6.096,3.065-12.732,4.62-19.727,4.62c-13.139,0-27.465-5.447-42.581-16.192
	c-3.191-2.268-5.309-5.643-5.961-9.505c-0.653-3.86,0.237-7.744,2.506-10.936c2.268-3.19,5.644-5.308,9.505-5.96
	c0.826-0.14,1.653-0.209,2.475-0.209c3.016,0,5.952,0.932,8.46,2.714c13.53,9.616,24.95,12.905,32.15,9.276
	c7.755-3.897,11.447-15.314,11.593-22.177c0.083-3.927,1.692-7.585,4.531-10.3c2.823-2.701,6.51-4.113,10.433-4.047
	c3.914,0.082,7.563,1.684,10.272,4.51c2.71,2.826,4.156,6.539,4.074,10.454C285.547,389.731,276.836,411.091,258.175,420.473z
	 M392.048,270.854c-11.93,32.777-36.152,52.812-71.993,59.549c-9.646,1.813-20.027,2.623-31.022,2.461
	c-0.06-0.001-0.12-0.004-0.18-0.003c-26.805-0.422-57.277-6.653-89.821-18.499c-8.309-3.023-16.406-6.296-24.068-9.725
	c-3.78-1.691-8.217,0-9.909,3.782c-1.692,3.78,0.001,8.217,3.782,9.909c7.987,3.575,16.421,6.982,25.064,10.129
	c22.736,8.275,44.6,13.923,65.114,16.912c-3.008,1.366-5.798,3.245-8.258,5.598c-5.738,5.489-8.991,12.885-9.158,20.822
	c-0.071,3.353-1.94,7.639-3.208,8.938c-1.264-0.004-6.441-0.551-16.849-7.947c-6.457-4.589-14.314-6.392-22.126-5.068
	c-7.811,1.32-14.641,5.604-19.23,12.06c-4.59,6.457-6.391,14.315-5.069,22.127c1.32,7.812,5.604,14.641,12.061,19.23
	c6.38,4.535,12.7,8.251,18.94,11.166c-15.859,2.211-32.332,0.488-48.099-5.251c-20.701-7.535-37.998-21.27-49.416-38.821
	c0.387,0.075,0.773,0.152,1.162,0.22c1.672,0.287,3.378,0.434,5.069,0.434c14.457,0,26.737-10.353,29.2-24.616
	c2.781-16.115-8.066-31.489-24.183-34.271c-1.223-0.211-2.108-2.075-2.205-2.284c-1.038-2.27-0.881-4.919,0.423-7.086
	c4.082-6.789,5.276-14.762,3.362-22.449c-0.823-3.306-2.181-6.386-3.998-9.151c6.132,4.475,12.694,8.813,19.731,12.99
	c1.2,0.713,2.52,1.052,3.821,1.052c2.56,0,5.055-1.312,6.456-3.673c2.114-3.561,0.94-8.163-2.621-10.277
	c-9.776-5.803-18.572-11.896-26.411-18.244c-0.107-0.094-0.218-0.182-0.329-0.269c-15.314-12.458-26.889-25.915-34.511-40.228
	c-12.277-23.054-13.769-47.751-4.431-73.404c1.762-4.84,3.875-9.575,6.295-14.155c5.384,2.528,11.555,3.49,17.732,2.422
	c0,0,0,0,0.001,0c16.084-2.782,23.714,1.726,28.05,5.359c2.676,2.242,5.964,3.391,9.293,3.391c2.387,0,4.796-0.591,7.014-1.794
	c5.324-2.887,8.297-8.608,7.575-14.575c-2.038-16.859-10.192-31.363-22.961-40.842c-0.469-0.348-0.949-0.674-1.425-1.005
	c41.895-25.335,98.744-29.402,151.584-10.17c52.838,19.231,93.774,58.889,109.582,105.227c-0.578-0.053-1.155-0.112-1.738-0.146
	c-15.867-0.952-31.443,4.922-43.842,16.526c-4.389,4.108-5.788,10.402-3.565,16.036c2.218,5.62,7.524,9.253,13.518,9.257
	c5.657,0.005,14.397,1.453,24.933,13.925c4.045,4.789,9.391,8.017,15.141,9.541C395.236,261.028,393.81,266.014,392.048,270.854z
	 M418.042,229.967c-0.703,4.232-3.158,7.811-6.914,10.073c-1.945,1.173-4.108,1.798-6.299,1.93
	c-0.071,0.003-0.142,0.003-0.212,0.008c-4.418,0.2-8.926-1.629-11.973-5.237c-10.664-12.623-22.248-18.923-35.392-19.233
	c9.237-8.335,20.563-12.54,31.996-11.857c3.752,0.224,7.357,0.981,10.734,2.224c0.106,0.04,0.209,0.083,0.317,0.118
	c5.636,2.134,10.62,5.633,14.552,10.308C417.573,221.538,418.736,225.79,418.042,229.967z M418.159,200.895
	c-2.867-2.172-5.952-4.021-9.215-5.529c-3.924-14.513-10.054-28.509-18.104-41.646c19.815-6.593,38.774-6.578,53.278-4.714
	C441.556,163.707,434.888,183.412,418.159,200.895z M382.15,140.872c-5.813-7.846-12.319-15.319-19.46-22.324
	c34.591-11.079,63.875,0.34,75.59,6.238c3.693,1.859,6.225,5.306,6.982,9.248C428.145,131.924,405.61,132.167,382.15,140.872z
	 M313.851,257.744c-3.399-2.367-8.074-1.532-10.441,1.865c-2.368,3.399-1.533,8.073,1.865,10.441
	c6.585,4.588,19.751,18.492,23.707,24.454c1.443,2.176,3.826,3.354,6.256,3.354c1.424,0,2.864-0.405,4.14-1.252
	c3.451-2.29,4.394-6.944,2.103-10.396C336.514,278.727,322.224,263.578,313.851,257.744z M361.616,252.493
	c-7.443-5.027-26.428-13.589-36.393-15.793c-4.043-0.893-8.048,1.66-8.942,5.704c-0.895,4.044,1.659,8.048,5.704,8.942
	c7.835,1.732,25.306,9.571,31.234,13.576c1.287,0.869,2.747,1.286,4.191,1.286c2.407,0,4.772-1.157,6.222-3.303
	C365.951,259.473,365.048,254.811,361.616,252.493z M152.285,173.755c-9.054-4.717-29.099-10.361-38.029-11.293
	c-4.128-0.442-7.808,2.561-8.237,6.681c-0.431,4.119,2.561,7.808,6.681,8.237c7.113,0.743,25.535,5.968,32.654,9.678
	c1.107,0.577,2.292,0.851,3.46,0.851c2.706,0,5.32-1.47,6.657-4.036C157.384,180.198,155.958,175.669,152.285,173.755z
	 M197.309,176.848c1.841-5.06,1.602-10.533-0.673-15.413c-2.275-4.879-6.315-8.58-11.374-10.422
	c-10.445-3.799-22.032,1.603-25.836,12.046c-1.417,3.893,0.59,8.196,4.481,9.614c3.895,1.413,8.196-0.59,9.614-4.481
	c0.973-2.673,3.94-4.056,6.609-3.083c1.295,0.471,2.328,1.418,2.91,2.666c0.582,1.248,0.644,2.648,0.172,3.942
	c-1.417,3.893,0.591,8.196,4.482,9.613c0.847,0.308,1.713,0.454,2.565,0.454C193.325,181.785,196.201,179.893,197.309,176.848z
	 M305.506,212.347c1.247-0.581,2.648-0.645,3.941-0.172c2.673,0.973,4.056,3.938,3.083,6.609c-1.417,3.893,0.591,8.196,4.482,9.613
	c0.847,0.308,1.713,0.454,2.564,0.454c3.065,0,5.941-1.892,7.049-4.937c3.801-10.443-1.604-22.033-12.047-25.836
	c-5.059-1.84-10.533-1.604-15.413,0.674c-4.879,2.275-8.581,6.315-10.422,11.375c-1.416,3.893,0.591,8.196,4.483,9.612
	c3.894,1.418,8.195-0.592,9.612-4.483C303.311,213.963,304.258,212.929,305.506,212.347z"/>
<g>
</g>
<g>
</g>
<g>
</g>
<g>
</g>
<g>
</g>
<g>
</g>
<g>
</g>
<g>
</g>
<g>
</g>
<g>
</g>
<g>
</g>
<g>
</g>
<g>
</g>
<g>
</g>
<g>
</g>
</svg>
