<?xml version="1.0" encoding="iso-8859-1"?>
<!-- Generator: Adobe Illustrator 19.0.0, SVG Export Plug-In . SVG Version: 6.00 Build 0)  -->
<svg version="1.1" id="Capa_1" xmlns="http://www.w3.org/2000/svg" xmlns:xlink="http://www.w3.org/1999/xlink" x="0px" y="0px"
	 viewBox="0 0 512.001 512.001" style="enable-background:new 0 0 512.001 512.001;" xml:space="preserve">
<g>
	<path style="fill:#EDA751;" d="M64.702,446.623c-5.81,0-11.34-3.396-13.782-9.073c-3.273-7.608,0.241-16.429,7.848-19.701
		c8.933-3.843,18.079-7.703,26.923-11.436c43.451-18.339,88.381-37.3,108.088-54.703c6.209-5.479,15.684-4.891,21.166,1.315
		c5.482,6.208,4.894,15.685-1.314,21.167c-23.381,20.647-68.505,39.691-116.278,59.851c-8.798,3.713-17.895,7.552-26.731,11.355
		C68.69,446.229,66.68,446.623,64.702,446.623z"/>
	<path style="fill:#EDA751;" d="M209.724,504.5c-12.672,0-23.262-9.926-23.939-22.728c-2.334-44.158,1.127-75.282,10.286-92.507
		c6.22-11.702,20.748-16.143,32.449-9.922c11.7,6.221,16.142,20.749,9.921,32.448c-2.804,5.276-6.957,25.415-4.735,67.448
		c0.699,13.233-9.461,24.526-22.693,25.225C210.581,504.488,210.15,504.5,209.724,504.5z"/>
	<path style="fill:#EDA751;" d="M302.276,504.5c-0.428,0-0.856-0.012-1.288-0.035c-13.233-0.7-23.393-11.993-22.692-25.225
		c2.221-42.031-1.932-62.172-4.737-67.446c-6.221-11.701-1.78-26.227,9.921-32.449c11.702-6.217,26.228-1.78,32.449,9.921
		c9.159,17.227,12.62,48.351,10.285,92.509C325.538,494.573,314.947,504.5,302.276,504.5z"/>
	<path style="fill:#EDA751;" d="M80.875,370.843c-8.569,0-16.858-4.601-21.18-12.686c-6.247-11.686-1.839-26.223,9.847-32.472
		c37.455-20.023,73.219-26.287,96.862-29.255c13.143-1.654,25.144,7.668,26.795,20.815c1.651,13.149-7.669,25.145-20.817,26.795
		c-19.859,2.494-49.781,7.691-80.215,23.962C88.564,369.929,84.69,370.843,80.875,370.843z"/>
	<path style="fill:#EDA751;" d="M431.126,370.843c-3.817,0-7.69-0.913-11.292-2.839c-30.433-16.272-60.355-21.468-80.215-23.962
		c-13.147-1.651-22.467-13.648-20.815-26.795c1.651-13.147,13.638-22.463,26.795-20.815c23.642,2.969,59.407,9.232,96.861,29.255
		c11.686,6.248,16.095,20.785,9.847,32.472C447.984,366.241,439.694,370.843,431.126,370.843z"/>
</g>
<g>
	<path style="opacity:0.2;fill:#A35F00;enable-background:new    ;" d="M166.402,296.429c-10.19,1.279-22.634,3.175-36.492,6.516
		c-2.601,9.627-3.989,19.704-3.989,30.079c0,6.905,0.622,13.675,1.798,20.27c17.14-5.274,32.72-7.755,44.661-9.254
		c13.149-1.651,22.467-13.648,20.817-26.795C191.548,304.097,179.545,294.775,166.402,296.429z"/>
	<path style="opacity:0.2;fill:#A35F00;enable-background:new    ;" d="M193.78,351.71c-11.682,10.316-32.226,21.179-56.071,32.135
		c4.448,9.109,10.055,17.617,16.639,25.36c24.626-11.486,45.653-22.977,59.283-35.014c6.208-5.483,6.797-14.96,1.314-21.167
		C209.463,346.819,199.987,346.23,193.78,351.71z"/>
	<path style="opacity:0.2;fill:#A35F00;enable-background:new    ;" d="M228.52,379.343c-11.701-6.221-26.228-1.78-32.449,9.922
		c-5.563,10.462-9.019,26.059-10.356,46.581c14.157,8.577,30.189,14.645,47.381,17.527c0.251-24.721,3.194-37.534,5.345-41.581
		C244.661,400.092,240.219,385.564,228.52,379.343z"/>
	<path style="opacity:0.2;fill:#A35F00;enable-background:new    ;" d="M315.93,389.264c-6.221-11.701-20.748-16.138-32.449-9.921
		c-11.7,6.222-16.142,20.749-9.921,32.449c2.152,4.047,5.094,16.86,5.346,41.58c17.192-2.882,33.224-8.95,47.381-17.527
		C324.949,415.324,321.492,399.726,315.93,389.264z"/>
	<path style="opacity:0.2;fill:#A35F00;enable-background:new    ;" d="M318.803,317.246c-1.652,13.148,7.669,25.144,20.815,26.795
		c11.941,1.5,27.521,3.981,44.662,9.254c1.176-6.596,1.798-13.366,1.798-20.27c0-10.376-1.387-20.453-3.989-30.079
		c-13.858-3.341-26.302-5.236-36.491-6.516C332.441,294.782,320.454,304.098,318.803,317.246z"/>
</g>
<ellipse style="fill:#FCD690;" cx="256.004" cy="333.021" rx="110.667" ry="102.827"/>
<path style="opacity:0.15;fill:#C17A00;enable-background:new    ;" d="M239.84,434.762
	c-50.571-33.201-34.898-101.25-26.313-131.009v-65.708c-40.038,15.478-68.191,52.172-68.191,94.981
	C145.336,384.716,186.383,427.493,239.84,434.762z"/>
<path style="fill:#EDA751;" d="M188.654,154.714c21.654-18.171,36.112-48.673,5.569-93.765C163.437,15.503,117.604,4.11,81.82,8.326
	c-8.822,1.039-16.225,7.251-18.78,15.758c-10.366,34.507-7.106,81.624,32.306,119.833
	C134.449,181.826,166.999,172.885,188.654,154.714z"/>
<path style="fill:#FF91AB;" d="M61.6,29.363c-8.498,33.928-3.693,78.255,33.746,114.553c33.893,32.859,62.856,30.511,84.076,17.473
	C164.829,62.32,101.08,36.05,61.6,29.363z"/>
<path style="fill:#EDA751;" d="M323.346,154.714c-21.654-18.171-36.113-48.673-5.569-93.765
	c30.785-45.447,76.62-56.84,112.403-52.624c8.822,1.039,16.224,7.251,18.78,15.758c10.366,34.507,7.105,81.624-32.306,119.833
	C377.551,181.826,345.001,172.885,323.346,154.714z"/>
<path style="fill:#FF91AB;" d="M450.4,29.363c8.498,33.928,3.693,78.255-33.746,114.553c-33.893,32.859-62.856,30.511-84.076,17.473
	C347.172,62.32,410.921,36.05,450.4,29.363z"/>
<path style="fill:#FFDC9C;" d="M444.405,182.139c0,86.144-84.352,123.874-188.405,123.874S67.596,268.283,67.596,182.139
	S151.948,26.162,256.001,26.162S444.405,95.996,444.405,182.139z"/>
<path style="opacity:0.15;fill:#C17A00;enable-background:new    ;" d="M155.402,50.244
	c-52.765,27.641-87.806,76.378-87.806,131.896c0,74.052,62.333,112.327,145.931,121.614
	C93.524,232.072,109.175,135.655,155.402,50.244z"/>
<g>
	<ellipse style="fill:#FF91AB;" cx="163.546" cy="185.775" rx="34.109" ry="27.169"/>
	<ellipse style="fill:#FF91AB;" cx="348.452" cy="185.775" rx="34.109" ry="27.169"/>
	<path style="fill:#FF91AB;" d="M270.07,308.558L270.07,308.558c10.344-5.285,16.854-15.922,16.854-27.537V174.469
		c0-7.315-3.801-14.148-10.098-17.872c-6.103-3.609-13.221-5.682-20.825-5.682s-14.723,2.073-20.825,5.682
		c-6.296,3.723-10.098,10.557-10.098,17.872v106.553c0,11.616,6.51,22.251,16.854,27.537l0,0
		C250.767,313.073,261.234,313.073,270.07,308.558z"/>
</g>
<path style="opacity:0.1;enable-background:new    ;" d="M276.826,156.597c-6.103-3.609-13.221-5.682-20.825-5.682
	s-14.723,2.073-20.825,5.682c-6.296,3.723-10.098,10.557-10.098,17.872v24.576c0-7.315,3.801-14.148,10.098-17.872
	c6.103-3.609,13.221-5.682,20.825-5.682c7.605,0,14.723,2.073,20.825,5.682c6.296,3.723,10.098,10.557,10.098,17.872v-24.576
	C286.923,167.154,283.122,160.321,276.826,156.597z"/>
<g>
	<circle style="fill:#FFFFFF;" cx="183.426" cy="146.626" r="27.346"/>
	<circle style="fill:#FFFFFF;" cx="328.572" cy="146.626" r="27.346"/>
</g>
<path style="fill:#FCD79D;" d="M68.278,413.783c-3.181,1.353-6.36,2.709-9.51,4.065c-7.608,3.273-11.122,12.094-7.848,19.701
	c2.443,5.676,7.972,9.073,13.782,9.073c1.978,0,3.988-0.394,5.92-1.224c3.232-1.391,6.502-2.786,9.776-4.178
	C79.495,429.013,73.138,418.087,68.278,413.783z"/>
<path d="M43.771,107.356c2.678,0,5.269-1.438,6.62-3.965c1.954-3.652,0.577-8.197-3.076-10.15L26.893,82.319
	c-3.651-1.953-8.197-0.577-10.15,3.076c-1.954,3.652-0.577,8.197,3.076,10.15l20.421,10.923
	C41.367,107.07,42.577,107.356,43.771,107.356z M87.16,274.278c-1.791-3.735-6.271-5.313-10.005-3.521l-46.074,22.085
	c-3.735,1.79-5.312,6.27-3.521,10.005c1.29,2.689,3.973,4.26,6.769,4.26c1.087,0,2.191-0.237,3.236-0.739l46.074-22.085
	C87.374,282.493,88.951,278.014,87.16,274.278z M30.681,226.55l20.49-4.111c4.061-0.814,6.693-4.768,5.878-8.829
	c-0.815-4.061-4.764-6.694-8.829-5.878l-20.49,4.111c-4.061,0.814-6.693,4.768-5.878,8.829c0.715,3.564,3.845,6.025,7.346,6.025
	C29.686,226.697,30.183,226.649,30.681,226.55z M484.271,211.844l-20.489-4.111c-4.062-0.81-8.015,1.816-8.829,5.878
	c-0.814,4.062,1.816,8.014,5.878,8.829l20.489,4.111c0.498,0.1,0.994,0.147,1.483,0.147c3.5,0,6.631-2.462,7.346-6.025
	C490.963,216.61,488.332,212.659,484.271,211.844z M183.43,138.402c-4.542,0-8.224,3.682-8.224,8.224
	c0,4.542,3.682,8.224,8.224,8.224c4.542,0,8.224-3.682,8.224-8.224C191.653,142.084,187.971,138.402,183.43,138.402z
	 M357.686,187.621c8.844-1.171,29.309,0.326,37.042,2.26c0.611,0.152,1.223,0.226,1.825,0.226c3.36,0,6.418-2.275,7.271-5.683
	c1.004-4.019-1.438-8.091-5.457-9.096c-9.385-2.346-31.75-4.019-42.645-2.578c-4.106,0.543-6.995,4.311-6.453,8.418
	C349.812,185.275,353.591,188.16,357.686,187.621z M480.918,292.844l-46.073-22.085c-3.733-1.791-8.214-0.216-10.005,3.521
	c-1.791,3.735-0.215,8.215,3.521,10.005l46.073,22.085c1.046,0.502,2.149,0.739,3.237,0.739c2.795,0,5.479-1.57,6.768-4.26
	C486.23,299.112,484.653,294.633,480.918,292.844z M495.258,85.396c-1.952-3.652-6.497-5.031-10.15-3.076l-20.422,10.923
	c-3.652,1.953-5.03,6.498-3.076,10.15c1.35,2.526,3.941,3.965,6.62,3.965c1.193,0,2.404-0.286,3.53-0.889l20.422-10.923
	C495.834,93.593,497.212,89.048,495.258,85.396z M445.995,319.071c-22.465-12.01-46.62-20.527-73.541-25.923
	c9.841-4.17,18.871-8.948,26.984-14.322c34.324-22.733,52.468-56.168,52.468-96.687c0-19.099-3.89-37.681-11.349-55.13
	c20.719-30.964,26.422-69.004,15.586-105.083c-3.422-11.395-13.269-19.657-25.084-21.048c-35.959-4.24-71.346,7.008-97.883,30.91
	c-24.071-8.6-50.211-13.127-77.175-13.127c-26.964,0-53.104,4.527-77.175,13.127C152.29,7.885,116.9-3.361,80.943,0.878
	C69.127,2.27,59.281,10.531,55.858,21.926C45.021,58.005,50.724,96.046,71.444,127.01c-7.459,17.448-11.349,36.031-11.349,55.13
	c0,31.266,10.439,57.862,31.027,79.047c12.621,12.987,28.828,23.679,48.371,31.972c-26.9,5.396-51.039,13.912-73.489,25.913
	c-15.314,8.188-21.111,27.308-12.925,42.622c5.49,10.27,16.141,16.649,27.794,16.649c5.142,0,10.269-1.288,14.828-3.725
	c13.66-7.304,28.788-13.064,45.056-17.174c1.206,4.962,2.773,9.797,4.67,14.483c-19.012,9.154-41.155,18.504-62.652,27.576
	c-8.821,3.723-17.943,7.572-26.971,11.456c-11.395,4.903-16.676,18.162-11.773,29.555c3.557,8.268,11.671,13.609,20.671,13.609
	c3.064,0,6.053-0.617,8.885-1.836c8.747-3.764,17.767-7.57,26.489-11.252l0.193-0.081c25.485-10.757,49.655-20.959,70.686-31.41
	c2.893,2.802,5.944,5.461,9.137,7.966c-2.552,17.127-3.161,38.837-1.797,64.658c0.884,16.729,14.69,29.832,31.429,29.832
	c0.561,0,1.128-0.016,1.683-0.046c17.341-0.916,30.703-15.77,29.787-33.11c-0.722-13.662-0.814-25.853-0.283-36.382
	c4.942,0.591,9.978,0.896,15.089,0.896c5.111,0,10.147-0.305,15.089-0.896c0.532,10.53,0.44,22.72-0.282,36.382
	c-0.444,8.4,2.41,16.472,8.036,22.725c5.626,6.254,13.351,9.942,21.739,10.386c0.566,0.03,1.133,0.046,1.694,0.046
	c14.213,0,26.71-9.583,30.393-23.304c1.074-4.001-1.299-8.114-5.299-9.188c-4-1.073-8.114,1.298-9.188,5.299
	c-1.928,7.18-8.469,12.193-15.907,12.193c-0.292,0-0.585-0.008-0.892-0.024c-4.399-0.232-8.445-2.164-11.392-5.439
	c-2.946-3.275-4.441-7.502-4.209-11.902c0.793-15,0.85-28.37,0.178-39.875c11.441-2.802,22.208-7.171,32.026-12.843
	c0.822,7.637,1.299,16.138,1.408,25.443c0.048,4.112,3.396,7.412,7.497,7.412c0.029,0,0.06,0,0.09-0.001
	c4.142-0.048,7.46-3.444,7.411-7.587c-0.151-13.01-0.987-24.644-2.482-34.678c19.421-15.239,33.532-36.192,39.331-60.061
	c16.268,4.11,31.396,9.87,45.057,17.174c4.559,2.436,9.686,3.725,14.826,3.725c11.653,0,22.303-6.38,27.795-16.649
	C467.108,346.378,461.309,327.259,445.995,319.071z M432.666,111.253c-9.561-16.574-22.543-31.84-38.66-45.184
	c-1.095-0.906-2.202-1.799-3.318-2.681c18.198-14.62,38.12-21.773,53.913-25.255C447.748,55.561,448.548,83.091,432.666,111.253z
	 M429.304,15.774c4.929,0.581,9.159,3.57,11.403,7.861c-18.345,4.128-41.602,12.748-62.546,30.658
	c-9.211-6.149-18.992-11.55-29.238-16.165C371.492,20.437,400.18,12.343,429.304,15.774z M82.697,15.774
	c29.122-3.428,57.811,4.665,80.381,22.354c-10.247,4.615-20.026,10.016-29.237,16.165c-20.944-17.911-44.202-26.53-62.546-30.658
	C73.538,19.344,77.769,16.355,82.697,15.774z M67.399,38.133c15.793,3.483,35.716,10.637,53.914,25.256
	c-1.116,0.882-2.223,1.774-3.317,2.68c-16.117,13.343-29.099,28.609-38.661,45.184C63.453,83.092,64.252,55.561,67.399,38.133z
	 M137.836,333.024c0,3.229,0.158,6.424,0.451,9.584c-17.904,4.426-34.585,10.723-49.657,18.781
	c-2.425,1.296-5.034,1.953-7.756,1.953c-6.109,0-11.69-3.342-14.566-8.722c-4.288-8.02-1.251-18.034,6.769-22.321
	c20.688-11.06,42.962-18.986,67.764-24.104C138.849,316.276,137.836,324.573,137.836,333.024z M94.437,427.134l-0.194,0.082
	c-8.747,3.691-17.791,7.508-26.584,11.293c-0.948,0.407-1.942,0.614-2.957,0.614c-3.001,0-5.707-1.781-6.893-4.538
	c-1.634-3.796,0.126-8.214,3.923-9.848c8.98-3.863,18.078-7.702,26.875-11.415c21.698-9.159,44.051-18.596,63.413-27.923
	c2.537,4.373,5.385,8.565,8.509,12.559C140.778,407.576,118.183,417.112,94.437,427.134z M210.604,496.975
	c-9.151,0.505-16.851-6.548-17.33-15.6c-1.125-21.291-0.873-39.535,0.734-54.462c9.819,5.673,20.586,10.042,32.028,12.845
	c-0.672,11.504-0.615,24.875,0.178,39.875C226.696,488.717,219.698,496.495,210.604,496.975z M256,428.357
	c-56.886,0-103.165-42.766-103.165-95.333c0-11.041,2.007-21.779,5.968-32.017c0.001-0.003,0.002-0.005,0.003-0.008
	c0.089-0.23,0.184-0.458,0.275-0.688c3.494,1.09,7.057,2.129,10.721,3.091c4.007,1.056,8.107-1.342,9.16-5.349
	c1.052-4.006-1.342-8.106-5.348-9.159c-5.611-1.474-10.906-3.081-15.921-4.799c-0.205-0.081-0.411-0.151-0.619-0.213
	c-67.24-23.278-81.978-67.495-81.978-101.743c0-81.871,81.154-148.477,180.905-148.477s180.905,66.606,180.905,148.477
	c0,35.752-15.393,64.074-45.751,84.182c-24.786,16.418-59.188,26.902-100.183,30.645c2.232-4.908,3.452-10.318,3.452-15.945V174.469
	c0-9.979-5.28-19.3-13.78-24.326c-7.44-4.399-15.962-6.726-24.643-6.726c-8.682,0-17.204,2.326-24.643,6.726
	c-8.5,5.027-13.78,14.349-13.78,24.326v106.553c0,5.624,1.219,11.032,3.449,15.939c-4.691-0.428-9.311-0.934-13.812-1.534
	c-4.11-0.56-7.878,2.335-8.427,6.44c-0.548,4.106,2.336,7.879,6.441,8.427c9.44,1.261,19.337,2.145,29.433,2.664
	c1.234,0.822,2.512,1.595,3.856,2.281c5.474,2.797,11.478,4.194,17.482,4.194c6.005,0,12.009-1.397,17.482-4.194
	c1.338-0.684,2.61-1.453,3.839-2.271c27.895-1.432,53.353-5.723,75.592-12.672c0.092,0.232,0.188,0.463,0.278,0.695
	c0.034,0.098,0.077,0.192,0.115,0.288c3.892,10.157,5.86,20.804,5.86,31.746C359.165,385.592,312.886,428.357,256,428.357z
	 M279.423,174.469v106.553c0,7.324-3.363,14.058-8.99,18.443c-0.115,0.081-0.227,0.166-0.336,0.253
	c-1.073,0.806-2.215,1.537-3.44,2.163c-6.673,3.409-14.642,3.409-21.315,0c-1.226-0.626-2.37-1.359-3.443-2.166
	c-0.108-0.085-0.217-0.168-0.329-0.248c-5.629-4.385-8.993-11.12-8.993-18.446V174.469c0-4.701,2.458-9.075,6.415-11.416
	c5.129-3.033,11.011-4.637,17.008-4.637c5.997,0,11.879,1.604,17.008,4.637C276.966,165.394,279.423,169.768,279.423,174.469z
	 M445.693,354.621c-2.876,5.38-8.458,8.722-14.567,8.722c-2.721,0-5.33-0.657-7.755-1.953
	c-15.073-8.058-31.753-14.355-49.657-18.781c0.293-3.16,0.451-6.355,0.451-9.584c0-8.452-1.014-16.749-3.006-24.829
	c24.802,5.119,47.076,13.044,67.764,24.104C446.943,336.587,449.98,346.6,445.693,354.621z M347.854,212.857
	c8.623,2.289,26.973,11.469,33.387,16.203c1.341,0.989,2.901,1.467,4.448,1.467c2.3,0,4.569-1.055,6.04-3.047
	c2.46-3.333,1.752-8.028-1.58-10.488c-7.784-5.745-27.825-15.813-38.445-18.633c-4.008-1.062-8.111,1.322-9.174,5.324
	C341.467,207.687,343.851,211.794,347.854,212.857z M328.571,154.85c4.542,0,8.224-3.682,8.224-8.224
	c0-4.542-3.682-8.224-8.224-8.224s-8.224,3.682-8.224,8.224C320.347,151.168,324.029,154.85,328.571,154.85z M154.314,187.621
	c4.109,0.541,7.875-2.346,8.418-6.453c0.542-4.107-2.347-7.875-6.453-8.418c-10.892-1.438-33.259,0.232-42.645,2.578
	c-4.019,1.005-6.462,5.077-5.457,9.096c0.852,3.407,3.91,5.683,7.27,5.683c0.602,0,1.214-0.073,1.825-0.226
	C125.005,187.947,145.469,186.448,154.314,187.621z M160.298,198.359c-10.621,2.819-30.662,12.887-38.446,18.633
	c-3.333,2.46-4.04,7.155-1.58,10.488c1.471,1.992,3.74,3.047,6.04,3.047c1.547,0,3.108-0.478,4.448-1.467
	c6.415-4.734,24.764-13.914,33.387-16.203c4.003-1.063,6.387-5.17,5.325-9.174C168.409,199.682,164.301,197.298,160.298,198.359z"/>
<g>
</g>
<g>
</g>
<g>
</g>
<g>
</g>
<g>
</g>
<g>
</g>
<g>
</g>
<g>
</g>
<g>
</g>
<g>
</g>
<g>
</g>
<g>
</g>
<g>
</g>
<g>
</g>
<g>
</g>
</svg>
