<?xml version="1.0" encoding="iso-8859-1"?>
<!-- Generator: Adobe Illustrator 19.0.0, SVG Export Plug-In . SVG Version: 6.00 Build 0)  -->
<svg version="1.1" id="Capa_1" xmlns="http://www.w3.org/2000/svg" xmlns:xlink="http://www.w3.org/1999/xlink" x="0px" y="0px"
	 viewBox="0 0 512 512" style="enable-background:new 0 0 512 512;" xml:space="preserve">
<path style="fill:#EDA751;" d="M176.074,430.383c-0.715,0-1.431-0.016-2.147-0.05c-21.309-1.003-40.132-16.781-47.954-40.195
	c-6.293-18.837-17.682-22.49-22.286-23.186c-6.524-0.979-12.598,1.463-16.248,6.55c-4.369,6.087-12.845,7.482-18.933,3.112
	c-6.088-4.368-7.481-12.845-3.113-18.933c9.568-13.333,25.795-20.065,42.349-17.559c19.87,3.003,36.306,18.487,43.968,41.417
	c4.179,12.508,13.62,21.224,23.494,21.689c12.627,0.596,25.4-11.605,35.072-33.47c3.032-6.854,11.042-9.954,17.897-6.919
	c6.852,3.031,9.95,11.043,6.918,17.896c-7.313,16.532-16.394,29.212-26.992,37.689C198.285,426.274,187.257,430.383,176.074,430.383
	z"/>
<path style="fill:#FCD79D;" d="M65.393,357.682c-4.369,6.087-2.975,14.565,3.113,18.933c6.088,4.37,14.564,2.975,18.933-3.112
	c1.764-2.458,4.096-4.292,6.768-5.427c-2.136-9.858-9.317-17.421-16.98-21.58C72.683,349.399,68.647,353.148,65.393,357.682z"/>
<g>
	<path style="fill:#EDA751;" d="M307.497,504.498c-0.675,0-1.355-0.031-2.039-0.094c-11.937-1.113-20.712-11.691-19.6-23.628
		c2.84-30.476,3.197-49.354-3.037-61.822c-5.361-10.723-1.015-23.763,9.708-29.124c10.724-5.36,23.763-1.014,29.124,9.708
		c10.897,21.794,11.019,46.781,7.433,85.266C328.037,496.055,318.577,504.498,307.497,504.498z"/>
	<path style="fill:#EDA751;" d="M236.83,504.498c-0.675,0-1.355-0.031-2.039-0.094c-11.937-1.113-20.712-11.691-19.6-23.628
		c2.84-30.476,3.197-49.354-3.037-61.822c-5.361-10.723-1.015-23.763,9.708-29.124c10.726-5.36,23.763-1.014,29.124,9.708
		c10.897,21.794,11.019,46.781,7.433,85.266C257.37,496.055,247.91,504.498,236.83,504.498z"/>
</g>
<g>
	<path style="opacity:0.2;fill:#A35F00;enable-background:new    ;" d="M228.172,362.839c-6.855-3.035-14.865,0.066-17.897,6.919
		c-9.673,21.865-22.446,34.065-35.072,33.47c-4.485-0.211-8.875-2.139-12.73-5.338c6.137,11.7,14.366,22.259,24.228,31.244
		c7.472-1.76,14.717-5.367,21.397-10.711c10.598-8.476,19.68-21.156,26.992-37.688C238.122,373.883,235.025,365.871,228.172,362.839
		z"/>
	<path style="opacity:0.2;fill:#A35F00;enable-background:new    ;" d="M221.861,389.829c-10.723,5.361-15.069,18.401-9.708,29.124
		c3.73,7.46,5.099,17.218,4.99,30.379c13.178,6.12,27.714,10.027,43.06,11.201c1.186-25.405-0.798-44.157-9.218-60.996
		C245.624,388.814,232.587,384.469,221.861,389.829z"/>
	<path style="opacity:0.2;fill:#A35F00;enable-background:new    ;" d="M331.162,445.08c-0.254-17.894-2.893-32.311-9.509-45.543
		c-5.361-10.722-18.4-15.068-29.124-9.708c-10.723,5.361-15.069,18.401-9.708,29.124c4.65,9.3,5.632,22.17,4.652,40.756
		C303.236,457.532,318.008,452.457,331.162,445.08z"/>
</g>
<ellipse style="fill:#FCD690;" cx="270.001" cy="348.169" rx="100.12" ry="93.04"/>
<path style="opacity:0.15;fill:#C17A00;enable-background:new    ;" d="M255.376,440.218
	c-45.753-30.039-31.574-91.605-23.807-118.53v-59.449c-36.224,14.003-61.696,47.202-61.696,85.933
	C169.874,394.939,207.011,433.642,255.376,440.218z"/>
<g>
	<path style="fill:#EDA751;" d="M305.45,389.036c-14.245,0-27.881-2.773-38.947-8.074c-10.812-5.181-15.377-18.145-10.197-28.957
		c5.179-10.813,18.144-15.377,28.956-10.198c14.151,6.783,44.519,5.61,61.827-11.697c8.476-8.477,22.222-8.479,30.699-0.001
		c8.478,8.477,8.478,22.222,0,30.699c-14.15,14.15-33.997,23.74-55.884,27.003C316.403,388.632,310.882,389.036,305.45,389.036z"/>
	<path style="fill:#EDA751;" d="M234.544,389.036c-5.433,0-10.952-0.404-16.454-1.223c-21.888-3.263-41.735-12.853-55.885-27.002
		c-8.477-8.477-8.477-22.223,0-30.7c8.477-8.478,22.222-8.478,30.699,0c17.308,17.308,47.675,18.479,61.827,11.698
		c10.812-5.178,23.776-0.615,28.956,10.198c5.18,10.811,0.615,23.776-10.197,28.957
		C262.426,386.263,248.787,389.036,234.544,389.036z"/>
</g>
<path style="opacity:0.2;fill:#A35F00;enable-background:new    ;" d="M234.544,389.036c-5.433,0-10.952-0.404-16.454-1.223
	c-21.888-3.263-41.735-12.853-55.885-27.002c-8.477-8.477-8.477-22.223,0-30.7c8.477-8.478,22.222-8.478,30.699,0
	c17.308,17.308,47.675,18.479,61.827,11.698c10.812-5.178,23.776-0.615,28.956,10.198c5.18,10.811,0.615,23.776-10.197,28.957
	C262.426,386.263,248.787,389.036,234.544,389.036z"/>
<path style="fill:#EDA751;" d="M209.066,186.846c19.592-16.439,32.673-44.037,5.038-84.833
	c-27.853-41.119-69.321-51.425-101.696-47.611c-7.981,0.94-14.678,6.56-16.99,14.257c-9.378,31.22-6.428,73.849,29.229,108.418
	C160.024,211.376,189.474,203.286,209.066,186.846z"/>
<path style="fill:#FF91AB;" d="M94.115,73.436c-7.688,30.696-3.341,70.801,30.532,103.641
	c30.664,29.729,56.869,27.605,76.067,15.808C187.51,103.253,129.833,79.485,94.115,73.436z"/>
<path style="fill:#EDA751;" d="M330.928,186.846c-19.592-16.439-32.673-44.037-5.038-84.833
	c27.853-41.119,69.321-51.425,101.696-47.611c7.982,0.94,14.678,6.56,16.991,14.257c9.378,31.22,6.428,73.849-29.229,108.418
	C379.969,211.376,350.52,203.286,330.928,186.846z"/>
<path style="fill:#FF91AB;" d="M445.879,73.436c7.688,30.696,3.341,70.801-30.532,103.641
	c-30.664,29.729-56.869,27.605-76.067,15.808C352.483,103.253,410.161,79.485,445.879,73.436z"/>
<path style="fill:#FFDC9C;" d="M440.455,211.659c0,77.938-76.317,112.074-170.458,112.074S99.539,289.597,99.539,211.659
	s76.316-141.12,170.458-141.12S440.455,133.72,440.455,211.659z"/>
<path style="opacity:0.15;fill:#C17A00;enable-background:new    ;" d="M178.981,92.327
	c-47.739,25.008-79.442,69.102-79.442,119.332c0,66.998,56.396,101.627,132.031,110.029
	C122.998,256.836,137.157,169.602,178.981,92.327z"/>
<path d="M360.125,202.456c-4.106,0.543-6.995,4.313-6.453,8.419c0.543,4.105,4.31,6.999,8.418,6.452
	c7.782-1.028,26.458,0.332,33.246,2.029c0.611,0.152,1.223,0.226,1.825,0.226c3.36,0,6.418-2.275,7.27-5.683
	c1.005-4.019-1.438-8.091-5.457-9.096C390.427,202.666,370.053,201.143,360.125,202.456z M451.759,66.502
	c-3.179-10.582-12.323-18.255-23.296-19.548c-32.594-3.842-64.678,6.292-88.803,27.861c-21.285-7.553-44.341-11.593-68.126-11.76
	c2.189-0.461,4.153-1.876,5.207-4.044l10.846-22.308c1.158-2.383,0.974-5.199-0.485-7.41c-1.459-2.211-3.979-3.493-6.622-3.36
	l-7.943,0.384l9.436-14.783c1.578-2.472,1.57-5.636-0.019-8.1c-1.589-2.464-4.467-3.771-7.37-3.359l-29.415,4.227
	c-4.1,0.589-6.946,4.391-6.357,8.491c0.59,4.1,4.389,6.943,8.491,6.357l13.228-1.901l-8.441,13.226
	c-1.509,2.364-1.573,5.372-0.166,7.798s4.054,3.864,6.85,3.729l9.791-0.474l-5.312,10.926c-1.811,3.726-0.259,8.213,3.466,10.024
	c0.543,0.264,1.102,0.454,1.666,0.579c-23.758,0.175-46.787,4.214-68.05,11.759c-24.126-21.569-56.211-31.706-88.803-27.861
	c-10.974,1.293-20.118,8.966-23.296,19.548c-9.829,32.724-4.711,67.22,13.98,95.355c-6.687,15.77-10.176,32.554-10.176,49.803
	c0,31.503,11.561,57.684,34.36,77.814c11.505,10.158,25.605,18.531,42.156,25.058c-0.453,1.193-0.881,2.394-1.286,3.602
	c-3.783,1.417-7.33,3.636-10.368,6.673c-11.388,11.389-11.388,29.919,0,41.308c2.837,2.837,5.884,5.501,9.113,7.985
	c2.147,7.519,5.234,14.768,9.167,21.597c-6.578-0.544-13.264-7.264-16.36-16.533c-8.572-25.656-27.249-43.023-49.959-46.455
	c-19.353-2.937-38.343,4.964-49.564,20.6c-3.281,4.572-4.585,10.148-3.672,15.701c0.913,5.553,3.934,10.418,8.504,13.697
	c9.438,6.774,22.625,4.606,29.4-4.832c2.002-2.789,5.295-4.066,9.033-3.507c3.24,0.489,11.313,3.239,16.294,18.147
	c8.812,26.375,30.289,44.16,54.72,45.311c0.832,0.038,1.663,0.058,2.494,0.058c10.32,0,20.58-3.051,29.969-8.853
	c0.7,0.485,1.41,0.952,2.12,1.42c2.403,11.252,1.62,27.517-0.441,49.628c-1.494,16.036,10.336,30.298,26.376,31.792
	c0.907,0.084,1.826,0.127,2.732,0.127c15.157,0,27.648-11.393,29.056-26.499c1.432-15.366,2.108-26.913,2.131-36.828
	c0.66,0.011,1.317,0.038,1.98,0.038c3.473,0,6.914-0.167,10.322-0.465c-0.012,7.909-0.624,17.834-1.929,31.836
	c-0.724,7.768,1.621,15.354,6.602,21.358s12.002,9.71,19.774,10.434c0.907,0.084,1.826,0.127,2.732,0.127
	c11.249,0,21.615-6.584,26.409-16.772c1.764-3.748,0.155-8.216-3.593-9.98c-3.748-1.763-8.216-0.155-9.979,3.593
	c-2.332,4.957-7.371,8.159-12.836,8.159c-0.445,0-0.898-0.022-1.344-0.063c-3.779-0.352-7.194-2.154-9.617-5.075
	c-2.423-2.921-3.563-6.61-3.211-10.39c1.471-15.79,2.091-26.724,1.979-35.547c9.791-2.191,19.167-5.664,27.949-10.364
	c0.493,6.572,0.56,13.932,0.22,22.463c-0.165,4.14,3.057,7.628,7.196,7.793c0.102,0.004,0.203,0.006,0.304,0.006
	c4.004,0,7.328-3.164,7.489-7.201c0.501-12.577,0.159-22.91-1.071-32.068c17.83-13.397,30.727-31.927,36.588-52.456
	c3.229-2.484,6.276-5.149,9.112-7.985c11.388-11.388,11.388-29.917,0-41.306c-2.994-2.994-6.527-5.251-10.376-6.695
	c-0.406-1.213-0.836-2.419-1.291-3.617c8.241-3.252,15.907-6.959,22.928-11.119c35.067-20.777,53.603-52.492,53.603-91.717
	c0-17.249-3.49-34.033-10.176-49.803C456.471,133.721,461.589,99.226,451.759,66.502z M429.815,146.081
	c-8.629-14.648-20.208-28.152-34.503-39.987c-0.763-0.632-1.538-1.25-2.312-1.868c15.894-12.55,33.176-18.85,47.06-21.995
	C442.736,97.688,443.237,121.559,429.815,146.081z M426.708,61.85c3.903,0.46,7.295,2.684,9.304,5.921
	c-16.414,3.808-36.953,11.569-55.547,27.325c-7.916-5.249-16.292-9.892-25.048-13.9C383.431,59.658,414.007,60.353,426.708,61.85z
	 M113.286,61.85c12.7-1.497,43.276-2.192,71.291,19.346c-8.756,4.008-17.133,8.651-25.048,13.9
	c-18.593-15.757-39.132-23.518-55.547-27.325C105.991,64.535,109.383,62.311,113.286,61.85z M99.935,82.232
	c13.884,3.145,31.166,9.444,47.059,21.994c-0.774,0.619-1.549,1.237-2.312,1.868c-14.295,11.835-25.874,25.339-34.503,39.987
	C96.757,121.559,97.258,97.688,99.935,82.232z M167.508,355.507c-5.539-5.539-5.539-14.554,0-20.093
	c2.77-2.77,6.408-4.155,10.046-4.155s7.276,1.385,10.046,4.155c20.408,20.407,54.564,20.733,70.37,13.158
	c7.068-3.385,15.57-0.39,18.953,6.675c3.385,7.065,0.391,15.566-6.674,18.952c-9.876,4.731-22.557,7.337-35.706,7.337
	c-5.098,0-10.261-0.384-15.347-1.142c-15.76-2.349-30.33-8.211-42.158-16.797c-0.038-0.028-0.076-0.056-0.114-0.084
	C173.553,361.057,170.393,358.391,167.508,355.507z M174.279,422.843c-18.19-0.856-34.359-14.626-41.193-35.081
	c-7.605-22.766-22.309-27.322-28.286-28.227c-9.374-1.406-18.136,2.181-23.455,9.595c-1.951,2.717-5.751,3.342-8.468,1.391
	c-1.317-0.944-2.187-2.346-2.449-3.944c-0.263-1.599,0.113-3.205,1.058-4.522c7.919-11.036,21.382-16.595,35.134-14.516
	c17.028,2.573,31.224,16.173,37.975,36.377c5.153,15.425,17.312,26.196,30.254,26.804c3.28,0.161,6.553-0.301,9.786-1.359
	c2.724,3.318,5.67,6.481,8.823,9.467C187.229,421.763,180.694,423.139,174.279,422.843z M250.95,484.107
	c-0.685,7.349-6.755,12.891-14.121,12.891c-0.445,0-0.898-0.022-1.344-0.063c-7.8-0.727-13.555-7.664-12.828-15.464
	c1.615-17.334,2.447-30.993,1.737-42.193c9.063,3.977,18.661,6.728,28.621,8.186C253.04,457.163,252.377,468.8,250.95,484.107z
	 M328.095,414.785c-12.259,9.133-26.412,15.078-41.579,17.575c-0.144,0.021-0.285,0.047-0.425,0.075
	c-5.256,0.841-10.632,1.274-16.094,1.274c-18.607,0-36.226-4.956-51.434-14.393c-0.066-0.039-0.131-0.081-0.199-0.119
	c-2.207-1.377-4.364-2.847-6.464-4.412c-10.298-7.672-18.669-17.319-24.586-28.11c9.242,4.089,19.245,7.001,29.672,8.556
	c5.816,0.866,11.723,1.306,17.558,1.306c12.778,0,24.891-2.055,35.476-5.977c10.595,3.913,22.768,5.977,35.43,5.977
	c5.836,0,11.744-0.439,17.56-1.306c10.427-1.555,20.43-4.467,29.671-8.556C346.764,397.465,338.393,407.112,328.095,414.785z
	 M372.485,335.413c5.539,5.54,5.539,14.554,0,20.094c-2.872,2.872-6.017,5.527-9.371,7.974c-0.067,0.047-0.133,0.095-0.198,0.145
	c-11.82,8.57-26.375,14.421-42.117,16.768c-5.086,0.758-10.25,1.142-15.349,1.142c-6.454,0-12.714-0.629-18.613-1.81
	c6.198-7.706,8.249-18.297,4.831-28.012c17.528,3.72,43.83,0.594,60.724-16.3c2.683-2.684,6.25-4.161,10.046-4.161
	C366.234,331.253,369.801,332.73,372.485,335.413z M386.706,290.471c-8.25,4.888-17.507,9.103-27.654,12.63
	c-0.083,0.028-0.166,0.054-0.248,0.085c-24.794,8.581-54.907,13.047-88.807,13.047c-7.45,0-14.841-0.222-21.967-0.659
	c-4.136-0.233-7.691,2.892-7.945,7.027c-0.254,4.134,2.892,7.691,7.027,7.945c7.43,0.455,15.129,0.687,22.885,0.687
	c26.875,0,51.608-2.718,73.501-7.998c-0.586,0.501-1.161,1.021-1.712,1.572c-14.763,14.763-41.418,15.923-53.285,10.235
	c-5.781-2.768-12.28-3.542-18.518-2.252c-6.039-1.247-12.515-0.61-18.492,2.253c-11.865,5.688-38.521,4.525-53.283-10.237
	c-0.557-0.557-1.135-1.078-1.725-1.581c4.795,1.152,9.724,2.199,14.818,3.113c4.073,0.74,7.975-1.98,8.707-6.058
	c0.731-4.077-1.981-7.975-6.058-8.706c-11.784-2.114-22.657-4.905-32.625-8.332c-0.26-0.103-0.522-0.193-0.786-0.266
	c-17.76-6.197-32.567-14.467-44.211-24.748c-19.434-17.159-29.288-39.557-29.288-66.57c0-73.679,73.102-133.62,162.958-133.62
	s162.958,59.941,162.958,133.62C432.955,245.772,417.395,272.288,386.706,290.471z M391.791,242.616
	c-7.091-5.233-25.349-14.404-35.024-16.974c-4.004-1.061-8.11,1.321-9.174,5.324c-1.063,4.003,1.321,8.11,5.324,9.174
	c7.583,2.014,24.335,10.388,29.967,14.544c1.34,0.989,2.9,1.467,4.448,1.467c2.3,0,4.57-1.055,6.041-3.048
	C395.831,249.771,395.123,245.075,391.791,242.616z M183.227,225.642c-9.676,2.569-27.934,11.74-35.024,16.974
	c-3.333,2.46-4.04,7.155-1.581,10.488c1.471,1.992,3.74,3.046,6.04,3.046c1.547,0,3.108-0.476,4.448-1.466
	c5.631-4.156,22.382-12.53,29.966-14.544c4.003-1.064,6.387-5.171,5.324-9.174C191.338,226.964,187.23,224.581,183.227,225.642z
	 M349.739,174.833c4.071-0.765,6.751-4.685,5.987-8.756c-0.765-4.07-4.688-6.752-8.755-5.986c-1.858,0.349-3.686,0.696-5.494,1.039
	c-21.124,4.01-39.366,7.473-71.48,7.473s-50.357-3.463-71.481-7.473c-1.808-0.344-3.636-0.69-5.493-1.039
	c-4.072-0.763-7.99,1.917-8.755,5.986c-0.765,4.071,1.915,7.991,5.987,8.756c1.848,0.347,3.666,0.692,5.464,1.033
	c0.634,0.12,1.265,0.24,1.895,0.359c-0.491,0.997-0.774,2.116-0.774,3.303v10.899c0,4.143,3.358,7.5,7.5,7.5s7.5-3.357,7.5-7.5
	v-10.899c0-0.239-0.014-0.474-0.036-0.707c16.118,2.762,33.033,4.782,58.193,4.782c25.161,0,42.076-2.019,58.194-4.781
	c-0.022,0.233-0.036,0.468-0.036,0.707v10.899c0,4.143,3.358,7.5,7.5,7.5s7.5-3.357,7.5-7.5v-10.899
	c0-1.187-0.283-2.305-0.774-3.302c0.629-0.119,1.26-0.239,1.893-0.359C346.073,175.525,347.892,175.179,349.739,174.833z
	 M177.903,217.327c4.106,0.545,7.876-2.346,8.418-6.452c0.543-4.107-2.346-7.876-6.453-8.419
	c-9.925-1.311-30.302,0.211-38.851,2.348c-4.019,1.005-6.461,5.077-5.456,9.096c0.852,3.408,3.91,5.683,7.27,5.683
	c0.603,0,1.214-0.073,1.825-0.226C151.445,217.658,170.124,216.299,177.903,217.327z M229.026,151.995
	c12.865,1.538,25.884,2.254,40.971,2.254c15.087,0,28.107-0.716,40.972-2.254c4.113-0.492,7.048-4.225,6.557-8.338
	c-0.492-4.112-4.218-7.044-8.337-6.557c-12.26,1.466-24.713,2.148-39.191,2.148c-14.478,0-26.931-0.683-39.191-2.148
	c-4.111-0.491-7.846,2.445-8.337,6.557C221.977,147.77,224.913,151.503,229.026,151.995z M269.997,193.489
	c-8.801,0-17.171,3.811-22.964,10.458c-2.722,3.122-2.397,7.859,0.725,10.581c1.421,1.239,3.177,1.847,4.925,1.847
	c2.092,0,4.174-0.871,5.657-2.572c2.943-3.377,7.192-5.313,11.657-5.313c4.465,0,8.713,1.936,11.657,5.313
	c2.721,3.123,7.46,3.447,10.582,0.727c3.122-2.722,3.448-7.46,0.726-10.582C287.169,197.301,278.799,193.489,269.997,193.489z"/>
<g>
</g>
<g>
</g>
<g>
</g>
<g>
</g>
<g>
</g>
<g>
</g>
<g>
</g>
<g>
</g>
<g>
</g>
<g>
</g>
<g>
</g>
<g>
</g>
<g>
</g>
<g>
</g>
<g>
</g>
</svg>
