<?xml version="1.0" encoding="iso-8859-1"?>
<!-- Generator: Adobe Illustrator 19.0.0, SVG Export Plug-In . SVG Version: 6.00 Build 0)  -->
<svg version="1.1" id="Capa_1" xmlns="http://www.w3.org/2000/svg" xmlns:xlink="http://www.w3.org/1999/xlink" x="0px" y="0px"
	 viewBox="0 0 512.004 512.004" style="enable-background:new 0 0 512.004 512.004;" xml:space="preserve">
<path style="fill:#EDA751;" d="M479.739,423.86c4.038,0,8.067-1.604,11.051-4.779c5.735-6.101,5.436-15.697-0.666-21.43
	c-29.189-27.431-67.676-31.509-117.662-12.47c-25.356,9.659-37.727-3.684-61.12-32.331l-0.861-1.054
	c-5.297-6.485-14.848-7.447-21.332-2.15c-6.484,5.298-7.447,14.848-2.15,21.332l0.858,1.049
	c11.794,14.443,22.934,28.084,37.31,37.037c17.821,11.096,36.822,12.554,58.091,4.452c39.11-14.898,65.665-12.977,86.104,6.23
	C472.286,422.498,476.016,423.86,479.739,423.86z"/>
<path style="opacity:0.2;fill:#A35F00;enable-background:new    ;" d="M311.341,352.85l-0.861-1.054
	c-5.297-6.485-14.848-7.447-21.332-2.15c-6.484,5.298-7.447,14.849-2.15,21.332l0.858,1.049
	c11.794,14.443,22.934,28.084,37.31,37.037c5.119,3.187,10.336,5.575,15.676,7.174c8.533-8.405,15.814-17.939,21.57-28.332
	C343.388,390.739,331.422,377.442,311.341,352.85z"/>
<path style="fill:#FCD79D;" d="M490.123,397.651c-3.345-3.143-6.818-5.965-10.41-8.495c-8.552,5.009-15.95,15.992-19.15,23.663
	c3.057,1.988,5.986,4.289,8.795,6.929c2.927,2.75,6.657,4.113,10.38,4.113c4.038,0,8.067-1.604,11.051-4.779
	C496.523,412.981,496.225,403.385,490.123,397.651z"/>
<g>
	<path style="fill:#EDA751;" d="M299.234,504.5c2.684,0,5.411-0.449,8.086-1.394c12.631-4.465,19.25-18.325,14.785-30.955
		c-8.238-23.302-15.781-48.883-9.259-61.924c5.991-11.983,1.134-26.554-10.849-32.545c-11.985-5.99-26.554-1.134-32.545,10.848
		c-13.792,27.583-7.212,59.842,6.912,99.79C279.884,498.277,289.242,504.5,299.234,504.5z"/>
	<path style="fill:#EDA751;" d="M175.036,495.24c2.684,0,5.411-0.449,8.086-1.394c12.631-4.465,19.251-18.325,14.785-30.955
		c-7.871-22.263,9.079-34.977,11.77-36.001c12.752-4.108,19.721-17.762,15.614-30.513c-4.108-12.753-17.816-19.743-30.564-15.64
		c-15.624,5.033-30.709,19.026-39.369,36.518c-6.664,13.461-12.627,35.11-3.19,61.804
		C155.686,489.017,165.046,495.24,175.036,495.24z"/>
	<path style="fill:#EDA751;" d="M145.858,343.611c6.701,0,12.792-0.569,18.015-1.799c13.04-3.074,21.118-16.136,18.045-29.176
		c-3.073-13.039-16.137-21.111-29.175-18.045c-14.595,3.437-66.029-7.003-99.448-25.868c-11.667-6.588-26.462-2.467-33.048,9.199
		c-6.586,11.667-2.467,26.462,9.199,33.048C60.348,328.417,111.223,343.611,145.858,343.611z"/>
</g>
<g>
	<path style="opacity:0.2;fill:#A35F00;enable-background:new    ;" d="M301.997,377.682c-11.985-5.99-26.554-1.134-32.545,10.848
		c-9.491,18.981-9.334,40.177-3.711,64.567c16.65-2.386,32.277-7.726,46.266-15.424c-2.159-11.075-2.455-20.861,0.838-27.448
		C318.836,398.244,313.979,383.672,301.997,377.682z"/>
	<path style="opacity:0.2;fill:#A35F00;enable-background:new    ;" d="M194.725,380.736c-15.624,5.033-30.709,19.026-39.369,36.518
		c-0.353,0.712-0.703,1.453-1.049,2.211c12.056,11.037,26.352,19.918,42.183,25.978c2.469-11.407,11.307-17.84,13.188-18.555
		c12.752-4.108,19.72-17.762,15.614-30.513C221.182,383.623,207.474,376.633,194.725,380.736z"/>
	<path style="opacity:0.2;fill:#A35F00;enable-background:new    ;" d="M152.742,294.592c-5.817,1.37-17.496,0.529-31.545-2.165
		c-4.293,12.18-6.625,25.19-6.625,38.705c0,3.163,0.128,6.298,0.378,9.402c11.01,1.962,21.553,3.078,30.907,3.078
		c6.701,0,12.792-0.569,18.015-1.799c13.04-3.074,21.118-16.136,18.045-29.176C178.844,299.599,165.781,291.525,152.742,294.592z"/>
</g>
<ellipse style="fill:#FCD690;" cx="245.863" cy="331.132" rx="111.887" ry="103.967"/>
<path style="opacity:0.15;fill:#C18F00;enable-background:new    ;" d="M229.53,433.989
	c-51.127-33.567-35.307-102.857-9.644-126.976l-16.959-71.907c-40.478,15.648-68.941,52.746-68.941,96.026
	C133.985,383.392,175.484,426.64,229.53,433.989z"/>
<g>
	<path style="fill:#EDA751;" d="M290.483,420.149c19.395,0,36.539-7.904,48.11-19.43c23.847-23.756,24.804-60.06,2.327-88.286
		c-8.344-10.481-23.605-12.211-34.086-3.865c-10.48,8.346-12.21,23.606-3.864,34.087c10.048,12.618,4.315,20.772,1.384,23.692
		c-9.573,9.535-25.09,4.788-36.222-4.149c-10.448-8.385-25.715-6.715-34.101,3.735c-8.386,10.447-6.715,25.715,3.734,34.101
		C255.589,414.343,273.863,420.148,290.483,420.149z"/>
	<path style="fill:#EDA751;" d="M296.997,156.335c-21.892-18.371-36.51-49.209-5.63-94.797
		C322.492,15.591,368.83,4.073,405.006,8.335c8.919,1.051,16.403,7.33,18.987,15.932c10.48,34.887,7.184,82.522-32.662,121.152
		C351.798,183.745,318.89,174.705,296.997,156.335z"/>
</g>
<path style="fill:#FF91AB;" d="M425.449,29.604c8.591,34.302,3.734,79.116-34.117,115.813
	c-34.266,33.221-63.548,30.847-85.001,17.665C321.084,62.924,385.535,36.364,425.449,29.604z"/>
<path style="fill:#EDA751;" d="M160.822,156.335c21.892-18.371,36.51-49.209,5.63-94.797C135.328,15.591,88.989,4.073,52.812,8.335
	c-8.919,1.051-16.403,7.33-18.986,15.932c-10.48,34.887-7.184,82.522,32.662,121.152
	C106.021,183.745,138.929,174.705,160.822,156.335z"/>
<path style="fill:#FF91AB;" d="M32.37,29.604c-8.591,34.302-3.734,79.116,34.118,115.813c34.266,33.221,63.548,30.847,85.001,17.665
	C136.735,62.924,72.284,36.364,32.37,29.604z"/>
<path style="fill:#FFDC9C;" d="M38.432,184.061c0,87.092,85.28,125.237,190.478,125.237s190.478-38.145,190.478-125.237
	S334.108,26.367,228.91,26.367S38.432,96.97,38.432,184.061z"/>
<path style="opacity:0.15;fill:#C18F00;enable-background:new    ;" d="M127.203,50.715C73.858,78.66,38.431,127.933,38.431,184.061
	c0,74.867,63.019,113.563,147.537,122.952C64.646,234.544,80.469,137.066,127.203,50.715z"/>
<circle style="fill:#FF91AB;" cx="202.705" cy="190.035" r="27.667"/>
<g>
	<path style="fill:#78CFC0;" d="M110.97,254.62c25.415-48.175,101.97-67.248,119.402-64.584
		c1.49,33.139-12.161,130.747-50.357,141.097c-29.559,8.01-42.991-16.255-39.441-29.891
		C125.035,311.678,84.584,304.634,110.97,254.62z"/>
	<path style="fill:#78CFC0;" d="M53.281,341.686c0,11.393,10.422,20.628,23.278,20.628s23.278-9.236,23.278-20.628
		c0-11.393-6.231-23.606-19.088-23.606S53.281,330.294,53.281,341.686z"/>
	<path style="fill:#78CFC0;" d="M87.857,409.12c0,9.062,8.042,16.409,17.963,16.409c9.92,0,19.175-8.559,19.175-17.622
		c0-9.062-7.482-16.036-17.402-16.036S87.857,400.058,87.857,409.12z"/>
</g>
<g style="opacity:0.1;">
	<circle cx="133.986" cy="268.393" r="7.137"/>
	<circle cx="198.625" cy="246.054" r="7.137"/>
	<circle cx="175.435" cy="299.563" r="7.137"/>
	<circle cx="75.84" cy="345.401" r="7.137"/>
</g>
<path d="M107.593,384.371c-14.254,0-27.235,11.796-27.235,24.748c0,13.184,11.422,23.908,25.461,23.908
	c13.961,0,26.674-11.974,26.674-25.121C132.494,394.709,121.557,384.371,107.593,384.371z M105.82,418.029
	c-5.769,0-10.462-3.997-10.462-8.909c0-4.738,6.29-9.749,12.236-9.749c5.737,0,9.902,3.59,9.902,8.536
	C117.495,412.826,111.494,418.029,105.82,418.029z M143.081,157.487c-2.928-2.927-7.677-2.929-10.606,0l-3.14,3.14l-3.14-3.14
	c-2.929-2.928-7.678-2.928-10.606,0c-2.929,2.93-2.929,7.678,0,10.607l3.14,3.14l-3.14,3.14c-2.929,2.93-2.929,7.678,0,10.607
	c1.464,1.464,3.384,2.196,5.303,2.196c1.919,0,3.839-0.732,5.303-2.196l3.14-3.14l3.14,3.14c1.464,1.464,3.384,2.196,5.303,2.196
	s3.839-0.732,5.303-2.196c2.929-2.93,2.929-7.678,0-10.607l-3.14-3.14l3.14-3.14C146.01,165.164,146.01,160.416,143.081,157.487z
	 M289.819,174.373l-3.14-3.14l3.14-3.14c2.929-2.93,2.929-7.678,0-10.607c-2.929-2.928-7.678-2.928-10.606,0l-3.14,3.14l-3.14-3.14
	c-2.929-2.928-7.678-2.928-10.606,0c-2.929,2.93-2.929,7.678,0,10.607l3.14,3.14l-3.14,3.14c-2.929,2.93-2.929,7.678,0,10.607
	c1.464,1.464,3.384,2.196,5.303,2.196c1.919,0,3.839-0.732,5.303-2.196l3.14-3.14l3.14,3.14c1.464,1.464,3.384,2.196,5.303,2.196
	c1.919,0,3.839-0.732,5.303-2.196C292.748,182.051,292.748,177.303,289.819,174.373z M495.259,392.187
	c-31.491-29.596-72.531-34.179-125.467-14.014c-3.414,1.299-6.507,2.089-9.386,2.418c3.983-10.689,5.192-22.166,3.626-33.625
	c0.796-5.226,1.218-10.542,1.218-15.835c0-13.786-2.65-27.153-7.868-39.843c15.267-7.671,28.193-16.985,38.647-27.871
	c20.475-21.322,30.857-48.022,30.857-79.356c0-19.312-3.936-38.103-11.484-55.745c20.955-31.291,26.725-69.741,15.772-106.207
	c-3.45-11.49-13.378-19.819-25.29-21.222c-36.342-4.285-72.118,7.09-98.932,31.263c-24.34-8.702-50.774-13.283-78.042-13.283
	s-53.703,4.58-78.042,13.283C124.054,7.977,88.278-3.399,51.935,0.887C40.022,2.29,30.094,10.62,26.644,22.11
	C15.689,58.576,21.46,97.026,42.416,128.317c-7.548,17.642-11.484,36.433-11.484,55.745c0,32.684,11.527,60.508,33.677,82.128
	c-2.679-1.308-5.23-2.643-7.628-3.997c-7.387-4.17-15.956-5.216-24.128-2.939c-8.171,2.274-14.968,7.596-19.139,14.982
	c-4.17,7.388-5.214,15.956-2.939,24.128c2.275,8.172,7.596,14.969,14.983,19.139c6.939,3.917,15.046,7.815,23.813,11.471
	c-2.392,4.024-3.789,8.381-3.789,12.715c0,15.511,13.807,28.128,30.778,28.128c15.131,0,27.737-10.033,30.295-23.199
	c7.456,1.53,14.593,2.67,21.356,3.423c3.688,20.071,13.143,38.322,26.711,53.215c-2.36,3.429-4.468,6.999-6.288,10.676
	c-5.6,11.313-8.576,23.336-8.844,35.738c-0.09,4.142,3.195,7.571,7.336,7.66c0.055,0.001,0.11,0.002,0.165,0.002
	c4.067,0,7.407-3.252,7.495-7.338c0.22-10.188,2.673-20.081,7.291-29.408c1.141-2.305,2.42-4.563,3.825-6.76
	c8.45,7.13,17.992,13.152,28.363,17.813c-5.531,8.485-8.241,20.145-3.429,33.756c3.08,8.712-1.502,18.305-10.213,21.384
	c-1.811,0.641-3.69,0.965-5.586,0.965c-5.819,0-11.306-3.084-14.318-8.049c-2.148-3.541-6.761-4.669-10.303-2.522
	c-3.541,2.148-4.67,6.761-2.521,10.303c5.714,9.417,16.114,15.268,27.141,15.268c3.603,0,7.165-0.613,10.586-1.822
	c16.51-5.837,25.192-24.017,19.357-40.526c-4.056-11.471,0.359-19.245,3.93-23.269c11.644,3.548,24.064,5.475,36.961,5.475
	c3.389,0,6.76-0.149,10.111-0.412c2.11,13.508,6.33,28.882,13.314,48.638c4.479,12.668,16.511,21.179,29.941,21.179
	c3.601,0,7.162-0.613,10.585-1.823c7.998-2.827,14.415-8.6,18.072-16.254c3.656-7.654,4.112-16.275,1.285-24.272
	c-5.455-15.428-11.417-34.169-11.285-47.026c3.066-1.159,6.05-2.501,8.925-4.034c18.337,9.457,37.719,10.083,59.109,1.935
	c36.565-13.928,59.982-12.528,78.298,4.688c4.218,3.964,9.728,6.146,15.515,6.146c6.23,0,12.25-2.603,16.517-7.143
	c4.145-4.411,6.325-10.173,6.137-16.223C502.203,401.946,499.67,396.331,495.259,392.187z M407.519,112.559
	c-9.668-16.796-22.813-32.264-39.139-45.781c-1.133-0.938-2.278-1.862-3.434-2.775c18.465-14.86,38.693-22.11,54.706-25.632
	C422.854,56.025,423.686,83.978,407.519,112.559z M404.129,15.784c5.046,0.595,9.374,3.674,11.641,8.086
	c-18.567,4.165-42.136,12.885-63.35,31.043c-9.36-6.253-19.304-11.743-29.723-16.427C345.548,20.529,374.618,12.304,404.129,15.784z
	 M53.69,15.784c29.513-3.475,58.582,4.747,81.432,22.702C124.703,43.17,114.76,48.66,105.4,54.913
	C84.186,36.754,60.615,28.034,42.05,23.87C44.317,19.457,48.643,16.378,53.69,15.784z M38.167,38.371
	c16.013,3.521,36.241,10.773,54.706,25.632c-1.155,0.912-2.301,1.837-3.434,2.775c-16.326,13.516-29.471,28.985-39.139,45.781
	C34.133,83.978,34.966,56.025,38.167,38.371z M76.56,354.815c-8.701,0-15.779-5.89-15.779-13.129
	c0-6.506,10.519-16.106,19.969-16.106c9.166,0,11.588,10.535,11.588,16.106C92.338,348.925,85.261,354.815,76.56,354.815z
	 M126.554,334.736c-6.544-0.845-13.462-2.066-20.701-3.668c-1.034-3.587-2.582-6.913-4.613-9.786
	c-4.878-6.901-12.155-10.702-20.489-10.702c-7.04,0-14.133,2.593-20.074,6.706c-10.282-4.035-19.741-8.442-27.546-12.847
	c-3.898-2.2-6.706-5.787-7.906-10.099c-1.2-4.313-0.649-8.834,1.551-12.731c2.201-3.898,5.788-6.707,10.1-7.907
	c4.312-1.199,8.833-0.65,12.731,1.552c12.731,7.187,29.24,13.84,46.868,18.921c1.405,4.021,3.764,7.77,7.377,11.019
	c6.738,6.059,15.777,8.237,24.252,7.647c-1.066,6.024-1.617,12.139-1.617,18.292C126.485,332.338,126.513,333.539,126.554,334.736z
	 M136.392,295.016c-5.673,3.811-16.742,4.214-22.51-0.975c-6.564-5.903-5.208-18.996,3.722-35.921
	c7.073-13.406,23.051-32.608,59.006-47.959c18.489-7.893,36.258-11.932,46.365-12.737c-0.225,17.688-3.514,45.042-10.142,69.762
	c-4.074,15.191-8.903,27.655-14.261,37.041c-0.275,0.383-0.515,0.792-0.716,1.226c-6.054,10.207-12.759,16.532-19.802,18.44
	c-12.934,3.509-20.5-0.558-24.567-4.585c-5.095-5.044-6.715-12.1-5.654-16.177c0.785-3.017-0.377-6.203-2.919-8.007
	c-1.298-0.921-2.818-1.383-4.339-1.383C139.116,293.742,137.657,294.166,136.392,295.016z M182.536,190.034
	c0-11.121,9.047-20.167,20.167-20.167c8.475,0,15.732,5.26,18.712,12.682c-9.901,0.819-23.813,3.772-38.81,9.082
	C182.564,191.102,182.536,190.57,182.536,190.034z M245.868,427.596c-57.557,0-104.382-43.274-104.382-96.465
	c0-0.887,0.023-1.772,0.049-2.657c0.455,0.507,0.912,1.011,1.397,1.492c4.315,4.272,12.711,10.27,25.818,10.27
	c3.97,0,8.374-0.551,13.226-1.865c10.1-2.737,19.054-10.126,26.808-22.053c6.59,0.314,13.335,0.481,20.125,0.481
	c18.753,0,36.8-1.201,53.643-3.571c4.102-0.577,6.959-4.37,6.382-8.472c-0.577-4.102-4.371-6.958-8.472-6.382
	c-16.152,2.272-33.497,3.425-51.553,3.425c-4.092,0-8.167-0.061-12.199-0.18c3.94-8.709,7.482-18.889,10.609-30.547
	c7.986-29.781,11.35-63.478,10.544-81.374c0-0.004-0.001-0.008-0.001-0.012c-0.189-19.231-15.884-34.819-35.159-34.819
	c-19.392,0-35.167,15.776-35.167,35.167c0,2.473,0.259,4.904,0.762,7.281c-25.147,11.126-50.735,28.733-63.962,53.804
	c-2.909,5.514-6.207,12.877-8.07,20.677c-10.656-6.511-19.646-13.937-26.932-22.27c0.73,0.229,1.489,0.357,2.255,0.357
	c1.547,0,3.108-0.477,4.448-1.466c6.489-4.79,25.056-14.078,33.783-16.395c4.004-1.064,6.387-5.171,5.324-9.174
	c-1.063-4.004-5.174-6.384-9.173-5.324c-10.732,2.851-30.979,13.021-38.841,18.825c-2.164,1.598-3.213,4.138-3.014,6.636
	c-12.082-16.529-18.183-36.213-18.183-58.924c0-82.817,82.084-150.193,182.978-150.193S411.89,101.244,411.89,184.06
	c0,31.626-12.439,71.789-66.648,96.461c-0.355,0.114-0.708,0.246-1.052,0.417c-0.178,0.088-0.347,0.188-0.515,0.288
	c-8.856,3.924-18.796,7.443-29.955,10.451c-3.349,0.903-5.546,3.938-5.541,7.249c-2.114,1.022-4.133,2.278-6.015,3.777
	c-6.636,5.284-10.817,12.837-11.773,21.266c-0.955,8.429,1.429,16.726,6.713,23.359c4.614,5.794,5.272,10.406,1.958,13.707
	c-6.255,6.229-17.985,1.939-26.235-4.685c-13.658-10.961-33.684-8.766-44.645,4.89c-5.31,6.614-7.725,14.901-6.802,23.333
	c0.923,8.433,5.075,16.001,11.691,21.31c11.62,9.327,24.148,15.752,36.978,19.091C262.183,426.699,254.079,427.596,245.868,427.596z
	 M347.371,308.528c-0.198-0.254-0.382-0.512-0.583-0.764c-2.6-3.266-5.752-5.934-9.285-7.919c2.101-0.773,4.164-1.573,6.196-2.397
	C345.168,301.081,346.394,304.776,347.371,308.528z M314.356,487.459c-1.929,4.039-5.316,7.085-9.535,8.576
	c-1.814,0.641-3.693,0.966-5.587,0.966c-7.086,0-13.436-4.493-15.799-11.18c-6.626-18.742-10.62-33.187-12.596-45.685
	c11.287-2.245,22.168-6.009,32.335-11.213c1.264,14.034,6.514,30.611,11.858,45.727C316.526,478.871,316.285,483.42,314.356,487.459
	z M322.884,403.568c-0.004,0.002-0.008,0.005-0.012,0.007c-5.335,3.277-11.217,5.74-17.409,7.261
	c-0.092,0.02-0.183,0.04-0.274,0.064c-4.766,1.148-9.706,1.75-14.705,1.75c-16.371-0.001-32.977-6.386-48.026-18.464
	c-3.491-2.802-5.682-6.796-6.168-11.245c-0.487-4.45,0.788-8.822,3.589-12.314c3.306-4.119,8.174-6.262,13.086-6.262
	c3.681,0,7.385,1.204,10.473,3.682c19.065,15.304,36.945,12.842,46.21,3.614c7.012-6.984,10.481-19.5-0.81-33.678
	c-2.788-3.502-4.046-7.88-3.542-12.327c0.504-4.448,2.71-8.434,6.211-11.222c3.503-2.789,7.884-4.048,12.328-3.542
	c4.448,0.504,8.432,2.71,11.22,6.212c20.015,25.134,19.295,57.333-1.754,78.301C330.172,398.522,326.662,401.245,322.884,403.568z
	 M485.324,413.945c-1.464,1.558-3.448,2.416-5.586,2.416c-1.955,0-3.817-0.738-5.243-2.078c-11.62-10.92-24.914-16.781-40.645-17.92
	c-15.061-1.088-32.481,2.23-53.265,10.146c-14.134,5.384-27.077,6.029-39.265,1.949c0.874-0.787,1.731-1.594,2.564-2.425
	c3.336-3.323,6.272-6.864,8.809-10.576c6.916,0.905,14.311-0.173,22.437-3.268c47.034-17.917,82.968-14.344,109.855,10.927
	c1.492,1.401,2.348,3.3,2.412,5.345C487.462,410.507,486.725,412.455,485.324,413.945z M101.875,191.637
	c-11.007-1.453-33.602,0.235-43.085,2.604c-4.018,1.005-6.462,5.076-5.458,9.095c0.852,3.408,3.91,5.684,7.271,5.684
	c0.602,0,1.214-0.073,1.825-0.226c7.826-1.957,28.534-3.471,37.481-2.286c4.111,0.544,7.876-2.346,8.418-6.453
	C108.87,195.948,105.981,192.18,101.875,191.637z M305.499,206.508c8.95-1.183,29.655,0.329,37.481,2.286
	c0.611,0.152,1.222,0.226,1.825,0.226c3.36,0,6.418-2.275,7.27-5.684c1.004-4.019-1.439-8.09-5.458-9.095
	c-9.483-2.371-32.078-4.06-43.084-2.604c-4.107,0.543-6.995,4.311-6.453,8.418C297.623,204.161,301.391,207.049,305.499,206.508z
	 M295.588,232.023c8.727,2.317,27.294,11.605,33.783,16.395c1.34,0.989,2.901,1.466,4.448,1.466c2.299,0,4.569-1.054,6.04-3.046
	c2.46-3.332,1.753-8.028-1.58-10.488c-7.862-5.804-28.108-15.975-38.84-18.825c-4.003-1.06-8.111,1.321-9.174,5.324
	C289.202,226.852,291.585,230.959,295.588,232.023z"/>
<g>
</g>
<g>
</g>
<g>
</g>
<g>
</g>
<g>
</g>
<g>
</g>
<g>
</g>
<g>
</g>
<g>
</g>
<g>
</g>
<g>
</g>
<g>
</g>
<g>
</g>
<g>
</g>
<g>
</g>
</svg>
