<?xml version="1.0" encoding="iso-8859-1"?>
<!-- Generator: Adobe Illustrator 19.0.0, SVG Export Plug-In . SVG Version: 6.00 Build 0)  -->
<svg version="1.1" id="Capa_1" xmlns="http://www.w3.org/2000/svg" xmlns:xlink="http://www.w3.org/1999/xlink" x="0px" y="0px"
	 viewBox="0 0 512.003 512.003" style="enable-background:new 0 0 512.003 512.003;" xml:space="preserve">
<path id="SVGCleanerId_0" style="fill:#EDA751;" d="M30.242,419.627c-3.005,0-6.038-0.915-8.656-2.818
	c-6.59-4.787-8.052-14.011-3.264-20.6c11.592-15.956,27.361-25.256,45.603-26.896c16.009-1.439,33.293,3.155,49.988,13.284
	c8.429,5.115,16.313,6.414,24.108,3.974c11.996-3.758,23.858-16.575,31.732-34.285c3.309-7.444,12.023-10.795,19.469-7.486
	c7.443,3.309,10.794,12.026,7.485,19.469c-11.433,25.717-29.609,44.106-49.869,50.452c-15.9,4.982-32.575,2.592-48.227-6.904
	c-31.558-19.147-48.898-4.629-56.424,5.731C39.3,417.517,34.803,419.627,30.242,419.627z"/>
<g>
	<path id="SVGCleanerId_0_1_" style="fill:#EDA751;" d="M30.242,419.627c-3.005,0-6.038-0.915-8.656-2.818
		c-6.59-4.787-8.052-14.011-3.264-20.6c11.592-15.956,27.361-25.256,45.603-26.896c16.009-1.439,33.293,3.155,49.988,13.284
		c8.429,5.115,16.313,6.414,24.108,3.974c11.996-3.758,23.858-16.575,31.732-34.285c3.309-7.444,12.023-10.795,19.469-7.486
		c7.443,3.309,10.794,12.026,7.485,19.469c-11.433,25.717-29.609,44.106-49.869,50.452c-15.9,4.982-32.575,2.592-48.227-6.904
		c-31.558-19.147-48.898-4.629-56.424,5.731C39.3,417.517,34.803,419.627,30.242,419.627z"/>
</g>
<path style="fill:#FCD79D;" d="M26.465,386.78c-2.896,2.829-5.624,5.962-8.143,9.429c-4.788,6.59-3.325,15.814,3.264,20.6
	c2.618,1.902,5.651,2.818,8.656,2.818c4.561,0,9.059-2.109,11.945-6.082c1.56-2.148,3.549-4.471,5.992-6.64
	C44.693,395.042,34.402,389.048,26.465,386.78z"/>
<g>
	<path style="fill:#EDA751;" d="M202.229,504.501c-0.735,0-1.475-0.034-2.222-0.104c-12.977-1.212-22.513-12.714-21.301-25.689
		c2.702-28.947,4.579-56.201-2.05-71.539c-5.17-11.964,0.338-25.852,12.301-31.023c11.964-5.17,25.852,0.338,31.024,12.301
		c11.068,25.61,9.137,58.017,5.716,94.65C224.555,495.325,214.273,504.501,202.229,504.501z"/>
	<path style="fill:#EDA751;" d="M283.011,504.501c-0.735,0-1.475-0.034-2.222-0.104c-12.977-1.212-22.513-12.714-21.301-25.689
		c2.702-28.947,4.579-56.201-2.05-71.539c-5.17-11.964,0.338-25.852,12.302-31.023c11.964-5.17,25.851,0.338,31.023,12.301
		c11.068,25.61,9.137,58.017,5.716,94.65C305.338,495.325,295.055,504.501,283.011,504.501z"/>
	<path style="fill:#EDA751;" d="M124.961,347.027c-16.551,0-33.984-4.897-49.699-14.642c-29.633-18.375-44.723-49.251-39.382-80.579
		c2.192-12.848,14.378-21.491,27.228-19.296c12.848,2.19,21.487,14.381,19.297,27.228c-2.998,17.585,11.399,28.612,17.729,32.537
		c13.59,8.426,30.351,10.032,38.995,3.734c10.535-7.675,25.294-5.355,32.968,5.181c7.673,10.535,5.355,25.294-5.181,32.968
		C155.121,342.751,140.426,347.027,124.961,347.027z"/>
	<path style="fill:#EDA751;" d="M379.657,352.899c-28.126,0-53.851-10.487-65.659-17.606c-11.162-6.729-14.755-21.231-8.026-32.393
		c6.729-11.161,21.235-14.753,32.393-8.026c10.987,6.623,35.996,14.133,54.783,9.215c8.785-2.299,14.909-6.952,19.273-14.642
		c6.433-11.334,20.838-15.307,32.17-8.874c11.335,6.434,15.308,20.836,8.875,32.171c-10.617,18.704-27.341,31.499-48.369,37.003
		C396.608,351.97,388.026,352.899,379.657,352.899z"/>
</g>
<g>
	<path style="opacity:0.2;fill:#A35F00;enable-background:new    ;" d="M305.973,302.9c-6.729,11.161-3.137,25.663,8.025,32.393
		c9.55,5.758,28.204,13.716,49.869,16.55c1.699-7.814,2.593-15.901,2.593-24.18c0-8.084-0.857-15.982-2.479-23.623
		c-10.428-2.054-19.911-5.726-25.614-9.164C327.208,288.147,312.702,291.739,305.973,302.9z"/>
	<path style="opacity:0.2;fill:#A35F00;enable-background:new    ;" d="M308.918,428.183c-0.691-14.535-3.025-27.867-8.155-39.737
		c-5.171-11.963-19.06-17.47-31.023-12.3s-17.472,19.06-12.302,31.023c4.038,9.344,4.917,23.113,4.379,38.99
		C278.952,443.148,294.897,436.925,308.918,428.183z"/>
	<path style="opacity:0.2;fill:#A35F00;enable-background:new    ;" d="M188.957,376.145c-11.963,5.17-17.471,19.06-12.301,31.023
		c3.114,7.206,4.351,17.041,4.507,28.445c14.365,6.733,30.248,11.013,47.033,12.236c0.756-22.305-0.85-42.361-8.215-59.403
		C214.809,376.483,200.92,370.975,188.957,376.145z"/>
	<path style="opacity:0.2;fill:#A35F00;enable-background:new    ;" d="M189.222,344.799c-7.446-3.309-16.16,0.043-19.469,7.486
		c-7.875,17.711-19.736,30.528-31.732,34.285c-3.671,1.149-7.363,1.458-11.121,0.94c5.982,9.79,13.388,18.716,21.943,26.536
		c19.451-6.902,36.809-24.914,47.863-49.78C200.015,356.823,196.665,348.108,189.222,344.799z"/>
	<path style="opacity:0.2;fill:#A35F00;enable-background:new    ;" d="M139.129,296.009c-5.871,4.277-15.486,4.899-25.308,2.225
		c-2.524,9.423-3.872,19.28-3.872,29.428c0,6.215,0.504,12.32,1.473,18.284c4.543,0.712,9.074,1.081,13.54,1.081
		c15.465,0,30.159-4.277,41.955-12.87c10.535-7.673,12.854-22.433,5.181-32.968C164.423,290.655,149.665,288.335,139.129,296.009z"
		/>
</g>
<ellipse style="fill:#FCD690;" cx="238.204" cy="327.662" rx="108.837" ry="101.137"/>
<path style="opacity:0.15;fill:#C17A00;enable-background:new    ;" d="M222.31,427.724
	c-49.738-32.654-34.323-99.581-25.879-128.851v-64.626c-39.378,15.223-67.067,51.312-67.067,93.416
	C129.362,378.502,169.733,420.575,222.31,427.724z"/>
<path style="fill:#EDA751;" d="M171.967,152.29c21.297-17.871,35.517-47.872,5.477-92.22C147.167,15.371,102.087,4.166,66.894,8.313
	c-8.677,1.022-15.957,7.131-18.47,15.498C38.23,57.75,41.436,104.09,80.198,141.67C118.655,178.955,150.67,170.16,171.967,152.29z"
	/>
<path style="fill:#FF91AB;" d="M47.007,29.004c-8.358,33.369-3.632,76.966,33.19,112.665c33.334,32.317,61.821,30.008,82.691,17.185
	C148.535,61.418,85.835,35.58,47.007,29.004z"/>
<path style="fill:#EDA751;" d="M304.441,152.29c-21.297-17.871-35.518-47.872-5.477-92.22
	c30.278-44.699,75.357-55.904,110.55-51.757c8.677,1.022,15.957,7.131,18.47,15.498c10.195,33.939,6.988,80.279-31.774,117.859
	C357.752,178.955,325.738,170.16,304.441,152.29z"/>
<path style="fill:#FF91AB;" d="M429.401,29.004c8.358,33.369,3.632,76.966-33.19,112.665
	c-33.334,32.317-61.821,30.008-82.691,17.185C327.873,61.418,390.573,35.58,429.401,29.004z"/>
<path style="fill:#FFDC9C;" d="M423.505,179.263c0,84.725-82.962,121.833-185.3,121.833S52.903,263.988,52.903,179.263
	S135.865,25.855,238.204,25.855C340.543,25.855,423.505,94.538,423.505,179.263z"/>
<path style="opacity:0.15;fill:#C17A00;enable-background:new    ;" d="M139.263,49.54c-51.896,27.186-86.36,75.119-86.36,129.722
	c0,72.832,61.306,110.477,143.527,119.61C78.406,228.373,93.798,133.544,139.263,49.54z"/>
<g>
	<ellipse style="fill:#FF91AB;" cx="156.717" cy="181.656" rx="33.551" ry="26.718"/>
	<ellipse style="fill:#FF91AB;" cx="338.572" cy="181.656" rx="33.551" ry="26.718"/>
</g>
<path style="fill:#7694E4;" d="M453.365,310.66l-42.155-4.636c-9.41-1.035-16.199-9.502-15.165-18.911l9.526-86.628
	c1.035-9.41,9.502-16.199,18.911-15.165l42.155,4.636c9.41,1.035,16.199,9.502,15.164,18.911l-9.526,86.628
	C471.242,304.906,462.775,311.695,453.365,310.66z"/>
<circle style="opacity:0.1;enable-background:new    ;" cx="425.74" cy="207.405" r="7.139"/>
<circle style="fill:#FFFFFF;" cx="439.899" cy="239.154" r="12.165"/>
<rect x="397.075" y="272.301" transform="matrix(-0.994 -0.1093 0.1093 -0.994 837.646 605.5165)" style="opacity:0.1;enable-background:new    ;" width="76.687" height="14.999"/>
<path style="fill:#DEE2E5;" d="M144.158,378.593c18.875,30.029,53.923,50.207,94.047,50.207s75.172-20.178,94.047-50.207H144.158z"
	/>
<path style="fill:#7694E4;" d="M144.158,378.593h188.093c5.254-8.359,9.253-17.482,11.76-27.145H132.398
	C134.905,361.112,138.903,370.234,144.158,378.593z"/>
<path style="opacity:0.1;enable-background:new    ;" d="M132.398,351.449c2.507,9.664,6.505,18.786,11.76,27.145
	c16.333,25.984,44.779,44.581,78.141,49.123c-28.461-18.693-35.577-48.61-34.88-76.267h-55.021V351.449z"/>
<path d="M452.182,171.769c0.354,0.05,0.705,0.074,1.052,0.074c3.68,0,6.892-2.71,7.418-6.46l2.908-20.736
	c0.575-4.102-2.284-7.893-6.386-8.469c-4.113-0.581-7.895,2.283-8.47,6.386l-2.908,20.736
	C445.222,167.402,448.081,171.194,452.182,171.769z M337.951,208.413c8.471,2.249,26.495,11.266,32.795,15.917
	c1.34,0.989,2.9,1.466,4.448,1.466c2.3,0,4.569-1.054,6.04-3.046c2.46-3.332,1.753-8.028-1.58-10.488
	c-7.662-5.656-27.395-15.569-37.853-18.347c-4.003-1.06-8.111,1.32-9.174,5.324C331.564,203.243,333.947,207.35,337.951,208.413z
	 M176.268,135.655c-4.143,0-7.5,3.358-7.5,7.5v11.848c0,4.142,3.357,7.5,7.5,7.5s7.5-3.358,7.5-7.5v-11.848
	C183.768,139.013,180.41,135.655,176.268,135.655z M467.458,182.502l-36.464-4.01c-0.103-18.507-3.91-36.514-11.134-53.437
	c20.369-30.476,25.97-67.902,15.308-103.401C431.789,10.4,422.064,2.239,410.394,0.865c-35.381-4.172-70.195,6.884-96.314,30.383
	c-23.668-8.447-49.367-12.893-75.875-12.893S186,22.801,162.331,31.248C136.212,7.748,101.395-3.302,66.018,0.865
	c-11.67,1.375-21.394,9.535-24.774,20.789C30.581,57.153,36.183,94.58,56.552,125.055c-7.325,17.158-11.146,35.429-11.146,54.208
	c0,16.672,3.002,31.957,8.949,45.774c-4.699,0.727-9.2,2.532-13.192,5.363c-6.776,4.803-11.276,11.958-12.674,20.147
	c-5.864,34.396,10.546,68.198,42.824,88.213c16.635,10.315,35.186,15.768,53.65,15.768c0.164,0,0.336-0.009,0.501-0.01
	c2.393,8.754,5.924,17.088,10.443,24.85c-0.041,0.013-0.084,0.032-0.125,0.045c-5.697,1.783-11.411,0.757-17.977-3.229
	c-18.075-10.966-36.939-15.927-54.551-14.341c-20.462,1.84-38.098,12.199-51,29.957c-3.492,4.808-4.903,10.689-3.974,16.559
	c0.931,5.87,4.091,11.026,8.898,14.518c3.826,2.781,8.345,4.251,13.065,4.251c7.104,0,13.839-3.429,18.013-9.173
	c10.68-14.7,26.312-15.955,46.466-3.727c17.551,10.648,36.351,13.295,54.359,7.649c6.073-1.902,11.994-4.775,17.671-8.54
	c1.663,1.212,3.364,2.379,5.096,3.507c3.295,14.942,1.524,38.345-0.607,61.167c-0.772,8.271,1.723,16.347,7.024,22.741
	c5.303,6.394,12.777,10.341,21.051,11.114c0.969,0.09,1.95,0.136,2.915,0.136c16.136,0,29.434-12.127,30.935-28.208
	c1.74-18.627,2.818-33.619,2.693-47.52c0.78,0.014,1.561,0.028,2.346,0.028c5.508,0,10.926-0.368,16.233-1.063
	c0.219,13.007-1.05,28.155-2.415,42.772c-0.772,8.271,1.722,16.347,7.023,22.741c5.303,6.395,12.777,10.342,21.051,11.114
	c0.969,0.09,1.95,0.136,2.916,0.136c13.655,0,25.902-9.144,29.783-22.234c1.178-3.972-1.088-8.145-5.059-9.323
	c-3.974-1.173-8.145,1.088-9.322,5.059c-2.007,6.771-8.341,11.499-15.403,11.499c-0.504,0-1.018-0.024-1.524-0.071
	c-4.282-0.4-8.151-2.443-10.896-5.753c-2.744-3.31-4.035-7.491-3.635-11.773c1.493-16.003,2.874-32.663,2.41-47.068
	c11.216-2.915,21.756-7.36,31.342-13.085c1.08,10.111,1.213,21.867,0.425,36.107c-0.23,4.136,2.938,7.674,7.074,7.903
	c0.141,0.008,0.281,0.011,0.421,0.011c3.952,0,7.261-3.091,7.482-7.086c1.06-19.15,0.574-33.774-1.577-46.607
	c9.271-7.542,17.25-16.432,23.592-26.336c0.321-0.405,0.599-0.845,0.831-1.312c4.808-7.753,8.618-16.108,11.268-24.912
	c9.996,2.231,19.867,3.378,29.431,3.378c9.533,0,18.731-1.142,27.341-3.396c22.452-5.877,40.415-19.374,52.085-39.043
	c4.196-0.656,8.169-2.387,11.571-5.114c5.135-4.117,8.359-9.988,9.078-16.53l9.526-86.629
	C490.741,196.182,480.962,183.987,467.458,182.502z M411.958,109.3c-9.401-16.243-22.141-31.206-37.945-44.29
	c-1.037-0.859-2.087-1.703-3.143-2.54c17.8-14.261,37.265-21.269,52.728-24.693C426.665,54.866,427.417,81.764,411.958,109.3z
	 M408.637,15.761c4.752,0.56,8.841,3.416,11.047,7.525c-18.013,4.072-40.802,12.543-61.343,30.082
	c-8.99-5.995-18.532-11.267-28.524-15.778C360.687,13.356,394.621,14.11,408.637,15.761z M67.772,15.761
	c14.014-1.65,47.949-2.405,78.821,21.829c-9.993,4.511-19.535,9.783-28.524,15.778C97.526,35.828,74.737,27.357,56.724,23.285
	C58.93,19.176,63.019,16.321,67.772,15.761z M52.809,37.777c15.463,3.425,34.929,10.433,52.729,24.693
	c-1.056,0.837-2.106,1.681-3.143,2.54C86.591,78.094,73.851,93.057,64.45,109.3C48.992,81.764,49.744,54.866,52.809,37.777z
	 M122.554,339.483c-14.877-0.453-29.809-5.082-43.339-13.471c-26.987-16.734-40.76-44.685-35.941-72.943
	c0.723-4.241,3.053-7.946,6.561-10.432c3.509-2.487,7.776-3.458,12.013-2.733c0.157,0.027,0.314,0.071,0.472,0.103
	c3.701,5.756,8.006,11.202,12.91,16.33c-0.025,0.719-0.094,1.435-0.215,2.143c-1.254,7.353-1.7,25.987,21.169,40.171
	c8.673,5.376,18.634,8.38,27.718,8.643c-1.353,6.662-2.038,13.464-2.038,20.37C121.862,331.656,122.101,335.599,122.554,339.483z
	 M128.231,292.144c-7.076,0.867-16.456-1.475-24.144-6.242c-8.672-5.379-12.409-11.251-13.82-16.267
	c11.03,8.323,23.879,15.371,38.501,21.082C128.584,291.192,128.408,291.668,128.231,292.144z M144.596,407.562
	c-13.782,4.318-28.336,2.189-42.095-6.16c-38.065-23.096-59.103-2.284-66.381,7.734c-1.381,1.901-3.523,2.991-5.878,2.991
	c-1.531,0-3-0.479-4.248-1.386c-3.234-2.349-3.954-6.892-1.605-10.125c10.282-14.152,24.185-22.393,40.208-23.834
	c14.399-1.29,30.108,2.933,45.426,12.226c10.23,6.209,20.405,7.797,30.239,4.72c1.434-0.449,2.871-1.009,4.306-1.667
	c3.094,3.912,6.461,7.623,10.076,11.11C151.351,405.019,147.993,406.498,144.596,407.562z M218.23,482.397
	c-0.777,8.326-7.656,14.603-16.001,14.603c-0.504,0-1.018-0.024-1.524-0.071c-4.282-0.4-8.151-2.443-10.896-5.753
	c-2.744-3.31-4.036-7.491-3.636-11.772c1.818-19.475,3.272-38.238,2.037-53.659c6.977,3.113,14.337,5.593,21.992,7.366
	c0.091,0.02,0.181,0.045,0.272,0.062c3.401,0.78,6.859,1.424,10.369,1.916C221.048,448.735,219.982,463.639,218.23,482.397z
	 M209.214,417.39c-19.99-5.524-37.405-16.605-50.138-31.297h68.892C223.604,396.318,216.885,408.17,209.214,417.39z
	 M238.203,421.301c-4.238,0-8.414-0.245-12.516-0.714c3.208-4.454,6.157-9.151,8.788-13.85c5.341,1.892,13.468,6.041,18.344,13.587
	C248.045,420.963,243.166,421.301,238.203,421.301z M268.155,417.126c-6.058-13.095-18.033-20.327-26.965-23.837
	c1.096-2.496,2.079-4.913,2.92-7.195h73.224C304.803,400.55,287.742,411.515,268.155,417.126z M327.963,371.094h-89.24
	c-0.034,0-0.069,0-0.103,0h-90.175c-2.217-3.896-4.145-7.952-5.759-12.146h191.034C332.108,363.141,330.18,367.198,327.963,371.094z
	 M338.008,343.949H138.4c-1.008-5.291-1.538-10.733-1.538-16.287c0-9.107,1.388-18.006,4.137-26.579
	c0.055-0.155,0.112-0.31,0.157-0.468c0.544-1.664,1.141-3.316,1.788-4.955c10.308,3.206,21.343,5.851,33.118,7.899
	c0.435,0.076,0.867,0.112,1.294,0.112c3.578,0,6.746-2.57,7.38-6.216c0.71-4.081-2.022-7.964-6.104-8.674
	c-13.36-2.324-25.671-5.433-36.922-9.294c-0.372-0.157-0.749-0.288-1.13-0.381c-19.096-6.681-35.058-15.577-47.687-26.61
	c-1.736-1.517-3.396-3.075-4.994-4.667c-0.047-0.047-0.093-0.094-0.141-0.139c-18.154-18.151-27.355-41.133-27.355-68.427
	c0-80.454,79.761-145.907,177.8-145.907c97.782,0,177.373,65.111,177.792,145.273c-9.402,2.633-16.748,10.753-17.879,21.037
	l-4.717,42.898c-13.59,15.654-33.146,27.955-57.629,36.554c-0.398,0.1-0.791,0.244-1.178,0.414
	c-26.786,9.219-59.355,14.065-96.39,14.065c-8.753,0-17.416-0.281-25.747-0.834c-4.097-0.264-7.705,2.852-7.98,6.986
	c-0.274,4.133,2.853,7.707,6.986,7.981c8.661,0.576,17.658,0.868,26.741,0.868c35.925,0,68.034-4.454,95.247-12.968
	c0.453,1.145,0.884,2.296,1.287,3.453c0.02,0.062,0.041,0.124,0.062,0.186c3.151,9.131,4.748,18.643,4.748,28.395
	C339.546,333.216,339.017,338.658,338.008,343.949z M347.862,291.286c-0.082-0.214-0.168-0.427-0.251-0.64
	c16.722-6.554,31.234-14.836,43.223-24.743l-2.242,20.39c-0.411,3.737,0.026,7.437,1.242,10.881
	C375.786,300.26,358.179,295.755,347.862,291.286z M403.2,342.492c-14.94,3.909-32.076,3.825-49.728-0.108
	c0.702-4.816,1.072-9.729,1.072-14.722c0-6.317-0.579-12.546-1.711-18.661c8.413,2.49,17.878,4.141,27.012,4.141
	c5.267,0,10.426-0.548,15.202-1.798c1.668-0.437,3.275-0.959,4.817-1.556c3.14,1.999,6.717,3.272,10.526,3.691l31.364,3.449
	C432.256,329.557,419.095,338.332,403.2,342.492z M474.347,208.047l-9.526,86.629c-0.281,2.56-1.543,4.857-3.552,6.467
	c-1.751,1.404-3.887,2.141-6.102,2.119c-0.201-0.018-0.401-0.032-0.6-0.034c-0.128-0.009-0.255-0.009-0.383-0.024l-42.155-4.635
	c-2.212-0.243-4.226-1.222-5.772-2.779c-0.046-0.047-0.089-0.097-0.137-0.142c-0.193-0.202-0.381-0.41-0.558-0.63
	c-1.611-2.009-2.343-4.525-2.062-7.085l4.559-41.464c0.001-0.014,0.003-0.027,0.005-0.041l4.961-45.122
	c0.548-4.984,4.832-8.663,9.743-8.582c0.075,0.006,0.148,0.018,0.224,0.022c0.05,0.002,0.098-0.002,0.147,0
	c0.174,0.01,0.348,0.011,0.523,0.031l42.154,4.636C471.101,197.993,474.928,202.764,474.347,208.047z M153.486,193.916
	c-10.457,2.777-30.19,12.689-37.854,18.347c-3.332,2.46-4.04,7.155-1.58,10.488c1.471,1.992,3.74,3.046,6.04,3.046
	c1.547,0,3.108-0.477,4.448-1.466c6.301-4.651,24.326-13.669,32.796-15.917c4.003-1.063,6.387-5.17,5.324-9.174
	C161.597,195.238,157.489,192.855,153.486,193.916z M501.042,153.11c-3.295-2.509-8.001-1.871-10.51,1.425l-12.853,16.886
	c-2.509,3.296-1.871,8.002,1.426,10.51c1.356,1.033,2.953,1.533,4.536,1.533c2.262,0,4.498-1.019,5.974-2.958l12.853-16.886
	C504.976,160.324,504.339,155.619,501.042,153.11z M347.671,183.597c8.69-1.147,28.789,0.32,36.385,2.219
	c0.611,0.153,1.223,0.226,1.825,0.226c3.36,0,6.418-2.275,7.271-5.683c1.004-4.018-1.438-8.09-5.457-9.095
	c-9.242-2.311-31.266-3.958-41.988-2.539c-4.107,0.543-6.996,4.312-6.453,8.418C339.796,181.251,343.579,184.136,347.671,183.597z
	 M395.359,164.841c1.48,1.639,3.521,2.473,5.567,2.473c1.793,0,3.591-0.639,5.025-1.935c3.074-2.777,3.315-7.519,0.538-10.593
	l-12.46-13.793c-2.777-3.075-7.52-3.313-10.593-0.538c-3.074,2.777-3.315,7.52-0.538,10.593L395.359,164.841z M147.616,183.597
	c4.092,0.539,7.875-2.346,8.418-6.453c0.543-4.106-2.347-7.875-6.453-8.418c-10.727-1.417-32.748,0.228-41.989,2.539
	c-4.019,1.004-6.461,5.077-5.457,9.095c0.853,3.408,3.91,5.683,7.271,5.683c0.603,0,1.215-0.073,1.825-0.226
	C118.827,183.917,138.928,182.448,147.616,183.597z M319.018,162.503c4.143,0,7.5-3.358,7.5-7.5v-11.848c0-4.142-3.357-7.5-7.5-7.5
	c-4.143,0-7.5,3.358-7.5,7.5v11.848C311.519,159.145,314.875,162.503,319.018,162.503z M254.141,178.411l-12.54-3.439
	c-3.999-1.097-8.121,1.255-9.216,5.249c-1.096,3.995,1.254,8.121,5.249,9.217l12.539,3.439c1.566,0.43,3.135,0.638,4.674,0.638
	c6.064,0,11.657-3.229,14.753-8.832c3.88-7.025,2.511-15.387-3.406-20.806c-0.048-0.044-0.176-0.161-0.176-0.399
	c0-0.238,0.128-0.355,0.175-0.399c5.918-5.42,7.287-13.782,3.407-20.806c-3.881-7.025-11.689-10.319-19.426-8.195l-12.54,3.439
	c-3.995,1.096-6.345,5.222-5.249,9.217c1.095,3.994,5.223,6.344,9.216,5.249l12.541-3.439c0.383-0.105,1.551-0.424,2.328,0.982
	c0.777,1.407-0.115,2.224-0.409,2.493c-3.205,2.936-5.043,7.113-5.043,11.46c0,4.347,1.838,8.524,5.044,11.461
	c0.293,0.268,1.186,1.086,0.408,2.493C255.692,178.835,254.525,178.517,254.141,178.411z"/>
<g>
</g>
<g>
</g>
<g>
</g>
<g>
</g>
<g>
</g>
<g>
</g>
<g>
</g>
<g>
</g>
<g>
</g>
<g>
</g>
<g>
</g>
<g>
</g>
<g>
</g>
<g>
</g>
<g>
</g>
</svg>
