<?xml version="1.0" encoding="iso-8859-1"?>
<!-- Generator: Adobe Illustrator 19.0.0, SVG Export Plug-In . SVG Version: 6.00 Build 0)  -->
<svg version="1.1" id="Capa_1" xmlns="http://www.w3.org/2000/svg" xmlns:xlink="http://www.w3.org/1999/xlink" x="0px" y="0px"
	 viewBox="0 0 512.001 512.001" style="enable-background:new 0 0 512.001 512.001;" xml:space="preserve">
<path style="fill:#EDA751;" d="M389.838,471.824c-3.05,0-6.145-0.714-9.036-2.223c-32.555-16.979-46.391-32.745-61.685-70.286
	c-4.079-10.012,0.73-21.435,10.742-25.513c10.013-4.077,21.435,0.731,25.513,10.743c11.894,29.193,19.217,37.663,43.535,50.346
	c9.585,4.999,13.303,16.822,8.304,26.408C403.719,467.992,396.899,471.824,389.838,471.824z"/>
<path style="opacity:0.2;fill:#A35F00;enable-background:new    ;" d="M355.372,384.544c-4.078-10.012-15.5-14.82-25.513-10.743
	c-10.012,4.079-14.822,15.502-10.742,25.513c11.622,28.529,22.411,44.479,41.204,57.946c7.203-11.995,11.939-25.47,13.55-39.81
	C366.806,409.873,361.743,400.183,355.372,384.544z"/>
<g>
	<path style="fill:#EDA751;" d="M382.451,501.924c-5.063,0-10.123-1.952-13.954-5.846c-10.423-10.593-36.296-16.602-49.495-8.466
		c-9.201,5.673-21.26,2.812-26.934-6.392c-5.673-9.203-2.811-21.262,6.392-26.935c30.757-18.959,76.301-7.66,97.942,14.336
		c7.582,7.706,7.482,20.099-0.224,27.682C392.367,500.053,387.408,501.924,382.451,501.924z"/>
	<path style="fill:#EDA751;" d="M164.17,491.729c-3.135,0-6.314-0.172-9.526-0.517c-17.463-1.876-34.302-8.785-47.411-19.453
		c-14.85-12.085-23.738-27.784-25.702-45.401c-0.748-6.715,4.088-12.766,10.803-13.514c6.698-0.755,12.767,4.087,13.514,10.803
		c2.115,18.968,20.453,39.91,51.41,43.236c9.111,0.978,39.629,1.828,49.798-28.345c2.158-6.402,9.095-9.844,15.501-7.686
		c6.403,2.158,9.844,9.098,7.687,15.501c-5.555,16.479-16.283,29.302-31.024,37.083C188.843,488.915,176.872,491.729,164.17,491.729
		z"/>
</g>
<path style="fill:#FCD79D;" d="M108.324,433.388c-1.278-3.24-2.117-6.518-2.476-9.741c-0.747-6.716-6.816-11.559-13.514-10.803
	c-6.715,0.748-11.552,6.799-10.803,13.514c0.512,4.595,1.507,9.056,2.944,13.36C90.338,439.525,99.691,438.39,108.324,433.388z"/>
<path style="opacity:0.2;fill:#A35F00;enable-background:new    ;" d="M298.461,454.284c-9.203,5.673-12.065,17.732-6.392,26.935
	c5.675,9.204,17.733,12.065,26.934,6.392c6.105-3.763,14.921-4.495,23.666-3.152c10.899-9.297,19.809-20.622,26.063-33.335
	C346.452,442.48,319.123,441.548,298.461,454.284z"/>
<ellipse style="fill:#FCD690;" cx="268.991" cy="407.77" rx="90.28" ry="83.89"/>
<path style="opacity:0.15;fill:#C17A00;enable-background:new    ;" d="M255.808,490.775
	c-41.258-27.087-28.471-82.604-21.467-106.883v-53.608c-32.665,12.627-55.633,42.564-55.633,77.489
	C178.707,449.944,212.195,484.844,255.808,490.775z"/>
<path style="fill:#EDA751;" d="M214.048,262.299c17.667-14.824,29.462-39.71,4.543-76.497
	c-25.116-37.078-62.51-46.372-91.703-42.933c-7.197,0.848-13.236,5.915-15.321,12.856c-8.456,28.153-5.797,66.592,26.357,97.765
	C169.826,284.418,196.382,277.123,214.048,262.299z"/>
<path style="fill:#FF91AB;" d="M110.392,160.032c-6.933,27.68-3.013,63.844,27.532,93.457
	c27.651,26.808,51.281,24.892,68.593,14.255C194.611,186.92,142.601,165.487,110.392,160.032z"/>
<path style="fill:#EDA751;" d="M323.937,262.299c-17.667-14.824-29.462-39.71-4.543-76.497
	c25.116-37.078,62.51-46.372,91.703-42.933c7.197,0.848,13.236,5.915,15.321,12.856c8.456,28.153,5.797,66.592-26.357,97.765
	C368.159,284.418,341.603,277.123,323.937,262.299z"/>
<path style="fill:#FF91AB;" d="M427.593,160.032c6.933,27.68,3.013,63.844-27.532,93.457
	c-27.651,26.808-51.281,24.892-68.593,14.255C343.374,186.92,395.384,165.487,427.593,160.032z"/>
<path style="fill:#FFDC9C;" d="M422.702,284.673c0,70.28-68.818,101.062-153.709,101.062s-153.709-30.782-153.709-101.062
	s68.818-127.254,153.709-127.254S422.702,214.393,422.702,284.673z"/>
<path style="opacity:0.15;fill:#C17A00;enable-background:new    ;" d="M186.919,177.067
	c-43.048,22.551-71.636,62.312-71.636,107.606c0,60.415,50.855,91.642,119.058,99.218
	C136.437,325.411,149.206,246.749,186.919,177.067z"/>
<g>
	<ellipse style="fill:#FF91AB;" cx="199.761" cy="265.06" rx="27.831" ry="22.16"/>
	<ellipse style="fill:#FF91AB;" cx="350.611" cy="265.06" rx="27.831" ry="22.16"/>
</g>
<path style="fill:#DEE2E5;" d="M308.46,7.501c-12.592-0.057-24.234,3.969-33.704,10.815c-1.029,0.744-2.333,0.964-3.564,0.652
	c-2.289-0.58-4.686-0.892-7.156-0.892c-10.397,0-19.519,5.449-24.675,13.644c-0.53,0.843-1.421,1.405-2.415,1.474
	c-24.097,1.681-43.125,21.75-43.125,46.274c0,24.318,18.711,44.255,42.52,46.227c1.998,0.166,3.843,1.118,5.228,2.568
	c6.031,6.312,14.526,10.248,23.945,10.248c11.291,0,21.256-5.652,27.235-14.278c1.581-2.281,4.317-3.422,7.062-3.014
	c2.736,0.407,5.535,0.623,8.385,0.623c32.021,0,57.893-26.324,57.156-58.512C364.65,32.56,339.239,7.639,308.46,7.501z"/>
<g>
	<circle style="fill:#FFFFFF;" cx="234.541" cy="73.14" r="11.779"/>
	<circle style="fill:#FFFFFF;" cx="280.501" cy="73.14" r="11.779"/>
	<circle style="fill:#FFFFFF;" cx="326.461" cy="73.14" r="11.779"/>
</g>
<g>
	<path style="fill:#EDA751;" d="M200.426,429.061c-7.105,0-14.31-1.337-21.286-4.073c-10.064-3.948-15.021-15.308-11.073-25.372
		c3.948-10.065,15.307-15.021,25.372-11.074c7.952,3.12,14.968,0.25,18.881-3.477c2.898-2.759,7.263-8.861,3.941-18.725
		c-3.45-10.245,2.058-21.348,12.303-24.799c10.249-3.449,21.35,2.059,24.799,12.303c7.267,21.578,1.885,44.404-14.046,59.573
		C228.542,423.676,214.687,429.061,200.426,429.061z"/>
	<path style="fill:#EDA751;" d="M310.673,504.5c-3.715,0-7.471-1.055-10.799-3.262c-11.119-7.372-27.216-10.256-57.33-10.256
		c-0.158,0-0.295,0.008-0.471,0c-10.803,0-19.564-8.751-19.575-19.556c-0.01-10.811,8.746-19.583,19.557-19.593
		c0.172,0,0.345,0,0.517,0c32.216,0,57.983,2.885,78.935,16.777c9.01,5.974,11.471,18.121,5.498,27.131
		C323.238,501.422,317.015,504.5,310.673,504.5z"/>
</g>
<path style="opacity:0.15;fill:#C18F00;enable-background:new    ;" d="M310.673,504.5c-3.715,0-7.471-1.055-10.799-3.262
	c-11.119-7.372-27.216-10.256-57.33-10.256c-0.158,0-0.295,0.008-0.471,0c-10.803,0-19.564-8.751-19.575-19.556
	c-0.01-10.811,8.746-19.583,19.557-19.593c0.172,0,0.345,0,0.517,0c32.216,0,57.983,2.885,78.935,16.777
	c9.01,5.974,11.471,18.121,5.498,27.131C323.238,501.422,317.015,504.5,310.673,504.5z"/>
<path d="M391.673,255.205c-7.77-1.943-26.29-3.325-35.309-2.133c-4.107,0.543-6.996,4.312-6.453,8.418
	c0.543,4.107,4.327,6.992,8.418,6.453c6.951-0.92,23.639,0.297,29.705,1.814c0.611,0.153,1.223,0.226,1.825,0.226
	c3.36-0.001,6.418-2.275,7.27-5.683C398.134,260.282,395.692,256.21,391.673,255.205z M385.454,289.424
	c-6.442-4.755-23.036-13.09-31.832-15.425c-4.008-1.06-8.111,1.321-9.174,5.324c-1.063,4.004,1.321,8.111,5.324,9.174
	c6.775,1.799,21.742,9.282,26.773,12.996c1.341,0.989,2.9,1.466,4.448,1.466c2.3,0,4.569-1.054,6.04-3.046
	C389.494,296.58,388.787,291.884,385.454,289.424z M430.202,284.673c0-15.676-3.23-30.732-9.145-44.737
	c16.849-25.512,21.444-56.74,12.543-86.37c-2.951-9.823-11.439-16.946-21.627-18.147c-29.484-3.471-58.51,5.644-80.392,25.072
	c-19.253-6.806-40.404-10.572-62.588-10.572c-21.869,0-43.081,3.624-62.653,10.515c-21.874-19.391-50.874-28.489-80.329-25.015
	c-10.188,1.2-18.676,8.324-21.625,18.146c-8.89,29.594-4.318,60.783,12.48,86.276c-5.966,14.204-9.082,29.309-9.082,44.831
	c0,28.337,10.305,51.949,30.628,70.179c10.385,9.316,23.16,16.993,38.171,22.99c-0.524,1.415-1.01,2.842-1.459,4.28
	c-6.202,2.809-11.363,7.932-14.039,14.756c-5.189,13.225,0.787,28.113,13.353,34.223c2.357,8.37,5.957,16.313,10.644,23.625
	c-10.54,5.847-22.975,5.136-27.023,4.702c-27.027-2.904-42.975-20.616-44.758-36.608c-0.583-5.241-3.176-9.942-7.301-13.237
	c-4.123-3.292-9.273-4.783-14.498-4.191c-10.813,1.205-18.631,10.984-17.427,21.799c2.188,19.612,12.017,37.036,28.424,50.387
	c14.221,11.573,32.455,19.064,51.343,21.093c3.455,0.371,6.93,0.56,10.328,0.56c13.869,0,27.199-3.167,38.55-9.158
	c3.812-2.012,7.422-4.371,10.796-7.03c2.037,1.313,4.132,2.559,6.285,3.732c4.869,7.033,12.973,11.665,22.141,11.709
	c0.21,0.007,0.401,0.005,0.602,0c28.128,0,43.537,2.609,53.186,9.006c4.45,2.952,9.616,4.512,14.939,4.512h0.004
	c9.11,0,17.553-4.529,22.583-12.115c1.745-2.632,2.996-5.491,3.733-8.468c9.862,0.537,20.852,4.525,26.161,9.921
	c5.131,5.215,11.984,8.086,19.3,8.086c7.148,0,13.892-2.761,18.989-7.775c7.923-7.796,10.019-19.31,6.252-29.076
	c2.503-2.195,4.616-4.831,6.169-7.807c6.901-13.236,1.749-29.622-11.486-36.525c-22.029-11.489-28.26-18.389-38.587-42.978
	c-0.681-2.509-1.477-4.992-2.39-7.445C405.965,359.956,430.202,327.469,430.202,284.673z M413.005,224.162
	c-8.193-13.569-19.05-25.827-31.994-36.296c13.763-10.678,28.628-16.183,40.741-19.01
	C423.991,182.473,424.225,202.999,413.005,224.162z M410.218,150.316c2.937,0.346,5.534,1.874,7.264,4.137
	c-14.606,3.513-32.613,10.486-49.002,24.258c-6.639-4.365-13.703-8.296-21.12-11.76
	C372.168,148.383,398.999,148.997,410.218,150.316z M127.765,150.317c11.208-1.321,37.983-1.932,62.761,16.562
	c-7.354,3.431-14.405,7.363-21.098,11.769c-16.368-13.729-34.342-20.686-48.926-24.194
	C122.232,152.19,124.829,150.663,127.765,150.317z M116.234,168.856c12.09,2.822,26.921,8.311,40.662,18.948
	c-0.458,0.371-0.921,0.735-1.375,1.111c-12.589,10.422-22.862,22.271-30.611,35.116
	C113.761,202.915,113.999,182.445,116.234,168.856z M183.483,418.594c-0.056-0.022-0.114-0.042-0.17-0.062
	c-0.479-0.172-0.958-0.339-1.435-0.526c-6.198-2.432-9.262-9.453-6.83-15.651c1.865-4.755,6.431-7.665,11.255-7.665
	c1.464,0,2.952,0.269,4.396,0.835c11.234,4.406,21.207,0.293,26.792-5.028c1.175-1.119,2.829-2.944,4.283-5.45
	c0.11-0.177,0.212-0.359,0.308-0.546c0.015-0.028,0.031-0.057,0.046-0.085c0.01-0.019,0.02-0.038,0.03-0.057
	c2.516-4.682,4.203-11.525,1.21-20.412c-2.125-6.31,1.279-13.172,7.588-15.297c6.313-2.127,13.174,1.28,15.299,7.589
	c6.326,18.783,1.686,38.612-12.11,51.747c-9.193,8.753-21.168,13.574-33.718,13.575
	C194.691,421.561,189.001,420.556,183.483,418.594z M195.718,476.806c-11.506,6.073-25.673,8.52-40.273,6.95
	c-16.038-1.723-31.479-8.049-43.479-17.814c-13.293-10.817-21.24-24.792-22.982-40.414c-0.289-2.594,1.586-4.94,4.189-5.231
	c1.252-0.14,2.479,0.217,3.466,1.006c0.991,0.792,1.614,1.919,1.754,3.176c1.306,11.703,7.437,23.128,17.266,32.172
	c10.712,9.856,24.819,15.974,40.799,17.69c7.054,0.757,23.506,1.268,37.812-7.608c2.144,2.373,4.418,4.647,6.817,6.81
	C199.357,474.721,197.575,475.826,195.718,476.806z M320.754,491.596c-2.243,3.384-6.013,5.404-10.082,5.404h-0.001
	c-2.365,0-4.666-0.696-6.652-2.013c-12.487-8.279-29.724-11.505-61.498-11.505l-0.237,0.003c-0.069-0.002-0.14-0.003-0.21-0.003
	c-6.651,0-12.068-5.412-12.075-12.063c-0.003-3.225,1.25-6.258,3.528-8.541c2.279-2.283,5.31-3.542,8.528-3.545l0.518-0.001
	c30.835,0,55.353,2.641,74.79,15.527c2.688,1.782,4.521,4.505,5.162,7.666c0.108,0.533,0.167,1.068,0.203,1.601
	c0,0.039,0.005,0.079,0.006,0.118C322.885,486.836,322.214,489.395,320.754,491.596z M390.92,490.956
	c-2.273,2.236-5.281,3.468-8.469,3.468c-3.263,0-6.319-1.281-8.607-3.606c-8.258-8.393-23.429-14.051-37.466-14.439
	c-0.201-0.608-0.418-1.208-0.66-1.796c6.92-6.03,12.795-12.88,17.51-20.332c14.95,3.339,28.829,10.482,37.829,19.63
	C395.726,478.626,395.665,486.287,390.92,490.956z M365.942,419.715c7.11,8.586,15.95,14.76,29.495,21.825
	c5.903,3.079,8.201,10.387,5.124,16.289c-0.508,0.974-1.136,1.854-1.863,2.636c-10.086-9.082-23.57-16.061-38.382-19.933
	C363.047,433.87,364.941,426.89,365.942,419.715z M348.905,366.481c-0.007,0.002-0.013,0.005-0.02,0.007
	c-4.188,1.449-8.36,2.706-12.443,3.793c-4.003,1.065-6.384,5.173-5.319,9.176s5.175,6.383,9.177,5.32
	c2.355-0.627,4.651-1.299,6.919-1.991c3.01,8.004,4.558,16.378,4.558,24.987c0,12.147-3.095,23.897-8.863,34.431
	c-0.06,0.108-0.125,0.212-0.18,0.323c-4.153,7.496-9.666,14.368-16.383,20.32c-0.232-0.164-0.462-0.331-0.7-0.489
	c-22.564-14.96-49.53-18.025-83.079-18.025l-0.524,0.001c-7.233,0.007-14.028,2.83-19.138,7.948
	c-3.827,3.834-6.363,8.612-7.392,13.807c-10.377-8.107-18.444-18.443-23.463-30.083c2.773,0.362,5.565,0.557,8.369,0.557
	c16.419,0,32.066-6.29,44.062-17.711c7.649-7.283,13.147-16.114,16.333-25.723c2.739,0.065,5.472,0.108,8.172,0.108
	c12.104,0,23.901-0.621,35.066-1.844c4.117-0.452,7.089-4.155,6.638-8.272c-0.451-4.118-4.155-7.09-8.272-6.639
	c-10.624,1.164-21.872,1.755-33.432,1.755c-1.704,0-3.429-0.026-5.153-0.054c0.699-8.779-0.38-17.85-3.371-26.73
	c-4.764-14.146-20.151-21.779-34.301-17.018c-14.148,4.765-21.781,20.152-17.017,34.3c0.423,1.255,0.658,2.438,0.742,3.56
	c-7.344-1.618-14.257-3.548-20.736-5.781c-0.063-0.024-0.127-0.044-0.19-0.066c-16.374-5.665-29.96-13.27-40.539-22.76
	c-17.017-15.264-25.645-35.119-25.645-59.013c0-66.032,65.589-119.753,146.209-119.753s146.209,53.721,146.209,119.753
	C415.202,332.028,381.567,355.173,348.905,366.481z M235.723,133.17c0.045,0.003,0.221,0.062,0.424,0.275
	c7.743,8.104,18.174,12.567,29.369,12.567c13.257,0,25.689-6.485,33.296-17.357c3.107,0.457,6.264,0.689,9.386,0.689
	c17.555,0,33.98-6.915,46.252-19.471c12.269-12.552,18.805-29.142,18.402-46.713c-0.208-9.091-2.293-17.863-6.199-26.072
	c-1.78-3.74-6.255-5.331-9.995-3.55c-3.74,1.78-5.329,6.254-3.55,9.995c2.991,6.288,4.589,13.007,4.748,19.971
	c0.309,13.5-4.71,26.245-14.133,35.886c-9.426,9.644-22.043,14.955-35.525,14.955c-2.42,0-4.869-0.182-7.28-0.541
	c-5.623-0.835-11.117,1.522-14.331,6.159c-4.796,6.919-12.673,11.05-21.07,11.05c-7.06,0-13.638-2.816-18.522-7.929
	c-2.697-2.823-6.26-4.549-10.032-4.862c-19.985-1.655-35.64-18.677-35.64-38.753c0-20.338,15.878-37.377,36.146-38.792
	c3.355-0.234,6.436-2.089,8.242-4.962c3.993-6.348,10.844-10.138,18.326-10.138c1.793,0,3.58,0.223,5.312,0.662
	c3.415,0.865,6.984,0.193,9.801-1.844C287.654,18.246,297.693,15,308.197,15c0.076,0,0.153,0,0.229,0
	c8.496,0.039,16.895,2.299,24.287,6.538c3.593,2.06,8.178,0.818,10.237-2.776c2.06-3.594,0.817-8.177-2.776-10.237
	c-9.64-5.527-20.595-8.475-31.68-8.525c-0.1,0-0.199,0-0.298,0c-13.172,0-25.786,3.921-36.597,11.364
	c-2.483-0.523-5.021-0.789-7.563-0.789c-11.938,0-22.925,5.692-29.806,15.335c-27.038,3.002-47.909,26.113-47.909,53.558
	c0,13.611,5.088,26.605,14.327,36.588C209.833,125.979,222.289,132.057,235.723,133.17z M334.395,225.628
	c-4.143,0-7.5,3.358-7.5,7.5v9.828c0,4.142,3.357,7.5,7.5,7.5s7.5-3.358,7.5-7.5v-9.828
	C341.895,228.986,338.538,225.628,334.395,225.628z M215.982,225.628c-4.143,0-7.5,3.358-7.5,7.5v9.828c0,4.142,3.357,7.5,7.5,7.5
	s7.5-3.358,7.5-7.5v-9.828C223.482,228.986,220.125,225.628,215.982,225.628z M196.756,273.999
	c-8.796,2.336-25.39,10.67-31.832,15.425c-3.333,2.46-4.04,7.156-1.58,10.488c1.471,1.992,3.74,3.046,6.04,3.046
	c1.547,0,3.108-0.477,4.448-1.466c5.031-3.714,19.998-11.197,26.773-12.996c4.003-1.063,6.387-5.17,5.324-9.174
	C204.868,275.32,200.761,272.939,196.756,273.999z M192.047,267.943c4.093,0.54,7.875-2.346,8.418-6.453
	c0.543-4.106-2.347-7.876-6.452-8.418c-9.025-1.193-27.539,0.19-35.309,2.133c-4.018,1.004-6.461,5.077-5.457,9.095
	c0.853,3.408,3.91,5.683,7.271,5.683c0.602,0,1.215-0.073,1.825-0.226C168.41,268.24,185.096,267.022,192.047,267.943z
	 M290.798,240.36h-31.219c-4.143,0-7.5,3.358-7.5,7.5s3.357,7.5,7.5,7.5h31.219c4.143,0,7.5-3.358,7.5-7.5
	S294.941,240.36,290.798,240.36z"/>
<g>
</g>
<g>
</g>
<g>
</g>
<g>
</g>
<g>
</g>
<g>
</g>
<g>
</g>
<g>
</g>
<g>
</g>
<g>
</g>
<g>
</g>
<g>
</g>
<g>
</g>
<g>
</g>
<g>
</g>
</svg>
