<?xml version="1.0" encoding="iso-8859-1"?>
<!-- Generator: Adobe Illustrator 19.0.0, SVG Export Plug-In . SVG Version: 6.00 Build 0)  -->
<svg version="1.1" id="Capa_1" xmlns="http://www.w3.org/2000/svg" xmlns:xlink="http://www.w3.org/1999/xlink" x="0px" y="0px"
	 viewBox="0 0 511.999 511.999" style="enable-background:new 0 0 511.999 511.999;" xml:space="preserve">
<path style="fill:#EDA751;" d="M22.606,457.707c-4.384,0-8.729-1.899-11.713-5.563c-5.265-6.465-4.293-15.973,2.171-21.238
	c26.051-21.218,69.913-25.709,123.505-12.648c29.966,7.304,56.84-8.349,65.352-38.062c2.297-8.015,10.656-12.648,18.669-10.355
	c8.015,2.296,12.651,10.654,10.355,18.669c-13.006,45.401-55.703,70.247-101.523,59.081c-43.549-10.614-79.011-8.163-97.29,6.724
	C29.33,456.596,25.956,457.707,22.606,457.707z"/>
<path style="fill:#FCD79D;" d="M25.912,422.53c-4.66,2.42-8.957,5.208-12.848,8.378c-6.464,5.265-7.436,14.773-2.171,21.238
	c2.984,3.664,7.33,5.563,11.713,5.563c3.351,0,6.724-1.111,9.524-3.392c2.8-2.281,6.007-4.266,9.581-5.961
	C39.335,436.035,31.488,427.002,25.912,422.53z"/>
<g>
	<path style="fill:#EDA751;" d="M130.984,372.818c-19.303,0-40.047-3.704-59.555-15.192c-11.494-6.769-15.325-21.574-8.556-33.068
		c6.769-11.494,21.574-15.324,33.068-8.556c25.789,15.188,59.459,6.667,81.739,1.029c2.952-0.747,5.695-1.44,8.197-2.03
		c12.983-3.056,25.988,4.985,29.048,17.968c3.06,12.983-4.984,25.988-17.969,29.048c-2.267,0.534-4.753,1.165-7.427,1.842
		C175.2,367.487,154.13,372.818,130.984,372.818z"/>
	<path style="fill:#EDA751;" d="M384.497,366.604c-10.193,0-20.239-1.675-29.836-6.655c-11.84-6.144-16.458-20.722-10.315-32.562
		c6.144-11.839,20.721-16.458,32.562-10.315c5.268,2.733,18.664,0.468,31.618-1.723c21.783-3.685,48.89-8.272,78.742,0.678
		c12.778,3.831,20.031,17.294,16.2,30.07c-3.831,12.778-17.293,20.03-30.071,16.2c-19.046-5.711-38.246-2.461-56.814,0.679
		C405.957,364.775,395.146,366.604,384.497,366.604z"/>
</g>
<g>
	<path style="opacity:0.2;fill:#A35F00;enable-background:new    ;" d="M410.939,363.919c-0.745-15.781-2.299-30.601-3.667-43.631
		c-0.166-1.579-0.328-3.126-0.486-4.645c-12.397,2.089-24.846,4.04-29.879,1.43c-11.842-6.144-26.418-1.525-32.562,10.315
		s-1.525,26.418,10.315,32.562c9.598,4.98,19.644,6.655,29.836,6.655C393.266,366.604,402.144,365.36,410.939,363.919z"/>
	<path style="opacity:0.2;fill:#A35F00;enable-background:new    ;" d="M220.589,369.843c-8.013-2.294-16.372,2.34-18.669,10.355
		c-7.076,24.702-26.847,39.672-50.531,39.827c-1.175,10.222-2.693,20.34-4.644,30.107c38.903,1.947,72.851-22.01,84.198-61.62
		C233.24,380.496,228.604,372.139,220.589,369.843z"/>
	<path style="opacity:0.2;fill:#A35F00;enable-background:new    ;" d="M214.926,332.97c-3.06-12.983-16.066-21.025-29.049-17.968
		c-2.502,0.59-5.245,1.283-8.197,2.03c-6.687,1.692-14.404,3.641-22.623,5.133c0.193,14.276,0.275,31.085-0.282,48.926
		c13.541-1.871,25.543-4.899,34.754-7.23c2.675-0.677,5.161-1.307,7.427-1.841C209.941,358.959,217.986,345.953,214.926,332.97z"/>
</g>
<path style="fill:#FCD690;" d="M174.059,290.896c0,33.18,4.1,108.19-9.733,169.969c-1.152,5.144,0.353,10.524,3.94,14.388
	l1.893,2.039c6.02,6.484,15.581,8.25,23.52,4.345l6.83-3.36c7.463-3.671,16.418-2.349,22.501,3.323l0.63,0.588
	c6.508,6.068,16.24,7.116,23.889,2.57l6.413-3.81c6.921-4.112,15.632-3.681,22.113,1.095l3.207,2.363
	c6.316,4.654,14.767,5.192,21.622,1.378l10.49-5.837c7.142-3.974,15.983-3.21,22.337,1.93l0,0c7.546,6.104,18.383,5.92,25.716-0.437
	l0,0c11.802-10.23,20.493-23.607,24.861-38.602c16.495-56.619,1.234-122.044,1.234-151.942H174.059z"/>
<path style="opacity:0.15;fill:#C17A00;enable-background:new    ;" d="M164.325,460.866c-1.152,5.144,0.353,10.525,3.94,14.388
	l1.893,2.039c6.02,6.484,15.581,8.25,23.52,4.345l6.83-3.36c7.463-3.671,16.418-2.349,22.501,3.323l0.63,0.587
	c3.177,2.962,7.123,4.718,11.219,5.221c-19.96-40.614-4.955-134.069,0.988-165.49v-31.022h-61.787
	C174.059,324.077,178.159,399.086,164.325,460.866z"/>
<path style="fill:#EDA751;" d="M210.807,171.891c21.799-18.291,36.352-48.996,5.606-94.387
	c-30.989-45.749-77.128-57.217-113.149-52.974c-8.881,1.046-16.332,7.299-18.904,15.863c-10.434,34.736-7.152,82.165,32.52,120.628
	C156.243,199.183,189.009,190.183,210.807,171.891z"/>
<path style="fill:#FF91AB;" d="M82.911,45.709c-8.554,34.153-3.717,78.774,33.97,115.313c34.117,33.077,63.274,30.713,84.634,17.589
	C186.825,78.884,122.652,52.44,82.911,45.709z"/>
<path style="fill:#EDA751;" d="M346.394,171.891c-21.799-18.291-36.352-48.996-5.606-94.387
	c30.989-45.749,77.128-57.217,113.149-52.974c8.881,1.046,16.332,7.299,18.904,15.863c10.434,34.736,7.152,82.165-32.52,120.628
	C400.958,199.183,368.192,190.183,346.394,171.891z"/>
<path style="fill:#FF91AB;" d="M474.291,45.709c8.554,34.153,3.717,78.774-33.97,115.313
	c-34.117,33.077-63.274,30.713-84.634,17.589C370.377,78.884,434.549,52.44,474.291,45.709z"/>
<path style="fill:#FFDC9C;" d="M468.256,199.498c0,86.716-84.911,124.696-189.655,124.696S88.946,286.215,88.946,199.498
	S173.857,42.486,278.601,42.486S468.256,112.782,468.256,199.498z"/>
<path style="opacity:0.15;fill:#C17A00;enable-background:new    ;" d="M177.334,66.727c-53.115,27.825-88.389,76.884-88.389,132.77
	c0,74.543,62.748,113.073,146.9,122.42C115.046,249.763,130.801,152.705,177.334,66.727z"/>
<g>
	<ellipse style="fill:#FF91AB;" cx="199.615" cy="203.156" rx="34.339" ry="27.346"/>
	<ellipse style="fill:#FF91AB;" cx="385.741" cy="203.156" rx="34.339" ry="27.346"/>
	<circle style="fill:#FF91AB;" cx="292.673" cy="187.627" r="23.119"/>
</g>
<path d="M212.124,163.749v12.127c0,4.142,3.358,7.5,7.5,7.5s7.5-3.358,7.5-7.5v-12.127c0-4.142-3.358-7.5-7.5-7.5
	S212.124,159.607,212.124,163.749z M162.127,248.156c1.547,0,3.108-0.477,4.448-1.466c6.46-4.768,24.94-14.013,33.625-16.319
	c4.003-1.063,6.387-5.17,5.325-9.173c-1.063-4.003-5.169-6.386-9.173-5.325c-10.687,2.837-30.853,12.967-38.684,18.749
	c-3.333,2.46-4.04,7.156-1.58,10.488C157.558,247.102,159.828,248.156,162.127,248.156z M190.322,204.967
	c4.108,0.546,7.875-2.346,8.418-6.453c0.542-4.106-2.347-7.875-6.453-8.418c-10.962-1.448-33.466,0.233-42.909,2.595
	c-4.019,1.004-6.462,5.076-5.457,9.095c0.852,3.408,3.91,5.683,7.27,5.683c0.602,0,1.214-0.073,1.825-0.226
	C160.805,205.296,181.413,203.789,190.322,204.967z M323.291,187.633c0-16.881-13.734-30.615-30.614-30.615
	c-16.881,0-30.615,13.734-30.615,30.615c0,16.881,13.734,30.615,30.615,30.615C309.558,218.247,323.291,204.513,323.291,187.633z
	 M277.061,187.633c0-8.61,7.005-15.616,15.616-15.616c8.61,0,15.615,7.005,15.615,15.616c0,8.61-7.005,15.616-15.615,15.616
	C284.067,203.247,277.061,196.242,277.061,187.633z M373.229,175.876v-12.127c0-4.142-3.358-7.5-7.5-7.5s-7.5,3.358-7.5,7.5v12.127
	c0,4.142,3.358,7.5,7.5,7.5S373.229,180.018,373.229,175.876z M508.198,324.151c-4.01-7.443-10.678-12.879-18.777-15.307
	c-31.53-9.453-59.597-4.706-82.146-0.889c-2.171,0.367-4.361,0.735-6.523,1.083c5.535-2.537,10.806-5.275,15.778-8.221
	c38.746-22.957,59.226-57.992,59.226-101.319c0-19.227-3.917-37.935-11.43-55.5c20.862-31.162,26.605-69.449,15.698-105.762
	c-3.439-11.451-13.335-19.754-25.209-21.153c-36.187-4.266-71.811,7.057-98.516,31.123c-24.233-8.662-50.55-13.221-77.698-13.221
	s-53.465,4.559-77.698,13.221c-26.703-24.066-62.329-35.387-98.515-31.123c-11.875,1.399-21.771,9.702-25.209,21.153
	c-10.907,36.312-5.163,74.598,15.699,105.761c-7.513,17.565-11.43,36.273-11.43,55.501c0,35.421,13.211,64.725,39.266,87.095
	c12.134,10.418,26.798,19.077,43.822,25.955c-18.181,4.243-44.972,8.661-64.788-3.009c-15.04-8.856-34.48-3.824-43.335,11.213
	c-4.291,7.285-5.487,15.805-3.369,23.99c2.118,8.186,7.296,15.056,14.582,19.346c18.286,10.769,39.603,16.229,63.36,16.229
	c11.187,0,22.659-1.134,35.517-3.533c-0.421,11.039-1.1,22.411-2.155,33.802c-8.069,2.439-16.966,2.586-26,0.385
	C82.417,397.34,36.244,402.355,8.329,425.091c-4.68,3.812-7.595,9.217-8.209,15.221c-0.614,6.004,1.147,11.888,4.958,16.567
	c4.309,5.292,10.699,8.327,17.529,8.327c5.176,0,10.241-1.803,14.261-5.076c16.199-13.194,50.135-15.158,90.778-5.253
	c9.993,2.436,19.95,3.32,29.725,2.662c-0.122,0.561-0.238,1.128-0.363,1.687c-1.686,7.528,0.468,15.427,5.762,21.129l1.893,2.039
	c8.339,8.982,21.33,11.382,32.327,5.972l6.83-3.359c4.641-2.282,10.296-1.446,14.076,2.078l0.63,0.588
	c8.887,8.287,22.39,9.74,32.834,3.533l6.414-3.81c4.34-2.578,9.77-2.309,13.833,0.685l3.207,2.363
	c4.819,3.551,10.57,5.356,16.344,5.356c4.597,0,9.208-1.145,13.373-3.462l10.491-5.837c4.49-2.5,9.977-2.026,13.973,1.207
	c10.387,8.402,25.251,8.15,35.346-0.601c8.074-6.999,14.753-15.261,19.851-24.556c1.992-3.632,0.662-8.191-2.97-10.183
	c-3.633-1.992-8.191-0.662-10.183,2.97c-4.239,7.73-9.799,14.606-16.524,20.435c-4.594,3.981-11.359,4.097-16.088,0.273
	c-8.781-7.103-20.833-8.145-30.699-2.652l-10.491,5.837c-4.276,2.38-9.585,2.041-13.525-0.861l-3.207-2.364
	c-8.929-6.579-20.858-7.169-30.392-1.505l-6.414,3.81c-4.753,2.826-10.9,2.163-14.944-1.607l-0.63-0.588
	c-8.306-7.746-20.735-9.581-30.926-4.568l-6.83,3.359c-5.004,2.464-10.917,1.372-14.713-2.718l-1.894-2.039
	c-1.932-2.081-2.723-4.939-2.117-7.646c0.884-3.949,1.688-7.958,2.433-12.003c0.05-0.215,0.088-0.432,0.119-0.652
	c1.948-10.684,3.441-21.64,4.57-32.608c0.046-0.278,0.075-0.559,0.089-0.843c1.656-16.359,2.518-32.71,2.932-48.169
	c0.029-0.312,0.036-0.628,0.025-0.947c0.458-17.895,0.321-34.544,0.114-48.563c11.077,3.403,22.984,6.163,35.7,8.263
	c4.083,0.673,7.946-2.091,8.622-6.178c0.675-4.087-2.091-7.947-6.178-8.622c-15.713-2.595-30.035-6.242-42.957-10.883
	c-0.25-0.104-0.506-0.197-0.769-0.274c-18.182-6.615-33.537-15.232-45.861-25.813c-22.586-19.392-34.037-44.866-34.037-75.714
	c0-82.441,81.714-149.513,182.156-149.513c100.441,0,182.155,67.071,182.155,149.513c0,38.274-17.453,68.021-51.872,88.414
	c-7.607,4.507-15.982,8.499-25.042,11.974c-0.131,0.048-0.261,0.096-0.388,0.15c-28.727,10.946-64.379,16.658-104.853,16.658
	c-8.144,0-16.219-0.237-24.002-0.705c-4.124-0.249-7.688,2.902-7.936,7.037c-0.248,4.135,2.902,7.688,7.037,7.936
	c8.082,0.486,16.46,0.732,24.901,0.732c38.223,0,72.526-4.954,101.292-14.489c0.199,1.927,0.403,3.883,0.614,5.897
	c2.927,27.877,6.935,66.057,0.397,101.446c-0.753,4.073,1.939,7.985,6.012,8.738c0.461,0.085,0.919,0.126,1.371,0.126
	c3.546,0,6.699-2.526,7.366-6.139c3.338-18.067,4.105-36.571,3.671-54.12c6.421-0.739,12.75-1.806,18.526-2.783
	c17.713-2.997,36.03-6.095,53.394-0.888c16.72,5.011,34.396-4.512,39.408-21.23C513.079,340.153,512.208,331.594,508.198,324.151z
	 M160.307,442.207c-9.496,1.13-19.265,0.498-29.111-1.902c-45.854-11.175-83.688-8.189-103.802,8.195
	c-1.733,1.411-3.561,1.707-4.789,1.707c-2.3,0-4.449-1.02-5.898-2.799c-1.282-1.573-1.874-3.551-1.667-5.569
	c0.206-2.018,1.186-3.835,2.759-5.116c24.187-19.7,65.735-23.668,116.992-11.177c9.479,2.31,18.913,2.598,27.82,0.9
	C161.944,431.742,161.178,437.005,160.307,442.207z M166.939,361.425c-13.258,2.649-24.806,3.893-35.955,3.893
	c-21.044,0-39.8-4.762-55.748-14.155c-3.833-2.257-6.557-5.872-7.671-10.178c-1.114-4.307-0.485-8.789,1.772-12.622
	c4.66-7.912,14.888-10.559,22.8-5.899c24.307,14.315,54.503,9.616,74.9,4.904C167.147,337.747,167.173,349.258,166.939,361.425z
	 M139.711,82.697c-16.243,13.447-29.323,28.835-38.948,45.543c-16.054-28.414-15.234-56.2-12.055-73.762
	c15.925,3.506,36.032,10.718,54.391,25.482C141.959,80.86,140.829,81.772,139.711,82.697z M155.627,70.866
	c-21.108-18.06-44.553-26.739-63.031-30.889c2.258-4.365,6.547-7.408,11.546-7.997c29.355-3.455,58.275,4.714,81.014,22.565
	C174.806,59.2,164.927,64.655,155.627,70.866z M372.044,54.543c22.739-17.851,51.654-26.022,81.015-22.565
	c5,0.59,9.289,3.633,11.546,7.997c-18.478,4.15-41.924,12.83-63.032,30.889C392.273,64.655,382.396,59.2,372.044,54.543z
	 M456.439,128.24c-9.626-16.708-22.707-32.096-38.949-45.543c-1.118-0.925-2.248-1.837-3.387-2.737
	c18.359-14.765,38.465-21.978,54.391-25.482C471.674,72.04,472.493,99.826,456.439,128.24z M496.283,343.944
	c-2.637,8.796-11.94,13.806-20.733,11.17c-20.718-6.212-40.791-2.817-60.219,0.468c-5.468,0.925-11.065,1.866-16.657,2.543
	c-0.721-11.909-1.844-23.133-2.894-33.189c4.521-0.59,9.308-1.399,13.995-2.192c21.012-3.556,47.163-7.98,75.338,0.467
	c4.261,1.277,7.769,4.137,9.879,8.053C497.102,335.18,497.561,339.684,496.283,343.944z M379.828,221.198
	c-1.063,4.003,1.321,8.11,5.325,9.173c8.684,2.305,27.164,11.55,33.625,16.319c1.34,0.989,2.901,1.466,4.448,1.466
	c2.3,0,4.569-1.054,6.04-3.046c2.46-3.333,1.753-8.028-1.58-10.488c-7.833-5.782-27.998-15.912-38.685-18.749
	C384.998,214.815,380.891,217.195,379.828,221.198z M395.031,204.967c8.909-1.178,29.517,0.329,37.307,2.275
	c0.611,0.153,1.222,0.226,1.825,0.226c3.36-0.001,6.418-2.275,7.27-5.683c1.005-4.019-1.438-8.09-5.457-9.095
	c-9.444-2.361-31.95-4.043-42.91-2.595c-4.107,0.543-6.996,4.312-6.453,8.418C387.156,202.621,390.93,205.508,395.031,204.967z"/>
<g>
</g>
<g>
</g>
<g>
</g>
<g>
</g>
<g>
</g>
<g>
</g>
<g>
</g>
<g>
</g>
<g>
</g>
<g>
</g>
<g>
</g>
<g>
</g>
<g>
</g>
<g>
</g>
<g>
</g>
</svg>
