<?xml version="1.0" encoding="iso-8859-1"?>
<!-- Generator: Adobe Illustrator 19.0.0, SVG Export Plug-In . SVG Version: 6.00 Build 0)  -->
<svg version="1.1" id="Capa_1" xmlns="http://www.w3.org/2000/svg" xmlns:xlink="http://www.w3.org/1999/xlink" x="0px" y="0px"
	 viewBox="0 0 511.999 511.999" style="enable-background:new 0 0 511.999 511.999;" xml:space="preserve">
<circle style="fill:#82C7E6;" cx="481.429" cy="30.474" r="22.974"/>
<circle style="opacity:0.4;fill:#FFFFFF;enable-background:new    ;" cx="488.729" cy="23.18" r="7.298"/>
<circle style="fill:#82C7E6;" cx="257.029" cy="60.832" r="53.33"/>
<circle style="opacity:0.4;fill:#FFFFFF;enable-background:new    ;" cx="243.469" cy="39.25" r="17.558"/>
<path style="fill:#EDA751;" d="M25.239,448.936c-4.619,0-9.114-2.393-11.596-6.679c-10.603-18.304-6.875-39.393,9.276-52.478
	c17.277-13.994,41.623-12.686,59.208,3.184c6.988,6.307,13.707,9.123,20.525,8.602c15.497-1.178,31.549-18.769,42.275-31.898
	c4.677-5.725,13.11-6.575,18.836-1.898c5.726,4.678,6.575,13.111,1.898,18.837c-15.014,18.378-35.513,39.721-60.981,41.656
	c-14.319,1.091-27.945-4.1-40.49-15.422c-9.497-8.57-19.088-6.571-24.417-2.255c-2.161,1.75-8.762,8.241-2.962,18.253
	c3.706,6.398,1.524,14.588-4.874,18.294C29.824,448.354,27.516,448.936,25.239,448.936z"/>
<path style="fill:#FCD79D;" d="M13.643,442.257c2.482,4.285,6.977,6.679,11.596,6.679c2.277,0,4.586-0.582,6.698-1.805
	c6.398-3.706,8.58-11.896,4.874-18.294c-1.586-2.738-2.241-5.21-2.316-7.396c-11.749-0.908-20.683,3.093-26.04,7.243
	C9.371,433.269,11.086,437.844,13.643,442.257z"/>
<g>
	<path style="fill:#EDA751;" d="M98.398,367.057c-27.55,0-63.43-9.327-85.191-38.356c-7.095-9.465-5.173-22.89,4.292-29.986
		c9.466-7.094,22.89-5.172,29.986,4.292c15.742,21.002,49.171,23.383,63.571,19.989c11.515-2.71,23.048,4.421,25.761,15.935
		s-4.42,23.047-15.935,25.761C114.626,366.166,106.906,367.057,98.398,367.057z"/>
	<path style="fill:#EDA751;" d="M241.394,504.5c-1.178,0-2.37-0.097-3.571-0.299c-11.666-1.958-19.536-13.003-17.578-24.669
		c4.675-27.855,1.256-42.586-2.366-58.182c-0.39-1.679-0.774-3.337-1.144-4.986c-2.587-11.543,4.673-22.998,16.217-25.585
		c11.54-2.586,22.997,4.674,25.585,16.216c0.346,1.544,0.706,3.095,1.071,4.666c3.999,17.226,8.977,38.664,2.884,74.961
		C260.736,497.089,251.665,504.5,241.394,504.5z"/>
	<path style="fill:#EDA751;" d="M167.434,504.5c-1.178,0-2.371-0.097-3.571-0.299c-11.666-1.958-19.536-13.003-17.578-24.669
		c4.675-27.855,1.256-42.586-2.366-58.182c-0.39-1.679-0.774-3.337-1.144-4.986c-2.587-11.543,4.673-22.998,16.217-25.585
		c11.542-2.586,22.997,4.674,25.585,16.216c0.346,1.544,0.706,3.095,1.071,4.666c3.999,17.226,8.977,38.664,2.885,74.961
		C186.775,497.089,177.704,504.5,167.434,504.5z"/>
	<path style="fill:#EDA751;" d="M309.497,370.817c-12.483,0-25.344-2.351-38.123-7.706c-10.91-4.571-16.048-17.122-11.477-28.032
		s17.124-16.049,28.032-11.477c19.644,8.23,49.603,5.622,72.252-18.765c8.05-8.668,21.603-9.168,30.27-1.118
		c8.668,8.05,9.168,21.602,1.119,30.27C372.417,354.613,342.263,370.817,309.497,370.817z"/>
</g>
<g>
	<path style="opacity:0.2;fill:#A35F00;enable-background:new    ;" d="M163.762,367.768c-5.726-4.677-14.159-3.827-18.836,1.898
		c-10.726,13.129-26.777,30.72-42.275,31.898c-2.15,0.164-4.29-0.005-6.431-0.509c4.935,9.271,11.204,17.808,18.574,25.383
		c20.827-5.876,37.896-23.956,50.867-39.834C170.337,380.88,169.488,372.446,163.762,367.768z"/>
	<path style="opacity:0.2;fill:#A35F00;enable-background:new    ;" d="M317.387,327.352c-10.785,1.294-21.064-0.233-29.457-3.75
		c-10.908-4.572-23.461,0.566-28.032,11.477c-4.572,10.91,0.566,23.461,11.477,28.032c12.779,5.355,25.639,7.706,38.123,7.706
		c3.009,0,5.996-0.139,8.955-0.403c1.134-6.174,1.732-12.519,1.732-18.994C320.183,343.157,319.212,335.105,317.387,327.352z"/>
	<path style="opacity:0.2;fill:#A35F00;enable-background:new    ;" d="M265.071,445.425c-0.803-13.668-3.277-24.348-5.463-33.763
		c-0.365-1.571-0.725-3.122-1.071-4.666c-2.588-11.543-14.044-18.802-25.585-16.216c-11.544,2.587-18.804,14.042-16.217,25.585
		c0.37,1.649,0.755,3.307,1.144,4.986c2.721,11.718,5.327,22.949,4.472,39.624C237.827,458.435,252.276,453.054,265.071,445.425z"/>
	<path style="opacity:0.2;fill:#A35F00;enable-background:new    ;" d="M184.576,406.997c-2.587-11.543-14.043-18.802-25.585-16.216
		c-11.544,2.587-18.804,14.042-16.217,25.585c0.37,1.649,0.755,3.307,1.144,4.986c2.115,9.107,4.157,17.923,4.563,29.225
		c13.039,6.252,27.468,10.288,42.724,11.591c1.005-22.228-2.552-37.557-5.559-50.505
		C185.282,410.092,184.922,408.54,184.576,406.997z"/>
	<path style="opacity:0.2;fill:#A35F00;enable-background:new    ;" d="M111.056,322.996c-5.65,1.332-14.231,1.767-23.522,0.545
		c-2.454,8.913-3.762,18.255-3.762,27.879c0,5.052,0.367,10.024,1.064,14.9c4.669,0.504,9.219,0.737,13.562,0.737
		c8.508,0,16.228-0.891,22.485-2.365c11.514-2.714,18.648-14.248,15.935-25.761C134.103,327.417,122.571,320.285,111.056,322.996z"
		/>
</g>
<ellipse style="fill:#FCD690;" cx="201.979" cy="351.42" rx="98.79" ry="91.8"/>
<path style="opacity:0.15;fill:#C17A00;enable-background:new    ;" d="M187.551,442.242
	c-45.145-29.639-31.154-90.387-23.49-116.953V266.63c-35.742,13.817-60.875,46.574-60.875,84.79
	C103.186,397.565,139.829,435.753,187.551,442.242z"/>
<path style="fill:#EDA751;" d="M141.857,192.24c19.331-16.221,32.238-43.451,4.971-83.705
	C119.346,67.964,78.429,57.794,46.485,61.557c-7.875,0.928-14.483,6.472-16.765,14.067c-9.253,30.805-6.343,72.866,28.84,106.976
	C93.468,216.443,122.525,208.461,141.857,192.24z"/>
<path style="fill:#FF91AB;" d="M28.435,80.338c-7.586,30.288-3.297,69.859,30.126,102.262
	c30.257,29.334,56.113,27.238,75.055,15.598C120.588,109.759,63.678,86.307,28.435,80.338z"/>
<path style="fill:#EDA751;" d="M262.098,192.24c-19.331-16.221-32.238-43.451-4.971-83.705
	c27.482-40.572,68.399-50.741,100.343-46.978c7.875,0.928,14.483,6.472,16.765,14.067c9.253,30.805,6.343,72.866-28.84,106.976
	C310.487,216.443,281.43,208.461,262.098,192.24z"/>
<path style="fill:#FF91AB;" d="M375.521,80.338c7.586,30.288,3.297,69.859-30.126,102.262
	c-30.257,29.334-56.113,27.238-75.056,15.598C283.367,109.759,340.277,86.307,375.521,80.338z"/>
<path style="fill:#FFDC9C;" d="M370.169,216.723c0,76.902-75.302,110.584-168.191,110.584S33.786,293.625,33.786,216.723
	S109.088,77.48,201.978,77.48S370.169,139.821,370.169,216.723z"/>
<path style="opacity:0.15;fill:#C17A00;enable-background:new    ;" d="M112.172,98.978
	c-47.104,24.676-78.385,68.183-78.385,117.744c0,66.107,55.646,100.276,130.275,108.566
	C56.934,261.299,70.905,175.226,112.172,98.978z"/>
<g>
	<ellipse style="fill:#FF91AB;" cx="149.219" cy="219.97" rx="30.453" ry="24.25"/>
	<ellipse style="fill:#FF91AB;" cx="314.279" cy="219.97" rx="30.453" ry="24.25"/>
</g>
<path style="fill:#B77866;" d="M400.747,279.406h-25.941v42.149c0,7.163,5.807,12.97,12.97,12.97l0,0
	c7.163,0,12.97-5.807,12.97-12.97v-42.149H400.747z"/>
<g>
	<circle style="fill:#82C7E6;" cx="387.779" cy="255.57" r="30.56"/>
	<circle style="fill:#82C7E6;" cx="458.449" cy="185.02" r="39.993"/>
</g>
<circle style="opacity:0.4;fill:#FFFFFF;enable-background:new    ;" cx="470.589" cy="170.97" r="13.198"/>
<circle style="fill:#82C7E6;" cx="397.869" cy="86.46" r="53.33"/>
<circle style="opacity:0.4;fill:#FFFFFF;enable-background:new    ;" cx="411.889" cy="68.774" r="17.558"/>
<ellipse style="fill:#FF91AB;" cx="231.749" cy="204.03" rx="13.635" ry="18.442"/>
<path d="M481.427,60.949c16.804,0,30.474-13.671,30.474-30.475S498.23,0,481.427,0c-16.804,0-30.475,13.67-30.475,30.474
	S464.623,60.949,481.427,60.949z M481.427,15c8.532,0,15.474,6.942,15.474,15.474c0,8.533-6.942,15.475-15.474,15.475
	c-8.533,0-15.475-6.942-15.475-15.475C465.952,21.942,472.894,15,481.427,15z M140.866,222.415c4.115,0.544,7.876-2.347,8.419-6.453
	c0.542-4.106-2.346-7.876-6.453-8.418c-9.805-1.295-29.928,0.208-38.371,2.319c-4.019,1.004-6.462,5.077-5.457,9.095
	c0.852,3.408,3.91,5.683,7.27,5.683c0.602,0,1.214-0.073,1.825-0.226C114.79,222.742,133.2,221.399,140.866,222.415z
	 M387.776,217.513c-3.513,0-6.912,0.488-10.143,1.383c0.013-0.724,0.036-1.447,0.036-2.173c0-17.013-3.438-33.569-10.026-49.126
	c4.878-7.335,8.821-15.092,11.804-23.167c5.814,1.852,12.002,2.859,18.423,2.859c33.542,0,60.831-27.289,60.831-60.831
	s-27.289-60.831-60.831-60.831c-21.341,0-40.138,11.056-50.998,27.732c-7.919-0.119-18.036,0.563-29.169,3.301
	C315.548,25.058,289.168,0,257.029,0c-33.542,0-60.831,27.289-60.831,60.832c0,3.094,0.242,6.172,0.708,9.214
	c-22.201,0.522-43.707,4.473-63.642,11.539c-23.821-21.274-55.489-31.264-87.656-27.476c-10.867,1.28-19.922,8.879-23.07,19.358
	c-9.702,32.301-4.658,66.349,13.777,94.126c-6.589,15.558-10.028,32.115-10.028,49.13c0,31.706,11.84,57.932,35.192,77.946
	c10.224,8.763,22.445,16.131,36.545,22.083c-5.546-0.025-12.153-0.697-18.838-2.475c-7.909-2.103-18.787-6.545-25.7-15.769
	c-9.563-12.758-27.725-15.357-40.484-5.795c-12.76,9.564-15.36,27.726-5.795,40.485c19.412,25.897,53.503,41.358,91.192,41.358
	c0.069,0,0.138-0.003,0.207-0.003c1.682,6.56,4.063,12.868,7.065,18.853c-1.251,0.366-2.449,0.593-3.591,0.68
	c-4.662,0.355-9.544-1.832-14.928-6.691c-20.387-18.398-48.741-19.815-68.954-3.443c-19.132,15.5-23.571,40.441-11.045,62.064
	c3.723,6.427,10.653,10.42,18.086,10.42c3.662,0,7.278-0.974,10.458-2.816c9.965-5.773,13.376-18.578,7.604-28.543
	c-0.831-1.433-3.037-5.241,1.192-8.665c1.541-1.247,7.151-4.791,14.672,1.995c14.132,12.753,29.635,18.582,46.083,17.332
	c9.219-0.7,18.486-3.709,27.618-8.94c1.792,1.436,3.633,2.821,5.526,4.145c2.548,12.038,4.207,25.248,0.497,47.347
	c-1.279,7.618,0.486,15.278,4.968,21.568c4.483,6.291,11.147,10.46,18.764,11.738c1.59,0.267,3.209,0.402,4.813,0.402
	c14.164,0,26.148-10.15,28.495-24.135c2.22-13.228,3.158-25.472,2.881-37.193c1.053,0.029,2.108,0.048,3.169,0.048
	c4.373,0,8.684-0.253,12.92-0.735c0.377,8.64-0.288,17.818-2.049,28.306c-1.279,7.618,0.486,15.278,4.968,21.568
	c4.483,6.291,11.147,10.46,18.764,11.738c1.59,0.267,3.209,0.402,4.813,0.402c10.919,0,20.783-6.049,25.744-15.787
	c1.88-3.69,0.413-8.207-3.278-10.087c-3.69-1.881-8.207-0.412-10.087,3.278c-2.351,4.614-7.21,7.596-12.379,7.596
	c-0.774,0-1.557-0.066-2.329-0.195c-3.667-0.615-6.874-2.622-9.031-5.65c-2.158-3.028-3.007-6.714-2.392-10.381
	c2.077-12.374,2.756-23.191,2.122-33.503c9.589-2.429,18.645-6.079,26.961-10.766c0.747,6.039,1.274,13.353,1.07,21.845
	c-0.099,4.141,3.178,7.578,7.319,7.677c0.061,0.001,0.122,0.002,0.183,0.002c4.059,0,7.397-3.241,7.495-7.321
	c0.316-13.184-0.96-23.778-2.267-31.462c16.029-12.666,28.004-29.673,33.819-49.064c1.725,0.085,3.447,0.135,5.153,0.135
	c31.469,0,63.621-14.168,86.372-37.967c7.272-3.144,12.378-10.382,12.378-18.795v-33.921c10.566-6.77,17.589-18.607,17.589-32.06
	C425.836,234.586,408.762,217.513,387.776,217.513z M96.042,359.526c-14.681-0.35-53.616-4.351-76.834-35.324
	c-2.23-2.975-3.168-6.64-2.641-10.321c0.527-3.681,2.456-6.935,5.43-9.165c6.142-4.603,14.883-3.352,19.486,2.789
	c13.6,18.145,38.001,24.147,56.287,24.256c-1.38,6.421-2.084,12.986-2.084,19.659C95.686,354.149,95.809,356.852,96.042,359.526z
	 M397.868,40.626c25.271,0,45.831,20.56,45.831,45.831s-20.56,45.831-45.831,45.831c-25.272,0-45.832-20.56-45.832-45.831
	S372.597,40.626,397.868,40.626z M365.782,138.105c-1.667,4.696-3.696,9.28-6.112,13.714c-8.511-14.406-19.913-27.688-33.98-39.334
	c-0.723-0.598-1.457-1.183-2.19-1.769c4.749-3.747,9.84-7.097,15.233-10.036C342.517,116.41,352.42,129.774,365.782,138.105z
	 M339.748,68.489c-1.591,5.137-2.502,10.567-2.665,16.181c-9.486,4.581-18.227,10.255-26.102,16.924
	c-7.753-5.138-15.953-9.686-24.523-13.618C305.294,73.524,325.185,69.273,339.748,68.489z M257.029,15
	c25.272,0,45.832,20.56,45.832,45.832c0,0.202-0.015,0.414-0.018,0.618c-10.612,4.282-21.62,10.688-32.156,20.133
	c-18.395-6.52-38.128-10.384-58.509-11.352c-0.647-3.087-0.98-6.232-0.98-9.4C211.198,35.56,231.758,15,257.029,15z M47.363,69.006
	c12.499-1.473,42.56-2.155,70.136,18.969c-8.566,3.93-16.763,8.477-24.514,13.612C74.69,86.103,54.496,78.45,38.328,74.683
	C40.303,71.579,43.589,69.451,47.363,69.006z M34.257,89.138c13.641,3.101,30.59,9.291,46.194,21.583
	c-0.731,0.585-1.464,1.169-2.185,1.766C64.202,124.131,52.8,137.41,44.29,151.814C31.178,127.752,31.641,104.343,34.257,89.138z
	 M104.109,420.782c-12.196,0.93-23.932-3.618-34.896-13.511c-12.176-10.987-25.931-9.181-34.161-2.516
	c-6.551,5.304-11.721,15.777-4.732,27.841c1.627,2.809,0.666,6.418-2.143,8.045c-0.911,0.527-1.899,0.795-2.938,0.795
	c-2.1,0-4.057-1.125-5.106-2.938c-8.816-15.219-5.87-32.054,7.507-42.89c14.342-11.618,34.681-10.416,49.462,2.923
	c8.599,7.76,17.139,11.197,26.118,10.512c3.354-0.255,6.822-1.107,10.365-2.538c2.366,3.303,4.939,6.466,7.7,9.474
	C115.509,418.764,109.834,420.347,104.109,420.782z M181.135,485.382c-1.13,6.732-6.892,11.618-13.702,11.618
	c-0.774,0-1.557-0.066-2.33-0.195c-3.667-0.615-6.874-2.622-9.031-5.65c-2.158-3.028-3.007-6.714-2.392-10.381
	c2.873-17.115,2.788-29.707,1.539-40.194c8.892,4.087,18.479,7.046,28.549,8.677C184.169,460.55,183.309,472.427,181.135,485.382z
	 M183.95,334.378c5.886,0.284,11.951,0.428,18.028,0.428c32.345,0,61.212-3.905,86.051-11.598c3.479,9.023,5.24,18.485,5.24,28.211
	c0,46.483-40.953,84.3-91.292,84.3c-50.338,0-91.292-37.817-91.292-84.3c0-8.671,1.405-17.13,4.174-25.257
	c0-0.001,0.001-0.002,0.001-0.004c0.333-0.977,0.68-1.951,1.053-2.918c9.951,3.061,20.654,5.536,32.086,7.414
	c0.412,0.067,0.821,0.1,1.225,0.1c3.607,0,6.788-2.61,7.392-6.285c0.671-4.087-2.098-7.945-6.185-8.617
	c-12.986-2.133-24.903-5.072-35.732-8.782c-0.303-0.129-0.609-0.239-0.918-0.326c-16.958-5.915-31.205-13.75-42.54-23.465
	c-19.876-17.036-29.954-39.429-29.954-66.557c0-72.643,72.086-131.743,160.691-131.743c86.625,0,157.447,56.49,160.571,126.895
	c-0.934-0.949-2.127-1.666-3.513-2.012c-8.443-2.112-28.567-3.616-38.371-2.319c-4.107,0.543-6.995,4.312-6.453,8.418
	c0.543,4.107,4.311,6.994,8.418,6.453c7.666-1.016,26.075,0.327,32.767,1.999c0.61,0.153,1.222,0.226,1.825,0.226
	c2.006,0,3.892-0.824,5.278-2.202c-0.094,1.704-0.224,3.396-0.401,5.069c-5.434,4.976-9.42,11.505-11.254,18.877
	c-7.654-5.255-24.376-13.548-33.455-15.959c-4.004-1.06-8.11,1.321-9.174,5.324c-1.063,4.003,1.321,8.111,5.324,9.174
	c7.475,1.984,23.984,10.238,29.534,14.334c1.34,0.989,2.901,1.466,4.448,1.466c0.85,0,1.695-0.146,2.498-0.428
	c0.102,0.82,0.227,1.632,0.381,2.435c-11.171,18.228-29.816,32.448-55.509,42.271c-25.335,9.686-57.464,14.806-92.914,14.806
	c-5.836,0-11.659-0.138-17.304-0.411c-4.146-0.193-7.653,2.992-7.853,7.129C176.621,330.663,179.813,334.179,183.95,334.378z
	 M302.78,319.852c-0.194-0.54-0.389-1.08-0.594-1.618c24.078-9.52,42.656-22.772,55.414-39.507c2.692,3.5,5.978,6.517,9.706,8.906
	v4.163c-4.791,1.476-9.132,4.181-12.619,7.936C340.452,315.06,321.319,322.398,302.78,319.852z M309.497,363.317
	c-0.66,0-1.325-0.013-1.99-0.028c0.499-3.893,0.762-7.853,0.762-11.869c0-5.461-0.47-10.849-1.396-16.146
	c1.073,0.05,2.146,0.086,3.219,0.086c20.298,0,40.318-8.979,55.585-25.419c0.504-0.543,1.054-1.028,1.628-1.478v13.091
	c0,6.944,3.483,13.082,8.787,16.785C357.121,354.153,333.06,363.317,309.497,363.317z M393.247,321.554
	c0,3.016-2.454,5.47-5.471,5.47c-3.016,0-5.47-2.454-5.47-5.47v-28.321c1.787,0.259,3.612,0.399,5.47,0.399s3.683-0.14,5.471-0.399
	V321.554z M387.776,278.632c-12.715,0-23.06-10.344-23.06-23.059c0-12.715,10.344-23.06,23.06-23.06s23.06,10.345,23.06,23.06
	C410.836,268.288,400.491,278.632,387.776,278.632z M166.964,177.52c-4.142,0-7.5,3.358-7.5,7.5v10.754c0,4.142,3.358,7.5,7.5,7.5
	s7.5-3.358,7.5-7.5V185.02C174.464,180.878,171.106,177.52,166.964,177.52z M458.452,137.527c-26.188,0-47.493,21.305-47.493,47.493
	s21.305,47.493,47.493,47.493c26.188,0,47.493-21.305,47.493-47.493S484.64,137.527,458.452,137.527z M458.452,217.513
	c-17.917,0-32.493-14.576-32.493-32.493s14.576-32.493,32.493-32.493c17.917,0,32.493,14.576,32.493,32.493
	S476.369,217.513,458.452,217.513z M296.533,203.274c4.142,0,7.5-3.358,7.5-7.5V185.02c0-4.142-3.358-7.5-7.5-7.5
	s-7.5,3.358-7.5,7.5v10.754C289.033,199.916,292.391,203.274,296.533,203.274z M231.748,229.974
	c11.851,0,21.135-11.395,21.135-25.942s-9.284-25.942-21.135-25.942c-11.852,0-21.135,11.395-21.135,25.942
	S219.897,229.974,231.748,229.974z M231.748,193.09c2.837,0,6.135,4.78,6.135,10.942s-3.298,10.942-6.135,10.942
	c-2.837,0-6.135-4.78-6.135-10.942S228.911,193.09,231.748,193.09z M146.107,230.424c-9.557,2.538-27.59,11.595-34.593,16.764
	c-3.333,2.46-4.04,7.156-1.58,10.488c1.471,1.993,3.74,3.046,6.04,3.046c1.547,0,3.108-0.477,4.448-1.466
	c5.55-4.096,22.059-12.35,29.534-14.334c4.003-1.063,6.387-5.17,5.324-9.174C154.218,231.745,150.111,229.363,146.107,230.424z"/>
<g>
</g>
<g>
</g>
<g>
</g>
<g>
</g>
<g>
</g>
<g>
</g>
<g>
</g>
<g>
</g>
<g>
</g>
<g>
</g>
<g>
</g>
<g>
</g>
<g>
</g>
<g>
</g>
<g>
</g>
</svg>
