<?xml version="1.0" encoding="iso-8859-1"?>
<!-- Generator: Adobe Illustrator 19.0.0, SVG Export Plug-In . SVG Version: 6.00 Build 0)  -->
<svg version="1.1" id="Capa_1" xmlns="http://www.w3.org/2000/svg" xmlns:xlink="http://www.w3.org/1999/xlink" x="0px" y="0px"
	 viewBox="0 0 512 512" style="enable-background:new 0 0 512 512;" xml:space="preserve">
<path style="fill:#EDA751;" d="M396.785,426.987c-27.921,0-46.607-22.903-62.268-42.097l-1.378-1.688
	c-4.812-5.891-3.938-14.568,1.953-19.38c5.891-4.813,14.568-3.937,19.381,1.953l1.387,1.7c22.335,27.371,33.518,37.639,54.48,28.808
	c12.163-5.123,15.596-16.857,20.19-35.578c4.334-17.658,9.246-37.672,27.76-49.526c6.408-4.102,14.925-2.233,19.027,4.172
	c4.102,6.406,2.233,14.925-4.173,19.026c-9.24,5.917-12.308,18.418-15.86,32.893c-4.772,19.444-10.711,43.642-36.25,54.4
	C412.227,425.379,404.181,426.987,396.785,426.987z"/>
<path style="fill:#FCD79D;" d="M477.316,315.351c-4.102-6.406-12.619-8.274-19.027-4.172c-4.677,2.995-8.484,6.512-11.635,10.379
	c3.184,7.26,9.457,16.016,19.849,19.542c1.805-2.716,3.957-5.004,6.64-6.722C479.549,330.276,481.418,321.757,477.316,315.351z"/>
<g>
	<path style="fill:#EDA751;" d="M334.027,504.5c-11.324,0-20.954-8.677-21.933-20.167c-2.93-34.38-1.15-59.633,5.773-81.879
		c3.616-11.622,15.97-18.113,27.59-14.494c11.621,3.616,18.111,15.969,14.495,27.59c-5.149,16.548-6.365,36.607-3.942,65.04
		c1.034,12.127-7.96,22.796-20.087,23.83C335.287,504.474,334.654,504.5,334.027,504.5z"/>
	<path style="fill:#EDA751;" d="M265.244,504.5c-11.326,0-20.954-8.677-21.933-20.168c-2.929-34.382-1.149-59.635,5.773-81.878
		c3.616-11.622,15.97-18.113,27.59-14.494c11.621,3.616,18.111,15.969,14.495,27.59c-5.149,16.546-6.364,36.605-3.942,65.041
		c1.033,12.127-7.96,22.796-20.087,23.829C266.504,504.474,265.87,504.5,265.244,504.5z"/>
	<path style="fill:#EDA751;" d="M165.374,378.264c-20.581,0-39.324-7.418-52.824-20.918c-8.605-8.606-8.605-22.56,0-31.166
		c8.606-8.606,22.561-8.606,31.167,0c6.598,6.599,15.37,8.008,21.655,8.008c0.08,0,0.159,0,0.239-0.001
		c12.728-0.073,26.408-5.701,34.853-14.34c8.509-8.704,22.463-8.862,31.164-0.354c8.703,8.508,8.862,22.461,0.354,31.164
		c-16.51,16.889-41.846,27.466-66.121,27.604C165.699,378.263,165.536,378.264,165.374,378.264z"/>
</g>
<g>
	<path style="opacity:0.2;fill:#A35F00;enable-background:new    ;" d="M403.724,398.5c-16.949,4.121-27.999-6.68-47.865-31.026
		l-1.387-1.7c-4.813-5.89-13.49-6.766-19.381-1.953c-5.892,4.813-6.765,13.49-1.953,19.38l1.379,1.688
		c13.071,16.019,28.254,34.612,49.15,40.327C391.637,417.297,398.414,408.307,403.724,398.5z"/>
	<path style="opacity:0.2;fill:#A35F00;enable-background:new    ;" d="M345.457,387.959c-11.62-3.618-23.975,2.872-27.59,14.494
		c-5.179,16.642-7.478,34.968-7.082,57.537c15.898-1.858,30.846-6.629,44.227-13.721c0.53-11.775,2.154-21.769,4.94-30.72
		C363.568,403.929,357.078,391.576,345.457,387.959z"/>
	<path style="opacity:0.2;fill:#A35F00;enable-background:new    ;" d="M276.674,387.959c-11.62-3.618-23.975,2.872-27.59,14.494
		c-4.312,13.857-6.627,28.884-7.053,46.556c13.466,6.302,28.344,10.316,44.062,11.491c-0.417-18.289,1.232-32.601,5.075-44.952
		C294.785,403.929,288.296,391.576,276.674,387.959z"/>
	<path style="opacity:0.2;fill:#A35F00;enable-background:new    ;" d="M200.463,319.848c-6.249,6.392-15.365,11.128-24.84,13.193
		c-0.597,4.576-0.911,9.234-0.911,13.959c0,10.448,1.512,20.569,4.327,30.188c19.947-3.089,39.409-12.687,52.942-26.53
		c8.508-8.703,8.349-22.656-0.354-31.164C222.926,310.986,208.973,311.144,200.463,319.848z"/>
</g>
<ellipse style="fill:#FCD690;" cx="295.769" cy="347" rx="101.65" ry="94.45"/>
<path style="opacity:0.15;fill:#C17A00;enable-background:new    ;" d="M280.929,440.446
	c-46.449-30.496-32.054-92.998-24.169-120.332v-60.353c-36.775,14.216-62.634,47.919-62.634,87.239
	C194.126,394.479,231.828,433.77,280.929,440.446z"/>
<path style="fill:#EDA751;" d="M233.914,183.222c19.89-16.689,33.169-44.706,5.115-86.123
	c-28.276-41.744-70.375-52.207-103.242-48.335c-8.103,0.955-14.902,6.66-17.249,14.473c-9.521,31.695-6.526,74.971,29.673,110.067
	C184.127,208.124,214.025,199.911,233.914,183.222z"/>
<path style="fill:#FF91AB;" d="M117.216,68.087c-7.805,31.163-3.392,71.877,30.996,105.217
	c31.13,30.181,57.734,28.024,77.224,16.048C212.031,98.358,153.477,74.228,117.216,68.087z"/>
<path style="fill:#EDA751;" d="M357.63,183.222c-19.89-16.689-33.169-44.706-5.115-86.123
	c28.276-41.744,70.375-52.207,103.242-48.335c8.103,0.955,14.902,6.66,17.249,14.473c9.52,31.695,6.526,74.971-29.673,110.067
	C407.417,208.124,377.519,199.911,357.63,183.222z"/>
<path style="fill:#FF91AB;" d="M474.328,68.087c7.805,31.163,3.392,71.877-30.996,105.217
	c-31.131,30.181-57.734,28.024-77.224,16.048C379.513,98.358,438.067,74.228,474.328,68.087z"/>
<path style="fill:#FFDC9C;" d="M468.822,208.412c0,79.123-77.477,113.778-173.05,113.778s-173.05-34.655-173.05-113.778
	s77.477-143.265,173.05-143.265S468.822,129.288,468.822,208.412z"/>
<path style="opacity:0.15;fill:#C17A00;enable-background:new    ;" d="M203.372,87.266c-48.465,25.389-80.65,70.153-80.65,121.146
	c0,68.017,57.253,103.173,134.038,111.702C146.538,254.275,160.913,165.716,203.372,87.266z"/>
<g>
	<ellipse style="fill:#FF91AB;" cx="190.569" cy="211.75" rx="31.33" ry="24.952"/>
	<ellipse style="fill:#FF91AB;" cx="360.409" cy="211.75" rx="31.33" ry="24.952"/>
</g>
<path style="fill:#BD4568;" d="M379.72,122.793H211.824c-18.445,0-31.871-17.495-27.099-35.312l4.229-15.791
	c10.14-37.861,44.448-64.19,83.643-64.19h46.35c39.196,0,73.503,26.329,83.643,64.19l4.229,15.791
	C411.591,105.298,398.165,122.793,379.72,122.793z"/>
<path style="opacity:0.1;enable-background:new    ;" d="M257.708,8.792c-32.758,5.705-59.923,29.923-68.754,62.898l-4.229,15.791
	c-4.772,17.817,8.654,35.312,27.099,35.312h46.741C243.91,105.124,248.404,33.121,257.708,8.792z"/>
<path style="fill:#BD4568;" d="M339.405,122.793H211.824l6.464,13.946c6.888,14.862,21.778,24.372,38.158,24.372h38.338
	c16.38,0,31.27-9.51,38.158-24.372L339.405,122.793z"/>
<path style="opacity:0.1;enable-background:new    ;" d="M339.405,122.793H211.824l6.464,13.946
	c6.888,14.862,21.778,24.372,38.158,24.372h38.338c16.38,0,31.27-9.51,38.158-24.372L339.405,122.793z"/>
<path style="opacity:0.1;enable-background:new    ;" d="M406.819,87.481l-2.445-9.131h-45.313V51.942h35.53
	c-2.913-5.229-6.336-10.103-10.202-14.561h-25.328V17.365c-4.637-2.426-9.507-4.442-14.56-6.004v26.021h-41.448V7.5h-14.56v29.882
	h-41.448V11.361c-5.054,1.562-9.924,3.577-14.561,6.004v20.017h-25.327c-3.866,4.457-7.289,9.332-10.202,14.561h35.529V78.35
	h-45.313l-2.445,9.131c-0.487,1.82-0.775,3.635-0.897,5.43h48.655v29.882h14.561V92.911h41.448v29.882h14.56V92.911h41.448v29.882
	h14.56V92.911h48.656C407.595,91.116,407.307,89.301,406.819,87.481z M288.492,78.35h-41.448V51.942h41.448V78.35z M344.5,78.35
	h-41.448V51.942H344.5V78.35z"/>
<path style="fill:#B77866;" d="M115.886,319.35l-11.339,2.402c-4.809,1.019-9.533-2.054-10.551-6.862l-2.071-9.776
	c-1.393-6.575-7.852-10.776-14.427-9.383l-35.336,7.485c-6.575,1.393-10.776,7.852-9.383,14.427l2.62,12.37
	c3.828,18.07,21.58,29.616,39.65,25.788l47.824-10.131c9.399-1.991,17.945-6.858,24.453-13.927l0,0
	c6.223-6.759,8.788-16.112,6.884-25.1l-0.193-0.91c-1.383-6.53-9.511-8.85-14.132-4.033l-8.857,9.232
	C126.94,315.193,121.664,318.126,115.886,319.35z"/>
<path style="opacity:0.1;enable-background:new    ;" d="M52.247,301.08l-10.085,2.136c-6.575,1.393-10.776,7.852-9.383,14.427
	l2.62,12.37c3.828,18.07,21.58,29.616,39.65,25.788l20.058-4.249C68.333,346.559,55.383,319.457,52.247,301.08z"/>
<path style="fill:#EDA751;" d="M340.248,374.394c-14.878,0-29.289-4.326-42.301-12.909c-23.36-15.409-39.056-42.848-39.056-68.278
	c0-12.171,9.866-22.038,22.038-22.038c12.171,0,22.038,9.866,22.038,22.038c0,9.236,7.2,23.538,19.25,31.486
	c10.153,6.697,21.618,7.385,34.083,2.048c11.189-4.79,24.142,0.396,28.933,11.584c4.791,11.189-0.396,24.142-11.585,28.933
	C362.516,372.025,351.254,374.394,340.248,374.394z"/>
<path style="opacity:0.15;fill:#C18F00;enable-background:new    ;" d="M340.248,374.394c-14.878,0-29.289-4.326-42.301-12.909
	c-23.36-15.409-39.056-42.848-39.056-68.278c0-12.171,9.866-22.038,22.038-22.038c12.171,0,22.038,9.866,22.038,22.038
	c0,9.236,7.2,23.538,19.25,31.486c10.153,6.697,21.618,7.385,34.083,2.048c11.189-4.79,24.142,0.396,28.933,11.584
	c4.791,11.189-0.396,24.142-11.585,28.933C362.516,372.025,351.254,374.394,340.248,374.394z"/>
<path d="M333.811,177.429c0.276,0,0.556-0.029,0.836-0.06v9.488c0,4.142,3.358,7.5,7.5,7.5c4.143,0,7.5-3.358,7.5-7.5v-11.064
	c0-0.188-0.015-0.373-0.028-0.558l1.922-0.276c4.1-0.589,6.945-4.391,6.356-8.491c-0.589-4.101-4.389-6.945-8.491-6.357
	l-16.652,2.394c-4.1,0.589-6.945,4.391-6.357,8.491C326.934,174.734,330.142,177.429,333.811,177.429z M483.632,311.306
	c-6.324-9.875-19.506-12.767-29.387-6.444c-21.038,13.47-26.562,35.971-31,54.055c-4.527,18.449-7.393,26.905-15.818,30.454
	c-5.665,2.386-9.893,2.871-13.507,2.199c7.04-13.472,10.997-28.597,10.997-44.57c0-11.82-2.124-23.316-6.323-34.279
	c11.509-4.529,21.89-9.923,30.973-16.144c30.587-20.949,46.754-51.436,46.754-88.165c0-17.44-3.596-34.481-10.397-50.492
	c19.027-28.558,24.248-63.6,14.264-96.84c-3.213-10.7-12.459-18.458-23.555-19.765c-13.561-1.598-33.701-1.517-55.508,6.969
	C384.792,19.032,353.577,0,318.947,0h-46.35c-34.63,0-65.845,19.032-82.178,48.284c-21.809-8.485-41.946-8.566-55.509-6.969
	c-11.094,1.307-20.34,9.065-23.554,19.765c-9.984,33.241-4.763,68.282,14.264,96.841c-6.802,16.011-10.398,33.052-10.398,50.491
	c0,28.576,9.449,52.942,28.084,72.421c12.656,13.229,29.293,23.922,49.629,31.926c-0.672,1.756-1.288,3.527-1.853,5.31
	c-7.113,5.3-16.688,8.568-25.517,8.618h-0.193c-1.64,0-3.639-0.13-5.747-0.531c2.704-6.589,3.436-13.93,1.924-21.065l-0.193-0.914
	c-1.218-5.747-5.482-10.317-11.131-11.929c-5.65-1.613-11.685,0.021-15.751,4.258l-8.856,9.232
	c-3.06,3.189-6.962,5.359-11.285,6.275l-11.338,2.401c-0.468,0.101-0.831-0.051-1.054-0.196c-0.222-0.144-0.507-0.414-0.606-0.884
	l-2.071-9.776c-2.247-10.61-12.708-17.415-23.318-15.166l-35.336,7.486c-10.609,2.248-17.412,12.708-15.165,23.318l2.62,12.37
	c2.267,10.699,8.563,19.875,17.733,25.838c6.725,4.374,14.402,6.635,22.24,6.635c2.848,0,5.717-0.298,8.568-0.902l26.548-5.624
	c1.162,1.851,2.528,3.568,4.095,5.135c14.905,14.905,35.549,23.114,58.127,23.114l0.528-0.001
	c8.928-0.051,18.215-1.453,27.241-4.053c8.05,20.705,23.09,38.301,42.44,50.295c-1.558,15.271-1.475,32.656,0.255,52.965
	C237.13,500.126,250.047,512,265.245,512c0.843,0,1.694-0.036,2.532-0.107c16.228-1.383,28.306-15.71,26.923-31.939
	c-1.002-11.761-1.352-21.986-1.065-31.027c0.711,0.013,1.422,0.025,2.137,0.025c2.544,0,5.066-0.089,7.567-0.249
	c-0.274,10.957,0.144,22.9,1.283,36.267c1.29,15.157,14.207,27.03,29.405,27.03c0.843,0,1.695-0.036,2.533-0.108
	c12.282-1.047,22.725-9.735,25.983-21.618c1.096-3.995-1.254-8.121-5.249-9.217c-3.997-1.097-8.121,1.255-9.216,5.249
	c-1.604,5.849-6.745,10.125-12.792,10.641c-0.416,0.035-0.84,0.053-1.26,0.053c-7.473,0-13.824-5.844-14.46-13.304
	c-1.175-13.784-1.553-25.932-1.164-36.955c10.583-2.093,20.604-5.621,29.82-10.358c-0.568,5.471-0.873,11.283-0.908,17.526
	c-0.022,4.142,3.317,7.518,7.459,7.541h0.042c4.122,0,7.477-3.331,7.499-7.459c0.059-10.755,0.962-20.028,2.739-28.271
	c0.142-0.109,0.281-0.22,0.422-0.329c10.084,6.108,20.376,9.095,31.309,9.095c8.72,0,17.857-1.986,27.16-5.905
	c29.013-12.221,35.723-39.56,40.623-59.524c3.168-12.912,5.904-24.063,12.62-28.364
	C487.067,334.368,489.957,321.185,483.632,311.306z M73.495,348.464c-6.777,1.437-13.712,0.147-19.521-3.632
	c-5.81-3.778-9.8-9.593-11.236-16.372l-2.62-12.37c-0.533-2.519,1.082-5.002,3.6-5.535l35.335-7.485
	c0.325-0.069,0.649-0.102,0.969-0.102c2.158,0,4.103,1.508,4.567,3.702l2.071,9.776c1.873,8.846,10.593,14.519,19.441,12.646
	l11.339-2.402c0.001,0,0.001,0,0.001,0c7.278-1.542,13.849-5.195,19-10.564l8.855-9.231c0.102-0.107,0.34-0.353,0.812-0.22
	c0.472,0.135,0.543,0.471,0.572,0.611l0.193,0.914c1.297,6.121-0.242,12.5-4.117,17.353c-0.023,0.03-0.047,0.059-0.069,0.09
	c-0.281,0.348-0.573,0.69-0.878,1.022c-5.484,5.957-12.569,9.992-20.49,11.669L73.495,348.464z M165.814,370.762l-0.439,0.001
	c-17.555,0-33.59-5.948-45.49-16.794l4.542-0.962c9.917-2.101,18.884-6.874,26.132-13.86c4.501,1.66,9.515,2.541,14.812,2.541h0.282
	c7.202-0.041,14.604-1.593,21.463-4.368c-0.321,3.2-0.491,6.427-0.491,9.68c0,6.968,0.754,13.774,2.187,20.353
	C181.163,369.541,173.326,370.72,165.814,370.762z M457.985,142.144c-9.289-15.858-21.934-30.36-37.535-42.79
	c16.23-12.855,33.897-19.281,48.061-22.475C471.258,92.637,471.803,117.069,457.985,142.144z M454.879,56.212
	c4.052,0.477,7.566,2.811,9.612,6.2c-14.922,3.444-33.228,10.113-50.471,22.964l-4.186-15.628c-0.709-2.647-1.532-5.241-2.455-7.781
	C426.029,54.907,443.235,54.841,454.879,56.212z M191.969,89.421l4.23-15.791C205.443,39.109,236.86,15,272.597,15h46.35
	c35.737,0,67.154,24.109,76.398,58.63l4.23,15.791c1.667,6.222,0.373,12.722-3.548,17.831c-3.922,5.11-9.865,8.041-16.307,8.041
	H211.824c-6.441,0-12.385-2.931-16.307-8.041C191.596,102.143,190.302,95.643,191.969,89.421z M327.663,130.293l-1.525,3.292
	c-5.639,12.165-17.946,20.026-31.354,20.026h-38.338c-13.408,0-25.716-7.86-31.354-20.026l-1.526-3.292H327.663z M136.664,56.212
	c11.644-1.374,28.851-1.307,47.499,5.756c-0.923,2.54-1.746,5.134-2.454,7.781l-4.186,15.627
	c-17.242-12.851-35.548-19.52-50.47-22.964C129.099,59.023,132.613,56.69,136.664,56.212z M123.033,76.879
	c14.163,3.194,31.831,9.62,48.061,22.475c-15.601,12.43-28.246,26.932-37.535,42.79C119.74,117.07,120.286,92.637,123.033,76.879z
	 M266.503,496.947c-0.416,0.035-0.84,0.053-1.259,0.053c-7.473,0-13.825-5.844-14.461-13.305
	c-1.425-16.721-1.685-31.273-0.791-44.158c8.97,3.888,18.595,6.671,28.676,8.16c-0.351,9.826,0.007,20.871,1.086,33.531
	C280.435,489.214,274.491,496.266,266.503,496.947z M295.772,433.952c-51.912,0-94.145-39.006-94.145-86.952
	c0-7.598,1.044-15.038,3.107-22.245c0.041-0.13,0.079-0.261,0.113-0.394c0.655-2.244,1.411-4.465,2.264-6.661
	c2.437,0.754,4.901,1.486,7.427,2.173c0.658,0.179,1.32,0.265,1.972,0.265c3.301,0,6.325-2.196,7.232-5.535
	c1.087-3.997-1.273-8.118-5.271-9.205c-40.259-10.942-88.249-36.651-88.249-96.987c0-36.748,18.131-71.689,50.076-97.211
	c0.946,1.799,2.053,3.534,3.32,5.184c5.763,7.51,14.056,12.285,23.252,13.555l4.613,9.953c8.086,17.446,25.734,28.718,44.963,28.718
	h38.338c19.228,0,36.876-11.272,44.963-28.719l4.449-9.599h35.525c11.142,0,21.423-5.069,28.206-13.908
	c1.267-1.651,2.374-3.385,3.32-5.185c31.944,25.522,50.075,60.463,50.075,97.211c0,32.007-13.535,57.506-40.23,75.79
	c-24.135,16.53-58.767,26.751-100.303,29.638c-6.759-6.831-10.322-15.668-10.322-20.632c0-16.287-13.25-29.538-29.537-29.538
	s-29.538,13.251-29.538,29.538c0,6.285,0.876,12.676,2.513,19c-0.827-0.102-1.67-0.191-2.488-0.299
	c-4.091-0.54-7.875,2.346-8.418,6.453c-0.543,4.106,2.347,7.876,6.453,8.418c3.331,0.44,6.74,0.831,10.174,1.173
	c7.403,15.736,19.374,30.02,34.192,39.795c14.232,9.388,29.854,14.148,46.431,14.148c12.126,0,24.357-2.604,36.353-7.741
	c4.374-1.873,8.128-4.694,11.06-8.207C378.272,404.81,340.641,433.952,295.772,433.952z M375.691,320.189
	c2.965-0.789,5.882-1.62,8.736-2.504c3.486,8.969,5.32,18.36,5.472,28.011c-0.535-0.286-1.108-0.518-1.724-0.672
	c-4.021-1.003-8.089,1.448-9.089,5.468c-1.11,4.465-4.169,8.064-8.391,9.871c-10.12,4.333-20.364,6.53-30.448,6.53
	c-13.59,0-26.432-3.926-38.171-11.67c-13.503-8.907-24.197-22.155-30.237-36.513c-0.138-0.452-0.318-0.887-0.535-1.3
	c-3.169-7.94-4.914-16.187-4.914-24.203s6.522-14.538,14.538-14.538s14.537,6.522,14.537,14.538c0,9.804,6.234,24.247,17.87,34.155
	c0.049,0.04,0.096,0.081,0.146,0.119c1.456,1.23,2.981,2.402,4.604,3.472c12.213,8.055,26.447,8.983,41.164,2.683
	c3.011-1.288,6.271-1.53,9.428-0.694c4.013,1.061,8.11-1.328,9.169-5.331C378.582,324.835,377.659,322.014,375.691,320.189z
	 M469.1,328.061c-11.767,7.534-15.329,22.052-19.101,37.424c-4.6,18.739-9.813,39.979-31.877,49.273
	c-7.45,3.138-14.629,4.728-21.338,4.728c-6.694,0-13.145-1.561-19.535-4.73c3.022-3.167,5.836-6.511,8.422-10.013
	c8.531,3.238,17.454,2.716,27.579-1.549c16.254-6.846,20.29-23.291,24.564-40.706c4.193-17.087,8.53-34.757,24.518-44.993
	c2.916-1.867,6.803-1.013,8.668,1.899C472.866,322.308,472.013,326.195,469.1,328.061z M218.228,162.504l-16.652-2.394
	c-4.098-0.585-7.902,2.256-8.491,6.357c-0.589,4.1,2.257,7.901,6.356,8.491l1.922,0.276c-0.014,0.185-0.028,0.37-0.028,0.558v11.064
	c0,4.142,3.357,7.5,7.5,7.5s7.5-3.358,7.5-7.5v-9.488c0.28,0.031,0.56,0.06,0.836,0.06c3.669,0,6.877-2.696,7.414-6.434
	C225.173,166.896,222.328,163.094,218.228,162.504z M399.069,239.932c-7.19-5.308-25.706-14.608-35.518-17.213
	c-4.009-1.062-8.111,1.321-9.174,5.325c-1.063,4.003,1.321,8.11,5.324,9.173c7.71,2.047,24.736,10.559,30.46,14.784
	c1.341,0.989,2.9,1.466,4.448,1.466c2.3,0,4.569-1.054,6.04-3.046C403.109,247.087,402.402,242.392,399.069,239.932z
	 M187.431,222.718c-9.814,2.606-28.33,11.907-35.518,17.214c-3.333,2.46-4.04,7.156-1.58,10.488c1.471,1.992,3.74,3.046,6.04,3.046
	c1.547,0,3.108-0.477,4.448-1.467c5.723-4.224,22.749-12.736,30.46-14.783c4.003-1.063,6.387-5.17,5.324-9.173
	C195.542,224.04,191.436,221.656,187.431,222.718z M368.969,214.053c7.911-1.046,26.895,0.337,33.795,2.063
	c0.611,0.153,1.223,0.226,1.825,0.226c3.36-0.001,6.418-2.275,7.271-5.683c1.004-4.019-1.439-8.091-5.457-9.095
	c-8.669-2.168-29.332-3.712-39.398-2.382c-4.107,0.543-6.995,4.312-6.453,8.418C361.094,211.707,364.876,214.593,368.969,214.053z
	 M182.011,214.053c4.094,0.538,7.875-2.346,8.418-6.453c0.543-4.106-2.347-7.875-6.453-8.418
	c-10.064-1.329-30.729,0.214-39.397,2.382c-4.019,1.004-6.461,5.077-5.457,9.095c0.853,3.408,3.91,5.683,7.271,5.683
	c0.603,0,1.215-0.073,1.825-0.226C155.119,214.391,174.102,213.007,182.011,214.053z M251.502,203.39
	c3.601,2.045,8.179,0.788,10.227-2.813c1.303-2.29,3.54-3.677,6.302-3.905c12.089-0.996,21.436,6.654,23.186,8.198
	c1.426,1.258,3.196,1.876,4.959,1.876c2.077,0,4.145-0.858,5.627-2.538c2.74-3.106,2.444-7.845-0.662-10.586
	c-3.583-3.161-16.648-13.355-34.347-11.899c-7.736,0.64-14.335,4.81-18.105,11.44C246.642,196.764,247.902,201.342,251.502,203.39z"
	/>
<g>
</g>
<g>
</g>
<g>
</g>
<g>
</g>
<g>
</g>
<g>
</g>
<g>
</g>
<g>
</g>
<g>
</g>
<g>
</g>
<g>
</g>
<g>
</g>
<g>
</g>
<g>
</g>
<g>
</g>
</svg>
