<?xml version="1.0" encoding="iso-8859-1"?>
<!-- Generator: Adobe Illustrator 19.0.0, SVG Export Plug-In . SVG Version: 6.00 Build 0)  -->
<svg version="1.1" id="Capa_1" xmlns="http://www.w3.org/2000/svg" xmlns:xlink="http://www.w3.org/1999/xlink" x="0px" y="0px"
	 viewBox="0 0 511.999 511.999" style="enable-background:new 0 0 511.999 511.999;" xml:space="preserve">
<path style="fill:#EDA751;" d="M48.085,420.987c-7.696,0-13.935-6.238-13.935-13.935c0-18.527,10.62-34.708,27.716-42.229
	c19.603-8.625,43.279-4.107,60.314,11.51c7.144,6.548,14.436,9.008,22.296,7.524c13.968-2.639,30.416-18.146,39.995-37.709
	c3.385-6.911,11.731-9.773,18.643-6.387c6.912,3.384,9.772,11.731,6.387,18.643c-10.338,21.111-32.215,47.616-59.85,52.838
	c-16.61,3.137-32.624-1.827-46.302-14.365c-10.791-9.891-22.708-9.866-30.261-6.543c-3.328,1.464-11.068,6.024-11.068,16.719
	C62.02,414.749,55.781,420.987,48.085,420.987z"/>
<path style="fill:#FCD79D;" d="M48.085,420.987c7.695,0,13.935-6.238,13.935-13.935c0-3.16,0.686-5.773,1.724-7.94
	c-8.354-5.22-20.253-5.638-27.883-4.64c-1.118,4.01-1.711,8.229-1.711,12.58C34.151,414.749,40.39,420.987,48.085,420.987z"/>
<g>
	<path style="fill:#EDA751;" d="M202.861,488.565c-2.467,0-4.974-0.412-7.432-1.281c-11.609-4.104-17.693-16.843-13.588-28.452
		c7.359-20.813,14.867-48.153,8.84-60.206c-5.506-11.014-1.043-24.406,9.971-29.913c11.017-5.506,24.405-1.042,29.913,9.971
		c13.891,27.782,4.417,63.619-6.682,95.012C220.646,482.847,212.044,488.565,202.861,488.565z"/>
	<path style="fill:#EDA751;" d="M132.156,344.722c-29.157,0-60.95-12.059-81.296-45.403c-6.413-10.511-3.092-24.232,7.42-30.645
		c10.509-6.412,24.231-3.093,30.645,7.419c20.981,34.387,59.619,23.155,68.816,18.264c10.873-5.78,24.373-1.651,30.152,9.22
		c5.781,10.872,1.653,24.372-9.22,30.152C166.131,340.397,149.614,344.722,132.156,344.722z"/>
	<path style="fill:#EDA751;" d="M298.512,488.565c-2.467,0-4.974-0.412-7.432-1.281c-11.609-4.104-17.693-16.843-13.588-28.452
		c8.537-24.146,4.09-47.895,1.196-53.615c-8.377-7.532-9.88-20.33-3.12-29.652c7.229-9.966,21.171-12.188,31.138-4.958
		c13.654,9.902,18.265,30.065,19.728,45.236c1.874,19.419-0.577,39.965-6.902,57.854
		C316.297,482.847,307.695,488.564,298.512,488.565z M280.51,406.69c0.005,0.004,0.011,0.008,0.016,0.012
		C280.521,406.698,280.516,406.695,280.51,406.69z"/>
	<path style="fill:#EDA751;" d="M381.115,371.253c-15.889,0-30.778-3.662-42.468-9.484c-20.65-10.285-32.943-27.354-33.727-46.829
		c-0.496-12.303,9.076-22.679,21.38-23.174c12.328-0.501,22.68,9.078,23.174,21.38c0.084,2.064,2.952,5.67,9.054,8.709
		c13.528,6.738,36.177,7.35,53.288-4.516c10.119-7.018,24.011-4.503,31.026,5.615c7.017,10.119,4.503,24.009-5.615,31.027
		C419.482,366.286,399.621,371.253,381.115,371.253z"/>
</g>
<path style="fill:#78CFC0;" d="M422.697,415.127l-7.326-20.129c-2.23-6.128,0.929-12.903,7.057-15.133l58.898-21.437
	c6.128-2.23,12.903,0.929,15.133,7.057l7.326,20.129c2.23,6.128-0.929,12.903-7.057,15.133l-58.898,21.437
	C431.703,424.414,424.928,421.255,422.697,415.127z"/>
<path id="SVGCleanerId_0" style="fill:#78CFC0;" d="M380.352,298.784l-7.326-20.129c-2.23-6.128,0.929-12.903,7.057-15.133
	l58.898-21.437c6.128-2.23,12.903,0.929,15.133,7.057l7.326,20.129c2.23,6.128-0.929,12.903-7.057,15.133l-58.898,21.437
	C389.357,308.071,382.582,304.911,380.352,298.784z"/>
<g transform="matrix(-0.342 -0.9397 0.9397 -0.342 276.25 857.7)">
	<rect x="399.019" y="312.91" style="fill:#78CFC0;" width="78.78" height="38.449"/>
	<rect x="399.019" y="312.91" style="opacity:0.1;enable-background:new    ;" width="78.78" height="38.449"/>
</g>
<g>
	<path style="opacity:0.2;fill:#A35F00;enable-background:new    ;" d="M203.114,339.762c-6.912-3.387-15.258-0.525-18.643,6.387
		c-9.579,19.563-26.026,35.069-39.994,37.709c-0.515,0.097-1.027,0.175-1.538,0.239c5.314,8.515,11.751,16.339,19.128,23.28
		c21.725-9.447,38.699-31.134,47.434-48.971C212.886,351.493,210.026,343.146,203.114,339.762z"/>
	<path style="opacity:0.2;fill:#A35F00;enable-background:new    ;" d="M371.223,325.848c-4.705-0.8-9.035-2.17-12.695-3.993
		c-6.102-3.039-8.97-6.645-9.054-8.709c-0.494-12.302-10.846-21.882-23.174-21.38c-12.304,0.495-21.876,10.871-21.38,23.174
		c0.784,19.475,13.077,36.544,33.727,46.829c6.87,3.422,14.85,6.089,23.483,7.713c5.856-13.445,9.094-28.15,9.094-43.555
		C371.224,325.901,371.223,325.874,371.223,325.848z"/>
	<path style="opacity:0.2;fill:#A35F00;enable-background:new    ;" d="M157.741,294.357c-4.424,2.353-15.663,6.171-28.471,5.674
		c-2.04,8.327-3.12,16.995-3.12,25.896c0,6.365,0.56,12.608,1.62,18.695c1.467,0.061,2.93,0.1,4.385,0.1
		c17.459,0,33.976-4.325,46.518-10.994c10.872-5.78,15-19.28,9.22-30.152C182.114,292.705,168.614,288.577,157.741,294.357z"/>
	<path style="opacity:0.2;fill:#A35F00;enable-background:new    ;" d="M326.35,415.013c-1.55-15.069-6.236-34.683-19.644-44.407
		c-9.967-7.23-23.91-5.008-31.138,4.958c-6.76,9.322-5.257,22.12,3.12,29.652c1.988,3.93,4.709,16.372,3.449,31.605
		C298.524,432.441,313.522,424.926,326.35,415.013z"/>
	<path style="opacity:0.2;fill:#A35F00;enable-background:new    ;" d="M200.651,368.712c-11.014,5.507-15.477,18.899-9.971,29.913
		c3.203,6.406,2.583,17.132,0.193,28.901c13.09,6.617,27.598,11.059,42.975,12.813c4.881-21.666,5.843-43.4-3.285-61.655
		C225.056,367.67,211.668,363.206,200.651,368.712z"/>
</g>
<ellipse style="fill:#FCD690;" cx="248.69" cy="325.931" rx="102.83" ry="95.56"/>
<path style="opacity:0.15;fill:#C17A00;enable-background:new    ;" d="M233.67,420.466
	c-46.992-30.852-32.428-94.086-24.451-121.739v-61.059c-37.205,14.382-63.366,48.48-63.366,88.259
	C145.853,373.961,183.996,413.711,233.67,420.466z"/>
<path style="fill:#EDA751;" d="M186.106,160.234c20.122-16.885,33.557-45.229,5.175-87.13
	c-28.607-42.232-71.198-52.818-104.449-48.9c-8.198,0.966-15.076,6.737-17.451,14.643c-9.632,32.066-6.602,75.848,30.02,111.354
	C135.737,185.428,165.984,177.119,186.106,160.234z"/>
<path style="fill:#FF91AB;" d="M68.043,43.753c-7.896,31.528-3.432,72.718,31.358,106.447
	c31.494,30.534,58.409,28.352,78.127,16.236C163.967,74.378,104.729,49.966,68.043,43.753z"/>
<path style="fill:#EDA751;" d="M311.268,160.234c-20.122-16.885-33.557-45.229-5.175-87.13
	c28.607-42.232,71.198-52.818,104.449-48.9c8.198,0.966,15.076,6.737,17.451,14.643c9.632,32.066,6.603,75.848-30.02,111.354
	C361.637,185.428,331.39,177.119,311.268,160.234z"/>
<path style="fill:#FF91AB;" d="M429.331,43.753c7.896,31.528,3.432,72.718-31.358,106.447
	c-31.495,30.534-58.409,28.352-78.127,16.236C333.407,74.378,392.646,49.966,429.331,43.753z"/>
<path style="fill:#EDA751;" d="M423.76,185.719c0,80.048-78.383,115.109-175.073,115.109S73.614,265.767,73.614,185.719
	s78.383-144.94,175.073-144.94S423.76,105.67,423.76,185.719z"/>
<path style="fill:#FFDC9C;" d="M423.76,185.719c0,80.048-78.383,115.109-175.073,115.109S73.614,265.767,73.614,185.719
	s78.383-144.94,175.073-144.94S423.76,105.67,423.76,185.719z"/>
<g>
	<path id="SVGCleanerId_0_1_" style="fill:#78CFC0;" d="M380.352,298.784l-7.326-20.129c-2.23-6.128,0.929-12.903,7.057-15.133
		l58.898-21.437c6.128-2.23,12.903,0.929,15.133,7.057l7.326,20.129c2.23,6.128-0.929,12.903-7.057,15.133l-58.898,21.437
		C389.357,308.071,382.582,304.911,380.352,298.784z"/>
</g>
<path style="opacity:0.15;fill:#C17A00;enable-background:new    ;" d="M155.207,63.156
	c-49.031,25.686-81.593,70.973-81.593,122.562c0,68.812,57.923,104.379,135.605,113.008
	C97.708,232.119,112.251,142.524,155.207,63.156z"/>
<g>
	<ellipse style="fill:#FF91AB;" cx="162.78" cy="189.091" rx="31.699" ry="25.24"/>
	<ellipse style="fill:#FF91AB;" cx="334.6" cy="189.091" rx="31.699" ry="25.24"/>
	<circle style="fill:#FF91AB;" cx="248.69" cy="173.491" r="17.779"/>
</g>
<path style="fill:#DEE2E5;" d="M414.226,136.513H83.149c-11.727,0-19.627-11.997-14.995-22.77l6.569-15.275
	c5.193-12.076,17.077-19.902,30.222-19.902h298.4c6.522,0,12.418,3.883,14.995,9.874l10.881,25.303
	C433.853,124.516,425.952,136.513,414.226,136.513z"/>
<path style="fill:#7694E4;" d="M68.154,113.743c-4.633,10.773,3.268,22.77,14.995,22.77h331.077
	c11.727,0,19.627-11.997,14.995-22.77l-2.668-6.204H70.821L68.154,113.743z"/>
<path d="M455.667,160.612c9.121,1.457,17.222,10.854,18.057,20.949c0.324,3.917,3.604,6.882,7.466,6.882
	c0.208,0,0.417-0.009,0.627-0.026c4.128-0.342,7.198-3.965,6.857-8.093c-1.394-16.838-14.853-32.003-30.641-34.524
	c-4.096-0.653-7.937,2.134-8.589,6.224C448.79,156.113,451.577,159.958,455.667,160.612z M248.687,198.773
	c13.94,0,25.279-11.34,25.279-25.279s-11.34-25.279-25.279-25.279c-13.939,0-25.279,11.34-25.279,25.279
	C223.408,187.432,234.748,198.773,248.687,198.773z M248.687,163.215c5.668,0,10.279,4.611,10.279,10.279
	s-4.611,10.279-10.279,10.279c-5.668,0-10.279-4.611-10.279-10.279S243.019,163.215,248.687,163.215z M28.902,82.058
	c3.754,1.088,7.762-0.901,9.125-4.625c1.425-3.889-0.573-8.197-4.462-9.622c-4.697-1.72-24.536-0.729-30.036,2.706
	c-3.514,2.194-4.584,6.82-2.39,10.334c1.422,2.278,3.867,3.529,6.368,3.529c1.22,0,2.453-0.297,3.587-0.918
	C14.057,82.422,25.803,81.617,28.902,82.058z M43.442,166.234c3.8-1.648,5.545-6.065,3.896-9.865s-6.065-5.544-9.865-3.896
	c-12.07,5.235-26.856,26.979-27.942,35.695c-0.513,4.11,2.401,7.884,6.512,8.396c0.316,0.04,0.632,0.059,0.943,0.059
	c3.725,0,6.949-2.755,7.422-6.548C25.237,185.543,36.541,169.228,43.442,166.234z M510.834,383.048l-7.327-20.128
	c-1.764-4.846-5.309-8.716-9.983-10.895s-9.914-2.407-14.763-0.645l-4.336,1.578l-21.812-59.929l4.336-1.578
	c4.846-1.764,8.715-5.309,10.895-9.983s2.408-9.917,0.643-14.763l-7.326-20.128c-1.764-4.846-5.309-8.716-9.982-10.896
	c-4.674-2.179-9.916-2.408-14.764-0.645l-20.855,7.59c10.364-16.46,15.701-35.603,15.701-56.908c0-14.895-2.56-29.539-7.603-43.655
	c4.204-1.811,7.859-4.816,10.463-8.77c4.421-6.713,5.165-15.129,1.989-22.514l-1.727-4.015c7.381-22.344,7.693-47.1,0.792-70.076
	c-3.241-10.791-12.566-18.615-23.756-19.933c-33.481-3.95-66.434,6.488-91.184,28.686c-22.409-7.962-46.695-12.164-71.548-12.164
	c-24.854,0-49.14,4.202-71.549,12.164c-24.749-22.197-57.697-32.635-91.184-28.686c-11.19,1.318-20.515,9.143-23.755,19.933
	c-6.902,22.974-6.59,47.73,0.792,70.075l-1.727,4.016c-3.176,7.384-2.433,15.8,1.988,22.513c2.604,3.955,6.26,6.96,10.464,8.771
	c-5.043,14.114-7.603,28.758-7.603,43.655c0,32.295,11.851,59.133,35.222,79.769c11.745,10.37,26.128,18.925,43.003,25.607
	c-11.259,2.554-34.774,4.425-49.012-18.909c-8.559-14.025-26.931-18.472-40.954-9.915c-14.024,8.557-18.473,26.929-9.916,40.955
	c26.014,42.631,66.112,48.997,87.699,48.997c3.219,0,6.468-0.158,9.715-0.437c2.113,7.611,5.141,14.881,8.96,21.707
	c-2.725,1.518-5.345,2.542-7.746,2.996c-3.432,0.648-8.807,0.761-15.837-5.683c-19.228-17.627-46.078-22.67-68.403-12.847
	c-19.858,8.737-32.194,27.548-32.194,49.094c0,11.819,9.615,21.435,21.434,21.435s21.435-9.616,21.435-21.435
	c0-5.749,3.583-8.532,6.589-9.853c5.388-2.37,14.04-2.247,22.173,5.207c15.485,14.195,33.729,19.802,52.762,16.206
	c9.701-1.833,19.219-6.05,28.367-12.54c1.93,1.458,3.912,2.858,5.946,4.195c0.059,10.259-3.624,26.373-10.587,46.065
	c-2.652,7.503-2.225,15.591,1.205,22.772c3.43,7.182,9.451,12.598,16.954,15.251c3.209,1.135,6.551,1.71,9.933,1.71
	c12.6,0,23.89-7.985,28.092-19.87c4.687-13.259,10.158-30.162,12.655-47.325c1.684,0.072,3.376,0.113,5.079,0.113
	c9.027,0,17.801-1.025,26.204-2.945c0.265,7.759-0.398,18.772-4.472,30.293c-5.475,15.49,2.672,32.547,18.16,38.022
	c3.209,1.135,6.551,1.71,9.933,1.71c10.082,0,19.397-5.03,24.918-13.455c2.27-3.464,1.302-8.114-2.163-10.384
	c-3.464-2.27-8.111-1.302-10.384,2.162c-2.698,4.118-7.438,6.676-12.371,6.676c-1.674,0-3.333-0.287-4.933-0.853
	c-7.691-2.719-11.736-11.189-9.018-18.88c5.498-15.548,5.851-30.042,5.118-39.729c10.103-3.79,19.469-8.937,27.842-15.199
	c0.615,3.213,1.103,6.599,1.447,10.158c0.913,9.456,0.752,19.171-0.479,28.874c-0.521,4.109,2.388,7.863,6.497,8.384
	c0.32,0.04,0.638,0.06,0.953,0.06c3.721,0,6.95-2.769,7.431-6.557c1.371-10.807,1.549-21.642,0.529-32.203
	c-0.694-7.195-1.91-13.862-3.608-19.906c6.442-6.613,11.973-14.011,16.417-22.018c10.741,3.643,22.498,5.555,34.406,5.555
	c14.795,0,29.366-3.017,42.63-8.761l0.454,1.247l-4.335,1.578c-4.847,1.764-8.716,5.309-10.896,9.983s-2.408,9.917-0.645,14.763
	l7.326,20.129l0,0c2.851,7.832,10.273,12.705,18.163,12.705c2.188,0,4.412-0.375,6.584-1.165l58.896-21.438
	C509.297,404.155,514.474,393.053,510.834,383.048z M138.989,336.977c-2.286,0.16-4.569,0.246-6.833,0.246
	c-18.442,0-52.696-5.432-74.895-41.81c-4.249-6.964-2.04-16.088,4.924-20.337c6.966-4.248,16.089-2.04,20.337,4.923
	c14.337,23.496,37.393,29.512,57.673,27.039c-1.225,6.181-1.842,12.488-1.842,18.89C138.353,329.66,138.573,333.346,138.989,336.977
	z M441.546,249.132c1.081-0.393,2.25-0.343,3.293,0.143c1.043,0.486,1.833,1.349,2.227,2.43l7.327,20.13
	c0.394,1.081,0.342,2.25-0.144,3.293c-0.486,1.043-1.35,1.834-2.431,2.227l-11.378,4.141c-0.002,0.001-0.004,0.001-0.006,0.002
	s-0.003,0.002-0.005,0.002l-36.116,13.145c-0.003,0.001-0.006,0.002-0.01,0.003c-0.003,0.001-0.006,0.003-0.009,0.004l-11.374,4.14
	c-2.235,0.812-4.709-0.342-5.521-2.574l-6.934-19.05c5.454-3.495,10.484-7.264,15.084-11.295L441.546,249.132z M424.317,83.605
	c-4.126-7.677-12.142-12.539-20.972-12.539h-22.839c14.824-10.256,30.338-15.678,43.045-18.532
	C425.385,62.836,425.629,73.346,424.317,83.605z M409.664,31.653c4.168,0.491,7.779,2.91,9.854,6.418
	c-16.916,3.89-38.162,11.871-57.367,28.191c-8.252-5.469-17.008-10.3-26.165-14.462C364.902,29.386,396.552,30.107,409.664,31.653z
	 M248.687,48.278c33.139,0,65.133,7.985,92.373,22.788H156.314C183.554,56.263,215.548,48.278,248.687,48.278z M87.71,31.653
	c13.114-1.546,44.763-2.265,73.679,20.147c-9.157,4.162-17.912,8.993-26.164,14.462c-19.206-16.32-40.452-24.302-57.368-28.191
	C79.931,34.563,83.542,32.144,87.71,31.653z M73.425,86.226c-1.715-11.084-1.593-22.51,0.399-33.692
	c12.707,2.853,28.222,8.276,43.045,18.531h-11.924C92.474,71.066,80.97,76.795,73.425,86.226z M75.78,125.043
	c-1.661-2.523-1.93-5.562-0.736-8.337l6.568-15.275c4.015-9.333,13.173-15.365,23.333-15.365h261.62
	c0.002,0,0.004,0.001,0.006,0.001c0.003,0,0.006-0.001,0.009-0.001h36.765c3.53,0,6.711,2.095,8.105,5.337l10.881,25.303
	c1.192,2.776,0.924,5.815-0.737,8.338c-1.662,2.523-4.348,3.97-7.368,3.97h-0.883c-0.011,0-0.023,0-0.034,0H84.068
	c-0.01,0-0.021,0-0.031,0h-0.889C80.128,129.013,77.442,127.566,75.78,125.043z M148.26,403.873
	c-14.195,2.681-27.977-1.648-39.843-12.524c-13.451-12.331-28.63-12.155-38.348-7.88c-9.736,4.283-15.549,13.099-15.549,23.584
	c0,3.548-2.887,6.435-6.435,6.435s-6.434-2.887-6.434-6.435c0-15.508,8.903-29.059,23.235-35.364
	c16.882-7.426,37.382-3.435,52.227,10.174c8.88,8.139,18.552,11.289,28.756,9.365c4.332-0.819,8.767-2.576,13.245-5.199
	c2.656,3.444,5.534,6.727,8.614,9.835C161.315,399.948,154.794,402.638,148.26,403.873z M216.81,471.196
	c-2.087,5.903-7.692,9.869-13.949,9.869c-1.674,0-3.333-0.287-4.933-0.853c-3.726-1.317-6.716-4.006-8.419-7.572
	c-1.703-3.566-1.915-7.582-0.598-11.309c6.103-17.263,9.775-31.645,10.994-42.986c8.973,4.149,18.631,7.192,28.771,8.935
	C226.327,442.979,221.208,458.755,216.81,471.196z M224.599,307.585c7.815,0.492,15.92,0.742,24.088,0.742
	c33.619,0,63.964-4.149,89.751-12.145c2.615,6.714,4.32,13.66,5.095,20.775c0.002,0.022,0.004,0.045,0.007,0.067
	c0.318,2.941,0.481,5.909,0.481,8.902c0,48.554-42.767,88.056-95.334,88.056s-95.334-39.501-95.334-88.056
	c0-10.256,1.878-20.23,5.579-29.736c9.222,2.851,19.048,5.236,29.505,7.112c0.448,0.08,0.894,0.119,1.333,0.119
	c3.562,0,6.723-2.548,7.373-6.177c0.731-4.077-1.98-7.975-6.058-8.707c-12.117-2.173-23.298-5.043-33.548-8.569
	c-0.256-0.102-0.513-0.189-0.773-0.261c-18.277-6.375-33.516-14.884-45.5-25.466c-20.006-17.665-30.149-40.72-30.149-68.525
	c0-14.254,2.656-28.259,7.884-41.705h319.379c5.228,13.448,7.884,27.453,7.884,41.705c0,27.495-9.823,50.194-29.249,67.735
	c-0.172,0.139-0.339,0.284-0.497,0.437c-5.262,4.69-11.209,9.011-17.854,12.948c-8.493,5.032-18.024,9.37-28.471,13
	c-0.069,0.023-0.138,0.045-0.207,0.071c-25.491,8.824-56.448,13.418-91.294,13.418c-7.854,0-15.642-0.24-23.145-0.713
	c-4.128-0.246-7.695,2.88-7.957,7.014C217.325,303.762,220.466,307.324,224.599,307.585z M367.243,284.696l6.061,16.652
	c2.851,7.832,10.273,12.705,18.163,12.705c2.188,0,4.412-0.375,6.584-1.165l4.336-1.578l0.892,2.451
	c-13.977,7.369-31.201,6.464-41.408,1.379c-1.73-0.862-2.927-1.679-3.735-2.329c-0.999-7.377-2.843-14.593-5.529-21.592
	C357.705,289.213,362.591,287.042,367.243,284.696z M381.115,363.753c-9.734,0-19.305-1.484-28.098-4.287
	c3.414-9.239,5.455-19.068,5.902-29.275c6.319,2.461,13.879,3.895,21.859,3.895c9.132,0,18.782-1.869,27.661-6.147l10.166,27.93
	C407,361.036,394.17,363.753,381.115,363.753z M416.482,306.18l22.035-8.02l21.812,59.929l-22.035,8.02L416.482,306.18z
	 M494.163,393.699l-58.897,21.438c-2.234,0.811-4.71-0.342-5.522-2.575v0.001l-7.326-20.129c-0.394-1.081-0.343-2.25,0.143-3.293
	s1.349-1.833,2.431-2.227l47.512-17.293c0.001,0,0.002-0.001,0.003-0.001c0.001,0,0.002-0.001,0.003-0.001l11.381-4.142
	c1.081-0.392,2.25-0.342,3.293,0.144c1.043,0.486,1.833,1.349,2.227,2.431l7.327,20.128
	C497.55,390.41,496.395,392.887,494.163,393.699z M456.286,76.055c1.249,0.795,2.642,1.173,4.02,1.173
	c2.479,0,4.905-1.229,6.335-3.475c1.979-3.112,10.908-10.006,18.173-9.658c4.155,0.19,7.646-3.013,7.833-7.151
	c0.188-4.138-3.014-7.645-7.151-7.833c-13.31-0.62-26.838,9.247-31.511,16.59C451.761,69.197,452.792,73.832,456.286,76.055z
	 M333.905,214.776c7.807,2.072,25.049,10.692,30.845,14.97c1.341,0.989,2.9,1.466,4.448,1.466c2.3,0,4.569-1.054,6.04-3.046
	c2.46-3.333,1.753-8.028-1.58-10.488c-7.268-5.365-25.985-14.767-35.905-17.4c-4.003-1.063-8.109,1.322-9.173,5.325
	C327.517,209.606,329.901,213.713,333.905,214.776z M316.123,171.412c4.142,0,7.5-3.358,7.5-7.5v-11.194c0-4.142-3.358-7.5-7.5-7.5
	c-4.143,0-7.5,3.358-7.5,7.5v11.194C308.623,168.054,311.98,171.412,316.123,171.412z M181.252,145.218c-4.143,0-7.5,3.358-7.5,7.5
	v11.194c0,4.142,3.357,7.5,7.5,7.5s7.5-3.358,7.5-7.5v-11.194C188.752,148.576,185.394,145.218,181.252,145.218z M343.248,191.339
	c8.007-1.061,27.233,0.341,34.224,2.089c0.61,0.152,1.222,0.226,1.824,0.226c3.36-0.001,6.418-2.275,7.271-5.683
	c1.004-4.019-1.439-8.09-5.458-9.095c-8.764-2.19-29.649-3.751-39.825-2.407c-4.106,0.543-6.995,4.312-6.453,8.418
	C335.373,188.993,339.152,191.877,343.248,191.339z M159.622,200.278c-9.919,2.633-28.636,12.034-35.906,17.4
	c-3.332,2.46-4.04,7.155-1.58,10.488c1.471,1.993,3.74,3.047,6.04,3.047c1.547,0,3.107-0.477,4.448-1.466
	c5.797-4.279,23.04-12.898,30.846-14.971c4.004-1.063,6.388-5.17,5.325-9.173S163.627,199.215,159.622,200.278z M154.127,191.339
	c4.096,0.539,7.875-2.346,8.418-6.453c0.542-4.106-2.347-7.875-6.453-8.418c-10.178-1.345-31.063,0.216-39.826,2.408
	c-4.019,1.004-6.461,5.077-5.457,9.095c0.853,3.408,3.91,5.683,7.271,5.683c0.603,0,1.215-0.073,1.825-0.226
	C126.892,191.68,146.115,190.28,154.127,191.339z"/>
<g>
</g>
<g>
</g>
<g>
</g>
<g>
</g>
<g>
</g>
<g>
</g>
<g>
</g>
<g>
</g>
<g>
</g>
<g>
</g>
<g>
</g>
<g>
</g>
<g>
</g>
<g>
</g>
<g>
</g>
</svg>
