<?xml version="1.0" encoding="iso-8859-1"?>
<!-- Generator: Adobe Illustrator 19.0.0, SVG Export Plug-In . SVG Version: 6.00 Build 0)  -->
<svg version="1.1" id="Capa_1" xmlns="http://www.w3.org/2000/svg" xmlns:xlink="http://www.w3.org/1999/xlink" x="0px" y="0px"
	 viewBox="0 0 512.004 512.004" style="enable-background:new 0 0 512.004 512.004;" xml:space="preserve">
<g>
	<path style="fill:#EDA751;" d="M240.734,504.5c-1.46,0-2.943-0.157-4.428-0.485c-11.034-2.435-18.004-13.353-15.57-24.387
		c4.678-21.201,4.51-39.277-0.546-58.612c-2.859-10.932,3.686-22.111,14.618-24.969c10.931-2.859,22.111,3.686,24.969,14.618
		c6.689,25.582,6.98,50.297,0.915,77.78C258.585,497.994,250.125,504.5,240.734,504.5z"/>
	<path style="fill:#EDA751;" d="M302.09,504.5c-1.461,0-2.942-0.157-4.428-0.485c-11.034-2.435-18.004-13.354-15.57-24.387
		c4.679-21.201,4.51-39.277-0.545-58.611c-2.859-10.931,3.685-22.111,14.617-24.969c10.93-2.859,22.111,3.685,24.969,14.617
		c6.69,25.582,6.981,50.297,0.916,77.781C319.942,497.994,311.48,504.5,302.09,504.5z"/>
	<path style="fill:#EDA751;" d="M91.663,437.881c-2.684,0-5.389-0.841-7.695-2.583c-5.636-4.256-6.755-12.274-2.499-17.91
		c17.166-22.734,51.834-26.126,88.321-8.642c13.926,6.672,27.181,3.928,46.62-31.146c3.424-6.176,11.206-8.409,17.383-4.985
		c6.177,3.423,8.409,11.205,4.985,17.382c-7.129,12.862-26.218,47.299-57.686,47.302c-6.862,0-14.309-1.636-22.352-5.491
		c-24.645-11.808-47.496-11.411-56.861,0.99C99.363,436.128,95.536,437.881,91.663,437.881z"/>
</g>
<path style="fill:#FCD79D;" d="M93.415,406.307c-4.569,2.953-8.595,6.643-11.947,11.082c-4.256,5.636-3.137,13.654,2.5,17.91
	c2.307,1.742,5.012,2.583,7.695,2.583c3.873,0,7.7-1.753,10.214-5.082c2.065-2.734,4.786-4.883,8.037-6.448
	C107.047,417.393,99.62,409.754,93.415,406.307z"/>
<path style="fill:#EDA751;" d="M157.723,373.589c-19.406,0-40.89-4.287-59.107-19.118c-8.762-7.134-10.082-20.02-2.948-28.783
	s20.021-10.082,28.783-2.948c20.031,16.31,53.234,8.483,69.191,4.722c10.998-2.593,22.015,4.222,24.606,15.219
	c2.592,10.998-4.221,22.014-15.219,24.607C192.966,369.66,176.295,373.589,157.723,373.589z"/>
<path style="fill:#7694E4;" d="M71.12,190.736l-50.941,19.887c-4.811,1.878-7.014,7.448-4.789,12.109l24.222,50.747
	c1.992,4.173,6.867,6.101,11.175,4.42l6.083-2.375c2.501-0.977,5.311,0.339,6.163,2.885l25.681,76.777
	c2.872,8.585,12.227,13.441,20.744,10.372c8.811-3.175,13.006-13.147,9.199-21.636l-33.292-74.231
	c-1.099-2.45,0.076-5.321,2.578-6.298l6.249-2.439c4.308-1.682,6.587-6.403,5.224-10.822l-16.567-53.735
	C81.325,191.462,75.931,188.858,71.12,190.736z"/>
<g style="opacity:0.1;">
	<path d="M54.316,260.705c-2.932,0-5.717-1.73-6.921-4.604l-12.03-28.725c-1.6-3.82,0.2-8.215,4.021-9.815s8.215,0.2,9.815,4.021
		l12.03,28.724c1.6,3.821-0.2,8.215-4.021,9.815C56.264,260.518,55.282,260.705,54.316,260.705z"/>
	<path d="M74.864,252.683c-3.067,0-5.946-1.895-7.051-4.946L57.199,218.46c-1.412-3.894,0.6-8.195,4.495-9.607
		c3.893-1.413,8.196,0.601,9.607,4.495l10.613,29.277c1.412,3.894-0.601,8.195-4.495,9.607
		C76.576,252.538,75.712,252.683,74.864,252.683z"/>
</g>
<path style="fill:#EDA751;" d="M374.296,381.306c-13.804,0-26.347-2.348-35.276-5.606c-10.615-3.874-16.079-15.619-12.205-26.233
	c3.874-10.615,15.621-16.078,26.233-12.205c14.923,5.446,44.911,4.929,60.096-10.256c7.99-7.99,20.943-7.99,28.933,0
	c7.99,7.99,7.99,20.943,0,28.933C423.045,374.972,396.971,381.306,374.296,381.306z"/>
<path style="fill:#78CFC0;" d="M493.911,258.718c7.193-20.212,3.596-45.302-10.118-50.182c-13.714-4.88-32.353,12.296-39.546,32.508
	c-3.533,9.926-2.183,20.245,2.759,27.722c1.182,1.789,1.427,4.035,0.609,6.017l-31.758,76.974
	c-3.453,8.369,0.437,18.165,8.883,21.423c8.738,3.371,18.439-1.416,21.122-10.325l24.123-80.111c0.618-2.053,2.227-3.64,4.273-4.28
	C482.814,275.791,490.379,268.645,493.911,258.718z"/>
<g>
	<path style="opacity:0.2;fill:#C18F00;enable-background:new    ;" d="M384.244,339.703c-11.673,1.595-23.459,0.382-31.196-2.441
		c-10.612-3.873-22.359,1.591-26.233,12.205c-3.874,10.614,1.591,22.359,12.205,26.233c8.928,3.258,21.472,5.606,35.276,5.606
		c2.979,0,6.017-0.113,9.089-0.346c1.682-7.313,2.576-14.899,2.576-22.68C385.962,351.945,385.37,345.739,384.244,339.703z"/>
	<path style="opacity:0.2;fill:#C18F00;enable-background:new    ;" d="M233.791,372.615c-6.176-3.424-13.959-1.191-17.383,4.985
		c-18.153,32.754-30.914,37.311-43.863,32.337c5.566,9.475,12.611,18.077,20.843,25.527c24.196-7.269,39.242-34.377,45.388-45.466
		C242.2,383.82,239.968,376.038,233.791,372.615z"/>
	<path style="opacity:0.2;fill:#C18F00;enable-background:new    ;" d="M193.64,327.462c-7.738,1.824-19.533,4.597-31.913,5.117
		c-2.164,8.237-3.32,16.844-3.32,25.702c0,5.189,0.402,10.291,1.164,15.284c17.824-0.248,33.731-3.984,43.457-6.277
		c10.998-2.592,17.812-13.609,15.219-24.607C215.655,331.683,204.638,324.868,193.64,327.462z"/>
</g>
<ellipse style="fill:#FCD690;" cx="272.182" cy="358.28" rx="94.36" ry="87.69"/>
<path style="opacity:0.15;fill:#C17A00;enable-background:new    ;" d="M258.405,445.032
	c-43.121-28.311-29.757-86.336-22.437-111.711v-56.029c-34.14,13.198-58.146,44.486-58.146,80.989
	C177.821,402.357,212.822,438.833,258.405,445.032z"/>
<path style="fill:#82C7E6;" d="M326.495,452.509c3.193-16.399,4.533-47.912-6.798-92.944c-0.985-3.915-4.527-6.648-8.565-6.648
	h-77.896c-4.037,0-7.58,2.733-8.565,6.648c-11.331,45.032-9.991,76.545-6.798,92.944c1.32,6.78,7.208,11.696,14.115,11.696
	c20.985,0,59.406,0,80.391,0C319.287,464.206,325.175,459.29,326.495,452.509z"/>
<path style="opacity:0.1;enable-background:new    ;" d="M326.495,452.509c1.716-8.812,2.893-21.996,1.86-39.289
	c-13.658,1.972-34.611,3.781-56.171,3.781s-42.513-1.81-56.171-3.781c-1.033,17.294,0.144,30.477,1.86,39.289
	c1.32,6.78,7.208,11.696,14.115,11.696c20.985,0,59.406,0,80.391,0C319.287,464.206,325.175,459.29,326.495,452.509z"/>
<path style="fill:#EDA751;" d="M214.758,206.236c18.465-15.494,30.793-41.503,4.748-79.953
	c-26.25-38.753-65.333-48.467-95.845-44.872c-7.522,0.886-13.834,6.182-16.013,13.437c-8.838,29.424-6.059,69.6,27.547,102.181
	C168.538,229.354,196.294,221.73,214.758,206.236z"/>
<path style="fill:#FF91AB;" d="M106.42,99.35c-7.246,28.93-3.149,66.728,28.775,97.679c28.9,28.019,53.598,26.017,71.691,14.898
	C194.443,127.452,140.084,105.051,106.42,99.35z"/>
<path style="fill:#EDA751;" d="M329.61,206.236c-18.465-15.494-30.793-41.503-4.749-79.953
	c26.25-38.753,65.333-48.467,95.845-44.872c7.522,0.886,13.834,6.182,16.013,13.437c8.838,29.424,6.059,69.6-27.547,102.181
	C375.83,229.354,348.075,221.73,329.61,206.236z"/>
<path style="fill:#FF91AB;" d="M437.948,99.35c7.246,28.93,3.149,66.728-28.775,97.679c-28.9,28.019-53.598,26.017-71.691,14.898
	C349.926,127.452,404.285,105.051,437.948,99.35z"/>
<path style="fill:#FFDC9C;" d="M432.837,229.621c0,73.455-71.927,105.627-160.652,105.627s-160.653-32.172-160.653-105.627
	S183.459,96.62,272.184,96.62S432.837,156.166,432.837,229.621z"/>
<path style="opacity:0.15;fill:#C17A00;enable-background:new    ;" d="M186.404,117.154
	c-44.992,23.57-74.872,65.127-74.872,112.467c0,63.144,53.152,95.781,124.435,103.7
	C133.642,272.199,146.987,189.984,186.404,117.154z"/>
<g>
	<ellipse style="fill:#FF91AB;" cx="193.352" cy="232.72" rx="29.09" ry="23.16"/>
	<ellipse style="fill:#FF91AB;" cx="351.022" cy="232.72" rx="29.09" ry="23.16"/>
</g>
<path style="fill:#DEE2E5;" d="M383.964,60.614c0-22.838-20.811-41.351-46.482-41.351c-7.297,0-14.199,1.498-20.342,4.165
	c-3.517,1.527-7.58,0.59-10.298-2.116c-8.51-8.474-20.88-13.812-34.658-13.812c-13.778,0-26.148,5.338-34.657,13.811
	c-2.717,2.706-6.78,3.643-10.298,2.116c-6.144-2.667-13.046-4.165-20.342-4.165c-25.671,0-46.482,18.514-46.482,41.351
	c0,18.787,14.085,34.643,33.371,39.678c3.409,0.89,5.759,4.012,5.759,7.535v32.643h145.299v-32.643c0-3.523,2.35-6.645,5.759-7.535
	C369.88,95.257,383.964,79.401,383.964,60.614z"/>
<g style="opacity:0.1;">
	<path d="M246.413,147.604c-4.142,0-7.5-3.358-7.5-7.5v-35.455c0-4.142,3.358-7.5,7.5-7.5s7.5,3.358,7.5,7.5v35.455
		C253.913,144.246,250.555,147.604,246.413,147.604z"/>
	<path d="M297.956,147.604c-4.142,0-7.5-3.358-7.5-7.5v-35.455c0-4.142,3.358-7.5,7.5-7.5s7.5,3.358,7.5,7.5v35.455
		C305.456,144.246,302.098,147.604,297.956,147.604z"/>
</g>
<path style="fill:#7694E4;" d="M344.834,122.376c0,0-16.936,10.121-72.65,10.121c-55.713,0-72.65-10.121-72.65-10.121v19.868
	c0,3.902,2.484,7.374,6.187,8.605c9.022,2.998,28.954,7.585,66.462,7.585s57.441-4.588,66.463-7.585
	c3.703-1.23,6.187-4.703,6.187-8.605v-19.868H344.834z"/>
<path d="M486.308,201.47c-9.102-3.239-19.613-0.323-29.604,8.207c-6.551,5.595-12.293,13.177-16.391,21.484
	c0.007-0.514,0.023-1.024,0.023-1.54c0-16.077-3.28-31.884-9.584-46.819c17.622-26.602,22.438-59.192,13.151-90.112
	c-3.046-10.138-11.806-17.489-22.319-18.728c-10.869-1.28-21.879-0.905-32.559,1.066c1.582-4.593,2.438-9.44,2.438-14.414
	c0-26.937-24.216-48.852-53.982-48.852c-8.164,0-16.013,1.61-23.329,4.785c-0.61,0.264-1.422,0.044-2.019-0.551
	C301.924,5.831,287.364,0,272.185,0c-15.18,0-29.741,5.831-39.95,15.997c-0.597,0.594-1.409,0.815-2.019,0.551
	c-7.315-3.175-15.164-4.785-23.329-4.785c-29.766,0-53.982,21.914-53.982,48.852c0,4.974,0.856,9.821,2.438,14.414
	c-10.681-1.971-21.69-2.346-32.558-1.066c-10.513,1.239-19.274,8.59-22.319,18.728c-9.288,30.919-4.472,63.51,13.15,90.112
	c-6.303,14.935-9.584,30.742-9.584,46.819c0,4.171,0.24,8.235,0.671,12.212l-14.689-47.646c-1.337-4.337-4.449-7.957-8.537-9.93
	c-4.088-1.973-8.857-2.159-13.085-0.507l-50.941,19.887c-4.229,1.651-7.611,5.019-9.28,9.24c-1.669,4.221-1.505,8.991,0.45,13.086
	l24.222,50.747c3.665,7.678,12.745,11.27,20.671,8.175l3.339-1.304L81.6,357.566c2.048,6.12,6.551,11.243,12.354,14.054
	c3.255,1.577,6.731,2.371,10.212,2.371c2.64,0,5.283-0.457,7.833-1.376c0.381-0.137,0.757-0.284,1.128-0.44
	c13.068,5.911,28.044,8.915,44.595,8.915c4.996,0,10.086-0.28,15.386-0.817c2.122,8.279,5.426,16.247,9.781,23.687
	c-2.969,0.511-6.056-0.154-9.859-1.976c-39.848-19.094-78.136-14.82-97.547,10.887c-3.266,4.324-4.651,9.662-3.902,15.029
	s3.544,10.121,7.868,13.386c3.55,2.681,7.774,4.098,12.215,4.098c6.331,0,12.387-3.014,16.199-8.063
	c7.043-9.326,26.631-8.81,47.635,1.254c8.625,4.132,17.236,6.228,25.594,6.227c9.475-0.001,18.631-2.664,27.322-7.916
	c0.354,5.814,1.025,11.547,2.099,17.059c0.782,4.018,2.645,7.595,5.235,10.477c-0.531,4.402-1.295,8.879-2.335,13.593
	c-3.321,15.054,6.224,30.004,21.278,33.327c1.988,0.439,4.022,0.661,6.044,0.661c13.003,0,24.477-9.227,27.283-21.939
	c1.365-6.185,2.423-12.332,3.17-18.355h4.831c-0.365,2.059-0.772,4.148-1.248,6.306c-3.322,15.054,6.223,30.005,21.278,33.328
	c1.989,0.438,4.022,0.661,6.043,0.661c13.003,0,24.477-9.226,27.283-21.938c2.765-12.529,4.219-24.321,4.46-36.02
	c0.007-0.034,0.017-0.066,0.024-0.1c0.999-5.133,1.964-12.301,2.283-21.583c15.146-11.445,26.364-26.704,32.519-43.681
	c1.889,0.084,3.772,0.127,5.637,0.127c16.626,0,32.51-3.212,46.232-9.3c0.498,0.234,0.995,0.472,1.513,0.672
	c2.725,1.051,5.602,1.574,8.474,1.574c3.554,0,7.101-0.8,10.342-2.386c5.863-2.869,10.305-8.099,12.187-14.348l23.957-79.557
	c10.903-3.593,19.843-12.613,23.977-24.228C509.126,238.335,505.105,208.16,486.308,201.47z M422.757,166.994
	c-2.528-4.242-5.309-8.389-8.359-12.419c-7.272-9.607-15.881-18.393-25.594-26.203c14.634-11.428,30.478-17.254,43.313-20.21
	C434.537,122.541,434.876,144.446,422.757,166.994z M419.83,88.859c3.337,0.393,6.263,2.207,8.119,4.871
	c-15.347,3.633-34.391,10.929-51.685,25.503c-6.885-4.534-14.209-8.613-21.895-12.213c8.841-2.632,16.575-7.264,22.665-13.231
	C394.082,87.593,409.66,87.663,419.83,88.859z M206.887,26.763c6.098,0,11.938,1.192,17.356,3.544
	c6.295,2.732,13.587,1.287,18.576-3.682C250.238,19.237,260.941,15,272.185,15c11.242,0,21.945,4.237,29.365,11.626
	c4.99,4.97,12.282,6.414,18.576,3.682c5.419-2.352,11.259-3.544,17.357-3.544c21.495,0,38.982,15.185,38.982,33.852
	c0,14.821-11.417,28.153-27.766,32.421c-6.691,1.747-11.364,7.829-11.364,14.792v3.116c0,0.025,0,0.05,0,0.075v6.398
	c-7.396,2.599-26.599,7.582-65.15,7.582s-57.753-4.984-65.149-7.583v-6.397c0-0.025,0-0.05,0-0.075v-3.116
	c0-6.962-4.673-13.045-11.364-14.792c-16.348-4.268-27.766-17.6-27.766-32.421C167.904,41.948,185.392,26.763,206.887,26.763z
	 M337.334,133.179v9.065c0,0.68-0.423,1.278-1.052,1.487c-8.095,2.69-27.188,7.203-64.098,7.203
	c-36.911,0-56.002-4.513-64.097-7.203c-0.629-0.209-1.052-0.807-1.052-1.487v-9.064c11.061,3.153,31.217,6.818,65.149,6.818
	S326.273,136.333,337.334,133.179z M124.539,88.859c10.17-1.2,25.749-1.267,42.796,4.928c6.09,5.967,13.824,10.599,22.665,13.231
	c-7.686,3.6-15.01,7.679-21.895,12.213c-17.294-14.573-36.338-21.87-51.685-25.503C118.275,91.066,121.202,89.253,124.539,88.859z
	 M112.252,108.161c12.835,2.956,28.679,8.782,43.312,20.21c-9.712,7.81-18.321,16.596-25.593,26.203
	c-3.05,4.03-5.832,8.178-8.359,12.419C109.493,144.445,109.832,122.541,112.252,108.161z M111.879,353.814
	c-0.644,1.516-1.684,2.768-3.002,3.673c-0.123,0.08-0.245,0.162-0.364,0.25c-0.498,0.305-1.033,0.563-1.6,0.767
	c-2.081,0.75-4.362,0.614-6.421-0.383c-2.192-1.061-3.894-2.998-4.667-5.312L70.144,276.03c-1.055-3.152-3.386-5.768-6.396-7.177
	c-1.629-0.763-3.401-1.146-5.175-1.146c-1.505,0-3.011,0.276-4.431,0.831l-6.083,2.375c-0.644,0.251-1.381-0.042-1.679-0.664
	l-24.222-50.747c-0.216-0.451-0.14-0.852-0.038-1.109c0.102-0.257,0.32-0.601,0.786-0.783l50.941-19.887
	c0.466-0.183,0.861-0.076,1.109,0.043c0.248,0.12,0.576,0.364,0.724,0.841l16.567,53.735c0.204,0.661-0.141,1.375-0.785,1.626
	l-6.249,2.439c-3.096,1.208-5.593,3.665-6.852,6.741c-1.259,3.076-1.201,6.579,0.159,9.612l21.894,48.816
	c0.006,0.015,0.013,0.029,0.02,0.044l11.379,25.371C112.794,349.181,112.818,351.604,111.879,353.814z M170.624,365.438
	c-4.442,0.422-8.721,0.651-12.902,0.651c-11.947,0-22.863-1.758-32.583-5.225c0.192-0.39,0.375-0.785,0.546-1.186
	c2.552-6.008,2.484-12.869-0.187-18.824l-5.372-11.978c9.464,7.528,21.848,11.277,37.512,11.277c4.621,0,9.538-0.337,14.739-0.988
	c-1.362,6.242-2.056,12.626-2.056,19.116C170.321,360.677,170.43,363.063,170.624,365.438z M181.089,429.799
	c-6.097,0.001-12.526-1.599-19.111-4.754c-28.39-13.602-54.331-12.334-66.087,3.234c-1.009,1.336-2.55,2.102-4.229,2.102
	c-0.803,0-2.006-0.185-3.176-1.069c-1.127-0.851-1.855-2.089-2.05-3.488c-0.195-1.398,0.166-2.789,1.017-3.916
	c14.921-19.762,45.968-22.272,79.095-6.398c9.043,4.334,17.387,4.748,25.326,1.256c2.325,2.798,4.822,5.478,7.48,8.029
	C193.414,428.115,187.299,429.799,181.089,429.799z M217.399,357.736c-2.723,10.82-7.418,32.122-8.862,55.14
	c-3.031-2.994-5.784-6.181-8.256-9.525c-0.132-0.231-0.276-0.458-0.435-0.679c-0.17-0.236-0.354-0.455-0.545-0.665
	c-6.544-9.254-10.921-19.688-12.85-30.747c-0.01-0.094-0.012-0.188-0.025-0.283c-0.04-0.283-0.098-0.558-0.167-0.828
	c-0.618-3.89-0.936-7.853-0.936-11.869c0-8.788,1.518-17.348,4.507-25.541c0.008-0.02,0.014-0.04,0.022-0.06
	c0.115-0.314,0.226-0.628,0.345-0.941c4.599,1.41,9.352,2.69,14.255,3.835c5.205,6.902,10.738,13.336,14.751,17.822
	C218.411,354.725,217.791,356.176,217.399,357.736z M165.24,305.154c-3.62-2.016-8.186-0.714-10.201,2.905
	s-0.714,8.186,2.905,10.201c3.883,2.162,7.967,4.181,12.23,6.065c-18.581,2.299-32.067-0.135-40.99-7.401
	c-4.943-4.025-10.997-6.188-17.231-6.271L93.411,269.31l3.505-1.369c5.529-2.158,9.257-7.091,10.161-12.636
	c3.753,15.117,10.967,28.602,21.625,40.263c1.48,1.619,3.505,2.44,5.538,2.44c1.807,0,3.619-0.649,5.058-1.964
	c3.058-2.794,3.271-7.538,0.477-10.596c-13.764-15.06-20.743-33.843-20.743-55.828c0-15.298,3.363-30.122,9.631-43.918
	c0.221-0.387,0.408-0.789,0.556-1.204c8.843-18.867,23.166-35.754,41.897-49.191c0.475-0.26,0.926-0.578,1.346-0.949
	c6.085-4.265,12.621-8.168,19.573-11.665v19.551c0,7.153,4.55,13.471,11.322,15.722c10.939,3.635,31.759,7.969,68.828,7.969
	c37.067,0,57.889-4.334,68.828-7.969c6.772-2.251,11.322-8.568,11.322-15.722v-19.551c6.952,3.497,13.488,7.401,19.573,11.666
	c0.42,0.37,0.87,0.688,1.345,0.948c18.732,13.438,33.055,30.325,41.898,49.193c0.147,0.414,0.334,0.815,0.554,1.2
	c6.269,13.797,9.633,28.622,9.633,43.921c0,31.987-14.594,56.853-43.377,73.906c-7.756,4.595-16.461,8.558-26.004,11.874
	c-0.072,0.024-0.143,0.047-0.214,0.073c-6.75,2.336-13.916,4.351-21.471,6.03c-0.232,0.04-0.463,0.09-0.691,0.152
	c-18.376,4.022-39.007,6.091-61.395,6.091C228.772,327.748,191.791,319.935,165.24,305.154z M317.172,339.775
	c-1.757,2.029-3.46,3.944-5.046,5.685c-0.33-0.02-0.659-0.042-0.993-0.042h-77.896c-0.334,0-0.664,0.022-0.993,0.042
	c-1.586-1.741-3.29-3.656-5.046-5.685c14.115,1.969,29.169,2.972,44.988,2.972C288.023,342.748,303.068,341.741,317.172,339.775z
	 M253.369,486.829c-1.301,5.894-6.615,10.171-12.635,10.171c-0.938,0-1.884-0.104-2.812-0.309c-6.977-1.54-11.401-8.47-9.862-15.447
	c0.727-3.297,1.336-6.497,1.835-9.645c0.691,0.067,1.389,0.107,2.094,0.107h24.053C255.371,476.676,254.494,481.729,253.369,486.829
	z M314.725,486.829C313.424,492.723,308.11,497,302.09,497c-0.937,0-1.884-0.104-2.812-0.309c-6.978-1.54-11.401-8.47-9.862-15.448
	c0.724-3.28,1.315-6.434,1.811-9.538h21.153c1.759,0,3.472-0.229,5.124-0.63C316.83,476.212,315.915,481.44,314.725,486.829z
	 M356.343,378.285c-0.128,0.357-0.237,0.724-0.31,1.105c-3.651,12.485-10.535,23.933-20.186,33.471
	c-0.15-2.504-0.339-5.093-0.586-7.791c-0.377-4.125-4.027-7.168-8.15-6.787c-4.125,0.376-7.164,4.025-6.787,8.15
	c2.083,22.823,0.148,37.767-1.191,44.643c-0.635,3.263-3.476,5.63-6.753,5.63h-27.603c-0.006,0-0.012,0-0.018,0h-52.77
	c-3.278,0-6.119-2.368-6.753-5.63c-2.08-10.681-5.59-40.801,6.71-89.68c0.143-0.566,0.686-0.978,1.291-0.978h77.896
	c0.615,0,1.146,0.402,1.291,0.978c0.946,3.761,1.83,7.538,2.625,11.226c0.874,4.049,4.868,6.622,8.913,5.75
	c4.049-0.874,6.623-4.864,5.75-8.913c-0.832-3.853-1.754-7.797-2.741-11.723c-0.393-1.56-1.013-3.01-1.802-4.339
	c4.013-4.485,9.543-10.918,14.747-17.817c4.904-1.145,9.66-2.424,14.26-3.836c1.18,3.1,2.145,6.253,2.898,9.453
	c0.044,0.241,0.099,0.478,0.165,0.711c1.202,5.343,1.81,10.813,1.81,16.373C359.048,365.137,358.12,371.843,356.343,378.285z
	 M409.057,367.608c0.046,0.106,0.104,0.203,0.151,0.308c-13.026,4.766-25.809,5.889-34.911,5.889c-0.543,0-1.091-0.011-1.638-0.019
	c0.91-5.095,1.389-10.279,1.389-15.507c0-3.494-0.202-6.956-0.598-10.383c0.024,0,0.048,0.001,0.072,0.001
	c13.465,0,29.245-3.141,40.748-11.957l-5.345,12.956C406.464,354.862,406.512,361.682,409.057,367.608z M407.842,321.702
	c-8.698,8.698-24.263,11.752-37.477,11.127c-0.603-2.032-1.28-4.047-2.03-6.043c7.638-3.036,14.748-6.488,21.271-10.353
	c23.291-13.799,38.864-32.705,46.088-55.582c0.917,4.135,2.508,8.071,4.768,11.608l-17.084,41.408
	C417.536,314.76,412.061,317.482,407.842,321.702z M486.846,256.204c-2.625,7.376-8.167,13.022-14.824,15.102
	c-4.44,1.388-7.886,4.856-9.217,9.276l-24.124,80.111c-0.692,2.298-2.26,4.144-4.417,5.199c-2.155,1.055-4.578,1.158-6.824,0.291
	c-0.691-0.266-1.327-0.629-1.91-1.064c-0.1-0.078-0.198-0.159-0.302-0.231c-1.02-0.838-1.841-1.923-2.389-3.199
	c-0.961-2.238-0.979-4.816-0.048-7.071l31.757-76.973c1.761-4.267,1.28-9.132-1.286-13.015c-3.846-5.817-4.575-13.694-1.95-21.071
	c3.058-8.593,8.715-16.995,15.132-22.475c4.455-3.804,8.894-5.876,12.395-5.876c0.876,0,1.694,0.13,2.438,0.395
	C490.68,218.948,492.223,241.094,486.846,256.204z M190.295,242.383c-9.161,2.433-26.444,11.114-33.155,16.067
	c-3.333,2.46-4.04,7.156-1.58,10.488c1.471,1.993,3.74,3.046,6.04,3.046c1.547,0,3.108-0.477,4.448-1.466
	c5.279-3.897,20.985-11.749,28.096-13.637c4.003-1.063,6.387-5.17,5.324-9.174S194.298,241.324,190.295,242.383z M185.332,235.391
	c4.115,0.544,7.875-2.347,8.418-6.453c0.542-4.106-2.347-7.876-6.453-8.419c-9.398-1.241-28.685,0.199-36.776,2.222
	c-4.018,1.004-6.462,5.077-5.457,9.095c0.852,3.408,3.91,5.683,7.27,5.683c0.602,0,1.214-0.073,1.825-0.226
	C160.525,235.702,178.038,234.426,185.332,235.391z M294.153,214.994c2.722-3.122,2.396-7.86-0.726-10.581
	c-3.122-2.722-7.86-2.398-10.582,0.726c-2.692,3.089-6.578,4.86-10.661,4.86s-7.969-1.771-10.66-4.86
	c-2.722-3.123-7.46-3.447-10.582-0.727c-3.122,2.722-3.448,7.459-0.726,10.582c5.541,6.358,13.549,10.005,21.969,10.005
	S288.611,221.353,294.153,214.994z M319.786,215.487c4.142,0,7.5-3.358,7.5-7.5c0-3.738,3.041-6.779,6.779-6.779
	s6.779,3.041,6.779,6.779c0,4.142,3.358,7.5,7.5,7.5s7.5-3.358,7.5-7.5c0-12.009-9.77-21.779-21.779-21.779
	s-21.779,9.77-21.779,21.779C312.286,212.129,315.644,215.487,319.786,215.487z M210.303,186.209
	c-12.009,0-21.779,9.77-21.779,21.779c0,4.142,3.358,7.5,7.5,7.5s7.5-3.358,7.5-7.5c0-3.738,3.041-6.779,6.779-6.779
	s6.779,3.041,6.779,6.779c0,4.142,3.358,7.5,7.5,7.5s7.5-3.358,7.5-7.5C232.083,195.979,222.313,186.209,210.303,186.209z
	 M387.228,258.45c-6.711-4.953-23.994-13.634-33.155-16.067c-4.002-1.059-8.111,1.321-9.174,5.324
	c-1.063,4.003,1.321,8.111,5.324,9.174c7.111,1.888,22.817,9.74,28.097,13.637c1.34,0.989,2.901,1.466,4.448,1.466
	c2.3,0,4.569-1.054,6.04-3.046C391.268,265.606,390.561,260.91,387.228,258.45z M350.619,228.938
	c0.543,4.106,4.309,6.996,8.418,6.453c7.291-0.964,24.806,0.311,31.173,1.903c0.61,0.153,1.222,0.226,1.825,0.226
	c3.36-0.001,6.419-2.275,7.27-5.683c1.005-4.018-1.439-8.09-5.457-9.095c-8.091-2.023-27.378-3.462-36.776-2.222
	C352.965,221.063,350.076,224.832,350.619,228.938z"/>
<g>
</g>
<g>
</g>
<g>
</g>
<g>
</g>
<g>
</g>
<g>
</g>
<g>
</g>
<g>
</g>
<g>
</g>
<g>
</g>
<g>
</g>
<g>
</g>
<g>
</g>
<g>
</g>
<g>
</g>
</svg>
