<?xml version="1.0" encoding="iso-8859-1"?>
<!-- Generator: Adobe Illustrator 19.0.0, SVG Export Plug-In . SVG Version: 6.00 Build 0)  -->
<svg version="1.1" id="Capa_1" xmlns="http://www.w3.org/2000/svg" xmlns:xlink="http://www.w3.org/1999/xlink" x="0px" y="0px"
	 viewBox="0 0 511.999 511.999" style="enable-background:new 0 0 511.999 511.999;" xml:space="preserve">
<path style="fill:#EDA751;" d="M98.715,437.529c-31.172,0-61.13-17.164-75.015-43.166c-3.782-7.082-1.106-15.889,5.976-19.671
	c7.081-3.781,15.889-1.107,19.671,5.976c8.993,16.841,29.839,28.263,50.673,27.772c27.201-0.639,51.295-20.175,67.844-55.009
	c3.445-7.253,12.117-10.338,19.368-6.893c7.252,3.445,10.338,12.117,6.893,19.368c-29.013,61.071-70.986,71.073-93.422,71.6
	C100.041,437.521,99.376,437.529,98.715,437.529z"/>
<path style="fill:#BD4568;" d="M57.681,361.154l-32.905-7.08c-6.15-1.323-12.116,2.898-12.913,9.138l-4.27,33.386
	c-1.186,9.276,9.225,15.532,16.859,10.13l4.895-3.464c2.644,3.585,5.601,6.954,8.842,10.065c5.963-2.537,14.896-7.913,22.059-19.219
	c-2.677-2.325-5.085-4.886-7.167-7.64l8.548-6.049C69.26,375.021,66.824,363.121,57.681,361.154z"/>
<g>
	<path style="fill:#EDA751;" d="M174.705,496.891c-2.574,0-5.189-0.43-7.752-1.336c-12.111-4.282-18.459-17.571-14.177-29.681
		c7.899-22.344,15.131-46.871,8.878-59.377c-5.744-11.49-1.087-25.461,10.402-31.205c11.491-5.744,25.461-1.088,31.205,10.402
		c13.224,26.449,6.915,57.379-6.628,95.684C193.259,490.925,184.285,496.891,174.705,496.891z"/>
	<path style="fill:#EDA751;" d="M108.725,362.204c-0.422,0-0.843-0.004-1.266-0.011c-29.001-0.495-54.274-17.673-69.341-47.129
		c-5.849-11.437-1.32-25.45,10.116-31.299c11.439-5.85,25.451-1.319,31.299,10.116c7.194,14.065,17.124,21.603,28.718,21.801
		c8.892,0.137,16.7-4.312,19.145-8.714c6.236-11.23,20.397-15.278,31.625-9.043c11.23,6.236,15.279,20.396,9.043,31.625
		C156.998,349.481,133.804,362.204,108.725,362.204z"/>
	<path style="fill:#EDA751;" d="M302.04,488.363c-2.574,0-5.189-0.43-7.753-1.336c-12.111-4.282-18.458-17.571-14.177-29.681
		c8.277-23.412-6.206-40.104-9.4-42.421c-10.399-7.542-12.714-22.086-5.172-32.484c7.543-10.399,22.086-12.715,32.484-5.172
		c18.383,13.333,41.682,51.073,25.946,95.583C320.594,482.397,311.62,488.363,302.04,488.363z"/>
	<path style="fill:#EDA751;" d="M371.714,366.123c-7.279,0-14.588-0.686-21.799-2.074c-23.266-4.477-42.944-15.61-55.411-31.347
		c-7.977-10.069-6.281-24.698,3.789-32.674c10.069-7.977,24.697-6.28,32.674,3.789c11.265,14.22,42.617,21.569,67.714,10.118
		c11.686-5.333,25.483-0.181,30.815,11.507c5.332,11.687,0.181,25.484-11.507,30.815
		C403.694,362.778,387.784,366.123,371.714,366.123z"/>
</g>
<path style="fill:#BD4568;" d="M496.514,222.034c-7.164-3.622-15.909-0.756-19.534,6.409l-16.412,32.437
	c-2.319,4.584-6.865,7.536-11.82,7.967c-1.395,0.121-2.507-1.164-2.24-2.539l9.539-49.179c1.489-7.678-3.123-15.432-10.72-17.29
	c-8.119-1.986-16.169,3.232-17.744,11.349l-9.618,49.585c-0.274,1.413-1.83,2.133-3.109,1.473c-4.39-2.266-7.467-6.679-7.902-11.766
	l-3.06-35.811c-0.666-7.799-7.234-13.998-15.055-13.699c-8.351,0.319-14.652,7.534-13.948,15.766l3.095,36.22
	c1.514,17.73,13.78,32.724,30.481,37.978c1.963,0.618,3.14,2.622,2.748,4.643l-22.717,117.121
	c-1.527,7.876,3.585,15.964,11.465,17.468c0.92,0.176,1.836,0.26,2.741,0.26c6.821,0,12.908-4.826,14.255-11.772l22.797-117.535
	c0.389-2.008,2.211-3.453,4.25-3.286c1.144,0.094,2.287,0.141,3.425,0.141c16.231,0,31.568-9.122,39.08-23.969l16.412-32.437
	C506.548,234.404,503.678,225.658,496.514,222.034z"/>
<g>
	<path style="opacity:0.2;fill:#A35F00;enable-background:new    ;" d="M357.681,318.122c-11.543-2.386-21.381-7.574-26.715-14.306
		c-7.977-10.069-22.605-11.766-32.673-3.789c-10.069,7.977-11.766,22.606-3.789,32.674c12.467,15.738,32.144,26.871,55.411,31.347
		c1.068,0.206,2.14,0.391,3.212,0.566c3.413-10.767,5.255-22.163,5.255-33.958C358.382,326.424,358.142,322.243,357.681,318.122z"/>
	<path style="opacity:0.2;fill:#A35F00;enable-background:new    ;" d="M159.023,297.925c-11.229-6.235-25.39-2.187-31.625,9.043
		c-2.445,4.402-10.253,8.851-19.145,8.714c-0.754-0.013-1.5-0.06-2.24-0.135c-0.67,4.95-1.015,9.993-1.015,15.111
		c0,10.914,1.578,21.486,4.516,31.534c24.776-0.264,47.601-12.92,58.552-32.64C174.301,318.321,170.253,304.161,159.023,297.925z"/>
	<path style="opacity:0.2;fill:#A35F00;enable-background:new    ;" d="M187.232,346.537c-7.252-3.446-15.924-0.36-19.368,6.893
		c-10.403,21.897-23.788,37.743-39.05,46.656c6.022,7.863,13.038,15.009,20.872,21.278c15.458-10.569,31.281-27.762,44.439-55.458
		C197.57,358.654,194.484,349.983,187.232,346.537z"/>
	<path style="opacity:0.2;fill:#A35F00;enable-background:new    ;" d="M172.056,375.292c-11.49,5.745-16.146,19.716-10.402,31.205
		c2.937,5.874,2.898,14.401,1.213,24.108c13.184,8.05,28.051,13.859,43.987,16.849c5.357-23.325,5.488-43.599-3.593-61.76
		C197.517,374.204,183.547,369.548,172.056,375.292z"/>
	<path style="opacity:0.2;fill:#A35F00;enable-background:new    ;" d="M323.512,412.633c-6.188-16.305-16.433-28.799-25.489-35.366
		c-10.399-7.543-24.942-5.227-32.484,5.172c-7.542,10.399-5.227,24.943,5.172,32.484c2.318,1.681,10.573,10.937,11.769,24.832
		C298.033,433.332,311.964,424.058,323.512,412.633z"/>
</g>
<ellipse style="fill:#FCD690;" cx="231.685" cy="330.655" rx="107.278" ry="99.688"/>
<path style="opacity:0.15;fill:#C17A00;enable-background:new    ;" d="M216.024,429.282
	c-49.023-32.185-33.83-98.152-25.509-127.001v-63.698c-38.813,15.004-66.105,50.575-66.105,92.074
	C124.411,380.767,164.202,422.235,216.024,429.282z"/>
<path style="fill:#EDA751;" d="M166.404,157.803c20.992-17.615,35.007-47.184,5.399-90.895
	C141.959,22.849,97.527,11.806,62.838,15.892c-8.552,1.008-15.728,7.029-18.205,15.276c-10.048,33.451-6.888,79.127,31.317,116.167
	C113.857,184.085,145.412,175.416,166.404,157.803z"/>
<path style="fill:#FF91AB;" d="M43.238,36.287c-8.238,32.89-3.58,75.861,32.713,111.048c32.855,31.853,60.934,29.577,81.504,16.938
	C143.308,68.235,81.509,42.769,43.238,36.287z"/>
<path style="fill:#EDA751;" d="M296.975,157.803c-20.992-17.615-35.007-47.184-5.399-90.895
	c29.843-44.057,74.276-55.101,108.963-51.014c8.552,1.008,15.728,7.029,18.205,15.276c10.048,33.451,6.888,79.127-31.317,116.167
	C349.521,184.085,317.968,175.416,296.975,157.803z"/>
<path style="fill:#FF91AB;" d="M420.142,36.287c8.238,32.89,3.58,75.861-32.713,111.048c-32.855,31.853-60.934,29.577-81.504,16.938
	C320.072,68.235,381.871,42.769,420.142,36.287z"/>
<path style="fill:#FFDC9C;" d="M414.33,184.388c0,83.509-81.771,120.084-182.641,120.084S49.05,267.897,49.05,184.388
	S130.82,33.183,231.689,33.183S414.33,100.88,414.33,184.388z"/>
<path style="opacity:0.15;fill:#C17A00;enable-background:new    ;" d="M134.169,56.528c-51.151,26.796-85.121,74.041-85.121,127.86
	c0,71.787,60.427,108.891,141.467,117.893C74.185,232.793,89.357,139.326,134.169,56.528z"/>
<g>
	<path style="fill:#BD4568;" d="M142.412,43.321c-6.038,14.944-6.38,31.052-2.327,41.825c1.56,4.147,4.895,7.334,9.123,8.659
		c10.127,3.174,23.502,1.315,32.987-4.449c6.477-3.935,7.605-12.875,2.597-18.564c-7.204-8.182-15.374-18.421-23.41-29.667
		C156.394,34.143,145.627,35.364,142.412,43.321z"/>
	<path style="fill:#BD4568;" d="M320.968,43.321c6.038,14.944,6.38,31.052,2.327,41.825c-1.56,4.147-4.895,7.334-9.123,8.659
		c-10.127,3.174-23.502,1.315-32.987-4.449c-6.477-3.935-7.605-12.875-2.597-18.564c7.204-8.182,15.374-18.421,23.41-29.667
		C306.985,34.143,317.753,35.364,320.968,43.321z"/>
</g>
<path d="M160.988,128.135c-2.929-2.929-7.678-2.929-10.606,0c-2.929,2.929-2.929,7.678,0,10.606l5.792,5.792
	c-1.435,1.366-2.334,3.29-2.334,5.428v11.678c0,4.142,3.358,7.5,7.5,7.5c4.142,0,7.5-3.358,7.5-7.5v-5.904
	c0.62,0.161,1.256,0.25,1.893,0.25c1.919,0,3.839-0.732,5.303-2.197c2.929-2.929,2.929-7.678,0-10.607L160.988,128.135z
	 M133.084,189.93c4.112,0.543,7.876-2.347,8.419-6.453c0.542-4.106-2.346-7.876-6.453-8.418c-10.584-1.4-32.31,0.225-41.426,2.504
	c-4.019,1.004-6.462,5.077-5.457,9.095c0.852,3.408,3.91,5.683,7.27,5.683c0.602,0,1.214-0.073,1.825-0.226
	C104.742,190.245,124.53,188.797,133.084,189.93z M330.296,189.93c8.553-1.131,28.342,0.315,35.823,2.185
	c0.61,0.153,1.222,0.226,1.825,0.226c3.36,0,6.418-2.275,7.27-5.683c1.005-4.018-1.438-8.09-5.457-9.095
	c-9.117-2.279-30.841-3.901-41.426-2.504c-4.107,0.543-6.995,4.312-6.453,8.418C322.421,187.584,326.187,190.471,330.296,189.93z
	 M510.891,228.136c-1.835-5.593-5.738-10.137-10.992-12.795c-10.842-5.482-24.125-1.124-29.61,9.716l-13.199,26.087l6.32-32.586
	c2.286-11.787-4.874-23.209-16.301-26.003c-5.925-1.448-12.01-0.438-17.137,2.846c-5.055,3.237-8.609,8.471-9.752,14.36
	l-6.399,32.991l-1.098-12.842c6.019-13.782,9.107-29.025,9.107-45.522c0-18.267-3.779-36.305-11.033-53.325
	c20.119-30.073,25.656-67.015,15.131-102.052c-3.344-11.134-12.965-19.207-24.511-20.567c-17.864-2.104-52.03-1.924-84.624,21.577
	c-1.194-0.404-2.439-0.691-3.72-0.843c-6.067-0.719-12.04,1.615-16.018,6.14c-20.913-6.39-42.873-9.634-65.367-9.634
	c-22.493,0-44.452,3.244-65.366,9.634c-3.977-4.525-9.949-6.858-16.018-6.14c-1.281,0.152-2.526,0.439-3.72,0.842
	C113.992,6.521,79.825,6.338,61.96,8.444c-11.544,1.36-21.165,9.433-24.51,20.566c-10.525,35.037-4.988,71.98,15.132,102.052
	c-7.254,17.02-11.033,35.058-11.033,53.325c0,34.134,12.71,62.386,37.778,83.971c12.193,10.499,27.041,19.152,44.362,25.933
	c-1.198,3.096-2.234,6.233-3.116,9.406c-1.303,1.584-5.935,4.575-12.193,4.486c-6.033-0.103-14.776-3.261-22.171-17.717
	c-7.723-15.1-26.292-21.103-41.391-13.378c-7.315,3.741-12.735,10.107-15.262,17.925c-2.527,7.818-1.858,16.152,1.883,23.467
	c7.761,15.173,18.064,27.342,30.145,36.009c-0.753-0.266-1.527-0.494-2.327-0.666l-32.905-7.08
	c-4.978-1.072-10.217,0.001-14.373,2.942c-4.157,2.941-6.911,7.525-7.558,12.577l-4.269,33.386
	c-0.932,7.288,2.401,14.166,8.698,17.95c5.997,3.603,13.21,3.517,19.063-0.166c1.539,1.752,3.154,3.438,4.827,5.056
	c0.085,0.09,0.164,0.183,0.254,0.269c17.402,16.696,41.356,26.272,65.72,26.272c0.718,0,1.44-0.008,2.164-0.025
	c14.492-0.341,34.685-4.172,55.104-18.885c-1.818,13.312-7.554,29.546-10.279,37.254c-5.653,15.991,2.757,33.599,18.749,39.252
	c3.313,1.171,6.762,1.765,10.252,1.765c13.009,0,24.663-8.244,28.999-20.513c6.735-19.051,10.808-33.926,12.821-46.972
	c4.963,0.615,10.024,0.937,15.164,0.937c14.42,0,28.224-2.503,40.949-7.057c2.371,5.752,3.934,14.065,0.401,24.059
	c-5.652,15.991,2.758,33.599,18.749,39.252c3.314,1.171,6.763,1.765,10.252,1.765c10.892,0,21.065-5.835,26.552-15.228
	c2.089-3.577,0.883-8.17-2.693-10.259c-3.577-2.09-8.17-0.883-10.259,2.693c-2.808,4.807-8.019,7.793-13.6,7.793
	c-1.782,0-3.549-0.306-5.253-0.907c-8.193-2.897-12.502-11.919-9.606-20.112c5.132-14.513,2.754-26.644-0.753-34.995
	c9.641-4.906,18.448-11.066,26.172-18.242c5.851,11.268,9.034,23.903,9.067,36.396c0.011,4.135,3.367,7.48,7.5,7.48h0.021
	c4.142-0.011,7.491-3.378,7.48-7.52c-0.044-16.596-4.751-33.379-13.318-47.866c6.375-7.888,11.608-16.622,15.475-25.985
	c3.192,0.896,6.423,1.676,9.674,2.302c7.616,1.466,15.427,2.209,23.216,2.209c5.686,0,11.355-0.403,16.955-1.186l-7.532,38.832
	c-1.131,5.832,0.154,12.032,3.525,17.011c3.311,4.888,8.246,8.174,13.896,9.251c1.368,0.262,2.764,0.394,4.147,0.394
	c10.521,0,19.613-7.504,21.619-17.844l22.23-114.616c0.294,0.006,0.587,0.008,0.878,0.008c19.175,0,37.141-11.023,45.772-28.083
	l16.412-32.436C512.271,239.702,512.725,233.729,510.891,228.136z M402.9,115.3c-2.235-3.86-4.637-7.658-7.252-11.364
	c-9.032-12.803-20.195-24.461-33.046-34.646c17.464-13.965,36.547-20.852,51.734-24.228C417.336,61.878,418.043,88.273,402.9,115.3z
	 M399.663,23.341c4.601,0.542,8.569,3.282,10.742,7.235c-17.737,4.026-40.14,12.376-60.343,29.615
	c-6.145-4.085-12.595-7.857-19.319-11.287c-0.779-2.832-1.71-5.638-2.817-8.378C355.709,21.635,384.437,21.549,399.663,23.341z
	 M308.099,45.486c0.87-1.218,2.05-1.437,2.786-1.437c0.166,0,0.309,0.011,0.421,0.024c0.422,0.05,1.037,0.207,1.608,0.621
	c0.066,0.052,0.133,0.104,0.201,0.154c0.349,0.302,0.671,0.712,0.901,1.282l0,0c1.247,3.085,2.237,6.285,2.967,9.501
	c0.016,0.076,0.03,0.152,0.049,0.228c2.155,9.652,1.96,19.427-0.757,26.648c-0.753,2.003-2.337,3.513-4.345,4.142
	c-8.063,2.527-19.105,1.005-26.851-3.702c-1.512-0.919-1.938-2.361-2.056-3.14c-0.224-1.463,0.211-2.943,1.194-4.058
	C292.061,66.838,300.319,56.372,308.099,45.486z M146.349,55.857c0.018-0.074,0.032-0.149,0.048-0.224
	c0.73-3.217,1.721-6.417,2.968-9.503l0,0c0.231-0.572,0.554-0.984,0.904-1.286c0.062-0.046,0.124-0.094,0.185-0.142
	c0.574-0.421,1.195-0.579,1.619-0.63c0.112-0.013,0.255-0.024,0.42-0.024c0.736,0,1.917,0.219,2.786,1.437
	c0.708,0.99,1.423,1.973,2.138,2.955c0.008,0.012,0.017,0.023,0.025,0.035c7.139,9.809,14.599,19.186,21.72,27.274
	c0.982,1.115,1.417,2.595,1.194,4.058c-0.119,0.778-0.544,2.221-2.056,3.14c-7.747,4.707-18.788,6.229-26.852,3.702
	c-2.008-0.629-3.592-2.14-4.346-4.143C144.388,75.285,144.194,65.509,146.349,55.857z M63.716,23.341
	c15.224-1.797,43.953-1.708,71.737,17.185c-1.107,2.74-2.038,5.547-2.817,8.379c-6.724,3.43-13.174,7.202-19.319,11.287
	c-20.203-17.24-42.606-25.59-60.343-29.616C55.148,26.623,59.115,23.883,63.716,23.341z M49.044,45.063
	c15.187,3.376,34.27,10.264,51.734,24.229c-12.852,10.185-24.015,21.843-33.046,34.645c-2.615,3.706-5.017,7.504-7.252,11.364
	C45.336,88.274,46.044,61.878,49.044,45.063z M124.187,368.209c2.67,6.645,6.028,12.977,9.991,18.923
	c-10.549,8.879-22.074,13.523-34.334,13.811c-12.331,0.293-25.262-4.35-34.596-12.414c-0.029-0.026-0.054-0.054-0.084-0.08
	c-0.283-0.246-0.563-0.495-0.838-0.746l1.635-1.157c5.997-4.244,8.807-11.352,7.333-18.549c-0.712-3.478-2.342-6.537-4.641-8.95
	c11.705,6.727,24.796,10.41,38.685,10.647c0.463,0.007,0.925,0.012,1.387,0.012C113.927,369.704,119.103,369.194,124.187,368.209z
	 M44.796,311.649c-1.917-3.748-2.26-8.018-0.965-12.024c1.294-4.005,4.071-7.267,7.818-9.183c7.736-3.957,17.251-0.883,21.208,6.854
	c10.782,21.08,25.131,25.711,35.281,25.885c3.097,0.053,6.191-0.357,9.135-1.125c-0.24,2.847-0.362,5.715-0.362,8.601
	c0,7.944,0.938,15.686,2.702,23.141c-3.59,0.598-7.23,0.906-10.888,0.906c-0.381,0-0.763-0.003-1.138-0.01
	C81.446,354.248,58.559,338.558,44.796,311.649z M39.733,404.149c-1.538-1.711-2.993-3.494-4.351-5.336
	c-1.468-1.992-3.739-3.049-6.042-3.049c-1.499,0-3.012,0.448-4.326,1.378l-4.896,3.464c-1.502,1.065-2.863,0.54-3.541,0.132
	c-0.678-0.407-1.779-1.363-1.545-3.189l4.269-33.386c0.157-1.229,0.909-1.928,1.343-2.235c0.435-0.307,1.346-0.78,2.554-0.523
	l32.905,7.08c1.8,0.387,2.335,1.744,2.494,2.519c0.158,0.774,0.2,2.232-1.303,3.296l-8.548,6.049
	c-1.657,1.172-2.769,2.967-3.08,4.973c-0.311,2.006,0.205,4.053,1.429,5.672c1.028,1.359,2.127,2.682,3.292,3.961
	C46.857,399.216,43.099,402.145,39.733,404.149z M100.531,430.008c-17.691,0.41-35.199-5.208-49.273-15.5
	c3.479-2.492,7.097-5.689,10.537-9.81c10.846,7.238,23.866,11.258,36.908,11.258c0.497,0,0.996-0.006,1.493-0.018
	c15.359-0.361,30.13-6.194,43.141-16.937c3.148,3.543,6.538,6.89,10.141,10.028C133.969,425.633,114.217,429.686,100.531,430.008z
	 M189.563,478.878c-2.223,6.288-8.194,10.513-14.858,10.513c-1.783,0-3.55-0.305-5.252-0.907c-3.969-1.403-7.154-4.267-8.968-8.066
	c-1.814-3.798-2.041-8.076-0.638-12.044c5.802-16.411,10.875-32.904,11.573-46.535c9.319,5.392,19.521,9.571,30.353,12.305
	C199.939,446.336,196.07,460.471,189.563,478.878z M208.206,311.297c7.633,0.448,15.535,0.675,23.484,0.675
	c35.165,0,66.89-4.352,93.821-12.742c1.475,3.748,2.677,7.565,3.606,11.443c0.022,0.098,0.046,0.195,0.071,0.293
	c1.513,6.418,2.28,12.997,2.28,19.692c0,50.832-44.76,92.186-99.779,92.186s-99.779-41.354-99.779-92.186
	c0-7.35,0.919-14.561,2.742-21.572c0.073-0.224,0.134-0.449,0.185-0.676c0.83-3.09,1.837-6.139,3.018-9.145
	c10.743,3.336,22.302,6.04,34.653,8.098c0.417,0.07,0.832,0.103,1.241,0.103c3.6,0,6.778-2.6,7.389-6.269
	c0.681-4.085-2.08-7.95-6.165-8.63c-13.86-2.309-26.605-5.46-38.201-9.428c-0.367-0.164-0.74-0.299-1.117-0.4
	c-18.569-6.482-34.154-15.08-46.541-25.746c-21.609-18.607-32.565-43.034-32.565-72.604c0-25.239,8.105-50.069,23.439-71.805
	c12.536-17.77,29.637-33.166,49.927-45.092c-0.129,7.332,0.902,14.318,3.152,20.296c2.39,6.353,7.456,11.155,13.899,13.175
	c4.007,1.256,8.417,1.864,12.937,1.864c9.088,0,18.616-2.46,26.189-7.06c4.907-2.981,8.222-7.974,9.095-13.696
	c0.895-5.862-0.841-11.779-4.764-16.233c-4.739-5.383-9.644-11.371-14.5-17.689c17.92-4.951,36.628-7.465,55.767-7.465
	c19.14,0,37.848,2.515,55.767,7.466c-4.855,6.317-9.76,12.305-14.5,17.689c-3.922,4.455-5.659,10.372-4.764,16.233
	c0.873,5.722,4.188,10.714,9.096,13.696c7.573,4.601,17.099,7.06,26.188,7.06c4.519,0,8.932-0.609,12.938-1.864
	c6.444-2.019,11.51-6.822,13.899-13.174c2.249-5.978,3.281-12.965,3.152-20.297c20.29,11.926,37.391,27.323,49.927,45.092
	c15.334,21.736,23.439,46.566,23.439,71.805c0,14.923-2.763,28.495-8.258,40.664c-0.171,0.301-0.316,0.617-0.444,0.94
	c-5.283,11.337-12.965,21.44-23.019,30.266c-0.178,0.142-0.348,0.292-0.511,0.448c-5.234,4.536-11.091,8.737-17.587,12.586
	c-8.881,5.262-18.849,9.798-29.772,13.593c-0.065,0.022-0.13,0.043-0.194,0.067c-26.631,9.221-58.965,14.02-95.357,14.02
	c-7.658,0-15.263-0.218-22.605-0.649c-4.143-0.233-7.684,2.913-7.927,7.048C200.916,307.506,204.071,311.055,208.206,311.297z
	 M339.68,294.265c8.99-3.52,17.343-7.542,24.98-12.067c4.293-2.544,8.343-5.249,12.168-8.094
	c5.828,10.457,15.155,18.64,26.46,22.964l-1.548,7.981c-2.111,0.464-4.173,1.15-6.17,2.062c-18.177,8.294-40.261,5.243-52.539-2.598
	C342.099,301.052,340.984,297.634,339.68,294.265z M351.332,356.685c-2.624-0.505-5.234-1.121-7.815-1.827
	c1.93-7.78,2.951-15.881,2.951-24.201c0-2.724-0.112-5.432-0.327-8.121c7.685,2.793,16.622,4.478,25.944,4.478
	c8.692,0,17.71-1.462,26.331-4.831l-6.702,34.555C378.477,359.244,364.598,359.237,351.332,356.685z M496.231,238.182
	l-16.412,32.437c-6.102,12.061-18.816,19.855-32.387,19.855c-0.922,0-1.869-0.039-2.813-0.117
	c-5.837-0.479-11.099,3.533-12.225,9.333l-22.796,117.535c-0.641,3.303-3.54,5.701-6.893,5.701c-0.442,0-0.891-0.043-1.335-0.128
	c-1.707-0.326-3.23-1.366-4.289-2.929c-1.152-1.702-1.597-3.795-1.219-5.743l19.557-100.834c0.003-0.017,0.007-0.033,0.01-0.05
	l3.149-16.236c1.121-5.779-2.258-11.465-7.86-13.226c-9.874-3.106-17.882-10.277-22.128-19.595
	c4.021-3.852,7.69-7.913,10.997-12.176c0.913,7.15,5.376,13.57,11.829,16.902c2.7,1.393,5.938,1.435,8.666,0.114
	c2.71-1.314,4.671-3.864,5.246-6.824l9.617-49.584c0.37-1.907,1.477-3.536,3.116-4.586c1.638-1.049,3.584-1.372,5.483-0.907
	c3.581,0.876,5.887,4.723,5.139,8.576l-9.539,49.18c-0.573,2.956,0.289,6.059,2.306,8.299c2.034,2.258,4.935,3.405,7.948,3.139
	c7.591-0.661,14.435-5.279,17.862-12.053l16.412-32.437c1.751-3.462,5.994-4.854,9.457-3.103c1.677,0.849,2.923,2.299,3.509,4.085
	C497.224,234.598,497.079,236.505,496.231,238.182z M138.857,199.89c-10.318,2.739-29.786,12.519-37.347,18.1
	c-3.332,2.46-4.04,7.156-1.58,10.488c1.471,1.992,3.74,3.046,6.04,3.046c1.547,0,3.108-0.477,4.448-1.466
	c6.204-4.579,23.95-13.457,32.288-15.67c4.004-1.063,6.388-5.17,5.325-9.173C146.968,201.212,142.862,198.828,138.857,199.89z
	 M231.689,178.107c9.276,0,18.098-4.018,24.202-11.022c2.721-3.123,2.396-7.86-0.727-10.582c-3.123-2.721-7.861-2.396-10.582,0.727
	c-3.255,3.735-7.955,5.877-12.893,5.877c-4.939,0-9.638-2.142-12.894-5.877c-2.722-3.123-7.46-3.448-10.581-0.726
	c-3.123,2.722-3.448,7.459-0.726,10.581C213.593,174.089,222.415,178.107,231.689,178.107z M320.673,214.388
	c8.339,2.214,26.086,11.091,32.288,15.67c1.34,0.989,2.901,1.466,4.448,1.466c2.299,0,4.57-1.054,6.04-3.046
	c2.46-3.333,1.752-8.028-1.58-10.488c-7.561-5.581-27.03-15.36-37.347-18.1c-4.002-1.06-8.111,1.321-9.174,5.324
	C314.286,209.217,316.67,213.325,320.673,214.388z M292.647,155.986c0.637,0,1.272-0.088,1.893-0.25v5.904
	c0,4.142,3.358,7.5,7.5,7.5c4.142,0,7.5-3.358,7.5-7.5v-11.678c0-2.138-0.899-4.062-2.334-5.428l5.792-5.792
	c2.929-2.929,2.929-7.678,0-10.606c-2.929-2.929-7.678-2.929-10.606,0l-15.047,15.047c-2.929,2.929-2.929,7.678,0,10.607
	C288.808,155.254,290.728,155.986,292.647,155.986z"/>
<g>
</g>
<g>
</g>
<g>
</g>
<g>
</g>
<g>
</g>
<g>
</g>
<g>
</g>
<g>
</g>
<g>
</g>
<g>
</g>
<g>
</g>
<g>
</g>
<g>
</g>
<g>
</g>
<g>
</g>
</svg>
