<?xml version="1.0" encoding="iso-8859-1"?>
<!-- Generator: Adobe Illustrator 19.0.0, SVG Export Plug-In . SVG Version: 6.00 Build 0)  -->
<svg version="1.1" id="Capa_1" xmlns="http://www.w3.org/2000/svg" xmlns:xlink="http://www.w3.org/1999/xlink" x="0px" y="0px"
	 viewBox="0 0 511.996 511.996" style="enable-background:new 0 0 511.996 511.996;" xml:space="preserve">
<circle style="fill:#82C7E6;" cx="195.705" cy="34.775" r="27.27"/>
<path style="opacity:0.1;enable-background:new    ;" d="M211.19,51.408c-14.76,2.978-29.141-6.573-32.119-21.334
	c-1.363-6.752-0.097-13.421,3.084-18.959c-9.915,5.676-15.561,17.239-13.177,29.052c2.978,14.761,17.359,24.312,32.119,21.333
	c8.008-1.616,14.477-6.592,18.25-13.16C216.872,49.758,214.137,50.813,211.19,51.408z"/>
<path style="fill:#EDA751;" d="M115.415,470.838c-1.855,0-3.739-0.407-5.522-1.268c-6.329-3.054-8.984-10.661-5.93-16.991
	c10.188-21.115,31.832-33.366,66.167-37.451c19.285-2.295,26.142-12.049,39.471-37.29c3.282-6.215,10.98-8.595,17.195-5.31
	c6.215,3.282,8.593,10.98,5.311,17.195c-14.862,28.143-26.995,46.873-58.97,50.678c-25.014,2.976-40.143,10.578-46.251,23.238
	C124.69,468.187,120.146,470.838,115.415,470.838z"/>
<path style="fill:#FCD79D;" d="M133.497,454.788c-6.029-6.891-14.412-11.811-21.118-14.88c-3.37,3.799-6.172,8.02-8.417,12.672
	c-3.054,6.33-0.399,13.937,5.93,16.991c1.783,0.86,3.666,1.268,5.522,1.268c4.731,0,9.276-2.651,11.47-7.198
	C128.472,460.349,130.676,457.403,133.497,454.788z"/>
<path style="opacity:0.2;fill:#A35F00;enable-background:new    ;" d="M232.107,389.723c3.282-6.215,0.904-13.913-5.311-17.195
	c-6.216-3.285-13.913-0.904-17.195,5.31c-13.329,25.241-20.186,34.996-39.471,37.29c-0.624,0.074-1.235,0.157-1.851,0.237
	c5.423,6.871,11.735,13.125,18.861,18.557c1.055,0.804,2.132,1.579,3.216,2.344C210.147,428.581,220.266,412.144,232.107,389.723z"
	/>
<g>
	<path style="fill:#EDA751;" d="M240.961,504.499c-11.245,0-20.361-9.116-20.361-20.361V416.27c0-11.245,9.116-20.361,20.361-20.361
		c11.245,0,20.361,9.116,20.361,20.361v67.869C261.322,495.385,252.207,504.499,240.961,504.499z"/>
	<path style="fill:#EDA751;" d="M338.184,485.655c-9.355,1.616-18.86-3.513-22.427-12.705L291.2,409.68
		c-4.069-10.483,1.131-22.28,11.614-26.349c10.483-4.067,22.28,1.131,26.348,11.614l24.557,63.271
		c4.069,10.483-1.131,22.28-11.614,26.348C340.812,485.066,339.499,485.427,338.184,485.655z"/>
	<path style="fill:#EDA751;" d="M332.255,351.31c-0.835,0-1.658-0.013-2.477-0.039c-11.239-0.364-20.056-9.771-19.691-21.01
		c0.364-11.239,9.796-20.039,21.009-19.691c12.872,0.42,37.079-5.975,60.279-15.906c10.339-4.425,22.306,0.368,26.731,10.707
		c4.425,10.338-0.369,22.305-10.706,26.73C396.67,336.693,360.287,351.31,332.255,351.31z"/>
</g>
<path style="opacity:0.2;fill:#A35F00;enable-background:new    ;" d="M370.342,327.71c-1.591-7.885-4.137-15.505-7.521-22.736
	c-12.804,3.756-24.203,5.842-31.726,5.597c-11.213-0.348-20.645,8.452-21.009,19.691c-0.365,11.239,8.451,20.646,19.691,21.01
	c0.819,0.026,1.642,0.039,2.478,0.039c12.686,0,27.077-2.996,40.031-6.699C372.116,339.011,371.483,333.363,370.342,327.71z"/>
<path style="fill:#EDA751;" d="M117.405,390.932c-0.556,0-1.069-0.002-1.538-0.005c-11.244-0.07-20.304-9.242-20.234-20.487
	c0.069-11.201,9.172-20.234,20.358-20.234c0.044,0,0.086,0,0.129,0c25.242,0.156,50.044-3.346,61.732-8.714
	c10.217-4.694,22.305-0.215,27.001,10.003c4.694,10.219,0.215,22.307-10.004,27.001C170.103,389.863,131.08,390.932,117.405,390.932
	z"/>
<path style="opacity:0.2;fill:#A35F00;enable-background:new    ;" d="M204.852,351.496c-4.696-10.219-16.784-14.698-27.001-10.004
	c-6.845,3.144-18.19,5.646-31.484,7.149c-0.292,7.924,0.35,15.919,1.954,23.867c1.128,5.592,2.75,11.047,4.793,16.33
	c14.247-1.717,29.682-4.806,41.734-10.342C205.067,373.803,209.546,361.714,204.852,351.496z"/>
<path style="fill:#7694E4;" d="M77.846,422.164c-9.648,0-17.578-7.706-17.803-17.403c-0.229-9.836,7.561-17.996,17.397-18.224
	c3.678-0.086,7.103-1.598,9.644-4.259c2.54-2.66,3.892-6.151,3.807-9.828c-0.176-7.592-6.53-13.631-14.088-13.449
	c-9.887,0.238-17.997-7.561-18.224-17.398c-0.229-9.836,7.561-17.996,17.397-18.224c0.388-0.009,0.778-0.013,1.162-0.013
	c26.716,0,48.751,21.411,49.373,48.257c0.306,13.192-4.543,25.715-13.656,35.26c-9.113,9.545-21.397,14.97-34.589,15.276
	C78.126,422.163,77.986,422.164,77.846,422.164z"/>
<g>
	<path style="opacity:0.2;fill:#A35F00;enable-background:new    ;" d="M329.162,394.946c-4.069-10.483-15.865-15.681-26.348-11.614
		c-10.483,4.069-15.683,15.865-11.614,26.349l14.328,36.915c13.123-5.849,24.776-13.912,34.529-23.578L329.162,394.946z"/>
	<path style="opacity:0.2;fill:#A35F00;enable-background:new    ;" d="M256.573,456.999c1.581,0,3.165-0.041,4.75-0.104v-40.624
		c0-11.245-9.116-20.361-20.361-20.361c-11.245,0-20.361,9.116-20.361,20.361v35.047
		C232.102,455.037,244.264,456.999,256.573,456.999z"/>
</g>
<ellipse transform="matrix(-0.1978 -0.9802 0.9802 -0.1978 -32.5507 673.533)" style="fill:#FCD690;" cx="259.322" cy="350.086" rx="87.265" ry="93.905"/>
<path style="opacity:0.15;fill:#C17A00;enable-background:new    ;" d="M262.966,437.45c-47.639-19.13-46.023-78.366-43.877-104.562
	l-11.029-54.658c-30.708,19.595-47.967,54.843-40.782,90.453C175.954,411.683,217.278,440.376,262.966,437.45z"/>
<path style="fill:#EDA751;" d="M173.382,213.089c14.963-18.749,21.87-46.549-11.106-78.931
	C129.039,101.52,89.001,99.737,59.943,109.25c-7.164,2.345-12.279,8.754-12.977,16.26c-2.83,30.444,7.79,69.09,46.986,94.259
	C132.843,244.739,158.419,231.838,173.382,213.089z"/>
<path style="fill:#FF91AB;" d="M46.654,130.143c-1.374,29.649,10.063,65.715,47.298,89.625c33.709,21.645,57.407,14.83,72.87,0.422
	C138.055,140.231,80.617,129.078,46.654,130.143z"/>
<path style="fill:#EDA751;" d="M285.423,190.481c-21.063-11.48-38.21-34.427-20.371-77.062
	c17.98-42.972,54.194-60.141,84.667-62.641c7.513-0.616,14.713,3.308,18.267,9.956c14.414,26.965,19.611,66.704-6.76,105.104
	C335.064,203.935,306.487,201.961,285.423,190.481z"/>
<path style="fill:#FF91AB;" d="M370.071,64.884c12.764,26.797,16.207,64.475-8.844,100.953
	c-22.678,33.023-47.165,35.931-67.004,28.646C289.734,109.625,338.354,77.072,370.071,64.884z"/>
<path style="fill:#FFDC9C;" d="M390.728,192.974c14.459,71.657-49.374,117.201-135.929,134.666
	c-86.555,17.465-163.055,0.238-177.514-71.419c-14.46-71.658,43.986-143.906,130.54-161.371S376.268,121.317,390.728,192.974z"/>
<path style="opacity:0.15;fill:#C17A00;enable-background:new    ;" d="M128.186,131.768c-39.253,31.85-60.22,78.272-50.901,124.454
	c12.43,61.599,70.705,82.975,141.803,76.668C107.235,293.405,104.07,210.575,128.186,131.768z"/>
<path style="fill:#82C7E6;" d="M253.279,233.889l-33.435,6.746c-9.222,1.861-18.206-4.107-20.067-13.329l0,0
	c-1.861-9.222,4.107-18.206,13.329-20.067l33.435-6.746c9.222-1.861,18.206,4.107,20.067,13.329l0,0
	C268.468,223.044,262.501,232.028,253.279,233.889z"/>
<g style="opacity:0.1;">
	
		<rect x="227.313" y="210.808" transform="matrix(-0.1978 -0.9802 0.9802 -0.1978 78.6876 501.01)" width="34.068" height="14.998"/>
	
		<rect x="205.036" y="215.297" transform="matrix(-0.1978 -0.9802 0.9802 -0.1978 47.6035 484.5484)" width="34.068" height="14.998"/>
</g>
<g>
	<circle style="fill:#7694E4;" cx="292.214" cy="186.287" r="18.468"/>
	<circle style="fill:#7694E4;" cx="165.496" cy="211.857" r="18.468"/>
	<path style="fill:#7694E4;" d="M436.131,349.746c-19.715,0-38.38-11.882-46.027-31.308c-4.835-12.279-4.597-25.705,0.667-37.806
		c5.265-12.101,14.927-21.427,27.206-26.26c9.16-3.603,19.5,0.897,23.104,10.052c3.604,9.155-0.897,19.499-10.052,23.103
		c-3.423,1.348-6.116,3.947-7.584,7.321c-1.468,3.373-1.534,7.116-0.187,10.538c2.783,7.066,10.791,10.554,17.86,7.771
		c9.153-3.605,19.498,0.895,23.103,10.051c3.605,9.156-0.896,19.499-10.051,23.104C448.248,348.641,442.14,349.746,436.131,349.746z
		"/>
</g>
<path d="M315.5,235.866c7.304,0.442,24.165,5.009,30.082,7.77c1.025,0.479,2.105,0.706,3.167,0.706c2.823,0,5.528-1.603,6.801-4.33
	c1.752-3.753,0.13-8.217-3.624-9.968c-7.525-3.513-26.103-8.582-35.52-9.151c-4.139-0.252-7.689,2.899-7.939,7.034
	C308.216,232.061,311.366,235.616,315.5,235.866z M317.446,213.572c0.808,0,1.629-0.131,2.434-0.408
	c6.923-2.375,24.253-4.575,30.773-4.278c4.115,0.182,7.645-3.01,7.836-7.148c0.19-4.138-3.011-7.646-7.148-7.837
	c-8.307-0.379-27.401,2.012-36.327,5.074c-3.918,1.344-6.005,5.61-4.66,9.528C311.42,211.616,314.331,213.572,317.446,213.572z
	 M127.425,275.343c-2.78,3.07-2.545,7.814,0.525,10.594c1.437,1.299,3.236,1.94,5.032,1.94c2.044,0,4.081-0.831,5.561-2.466
	c4.381-4.839,18.151-15.586,24.714-18.826c3.714-1.834,5.238-6.331,3.404-10.045c-1.834-3.714-6.329-5.238-10.045-3.405
	C148.155,257.312,132.998,269.188,127.425,275.343z M149.403,232.393c-9.414,0.638-27.953,5.842-35.453,9.41
	c-3.74,1.779-5.33,6.254-3.551,9.994c1.284,2.701,3.974,4.28,6.777,4.28c1.08,0,2.177-0.234,3.217-0.729
	c5.896-2.805,22.723-7.495,30.023-7.989c4.133-0.28,7.256-3.858,6.976-7.99C157.112,235.235,153.504,232.114,149.403,232.393z
	 M471.198,320.459c-2.478-6.292-7.257-11.243-13.457-13.94c-6.2-2.698-13.081-2.819-19.373-0.341
	c-3.219,1.266-6.865-0.321-8.132-3.538c-0.623-1.582-0.594-3.241,0.086-4.801c0.678-1.558,1.871-2.71,3.452-3.333
	c12.989-5.113,19.397-19.84,14.284-32.83c-5.113-12.984-19.84-19.391-32.829-14.283c-14.143,5.567-25.272,16.31-31.336,30.247
	c-1.919,4.411-3.254,8.974-4.012,13.6c-11.42,4.412-22.832,7.894-32.482,9.917c-0.14-0.229-0.28-0.459-0.422-0.687
	c6.844-4.461,13.092-9.223,18.688-14.272c28.517-25.725,39.725-58.473,32.413-94.707c-3.196-15.839-9.496-30.609-18.528-43.864
	c11.915-29.404,10.184-62.115-4.951-90.428c-4.973-9.303-14.967-14.753-25.494-13.896c-30.72,2.52-58.385,17.77-76.648,42.056
	c-19.036-2.69-38.868-2.46-58.737,0.798l-3.952-19.587c6.017-2.648,11.168-6.952,14.893-12.56c5.138-7.735,6.955-17.008,5.118-26.11
	l0,0c-1.836-9.103-7.107-16.946-14.843-22.083c-7.736-5.138-17.011-6.957-26.111-5.119c-18.791,3.791-30.993,22.164-27.201,40.954
	c3.282,16.267,17.492,27.589,33.44,27.879l3.954,19.592c-19.578,4.702-37.949,12.181-54.452,22.042
	C118.316,95.86,86.9,92.533,57.61,102.121c-10.026,3.282-17.136,12.19-18.111,22.694c-2.973,31.966,8.116,62.788,30.503,85.272
	c-3.185,15.722-3.264,31.779-0.068,47.617c2.562,12.698,7.065,24.222,13.386,34.252c2.21,3.505,6.841,4.556,10.344,2.347
	c3.505-2.208,4.556-6.839,2.348-10.344c-5.347-8.484-9.173-18.315-11.374-29.222c-2.998-14.856-2.684-29.973,0.759-44.753
	c0.136-0.418,0.238-0.844,0.298-1.275c4.181-17.035,12.533-33.601,24.813-48.779c10.42-12.882,23.099-24.072,37.471-33.253
	c0.428-0.214,0.835-0.47,1.219-0.766c17.833-11.178,38.214-19.29,60.106-23.708c0.003,0,0.005-0.001,0.008-0.001
	c0.003-0.001,0.005-0.001,0.008-0.002c82.36-16.611,160.441,24.771,174.06,92.257c6.294,31.192-3.045,58.31-27.758,80.603
	c-6.661,6.009-14.373,11.587-23.028,16.701c-0.063,0.037-0.127,0.072-0.189,0.111c-21.158,12.463-47.967,22.137-79.087,28.417
	c-57.77,11.657-106.002,6.684-135.8-14.006c-3.401-2.364-8.076-1.518-10.438,1.883c-2.363,3.403-1.52,8.076,1.883,10.438
	c13.732,9.535,30.744,16.112,50.343,19.673c-0.046,0.286-0.089,0.572-0.132,0.858c-9.693,1.88-21.572,3.097-33.814,3.458
	c-2.383-3.792-5.228-7.329-8.511-10.533c-10.703-10.442-24.806-16.193-39.71-16.193c-0.441,0-0.888,0.005-1.336,0.015
	c-6.76,0.157-13.055,2.937-17.724,7.828c-4.67,4.892-7.154,11.309-6.997,18.067c0.156,6.764,2.928,13.058,7.803,17.723
	c4.888,4.677,11.293,7.152,18.1,6.999c1.673-0.041,3.237,0.578,4.456,1.74c1.221,1.163,1.915,2.721,1.953,4.384
	c0.039,1.699-0.561,3.248-1.732,4.475c-1.175,1.23-2.694,1.901-4.394,1.941c-6.761,0.157-13.055,2.937-17.725,7.828
	c-4.669,4.892-7.154,11.308-6.997,18.068c0.315,13.635,11.666,24.729,25.301,24.729c0.201,0,0.4-0.002,0.596-0.007
	c15.193-0.352,29.343-6.6,39.84-17.595c3.974-4.163,7.241-8.818,9.751-13.82c11.305-0.381,25.959-1.455,40.424-4.16
	c2.26,4.281,4.86,8.345,7.752,12.18c-2.064,0.636-4.348,1.107-6.962,1.418c-37.083,4.412-60.645,18.032-72.036,41.639
	c-4.846,10.044-0.617,22.158,9.425,27.004c2.768,1.336,5.723,2.013,8.782,2.013c7.718,0,14.871-4.49,18.225-11.439
	c4.907-10.17,18.117-16.401,40.384-19.051c14.267-1.698,25.642-6.171,35.358-13.965c1.226,0.625,2.466,1.226,3.721,1.802v48.453
	c0,15.362,12.498,27.861,27.86,27.861s27.86-12.498,27.86-27.861v-39.689c3.074-0.35,6.161-0.826,9.254-1.45
	c5.614-1.133,11.029-2.688,16.223-4.61l14.467,37.272c4.201,10.828,14.683,17.786,25.991,17.786c1.558,0,3.131-0.132,4.705-0.404
	c1.82-0.315,3.622-0.815,5.358-1.489c10.817-4.198,17.964-14.813,17.781-26.412c-0.065-4.102-3.409-7.382-7.497-7.382
	c-0.039,0-0.08,0-0.12,0.001c-4.142,0.065-7.446,3.475-7.381,7.617c0.084,5.354-3.216,10.254-8.209,12.192
	c-0.809,0.314-1.646,0.546-2.487,0.692c-5.995,1.038-11.951-2.34-14.157-8.028l-14.764-38.038
	c7.944-4.296,15.182-9.526,21.575-15.497l7.523,19.382c1.153,2.97,3.989,4.788,6.994,4.788c0.902,0,1.82-0.164,2.712-0.51
	c3.861-1.498,5.776-5.844,4.278-9.705l-10.235-26.371c10.906-14.229,17.765-31.109,19.323-48.883
	c14.363-3.112,28.27-7.796,38.837-11.827c10.081,8.664,23.121,13.67,37.141,13.67c7.124,0,14.117-1.331,20.784-3.957
	c6.292-2.477,11.243-7.255,13.941-13.456C473.553,333.632,473.675,326.752,471.198,320.459z M98.844,150.497
	c-10.793,13.341-18.868,27.681-24.112,42.52c-16.169-19.558-20.144-40.914-20.618-55.386c13.079,0.363,29.649,2.923,46.14,11.164
	C99.784,149.361,99.308,149.924,98.844,150.497z M110.731,137.349c-19.714-10.791-39.696-14.165-55.372-14.693
	c1.288-2.931,3.767-5.248,6.917-6.28c11.254-3.683,38.746-9.883,68.081,4.205C123.362,125.711,116.801,131.313,110.731,137.349z
	 M199.613,54.15c-10.679,2.154-21.128-4.781-23.284-15.465c-2.155-10.683,4.782-21.128,15.465-23.284
	c1.316-0.266,2.638-0.397,3.95-0.397c3.85,0,7.615,1.129,10.896,3.307c4.397,2.921,7.395,7.379,8.438,12.554l0,0
	c1.044,5.175,0.011,10.447-2.91,14.845C209.247,50.109,204.788,53.106,199.613,54.15z M313.803,96.374
	c-7.936-3.21-16.156-5.83-24.592-7.845c21.579-24.363,49.324-29.309,61.123-30.276c3.299-0.271,6.486,0.904,8.811,3.107
	C344.902,67.926,327.789,78.784,313.803,96.374z M368.571,133.726c-10.587-11.645-23.592-21.731-38.714-29.844
	c-0.649-0.348-1.307-0.683-1.961-1.022c12.005-13.992,26.282-22.778,38.201-28.184C371.272,88.2,375.89,109.428,368.571,133.726z
	 M107.431,401.705c-7.729,8.096-18.149,12.697-29.345,12.956l-0.241,0.003c-5.554,0-10.176-4.52-10.305-10.077
	c-0.064-2.754,0.948-5.369,2.851-7.362c1.903-1.993,4.468-3.126,7.223-3.19c5.68-0.132,10.969-2.468,14.894-6.578
	c3.923-4.109,6.011-9.5,5.88-15.181c-0.132-5.673-2.475-10.963-6.599-14.895c-3.993-3.806-9.176-5.884-14.646-5.884
	c-0.173,0-0.348,0.002-0.521,0.006c-2.754,0.075-5.384-0.942-7.368-2.841c-1.984-1.899-3.113-4.467-3.177-7.233
	c-0.064-2.754,0.948-5.369,2.851-7.362c1.902-1.993,4.468-3.125,7.218-3.19c0.331-0.007,0.664-0.011,0.992-0.011
	c22.567,0,41.354,18.362,41.876,40.932C119.272,382.989,115.159,393.609,107.431,401.705z M133.107,383.005
	c0.681-3.77,0.992-7.636,0.901-11.554c-0.112-4.835-0.835-9.566-2.113-14.114c9.318-0.487,18.323-1.44,26.283-2.783
	c0.122,5.212,0.699,10.424,1.747,15.613c0.672,3.33,1.545,6.571,2.567,9.737C151.957,381.678,141.46,382.568,133.107,383.005z
	 M172.252,432.953c-27.762,3.303-44.81,12.274-52.121,27.427c-0.88,1.824-2.687,2.958-4.715,2.958c-0.783,0-1.544-0.176-2.262-0.523
	c-2.595-1.252-3.688-4.382-2.435-6.977c8.986-18.624,28.71-29.504,60.298-33.263c6.127-0.729,11.283-2.189,15.84-4.469
	c2.739,2.568,5.633,4.977,8.667,7.217C188.988,429.39,181.403,431.864,172.252,432.953z M253.822,484.14
	c0,7.091-5.77,12.861-12.86,12.861c-7.09,0-12.86-5.769-12.86-12.861v-42.932c8.232,2.321,16.867,3.651,25.721,3.887v39.045H253.822
	z M275.109,428.296c-6.215,1.254-12.394,1.856-18.469,1.855c-39.582-0.003-74.469-25.575-82.012-62.951
	c-1.415-7.015-1.809-14.081-1.193-21.118c0.01-0.098,0.023-0.195,0.029-0.294c0.167-1.821,0.397-3.64,0.7-5.455
	c7.075,0.705,14.413,1.081,22.021,1.081c18.642-0.001,38.809-2.127,60.097-6.422c29.901-6.033,56.18-15.147,77.775-26.85
	c1.041,1.651,2.033,3.325,2.935,5.041c0.024,0.043,0.047,0.086,0.072,0.128c3.236,6.183,5.573,12.775,6.971,19.707
	C352.735,376.131,321.814,418.872,275.109,428.296z M360.167,340.016c-0.286-3.313-0.757-6.638-1.429-9.966
	c-1.047-5.189-2.535-10.216-4.443-15.067c7.852-1.848,16.517-4.46,25.292-7.624c0.59,4.681,1.765,9.32,3.539,13.825
	c1.441,3.662,3.23,7.102,5.309,10.301C380.568,334.32,370.556,337.568,360.167,340.016z M457.101,333.848
	c-1.1,2.526-3.117,4.474-5.682,5.483c-4.91,1.934-10.055,2.914-15.289,2.914c-17.104,0-32.797-10.672-39.049-26.556
	c-4.101-10.415-3.9-21.803,0.565-32.066c4.466-10.264,12.661-18.174,23.074-22.273c1.237-0.486,2.512-0.717,3.767-0.717
	c4.118,0,8.017,2.48,9.613,6.535c2.083,5.293-0.528,11.295-5.822,13.378c-5.287,2.082-9.447,6.098-11.711,11.305
	c-2.269,5.209-2.372,10.99-0.29,16.281c4.299,10.914,16.67,16.298,27.586,12c2.564-1.01,5.367-0.96,7.893,0.139
	c2.526,1.099,4.475,3.117,5.484,5.681C458.249,328.518,458.201,331.321,457.101,333.848z"/>
<g>
</g>
<g>
</g>
<g>
</g>
<g>
</g>
<g>
</g>
<g>
</g>
<g>
</g>
<g>
</g>
<g>
</g>
<g>
</g>
<g>
</g>
<g>
</g>
<g>
</g>
<g>
</g>
<g>
</g>
</svg>
