<?xml version="1.0" encoding="iso-8859-1"?>
<!-- Generator: Adobe Illustrator 19.0.0, SVG Export Plug-In . SVG Version: 6.00 Build 0)  -->
<svg version="1.1" id="Capa_1" xmlns="http://www.w3.org/2000/svg" xmlns:xlink="http://www.w3.org/1999/xlink" x="0px" y="0px"
	 viewBox="0 0 512 512" style="enable-background:new 0 0 512 512;" xml:space="preserve">
<path style="fill:#EDA751;" d="M126.664,453.535c-5.07,0.001-10.063-0.799-14.873-2.413c-21.649-7.267-34.502-29.401-29.898-51.486
	c1.417-6.798,8.075-11.162,14.874-9.743c6.798,1.417,11.16,8.076,9.743,14.874c-2.005,9.621,3.705,19.3,13.284,22.516
	c21.927,7.359,44.198-20.636,56.61-46.848c2.972-6.275,10.468-8.955,16.744-5.982c6.276,2.971,8.954,10.468,5.982,16.744
	c-11.777,24.873-25.91,42.663-42.004,52.876C147.257,450.336,136.809,453.535,126.664,453.535z"/>
<path style="fill:#FCD79D;" d="M106.905,414.02c-0.867-2.939-1.054-6.096-0.396-9.253c1.417-6.798-2.945-13.457-9.743-14.874
	c-6.799-1.42-13.456,2.945-14.874,9.743c-0.999,4.791-1.173,9.583-0.618,14.227C86.926,415.452,97.546,416.589,106.905,414.02z"/>
<path style="opacity:0.2;fill:#C18F00;enable-background:new    ;" d="M193.146,374.453c-6.276-2.972-13.772-0.293-16.744,5.982
	c-10.243,21.632-27.202,44.458-45.14,47.645c0.135,8.067,0.376,16.456,0.727,25.158c8.443-0.917,16.986-3.993,25.135-9.164
	c16.094-10.213,30.227-28.003,42.004-52.876C202.101,384.921,199.422,377.424,193.146,374.453z"/>
<g>
	<path style="fill:#EDA751;" d="M200.808,504.497c-0.83,0-1.668-0.051-2.512-0.156c-11.025-1.374-18.849-11.425-17.475-22.449
		c2.591-20.797,0.634-37.261-1.258-53.184c-0.37-3.112-0.735-6.182-1.063-9.233c-1.189-11.046,6.803-20.964,17.85-22.153
		c11.046-1.194,20.964,6.804,22.153,17.85c0.312,2.904,0.66,5.826,1.013,8.788c2.075,17.46,4.427,37.25,1.23,62.906
		C219.477,497.046,210.809,504.497,200.808,504.497z"/>
	<path style="fill:#EDA751;" d="M266.505,504.497c-0.83,0-1.668-0.051-2.513-0.156c-11.025-1.374-18.849-11.424-17.475-22.449
		c2.59-20.795,0.635-37.26-1.258-53.181c-0.369-3.114-0.734-6.185-1.063-9.237c-1.188-11.047,6.804-20.964,17.851-22.152
		c11.047-1.188,20.964,6.804,22.153,17.85c0.312,2.905,0.66,5.828,1.012,8.792c2.075,17.459,4.427,37.248,1.231,62.902
		C285.173,497.046,276.505,504.497,266.505,504.497z"/>
</g>
<path style="fill:#7694E4;" d="M130.744,373.262c-20.882,0-47.039-4.647-66.185-23.793c-7.856-7.856-7.856-20.593,0-28.449
	c7.856-7.856,20.593-7.856,28.449,0c6.68,6.68,28.104,17.242,61.373,9.402c10.813-2.544,21.646,4.152,24.195,14.966
	c2.549,10.814-4.152,21.646-14.966,24.195C159.045,370.659,146.372,373.262,130.744,373.262z"/>
<path style="fill:#EDA751;" d="M344.419,379.006c-18.81,0-37.033-4.541-49.636-11.241c-9.81-5.215-13.535-17.396-8.319-27.206
	c5.215-9.81,17.393-13.536,27.206-8.32c15.386,8.181,48.068,10.46,61.681-3.156c7.856-7.856,20.594-7.856,28.45,0
	c7.855,7.856,7.855,20.593,0,28.449C388.291,373.043,365.97,379.006,344.419,379.006z"/>
<path style="fill:#7694E4;" d="M344.419,379.006c-18.81,0-37.033-4.541-49.636-11.241c-9.81-5.215-13.535-17.396-8.319-27.206
	c5.215-9.81,17.393-13.536,27.206-8.32c15.386,8.181,48.068,10.46,61.681-3.156c7.856-7.856,20.594-7.856,28.45,0
	c7.855,7.856,7.855,20.593,0,28.449C388.291,373.043,365.97,379.006,344.419,379.006z"/>
<path style="fill:#EDA751;" d="M375.352,329.083c-2.9,2.9-6.67,5.073-10.949,6.628c0.349,9.937,4.538,27.001,17.313,36.344
	c8.159-3.399,15.704-8.141,22.086-14.522c7.855-7.856,7.855-20.593,0-28.449C395.946,321.227,383.208,321.227,375.352,329.083z"/>
<g>
	<path style="opacity:0.2;fill:#A35F00;enable-background:new    ;" d="M287.823,452.919c-0.431-10.565-1.555-20.066-2.612-28.957
		c-0.352-2.964-0.699-5.887-1.012-8.792c-1.189-11.047-11.106-19.038-22.153-17.85c-11.047,1.188-19.038,11.106-17.851,22.152
		c0.329,3.052,0.693,6.123,1.063,9.237c1.383,11.636,2.792,23.57,2.444,37.265C262.128,464.028,275.685,459.51,287.823,452.919z"/>
	<path style="opacity:0.2;fill:#A35F00;enable-background:new    ;" d="M218.502,415.171c-1.189-11.046-11.107-19.043-22.153-17.85
		c-11.046,1.188-19.038,11.106-17.85,22.153c0.328,3.051,0.693,6.121,1.063,9.233c1.045,8.79,2.105,17.75,2.413,27.508
		c12.332,5.709,25.922,9.36,40.265,10.476c0.399-16.333-1.23-30.145-2.725-42.732C219.162,420.997,218.815,418.075,218.502,415.171z
		"/>
</g>
<ellipse style="fill:#FCD690;" cx="231.612" cy="360.727" rx="92.78" ry="86.22"/>
<path style="opacity:0.15;fill:#C17A00;enable-background:new    ;" d="M218.062,446.026c-42.4-27.837-29.259-84.892-22.062-109.843
	v-55.092c-33.569,12.977-57.174,43.742-57.174,79.635C138.826,404.065,173.242,439.931,218.062,446.026z"/>
<path style="opacity:0.1;enable-background:new    ;" d="M338.584,338.62c-9.535-0.702-18.655-3.053-24.914-6.38
	c-9.813-5.217-21.991-1.49-27.206,8.32c-5.216,9.81-1.491,21.99,8.319,27.206c11.916,6.335,28.859,10.734,46.57,11.195
	C340.947,363.678,340.021,350.227,338.584,338.62z"/>
<path style="fill:#7694E4;" d="M264.05,450.962c12.586-0.008,37.707-0.794,56.717-6.311c2.784-0.808,4.738-3.295,4.856-6.191
	c2.436-60.132-0.236-105.799-8.452-128.009h-61.02v132.603C256.151,447.421,259.683,450.965,264.05,450.962z"/>
<path style="fill:#82C7E6;" d="M272.826,422.383c0,1.393,0.695,2.705,1.872,3.449c2.504,1.582,7.5,3.965,14.88,3.965
	s12.376-2.383,14.88-3.965c1.178-0.744,1.872-2.056,1.872-3.449v-28.84c0-1.43-1.159-2.59-2.589-2.59h-28.326
	c-1.43,0-2.59,1.159-2.59,2.59L272.826,422.383L272.826,422.383z"/>
<path style="opacity:0.1;enable-background:new    ;" d="M154.381,330.422c-10.991,2.59-20.68,3.164-28.981,2.54
	c-1.663,11.363-2.777,24.716-3.339,40.02c2.969,0.192,5.875,0.28,8.683,0.28c15.627,0,28.3-2.603,32.866-3.679
	c10.814-2.549,17.514-13.381,14.966-24.195S165.194,327.878,154.381,330.422z"/>
<path style="fill:#7694E4;" d="M199.173,450.962c-12.586-0.008-37.707-0.794-56.717-6.311c-2.784-0.808-4.738-3.295-4.856-6.191
	c-2.436-60.132,0.236-105.799,8.452-128.009h61.02v132.603C207.072,447.421,203.54,450.965,199.173,450.962z"/>
<path style="fill:#DEE2E5;" d="M237.874,152.197c16.586-8.233,44.456-9.919,62.751-10.786c4.867-0.231,9.062-3.426,10.655-8.03
	c6.497-18.782,24.099-51.89,32.59-66.958c1.737-3.082-0.99-6.766-4.443-5.999c-10.906,2.423-28.455,7.02-39.156,12.017
	c-2.487,1.162-5.195-1.115-4.459-3.76c2.944-10.583,9.128-26.759,13.65-36.665c1.577-3.455-1.505-7.23-5.198-6.343
	c-17.942,4.308-31.976,16.146-43.496,27.76c-2.219,2.237-5.998,1.471-7.208-1.439c-6.857-16.489-14.213-32.935-18.429-42.228
	c-1.373-3.026-5.667-3.026-7.04,0c-4.216,9.293-11.572,25.739-18.429,42.228c-1.21,2.909-4.989,3.676-7.208,1.439
	c-11.52-11.614-25.555-23.452-43.496-27.76c-3.693-0.887-6.775,2.888-5.198,6.343c4.522,9.907,10.706,26.083,13.65,36.665
	c0.736,2.645-1.971,4.922-4.459,3.76c-10.701-4.997-28.25-9.594-39.156-12.017c-3.454-0.767-6.18,2.917-4.443,5.999
	c8.491,15.068,26.094,48.176,32.59,66.958c1.593,4.605,5.788,7.799,10.655,8.03c18.295,0.867,46.164,2.553,62.751,10.786
	C229.286,154.151,233.938,154.151,237.874,152.197z"/>
<path style="fill:#EDA751;" d="M175.146,211.224c18.156-15.235,30.278-40.809,4.669-78.615
	c-25.811-38.105-64.24-47.656-94.242-44.122c-7.397,0.871-13.603,6.079-15.745,13.212c-8.691,28.932-5.957,68.436,27.087,100.472
	C129.699,233.955,156.99,226.458,175.146,211.224z"/>
<path style="fill:#FF91AB;" d="M68.62,106.125c-7.125,28.447-3.096,65.612,28.294,96.045c28.417,27.55,52.701,25.582,70.492,14.649
	C155.171,133.757,101.721,111.731,68.62,106.125z"/>
<path style="fill:#EDA751;" d="M288.077,211.224c-18.156-15.235-30.278-40.809-4.669-78.615
	c25.811-38.105,64.241-47.656,94.242-44.122c7.397,0.871,13.603,6.079,15.745,13.212c8.691,28.932,5.957,68.436-27.087,100.472
	C333.524,233.955,306.233,226.458,288.077,211.224z"/>
<path style="fill:#FF91AB;" d="M394.603,106.125c7.125,28.447,3.096,65.612-28.294,96.045
	c-28.417,27.55-52.701,25.582-70.492,14.649C308.053,133.757,361.503,111.731,394.603,106.125z"/>
<path style="fill:#FFDC9C;" d="M389.577,234.218c0,72.226-70.724,103.86-157.965,103.86c-87.242,0-157.965-31.634-157.965-103.86
	s70.723-130.777,157.965-130.777C318.853,103.441,389.577,161.992,389.577,234.218z"/>
<path style="opacity:0.15;fill:#C17A00;enable-background:new    ;" d="M147.266,123.632c-44.24,23.176-73.62,64.038-73.62,110.586
	c0,62.088,52.263,94.179,122.354,101.965C95.386,276.083,108.508,195.244,147.266,123.632z"/>
<g>
	<ellipse style="fill:#FF91AB;" cx="154.092" cy="237.267" rx="28.601" ry="22.777"/>
	<ellipse style="fill:#FF91AB;" cx="309.122" cy="237.267" rx="28.601" ry="22.777"/>
</g>
<g>
	<circle style="fill:#FFFFFF;" cx="170.762" cy="209.497" r="30.52"/>
	<circle style="fill:#FFFFFF;" cx="292.452" cy="209.497" r="30.52"/>
</g>
<path style="fill:#82C7E6;" d="M431.837,364.711l18.967,18.506c4.856,4.738,2.312,12.984-4.37,14.162l-59.275,10.452
	c-6.682,1.178-11.893-5.7-8.95-11.814l11.493-23.877c2.773-5.761,3.668-12.247,2.557-18.543l-5.418-30.729
	c-0.505-2.865,1.408-5.597,4.272-6.102l20.457-3.607c2.865-0.505,5.597,1.408,6.102,4.272l5.418,30.729
	C424.202,354.457,427.261,360.246,431.837,364.711z"/>
<path style="fill:#F5D141;" d="M450.804,383.217l-18.967-18.506c-0.575-0.561-1.126-1.144-1.653-1.745
	c-11.589,2.207-26.111,8.2-40.431,9.059c-0.018,0.038-0.032,0.078-0.05,0.116l-11.494,23.877c-2.943,6.113,2.268,12.992,8.95,11.814
	l59.275-10.452C453.116,396.201,455.66,387.955,450.804,383.217z"/>
<path style="fill:#82C7E6;" d="M190.397,422.383c0,1.393-0.695,2.705-1.872,3.449c-2.504,1.582-7.5,3.965-14.88,3.965
	s-12.376-2.383-14.88-3.965c-1.177-0.744-1.872-2.056-1.872-3.449v-28.84c0-1.43,1.159-2.59,2.59-2.59h28.325
	c1.43,0,2.59,1.159,2.59,2.59L190.397,422.383L190.397,422.383z"/>
<path style="fill:#EDA751;" d="M93.009,321.02c-7.856-7.856-20.593-7.856-28.449,0s-7.856,20.593,0,28.449
	c4.772,4.772,9.979,8.642,15.432,11.765c16.3-10.319,20.754-24.709,21.86-34.267C97.824,325.001,94.852,322.863,93.009,321.02z"/>
<path d="M231.611,229.798c8.316,0,16.224-3.602,21.696-9.88c2.721-3.123,2.396-7.86-0.727-10.582
	c-3.123-2.721-7.861-2.396-10.582,0.726c-2.622,3.01-6.409,4.736-10.388,4.736s-7.765-1.726-10.387-4.736
	c-2.721-3.122-7.459-3.447-10.582-0.726c-3.123,2.722-3.448,7.459-0.727,10.582C215.388,226.197,223.296,229.798,231.611,229.798z
	 M187.807,383.454h-28.326c-5.563,0-10.089,4.526-10.089,10.09v28.839c0,4.006,2.005,7.666,5.367,9.79
	c3.701,2.338,9.981,5.124,18.886,5.124c8.904,0,15.185-2.786,18.886-5.125c3.36-2.123,5.366-5.783,5.366-9.79v-28.839
	C197.897,387.98,193.371,383.454,187.807,383.454z M182.897,420.377c-1.98,0.935-5.062,1.92-9.252,1.92
	c-4.191,0-7.273-0.985-9.252-1.92v-21.923h18.504V420.377z M302.989,251.97c-1.063,4.004,1.321,8.11,5.324,9.173
	c6.98,1.852,22.4,9.562,27.585,13.389c1.341,0.989,2.901,1.466,4.448,1.466c2.3,0,4.57-1.054,6.04-3.047
	c2.46-3.332,1.752-8.028-1.58-10.488c-6.608-4.877-23.626-13.424-32.644-15.818C308.155,245.583,304.051,247.967,302.989,251.97z
	 M178.266,214.542v-10.1c0-4.142-3.358-7.5-7.5-7.5s-7.5,3.358-7.5,7.5v10.1c0,4.142,3.358,7.5,7.5,7.5
	S178.266,218.685,178.266,214.542z M317.028,240.015c7.16-0.946,24.354,0.306,30.605,1.869c0.61,0.152,1.222,0.226,1.824,0.226
	c3.36-0.001,6.418-2.275,7.27-5.683c1.004-4.019-1.439-8.09-5.458-9.095c-7.967-1.992-26.956-3.411-36.207-2.188
	c-4.107,0.543-6.995,4.312-6.453,8.418C309.153,237.669,312.932,240.555,317.028,240.015z M299.958,214.542v-10.1
	c0-4.142-3.357-7.5-7.5-7.5s-7.5,3.358-7.5,7.5v10.1c0,4.142,3.357,7.5,7.5,7.5S299.958,218.685,299.958,214.542z M303.742,383.454
	h-28.326c-5.564,0-10.089,4.526-10.089,10.09v28.839c0,4.007,2.006,7.666,5.367,9.79c3.7,2.338,9.98,5.124,18.885,5.124
	c8.906,0,15.186-2.787,18.886-5.125c3.36-2.123,5.366-5.783,5.366-9.79v-28.839C313.831,387.98,309.305,383.454,303.742,383.454z
	 M298.831,420.377c-1.979,0.935-5.061,1.92-9.252,1.92c-4.19,0-7.272-0.985-9.252-1.92v-21.923h18.504L298.831,420.377
	L298.831,420.377z M151.061,246.645c-9.021,2.395-26.037,10.941-32.644,15.818c-3.333,2.46-4.04,7.156-1.58,10.488
	c1.471,1.992,3.74,3.046,6.04,3.046c1.547,0,3.108-0.477,4.448-1.466c5.184-3.826,20.603-11.536,27.584-13.389
	c4.003-1.063,6.387-5.17,5.325-9.173C159.171,247.967,155.065,245.583,151.061,246.645z M456.042,377.849l-18.968-18.506
	c-3.473-3.39-5.754-7.706-6.596-12.484l-5.419-30.728c-0.592-3.358-2.456-6.286-5.25-8.242c-2.795-1.957-6.183-2.706-9.54-2.115
	l-20.457,3.607c-3.358,0.593-6.285,2.457-8.241,5.25c-0.607,0.867-1.083,1.796-1.454,2.758c-3.762,1.359-7.183,3.507-10.069,6.393
	c-6.285,6.286-22.648,9.911-40.411,6.049c-0.071-0.431-0.146-0.849-0.218-1.273c6.302-2.659,12.219-5.616,17.713-8.871
	c32.674-19.358,49.944-48.913,49.944-85.467c0-15.961-3.211-31.493-9.36-46.094c17.279-26.164,21.99-58.193,12.862-88.583
	c-3.009-10.016-11.664-17.279-22.051-18.503c-11.883-1.402-23.695-0.807-35.019,1.639c2.386-4.448,4.745-8.755,6.896-12.573
	c2.243-3.981,1.934-8.925-0.788-12.595c-2.719-3.666-7.353-5.399-11.816-4.406c-4.973,1.105-19.644,4.527-32.1,9.039
	c3.151-9.339,7.403-20.043,10.585-27.011c1.933-4.236,1.294-9.1-1.667-12.695c-2.953-3.584-7.588-5.139-12.104-4.055
	c-18.483,4.438-32.914,16-43.789,26.526c-6.495-15.428-13.182-30.344-16.764-38.239C240.094,2.556,236.129,0,231.612,0h-0.001
	c-4.517,0-8.482,2.556-10.35,6.67c-3.581,7.895-10.269,22.81-16.763,38.239c-10.875-10.527-25.306-22.088-43.789-26.526
	c-4.514-1.085-9.152,0.471-12.105,4.055c-2.961,3.594-3.6,8.459-1.667,12.694c3.181,6.97,7.434,17.674,10.584,27.011
	c-12.455-4.511-27.126-7.934-32.1-9.039c-4.457-0.989-9.097,0.74-11.817,4.408c-2.722,3.67-3.03,8.614-0.787,12.595
	c2.153,3.822,4.512,8.129,6.896,12.573c-11.323-2.445-23.134-3.039-35.019-1.64c-10.387,1.224-19.042,8.486-22.051,18.503
	c-9.128,30.389-4.417,62.418,12.862,88.583c-6.15,14.602-9.36,30.134-9.36,46.095c0,17.476,3.91,33.407,11.621,47.35
	c2.004,3.625,6.569,4.939,10.192,2.934c3.625-2.004,4.938-6.568,2.934-10.192c-6.468-11.696-9.747-25.185-9.747-40.091
	c0-67.975,67.498-123.277,150.465-123.277s150.465,55.302,150.465,123.277c0,31.405-14.329,55.818-42.59,72.563
	c-6.413,3.799-13.486,7.158-21.154,10.07c-0.16,0.058-0.32,0.115-0.473,0.183c-17.792,6.693-38.776,10.977-62.228,12.691
	c-0.099,0.007-0.199,0.009-0.296,0.02c-7.655,0.552-15.57,0.833-23.724,0.833c-50.832,0-93.134-11.163-119.112-31.434
	c-3.268-2.549-7.979-1.966-10.527,1.299c-2.548,3.266-1.966,7.979,1.299,10.527c7.059,5.508,15.034,10.378,23.842,14.604
	c-19.799-1.126-28.697-9.754-28.802-9.859c-10.768-10.767-28.288-10.768-39.056,0s-10.768,28.289,0,39.056
	c4.811,4.811,10.26,8.956,16.246,12.461c0.432,0.323,0.896,0.59,1.38,0.811c14.607,8.188,32.416,12.516,52.579,12.693
	c-0.305,12.26-0.287,25.641,0.061,40.037c-2.548,0.393-4.978,0.194-7.342-0.6c-5.979-2.008-9.56-7.973-8.329-13.876
	c1.094-5.249,0.079-10.609-2.859-15.095c-2.937-4.485-7.447-7.558-12.692-8.651c-5.248-1.095-10.612-0.081-15.098,2.858
	c-4.484,2.938-7.557,7.446-8.651,12.695c-5.379,25.803,9.605,51.651,34.854,60.128c5.542,1.86,11.347,2.803,17.254,2.803h0.005
	c8.901,0,17.801-2.098,26.492-6.226c7.1,1.294,14.432,2.145,21.346,2.695c0.207,8.087-0.155,15.682-1.125,23.46
	c-0.912,7.32,1.081,14.557,5.612,20.378c4.531,5.821,11.059,9.529,18.38,10.441c1.14,0.142,2.296,0.213,3.437,0.213
	c13.89,0,25.66-10.406,27.379-24.204c1.389-11.142,1.864-21.937,1.484-33.38c0.647,0.012,1.293,0.03,1.941,0.03
	c2.829,0,5.652-0.124,8.462-0.344c0.424,9.457,0.106,17.997-0.999,26.865c-0.912,7.32,1.081,14.557,5.612,20.378
	c4.531,5.821,11.058,9.529,18.38,10.441c1.14,0.142,2.297,0.213,3.438,0.213c10.154,0,19.461-5.56,24.289-14.512
	c1.966-3.646,0.604-8.195-3.041-10.161c-3.648-1.968-8.196-0.605-10.162,3.041c-2.456,4.555-7.505,7.177-12.672,6.533
	c-3.344-0.417-6.325-2.111-8.396-4.77c-2.07-2.659-2.98-5.965-2.564-9.31c1.127-9.049,1.515-17.745,1.193-27.2
	c2.583,1.84,5.658,2.844,8.892,2.844h0.01c4.393-0.002,10.073-0.098,16.412-0.422c0.021,1.13,0.035,2.257,0.037,3.384
	c0.007,4.138,3.363,7.487,7.5,7.487h0.013c4.143-0.007,7.494-3.371,7.487-7.513c-0.003-1.505-0.025-3.008-0.059-4.517
	c9.262-0.984,18.881-2.551,27.413-5.027c5.889-1.709,10.011-6.97,10.259-13.09c0.777-19.188,1.027-36.837,0.758-52.719
	c3.534,0.297,7.059,0.46,10.545,0.46c11.51,0,22.402-1.599,32.293-4.671l-5.261,10.93c-2.587,5.376-1.956,11.668,1.646,16.423
	c3.032,4.003,7.684,6.273,12.585,6.272c0.92,0,1.85-0.08,2.779-0.244l59.273-10.452c5.875-1.036,10.617-5.22,12.376-10.92
	C461.872,388.145,460.312,382.016,456.042,377.849z M115.13,135.967c-13.023,10.781-23.626,23.051-31.6,36.353
	c-11.722-21.98-11.423-43.313-9.076-57.379c12.547,2.905,28,8.6,42.289,19.722C116.205,135.098,115.663,135.527,115.13,135.967z
	 M129.276,125.515c-16.935-14.244-35.562-21.409-50.613-24.994c1.809-2.507,4.606-4.211,7.788-4.586
	c11.587-1.366,39.327-1.996,64.928,17.269C143.668,116.782,136.28,120.895,129.276,125.515z M231.611,95.941
	c-22.494,0-44.309,3.735-64.434,10.835c-8.149-7.241-17.263-13.084-27.018-17.421c-3.362-6.555-7.055-13.521-10.519-19.849
	c10.618,2.64,22.553,6.188,30.138,9.731c3.839,1.793,8.233,1.207,11.465-1.53c3.227-2.732,4.527-6.961,3.393-11.035
	c-2.644-9.505-7.427-22.298-11.49-31.917c13.988,5.074,25.374,15.28,33.984,23.96c2.807,2.829,6.819,4.06,10.731,3.292
	c3.927-0.771,7.189-3.438,8.726-7.133c5.292-12.728,10.93-25.526,15.024-34.666c4.094,9.14,9.731,21.938,15.023,34.665
	c1.537,3.697,4.799,6.364,8.726,7.134c3.915,0.767,7.925-0.464,10.732-3.292c8.609-8.68,19.995-18.886,33.983-23.96
	c-4.063,9.615-8.845,22.406-11.49,31.917c-1.133,4.075,0.167,8.303,3.395,11.035c3.232,2.738,7.624,3.323,11.464,1.529
	c7.586-3.543,19.52-7.091,30.138-9.731c-3.461,6.321-7.153,13.287-10.519,19.849c-9.755,4.337-18.869,10.181-27.018,17.422
	C275.921,99.676,254.105,95.941,231.611,95.941z M311.845,113.204c25.6-19.265,53.34-18.633,64.927-17.27
	c3.182,0.375,5.98,2.079,7.789,4.586c-15.051,3.585-33.68,10.75-50.614,24.994C326.943,120.895,319.555,116.783,311.845,113.204z
	 M379.693,172.321c-7.974-13.302-18.577-25.572-31.6-36.353c-0.532-0.441-1.074-0.869-1.613-1.303
	c14.289-11.122,29.742-16.818,42.29-19.723C391.116,129.007,391.414,150.341,379.693,172.321z M79.746,352.216
	c-3.982-2.645-7.248-5.415-9.883-8.051c-4.919-4.919-4.919-12.923,0-17.843c4.919-4.919,12.924-4.919,17.842,0
	c1.551,1.551,3.506,3.116,5.837,4.615C91.912,337.73,88.104,345.652,79.746,352.216z M94.1,359.568
	c7.2-7.153,11.173-15.089,13.3-22.335c6.914,2.146,15.191,3.511,24.664,3.456c-0.891,7.542-1.57,15.921-2.04,25.064
	C115.34,365.674,103.528,363.186,94.1,359.568z M126.663,446.035h-0.004c-4.282,0-8.482-0.681-12.482-2.023
	c-18.048-6.059-28.771-24.478-24.942-42.846c0.276-1.327,1.053-2.467,2.187-3.21c1.132-0.743,2.486-0.998,3.815-0.721
	c1.326,0.276,2.465,1.053,3.208,2.186c0.742,1.133,0.999,2.488,0.722,3.815c-2.781,13.337,5.06,26.732,18.24,31.158
	c4.101,1.377,8.31,1.856,12.588,1.441c0.037,0.974,0.073,1.945,0.113,2.927c0.101,2.508,0.862,4.866,2.119,6.9
	C130.367,445.909,128.512,446.035,126.663,446.035z M181.91,442.98c-8.863-0.497-18.876-1.47-28.168-3.317
	c-0.077-0.017-0.154-0.032-0.231-0.047c-2.905-0.583-5.738-1.25-8.44-2.016c-1.77-44.196-0.712-79.727,3.049-103.69
	c15.376,4.986,32.609,8.408,51.452,10.198v98.947c0,0.047,0,0.174-0.12,0.294c-0.113,0.113-0.215,0.086-0.275,0.114
	c-4.489-0.003-10.392-0.105-16.939-0.465C182.129,442.99,182.02,442.982,181.91,442.98z M213.302,485.938
	c-0.785,6.305-6.157,11.059-12.494,11.059c-0.525,0-1.059-0.033-1.585-0.099c-3.344-0.417-6.326-2.111-8.396-4.77
	c-2.07-2.66-2.981-5.966-2.564-9.31c1.017-8.157,1.432-16.106,1.27-24.504c3.613,0.108,6.88,0.147,9.636,0.148h0.01
	c4.115,0,7.982-1.604,10.89-4.517c0.452-0.453,0.861-0.937,1.249-1.434c1.096,0.211,2.195,0.404,3.298,0.581
	C215.086,464.429,214.664,475.011,213.302,485.938z M248.65,437.862c-11.196,2.088-22.881,2.088-34.078,0v-92.691
	c5.561,0.265,11.237,0.407,17.039,0.407c5.79,0,11.471-0.137,17.039-0.408V437.862z M318.151,437.599
	c-9.48,2.689-20.562,4.172-30.759,4.973c-0.035,0.001-0.07-0.001-0.105,0c-0.094,0.005-0.186,0.021-0.279,0.029
	c-8.918,0.688-17.131,0.857-22.962,0.861c-0.036-0.003-0.161,0-0.275-0.114c-0.12-0.12-0.12-0.247-0.12-0.294v-98.967
	c18.771-1.804,36.035-5.239,51.445-10.226C318.862,357.826,319.922,393.375,318.151,437.599z M344.419,371.506
	c-3.622,0-7.297-0.204-10.979-0.568c-0.384-9.271-0.976-17.799-1.768-25.545c4.119,0.603,8.365,0.931,12.599,0.931
	c4.658,0,9.293-0.397,13.721-1.219c1.513,7.796,4.665,16.355,10,23.622C360.693,370.562,352.767,371.506,344.419,371.506z
	 M372.382,340.33c3.109-1.621,5.915-3.584,8.274-5.944c0.167-0.167,0.343-0.321,0.518-0.478l3.701,20.991
	c0.431,2.445,0.461,4.904,0.111,7.31c-0.658,0.357-1.323,0.707-2,1.044C376.494,356.731,373.466,347.353,372.382,340.33z
	 M445.779,389.422c-0.149,0.483-0.485,0.543-0.647,0.571l-59.274,10.452c-0.16,0.029-0.497,0.09-0.804-0.315
	c-0.306-0.404-0.157-0.712-0.086-0.859l11.493-23.877c3.476-7.22,4.577-15.207,3.186-23.098l-5.03-28.53l16.06-2.832l5.031,28.529
	c1.39,7.89,5.156,15.019,10.892,20.616c0,0,0,0,0.001,0l18.967,18.506C445.684,388.699,445.928,388.938,445.779,389.422z
	 M148.161,225.144c-9.25-1.221-28.24,0.196-36.208,2.188c-4.019,1.004-6.462,5.076-5.458,9.095c0.852,3.408,3.91,5.683,7.271,5.683
	c0.602,0,1.214-0.073,1.825-0.226c6.251-1.563,23.444-2.816,30.605-1.869c4.106,0.544,7.876-2.347,8.418-6.453
	C155.156,229.456,152.267,225.687,148.161,225.144z"/>
<g>
	<path style="fill:#7694E4;" d="M170.766,247.513c-20.964,0-38.02-17.056-38.02-38.021c0-20.964,17.056-38.02,38.02-38.02
		s38.02,17.056,38.02,38.02C208.786,230.457,191.73,247.513,170.766,247.513z M170.766,186.472c-12.693,0-23.02,10.327-23.02,23.02
		c0,12.693,10.327,23.021,23.02,23.021c12.693,0,23.02-10.327,23.02-23.021C193.786,196.799,183.459,186.472,170.766,186.472z"/>
	<path style="fill:#7694E4;" d="M292.458,247.513c-20.965,0-38.021-17.056-38.021-38.021c0-20.964,17.056-38.02,38.021-38.02
		c20.964,0,38.02,17.056,38.02,38.02C330.477,230.457,313.421,247.513,292.458,247.513z M292.458,186.472
		c-12.693,0-23.021,10.327-23.021,23.02c0,12.693,10.327,23.021,23.021,23.021c12.693,0,23.02-10.327,23.02-23.021
		C315.477,196.799,305.151,186.472,292.458,186.472z"/>
	<path style="fill:#7694E4;" d="M264.817,204.041c-1.779,0-3.565-0.629-4.996-1.909c-0.073-0.066-7.577-6.562-28.209-6.562
		s-28.136,6.496-28.209,6.562c-3.088,2.76-7.83,2.497-10.59-0.591c-2.761-3.088-2.496-7.829,0.591-10.59
		c5.612-5.018,18.596-10.38,38.208-10.38s32.596,5.362,38.208,10.38c3.088,2.761,3.353,7.503,0.592,10.59
		C268.929,203.196,266.877,204.041,264.817,204.041z"/>
</g>
<g>
</g>
<g>
</g>
<g>
</g>
<g>
</g>
<g>
</g>
<g>
</g>
<g>
</g>
<g>
</g>
<g>
</g>
<g>
</g>
<g>
</g>
<g>
</g>
<g>
</g>
<g>
</g>
<g>
</g>
</svg>
