<?xml version="1.0" encoding="iso-8859-1"?>
<!-- Generator: Adobe Illustrator 19.0.0, SVG Export Plug-In . SVG Version: 6.00 Build 0)  -->
<svg version="1.1" id="Capa_1" xmlns="http://www.w3.org/2000/svg" xmlns:xlink="http://www.w3.org/1999/xlink" x="0px" y="0px"
	 viewBox="0 0 512 512" style="enable-background:new 0 0 512 512;" xml:space="preserve">
<path style="fill:#EDA751;" d="M143.991,437.059c-24.436,0-45.237-7.492-61.824-22.267c-13.605-12.119-24.604-29.26-33.625-52.403
	c-3.008-7.716,0.809-16.411,8.525-19.419c7.717-3.009,16.411,0.809,19.419,8.526c15.184,38.953,35.373,55.572,67.506,55.572
	c32.951,0,53.173-25.545,72.729-50.249c2.576-3.254,5.008-6.326,7.49-9.364c5.239-6.414,14.687-7.366,21.1-2.126
	c6.414,5.239,7.366,14.687,2.126,21.1c-2.336,2.859-4.699,5.844-7.201,9.005C219.647,401.441,191.451,437.059,143.991,437.059z"/>
<path style="fill:#FCD79D;" d="M76.485,351.495c-3.008-7.717-11.702-11.535-19.419-8.526c-7.716,3.008-11.534,11.702-8.525,19.419
	c2.028,5.202,4.161,10.084,6.396,14.69c8.698-1.959,18.661-6.207,27.169-12.681C80.154,360.4,78.283,356.11,76.485,351.495z"/>
<path style="opacity:0.2;fill:#A35F00;enable-background:new    ;" d="M245.132,345.186c-6.481-5.135-16.001-3.77-21.224,2.639
	c-2.378,2.917-4.717,5.872-7.188,8.993c-18.451,23.307-37.499,47.351-67.263,49.998c6.612,7.029,14.685,12.546,23.873,16.233
	c3.104,1.245,6.012,2.917,8.584,5.054c0.128,0.106,0.256,0.212,0.384,0.318c25.605-12.169,43.617-34.897,57.938-52.987
	c2.502-3.16,4.865-6.145,7.201-9.005C252.723,359.957,251.705,350.394,245.132,345.186z"/>
<g>
	<path style="fill:#EDA751;" d="M207.574,504.5c-5.038,0-10.117-1.58-14.447-4.852c-10.573-7.989-12.667-23.034-4.679-33.607
		c7.87-10.416,13.541-22.38,15.968-33.692c2.217-10.336,1.18-17.672-0.53-21.091c-5.926-11.852-1.122-26.264,10.73-32.19
		c11.853-5.925,26.265-1.122,32.19,10.73c14.147,28.294,6.08,70.559-20.072,105.172C222.018,501.213,214.839,504.5,207.574,504.5z"
		/>
	<path style="fill:#EDA751;" d="M363.383,480.122c-2.655,0.001-5.352-0.443-7.998-1.378c-12.494-4.417-19.041-18.126-14.624-30.619
		c1.623-4.59,1.34-8.5-0.917-12.679c-3.107-5.754-8.798-9.692-11.815-11.078c-10.539,1.221-20.98-4.687-25.067-15.011
		c-4.876-12.321,1.159-26.263,13.48-31.139c18.187-7.201,39.377,4.449,51.997,16.611c19.645,18.931,26.212,44.834,17.566,69.29
		C382.523,473.968,373.266,480.121,363.383,480.122z"/>
	<path style="fill:#EDA751;" d="M405.86,389.5c-13.802,0-27.483-3.697-39.55-11.089c-21.575-13.218-34.114-36.052-32.723-59.592
		c0.783-13.228,12.146-23.296,25.367-22.535c13.228,0.782,23.317,12.14,22.535,25.367c-0.412,6.963,4.837,12.749,9.887,15.843
		c3.403,2.084,15.643,8.218,30.296-0.378c11.431-6.705,26.13-2.875,32.835,8.554c6.706,11.43,2.876,26.13-8.554,32.835
		C433.46,385.835,419.602,389.5,405.86,389.5z"/>
</g>
<g>
	<path style="opacity:0.2;fill:#A35F00;enable-background:new    ;" d="M405.278,341.55c-6.824-0.2-11.896-2.83-13.9-4.057
		c-5.05-3.094-10.299-8.88-9.887-15.843c0.781-13.228-9.308-24.585-22.535-25.367c-13.222-0.761-24.584,9.308-25.367,22.535
		c-1.391,23.54,11.147,46.374,32.723,59.592c8.038,4.924,16.795,8.199,25.824,9.843C399.503,373.969,404.099,358.194,405.278,341.55
		z"/>
	<path style="opacity:0.2;fill:#A35F00;enable-background:new    ;" d="M379.389,408.101c-3.016-4.697-6.672-9.15-10.95-13.273
		c-12.62-12.162-33.81-23.811-51.997-16.611c-12.321,4.876-18.356,18.818-13.48,31.139c4.087,10.324,14.529,16.231,25.067,15.011
		c3.017,1.386,8.708,5.324,11.815,11.078c0.995,1.842,1.584,3.634,1.818,5.453C356.35,432.325,369.166,421.167,379.389,408.101z"/>
	<path style="opacity:0.2;fill:#A35F00;enable-background:new    ;" d="M214.617,379.067c-11.852,5.926-16.656,20.338-10.73,32.19
		c1.71,3.42,2.747,10.756,0.53,21.091c-0.666,3.104-1.585,6.258-2.718,9.415c13.704,7.769,28.986,13.309,45.28,16.075
		c8.821-24.621,9.163-49.373-0.171-68.041C240.882,377.945,226.471,373.142,214.617,379.067z"/>
</g>
<ellipse style="fill:#FCD690;" cx="270.935" cy="333.021" rx="110.667" ry="102.827"/>
<path style="opacity:0.15;fill:#C17A00;enable-background:new    ;" d="M254.771,434.762
	c-50.571-33.201-34.898-101.25-26.313-131.009v-65.708c-40.038,15.478-68.191,52.172-68.191,94.981
	C160.266,384.716,201.314,427.493,254.771,434.762z"/>
<path style="fill:#7694E4;" d="M160.498,331.248c-11.453-4.426-21.699-10.555-31.609-16.482
	c-21.915-13.107-36.43-20.918-56.282-16.959c-5.219,1.041-10.41-1.922-12.146-6.953L49.73,259.744
	c-2.05-5.944,1.483-12.341,7.593-13.824c43.834-10.642,75.594,8.353,99.275,22.516c8.333,4.983,16.203,9.691,23.358,12.456
	L160.498,331.248z"/>
<path style="opacity:0.1;enable-background:new    ;" d="M155.271,267.643l-19.086,44.454c-0.857,2.058-1.243,4.181-1.242,6.266
	c8.047,4.734,16.414,9.353,25.555,12.886l19.458-50.357c-7.155-2.765-15.026-7.472-23.358-12.456
	C156.161,268.175,155.715,267.908,155.271,267.643z"/>
<path style="fill:#82C7E6;" d="M57.323,245.921c-6.11,1.483-9.643,7.881-7.593,13.824l10.732,31.11
	c1.736,5.031,6.926,7.994,12.146,6.953c10.177-2.03,18.951-0.96,28.038,2.324c3.093-25.29-3.084-44.64-9.736-56.969
	C80.575,242.314,69.411,242.986,57.323,245.921z"/>
<path style="fill:#EDA751;" d="M201.7,416.346c-32.162,0.002-55.37-20.726-59.161-52.871c-3.274-27.759,9.401-60.258,36.28-66.594
	c12.898-3.034,25.817,4.952,28.857,17.85c2.804,11.895-3.776,23.808-14.933,27.973c-2.288,3.707-4.185,13.659-1.173,20.535
	c0.894,2.04,2.244,5.12,10.118,5.12c0.061,0.001,0.123,0.001,0.185,0c13.215,0,23.946,10.688,23.991,23.912
	c0.044,13.252-10.662,24.029-23.912,24.074C201.869,416.346,201.783,416.346,201.7,416.346z M189.843,343.585
	c-0.005,0.001-0.01,0.002-0.015,0.003C189.833,343.587,189.837,343.586,189.843,343.585z"/>
<path style="fill:#7694E4;" d="M376.814,277.252c-29.562,11.939-65.61,18.174-105.882,18.174s-76.32-6.235-105.882-18.174
	l-16.194,38.892c-3.676,8.829,1.001,18.872,10.096,21.826c32.491,10.555,70.38,16.03,111.98,16.03
	c41.599,0,79.489-5.475,111.98-16.03c9.096-2.954,13.773-12.998,10.097-21.826L376.814,277.252z"/>
<g>
	<path style="fill:#82C7E6;" d="M246.938,294.644v58.722c7.849,0.417,15.848,0.634,23.993,0.634s16.145-0.217,23.993-0.634v-58.722
		c-7.814,0.51-15.812,0.781-23.993,0.781S254.753,295.154,246.938,294.644z"/>
	<path style="fill:#82C7E6;" d="M198.43,287.66c-11.853-2.76-23.022-6.226-33.381-10.409l-16.194,38.892
		c-3.676,8.829,1.001,18.872,10.096,21.826c6.691,2.173,13.623,4.119,20.756,5.858L198.43,287.66z"/>
	<path style="fill:#82C7E6;" d="M343.434,287.66c11.853-2.76,23.022-6.226,33.381-10.409l16.194,38.892
		c3.676,8.829-1.001,18.872-10.096,21.826c-6.691,2.173-13.623,4.119-20.756,5.858L343.434,287.66z"/>
</g>
<path style="fill:#EDA751;" d="M203.585,154.714c21.654-18.171,36.112-48.673,5.569-93.765
	C178.369,15.502,132.534,4.11,96.751,8.326c-8.822,1.039-16.224,7.251-18.78,15.758c-10.366,34.507-7.105,81.624,32.306,119.833
	C149.381,181.826,181.931,172.884,203.585,154.714z"/>
<path style="fill:#FF91AB;" d="M76.532,29.363c-8.498,33.928-3.693,78.255,33.746,114.553
	c33.893,32.859,62.856,30.511,84.076,17.473C179.76,62.32,116.011,36.049,76.532,29.363z"/>
<path style="fill:#EDA751;" d="M338.278,154.714c-21.654-18.171-36.112-48.673-5.569-93.765
	c30.785-45.447,76.62-56.84,112.402-52.624c8.822,1.039,16.224,7.251,18.78,15.758c10.366,34.507,7.105,81.624-32.306,119.833
	C392.483,181.826,359.932,172.884,338.278,154.714z"/>
<path style="fill:#FF91AB;" d="M465.332,29.363c8.498,33.928,3.693,78.255-33.746,114.553
	c-33.893,32.859-62.856,30.511-84.076,17.473C362.102,62.32,425.853,36.049,465.332,29.363z"/>
<path style="fill:#FFDC9C;" d="M459.337,182.139c0,86.144-84.352,123.874-188.405,123.874S82.526,268.283,82.526,182.139
	S166.878,26.162,270.932,26.162S459.337,95.995,459.337,182.139z"/>
<path style="opacity:0.15;fill:#C17A00;enable-background:new    ;" d="M170.333,50.243
	c-52.765,27.641-87.806,76.378-87.806,131.896c0,74.052,62.333,112.327,145.931,121.614
	C108.456,232.072,124.106,135.654,170.333,50.243z"/>
<g>
	<ellipse style="fill:#FF91AB;" cx="178.477" cy="185.775" rx="34.109" ry="27.169"/>
	<ellipse style="fill:#FF91AB;" cx="363.382" cy="185.775" rx="34.109" ry="27.169"/>
</g>
<g>
	<path style="fill:#82C7E6;" d="M460.161,366.012c2.325-7.507,1.4-15.437-2.547-22.164c-4.934-8.41-14.061-13.634-23.821-13.634
		c-4.885,0-9.705,1.313-13.94,3.797c-2.491,1.461-5.03,2.522-7.594,3.174c-2.707,0.689-4.66,3.009-4.733,5.801
		c-0.31,11.861,1.725,31.425,12.708,45.253c1.52,1.914,4.012,2.782,6.376,2.162c7.038-1.845,13.862-4.619,20.278-8.278
		C453.136,378.558,458.033,372.882,460.161,366.012z"/>
	<path style="fill:#82C7E6;" d="M201.873,364.76h-0.185c-1.685,0-2.916-0.14-3.833-0.377c-1.973-0.509-4.051,0.026-5.518,1.439
		c-10.597,10.21-16.356,33.244-8.162,48.056c1.686,3.047,4.75,5.048,8.205,5.486c3.017,0.382,6.125,0.581,9.32,0.581h0.264
		c15.215-0.051,27.55-12.471,27.499-27.685C229.413,377.097,217.036,364.76,201.873,364.76z"/>
</g>
<path d="M433.792,322.714c-6.218,0-12.351,1.669-17.735,4.829c-1.872,1.098-3.772,1.897-5.648,2.375
	c-2.645,0.673-4.954,2.095-6.722,3.996c-1.658-0.196-3.138-0.567-4.389-0.988c0.095-0.192,0.194-0.382,0.284-0.577
	c2.767-6.017,2.894-12.974,0.348-19.088l-9.005-21.625c27.636-12.383,48.074-29.592,60.834-51.276
	c2.101-3.57,0.91-8.166-2.66-10.268c-3.569-2.1-8.167-0.909-10.268,2.66c-12.646,21.489-34.311,38.129-64.392,49.457
	c-28.325,10.667-64.118,16.305-103.51,16.305c-41.638,0-78.14-6.082-107.179-17.728c-0.05-0.022-0.096-0.049-0.146-0.07
	c-0.061-0.025-0.124-0.043-0.186-0.066c-7.86-3.17-15.176-6.745-21.889-10.723c-13.843-8.202-24.919-17.928-33.203-29.122
	c-0.215-0.357-0.456-0.698-0.728-1.015c-11.678-16.235-17.576-35.502-17.576-57.651c0-81.871,81.154-148.477,180.905-148.477
	s180.905,66.606,180.905,148.477c0,7.014-0.603,13.836-1.793,20.276c-0.753,4.073,1.94,7.985,6.013,8.737
	c4.065,0.753,7.985-1.939,8.737-6.013c1.355-7.337,2.043-15.076,2.043-23c0-19.099-3.89-37.682-11.349-55.13
	c20.72-30.964,26.423-69.004,15.586-105.083c-3.422-11.395-13.269-19.657-25.085-21.048c-35.951-4.239-71.346,7.007-97.883,30.911
	c-24.071-8.6-50.211-13.127-77.175-13.127s-53.104,4.527-77.175,13.127C167.22,7.886,131.829-3.355,95.874,0.877
	C84.059,2.269,74.213,10.53,70.79,21.925C59.952,58.004,65.655,96.044,86.375,127.01c-3.344,7.822-5.962,15.874-7.841,24.097h-7.762
	v-12.725c0-4.142-3.358-7.5-7.5-7.5s-7.5,3.358-7.5,7.5v12.725H43.048c-4.142,0-7.5,3.358-7.5,7.5s3.358,7.5,7.5,7.5h12.725v12.725
	c0,4.142,3.358,7.5,7.5,7.5s7.5-3.358,7.5-7.5v-12.725h5.18c-0.612,5.294-0.925,10.643-0.925,16.033
	c0,19.586,4.225,37.459,12.439,53.281c-10.53-0.479-21.079,0.583-31.912,3.213c-4.973,1.207-9.231,4.472-11.682,8.957
	c-2.442,4.468-2.891,9.79-1.231,14.602l10.732,31.11c2.942,8.531,11.844,13.63,20.702,11.863c17.266-3.441,29.98,3.49,50.965,16.041
	c4.363,2.61,8.841,5.277,13.498,7.854c-3.611,11.195-4.84,23.486-3.446,35.297c1.599,13.556,6.389,25.46,13.761,34.992
	c-1.596,0.143-3.213,0.221-4.861,0.221c-28.921,0-46.456-14.717-60.519-50.796c-2.182-5.599-6.414-10.013-11.916-12.429
	c-5.502-2.415-11.616-2.544-17.214-0.361c-5.599,2.182-10.012,6.414-12.428,11.916c-2.416,5.502-2.544,11.615-0.362,17.214
	c9.461,24.272,21.114,42.354,35.625,55.28c18.003,16.036,40.482,24.166,66.812,24.166c19.201,0,36.752-5.265,53.519-16.057
	c-0.128,0.75-0.26,1.502-0.426,2.275c-1.046,4.875-2.769,9.913-5.12,14.974c-1.745,3.756-0.115,8.216,3.642,9.962
	c1.023,0.475,2.097,0.7,3.155,0.7c2.828,0,5.537-1.608,6.807-4.342c2.822-6.074,4.902-12.18,6.183-18.148
	c0.359-1.674,0.643-3.318,0.866-4.932c9.893,5.252,20.491,9.109,31.505,11.496c-3.593,17.079-11.745,34.576-23.37,49.963
	c-3.146,4.164-7.949,6.551-13.178,6.551c-3.605,0-7.037-1.153-9.925-3.335c-4.291-3.242-6.736-8.393-6.541-13.777
	c0.15-4.139-3.083-7.617-7.223-7.767c-4.169-0.166-7.617,3.083-7.767,7.223c-0.373,10.271,4.295,20.098,12.488,26.288
	c5.514,4.165,12.073,6.367,18.968,6.367c9.974,0,19.14-4.56,25.144-12.509c13.11-17.351,22.266-37.232,26.234-56.71
	c3.963,0.374,7.959,0.575,11.979,0.575c18.786,0,36.584-4.097,52.397-11.402c1.022,0.065,2.044,0.086,3.061,0.05
	c2.211,1.388,5.19,3.915,6.858,7.005c1.242,2.3,1.359,4.031,0.444,6.615c-5.788,16.372,2.824,34.4,19.197,40.19
	c3.393,1.199,6.923,1.807,10.491,1.807h0.006c13.319-0.001,25.25-8.442,29.691-21.002c9.371-26.505,2.799-54.47-17.551-75.317
	c9.613,3.743,19.926,5.698,30.337,5.698c4.027,0,8.102-0.305,12.157-0.891c2.129,1.289,4.572,1.988,7.066,1.988
	c1.142,0,2.293-0.145,3.429-0.442c7.713-2.022,15.146-5.056,22.092-9.018c8.146-4.647,14.084-11.894,16.72-20.405l0,0
	c2.961-9.561,1.809-19.568-3.243-28.178C457.808,329.357,446.202,322.714,433.792,322.714z M447.597,111.253
	c-9.561-16.575-22.544-31.841-38.661-45.184c-1.095-0.906-2.201-1.798-3.317-2.68c18.198-14.62,38.121-21.773,53.914-25.256
	C462.68,55.56,463.48,83.092,447.597,111.253z M444.234,15.774c4.929,0.58,9.16,3.57,11.403,7.861
	c-18.345,4.128-41.602,12.748-62.546,30.658c-9.21-6.148-18.991-11.55-29.237-16.165C386.423,20.437,415.114,12.34,444.234,15.774z
	 M97.629,15.773c29.119-3.431,57.811,4.664,80.381,22.354c-10.247,4.615-20.027,10.016-29.237,16.165
	c-20.944-17.911-44.202-26.53-62.546-30.658C88.469,19.343,92.701,16.354,97.629,15.773z M82.33,38.133
	c15.793,3.483,35.715,10.637,53.914,25.256c-1.116,0.882-2.223,1.774-3.317,2.68c-16.117,13.343-29.099,28.609-38.66,45.183
	C78.384,83.091,79.183,55.559,82.33,38.133z M141.932,313.261c-0.056,0.134-0.103,0.271-0.157,0.406
	c-3.064-1.764-6.076-3.565-9.037-5.336c-23.531-14.074-39.42-22.301-61.598-17.878c-1.538,0.306-3.08-0.572-3.588-2.044
	L56.82,257.298c-0.391-1.134-0.034-2.063,0.213-2.516c0.253-0.463,0.856-1.283,2.059-1.575c13.197-3.204,25.879-3.75,38.678-1.66
	c9.298,12.046,21.37,22.547,36.115,31.284c5.353,3.171,11.045,6.105,17.052,8.799L141.932,313.261z M143.991,429.559
	c-22.54,0-41.663-6.853-56.837-20.368c-12.701-11.313-23.045-27.512-31.626-49.527c-0.727-1.865-0.684-3.902,0.121-5.736
	c0.805-1.833,2.275-3.244,4.142-3.971c1.864-0.727,3.902-0.684,5.735,0.121c1.833,0.805,3.243,2.275,3.971,4.141
	c16.269,41.736,39.243,60.348,74.494,60.348c6.215,0,12.317-0.85,18.199-2.502c5.263,3.678,11.171,6.574,17.635,8.576
	c0.132,0.15,0.262,0.301,0.398,0.447C168.731,426.765,156.774,429.559,143.991,429.559z M172.9,401.186
	c-1.452-0.896-2.844-1.866-4.175-2.905c-0.274-0.254-0.568-0.482-0.874-0.691c-9.838-8.08-16.111-20.129-17.864-34.993
	c-0.786-6.66-0.516-13.667,0.706-20.393c1.824,1.225,3.818,2.21,5.941,2.9c8.357,2.715,17.023,5.095,25.98,7.139
	c-0.264,3.832,0.032,7.964,1.261,11.791C176.476,373.356,171.815,387.675,172.9,401.186z M201.965,412.445h-0.275
	c-2.823,0-5.638-0.175-8.366-0.521c-1.078-0.137-2.006-0.732-2.521-1.589c-0.029-0.05-0.064-0.097-0.094-0.146
	c-6.279-11.442-1.781-29.934,6.205-38.333c1.386,0.272,2.958,0.404,4.776,0.404h0.184c11.041,0,20.053,8.983,20.09,20.024
	C222.001,403.363,213.018,412.407,201.965,412.445z M319.103,417.361c-0.271,0.112-0.534,0.24-0.789,0.383
	c-14.209,6.788-30.328,10.614-47.383,10.614c-15.988,0-31.552-3.392-45.687-9.86c7.215-6.457,11.754-15.842,11.719-26.262
	c-0.064-19.286-15.807-34.974-35.09-34.974h-0.184c-1.381,0-1.903-0.125-1.96-0.139c-0.697-0.18-1.398-0.283-2.099-0.351
	c-0.049-0.489-0.079-0.985-0.09-1.492c22.831,4.129,47.373,6.221,73.391,6.221c37.152,0,71.306-4.248,101.744-12.637
	c-1.734,9.621-5.014,18.736-9.598,27.127c-0.116,0.174-0.23,0.351-0.333,0.538c-0.092,0.166-0.169,0.336-0.246,0.506
	c-1.571,2.79-3.283,5.501-5.135,8.119c-0.073,0.083-0.15,0.161-0.22,0.249c-0.22,0.275-0.408,0.564-0.583,0.859
	C347.065,399.289,334.184,410.002,319.103,417.361z M378.933,461.62c-2.326,6.58-8.576,11.002-15.552,11.003h-0.003
	c-1.862,0-3.71-0.32-5.493-0.949c-8.575-3.032-13.084-12.475-10.054-21.047c2.326-6.577,1.872-12.708-1.388-18.744
	c-1.882-3.485-4.451-6.459-7.126-8.846c9.33-6.183,17.659-13.605,24.713-22.013C380.875,417.78,386.454,440.348,378.933,461.62z
	 M270.932,346.5c-27.939,0-54.056-2.477-78.025-7.379c-0.165-0.039-0.329-0.075-0.494-0.102
	c-10.832-2.233-21.224-4.961-31.144-8.183c-2.406-0.781-4.311-2.471-5.362-4.756c-0.252-0.549-0.443-1.112-0.578-1.684
	c-0.013-0.08-0.026-0.159-0.041-0.238c-0.021-0.125-0.045-0.25-0.072-0.374c-0.257-1.589-0.077-3.221,0.563-4.759l9.074-21.79
	c29.657,10.703,65.663,16.278,106.079,16.278c40.538,0,76.194-5.489,106.076-16.286l9.077,21.8c0.955,2.293,0.909,4.798-0.128,7.054
	c-0.535,1.162-1.292,2.167-2.221,2.98c-0.163,0.118-0.32,0.245-0.474,0.378c-0.791,0.601-1.684,1.079-2.667,1.398
	C348.6,341.23,311.704,346.5,270.932,346.5z M405.86,382c-9.086,0-18.077-1.815-26.376-5.275
	c4.637-10.049,7.729-20.882,8.981-32.252c2.316,1.295,6.359,3.164,11.595,4.065c0.291,8.551,1.825,21.43,7.54,33.421
	C407.019,381.974,406.437,382,405.86,382z M452.997,363.794c-1.506,4.864-4.996,9.059-9.824,11.814
	c-5.542,3.161-11.452,5.615-17.582,7.301c-9.861-13.011-10.662-31.75-10.586-38.696c2.937-0.835,5.84-2.088,8.642-3.732
	c3.085-1.81,6.593-2.767,10.145-2.767c7.11,0,13.76,3.805,17.353,9.93C454.038,352.573,454.695,358.309,452.997,363.794z
	 M305.82,157.442l-4.254,7.082l-5.181-7.228c-1.991-2.777-5.22-4.446-8.637-4.463h-0.054c-3.397,0-6.619,1.632-8.627,4.374
	l-8.135,11.104l-8.135-11.104c-2.009-2.742-5.23-4.374-8.627-4.374h-0.056c-3.417,0.018-6.646,1.687-8.636,4.464l-5.18,7.227
	l-4.254-7.082c-2.133-3.55-6.739-4.701-10.291-2.567c-3.551,2.133-4.7,6.74-2.567,10.291l7.627,12.697
	c1.86,3.097,5.125,5.034,8.734,5.18c3.611,0.15,7.021-1.519,9.126-4.456l5.536-7.723l8.096,11.052
	c2.007,2.739,5.232,4.374,8.627,4.374s6.621-1.635,8.627-4.374l8.097-11.052l5.535,7.722c2.104,2.936,5.516,4.605,9.124,4.456
	c3.61-0.146,6.875-2.082,8.736-5.179l7.627-12.698c2.133-3.551,0.983-8.158-2.567-10.291
	C312.558,152.741,307.952,153.891,305.82,157.442z M190.861,146.626v12.047c0,4.142,3.358,7.5,7.5,7.5s7.5-3.358,7.5-7.5v-12.047
	c0-4.142-3.358-7.5-7.5-7.5S190.861,142.484,190.861,146.626z M141.243,230.526c1.547,0,3.108-0.477,4.448-1.466
	c6.413-4.734,24.763-13.914,33.387-16.204c4.003-1.063,6.387-5.17,5.324-9.174c-1.064-4.003-5.171-6.384-9.174-5.324
	c-10.622,2.821-30.663,12.889-38.446,18.633c-3.333,2.46-4.04,7.156-1.58,10.488C136.674,229.472,138.944,230.526,141.243,230.526z
	 M169.245,187.621c4.108,0.542,7.876-2.346,8.418-6.453c0.543-4.107-2.347-7.875-6.453-8.418
	c-10.894-1.438-33.26,0.232-42.645,2.579c-4.019,1.004-6.462,5.076-5.457,9.095c0.852,3.408,3.91,5.683,7.27,5.683
	c0.602,0,1.214-0.073,1.825-0.226C139.936,187.947,160.399,186.451,169.245,187.621z M336.003,146.626v12.047
	c0,4.142,3.358,7.5,7.5,7.5c4.142,0,7.5-3.358,7.5-7.5v-12.047c0-4.142-3.358-7.5-7.5-7.5
	C339.361,139.126,336.003,142.484,336.003,146.626z M411.485,190.106c3.36-0.001,6.418-2.275,7.27-5.683
	c1.005-4.018-1.439-8.09-5.457-9.095c-9.385-2.347-31.751-4.018-42.645-2.579c-4.106,0.543-6.996,4.311-6.453,8.418
	c0.543,4.106,4.316,6.996,8.418,6.453c8.845-1.167,29.308,0.326,37.042,2.259C410.271,190.033,410.882,190.106,411.485,190.106z
	 M366.634,198.359c-4.003-1.059-8.11,1.321-9.174,5.324c-1.063,4.003,1.321,8.11,5.324,9.174
	c8.624,2.29,26.974,11.469,33.387,16.204c1.34,0.989,2.901,1.466,4.448,1.466c2.299,0,4.569-1.054,6.04-3.046
	c2.46-3.333,1.752-8.028-1.58-10.488C397.297,211.246,377.256,201.18,366.634,198.359z M460.957,274.07
	c-2.929-2.929-7.678-2.929-10.607,0l-8.998,8.998l-8.998-8.998c-2.929-2.929-7.678-2.929-10.606,0
	c-2.929,2.929-2.929,7.678,0,10.606l8.998,8.998l-8.998,8.998c-2.929,2.929-2.929,7.678,0,10.606
	c1.464,1.464,3.384,2.197,5.303,2.197s3.839-0.732,5.303-2.197l8.998-8.998l8.998,8.998c1.464,1.464,3.384,2.197,5.303,2.197
	c1.919,0,3.839-0.732,5.303-2.197c2.929-2.929,2.929-7.678,0-10.606l-8.998-8.998l8.998-8.998
	C463.886,281.747,463.886,276.998,460.957,274.07z"/>
<g>
</g>
<g>
</g>
<g>
</g>
<g>
</g>
<g>
</g>
<g>
</g>
<g>
</g>
<g>
</g>
<g>
</g>
<g>
</g>
<g>
</g>
<g>
</g>
<g>
</g>
<g>
</g>
<g>
</g>
</svg>
