<?xml version="1.0" encoding="iso-8859-1"?>
<!-- Generator: Adobe Illustrator 19.0.0, SVG Export Plug-In . SVG Version: 6.00 Build 0)  -->
<svg version="1.1" id="Capa_1" xmlns="http://www.w3.org/2000/svg" xmlns:xlink="http://www.w3.org/1999/xlink" x="0px" y="0px"
	 viewBox="0 0 512.001 512.001" style="enable-background:new 0 0 512.001 512.001;" xml:space="preserve">
<path style="fill:#EDA751;" d="M183.223,441.093c-13.877,0.001-28.047-6.298-39.956-18.188
	c-16.01-15.984-29.976-19.456-37.702-17.379c-5.739,1.543-9.787,6.593-12.034,15.008c-1.886,7.067-9.142,11.266-16.212,9.38
	c-7.067-1.887-11.267-9.145-9.38-16.212c4.727-17.707,15.647-29.695,30.748-33.755c19.549-5.256,42.617,3.57,63.296,24.213
	c8.945,8.931,19.297,12.403,27.689,9.291c8.76-3.249,14.408-13.321,15.497-27.635c0.555-7.294,6.917-12.763,14.211-12.201
	c7.294,0.555,12.757,6.917,12.201,14.211c-1.879,24.7-14.103,43.564-32.699,50.461C193.801,440.17,188.532,441.092,183.223,441.093z
	"/>
<path style="fill:#FCD79D;" d="M93.53,420.533c1.07-4.009,2.554-7.244,4.43-9.71c-8.703-8.563-18.351-9.836-25.248-9.473
	c-1.968,3.725-3.574,7.851-4.775,12.351c-1.886,7.067,2.313,14.326,9.38,16.212C84.388,431.799,91.644,427.599,93.53,420.533z"/>
<g>
	<path style="fill:#EDA751;" d="M239.43,503.518c-0.873,0-1.755-0.054-2.644-0.165c-11.614-1.445-19.857-12.032-18.411-23.646
		c3.794-30.481,2.217-47.773-1.557-65.795c-2.399-11.455,4.942-22.686,16.397-25.085c11.454-2.399,22.686,4.942,25.085,16.397
		c4.538,21.671,6.638,43.52,2.133,79.717C259.097,495.667,249.966,503.518,239.43,503.518z"/>
	<path style="fill:#EDA751;" d="M167.252,368.699c-13.818,0-28.13-4.047-40.382-12.209c-25.709-17.127-34.827-47.324-23.796-78.806
		c3.871-11.045,15.963-16.86,27.007-12.991c11.045,3.87,16.861,15.961,12.991,27.007c-4.648,13.265-2.194,23.196,7.296,29.518
		c10.012,6.67,23.349,6.387,28.586,1.678c8.701-7.826,22.1-7.116,29.927,1.586c7.826,8.701,7.116,22.1-1.585,29.927
		C196.734,363.907,182.286,368.699,167.252,368.699z"/>
</g>
<path style="opacity:0.1;fill:#C18F00;enable-background:new    ;" d="M130.081,264.693c-8.477-2.969-17.557-0.219-23.077,6.209
	c8.036,13.366,19.376,24.98,33.86,34.559c-0.301-4.089,0.428-8.678,2.209-13.761C146.942,280.654,141.126,268.563,130.081,264.693z"
	/>
<path style="fill:#EDA751;" d="M371.985,368.699c-15.035,0-29.481-4.792-40.042-14.291c-8.702-7.827-9.412-21.225-1.586-29.927
	c7.828-8.702,21.227-9.411,29.927-1.586c5.236,4.71,18.575,4.993,28.587-1.678c9.489-6.322,11.944-16.253,7.296-29.518
	c-3.87-11.045,1.946-23.136,12.991-27.007c11.044-3.87,23.136,1.946,27.007,12.991c11.031,31.481,1.913,61.678-23.796,78.806
	C400.117,364.651,385.801,368.699,371.985,368.699z"/>
<path style="opacity:0.1;fill:#C18F00;enable-background:new    ;" d="M409.158,264.693c-11.045,3.87-16.861,15.961-12.991,27.007
	c1.781,5.083,2.51,9.673,2.209,13.761c14.484-9.579,25.824-21.193,33.86-34.56C426.715,264.473,417.635,261.722,409.158,264.693z"/>
<path style="fill:#EDA751;" d="M314.572,504.5c-1.401,0-2.82-0.139-4.247-0.429c-11.468-2.333-18.874-13.521-16.542-24.989
	c5.233-25.725,1.735-37.495-4.407-54.571c-3.961-11.013,1.756-23.151,12.768-27.113c11.014-3.958,23.151,1.756,27.113,12.768
	c7.616,21.175,13.329,41.613,6.057,77.363C333.273,497.572,324.438,504.5,314.572,504.5z"/>
<path style="opacity:0.2;fill:#C18F00;enable-background:new    ;" d="M219.379,373.613c-7.294-0.561-13.656,4.908-14.211,12.201
	c-1.089,14.313-6.737,24.386-15.497,27.635c-6.174,2.289-13.41,1.003-20.366-3.389c7.496,11.058,16.999,20.795,28.016,28.764
	c0.522-0.172,1.043-0.347,1.56-0.539c18.596-6.897,30.82-25.761,32.699-50.461C232.136,380.53,226.673,374.168,219.379,373.613z"/>
<g>
	<path style="opacity:0.2;fill:#A35F00;enable-background:new    ;" d="M385.145,323.314c-9.369,4.437-20.253,3.727-24.862-0.419
		c-8.7-7.825-22.099-7.116-29.927,1.586c-7.826,8.701-7.116,22.1,1.586,29.927c10.562,9.499,25.007,14.291,40.042,14.291
		c5.034,0,10.134-0.544,15.177-1.622c0.914-5.586,1.389-11.306,1.389-17.129C388.551,340.773,387.365,331.855,385.145,323.314z"/>
	<path style="opacity:0.2;fill:#A35F00;enable-background:new    ;" d="M178.954,322.895c-4.61,4.145-15.492,4.855-24.861,0.419
		c-2.22,8.54-3.406,17.458-3.406,26.633c0,5.823,0.475,11.543,1.389,17.129c5.042,1.078,10.142,1.622,15.176,1.622
		c15.033,0,29.482-4.793,40.043-14.291c8.701-7.827,9.411-21.225,1.585-29.927C201.054,315.779,187.655,315.07,178.954,322.895z"/>
	<path style="opacity:0.2;fill:#A35F00;enable-background:new    ;" d="M233.215,388.827c-11.455,2.399-18.796,13.63-16.397,25.085
		c2.454,11.716,3.977,23.128,3.701,38.051c12.946,5.549,27.128,8.969,42.038,9.796c1.263-23.201-0.779-39.924-4.257-56.536
		C255.901,393.77,244.669,386.428,233.215,388.827z"/>
	<path style="opacity:0.2;fill:#A35F00;enable-background:new    ;" d="M337.659,441.768c-1.561-11.531-4.761-21.484-8.4-31.601
		c-3.961-11.013-16.098-16.727-27.113-12.768c-11.012,3.961-16.729,16.1-12.768,27.113c4.292,11.934,7.289,21.282,6.92,34.609
		C311.375,455.853,325.363,449.875,337.659,441.768z"/>
</g>
<ellipse style="fill:#FCD690;" cx="269.624" cy="349.944" rx="97.741" ry="90.821"/>
<path style="opacity:0.15;fill:#C17A00;enable-background:new    ;" d="M255.346,439.805
	c-44.664-29.324-30.822-89.426-23.24-115.709v-58.035c-35.362,13.67-60.228,46.078-60.228,83.888
	C171.878,395.603,208.132,433.385,255.346,439.805z"/>
<path style="fill:#EDA751;" d="M210.138,192.461c19.126-16.048,31.895-42.989,4.918-82.815
	c-27.19-40.14-67.672-50.201-99.276-46.478c-7.792,0.918-14.329,6.404-16.586,13.917c-9.155,30.477-6.275,72.092,28.533,105.838
	C162.263,216.407,191.011,208.509,210.138,192.461z"/>
<path style="fill:#FF91AB;" d="M97.921,81.749c-7.505,29.966-3.261,69.117,29.805,101.175
	c29.934,29.021,55.517,26.948,74.258,15.432C189.094,110.857,132.79,87.654,97.921,81.749z"/>
<path style="fill:#EDA751;" d="M329.101,192.461c-19.125-16.048-31.895-42.989-4.918-82.815
	c27.19-40.14,67.672-50.201,99.276-46.478c7.792,0.918,14.329,6.404,16.586,13.917c9.155,30.477,6.275,72.092-28.533,105.838
	C376.975,216.407,348.226,208.509,329.101,192.461z"/>
<path style="fill:#FF91AB;" d="M441.316,81.749c7.505,29.966,3.262,69.117-29.805,101.175
	c-29.934,29.021-55.517,26.948-74.258,15.432C350.143,110.857,406.447,87.654,441.316,81.749z"/>
<path style="fill:#FFDC9C;" d="M436.022,216.683c0,76.084-74.501,109.408-166.403,109.408s-166.403-33.324-166.403-109.408
	S177.717,78.921,269.619,78.921S436.022,140.6,436.022,216.683z"/>
<path style="fill:#B77866;" d="M283.103,289.689L283.103,289.689c7.583-6.866,19.113-6.937,26.781-0.167l7.782,6.871
	c8.693,7.676,22.062,6.418,29.171-2.745l4.789-6.173c4.306-5.55,11.198-8.449,18.176-7.643l0,0
	c18.262,2.107,32.819-14.996,27.82-32.687l-0.175-0.618c-2.024-7.164,0.078-14.86,5.465-19.999l7.425-7.085
	c11.187-10.674,9.065-29.084-4.257-36.933l-13.582-8.002c-5.266-3.103-8.833-8.434-9.692-14.485l-3.045-21.444
	c-1.679-11.822-13.237-19.58-24.814-16.654l-30.336,7.668c-6.112,1.545-12.595,0.131-17.509-3.818l-24.898-20.011
	c-7.35-5.907-17.82-5.907-25.171,0l-24.899,20.011c-4.914,3.949-11.397,5.363-17.509,3.818l-30.336-7.668
	c-11.577-2.926-23.135,4.831-24.814,16.654l-3.045,21.444c-0.859,6.051-4.426,11.382-9.692,14.485l-13.582,8.002
	c-13.322,7.849-15.443,26.259-4.257,36.933l7.425,7.085c5.386,5.139,7.489,12.835,5.465,19.999l-0.175,0.618
	c-4.999,17.691,9.557,34.794,27.82,32.687l0,0c6.978-0.805,13.87,2.093,18.176,7.643l4.789,6.173
	c7.109,9.163,20.477,10.421,29.171,2.745l7.782-6.871c7.668-6.77,19.198-6.699,26.781,0.167l0,0
	C263.789,296.618,275.449,296.618,283.103,289.689z"/>
<path style="opacity:0.15;fill:#C17A00;enable-background:new    ;" d="M180.768,100.191
	c-46.603,24.413-77.552,67.459-77.552,116.492c0,65.404,55.055,99.21,128.889,107.411
	C126.118,260.786,139.94,175.628,180.768,100.191z"/>
<circle style="fill:#78CFC0;" cx="205.524" cy="187.962" r="28.28"/>
<circle style="opacity:0.5;fill:#FFFFFF;enable-background:new    ;" cx="205.524" cy="187.962" r="18.716"/>
<circle style="fill:#78CFC0;" cx="333.715" cy="187.962" r="28.28"/>
<circle style="opacity:0.5;fill:#FFFFFF;enable-background:new    ;" cx="333.715" cy="187.962" r="18.716"/>
<g>
	<path style="fill:#DEE2E5;" d="M327.008,64.551H212.231c-12.022,0-21.768-9.746-21.768-21.768l0,0
		c0-10.899,8.061-20.118,18.863-21.573l99.461-13.392c21.165-2.85,39.989,13.609,39.989,34.965l0,0
		C348.775,54.805,339.03,64.551,327.008,64.551z"/>
	<path style="fill:#DEE2E5;" d="M366.246,100.191H172.991c-15.853,0-28.704-12.851-28.704-28.704l0,0
		c0-15.853,12.851-28.704,28.704-28.704h193.256c15.853,0,28.704,12.851,28.704,28.704l0,0
		C394.951,87.34,382.099,100.191,366.246,100.191z"/>
</g>
<path style="opacity:0.1;enable-background:new    ;" d="M366.246,100.191H172.991c-15.853,0-28.704-12.851-28.704-28.704l0,0
	c0-15.853,12.851-28.704,28.704-28.704h193.256c15.853,0,28.704,12.851,28.704,28.704l0,0
	C394.951,87.34,382.099,100.191,366.246,100.191z"/>
<path style="fill:#DEE2E5;" d="M387.597,141.17H151.64c-15.853,0-28.704-12.851-28.704-28.704l0,0
	c0-15.853,12.851-28.704,28.704-28.704h235.957c15.853,0,28.704,12.851,28.704,28.704l0,0
	C416.302,128.318,403.45,141.17,387.597,141.17z"/>
<path d="M184.867,230.163c-9.464,2.513-27.319,11.481-34.251,16.599c-3.333,2.46-4.04,7.156-1.58,10.488
	c1.471,1.993,3.74,3.046,6.04,3.046c1.547,0,3.108-0.477,4.448-1.466c5.485-4.049,21.803-12.207,29.192-14.169
	c4.003-1.063,6.387-5.17,5.324-9.174C192.978,231.483,188.872,229.103,184.867,230.163z M388.621,246.761
	c-6.932-5.117-24.787-14.085-34.251-16.599c-4.004-1.059-8.11,1.321-9.174,5.324c-1.063,4.003,1.321,8.111,5.324,9.174
	c7.39,1.962,23.708,10.12,29.192,14.169c1.34,0.989,2.901,1.466,4.448,1.466c2.299,0,4.569-1.054,6.04-3.046
	C392.661,253.917,391.953,249.221,388.621,246.761z M433.578,261.898c6.571-13.531,9.944-28.689,9.944-45.214
	c0-16.782-3.378-33.14-9.927-48.575c18.245-27.499,23.237-61.205,13.633-93.18c-3.123-10.398-12.108-17.938-22.892-19.209
	c-8.472-0.997-17.035-1.008-25.539-0.07c-5.886-12.047-18.263-20.367-32.549-20.367h-10.646c-1.694-9.509-6.563-18.25-13.946-24.705
	c-9.292-8.125-21.638-11.841-33.869-10.193l-99.461,13.393c-11.899,1.602-21.384,10.334-24.371,21.506h-10.962
	c-14.286,0-26.663,8.32-32.549,20.367c-8.506-0.939-17.07-0.928-25.54,0.071c-10.783,1.27-19.769,8.81-22.892,19.208
	c-9.604,31.975-4.612,65.681,13.632,93.18c-6.548,15.435-9.927,31.793-9.927,48.575c0,16.652,3.308,31.779,9.863,45.276
	c-4.366,3.354-7.718,7.919-9.584,13.244c-12.219,34.87-1.981,68.409,26.716,87.528c13.037,8.685,28.855,13.467,44.541,13.467
	c0.305,0,0.624-0.02,0.933-0.023c3.326,11.212,8.725,21.627,15.793,30.855c-5.053,0.272-11.168-2.66-16.698-8.181
	c-22.626-22.588-48.338-32.118-70.543-26.148c-17.798,4.785-30.6,18.658-36.047,39.064c-2.95,11.051,3.641,22.442,14.694,25.393
	c11.049,2.95,22.442-3.643,25.391-14.693c1.505-5.638,3.771-8.901,6.734-9.699c4.386-1.176,15.736,0.748,30.457,15.444
	c13.164,13.143,29.236,20.381,45.255,20.38c6.262,0,12.407-1.102,18.266-3.275c4.018-1.49,7.788-3.462,11.293-5.885
	c0.654,11.512,0.049,24.079-1.852,39.348c-1.954,15.699,9.229,30.061,24.926,32.015c1.182,0.147,2.384,0.222,3.572,0.222
	c14.432,0,26.661-10.812,28.444-25.149c1.719-13.809,2.548-26.182,2.542-37.606c5.997-0.042,11.876-0.55,17.597-1.496
	c1.293,7.873,1.227,17.022-1.58,30.82c-3.153,15.503,6.894,30.68,22.396,33.834c1.892,0.385,3.823,0.58,5.741,0.58
	c10.86,0,20.965-6.305,25.744-16.063c1.822-3.72,0.283-8.212-3.438-10.034c-3.718-1.82-8.212-0.283-10.034,3.438
	c-2.278,4.653-7.096,7.66-12.272,7.66c-0.917,0-1.842-0.094-2.751-0.279c-7.397-1.505-12.192-8.748-10.687-16.145
	c2.983-14.665,3.48-26.003,1.494-37.263c9.108-2.818,17.668-6.766,25.489-11.67c1.783,7.316,3.122,15.869,3.051,26.124
	c-0.029,4.142,3.306,7.523,7.448,7.552h0.053c4.118,0,7.47-3.324,7.499-7.448c0.103-14.735-2.425-26.597-5.093-35.809
	c14.141-12.239,24.687-28.051,29.977-45.886c0.308,0.004,0.628,0.023,0.933,0.023c15.686,0,31.504-4.783,44.541-13.467
	c28.697-19.119,38.935-52.658,26.716-87.528C441.365,269.846,437.983,265.257,433.578,261.898z M425.606,152.34
	c-3.229-5.444-6.883-10.736-10.951-15.855c5.685-6.396,9.147-14.809,9.147-24.02c0-6.194-1.566-12.029-4.32-17.133
	c5.152-1.929,10.5-3.524,16.01-4.774C438.062,105.572,438.492,128.633,425.606,152.34z M402.422,70.35
	c6.721-0.604,13.474-0.521,20.158,0.266c3.67,0.433,6.874,2.485,8.822,5.485c-7.749,1.803-15.225,4.218-22.341,7.229
	c-2.284-1.688-4.771-3.116-7.42-4.235c0.531-2.48,0.81-5.019,0.81-7.609C402.45,71.106,402.433,70.729,402.422,70.35z
	 M210.327,28.643l99.46-13.393c7.945-1.073,15.96,1.343,21.994,6.619c4.105,3.59,7.015,8.267,8.459,13.414H200.116
	C202.305,31.762,205.985,29.227,210.327,28.643z M172.991,50.283h193.255c11.692,0,21.204,9.512,21.204,21.204
	c0,1.628-0.18,3.223-0.537,4.773H152.324c-0.357-1.551-0.537-3.146-0.537-4.773C151.787,59.795,161.299,50.283,172.991,50.283z
	 M151.64,91.26h235.957c11.692,0,21.204,9.512,21.204,21.204s-9.512,21.204-21.204,21.204H151.64
	c-11.692,0-21.204-9.512-21.204-21.204S139.948,91.26,151.64,91.26z M116.658,70.617c6.683-0.787,13.435-0.871,20.158-0.267
	c-0.012,0.379-0.029,0.756-0.029,1.137c0,2.59,0.279,5.129,0.81,7.609c-2.649,1.119-5.136,2.548-7.42,4.235
	c-7.117-3.011-14.593-5.427-22.342-7.23C109.784,73.101,112.988,71.049,116.658,70.617z M103.746,90.558
	c5.51,1.25,10.858,2.844,16.01,4.774c-2.754,5.104-4.32,10.938-4.32,17.133c0,9.21,3.463,17.623,9.147,24.019
	c-4.068,5.118-7.722,10.411-10.951,15.855C100.745,128.633,101.175,105.573,103.746,90.558z M165.066,361.158
	c-12.035-0.417-24.043-4.251-34.038-10.909c-22.72-15.137-30.72-41.991-20.876-70.084c0.679-1.939,1.772-3.667,3.178-5.089
	c4.542,6.429,9.955,12.408,16.235,17.92c1.434,1.259,2.92,2.481,4.436,3.683c-2.406,13.053,1.82,23.859,12.208,30.779
	c5.765,3.841,12.828,6.001,19.586,6.311c-0.939,5.306-1.417,10.706-1.417,16.178C164.378,353.739,164.617,357.478,165.066,361.158z
	 M169.813,318.687c-4.386,0.577-10.436-0.478-15.288-3.711c-2.531-1.686-5.11-4.091-5.944-8.345
	c6.691,3.94,13.946,7.473,21.777,10.572C170.172,317.696,169.992,318.191,169.813,318.687z M196.274,431.254
	c-4.184,1.552-8.575,2.338-13.051,2.339c-12.017,0.001-24.325-5.68-34.657-15.996c-15.514-15.49-32.322-22.707-44.949-19.314
	c-5.854,1.574-13.611,6.376-17.332,20.316c-0.816,3.06-3.972,4.886-7.032,4.068c-3.061-0.817-4.886-3.972-4.069-7.032
	c4.007-15.009,13.045-25.112,25.449-28.447c16.89-4.539,37.319,3.579,56.05,22.278c11.074,11.056,24.378,15.174,35.596,11.016
	c0.945-0.35,1.864-0.765,2.761-1.23c2.935,2.757,6.045,5.352,9.31,7.771C201.837,428.771,199.141,430.189,196.274,431.254z
	 M252.99,484.016c-0.852,6.842-6.681,12.002-13.56,12.002c-0.569,0-1.146-0.036-1.717-0.107c-3.629-0.452-6.865-2.289-9.111-5.175
	c-2.247-2.885-3.236-6.473-2.784-10.102c1.93-15.5,2.592-28.471,2.024-40.449c8.655,3.511,17.908,5.966,27.576,7.189
	C255.469,458.412,254.677,470.46,252.99,484.016z M269.619,433.272c-2.104,0-4.19-0.072-6.259-0.204
	c-0.053-0.004-0.106-0.007-0.159-0.009c-46.775-3.05-83.823-39.158-83.823-83.111c0-9.585,1.73-18.91,5.149-27.805
	c8.914,2.739,18.417,5.022,28.536,6.806c0.441,0.078,0.879,0.115,1.311,0.115c3.571,0,6.736-2.56,7.378-6.199
	c0.719-4.08-2.004-7.969-6.084-8.689c-11.75-2.072-22.583-4.827-32.494-8.231c-0.332-0.135-0.668-0.252-1.007-0.337
	c-13.522-4.734-25.271-10.713-35.173-17.892c-0.158-0.121-0.32-0.238-0.49-0.347c-2.464-1.807-4.813-3.689-7.043-5.646
	c-19.073-16.741-28.744-38.623-28.744-65.04c0-15.864,3.456-31.331,10.14-45.859c0.123-0.234,0.234-0.474,0.33-0.718
	c4.031-8.607,9.201-16.877,15.465-24.698c4.571,2.088,9.644,3.262,14.989,3.262h235.957c5.345,0,10.418-1.174,14.989-3.262
	c6.263,7.821,11.433,16.092,15.464,24.698c0.097,0.245,0.208,0.484,0.33,0.718c6.683,14.527,10.14,29.995,10.14,45.859
	c0,16.503-3.743,31.179-11.168,43.944c-0.176,0.26-0.342,0.53-0.486,0.817c-5.878,9.831-13.973,18.509-24.255,25.999
	c-0.066,0.044-0.128,0.094-0.192,0.14c-2.826,2.049-5.805,4.013-8.959,5.882c-8.048,4.768-17.079,8.879-26.98,12.32
	c-0.075,0.025-0.149,0.049-0.223,0.077c-24.185,8.371-53.563,12.728-86.638,12.728c-6.619,0-13.198-0.179-19.553-0.533
	c-4.116-0.221-7.674,2.936-7.905,7.072c-0.23,4.136,2.936,7.675,7.072,7.905c6.631,0.369,13.49,0.556,20.386,0.556
	c31.848,0,60.611-3.915,85.088-11.46c3.422,8.898,5.153,18.227,5.153,27.816C359.86,395.893,319.378,433.272,269.619,433.272z
	 M369.424,318.687c-0.182-0.506-0.365-1.012-0.556-1.515c7.816-3.094,15.096-6.61,21.788-10.541
	c-0.834,4.254-3.413,6.659-5.945,8.345C379.86,318.209,373.809,319.263,369.424,318.687z M408.21,350.249
	c-9.995,6.658-22.003,10.492-34.038,10.909c0.449-3.68,0.688-7.419,0.688-11.21c0-5.473-0.478-10.872-1.417-16.178
	c6.757-0.31,13.821-2.469,19.586-6.31c10.392-6.923,14.617-17.734,12.206-30.792c8.138-6.463,15.018-13.705,20.605-21.654
	c1.437,1.434,2.556,3.183,3.246,5.151C438.93,308.256,430.93,335.112,408.21,350.249z M205.524,152.181
	c-19.729,0-35.779,16.05-35.779,35.778c0,7.029,2.046,13.585,5.561,19.121c-10.381-0.264-24.838,1.038-31.639,2.739
	c-4.018,1.004-6.461,5.077-5.456,9.095c0.852,3.408,3.91,5.683,7.27,5.683c0.602,0,1.214-0.073,1.825-0.226
	c6.613-1.653,24.809-2.979,32.389-1.977c3.113,0.413,6.031-1.153,7.497-3.724c5.365,3.215,11.636,5.069,18.333,5.069
	c19.728,0,35.778-16.05,35.778-35.779C241.302,168.231,225.252,152.181,205.524,152.181z M205.524,208.738
	c-11.457,0-20.779-9.321-20.779-20.779c0-11.457,9.321-20.778,20.779-20.778c11.457,0,20.778,9.321,20.778,20.778
	C226.302,199.417,216.981,208.738,205.524,208.738z M269.618,211.628c8.644,0,16.864-3.744,22.553-10.271
	c2.721-3.123,2.396-7.86-0.727-10.582c-3.123-2.721-7.861-2.396-10.582,0.727c-2.839,3.258-6.938,5.126-11.244,5.126
	c-4.307,0-8.405-1.869-11.244-5.126c-2.722-3.122-7.459-3.447-10.582-0.727c-3.123,2.722-3.448,7.459-0.727,10.582
	C252.755,207.884,260.975,211.628,269.618,211.628z M333.715,223.738c6.697,0,12.968-1.854,18.333-5.069
	c1.467,2.571,4.386,4.136,7.497,3.724c7.58-1.003,25.775,0.323,32.389,1.977c0.611,0.153,1.223,0.226,1.825,0.226
	c3.36,0,6.418-2.275,7.27-5.683c1.005-4.019-1.438-8.091-5.457-9.095c-6.802-1.701-21.259-3.003-31.639-2.739
	c3.515-5.536,5.561-12.092,5.561-19.121c0-19.728-16.05-35.778-35.779-35.778c-19.728,0-35.778,16.05-35.778,35.778
	C297.935,207.688,313.987,223.738,333.715,223.738z M333.715,167.181c11.457,0,20.779,9.321,20.779,20.778
	c0,11.458-9.321,20.779-20.779,20.779c-11.457,0-20.778-9.321-20.778-20.779C312.936,176.502,322.258,167.181,333.715,167.181z"/>
<g>
</g>
<g>
</g>
<g>
</g>
<g>
</g>
<g>
</g>
<g>
</g>
<g>
</g>
<g>
</g>
<g>
</g>
<g>
</g>
<g>
</g>
<g>
</g>
<g>
</g>
<g>
</g>
<g>
</g>
</svg>
