<?xml version="1.0" encoding="iso-8859-1"?>
<!-- Generator: Adobe Illustrator 19.0.0, SVG Export Plug-In . SVG Version: 6.00 Build 0)  -->
<svg version="1.1" id="Capa_1" xmlns="http://www.w3.org/2000/svg" xmlns:xlink="http://www.w3.org/1999/xlink" x="0px" y="0px"
	 viewBox="0 0 512 512" style="enable-background:new 0 0 512 512;" xml:space="preserve">
<g>
	<path style="fill:#EDA751;" d="M123.103,357.337c-25.954,0-59.97-5.729-83.919-30.965c-9.263-9.761-8.86-25.183,0.901-34.446
		c9.762-9.263,25.182-8.861,34.446,0.901c7.879,8.301,33.484,21.767,74.012,13.33c13.172-2.741,26.077,5.713,28.821,18.887
		c2.743,13.175-5.712,26.078-18.887,28.821C153.367,354.929,139.927,357.337,123.103,357.337z"/>
	<path style="fill:#EDA751;" d="M347.498,433.516c-1.688,0-3.383-0.093-5.081-0.282c-19.595-2.172-37.647-16.318-50.831-39.829
		c-4.113-7.336-1.5-16.618,5.836-20.73c7.338-4.116,16.618-1.501,20.73,5.835c8.008,14.283,18.334,23.423,27.62,24.453
		c6.2,0.687,12.385-2.331,18.359-8.979c27.392-30.494,73.906-37.327,108.195-15.899c7.133,4.457,9.3,13.853,4.842,20.984
		c-4.458,7.132-13.851,9.301-20.984,4.843c-18.898-11.811-50.023-11.143-69.396,10.424
		C375.569,426.828,361.778,433.516,347.498,433.516z"/>
</g>
<path style="fill:#FCD79D;" d="M456.185,403.914c7.134,4.458,16.527,2.289,20.984-4.843c4.458-7.133,2.29-16.528-4.842-20.984
	c-4.931-3.082-10.121-5.56-15.465-7.486c-7.884,6.493-11.974,19.26-13.265,27.811C448.151,399.707,452.414,401.557,456.185,403.914z
	"/>
<g>
	<path style="fill:#EDA751;" d="M307.417,504.5c-6.328,0-12.649-2.449-17.424-7.332c-18.434-18.855-28.423-37.57-30.541-57.217
		c-2.144-19.894,4.567-36.113,9.801-46.581c6.017-12.035,20.653-16.915,32.69-10.897c12.037,6.018,16.915,20.653,10.897,32.69
		c-5.531,11.061-11.799,23.597,11.999,47.937c9.407,9.622,9.234,25.048-0.389,34.456C319.711,502.19,313.561,504.5,307.417,504.5z"
		/>
	<path style="fill:#EDA751;" d="M170.034,504.5c-10.037,0-19.436-6.249-22.972-16.251c-16.485-46.629,7.925-86.164,27.182-100.129
		c10.896-7.9,26.129-5.473,34.028,5.42c7.9,10.894,5.474,26.128-5.419,34.029c-3.347,2.427-18.518,19.912-9.847,44.438
		c4.485,12.688-2.164,26.608-14.852,31.094C175.47,504.049,172.729,504.5,170.034,504.5z"/>
</g>
<g>
	<path style="opacity:0.2;fill:#A35F00;enable-background:new    ;" d="M148.543,306.156c-13.238,2.756-24.872,3.165-34.828,2.191
		c-2.508,9.527-3.848,19.483-3.848,29.727c0,6.409,0.521,12.706,1.525,18.855c4.034,0.281,7.959,0.406,11.711,0.406
		c16.824,0,30.264-2.408,35.374-3.472c13.175-2.743,21.63-15.647,18.887-28.821C174.621,311.87,161.714,303.415,148.543,306.156z"/>
	<path style="opacity:0.2;fill:#A35F00;enable-background:new    ;" d="M174.245,388.12c-9.419,6.831-20.067,19.781-26.564,36.682
		c12.166,11.639,26.748,21.037,42.981,27.463c1.64-13.822,9.838-22.989,12.192-24.697c10.893-7.901,13.319-23.135,5.419-34.029
		C200.374,382.646,185.14,380.22,174.245,388.12z"/>
	<path style="opacity:0.2;fill:#A35F00;enable-background:new    ;" d="M301.944,382.474c-12.037-6.018-26.673-1.139-32.69,10.897
		c-5.234,10.469-11.945,26.686-9.801,46.581c0.732,6.796,2.43,13.479,5.07,20.096c16.594-2.738,32.127-8.404,45.976-16.407
		c-5.653-12.473-1.483-20.828,2.341-28.476C318.858,403.128,313.98,388.492,301.944,382.474z"/>
	<path style="opacity:0.2;fill:#A35F00;enable-background:new    ;" d="M345.773,402.963c-9.287-1.03-19.612-10.171-27.62-24.453
		c-4.113-7.336-13.393-9.951-20.731-5.835c-7.336,4.113-9.949,13.395-5.836,20.73c10.288,18.348,23.54,30.99,38.178,36.692
		c9.864-8.347,18.38-18.07,25.209-28.844C351.926,402.729,348.851,403.304,345.773,402.963z"/>
</g>
<ellipse style="fill:#FCD690;" cx="241.664" cy="338.071" rx="112.377" ry="104.427"/>
<path style="opacity:0.15;fill:#C17A00;enable-background:new    ;" d="M225.251,441.391
	c-51.355-33.717-35.439-102.82-26.721-133.042v-66.728c-40.659,15.718-69.249,52.981-69.249,96.454
	C129.281,390.568,170.965,434.009,225.251,441.391z"/>
<path style="fill:#EDA751;" d="M173.272,156.998c21.99-18.453,36.673-49.429,5.655-95.22C147.663,15.627,101.119,4.057,64.78,8.339
	c-8.959,1.055-16.476,7.363-19.071,16.003c-10.526,35.043-7.216,82.89,32.807,121.692
	C118.226,184.53,151.28,175.451,173.272,156.998z"/>
<path style="fill:#FF91AB;" d="M44.247,29.702c-8.63,34.455-3.75,79.47,34.27,116.33c34.419,33.369,63.832,30.984,85.381,17.744
	C149.076,63.17,84.338,36.492,44.247,29.702z"/>
<path style="fill:#EDA751;" d="M310.053,156.998c-21.99-18.453-36.673-49.429-5.655-95.22
	c31.263-46.153,77.808-57.722,114.146-53.441c8.959,1.055,16.476,7.363,19.07,16.003c10.526,35.043,7.216,82.89-32.807,121.692
	C365.099,184.53,332.044,175.451,310.053,156.998z"/>
<path style="fill:#FF91AB;" d="M439.078,29.702c8.63,34.455,3.75,79.47-34.27,116.33c-34.419,33.369-63.832,30.984-85.381,17.744
	C334.248,63.17,398.987,36.492,439.078,29.702z"/>
<path style="fill:#FFDC9C;" d="M432.99,184.848c0,87.481-85.661,125.796-191.328,125.796S50.335,272.329,50.335,184.848
	s85.66-158.397,191.327-158.397S432.99,97.369,432.99,184.848z"/>
<path style="opacity:0.15;fill:#C17A00;enable-background:new    ;" d="M139.503,50.907c-53.584,28.07-89.169,77.563-89.169,133.942
	c0,75.201,63.3,114.07,148.195,123.501C76.666,235.556,92.559,137.642,139.503,50.907z"/>
<g>
	<ellipse style="fill:#FF91AB;" cx="135.157" cy="188.535" rx="34.642" ry="27.587"/>
	<ellipse style="fill:#FF91AB;" cx="322.932" cy="188.535" rx="34.642" ry="27.587"/>
</g>
<g>
	<path style="fill:#BD4568;" d="M155.347,117.802c-8.507-8.507-22.237-8.607-30.867-0.301c-8.905,8.571-8.739,23.042,0.001,31.782
		l20.96,20.96c5.47,5.47,14.34,5.47,19.809,0l20.961-20.96c8.74-8.74,8.907-23.211,0.001-31.782
		C177.584,109.194,163.854,109.295,155.347,117.802z"/>
	<path style="fill:#BD4568;" d="M241.662,339.483c-11.493-11.493-30.041-11.628-41.701-0.407
		c-12.031,11.58-11.806,31.13,0.002,42.937l28.317,28.317c7.39,7.39,19.373,7.39,26.762,0l28.317-28.317
		c11.808-11.808,12.033-31.358,0.001-42.937C271.703,327.856,253.155,327.992,241.662,339.483z"/>
	<path style="fill:#BD4568;" d="M302.741,117.802c8.507-8.507,22.236-8.607,30.867-0.301c8.906,8.571,8.739,23.042-0.001,31.782
		l-20.96,20.96c-5.47,5.47-14.34,5.47-19.81,0l-20.961-20.96c-8.74-8.74-8.907-23.211-0.001-31.782
		C280.504,109.194,294.234,109.295,302.741,117.802z"/>
</g>
<path style="fill:#EDA751;" d="M307.812,404.946c-12.921,0.001-26.072-3.948-37.978-11.895c-11.192-7.47-14.209-22.599-6.739-33.792
	c7.469-11.193,22.599-14.212,33.793-6.739c9.782,6.528,16.745,3.002,20.024,0.319c4.459-3.648,7.976-10.588,4.475-19.122
	c-5.109-12.449,0.844-26.682,13.293-31.79c12.453-5.108,26.684,0.845,31.79,13.294c11.03,26.882,3.516,57.156-18.697,75.332
	C336.075,400.127,322.086,404.946,307.812,404.946z"/>
<path d="M486.402,385.888c-1.365-5.916-4.953-10.946-10.102-14.163c-34.223-21.389-79.598-16.925-109.871,9.509
	c13.565-19.793,16.573-45.483,6.981-68.86c-2.684-6.545-7.313-11.716-12.945-15.127c7.21-3.087,13.994-6.502,20.309-10.244
	c39.066-23.145,59.716-58.471,59.716-102.155c0-19.4-3.955-38.276-11.539-55.997c21.05-31.426,26.848-70.043,15.847-106.668
	c-3.462-11.527-13.423-19.885-25.375-21.293c-36.5-4.302-72.433,7.124-99.362,31.408c-24.45-8.745-51.005-13.347-78.398-13.347
	s-53.948,4.602-78.398,13.347C136.338,8.015,100.412-3.411,63.903,0.89C51.95,2.298,41.989,10.657,38.527,22.183
	c-11.003,36.625-5.205,75.242,15.847,106.668c-7.585,17.722-11.54,36.598-11.54,55.998c0,35.869,13.432,65.508,39.921,88.097
	c12.737,10.861,28.212,19.812,46.236,26.831c-0.187,0.478-0.369,0.957-0.549,1.437c-26.81,1.258-43.313-8.115-48.471-13.55
	c-12.094-12.745-32.303-13.274-45.05-1.179c-12.744,12.096-13.272,32.304-1.178,45.049c26.121,27.524,63.011,33.302,89.359,33.302
	c0.713,0,1.428-0.005,2.146-0.014c4.168,15.81,11.939,30.308,22.457,42.689c-8.695,15.023-21.04,45.546-7.716,83.238
	c4.493,12.711,16.566,21.25,30.043,21.25c3.616,0,7.189-0.615,10.621-1.829c16.566-5.857,25.278-24.098,19.423-40.665
	c-3.885-10.99-1.967-20.065,0.728-26.201c12.758,4.331,26.516,6.698,40.857,6.698c3.95,0,7.879-0.196,11.777-0.56
	c3.973,18.215,14.225,35.614,31.192,52.969c6.046,6.183,14.139,9.588,22.785,9.588c8.376,0,16.287-3.225,22.275-9.081
	c12.563-12.284,12.791-32.499,0.508-45.062c-12.53-12.816-15.244-21.137-14.991-26.883c8.319,5.43,17.158,8.692,26.379,9.714
	c1.959,0.217,3.947,0.328,5.909,0.328c16.384,0,32.318-7.695,44.869-21.666c16.738-18.634,43.569-19.247,59.843-9.076
	c10.626,6.642,24.675,3.399,31.318-7.228C486.747,397.897,487.768,391.804,486.402,385.888z M121.781,338.074
	c0,3.971,0.226,7.893,0.661,11.758c-23.358-0.093-55.572-5.183-77.817-28.624c-6.402-6.746-6.123-17.442,0.622-23.843
	c6.748-6.401,17.446-6.121,23.844,0.624c5.061,5.332,13.553,10.263,23.298,13.527c9.726,3.258,20.337,4.864,31.654,4.815
	C122.544,323.436,121.781,330.698,121.781,338.074z M421.07,113.093c-9.712-16.886-22.923-32.438-39.335-46.025
	c-1.149-0.951-2.309-1.888-3.481-2.813c18.575-14.96,38.928-22.249,55.031-25.786C436.506,56.214,437.352,84.34,421.07,113.093z
	 M417.667,15.787c5.095,0.601,9.462,3.716,11.739,8.179c-18.657,4.18-42.354,12.941-63.679,31.2
	c-9.421-6.296-19.432-11.822-29.921-16.535C358.77,20.565,387.995,12.292,417.667,15.787z M65.659,15.787
	c29.663-3.497,58.895,4.778,81.862,22.844c-10.491,4.713-20.499,10.239-29.921,16.535c-21.324-18.261-45.023-27.021-63.68-31.201
	C56.197,19.502,60.563,16.387,65.659,15.787z M50.041,38.469c16.103,3.537,36.456,10.828,55.031,25.786
	c-1.172,0.925-2.333,1.862-3.481,2.813c-16.412,13.587-29.623,29.138-39.335,46.025C45.973,84.34,46.818,56.214,50.041,38.469z
	 M185.936,474.506c3.1,8.768-1.512,18.424-10.281,21.523c-1.821,0.644-3.712,0.971-5.62,0.971c-7.133,0-13.523-4.521-15.901-11.251
	c-10.322-29.194-2.53-53.311,4.516-67.002c8.356,7.498,17.869,13.88,28.262,18.883C183.131,446.375,180.508,459.152,185.936,474.506
	z M319.476,468.343c6.502,6.65,6.381,17.35-0.269,23.85c-3.17,3.099-7.357,4.806-11.79,4.806c-4.577,0-8.861-1.803-12.061-5.075
	c-14.629-14.963-23.525-29.673-27.051-44.763c11.272-2.42,22.098-6.347,32.136-11.619
	C301.578,445.891,307.77,456.371,319.476,468.343z M307.813,397.446c-11.699,0.001-23.392-3.676-33.814-10.632
	c-7.734-5.163-9.827-15.657-4.664-23.391c2.501-3.747,6.311-6.296,10.728-7.177c4.422-0.882,8.915,0.011,12.663,2.513
	c9.932,6.629,20.749,6.585,28.935-0.114c6.238-5.102,11.726-15.438,6.666-27.775c-0.46-1.121-0.799-2.282-1.008-3.453
	c-0.728-4.078-4.618-6.794-8.7-6.067c-4.078,0.727-6.794,4.622-6.067,8.7c0.395,2.219,1.034,4.411,1.898,6.515
	c2.384,5.813-0.804,9.259-2.287,10.472c-3.018,2.47-6.653,2.222-11.11-0.752c-7.079-4.727-15.577-6.412-23.924-4.747
	c-8.348,1.665-15.547,6.482-20.27,13.561c-9.754,14.614-5.801,34.438,8.813,44.194c12.897,8.607,27.469,13.157,42.143,13.156
	c0.355,0,0.708-0.017,1.063-0.023c-18.695,14.391-42.502,22.579-67.214,22.579c-57.833,0-104.882-43.482-104.882-96.929
	c0-9.326,1.409-18.441,4.195-27.229c0.051-0.143,0.096-0.288,0.138-0.435c0.616-1.908,1.302-3.799,2.048-5.676
	c11.76,3.671,24.44,6.627,38.047,8.828c4.086,0.659,7.94-2.118,8.601-6.207c0.662-4.089-2.117-7.94-6.206-8.601
	c-15.154-2.451-29.04-5.863-41.647-10.19c-0.306-0.13-0.615-0.241-0.928-0.327c-19.316-6.734-35.572-15.65-48.539-26.706
	c-22.994-19.608-34.653-45.408-34.653-76.683c0-83.205,82.465-150.897,183.828-150.897s183.828,67.692,183.828,150.897
	c0,38.637-17.617,68.664-52.362,89.251c-32.071,19.002-77.531,29.045-131.467,29.045c-8.224,0-16.383-0.24-24.248-0.713
	c-4.14-0.256-7.688,2.901-7.936,7.036c-0.249,4.135,2.901,7.688,7.036,7.937c8.165,0.491,16.627,0.74,25.149,0.74
	c31.484,0,60.329-3.334,85.652-9.792c2.27,2.18,5.766,2.775,8.701,1.221c0.49-0.26,0.998-0.498,1.511-0.708
	c8.606-3.528,18.477,0.599,22.006,9.203c9.77,23.809,3.136,50.607-16.509,66.681c-3.446,2.82-7.131,5.177-10.992,7.076
	c-0.12,0.056-0.239,0.112-0.356,0.174c-0.744,0.359-1.494,0.701-2.251,1.026c-0.174,0.068-0.344,0.143-0.513,0.224
	C322.271,396.014,315.158,397.446,307.813,397.446z M470.809,395.095c-2.258,3.615-7.036,4.717-10.649,2.458
	c-21.523-13.453-56.942-12.73-78.95,11.771c-9.81,10.92-21.466,16.691-33.711,16.691c-1.411,0-2.843-0.08-4.256-0.236
	c-6.486-0.719-12.796-2.987-18.845-6.746c4.006-3.556,7.765-7.382,11.236-11.465c3.109,1.542,6.227,2.505,9.314,2.848
	c6.018,0.668,15.196-0.775,24.763-11.422c24.99-27.819,67.395-34.078,98.641-14.55c1.751,1.094,2.971,2.804,3.435,4.815
	C472.25,391.273,471.903,393.344,470.809,395.095z M322.352,215.93c8.767,2.327,27.423,11.66,33.944,16.474
	c1.341,0.989,2.901,1.466,4.448,1.466c2.3,0,4.569-1.054,6.04-3.046c2.46-3.333,1.752-8.029-1.58-10.488
	c-7.897-5.829-28.229-16.042-39.003-18.903c-4.008-1.062-8.111,1.322-9.174,5.325C315.965,210.761,318.349,214.867,322.352,215.93z
	 M131.887,201.432c-10.773,2.86-31.106,13.074-39.004,18.903c-3.332,2.46-4.04,7.155-1.58,10.488c1.471,1.992,3.74,3.046,6.04,3.046
	c1.547,0,3.108-0.477,4.448-1.466c6.521-4.814,25.178-14.146,33.945-16.474c4.003-1.063,6.387-5.17,5.324-9.173
	C139.998,202.754,135.897,200.371,131.887,201.432z M125.795,190.3c4.09,0.543,7.874-2.346,8.418-6.453
	c0.542-4.106-2.347-7.876-6.453-8.418c-11.054-1.46-33.741,0.237-43.264,2.617c-4.019,1.004-6.461,5.077-5.457,9.095
	c0.853,3.408,3.91,5.683,7.271,5.683c0.603,0,1.215-0.073,1.825-0.226C95.997,190.632,116.805,189.112,125.795,190.3z
	 M332.292,190.3c8.995-1.189,29.799,0.332,37.662,2.297c0.61,0.153,1.222,0.226,1.824,0.226c3.36-0.001,6.418-2.275,7.271-5.683
	c1.004-4.018-1.44-8.09-5.458-9.095c-9.521-2.379-32.209-4.076-43.264-2.616c-4.106,0.542-6.995,4.312-6.453,8.418
	C324.417,187.953,328.19,190.837,332.292,190.3z M254.128,166.488c2.721-3.123,2.396-7.86-0.727-10.582
	c-3.123-2.723-7.859-2.396-10.582,0.726c-3.478,3.991-8.499,6.28-13.776,6.28c-5.277,0-10.298-2.289-13.775-6.279
	c-2.721-3.123-7.46-3.448-10.581-0.727c-3.123,2.721-3.449,7.458-0.728,10.581c6.326,7.261,15.47,11.425,25.083,11.425
	C238.657,177.911,247.8,173.748,254.128,166.488z"/>
<g>
</g>
<g>
</g>
<g>
</g>
<g>
</g>
<g>
</g>
<g>
</g>
<g>
</g>
<g>
</g>
<g>
</g>
<g>
</g>
<g>
</g>
<g>
</g>
<g>
</g>
<g>
</g>
<g>
</g>
</svg>
