<?xml version="1.0" encoding="iso-8859-1"?>
<!-- Generator: Adobe Illustrator 19.0.0, SVG Export Plug-In . SVG Version: 6.00 Build 0)  -->
<svg version="1.1" id="Capa_1" xmlns="http://www.w3.org/2000/svg" xmlns:xlink="http://www.w3.org/1999/xlink" x="0px" y="0px"
	 viewBox="0 0 511.999 511.999" style="enable-background:new 0 0 511.999 511.999;" xml:space="preserve">
<path style="fill:#EDA751;" d="M129.56,401.972c-2.99,0-5.973-1.186-8.186-3.534c-4.257-4.52-4.044-11.635,0.476-15.892
	c34.087-32.105,65.583-22.757,88.578-15.93c10.424,3.095,19.427,5.768,25.903,4.019c23.688-6.394,34.367-30.721,32.387-50.364
	c-0.622-6.177,3.881-11.69,10.059-12.312c6.191-0.629,11.691,3.882,12.313,10.059c1.569,15.583-2.068,31.563-10.243,44.993
	c-8.876,14.582-22.604,25-38.657,29.332c-12.628,3.408-25.607-0.446-38.158-4.172c-21.647-6.426-42.091-12.495-66.764,10.744
	C135.094,400.958,132.324,401.972,129.56,401.972z"/>
<path style="fill:#FCD79D;" d="M121.374,398.438c2.212,2.349,5.196,3.534,8.186,3.534c2.765,0,5.535-1.014,7.706-3.058
	c2.742-2.582,5.429-4.784,8.074-6.682c-2.328-9.269-8.949-14.498-14.665-17.138c-2.919,2.193-5.862,4.663-8.824,7.453
	C117.331,386.804,117.117,393.919,121.374,398.438z"/>
<path style="fill:#EDA751;" d="M161.537,216.736c1.847-21.112-6.658-44.945-46.753-52.657
	c-40.411-7.773-70.747,10.486-87.481,31.689c-4.126,5.227-4.757,12.444-1.602,18.308c12.798,23.787,39.502,47.035,80.649,46.398
	C147.175,259.843,159.69,237.848,161.537,216.736z"/>
<path style="fill:#FF91AB;" d="M27.738,217.639c13.481,22.49,39.525,43.44,78.614,42.835c35.385-0.548,49.494-17.147,53.831-35.306
	C99.93,180.388,52.21,200.256,27.738,217.639z"/>
<path style="fill:#EDA751;" d="M232.938,145.335c-21.111,1.847-44.945-6.659-52.657-46.752
	c-7.773-40.411,10.486-70.747,31.689-87.481c5.228-4.126,12.444-4.757,18.309-1.602c23.787,12.798,47.035,39.502,46.398,80.649
	C276.044,130.974,254.05,143.488,232.938,145.335z"/>
<path style="fill:#FF91AB;" d="M233.841,11.536c22.49,13.481,43.44,39.525,42.835,78.614c-0.548,35.385-17.147,49.494-35.306,53.831
	C196.589,83.728,216.457,36.008,233.841,11.536z"/>
<path style="fill:#FFDC9C;" d="M311.65,95.7c45.665,45.665,20.951,110.38-34.207,165.539
	c-55.159,55.159-119.874,79.873-165.539,34.208c-45.665-45.665-37.968-127.399,17.19-182.557
	C184.251,57.732,265.984,50.036,311.65,95.7z"/>
<path style="opacity:0.15;fill:#C17A00;enable-background:new    ;" d="M88.53,178.984c-13.318,42.623-6.058,87.034,23.372,116.464
	c39.255,39.255,92.588,26.502,141.826-12.891C152.117,308.173,109.302,248.765,88.53,178.984z"/>
<path style="fill:#FF91AB;" d="M204.24,188.039c-2.808,2.808-6.275,4.55-9.904,5.234l15.649,15.649c4.18,4.18,10.957,4.18,15.137,0
	c4.18-4.18,4.18-10.957,0-15.138l-15.649-15.649C208.789,181.763,207.047,185.231,204.24,188.039z"/>
<path style="opacity:0.05;enable-background:new    ;" d="M204.24,188.039c-2.808,2.808-6.275,4.55-9.904,5.234l9.352,9.352
	c3.628-0.684,7.096-2.426,9.904-5.234s4.55-6.275,5.234-9.904l-9.352-9.352C208.789,181.763,207.047,185.231,204.24,188.039z"/>
<g>
	
		<ellipse transform="matrix(-0.7071 -0.7071 0.7071 -0.7071 106.8451 537.264)" style="fill:#FF91AB;" cx="164.694" cy="246.504" rx="20.365" ry="25.573"/>
	
		<ellipse transform="matrix(0.7071 0.7071 -0.7071 0.7071 181.9476 -142.2758)" style="fill:#FF91AB;" cx="262.716" cy="148.492" rx="20.365" ry="25.573"/>
</g>
<path style="fill:#78CFC0;" d="M454.193,181.47L454.193,181.47c-45.549-45.549-119.399-45.549-164.947,0L162.731,307.985
	c-12.021,12.021-12.021,31.512,0,43.532l121.415,121.415c12.021,12.022,31.512,12.022,43.532,0l126.515-126.515
	C499.743,300.868,499.743,227.019,454.193,181.47z"/>
<path style="opacity:0.05;enable-background:new    ;" d="M206.031,264.685l-43.3,43.3c-12.021,12.021-12.021,31.512,0,43.532
	l121.415,121.415c12.021,12.021,31.512,12.021,43.532,0l98.4-98.4C314.612,430.856,218.415,303.806,206.031,264.685z"/>
<path style="opacity:0.1;enable-background:new    ;" d="M155.047,320.788c0.027,0.027,0.049,0.057,0.076,0.084l15.803,15.802
	c3.861,3.861,8.922,5.792,13.983,5.792s10.122-1.931,13.984-5.792c7.723-7.723,7.722-20.244-0.001-27.967l-15.803-15.802
	c-0.903-0.903-1.876-1.69-2.895-2.382l-17.462,17.462C159.027,311.689,156.469,316.102,155.047,320.788z"/>
<path style="opacity:0.1;enable-background:new    ;" d="M337.148,187.246c11.349-1.118,19.643-11.224,18.525-22.573l-1.578-16.027
	c-13.932,2.118-27.552,6.764-40.123,13.937l0.604,6.137c1.049,10.661,10.031,18.627,20.524,18.627
	C335.777,187.347,336.46,187.314,337.148,187.246z"/>
<path style="fill:#B77866;" d="M245.67,434.456l-44.461-44.461l-60.835,60.835c-12.278,12.278-12.278,32.183,0,44.461l0,0
	c12.278,12.278,32.184,12.278,44.461,0L245.67,434.456z"/>
<g style="opacity:0.1;">
	<path d="M225.995,348.148L225.995,348.148c-8.593-8.593-8.593-22.524,0-31.117l106.583-106.583c8.593-8.593,22.524-8.593,31.117,0
		l0,0c8.593,8.593,8.593,22.524,0,31.117L257.112,348.148C248.519,356.74,234.588,356.74,225.995,348.148z"/>
	<path d="M287.515,409.668L287.515,409.668c8.593,8.593,22.524,8.593,31.117,0l106.583-106.583c8.593-8.593,8.593-22.524,0-31.117
		l0,0c-8.593-8.593-22.524-8.593-31.117,0L287.515,378.552C278.923,387.145,278.923,401.075,287.515,409.668z"/>
</g>
<rect x="179.863" y="407.187" transform="matrix(-0.7071 -0.7071 0.7071 -0.7071 60.6359 873.8091)" style="opacity:0.1;enable-background:new    ;" width="62.853" height="34.319"/>
<g>
	<path style="fill:#EDA751;" d="M186.696,330.755c-4.603,0-9.206-1.756-12.719-5.268l-14.374-14.373
		c-7.024-7.025-7.025-18.414-0.001-25.438c7.025-7.025,18.413-7.024,25.438,0l14.374,14.374c7.025,7.025,7.025,18.414,0.001,25.438
		C195.902,328.999,191.299,330.755,186.696,330.755z"/>
	<path style="fill:#EDA751;" d="M337.103,176.292c-9.14,0-16.964-6.939-17.879-16.226l-1.657-16.832
		c-0.974-9.887,6.252-18.69,16.138-19.664c9.88-0.968,18.689,6.251,19.663,16.138l1.657,16.832
		c0.974,9.886-6.252,18.69-16.138,19.664C338.289,176.263,337.693,176.292,337.103,176.292z"/>
</g>
<path d="M189.991,186.078c-4.123-0.289-7.713,2.836-7.996,6.968c-0.284,4.133,2.836,7.713,6.969,7.997
	c0.609,0.042,1.218,0.063,1.825,0.063c7.015,0,13.767-2.775,18.756-7.763c5.42-5.42,8.227-12.922,7.7-20.581
	c-0.284-4.133-3.88-7.248-7.997-6.968c-4.133,0.284-7.252,3.865-6.968,7.997c0.229,3.332-0.989,6.592-3.342,8.945
	C196.583,185.088,193.315,186.303,189.991,186.078z M237.806,152.164c1.919,0,3.839-0.732,5.304-2.197
	c2.929-2.929,2.929-7.678,0-10.607l-6.386-6.386c-2.93-2.929-7.678-2.929-10.607,0s-2.929,7.678,0,10.606l6.386,6.386
	C233.967,151.432,235.887,152.164,237.806,152.164z M282.667,114.885c-6.353,3.813-19.373,15.024-24.496,21.708
	c-2.521,3.288-1.897,7.995,1.39,10.515c1.361,1.043,2.965,1.548,4.557,1.548c2.254,0,4.482-1.011,5.958-2.938
	c3.885-5.068,15.422-15.038,20.311-17.971c3.552-2.131,4.703-6.738,2.571-10.29C290.825,113.906,286.222,112.755,282.667,114.885z
	 M267.442,162.068c1.392,2.397,3.907,3.736,6.493,3.736c1.278,0,2.573-0.327,3.758-1.015c5.523-3.206,19.988-8.027,25.625-8.876
	c4.096-0.617,6.916-4.438,6.299-8.534c-0.616-4.097-4.449-6.913-8.533-6.299c-7.326,1.104-23.637,6.508-30.92,10.736
	C266.58,153.896,265.363,158.486,267.442,162.068z M155.563,226.907c1.465,1.464,3.385,2.197,5.304,2.197s3.839-0.732,5.304-2.197
	c2.929-2.929,2.929-7.678,0-10.606l-6.386-6.386c-2.93-2.929-7.678-2.929-10.607,0s-2.929,7.678,0,10.606L155.563,226.907z
	 M459.497,176.167c-25.885-25.884-62.228-38.989-98.536-35.877l-0.129-1.316c-1.304-13.232-12.572-23.122-25.636-22.98
	c-4.325-9.201-10.439-17.791-18.244-25.596c-10.166-10.166-22.01-17.854-34.909-23.137c-5.732-27.563-23.112-50.862-48.211-64.366
	c-8.517-4.579-18.919-3.67-26.509,2.32c-21.458,16.934-34.459,41.733-36.155,68.615c-16.876,8.106-33.008,19.385-47.38,33.756
	c-14.151,14.151-25.564,30.238-33.826,47.383c-26.855,1.714-51.625,14.713-68.544,36.151c-5.99,7.588-6.9,17.993-2.32,26.509
	c13.488,25.069,36.747,42.437,64.266,48.19c5.057,12.279,12.252,23.452,21.461,33.113c1.474,1.546,3.45,2.325,5.43,2.325
	c1.859,0,3.722-0.687,5.174-2.071c2.998-2.858,3.112-7.605,0.254-10.604c-8.619-9.041-15.193-19.662-19.585-31.416
	c-0.094-0.327-0.206-0.647-0.343-0.956c-5.368-14.837-7.294-31.436-5.486-48.923c0.278-2.69,0.649-5.374,1.096-8.05
	c0.006-0.032,0.01-0.064,0.016-0.096c1.897-11.311,5.281-22.475,10.039-33.238c0.19-0.343,0.352-0.704,0.487-1.077
	c7.624-16.883,18.612-32.757,32.489-46.635c52.145-52.145,129.282-59.857,171.951-17.19c6.074,6.074,10.898,12.668,14.428,19.658
	c-7.231,5.124-11.6,13.876-10.672,23.309l1.138,11.547c-9.981,5.571-19.147,12.499-27.299,20.651l-99.699,99.699
	c-2.589-1.368-5.366-2.26-8.2-2.675c1.626-4.642,3.46-9.136,4.948-11.701c2.079-3.582,0.861-8.172-2.722-10.251
	c-3.581-2.079-8.172-0.86-10.251,2.722c-2.982,5.138-6.543,14.757-8.774,22.556c-1.764,1.054-3.428,2.337-4.946,3.855
	c-4.814,4.814-7.465,11.215-7.465,18.023c0,3.861,0.856,7.591,2.472,10.975c-2.963-0.805-5.864-1.807-8.674-3.011
	c-3.811-1.633-8.217,0.132-9.849,3.939s0.132,8.216,3.938,9.848c3.86,1.654,7.856,3.002,11.942,4.041
	c-1.544,10.734,1.472,21.96,8.803,30.507c-13.722,3.465-26.512,10.859-38.76,22.396c-7.522,7.085-7.878,18.97-0.793,26.493
	c3.526,3.745,8.5,5.892,13.646,5.892c4.794,0,9.357-1.811,12.849-5.099c17.155-16.158,31.092-16.281,46.443-12.63l-53.781,53.782
	c-7.355,7.354-11.406,17.133-11.406,27.535c0,10.401,4.051,20.18,11.405,27.534c7.354,7.354,17.133,11.405,27.534,11.405
	c10.401,0,20.18-4.05,27.535-11.405l55.532-55.531l33.173,33.173c7.464,7.463,17.267,11.195,27.07,11.195
	c9.804,0,19.606-3.732,27.07-11.195l96.803-96.803c2.929-2.929,2.929-7.678,0-10.606c-2.929-2.929-7.677-2.929-10.608,0
	l-96.803,96.802c-9.076,9.078-23.85,9.078-32.926,0L168.035,346.214c-5.906-5.906-8-14.409-6.079-22.144l6.719,6.719
	c4.813,4.815,11.213,7.466,18.021,7.466c6.81,0,13.211-2.651,18.023-7.465c9.937-9.937,9.937-26.107-0.001-36.043l-9.07-9.07
	l98.902-98.902c6.154-6.155,12.972-11.503,20.325-15.996c4.368,7.833,12.704,13.015,22.228,13.015c0.837,0,1.686-0.041,2.521-0.124
	c13.985-1.378,24.243-13.876,22.866-27.862l-0.058-0.587c31.868-2.678,63.746,8.841,86.459,31.555
	c42.552,42.552,42.552,111.789,0,154.342l-4.859,4.86c-2.929,2.929-2.929,7.678,0.001,10.607c1.464,1.464,3.384,2.196,5.303,2.196
	s3.839-0.732,5.304-2.197l4.859-4.86C507.898,303.32,507.898,224.567,459.497,176.167z M38.15,219.755
	c9.418-5.775,22.06-11.513,37.157-13.573c-1.496,14.918-0.576,29.299,2.618,42.718C58.055,242.474,45.419,229.722,38.15,219.755z
	 M77.693,190.812c-18.998,1.75-34.819,8.592-46.472,15.595c-0.06-2.126,0.598-4.253,1.971-5.992
	c6.3-7.984,22.846-25.328,50.16-29.648C81.003,177.353,79.11,184.049,77.693,190.812z M186.955,67.247
	c4.296-27.372,21.669-43.949,29.663-50.257c1.74-1.373,3.866-2.031,5.991-1.971c-7.014,11.671-13.867,27.526-15.604,46.565
	C200.295,62.992,193.594,64.883,186.955,67.247z M222.369,59.207c2.048-15.144,7.801-27.82,13.589-37.258
	c9.986,7.283,22.765,19.954,29.181,39.889C251.475,58.595,237.015,57.74,222.369,59.207z M235.063,434.456l-55.531,55.532
	c-4.522,4.521-10.534,7.012-16.929,7.012c-6.395,0-12.406-2.49-16.928-7.012c-4.521-4.522-7.012-10.534-7.012-16.928
	c0-6.395,2.49-12.407,7.013-16.928l55.531-55.531L235.063,434.456z M168.269,367.662l7.16,7.16
	c-13.441-0.253-27.745,3.975-43.305,18.632c-0.697,0.657-1.608,1.018-2.564,1.018c-0.604,0-1.762-0.153-2.726-1.176
	c-0.925-0.982-1.034-2.099-1.017-2.678c0.018-0.579,0.193-1.688,1.174-2.612C140.021,375.735,153.556,369.06,168.269,367.662z
	 M197.182,312.768c0,2.801-1.09,5.435-3.071,7.416c-1.98,1.98-4.614,3.071-7.416,3.071c-2.801,0-5.434-1.091-7.415-3.072
	l-14.374-14.373c-1.98-1.98-3.072-4.614-3.072-7.415c0-1.803,0.457-3.533,1.308-5.068c0.146,0.031,0.289,0.066,0.438,0.089
	c0.379,0.057,0.756,0.085,1.128,0.085c3.375,0,6.361-2.285,7.233-5.57c0.127-0.004,0.253-0.018,0.38-0.018
	c2.686,0,5.371,1.022,7.415,3.066l14.374,14.374C196.091,307.333,197.182,309.966,197.182,312.768z M338.153,168.74
	c-0.349,0.034-0.702,0.052-1.05,0.052c-5.406,0-9.883-4.067-10.414-9.461l-0.002-0.018c0-0.001,0-0.002,0-0.003l-0.004-0.041
	l-1.652-16.769c-0.495-5.028,2.664-9.587,7.305-11.037c0.094-0.023,0.187-0.047,0.281-0.074c0.587-0.166,1.192-0.291,1.82-0.353
	c0.347-0.034,0.69-0.051,1.032-0.051c5.327,0,9.903,4.054,10.436,9.46l1.657,16.831C348.128,163.03,343.908,168.173,338.153,168.74z
	 M133.66,276.756c1.208,0.725,2.538,1.069,3.852,1.069c2.548,0,5.032-1.299,6.438-3.643c2.932-4.887,12.9-16.424,17.97-20.31
	c3.287-2.52,3.91-7.227,1.39-10.515c-2.52-3.287-7.227-3.912-10.515-1.39c-6.686,5.124-17.896,18.145-21.708,24.498
	C128.956,270.019,130.109,274.625,133.66,276.756z"/>
<g>
</g>
<g>
</g>
<g>
</g>
<g>
</g>
<g>
</g>
<g>
</g>
<g>
</g>
<g>
</g>
<g>
</g>
<g>
</g>
<g>
</g>
<g>
</g>
<g>
</g>
<g>
</g>
<g>
</g>
</svg>
