<?xml version="1.0" encoding="iso-8859-1"?>
<!-- Generator: Adobe Illustrator 19.0.0, SVG Export Plug-In . SVG Version: 6.00 Build 0)  -->
<svg version="1.1" id="Capa_1" xmlns="http://www.w3.org/2000/svg" xmlns:xlink="http://www.w3.org/1999/xlink" x="0px" y="0px"
	 viewBox="0 0 512.002 512.002" style="enable-background:new 0 0 512.002 512.002;" xml:space="preserve">
<path style="fill:#EDA751;" d="M123.389,419.602c-8.179,0-16.676-1.698-25.576-5.089c-24.563-9.357-33.416-25.331-39.881-36.995
	c-6.875-12.404-10.326-18.631-31.201-19.8c-8.27-0.463-14.597-7.542-14.134-15.811c0.463-8.27,7.566-14.602,15.811-14.134
	c37.404,2.094,47.58,20.454,55.756,35.205c5.59,10.085,10.005,18.052,24.325,23.507c25.077,9.553,37.314-3.643,60.455-31.979
	l0.852-1.043c5.239-6.414,14.687-7.366,21.1-2.126s7.366,14.687,2.126,21.101l-0.848,1.039
	c-11.666,14.286-22.684,27.778-36.903,36.633C145.102,416.443,134.541,419.602,123.389,419.602z"/>
<path style="fill:#FCD79D;" d="M12.596,341.908c-0.463,8.269,5.865,15.348,14.134,15.811c6.035,0.338,10.607,1.101,14.233,2.312
	c4.411-9.792,5.204-21.126,4.571-29.791c-4.983-1.239-10.637-2.102-17.128-2.465C20.162,327.306,13.059,333.639,12.596,341.908z"/>
<g>
	<path style="fill:#EDA751;" d="M289.428,504.5c-0.792,0-1.59-0.039-2.393-0.118c-13.187-1.306-22.818-13.055-21.512-26.24
		c3.194-32.257-0.633-57.636-4.881-69.565c-4.444-12.484,2.074-26.206,14.557-30.651c12.484-4.444,26.205,2.073,30.651,14.557
		c8.023,22.534,10.798,56.325,7.425,90.388C312.05,495.251,301.614,504.5,289.428,504.5z"/>
	<path style="fill:#EDA751;" d="M204.351,504.5c-0.791,0-1.59-0.039-2.394-0.118c-13.187-1.306-22.816-13.055-21.51-26.242
		c3.195-32.255-0.632-57.633-4.88-69.564c-4.444-12.484,2.073-26.206,14.557-30.651c12.481-4.444,26.206,2.073,30.65,14.557
		c8.024,22.536,10.799,56.327,7.425,90.389C226.972,495.252,216.538,504.5,204.351,504.5z"/>
</g>
<g>
	<path style="opacity:0.2;fill:#A35F00;enable-background:new    ;" d="M190.124,377.924c-12.484,4.444-19.002,18.168-14.557,30.651
		c2.647,7.434,5.129,20.089,5.852,36.372c14.828,6.142,31.094,9.756,48.184,10.256c0.056-24.038-3-46.351-8.829-62.723
		C216.33,379.997,202.604,373.48,190.124,377.924z"/>
	<path style="opacity:0.2;fill:#A35F00;enable-background:new    ;" d="M305.85,392.48c-4.446-12.485-18.168-19.001-30.651-14.557
		c-12.483,4.444-19.001,18.168-14.557,30.651c2.981,8.371,5.75,23.368,6.036,42.711c17.254-4.252,33.118-11.758,46.806-21.776
		C312.098,415.509,309.527,402.81,305.85,392.48z"/>
</g>
<ellipse style="fill:#FCD690;" cx="233.706" cy="333.022" rx="110.667" ry="102.828"/>
<path style="opacity:0.15;fill:#C18F00;enable-background:new    ;" d="M217.544,434.762
	c-50.571-33.201-34.898-101.251-26.313-131.009v-65.708c-40.038,15.478-68.191,52.172-68.191,94.98
	C123.039,384.716,164.086,427.493,217.544,434.762z"/>
<path style="fill:#EDA751;" d="M166.358,154.713c21.654-18.171,36.112-48.673,5.569-93.765
	C141.142,15.501,95.307,4.109,59.524,8.325c-8.822,1.039-16.224,7.25-18.78,15.758c-10.365,34.507-7.105,81.624,32.306,119.833
	C112.153,181.825,144.704,172.884,166.358,154.713z"/>
<path style="fill:#FF91AB;" d="M39.304,29.363c-8.498,33.928-3.693,78.255,33.746,114.552
	c33.893,32.859,62.857,30.511,84.076,17.473C142.533,62.319,78.783,36.049,39.304,29.363z"/>
<path style="fill:#EDA751;" d="M301.051,154.713c-21.655-18.171-36.113-48.673-5.569-93.765
	C326.267,15.5,372.101,4.109,407.884,8.325c8.822,1.039,16.224,7.25,18.78,15.758c10.366,34.507,7.105,81.624-32.306,119.833
	C355.256,181.825,322.705,172.884,301.051,154.713z"/>
<path style="fill:#FF91AB;" d="M428.104,29.363c8.498,33.928,3.693,78.255-33.746,114.552
	c-33.893,32.859-62.857,30.511-84.076,17.473C324.875,62.319,388.625,36.049,428.104,29.363z"/>
<path style="fill:#FFDC9C;" d="M422.109,182.138c0,86.144-84.352,123.874-188.406,123.874S45.299,268.282,45.299,182.138
	S129.651,26.161,233.705,26.161S422.109,95.994,422.109,182.138z"/>
<path style="opacity:0.15;fill:#C18F00;enable-background:new    ;" d="M133.105,50.243C80.34,77.884,45.299,126.621,45.299,182.137
	c0,74.052,62.334,112.327,145.932,121.614C71.228,232.071,86.879,135.654,133.105,50.243z"/>
<g>
	<ellipse style="fill:#FF91AB;" cx="141.248" cy="185.775" rx="34.109" ry="27.169"/>
	<ellipse style="fill:#FF91AB;" cx="326.153" cy="185.775" rx="34.109" ry="27.169"/>
</g>
<path style="fill:#FFFFFF;" d="M260.813,153.647h-54.218c-11.946,0-21.63,9.684-21.63,21.63v9.967
	c0,26.918,21.822,48.739,48.739,48.739l0,0c26.918,0,48.739-21.821,48.739-48.739v-9.967
	C282.443,163.332,272.76,153.647,260.813,153.647z"/>
<path style="opacity:0.1;enable-background:new    ;" d="M210.178,227.932c4.471,2.469,9.372,4.249,14.561,5.215v-79.499h-14.561
	V227.932z M242.67,153.647v79.499c5.189-0.965,10.089-2.745,14.56-5.214v-74.285H242.67z"/>
<path style="fill:#82C7E6;" d="M445.696,217.662l-92.922,33.821c-11.572,4.212-24.535,1.322-33.222-7.406l0,0
	c-6.557-6.587-9.883-15.726-9.094-24.985l0,0c1.045-12.27,9.118-22.816,20.69-27.028l56.745-20.654
	c15.429-5.616,29.22-14.976,40.136-27.24l0,0c10.411-11.697,29.711-6.42,32.724,8.946l1.377,7.026
	c2.172,11.081,2.788,22.409,1.831,33.66l0,0C463.038,204.633,455.911,213.944,445.696,217.662z"/>
<g style="opacity:0.3;">
	<circle style="fill:#FFFFFF;" cx="432.071" cy="170.346" r="7.115"/>
	<circle style="fill:#FFFFFF;" cx="337.253" cy="209.915" r="7.115"/>
	<circle style="fill:#FFFFFF;" cx="387.372" cy="202.805" r="7.115"/>
</g>
<path style="opacity:0.1;enable-background:new    ;" d="M342.22,188.032l-11.073,4.03c-11.572,4.212-19.645,14.759-20.69,27.028
	l0,0c-0.788,9.26,2.538,18.399,9.094,24.985l0,0c8.687,8.728,21.65,11.618,33.222,7.406l16.549-6.023
	C332.957,243.564,335.708,206.076,342.22,188.032z"/>
<path style="fill:#7694E4;" d="M210.957,360.347L210.957,360.347c4.723,3.648,10.985,4.623,16.593,2.582l97.002-35.305
	c5.608-2.041,9.779-6.813,11.051-12.643l2.692-12.333l145.821-53.075l13.843,38.031c4.609,12.663-1.92,26.663-14.583,31.272
	L54.048,475.139c-12.663,4.609-26.663-1.92-31.272-14.583l-5.497-15.104c-4.609-12.663,1.92-26.663,14.583-31.272l157.245-57.233
	C196.49,354.259,204.738,355.543,210.957,360.347z"/>
<path style="fill:#DEE2E5;" d="M453.665,202.029l-16.782-1.88c-7.91-0.886-15.778,1.978-21.267,7.741l-12.445,13.065
	c-5.49,5.763-13.358,8.627-21.267,7.741l-17.931-2.009c-7.91-0.886-15.778,1.978-21.267,7.741l-11.648,12.228
	c-5.826,6.116-7.684,15.004-4.795,22.941l12.031,33.053l145.821-53.075l-12.031-33.052
	C469.195,208.584,462.059,202.969,453.665,202.029z"/>
<g style="opacity:0.1;">
	<path d="M432.069,248.881c-3.064,0-5.94-1.891-7.049-4.937l-4.003-10.999c-1.417-3.892,0.591-8.196,4.482-9.613
		c3.896-1.418,8.197,0.591,9.613,4.483l4.003,10.999c1.417,3.892-0.591,8.196-4.482,9.613
		C433.787,248.735,432.919,248.881,432.069,248.881z"/>
	<path d="M378.595,272.189c-3.064,0-5.94-1.892-7.049-4.938l-2.784-7.652c-1.416-3.893,0.591-8.196,4.483-9.612
		c3.896-1.42,8.196,0.591,9.612,4.483l2.784,7.652c1.416,3.892-0.591,8.196-4.483,9.612
		C380.312,272.043,379.446,272.189,378.595,272.189z"/>
</g>
<path style="fill:#82C7E6;" d="M85.413,428.901l96.924-35.277c9.811-3.571,14.87-14.419,11.299-24.229l-4.53-12.446L56.654,405.157
	l4.53,12.446C64.755,427.413,75.602,432.472,85.413,428.901z"/>
<g>
	<path style="fill:#EDA751;" d="M177.308,401.656c-18.508,0-37.436-9.108-49.816-24.085c-13.813-16.714-18.511-38.642-13.229-61.749
		c2.953-12.918,15.82-20.993,28.737-18.043c12.918,2.953,20.995,15.82,18.043,28.737c-1.94,8.485-0.783,15.376,3.437,20.483
		c3.933,4.759,9.55,6.782,13.107,6.666c13.252-0.486,24.358,9.887,24.825,23.13c0.469,13.243-9.888,24.357-23.13,24.825
		C178.626,401.644,177.966,401.656,177.308,401.656z"/>
	<path style="fill:#EDA751;" d="M384.429,385.92c-3.485,0-7.025-0.763-10.378-2.374c-11.943-5.741-16.97-20.077-11.23-32.019
		c1.532-3.19,2.078-5.391,3.428-11.288c0.216-0.942,0.44-1.923,0.681-2.953c3.017-12.903,15.928-20.916,28.824-17.903
		c12.904,3.016,20.919,15.921,17.904,28.824c-0.224,0.957-0.432,1.868-0.633,2.743c-1.551,6.774-3.017,13.172-6.956,21.366
		C401.943,380.906,393.364,385.92,384.429,385.92z"/>
</g>
<path d="M132.018,187.62c4.105,0.542,7.876-2.346,8.418-6.453c0.543-4.107-2.347-7.875-6.453-8.418
	c-10.895-1.439-33.259,0.232-42.645,2.579c-4.019,1.004-6.462,5.077-5.457,9.095c0.852,3.408,3.91,5.683,7.27,5.683
	c0.602,0,1.214-0.073,1.825-0.226C102.71,187.946,123.174,186.449,132.018,187.62z M147.176,203.683
	c-1.063-4.003-5.169-6.385-9.173-5.325c-10.621,2.819-30.662,12.887-38.446,18.633c-3.333,2.46-4.04,7.156-1.58,10.488
	c1.471,1.992,3.74,3.046,6.04,3.046c1.547,0,3.108-0.477,4.448-1.466c6.415-4.735,24.764-13.914,33.387-16.204
	C145.855,211.793,148.238,207.686,147.176,203.683z M297.308,162.072c4.143,0,7.5-3.358,7.5-7.5c0-3.267,2.657-5.924,5.924-5.924
	c3.267,0,5.924,2.658,5.924,5.924c0,4.142,3.357,7.5,7.5,7.5s7.5-3.358,7.5-7.5c0-11.538-9.387-20.923-20.924-20.923
	c-11.537,0-20.924,9.387-20.924,20.923C289.808,158.714,293.166,162.072,297.308,162.072z M505.004,285.04l-13.843-38.031
	l-12.03-33.052c-1.854-5.095-4.98-9.436-8.957-12.735c0.64-2.211,1.062-4.477,1.258-6.784c1.017-11.949,0.363-23.973-1.943-35.739
	l-1.377-7.027c-1.946-9.925-9.215-17.747-18.971-20.414c-9.639-2.635-19.741,0.305-26.465,7.661
	c-1.313-4.02-2.792-7.978-4.45-11.858c20.749-30.974,26.463-69.037,15.621-105.137c-3.423-11.395-13.269-19.657-25.084-21.049
	c-35.99-4.239-71.411,7.028-97.954,30.974c-23.792-8.508-49.897-13.191-77.104-13.191c-26.964,0-53.104,4.527-77.175,13.127
	C129.994,7.885,94.607-3.359,58.647,0.877C46.831,2.269,36.984,10.53,33.562,21.925c-10.838,36.079-5.135,74.12,15.586,105.085
	C41.689,144.457,37.8,163.041,37.8,182.138c0,43.06,20.353,77.879,58.86,100.694c7.403,4.386,15.452,8.32,24.091,11.791
	c-6.748,4.295-11.879,11.136-13.799,19.53c-5.109,22.346-1.677,43.758,9.635,61.21l-8.159,2.97
	c-9.57-4.34-12.736-10.022-17.706-18.988c-8.591-15.502-20.358-36.732-61.891-39.057c-5.996-0.346-11.76,1.679-16.245,5.685
	c-4.487,4.008-7.144,9.519-7.48,15.518c-0.336,6,1.685,11.771,5.689,16.25c4.005,4.48,9.515,7.132,15.515,7.468
	c16.741,0.937,18.504,4.117,25.06,15.947c2.424,4.373,5.235,9.435,9.1,14.633l-6.383,2.323l0,0l-24.792,9.024
	c-8.007,2.914-14.4,8.772-18.001,16.495c-3.601,7.722-3.979,16.385-1.065,24.39l5.498,15.105c2.915,8.006,8.772,14.399,16.495,18
	c4.289,2,8.867,3.006,13.462,3.006c3.679,0,7.369-0.645,10.929-1.94l116.976-42.576c0.718,9.692,0.909,22.5-0.605,37.789
	c-0.83,8.372,1.65,16.565,6.983,23.07c5.333,6.506,12.88,10.545,21.247,11.374c1.037,0.104,2.092,0.156,3.137,0.156
	c16.247,0,29.707-12.206,31.31-28.39c1.332-13.444,1.727-27.214,1.198-40.308c7.456-0.183,14.778-1.012,21.893-2.444
	c0.627,9.357,0.767,21.79-0.694,36.543c-0.829,8.372,1.651,16.565,6.984,23.07c5.334,6.505,12.882,10.545,21.249,11.373
	c1.036,0.104,2.092,0.156,3.137,0.156c14.849,0,27.805-10.555,30.808-25.096c0.838-4.057-1.772-8.024-5.828-8.862
	c-4.057-0.836-8.025,1.772-8.861,5.828c-1.571,7.608-8.351,13.131-16.119,13.131c-0.551,0-1.105-0.027-1.654-0.082
	c-4.385-0.434-8.338-2.55-11.131-5.957c-2.793-3.407-4.092-7.697-3.657-12.082c1.424-14.388,1.588-28.747,0.51-41.938
	c11.306-3.762,21.884-9.101,31.399-15.803c1.356,9.39,2.139,19.628,2.266,30.237c0.049,4.111,3.396,7.411,7.497,7.411
	c0.03,0,0.06,0,0.092,0c4.142-0.049,7.459-3.447,7.409-7.589c-0.174-14.641-1.52-28.717-3.894-41.045
	c9.444-9.037,17.303-19.673,23.087-31.602l13.835-5.035c2.814,7.11,8.198,13.224,15.617,16.791c4.3,2.066,8.885,3.114,13.626,3.114
	c12.041,0,23.188-7.009,28.401-17.855c4.303-8.951,5.932-16.063,7.508-22.942l0.039-0.172c0.186-0.812,0.378-1.655,0.584-2.537
	c0.029-0.122,0.049-0.245,0.076-0.367l64.901-23.622C502.466,319.909,511.02,301.568,505.004,285.04z M457.547,210.834
	c0.092,0.047,0.187,0.083,0.28,0.126c3.296,1.653,5.893,4.512,7.209,8.126l9.465,26.005l-131.725,47.944l-9.465-26.004
	c-1.928-5.297-0.71-11.123,3.178-15.204l11.647-12.228c3.393-3.562,8.153-5.57,13.032-5.57c0.655,0,1.314,0.036,1.97,0.11
	l17.932,2.008c10.166,1.139,20.469-2.605,27.532-10.021l12.445-13.064c3.848-4.041,9.455-6.083,15.002-5.46l16.782,1.88
	c1.653,0.185,3.221,0.642,4.666,1.322C457.514,210.813,457.53,210.824,457.547,210.834z M423.611,158.996
	c0.095-0.078,0.19-0.155,0.28-0.238c3.444-2.987,6.703-6.191,9.74-9.604c2.952-3.317,7.27-4.6,11.557-3.427
	c4.283,1.171,7.352,4.472,8.205,8.83l1.378,7.027c2.038,10.397,2.616,21.022,1.718,31.581c-0.048,0.561-0.131,1.117-0.225,1.669
	c-0.583-0.1-1.169-0.193-1.763-0.26l-16.782-1.88c-10.172-1.136-20.47,2.607-27.532,10.022l-12.445,13.064
	c-3.848,4.04-9.458,6.083-15.002,5.46l-17.932-2.008c-10.168-1.143-20.47,2.605-27.532,10.021l-10.613,11.142
	c-0.622-0.509-1.226-1.04-1.794-1.611c-5.011-5.034-7.539-11.981-6.938-19.059c0.794-9.324,6.989-17.417,15.782-20.617
	l56.745-20.654C402.591,174.041,413.85,167.404,423.611,158.996z M410.341,111.302c-10.449-18.148-24.752-34.335-41.96-47.904
	c18.202-14.626,38.128-21.782,53.925-25.265C425.454,55.569,426.252,83.123,410.341,111.302z M407.007,15.773
	c4.929,0.58,9.159,3.57,11.402,7.861c-18.352,4.129-41.62,12.755-62.57,30.679c-9.147-6.08-18.949-11.48-29.287-16.126
	C349.133,20.455,377.852,12.335,407.007,15.773z M60.402,15.773c29.121-3.431,57.811,4.664,80.381,22.354
	c-10.247,4.614-20.028,10.016-29.237,16.165C90.6,36.381,67.342,27.761,48.999,23.634C51.242,19.343,55.473,16.353,60.402,15.773z
	 M45.103,38.132c15.793,3.482,35.714,10.636,53.913,25.256c-1.116,0.882-2.223,1.774-3.317,2.681
	c-16.117,13.343-29.099,28.609-38.66,45.184C41.156,83.091,41.956,55.559,45.103,38.132z M104.305,269.926
	C70.128,249.678,52.8,220.142,52.8,182.138c0-81.871,81.154-148.478,180.905-148.478c26.953,0,52.724,4.883,75.938,13.699
	c0.082,0.035,0.166,0.061,0.249,0.093c15.076,5.748,29.066,13.161,41.598,21.975c0.425,0.377,0.881,0.702,1.362,0.966
	c21.819,15.659,39.089,35.617,49.766,58.485c0.127,0.343,0.286,0.674,0.463,0.997c3.022,6.616,5.489,13.473,7.361,20.536
	c-7.572,5.92-16.061,10.655-25.115,13.951l-24.036,8.749c-8.599-0.812-20.417-1.344-27.864-0.361
	c-4.106,0.543-6.995,4.311-6.453,8.418c0.193,1.463,0.803,2.766,1.686,3.82l-0.077,0.028c-14.262,5.191-24.308,18.316-25.596,33.44
	c-0.978,11.48,3.124,22.746,11.252,30.912c1.397,1.404,2.901,2.689,4.493,3.861c-1.877,6.066-1.79,12.68,0.486,18.934l5.224,14.354
	c-26.144,7.957-56.614,11.999-90.736,11.999c-37.568,0-70.949-4.956-98.447-14.476c-0.068-0.025-0.136-0.047-0.205-0.07
	C123.772,280.046,113.478,275.362,104.305,269.926z M121.575,317.494c2.026-8.865,10.892-14.429,19.755-12.403
	c1.045,0.239,2.066,0.578,3.035,1.007c2.855,1.266,6.077,0.603,8.209-1.423c24.154,5.833,51.455,8.837,81.13,8.837
	c35.929,0,68.13-4.338,95.874-12.882l0.925,2.542l-2.228,10.21c-0.729,3.337-3.08,6.027-6.29,7.195l-97.001,35.306
	c-3.209,1.168-6.739,0.619-9.443-1.469c-7.025-5.427-16.04-7.467-24.646-5.718c-4.228-1.823-8.838-2.698-13.555-2.525
	c-1.162,0.059-4.564-0.902-7.08-3.947c-2.697-3.263-3.32-7.853-1.907-14.034c0.923-4.038-1.602-8.06-5.64-8.983
	c-4.036-0.922-8.059,1.602-8.983,5.64c-3.097,13.545,0.992,22.122,4.968,26.932c5.946,7.194,14.036,9.553,19.164,9.383
	c4.393-0.164,8.585,1.4,11.805,4.396c3.23,3.006,5.095,7.092,5.251,11.505c0.156,4.403-1.413,8.602-4.416,11.826
	c-3.003,3.223-7.082,5.084-11.487,5.24c-4.249,0.151-8.552-0.271-12.794-1.198c-0.064-0.017-0.127-0.032-0.191-0.047
	c-12.467-2.774-24.378-9.949-32.758-20.088C120.978,357.916,116.823,338.277,121.575,317.494z M126.587,387.684
	c4.889,4.863,10.403,9.001,16.327,12.307l-60.065,21.862c-2.862,1.042-5.959,0.907-8.72-0.381c-2.761-1.287-4.855-3.573-5.897-6.435
	l-1.965-5.398L126.587,387.684z M27.149,350.231c-1.999-0.112-3.835-0.996-5.169-2.488c-1.335-1.493-2.008-3.416-1.896-5.416
	c0.112-1.996,0.998-3.831,2.495-5.169c1.495-1.336,3.404-2.011,5.409-1.896c33.271,1.862,41.58,16.854,49.616,31.352
	c3.601,6.498,7.08,12.771,13.194,18.133l-15.456,5.626c-4.775-5.539-7.974-11.301-10.851-16.492
	C56.614,359.67,50.996,351.565,27.149,350.231z M220.736,482.13c-0.84,8.477-7.883,14.87-16.384,14.87
	c-0.551,0-1.107-0.027-1.655-0.082c-4.384-0.435-8.336-2.55-11.129-5.957c-2.793-3.407-4.092-7.698-3.657-12.083
	c1.804-18.222,1.333-33.237,0.338-43.994c10.762,4.197,22.005,6.846,33.584,7.918C222.403,455.529,222.037,468.988,220.736,482.13z
	 M305.78,401.299c-0.451,0.314-0.861,0.676-1.229,1.075c-11.515,10.058-25.422,17.564-40.694,21.854
	c-0.146,0.031-0.286,0.074-0.428,0.113c-9.477,2.62-19.466,4.016-29.725,4.016c-1.51,0-3.012-0.038-4.511-0.097
	c-0.013,0-0.026-0.001-0.039-0.001c-6.188-0.245-12.277-0.991-18.238-2.234l108.075-39.336
	C315.094,391.993,310.669,396.886,305.78,401.299z M406.356,346.501c-0.212,0.906-0.409,1.771-0.6,2.604l-0.039,0.169
	c-1.519,6.629-2.83,12.354-6.405,19.792c-2.73,5.682-8.572,9.353-14.883,9.353c-2.475,0-4.873-0.55-7.129-1.634
	c-8.196-3.94-11.658-13.814-7.719-22.009c1.897-3.947,2.591-6.796,3.981-12.869c0.212-0.931,0.435-1.9,0.671-2.914
	c1.776-7.599,8.574-12.742,16.063-12.742c1.239,0,2.496,0.141,3.753,0.434C402.906,328.755,408.425,337.644,406.356,346.501z
	 M480.809,311.829l-60.319,21.954c-0.794-2.659-1.939-5.232-3.443-7.654c-4.439-7.147-11.394-12.136-19.586-14.051
	c-16.909-3.954-33.882,6.593-37.835,23.503c-0.242,1.043-0.471,2.035-0.686,2.982c-1.341,5.856-1.736,7.336-2.878,9.712
	c-1.558,3.242-2.501,6.621-2.891,10.009l-175.53,63.888c-0.003,0.001-0.006,0.002-0.009,0.003l-126.15,45.916
	c-4.241,1.544-8.83,1.344-12.921-0.564c-4.091-1.908-7.194-5.294-8.738-9.536l-5.498-15.104c-1.544-4.242-1.344-8.831,0.564-12.922
	s5.294-7.194,9.536-8.738l17.746-6.459l1.965,5.398c3.898,10.711,14.049,17.375,24.837,17.375c2.992,0,6.034-0.513,9.004-1.594
	l76.853-27.972c4.117,0.774,8.293,1.181,12.477,1.181c0.747,0,1.496-0.013,2.24-0.04c8.407-0.297,16.195-3.85,21.929-10.005
	c5.735-6.155,8.729-14.175,8.432-22.58c-0.108-3.075-0.657-6.066-1.604-8.905c4.018,2.546,8.604,3.868,13.255,3.868
	c2.869,0,5.761-0.5,8.556-1.517l97.001-35.306c8.071-2.938,13.983-9.701,15.814-18.092l1.811-8.297l134.892-49.097l11.277,30.983
	C494.095,298.926,489.566,308.642,480.809,311.829z M143.254,162.072c4.142,0,7.5-3.358,7.5-7.5c0-3.267,2.657-5.924,5.924-5.924
	s5.924,2.658,5.924,5.924c0,4.142,3.358,7.5,7.5,7.5s7.5-3.358,7.5-7.5c0-11.538-9.387-20.923-20.924-20.923
	s-20.924,9.387-20.924,20.923C135.754,158.714,139.112,162.072,143.254,162.072z M177.466,185.245
	c0,31.01,25.228,56.239,56.239,56.239s56.239-25.229,56.239-56.239v-9.967c0-16.063-13.068-29.13-29.13-29.13h-54.218
	c-16.063,0-29.13,13.068-29.13,29.13L177.466,185.245L177.466,185.245z M192.466,175.278c0-7.792,6.339-14.131,14.131-14.131h54.218
	c7.792,0,14.131,6.339,14.131,14.131v9.967c0,22.739-18.5,41.239-41.239,41.239s-41.239-18.501-41.239-41.239v-9.967H192.466z"/>
<g>
</g>
<g>
</g>
<g>
</g>
<g>
</g>
<g>
</g>
<g>
</g>
<g>
</g>
<g>
</g>
<g>
</g>
<g>
</g>
<g>
</g>
<g>
</g>
<g>
</g>
<g>
</g>
<g>
</g>
</svg>
