<?xml version="1.0" encoding="iso-8859-1"?>
<!-- Generator: Adobe Illustrator 19.0.0, SVG Export Plug-In . SVG Version: 6.00 Build 0)  -->
<svg version="1.1" id="Capa_1" xmlns="http://www.w3.org/2000/svg" xmlns:xlink="http://www.w3.org/1999/xlink" x="0px" y="0px"
	 viewBox="0 0 511.998 511.998" style="enable-background:new 0 0 511.998 511.998;" xml:space="preserve">
<path style="fill:#EDA751;" d="M126.085,397.36c28.539-2.975,53.329-15.647,68.91-35.899c6.8-8.839,5.148-21.517-3.691-28.317
	c-8.839-6.801-21.517-5.147-28.317,3.691c-8.845,11.497-28.679,22.919-57.81,20.491c-11.109-0.928-20.873,7.333-21.799,18.447
	c-0.926,11.113,7.333,20.873,18.447,21.799C110.118,398.263,118.245,398.177,126.085,397.36z"/>
<path style="fill:#78CFC0;" d="M10.56,377.952c10.817,11.273,32.208,29.833,58.052,32.784c20.911,2.387,40.195-12.401,41.958-33.373
	c1.722-20.487-13.636-38.365-34.08-39.812c-27.042-1.914-52.062,14.181-64.781,24.15C6.59,365.712,6.057,373.258,10.56,377.952z"/>
<path style="fill:#EDA751;" d="M97.449,453.163c-4.405,0-8.682-2.309-11.002-6.418c-3.426-6.07-1.284-13.768,4.785-17.195
	c15.012-8.475,29.966-8.909,43.16-9.291c23.042-0.668,42.943-1.245,66.469-45.172c3.291-6.145,10.941-8.458,17.083-5.167
	c6.145,3.291,8.458,10.939,5.167,17.083c-30.429,56.816-62.344,57.742-87.988,58.485c-11.755,0.341-21.907,0.635-31.482,6.041
	C101.681,452.637,99.55,453.163,97.449,453.163z"/>
<path style="fill:#FCD79D;" d="M106.874,423.286c-5.159,1.339-10.396,3.303-15.642,6.265c-6.07,3.427-8.212,11.125-4.785,17.195
	c2.32,4.109,6.597,6.418,11.002,6.418c2.101,0,4.232-0.526,6.193-1.632c3.847-2.172,7.791-3.51,11.891-4.367
	C115.08,436.503,110.616,427.793,106.874,423.286z"/>
<g>
	<path style="fill:#EDA751;" d="M217.422,503.02c-9.895,0-18.537-7.278-19.967-17.357c-3.533-24.891-0.751-46.269,1.281-61.878
		c0.633-4.87,1.181-9.076,1.456-12.662c0.854-11.12,10.562-19.436,21.68-18.586c11.119,0.854,19.441,10.561,18.587,21.68
		c-0.357,4.647-0.998,9.569-1.676,14.78c-1.924,14.783-4.105,31.539-1.343,50.991c1.567,11.042-6.113,21.263-17.155,22.83
		C219.323,502.954,218.366,503.02,217.422,503.02z"/>
	<path style="fill:#EDA751;" d="M294.575,503.02c-0.945,0-1.9-0.066-2.863-0.203c-11.041-1.567-18.722-11.788-17.155-22.83
		c2.761-19.452,0.581-36.208-1.343-50.991c-0.678-5.211-1.318-10.132-1.676-14.78c-0.854-11.119,7.467-20.826,18.586-21.68
		c11.115-0.86,20.826,7.467,21.681,18.586c0.276,3.586,0.823,7.792,1.456,12.662c2.031,15.609,4.813,36.986,1.281,61.878
		C313.112,495.742,304.47,503.02,294.575,503.02z"/>
</g>
<g>
	<path style="opacity:0.2;fill:#A35F00;enable-background:new    ;" d="M217.945,369.921c-6.143-3.291-13.793-0.978-17.083,5.167
		c-13.549,25.298-25.896,36.216-38.332,41.056c5.197,7.125,11.287,13.628,18.118,19.367c13.96-7.871,28.372-22.191,42.465-48.506
		C226.403,380.86,224.089,373.211,217.945,369.921z"/>
	<path style="opacity:0.2;fill:#A35F00;enable-background:new    ;" d="M313.262,423.785c-0.634-4.87-1.181-9.076-1.456-12.662
		c-0.854-11.12-10.566-19.446-21.681-18.586c-11.119,0.854-19.441,10.561-18.586,21.68c0.357,4.647,0.998,9.569,1.676,14.78
		c1.266,9.727,2.634,20.315,2.641,31.957c14.4-2.407,27.866-7.388,39.849-14.412C315.111,438.04,314.122,430.391,313.262,423.785z"
		/>
	<path style="opacity:0.2;fill:#A35F00;enable-background:new    ;" d="M221.872,392.537c-11.118-0.849-20.826,7.467-21.68,18.586
		c-0.276,3.586-0.823,7.792-1.456,12.662c-0.86,6.606-1.85,14.255-2.443,22.756c11.983,7.024,25.448,12.005,39.849,14.412
		c0.007-11.641,1.375-22.23,2.641-31.957c0.678-5.211,1.318-10.132,1.676-14.78C241.313,403.098,232.991,393.391,221.872,392.537z"
		/>
</g>
<ellipse style="fill:#FCD690;" cx="255.999" cy="355.859" rx="93.14" ry="86.54"/>
<path style="opacity:0.15;fill:#C18F00;enable-background:new    ;" d="M242.398,441.482c-42.56-27.942-29.37-85.212-22.145-110.257
	v-55.3c-33.696,13.026-57.39,43.907-57.39,79.935C162.863,399.363,197.408,435.364,242.398,441.482z"/>
<path style="opacity:0.2;fill:#A35F00;enable-background:new    ;" d="M191.304,333.143c-8.839-6.801-21.517-5.147-28.317,3.691
	c-8.208,10.668-25.882,21.263-51.66,20.798c6.695,14.948,17.396,27.725,30.733,36.955c21.737-5.348,40.343-16.761,52.935-33.127
	C201.796,352.622,200.143,339.944,191.304,333.143z"/>
<path style="fill:#EDA751;" d="M385.912,397.36c-28.539-2.975-53.329-15.647-68.91-35.899c-6.8-8.839-5.148-21.517,3.691-28.317
	c8.839-6.801,21.517-5.147,28.317,3.691c8.845,11.497,28.679,22.919,57.81,20.491c11.109-0.928,20.873,7.333,21.799,18.447
	c0.926,11.113-7.333,20.873-18.447,21.799C401.879,398.263,393.752,398.177,385.912,397.36z"/>
<path style="fill:#78CFC0;" d="M501.437,377.952c-10.817,11.273-32.208,29.833-58.052,32.784
	c-20.911,2.387-40.195-12.401-41.958-33.373c-1.723-20.487,13.636-38.365,34.08-39.812c27.042-1.914,52.062,14.181,64.781,24.15
	C505.408,365.712,505.94,373.258,501.437,377.952z"/>
<path style="opacity:0.2;fill:#A35F00;enable-background:new    ;" d="M320.693,333.143c8.839-6.801,21.517-5.147,28.317,3.691
	c8.208,10.668,25.882,21.263,51.66,20.798c-6.695,14.948-17.396,27.725-30.733,36.955c-21.737-5.348-40.343-16.761-52.935-33.127
	C310.201,352.622,311.854,339.944,320.693,333.143z"/>
<path style="fill:#7694E4;" d="M435.511,178.553c16.431-14.507,26.726-35.805,26.483-59.504
	c-0.427-41.689-33.998-76.053-75.668-77.401c-19.792-0.64-37.989,6.084-52.094,17.625c-2.034,1.665-5.077,0.863-6.061-1.575
	c-11.519-28.561-39.486-48.722-72.172-48.722s-60.653,20.161-72.173,48.722c-0.983,2.438-4.026,3.24-6.061,1.576
	c-14.105-11.541-32.302-18.266-52.094-17.625c-41.669,1.348-75.24,35.712-75.667,77.401c-0.243,23.699,10.051,44.996,26.482,59.503
	c2.116,1.868,1.539,5.343-1.061,6.44c-25.688,10.844-43.544,36.595-42.721,66.415c1.011,36.642,30.739,66.604,67.372,67.897
	c6.406,0.226,12.625-0.414,18.555-1.808c2.461-0.578,4.767,1.311,4.765,3.839c0,0.018,0,0.035,0,0.053
	c0,38.199,30.967,69.166,69.166,69.166c25.635,0,48.005-13.951,59.951-34.672c1.537-2.667,5.376-2.571,6.813,0.151
	c11.625,22.014,34.733,37.024,61.361,37.024c38.312,0,69.37-31.058,69.37-69.37c0-0.654-0.009-1.306-0.027-1.955
	c-0.071-2.536,2.214-4.477,4.694-3.944c5.868,1.261,12.005,1.792,18.323,1.465c36.417-1.884,65.578-32.018,66.264-68.478
	c0.555-29.552-17.229-55.016-42.734-65.783C433.974,183.896,433.394,180.422,435.511,178.553z"/>
<g style="opacity:0.1;">
	<path d="M255.999,116.931c-4.142,0-7.5-3.358-7.5-7.5V59.076c0-4.142,3.358-7.5,7.5-7.5s7.5,3.358,7.5,7.5v50.355
		C263.499,113.573,260.141,116.931,255.999,116.931z"/>
	<path d="M73.596,264.23c-3.384,0-6.456-2.307-7.285-5.743c-0.971-4.027,1.505-8.079,5.532-9.05l75.88-18.308
		c4.029-0.97,8.079,1.505,9.05,5.532c0.971,4.027-1.505,8.079-5.532,9.05l-75.88,18.308C74.77,264.162,74.178,264.23,73.596,264.23z
		"/>
	<path d="M183.614,358.212c-0.543,0-1.094-0.059-1.646-0.183c-4.042-0.906-6.585-4.916-5.68-8.958l11.315-50.517
		c0.906-4.042,4.92-6.583,8.958-5.68c4.042,0.906,6.585,4.916,5.68,8.958l-11.316,50.517
		C190.145,355.84,187.047,358.212,183.614,358.212z"/>
	<path d="M328.383,358.212c-3.434,0-6.53-2.372-7.312-5.862l-11.316-50.517c-0.905-4.042,1.638-8.052,5.68-8.958
		c4.04-0.904,8.052,1.638,8.958,5.68l11.315,50.517c0.905,4.042-1.638,8.052-5.68,8.958
		C329.477,358.153,328.926,358.212,328.383,358.212z"/>
	<path d="M438.401,264.23c-0.583,0-1.174-0.068-1.766-0.211l-75.88-18.308c-4.026-0.972-6.503-5.023-5.532-9.05
		c0.972-4.026,5.026-6.501,9.05-5.532l75.88,18.308c4.026,0.972,6.503,5.023,5.532,9.05
		C444.857,261.922,441.786,264.23,438.401,264.23z"/>
</g>
<path style="fill:#EDA751;" d="M199.32,205.793c18.225-15.292,30.392-40.963,4.687-78.912
	c-25.909-38.249-64.483-47.836-94.598-44.288c-7.424,0.875-13.654,6.102-15.805,13.262c-8.723,29.041-5.98,68.694,27.189,100.851
	C153.701,228.611,181.095,221.086,199.32,205.793z"/>
<path style="fill:#FF91AB;" d="M92.392,100.298c-7.152,28.554-3.108,65.86,28.401,96.408c28.524,27.654,52.9,25.678,70.758,14.705
	C179.269,128.035,125.617,105.925,92.392,100.298z"/>
<path style="fill:#EDA751;" d="M312.677,205.793c-18.224-15.292-30.392-40.963-4.687-78.912
	c25.909-38.249,64.483-47.836,94.598-44.288c7.424,0.875,13.654,6.102,15.805,13.262c8.723,29.041,5.98,68.694-27.189,100.851
	C358.296,228.611,330.902,221.086,312.677,205.793z"/>
<path style="fill:#FF91AB;" d="M419.605,100.298c7.152,28.554,3.108,65.86-28.401,96.408c-28.524,27.654-52.9,25.678-70.758,14.705
	C332.728,128.035,386.38,105.925,419.605,100.298z"/>
<path style="fill:#FFDC9C;" d="M414.56,228.874c0,72.499-70.99,104.252-158.561,104.252S97.437,301.373,97.437,228.874
	s70.99-131.271,158.562-131.271S414.56,156.375,414.56,228.874z"/>
<path style="opacity:0.15;fill:#C18F00;enable-background:new    ;" d="M171.335,117.871
	c-44.407,23.263-73.898,64.28-73.898,111.003c0,62.322,52.46,94.535,122.816,102.35C119.259,270.898,132.43,189.753,171.335,117.871
	z"/>
<g>
	<ellipse style="fill:#FF91AB;" cx="178.189" cy="231.929" rx="28.709" ry="22.863"/>
	<ellipse style="fill:#FF91AB;" cx="333.809" cy="231.929" rx="28.709" ry="22.863"/>
</g>
<path d="M471.436,364.378l-45.626,3.229c-4.132,0.292-7.245,3.879-6.952,8.011c0.28,3.952,3.572,6.971,7.474,6.971
	c0.178,0,0.357-0.006,0.537-0.019l45.626-3.229c4.132-0.293,7.245-3.879,6.952-8.011
	C479.154,367.199,475.559,364.09,471.436,364.378z M511.952,369.038c-0.368-5.199-2.933-10.025-7.038-13.242
	c-13.407-10.508-40.318-27.822-69.937-25.728c-11.917,0.843-22.758,6.306-30.529,15.38c-1.275,1.489-2.43,3.051-3.484,4.664
	c-2.734,0.064-5.415-0.006-8.036-0.209c2.737-7.52,4.353-15.574,4.594-23.971c5.251,0.815,10.584,1.087,15.909,0.814
	c40.385-2.089,72.615-35.397,73.375-75.827c0.564-30.01-15.884-57.12-42.322-70.519c16.19-16.25,25.245-38.34,25.008-61.428
	c-0.227-22.107-8.929-43.058-24.504-58.994c-15.579-15.939-36.327-25.111-58.42-25.826c-19.178-0.621-37.931,5.181-53.326,16.411
	c-14.019-29.972-43.845-49.086-77.243-49.086s-63.224,19.115-77.245,49.086c-15.394-11.229-34.144-17.034-53.325-16.411
	c-22.094,0.715-42.841,9.887-58.42,25.826c-15.575,15.936-24.278,36.886-24.504,58.994c-0.236,23.087,8.818,45.176,25.007,61.427
	C40.818,193.917,24.37,221.3,25.207,251.614c1.123,40.724,33.894,73.749,74.604,75.186c5.446,0.192,10.878-0.182,16.204-1.114
	c0.468,8.437,2.324,16.506,5.314,24.005c-3.333,0.361-6.77,0.502-10.295,0.421c-1.054-1.613-2.209-3.174-3.484-4.663
	c-7.771-9.074-18.612-14.537-30.529-15.38c-29.608-2.103-56.53,15.22-69.937,25.728c-4.105,3.217-6.669,8.043-7.038,13.242
	c-0.368,5.2,1.492,10.341,5.103,14.105l0,0c11.225,11.699,34.286,31.809,62.613,35.043c1.732,0.198,3.467,0.295,5.198,0.295
	c10.585,0,20.985-3.649,29.16-10.35c1.093-0.896,2.131-1.838,3.122-2.817c2.579,0.142,5.152,0.218,7.711,0.218
	c4.695,0,9.347-0.238,13.911-0.714c13.421-1.399,26-4.794,37.487-10.097c1.512,3.118,3.2,6.142,5.053,9.068
	c-11.133,8.272-21.963,8.587-35.232,8.972c-13.365,0.388-29.999,0.87-46.626,10.257c-9.66,5.454-13.082,17.751-7.628,27.413
	c3.563,6.31,10.281,10.23,17.533,10.23c3.449,0,6.866-0.9,9.879-2.601c7.96-4.494,16.809-4.75,28.013-5.076
	c15.683-0.455,34.508-1.009,54.051-14.041c-1.315,13.504-1.939,29.624,0.637,47.772c1.926,13.57,13.703,23.803,27.393,23.803
	c1.301,0,2.618-0.093,3.916-0.277c15.117-2.146,25.671-16.191,23.527-31.31c-1.563-11.008-1.403-21.163-0.775-29.685
	c3.929,0.432,7.902,0.655,11.908,0.655c4.015,0,7.988-0.232,11.908-0.665c0.629,8.525,0.789,18.683-0.774,29.697
	c-2.145,15.119,8.41,29.164,23.529,31.309c1.297,0.184,2.614,0.277,3.915,0.277c10.94,0,20.871-6.468,25.3-16.478
	c1.676-3.788-0.036-8.217-3.824-9.893c-3.787-1.675-8.216,0.035-9.893,3.824c-2.029,4.585-6.576,7.547-11.583,7.547
	c-0.6,0-1.209-0.044-1.809-0.128c-6.929-0.983-11.766-7.421-10.783-14.35c1.853-13.057,1.548-24.858,0.757-34.518
	c8.664-2.227,16.916-5.516,24.559-9.746c0.765,7.026,1.388,14.868,1.432,23.363c0.021,4.129,3.375,7.461,7.499,7.461h0.04
	c4.142-0.022,7.482-3.397,7.461-7.539c-0.065-12.427-1.309-23.701-2.438-32.627c10.714-8.533,19.58-19.209,25.793-31.559
	c0.577-0.212,1.146-0.44,1.716-0.665c11.215,5.017,23.412,8.26,36.331,9.607c4.565,0.476,9.215,0.714,13.911,0.714
	c2.559,0,5.132-0.077,7.711-0.218c0.991,0.979,2.029,1.921,3.122,2.817c8.175,6.701,18.574,10.35,29.16,10.35
	c1.73,0,3.466-0.097,5.198-0.295c28.327-3.234,51.388-23.344,62.613-35.043l0,0C510.46,379.38,512.32,374.239,511.952,369.038z
	 M103.097,376.733c-0.652,7.759-4.376,14.79-10.486,19.798c-6.394,5.241-14.829,7.7-23.148,6.752
	c-23.648-2.7-43.664-20.284-53.491-30.525l0,0c-0.934-0.974-1.005-2.085-0.965-2.661c0.041-0.575,0.268-1.664,1.328-2.496
	c11.709-9.177,35.022-24.314,59.625-22.571c7.882,0.558,15.054,4.171,20.194,10.173c1.558,1.819,2.865,3.791,3.919,5.873
	c0.022,0.039,0.04,0.08,0.063,0.118C102.517,365.953,103.555,371.287,103.097,376.733z M125.308,389.9
	c-3.354,0.35-6.767,0.548-10.213,0.608c1.579-3.954,2.583-8.159,2.949-12.518c0.37-4.401,0.09-8.753-0.796-12.95
	c3.922-0.176,7.755-0.591,11.477-1.255c5.462,8.196,12.461,15.276,20.579,20.846C141.758,387.253,133.734,389.022,125.308,389.9z
	 M134.904,437.993c-12.219,0.355-23.76,0.69-34.951,7.007c-0.779,0.44-1.622,0.663-2.505,0.663c-1.851,0-3.564-0.998-4.471-2.604
	c-1.388-2.459-0.517-5.589,1.941-6.977c13.396-7.563,26.761-7.951,39.69-8.326c14.226-0.413,28.877-0.842,43.808-11.978
	c2.27,2.563,4.691,5.012,7.25,7.344C168.054,437.02,151.232,437.519,134.904,437.993z M219.233,495.392
	c-0.602,0.085-1.212,0.128-1.811,0.128c-6.267,0-11.659-4.691-12.542-10.911c-2.579-18.17-1.641-34.445-0.182-47.826
	c7.724,4.29,15.97,7.563,24.556,9.767c-0.79,9.655-1.092,21.446,0.759,34.49C230.997,487.971,226.16,494.409,219.233,495.392z
	 M309.242,417.787c-0.284,0.183-0.555,0.381-0.81,0.599c-14.694,10.499-33.008,16.517-52.434,16.517
	c-29.848,0-57.37-14.569-72.795-37.438c3.07,0.376,6.188,0.591,9.358,0.591c25.274,0,48.958-12.601,63.182-33.251
	c14.042,22.198,38.404,35.754,64.943,35.754c2.071,0,4.118-0.105,6.149-0.267C321.919,406.976,315.973,412.856,309.242,417.787z
	 M320.686,385.559c-23.001,0-43.971-12.655-54.729-33.025c-1.943-3.682-5.729-6.017-9.879-6.094
	c-0.071-0.001-0.142-0.002-0.212-0.002c-4.056,0-7.816,2.17-9.852,5.7c-10.994,19.071-31.476,30.918-53.453,30.918
	c-34.003,0-61.666-27.663-61.666-61.712c0.003-3.531-1.575-6.81-4.331-8.995c-2.733-2.167-6.25-2.951-9.649-2.153
	c-5.398,1.269-10.976,1.811-16.574,1.614c-32.818-1.159-59.234-27.781-60.14-60.609c-0.716-25.939,14.255-49.215,38.141-59.298
	c3.614-1.526,6.151-4.755,6.785-8.639c0.634-3.878-0.741-7.741-3.677-10.333c-15.429-13.622-24.157-33.234-23.947-53.804
	c0.187-18.224,7.373-35.506,20.232-48.663c12.861-13.159,29.971-20.73,48.179-21.319c17.127-0.557,33.866,5.104,47.102,15.934
	c2.787,2.281,6.534,3.109,10.017,2.216c3.498-0.896,6.395-3.435,7.748-6.791c10.787-26.746,36.387-44.027,65.218-44.027
	s54.43,17.282,65.217,44.027c1.354,3.356,4.25,5.894,7.748,6.791c3.486,0.894,7.23,0.064,10.018-2.216
	c13.235-10.83,29.962-16.489,47.102-15.934c18.208,0.589,35.317,8.16,48.179,21.319c12.86,13.157,20.045,30.439,20.232,48.663
	c0.211,20.571-8.518,40.183-23.947,53.805v-0.001c-2.935,2.592-4.31,6.454-3.677,10.332c0.635,3.885,3.172,7.115,6.788,8.642
	c23.659,9.988,38.635,33.042,38.152,58.732c-0.613,32.594-26.595,59.445-59.153,61.129c-5.494,0.287-10.998-0.155-16.36-1.308
	c-3.438-0.739-6.955,0.126-9.653,2.37c-2.713,2.256-4.212,5.58-4.113,9.116c0.016,0.58,0.024,1.163,0.024,1.747
	C382.556,357.805,354.801,385.559,320.686,385.559z M386.69,389.9c-7.167-0.747-14.059-2.166-20.634-4.197
	c7.928-5.816,14.697-13.117,19.91-21.484c2.868,0.415,5.798,0.692,8.782,0.826c-0.886,4.195-1.165,8.545-0.795,12.944
	c0.366,4.36,1.37,8.564,2.949,12.518C393.457,390.448,390.045,390.25,386.69,389.9z M496.025,372.759
	c-9.827,10.241-29.842,27.824-53.491,30.525c-8.316,0.95-16.754-1.511-23.148-6.752c-6.11-5.008-9.834-12.039-10.486-19.798
	c-0.458-5.448,0.58-10.782,2.961-15.539c0.02-0.034,0.036-0.07,0.056-0.105c1.055-2.087,2.365-4.063,3.926-5.885
	c5.14-6.003,12.311-9.616,20.194-10.173c1.317-0.093,2.63-0.138,3.938-0.138c23.125,0,44.605,14.023,55.688,22.71
	c1.06,0.831,1.287,1.92,1.328,2.495C497.03,370.674,496.959,371.786,496.025,372.759L496.025,372.759z M179,255.875
	c4.003-1.063,6.387-5.17,5.324-9.174c-1.063-4.003-5.171-6.385-9.174-5.324c-9.05,2.403-26.126,10.98-32.756,15.874
	c-3.333,2.459-4.04,7.155-1.581,10.488c1.471,1.993,3.74,3.047,6.04,3.047c1.547,0,3.108-0.477,4.448-1.466
	C156.507,265.477,171.991,257.735,179,255.875z M86.188,367.607l-45.626-3.229c-4.118-0.288-7.718,2.82-8.011,6.952
	c-0.292,4.132,2.82,7.718,6.952,8.011l45.626,3.229c0.18,0.013,0.359,0.019,0.537,0.019c3.901,0,7.194-3.02,7.474-6.971
	C93.432,371.486,90.319,367.899,86.188,367.607z M422.06,228.875c0-16.022-3.224-31.614-9.399-46.272
	c17.346-26.259,22.077-58.405,12.916-88.906c-3.018-10.043-11.696-17.326-22.11-18.553c-30.367-3.575-60.257,5.819-82.784,25.84
	c-20.202-7.13-42.102-10.88-64.684-10.88c-22.581,0-44.482,3.75-64.684,10.88c-22.526-20.021-52.415-29.417-82.784-25.84
	c-10.414,1.227-19.093,8.509-22.11,18.553c-9.161,30.501-4.431,62.647,12.916,88.906c-6.175,14.658-9.399,30.25-9.399,46.272
	c0,28.982,10.478,53.168,31.142,71.884c3.07,2.781,7.813,2.545,10.593-0.525c2.781-3.07,2.546-7.813-0.524-10.593
	c-17.393-15.753-26.211-36.198-26.211-60.767c0-68.248,67.766-123.771,151.062-123.771s151.061,55.523,151.061,123.771
	c0,31.534-14.388,56.048-42.765,72.861c-26.38,15.63-63.829,23.892-108.297,23.892c-37.979,0-71.4-6.155-96.651-17.799
	c-3.76-1.736-8.216-0.091-9.951,3.67c-1.735,3.761-0.092,8.217,3.67,9.951c27.206,12.546,62.799,19.178,102.932,19.178
	c47.157,0,87.249-8.986,115.943-25.987C404.729,295.214,422.06,265.557,422.06,228.875z M139.096,130.275
	c-13.083,10.831-23.733,23.16-31.739,36.527c-11.802-22.101-11.494-43.555-9.132-57.688c12.611,2.916,28.151,8.641,42.517,19.831
	C140.193,129.387,139.639,129.825,139.096,130.275z M153.275,119.796c-17.015-14.317-35.735-21.511-50.851-25.106
	c1.819-2.542,4.645-4.27,7.861-4.649c11.638-1.373,39.515-2.005,65.232,17.368C167.758,111.009,160.323,115.146,153.275,119.796z
	 M336.479,107.409c25.716-19.373,53.591-18.74,65.232-17.368c3.216,0.379,6.042,2.107,7.861,4.649
	c-15.116,3.595-33.836,10.789-50.85,25.106C351.674,115.146,344.239,111.008,336.479,107.409z M404.64,166.801
	c-8.005-13.367-18.655-25.695-31.739-36.527c-0.543-0.45-1.097-0.888-1.646-1.33c14.366-11.19,29.906-16.915,42.517-19.831
	C416.134,123.246,416.442,144.7,404.64,166.801z M170.263,234.666c4.112,0.539,7.876-2.347,8.419-6.453
	c0.542-4.106-2.346-7.875-6.453-8.418c-9.287-1.228-28.341,0.196-36.334,2.195c-4.019,1.004-6.462,5.077-5.457,9.095
	c0.852,3.408,3.91,5.683,7.27,5.683c0.602,0,1.214-0.073,1.825-0.226C145.809,234.974,163.075,233.716,170.263,234.666z
	 M255.999,224.41c8.339,0,16.269-3.611,21.756-9.908c2.722-3.122,2.397-7.86-0.726-10.581c-3.124-2.722-7.861-2.396-10.582,0.726
	c-2.639,3.027-6.447,4.764-10.449,4.764c-4.002,0-7.81-1.736-10.449-4.764c-2.722-3.123-7.459-3.448-10.582-0.726
	c-3.123,2.721-3.448,7.459-0.726,10.581C239.73,220.799,247.66,224.41,255.999,224.41z M202.423,209.125v-10.138
	c0-4.142-3.358-7.5-7.5-7.5s-7.5,3.358-7.5,7.5v10.138c0,4.142,3.358,7.5,7.5,7.5S202.423,213.267,202.423,209.125z
	 M324.574,209.125v-10.138c0-4.142-3.358-7.5-7.5-7.5s-7.5,3.358-7.5,7.5v10.138c0,4.142,3.358,7.5,7.5,7.5
	S324.574,213.267,324.574,209.125z M327.673,246.701c-1.063,4.003,1.321,8.111,5.324,9.174c7.009,1.861,22.493,9.602,27.699,13.444
	c1.34,0.989,2.9,1.466,4.448,1.466c2.3,0,4.57-1.054,6.04-3.047c2.46-3.333,1.752-8.028-1.581-10.488
	c-6.63-4.894-23.706-13.47-32.756-15.874C332.841,240.316,328.736,242.698,327.673,246.701z M341.734,234.666
	c7.19-0.95,24.454,0.307,30.731,1.876c0.61,0.153,1.222,0.226,1.825,0.226c3.36-0.001,6.418-2.275,7.27-5.683
	c1.005-4.018-1.438-8.09-5.457-9.095c-7.995-1.999-27.052-3.422-36.335-2.195c-4.106,0.543-6.995,4.312-6.453,8.418
	C333.858,232.32,337.626,235.211,341.734,234.666z"/>
<g>
</g>
<g>
</g>
<g>
</g>
<g>
</g>
<g>
</g>
<g>
</g>
<g>
</g>
<g>
</g>
<g>
</g>
<g>
</g>
<g>
</g>
<g>
</g>
<g>
</g>
<g>
</g>
<g>
</g>
</svg>
