<?xml version="1.0" encoding="iso-8859-1"?>
<!-- Generator: Adobe Illustrator 19.0.0, SVG Export Plug-In . SVG Version: 6.00 Build 0)  -->
<svg version="1.1" id="Capa_1" xmlns="http://www.w3.org/2000/svg" xmlns:xlink="http://www.w3.org/1999/xlink" x="0px" y="0px"
	 viewBox="0 0 512 512" style="enable-background:new 0 0 512 512;" xml:space="preserve">
<path style="fill:#EDA751;" d="M87.678,410.617c-7.259,0-14.582-2.022-21.674-6.036c-19.185-10.858-21.283-28.071-22.814-40.637
	c-1.721-14.123-2.507-20.57-20.794-23.817c-6.415-1.139-10.692-7.263-9.554-13.678c1.139-6.415,7.26-10.69,13.678-9.553
	c35.472,6.299,38.251,29.104,40.09,44.194c1.438,11.803,2.582,18.185,11.014,22.958c5.564,3.148,10.696,3.78,15.689,1.931
	c8.583-3.178,15.452-12.821,18.203-20.436c2.214-6.129,8.977-9.302,15.103-7.088c6.128,2.214,9.302,8.976,7.088,15.103
	c-4.352,12.048-15.397,28.326-32.202,34.547C96.978,409.783,92.341,410.617,87.678,410.617z"/>
<path style="fill:#FCD79D;" d="M33.632,343.495c3.49-4.227,7.811-10.676,9.05-21.722c-4.454-2.065-9.77-3.742-16.16-4.877
	c-6.419-1.137-12.538,3.138-13.678,9.553c-1.139,6.415,3.138,12.538,9.554,13.677C27.272,340.993,30.895,342.09,33.632,343.495z"/>
<path style="fill:#EDA751;" d="M148.262,467.734c-2.089,0-4.211-0.349-6.291-1.084c-9.829-3.475-14.979-14.258-11.504-24.087
	c9.006-25.473,9.673-33.568,4.196-50.956c-3.131-9.944,2.391-20.542,12.334-23.673c9.943-3.131,20.542,2.391,23.673,12.334
	c8.867,28.159,5.903,45.135-4.612,74.878C163.319,462.893,156.036,467.734,148.262,467.734z"/>
<path id="SVGCleanerId_0" style="fill:#EDA751;" d="M229.59,456.493c-2.089,0-4.211-0.349-6.291-1.084
	c-9.829-3.475-14.979-14.258-11.504-24.087c6.717-19-5.036-32.545-7.628-34.425c-8.439-6.12-10.319-17.922-4.199-26.361
	c6.12-8.439,17.922-10.32,26.361-4.199c14.918,10.819,33.826,41.444,21.057,77.566C244.646,451.651,237.364,456.493,229.59,456.493z
	"/>
<g>
	<path id="SVGCleanerId_0_1_" style="fill:#EDA751;" d="M229.59,456.493c-2.089,0-4.211-0.349-6.291-1.084
		c-9.829-3.475-14.979-14.258-11.504-24.087c6.717-19-5.036-32.545-7.628-34.425c-8.439-6.12-10.319-17.922-4.199-26.361
		c6.12-8.439,17.922-10.32,26.361-4.199c14.918,10.819,33.826,41.444,21.057,77.566C244.646,451.651,237.364,456.493,229.59,456.493
		z"/>
</g>
<g>
	<path style="opacity:0.2;fill:#A35F00;enable-background:new    ;" d="M226.329,366.336c-8.439-6.121-20.241-4.241-26.361,4.199
		c-6.12,8.439-4.241,20.241,4.199,26.361c2.091,1.516,10.136,10.625,9.647,24.061c5.125-2.041,10.048-4.446,14.728-7.186
		c0.844-0.494,1.878-0.482,2.717,0.021c1.74,1.043,3.714,1.748,5.844,2.005l14.455,1.748
		C250.749,393.434,237.437,374.392,226.329,366.336z"/>
	<path style="opacity:0.2;fill:#A35F00;enable-background:new    ;" d="M126.621,358.456c-6.127-2.215-12.889,0.959-15.103,7.088
		c-2.751,7.615-9.621,17.258-18.203,20.436c-2.399,0.888-4.831,1.198-7.327,0.937c5.554,7.281,12.115,13.832,19.492,19.477
		c14.576-7.13,24.23-21.764,28.229-32.834C135.922,367.432,132.749,360.67,126.621,358.456z"/>
	<path style="opacity:0.2;fill:#A35F00;enable-background:new    ;" d="M146.997,367.934c-9.943,3.131-15.465,13.73-12.334,23.673
		c3.761,11.943,4.624,19.503,1.877,31.322c11.238,3.811,23.345,5.894,35.959,5.894c0.463,0,0.924-0.011,1.385-0.017
		c3.344-15.941,2.7-29.754-3.215-48.538C167.539,370.326,156.939,364.803,146.997,367.934z"/>
</g>
<ellipse style="fill:#FCD690;" cx="172.501" cy="328.515" rx="87.056" ry="80.896"/>
<path style="opacity:0.15;fill:#C18F00;enable-background:new    ;" d="M159.786,408.548c-39.783-26.119-27.454-79.651-20.7-103.063
	v-51.692c-31.498,12.176-53.645,41.042-53.645,74.719C85.44,369.177,117.732,402.829,159.786,408.548z"/>
<path style="fill:#EDA751;" d="M118.894,194.964c15.291-16.146,23.851-41.284-4.071-73.781C86.68,88.43,49.836,83.644,22.249,90.153
	c-6.802,1.605-12.028,7.124-13.261,14.002c-5.001,27.9,1.779,64.43,36.013,90.752C78.967,221.022,103.603,211.11,118.894,194.964z"
	/>
<path style="fill:#FF91AB;" d="M8.337,108.411c-3.594,27.28,4.144,61.491,36.664,86.496c29.441,22.636,51.866,18.199,67.278,6.103
	C91.974,124.894,39.792,110.09,8.337,108.411z"/>
<path style="fill:#EDA751;" d="M224.162,182.864c-18.556-12.255-32.595-34.796-12.774-72.781
	c19.977-38.284,54.775-51.306,83.12-51.225c6.988,0.02,13.331,4.209,16.092,10.629c11.2,26.038,12.885,63.154-14.484,96.556
	C268.96,199.185,242.718,195.12,224.162,182.864z"/>
<path style="fill:#FF91AB;" d="M312.199,73.485c9.69,25.753,9.916,60.828-16.084,92.559c-23.537,28.726-46.384,29.492-64.139,21.208
	C234.482,108.515,281.945,82.257,312.199,73.485z"/>
<path style="fill:#FFDC9C;" d="M321.237,193.424c7.739,67.325-54.796,104.39-136.119,113.737
	c-81.321,9.348-150.635-12.563-158.374-79.888C19.008,159.947,78.659,97.792,159.98,88.446
	C241.301,79.098,313.499,126.099,321.237,193.424z"/>
<path style="opacity:0.15;fill:#C18F00;enable-background:new    ;" d="M83.522,116.304c-38.755,26.343-61.763,67.58-56.775,110.969
	c6.652,57.874,58.806,82.189,124.975,81.937C51.496,263.968,55.066,187.207,83.522,116.304z"/>
<g>
	
		<ellipse transform="matrix(-0.1142 -0.9935 0.9935 -0.1142 -121.8771 324.6432)" style="fill:#FF91AB;" cx="83.794" cy="216.657" rx="21.372" ry="26.837"/>
	
		<ellipse transform="matrix(0.1142 0.9935 -0.9935 0.1142 400.9332 -49.5937)" style="fill:#FF91AB;" cx="228.277" cy="200.033" rx="21.372" ry="26.837"/>
</g>
<path style="fill:#78CFC0;" d="M388.757,422.426l-146.488-17.719c-7.486-0.905-13.116-7.26-13.113-14.8l0.09-261.827l238.113,28.802
	l-62.338,254.297C403.226,418.502,396.243,423.331,388.757,422.426z"/>
<path style="opacity:0.15;enable-background:new    ;" d="M229.166,361.058l-0.01,28.849c-0.003,7.541,5.628,13.894,13.113,14.8
	l146.488,17.719c7.486,0.905,14.468-3.923,16.263-11.246l6.869-28.02L229.166,361.058z"/>
<circle style="fill:#FFFFFF;" cx="334.384" cy="257.568" r="61.197"/>
<path style="fill:#B77866;" d="M491.191,108.979l-273.67-33.101c-8.291-1.003-15.824,4.905-16.827,13.195l-2.423,20.03
	c-1.003,8.291,4.905,15.824,13.195,16.826l273.669,33.102c8.291,1.003,15.824-4.905,16.827-13.195l2.423-20.03
	C505.39,117.515,499.481,109.982,491.191,108.979z"/>
<path style="opacity:0.15;enable-background:new    ;" d="M491.191,108.979l-273.67-33.101c-8.291-1.003-15.824,4.905-16.827,13.195
	l-2.423,20.03c-1.003,8.291,4.905,15.824,13.195,16.826l273.669,33.102c8.291,1.003,15.824-4.905,16.827-13.195l2.423-20.03
	C505.39,117.515,499.481,109.982,491.191,108.979z"/>
<g>
	<path style="fill:#B77866;" d="M473.413,106.829L235.299,78.027l13.608-23.754c3.975-6.938,11.716-10.823,19.655-9.863
		l180.562,21.84c7.939,0.96,14.53,6.579,16.736,14.264L473.413,106.829z"/>
	<path style="fill:#B77866;" d="M341.17,293.785L341.17,293.785c-5.808,0.547-10.635-4.411-9.935-10.202l6.294-52.033
		c0.779-6.439,7.828-10.043,13.503-6.903l0,0c10.945,6.055,17.124,18.141,15.622,30.559l-1.887,15.598
		C363.284,283.062,353.461,292.628,341.17,293.785z"/>
	<path style="fill:#B77866;" d="M319.155,291.122L319.155,291.122c5.51,1.916,11.379-1.748,12.08-7.539l6.294-52.033
		c0.779-6.439-5.208-11.619-11.468-9.924l0,0c-12.072,3.27-20.955,13.535-22.457,25.953l-1.887,15.598
		C300.234,275.435,307.494,287.069,319.155,291.122z"/>
</g>
<path style="opacity:0.15;enable-background:new    ;" d="M319.155,291.122L319.155,291.122c5.51,1.916,11.379-1.748,12.08-7.539
	l6.294-52.033c0.779-6.439-5.208-11.619-11.468-9.924l0,0c-12.072,3.27-20.955,13.535-22.457,25.953l-1.887,15.598
	C300.234,275.435,307.494,287.069,319.155,291.122z"/>
<path style="opacity:0.1;enable-background:new    ;" d="M229.156,389.907c-0.003,7.541,5.628,13.894,13.113,14.8l107.447,12.996
	c-67.817-73.507-78.257-172.866-77.148-247.783c0.122-8.246,7.376-14.557,15.562-13.567l174.193,21.07l5.036-20.541L229.246,128.08
	L229.156,389.907z"/>
<path style="fill:#EDA751;" d="M188.985,363.33c-12.576,0-23.772-2.041-32.21-6.013c-9.432-4.44-13.478-15.684-9.04-25.116
	c4.44-9.432,15.684-13.478,25.116-9.04c10.878,5.121,48.524,2.577,69.414-14.199c8.129-6.527,20.009-5.229,26.536,2.899
	c6.527,8.128,5.23,20.008-2.899,26.536c-14.218,11.417-34.037,19.647-55.807,23.172C202.806,362.748,195.698,363.33,188.985,363.33z
	"/>
<path d="M155.289,201.846c7.884-0.906,14.989-5.183,19.493-11.731c2.347-3.413,1.483-8.083-1.93-10.43
	c-3.415-2.348-8.083-1.482-10.43,1.93c-2.047,2.977-5.271,4.919-8.848,5.33c-3.576,0.412-7.158-0.749-9.826-3.184
	c-3.06-2.791-7.804-2.573-10.595,0.486c-2.792,3.061-2.574,7.804,0.486,10.595c5.094,4.646,11.704,7.183,18.513,7.183
	C153.196,202.025,154.243,201.966,155.289,201.846z M210.31,188.146c0.286,0,0.575-0.016,0.866-0.049
	c4.115-0.473,7.067-4.192,6.595-8.308l-1.082-9.415c-0.473-4.115-4.193-7.068-8.308-6.595c-4.115,0.473-7.067,4.192-6.595,8.308
	l1.082,9.415C203.308,185.326,206.551,188.146,210.31,188.146z M96.876,201.185c0.286,0,0.575-0.016,0.866-0.05
	c4.115-0.473,7.067-4.192,6.594-8.307l-1.082-9.415c-0.473-4.115-4.191-7.075-8.308-6.594c-4.115,0.473-7.067,4.192-6.594,8.307
	l1.082,9.415C89.874,198.365,93.117,201.185,96.876,201.185z M326.133,325.761c2.807,0.339,5.604,0.507,8.387,0.507
	c15.282,0,30.037-5.07,42.251-14.648c14.438-11.322,23.603-27.59,25.807-45.806c4.549-37.603-22.344-71.896-59.946-76.444
	c-18.216-2.203-36.199,2.819-50.638,14.141c-14.438,11.322-23.603,27.59-25.807,45.805c-2.204,18.216,2.819,36.199,14.141,50.638
	C291.651,314.392,307.918,323.558,326.133,325.761z M281.077,251.117c1.722-14.238,8.886-26.954,20.171-35.803
	c9.549-7.488,21.078-11.449,33.025-11.449c2.173,0,4.364,0.131,6.555,0.396c29.393,3.556,50.413,30.36,46.857,59.752
	c-1.722,14.238-8.886,26.954-20.171,35.803c-11.285,8.85-25.341,12.774-39.581,11.053c-14.238-1.722-26.954-8.886-35.803-20.171
	C283.281,279.413,279.355,265.356,281.077,251.117z M316.692,298.206c1.792,0.623,3.642,0.93,5.482,0.93
	c2.546,0,5.068-0.598,7.387-1.754c3.006,2.552,6.787,3.944,10.73,3.944c0.524,0,1.052-0.025,1.581-0.075c0,0,0,0,0.001,0
	c15.687-1.477,28.448-13.902,30.341-29.547l1.887-15.598c1.878-15.526-5.752-30.451-19.437-38.021
	c-4.797-2.654-10.563-2.772-15.464-0.335c-4.179-3.536-9.806-4.797-15.098-3.362c-15.095,4.089-26.063,16.764-27.942,32.291
	l-1.887,15.598C292.379,277.922,301.808,293.031,316.692,298.206z M338.681,284.485l6.294-52.033
	c0.087-0.717,0.528-1.085,0.884-1.266c0.196-0.101,0.454-0.189,0.752-0.189c0.241,0,0.509,0.058,0.792,0.214
	c8.313,4.599,12.947,13.664,11.806,23.096l-1.887,15.598c-1.051,8.691-8.141,15.594-16.855,16.414
	c-0.642,0.059-1.081-0.233-1.331-0.49c-0.25-0.257-0.532-0.699-0.454-1.344C338.681,284.485,338.681,284.485,338.681,284.485z
	 M309.162,264.08l1.887-15.597c1.141-9.432,7.804-17.131,16.973-19.615c0.696-0.188,1.204,0.082,1.506,0.344
	c0.302,0.261,0.643,0.723,0.556,1.44l-6.294,52.033c-0.078,0.645-0.458,1.007-0.762,1.197c-0.305,0.189-0.797,0.372-1.411,0.158
	C313.349,281.164,308.111,272.77,309.162,264.08z M87.519,218.613c-0.245-4.135-3.795-7.29-7.931-7.043
	c-8.788,0.521-26.118,5.227-33.137,8.496c-3.755,1.748-5.382,6.21-3.634,9.964c1.271,2.731,3.978,4.337,6.804,4.337
	c1.06,0,2.137-0.226,3.16-0.703c5.448-2.536,20.971-6.722,27.695-7.121C84.611,226.297,87.764,222.748,87.519,218.613z
	 M507.176,110.032c-3.729-4.755-9.086-7.773-15.084-8.498l-12.841-1.553l-6.181-21.534c-3.044-10.606-12.089-18.315-23.045-19.641
	l-180.561-21.84c-10.952-1.324-21.577,4.005-27.063,13.58l-11.136,19.439l-12.841-1.553c-5.998-0.726-11.92,0.929-16.675,4.657
	c-2.563,2.011-4.602,4.505-6.069,7.308c-12.057-1.001-24.326-0.808-36.555,0.599c-21.225,2.44-41.05,8.361-58.735,16.976
	c-23.143-16.18-51.976-21.698-79.861-15.119c-9.731,2.296-17.158,10.138-18.921,19.978c-5.269,29.396,2.558,58.837,21.493,81.466
	c-4.103,14.06-5.528,28.827-3.804,43.831c2.218,19.301,9.265,35.922,20.943,49.402c1.483,1.712,3.572,2.589,5.672,2.589
	c1.74,0,3.489-0.603,4.908-1.832c3.13-2.712,3.47-7.449,0.757-10.579c-9.665-11.154-15.511-25.048-17.378-41.293
	c-7.254-63.108,49.556-121.659,126.639-130.518c10.561-1.215,21.146-1.453,31.566-0.717l-1.575,13.023
	c-0.726,5.999,0.928,11.92,4.657,16.675c3.729,4.754,9.085,7.773,15.084,8.498l11.176,1.352l-0.055,158.271
	c-11.7,2.942-24.259,5.198-37.427,6.711c-35.3,4.058-66.259,1.982-90.79-5.971c-0.003-0.001-0.005-0.003-0.008-0.004
	c-0.282-0.111-0.567-0.198-0.853-0.273c-5.639-1.871-10.933-4.056-15.856-6.553c-3.693-1.872-8.208-0.398-10.082,3.296
	c-1.873,3.694-0.398,8.208,3.296,10.082c3.588,1.82,7.357,3.476,11.271,4.997c-2.192,7.537-3.301,15.32-3.301,23.23
	c0,18.044,5.819,34.84,15.786,48.843c-1.015,0.685-2.027,1.225-3.017,1.592c-1.935,0.716-4.75,1.201-9.391-1.425
	c-5.023-2.843-5.861-5.824-7.265-17.34c-1.849-15.167-5.29-43.401-46.226-50.67c-10.48-1.861-20.509,5.153-22.369,15.626
	c-0.901,5.075,0.228,10.198,3.179,14.422c2.952,4.226,7.372,7.05,12.447,7.951c8.612,1.529,10.867,3.472,11.814,4.8
	c1.59,2.229,2.117,6.555,2.847,12.541c1.628,13.353,4.087,33.534,26.565,46.256c8.217,4.65,16.751,7.008,25.368,7.008
	c5.565,0,11.093-1.002,16.431-2.978c6.658-2.465,12.835-6.37,18.446-11.6c2.583,1.508,5.248,2.903,7.99,4.177
	c0.576,7.744-1.308,15.821-7.151,32.348c-4.847,13.711,2.365,28.81,16.075,33.656c2.84,1.004,5.798,1.514,8.792,1.514
	c11.154,0,21.147-7.069,24.867-17.588c5.506-15.575,9.196-28.369,10.063-41.326c7.436-0.792,14.722-2.389,21.706-4.769
	c1.53,4.345,2.302,10.268-0.174,17.27c-4.848,13.711,2.364,28.81,16.077,33.658c2.84,1.004,5.797,1.513,8.79,1.513
	c11.154,0,21.147-7.069,24.867-17.589c3.757-10.626,5.235-21.395,4.436-32.13l128.964,15.599c0.906,0.109,1.808,0.163,2.701,0.163
	c10.185,0,19.269-6.959,21.747-17.07l60.755-247.838l11.176,1.352c0.924,0.112,1.845,0.167,2.762,0.167
	c5.033,0,9.892-1.67,13.913-4.824c4.754-3.729,7.773-9.085,8.499-15.083l2.423-20.03
	C512.557,120.708,510.904,114.787,507.176,110.032z M29.323,167.695c-12.705-18.721-14.76-38.024-14.163-51.178
	c11.756,1.387,26.325,4.986,40.44,13.481C44.555,141.296,35.635,154.027,29.323,167.695z M67.002,119.464
	c-17.034-11.222-34.833-15.926-49.127-17.722c1.387-2.116,3.535-3.687,6.096-4.291c10.519-2.482,35.869-5.988,61.464,8.761
	C78.901,110.255,72.737,114.686,67.002,119.464z M185.976,314.61c12.464-1.433,24.427-3.51,35.708-6.178l-0.001,3.418
	c-16.384,6.224-35.552,7.295-43.885,5.12c-0.908-0.237-1.453-0.454-1.753-0.595c-0.501-0.236-1.008-0.45-1.518-0.652
	C178.298,315.42,182.111,315.054,185.976,314.61z M98.903,401.073c-9.477,3.508-19.523,2.461-29.204-3.018
	c-15.892-8.995-17.577-22.819-19.064-35.018c-1.97-16.168-4.325-26.281-26.928-30.294c-2.333-0.415-3.895-2.65-3.481-4.983
	c0.415-2.333,2.651-3.891,4.983-3.48c30.009,5.329,32.105,22.535,33.956,37.717c1.361,11.169,2.647,21.719,14.765,28.578
	c7.499,4.243,14.896,5.063,21.986,2.438c2.602-0.964,5.118-2.37,7.533-4.176c2.05,2.049,4.203,4.007,6.451,5.867
	C106.44,397.51,102.76,399.644,98.903,401.073z M158.987,452.646c-1.604,4.539-5.915,7.589-10.725,7.589
	c-1.286,0-2.561-0.221-3.792-0.656c-5.914-2.09-9.025-8.603-6.934-14.516c4.774-13.504,7.531-22.906,8.023-31.815
	c7.2,2.004,14.754,3.228,22.554,3.563C167.16,427.678,163.84,438.919,158.987,452.646z M172.498,401.909
	c-43.869,0-79.558-32.925-79.558-73.397c0-6.309,0.868-12.517,2.568-18.539c16.334,4.473,34.85,6.748,55.117,6.748
	c0.766,0,1.541-0.011,2.312-0.018c-1.271,0.641-2.505,1.376-3.678,2.231c-3.347,2.44-4.083,7.131-1.643,10.479
	c2.44,3.347,7.131,4.083,10.479,1.643c3.369-2.455,7.799-2.878,11.559-1.108c1.269,0.598,2.735,1.115,4.356,1.538
	c12.924,3.373,37.743,1.456,57.874-7.624c0.323-0.125,0.636-0.268,0.935-0.434c5.132-2.39,9.943-5.246,14.14-8.616
	c4.892-3.928,12.065-3.144,15.992,1.747c3.928,4.891,3.144,12.064-1.747,15.992c-9.162,7.358-20.897,13.298-34.062,17.361
	c-0.108,0.03-0.215,0.06-0.321,0.095c-5.739,1.755-11.743,3.159-17.927,4.16c-6.825,1.105-13.524,1.666-19.912,1.666
	c-11.619,0-21.652-1.832-29.017-5.299c-1.157-0.544-2.2-1.265-3.1-2.143c-2.966-2.892-7.715-2.832-10.605,0.134
	c-2.892,2.966-2.832,7.714,0.134,10.605c2.098,2.045,4.515,3.719,7.184,4.975c9.349,4.401,21.591,6.727,35.404,6.727
	c7.189,0,14.694-0.625,22.31-1.858c3.509-0.568,6.966-1.268,10.37-2.065l-0.007,19.299
	C207.679,396.351,190.366,401.909,172.498,401.909z M240.314,441.403c-1.605,4.54-5.915,7.589-10.725,7.589
	c-1.286,0-2.562-0.221-3.792-0.655c-5.914-2.091-9.024-8.604-6.934-14.517c4.07-11.513,2.515-21.248-0.154-28.209
	c2.199-1.151,4.35-2.385,6.45-3.702c3.498,5.499,9.329,9.412,16.207,10.243l2.269,0.274
	C244.818,422.068,243.712,431.792,240.314,441.403z M397.737,409.393c-0.891,3.635-4.365,6.035-8.08,5.587L243.169,397.26
	c-3.708-0.448-6.504-3.598-6.513-7.332l0,0c0-0.016-0.001-0.032-0.001-0.048l0.009-27.332c12.929-4.543,24.547-10.767,33.934-18.305
	c11.338-9.107,13.155-25.74,4.05-37.078c-9.105-11.339-25.74-13.156-37.078-4.051c-0.288,0.231-0.589,0.451-0.885,0.676
	l0.057-167.25l221.319,26.77L397.737,409.393z M496.941,124.905l-2.423,20.03c-0.245,2.021-1.261,3.826-2.863,5.083
	s-3.593,1.816-5.618,1.569l-273.669-33.102c-4.172-0.504-7.156-4.309-6.651-8.481l2.411-19.933
	c-0.001,0.005-0.002,0.015-0.001,0.015c0,0,0.001-0.001,0.001-0.003c0.027-0.142,0.053-0.285,0.077-0.428
	c0.01-0.059,0.012-0.119,0.02-0.178c0.341-1.818,1.31-3.433,2.778-4.584c1.602-1.256,3.596-1.813,5.618-1.569l17.754,2.148
	c0.015,0.002,0.029,0.004,0.044,0.005l177.41,21.459c4.111,0.5,7.849-2.433,8.346-6.546c0.497-4.112-2.433-7.849-6.545-8.346
	l-166.2-20.104l7.986-13.937c2.483-4.333,7.293-6.745,12.247-6.146l180.561,21.839c4.958,0.6,9.052,4.089,10.428,8.889l4.432,15.44
	l-14.189-1.716c-4.106-0.498-7.849,2.433-8.346,6.545s2.433,7.849,6.545,8.346l43.197,5.225c2.021,0.245,3.826,1.261,5.082,2.863
	C496.629,120.889,497.186,122.884,496.941,124.905z M64.023,263.969c2.023,0,4.041-0.814,5.519-2.419
	c4.071-4.42,16.828-14.205,22.893-17.136c3.729-1.802,5.292-6.287,3.49-10.016c-1.803-3.73-6.288-5.292-10.016-3.49
	c-7.926,3.831-22.155,14.785-27.401,20.481c-2.806,3.047-2.61,7.792,0.437,10.597C60.387,263.313,62.208,263.969,64.023,263.969z"/>
<g>
</g>
<g>
</g>
<g>
</g>
<g>
</g>
<g>
</g>
<g>
</g>
<g>
</g>
<g>
</g>
<g>
</g>
<g>
</g>
<g>
</g>
<g>
</g>
<g>
</g>
<g>
</g>
<g>
</g>
</svg>
