<?xml version="1.0" encoding="iso-8859-1"?>
<!-- Generator: Adobe Illustrator 19.0.0, SVG Export Plug-In . SVG Version: 6.00 Build 0)  -->
<svg version="1.1" id="Capa_1" xmlns="http://www.w3.org/2000/svg" xmlns:xlink="http://www.w3.org/1999/xlink" x="0px" y="0px"
	 viewBox="0 0 512.002 512.002" style="enable-background:new 0 0 512.002 512.002;" xml:space="preserve">
<path style="fill:#EDA751;" d="M403.49,465.881c-6.673,0-13.209-0.958-19.164-2.57c-30.288-8.196-43.53-30.451-54.171-48.334
	c-9.434-15.853-15.847-25.773-28.308-29.8c-7.836-2.532-12.136-10.938-9.604-18.774c2.533-7.838,10.937-12.134,18.775-9.605
	c23.799,7.69,34.938,26.41,44.767,42.928c9.5,15.967,17.706,29.756,36.331,34.797c14.23,3.848,26.404,0.723,32.575-8.363
	c4.948-7.287,4.711-16.588-0.603-23.695c-4.931-6.596-3.583-15.941,3.013-20.872c6.599-4.931,15.94-3.583,20.872,3.013
	c13.048,17.45,13.594,40.337,1.391,58.308C437.87,459.839,420.245,465.881,403.49,465.881z"/>
<path style="fill:#FCD79D;" d="M447.972,384.606c-4.931-6.596-14.273-7.944-20.872-3.013c-6.596,4.931-7.944,14.276-3.013,20.872
	c2.086,2.79,3.377,5.918,3.893,9.129c9.634-1.115,17.784-2.036,28.095-10.968C454.394,395.005,451.694,389.584,447.972,384.606z"/>
<g>
	<path style="fill:#EDA751;" d="M209.838,504.502c-12.209,0-22.616-9.323-23.733-21.718c-3.809-42.25-0.713-69.547,10.353-91.277
		c5.98-11.743,20.344-16.413,32.088-10.434c11.742,5.98,16.413,20.346,10.434,32.087c-6.604,12.97-8.255,33.121-5.351,65.34
		c1.184,13.124-8.496,24.721-21.619,25.904C211.28,504.469,210.555,504.502,209.838,504.502z"/>
	<path style="fill:#EDA751;" d="M291.648,504.502c-0.719,0-1.441-0.033-2.17-0.098c-13.124-1.183-22.802-12.781-21.619-25.904
		c2.904-32.219,1.254-52.371-5.351-65.34c-5.98-11.742-1.308-26.107,10.434-32.087c11.74-5.979,26.107-1.309,32.088,10.434
		c11.066,21.73,14.163,49.028,10.353,91.277C314.265,495.179,303.856,504.502,291.648,504.502z"/>
	<path style="fill:#EDA751;" d="M135.968,434.898c-1.98,0-3.994-0.249-6-0.768c-12.756-3.305-20.418-16.324-17.114-29.079
		c4.828-18.634,8.247-35.419,11.264-50.23c3.66-17.966,6.551-32.156,10.648-43.418c4.505-12.383,18.197-18.77,30.578-14.264
		c12.383,4.506,18.769,18.196,14.264,30.578c-2.888,7.939-5.597,21.234-8.733,36.629c-3.135,15.386-6.687,32.824-11.828,52.672
		C156.263,427.766,146.58,434.898,135.968,434.898z"/>
</g>
<g>
	<path style="opacity:0.2;fill:#A35F00;enable-background:new    ;" d="M311.018,356.8c-7.838-2.53-16.242,1.767-18.775,9.605
		c-2.531,7.837,1.769,16.242,9.604,18.774c12.462,4.026,18.875,13.947,28.308,29.8c0.814,1.368,1.646,2.763,2.496,4.174
		c8.076-6.618,15.237-14.194,21.276-22.538C344.517,380.917,333.332,364.01,311.018,356.8z"/>
	<path style="opacity:0.2;fill:#A35F00;enable-background:new    ;" d="M305.028,391.507c-5.981-11.744-20.349-16.414-32.088-10.434
		c-11.742,5.98-16.413,20.346-10.434,32.087c4.095,8.041,6.283,18.847,6.665,33.574c16.924-2.363,32.746-7.928,46.744-16.014
		C314.295,415.329,310.718,402.678,305.028,391.507z"/>
	<path style="opacity:0.2;fill:#A35F00;enable-background:new    ;" d="M228.544,381.073c-11.744-5.979-26.107-1.309-32.087,10.434
		c-5.69,11.172-9.267,23.823-10.888,39.214c13.998,8.087,29.82,13.652,46.744,16.014c0.381-14.727,2.57-25.532,6.665-33.574
		C244.958,401.418,240.286,387.052,228.544,381.073z"/>
	<path style="opacity:0.2;fill:#A35F00;enable-background:new    ;" d="M165.345,297.139c-12.381-4.506-26.073,1.881-30.577,14.264
		c-3.092,8.5-5.498,18.671-8.065,30.871c2.695,26.735,15.036,50.878,33.724,69.32c4.41-17.617,7.604-33.282,10.45-47.249
		c3.136-15.395,5.845-28.69,8.733-36.629C184.114,315.335,177.727,301.644,165.345,297.139z"/>
</g>
<ellipse style="fill:#FCD690;" cx="250.746" cy="331.194" rx="110.047" ry="102.258"/>
<g>
	<path style="opacity:0.15;fill:#C17A00;enable-background:new    ;" d="M360.615,336.868c-6.139,1.268-11.91,1.909-16.622,1.47
		c-21.497-2.003-58.246-23.652-66.422-42.305c-4.279,19.612,6.648,74.52,70.168,83.493
		C355.155,366.701,359.711,352.237,360.615,336.868z"/>
	<path style="opacity:0.15;fill:#C17A00;enable-background:new    ;" d="M359.077,313.153c-9.172-47.868-54.186-84.21-108.334-84.21
		c-60.776,0-110.043,45.781-110.043,102.255c0,51.401,40.817,93.939,93.974,101.167l0,0c-8.875-5.827-15.692-12.734-20.863-20.32
		c-1.25-1.834,0.641-4.162,2.699-3.33c7.744,3.13,16.205,4.858,25.071,4.858c28.912,0,53.537-18.308,62.943-43.96
		c1.854-5.055,5.829-9.087,10.943-10.771C336.603,351.885,353.085,334.705,359.077,313.153z"/>
</g>
<path style="fill:#EDA751;" d="M183.774,153.89c21.532-18.069,35.91-48.4,5.538-93.238C158.7,15.459,113.123,4.131,77.541,8.323
	c-8.773,1.033-16.133,7.21-18.674,15.67c-10.307,34.313-7.066,81.165,32.124,119.16C129.875,180.849,162.242,171.957,183.774,153.89
	z"/>
<path style="fill:#FF91AB;" d="M57.434,29.243c-8.45,33.737-3.672,77.816,33.557,113.909c33.702,32.674,62.504,30.339,83.604,17.375
	C160.084,62.014,96.691,35.891,57.434,29.243z"/>
<path style="fill:#EDA751;" d="M317.711,153.89c-21.533-18.069-35.91-48.4-5.538-93.238C342.786,15.46,388.362,4.131,423.945,8.323
	c8.773,1.033,16.133,7.21,18.674,15.67c10.307,34.313,7.065,81.165-32.124,119.16C371.611,180.849,339.244,171.957,317.711,153.89z"
	/>
<path style="fill:#FF91AB;" d="M444.051,29.243c8.45,33.737,3.672,77.816-33.557,113.909
	c-33.702,32.674-62.504,30.339-83.604,17.375C341.402,62.014,404.794,35.891,444.051,29.243z"/>
<path style="fill:#FFDC9C;" d="M438.089,181.16c0,85.66-83.878,123.178-187.347,123.178S63.396,266.821,63.396,181.16
	c0-85.66,83.878-155.101,187.348-155.101S438.089,95.5,438.089,181.16z"/>
<path style="opacity:0.15;fill:#C17A00;enable-background:new    ;" d="M150.709,50.006C98.24,77.492,63.396,125.955,63.396,181.161
	c0,73.636,61.984,111.696,145.113,120.931C89.179,230.813,104.742,134.937,150.709,50.006z"/>
<g>
	<ellipse style="fill:#FF91AB;" cx="158.808" cy="184.778" rx="33.921" ry="27.009"/>
	<ellipse style="fill:#FF91AB;" cx="342.674" cy="184.778" rx="33.921" ry="27.009"/>
</g>
<path style="fill:#495059;" d="M370.691,285.37c0-28.694-18.032-53.17-43.379-62.733c-5.567-2.1-9.585-6.998-10.664-12.849
	c-5.751-31.179-33.062-54.801-65.904-54.801c-32.843,0-60.154,23.621-65.905,54.801c-1.079,5.851-5.097,10.749-10.664,12.849
	c-25.348,9.563-43.38,34.038-43.38,62.733c0,29.696,19.314,54.87,46.063,63.674c5.072,1.669,9.052,5.565,10.875,10.584
	c9.355,25.75,34.028,44.147,63.012,44.147c28.982,0,53.657-18.397,63.012-44.147c1.823-5.018,5.803-8.914,10.875-10.584
	C351.377,340.239,370.691,315.066,370.691,285.37z"/>
<path style="opacity:0.15;enable-background:new    ;" d="M324.629,349.044c7.316-2.408,14.071-6.048,20.032-10.664
	c-0.221-0.016-0.45-0.022-0.667-0.042c-21.497-2.003-58.246-23.652-66.422-42.305c-3.261,14.948,2.316,50.396,33.275,70.386
	c1.088-2.199,2.063-4.464,2.908-6.792C315.577,354.609,319.557,350.713,324.629,349.044z"/>
<path style="fill:#FFFFFF;" d="M250.743,211.997c-9.459,0-18.454-4.097-24.68-11.24c-2.721-3.123-2.396-7.86,0.727-10.582
	c3.122-2.722,7.859-2.397,10.582,0.726c3.376,3.874,8.25,6.096,13.372,6.096c5.122,0,9.996-2.222,13.372-6.096
	c2.722-3.123,7.459-3.448,10.582-0.726c3.123,2.722,3.447,7.459,0.727,10.582C269.196,207.9,260.201,211.997,250.743,211.997z"/>
<path style="fill:#EDA751;" d="M353.116,361.512c-8.645,0-17.541-1.696-26.412-5.113c-23.505-9.054-44.168-29.345-49.131-48.249
	c-3.346-12.745,4.273-25.788,17.019-29.134c12.61-3.314,25.522,4.121,29.029,16.631c1.625,3.608,10.917,13.43,22.395,16.977
	c8.269,2.554,12.935,0.426,15.725-1.397c11.03-7.206,25.816-4.108,33.023,6.923c7.208,11.031,4.108,25.815-6.923,33.023
	C377.327,358.042,365.479,361.512,353.116,361.512z M323.724,296.024c0.001,0.003,0.001,0.005,0.002,0.008
	C323.725,296.03,323.724,296.027,323.724,296.024z"/>
<path d="M330.406,157.826v-11.979c0-4.142-3.358-7.5-7.5-7.5c-4.143,0-7.5,3.358-7.5,7.5v11.979c0,4.142,3.357,7.5,7.5,7.5
	S330.406,161.967,330.406,157.826z M336.745,202.572c-1.063,4.003,1.321,8.11,5.325,9.173c8.569,2.274,26.808,11.399,33.185,16.105
	c1.341,0.989,2.901,1.466,4.448,1.466c2.3,0,4.569-1.054,6.04-3.046c2.46-3.333,1.752-8.029-1.58-10.488
	c-7.744-5.716-27.681-15.731-38.245-18.535C341.914,196.187,337.807,198.571,336.745,202.572z M351.863,186.653
	c8.791-1.161,29.131,0.324,36.819,2.246c0.61,0.152,1.222,0.226,1.824,0.226c3.36-0.001,6.418-2.275,7.271-5.683
	c1.004-4.019-1.439-8.09-5.458-9.095c-9.336-2.334-31.585-3.997-42.421-2.565c-4.106,0.543-6.995,4.312-6.453,8.418
	C343.988,184.306,347.76,187.191,351.863,186.653z M155.568,197.249c-10.566,2.805-30.503,12.82-38.245,18.535
	c-3.333,2.46-4.04,7.156-1.58,10.488c1.471,1.993,3.74,3.046,6.04,3.046c1.547,0,3.108-0.477,4.448-1.466
	c6.376-4.707,24.614-13.831,33.184-16.105c4.004-1.063,6.388-5.17,5.325-9.173C163.677,198.571,159.572,196.187,155.568,197.249z
	 M178.579,165.325c4.143,0,7.5-3.358,7.5-7.5v-11.979c0-4.142-3.357-7.5-7.5-7.5c-4.143,0-7.5,3.358-7.5,7.5v11.979
	C171.08,161.967,174.436,165.325,178.579,165.325z M453.979,380.115c-7.399-9.895-21.47-11.927-31.368-4.529
	c-4.796,3.585-7.907,8.822-8.763,14.748c-0.855,5.925,0.648,11.828,4.233,16.622c3.422,4.576,3.577,10.32,0.406,14.991
	c-4.291,6.317-13.419,8.311-24.412,5.338c-15.694-4.247-22.821-16.227-31.845-31.394c-2.385-4.006-5.014-8.42-7.93-12.803
	c2.707-4.686,5.047-9.551,6.991-14.553c10.908-1.259,21.376-5.024,30.652-11.086c7.012-4.582,11.82-11.62,13.539-19.818
	c1.72-8.198,0.143-16.575-4.44-23.586c-5.614-8.594-14.758-13.524-24.291-14.133c0.892-4.498,1.37-9.08,1.421-13.717
	c44.132-22.556,67.417-58.782,67.417-105.038c0-18.99-3.866-37.466-11.279-54.816C454.91,95.545,460.578,57.714,449.8,21.832
	c-3.407-11.347-13.213-19.574-24.978-20.961c-35.761-4.21-70.954,6.967-97.348,30.731c-23.934-8.548-49.923-13.047-76.732-13.047
	s-52.798,4.499-76.732,13.047C147.617,7.841,112.423-3.339,76.663,0.874c-11.767,1.386-21.571,9.614-24.979,20.96
	c-10.778,35.881-5.11,73.712,15.491,104.511c-7.413,17.349-11.279,35.826-11.279,54.816c0,27.682,8.277,51.782,24.603,71.629
	c2.631,3.199,7.356,3.658,10.557,1.028c3.198-2.631,3.659-7.358,1.027-10.557c-14.059-17.093-21.188-37.986-21.188-62.102
	c0-81.388,80.679-147.602,179.848-147.602S430.59,99.771,430.59,181.159c0,38.948-18.174,68.798-54.027,88.878
	c-5.212-24.491-22.633-45.377-46.604-54.42c-3.056-1.152-5.331-3.909-5.937-7.191c-6.514-35.311-37.332-60.94-73.28-60.94
	s-66.766,25.628-73.28,60.94c-0.605,3.283-2.88,6.039-5.936,7.192c-23.969,9.043-41.393,29.927-46.604,54.419
	c-4.544-2.555-8.831-5.279-12.806-8.153c-3.357-2.425-8.045-1.673-10.473,1.684c-2.427,3.356-1.673,8.045,1.684,10.472
	c6.083,4.397,12.792,8.468,19.983,12.146c0.089,8.199,1.507,16.139,4.079,23.587c-4.107,11.61-6.994,25.751-10.631,43.603
	c-2.996,14.706-6.392,31.372-11.165,49.793c-4.335,16.739,5.756,33.883,22.493,38.22c2.582,0.669,5.232,1.008,7.88,1.008
	c14.279,0,26.755-9.663,30.341-23.499c0.789-3.046,1.559-6.126,2.322-9.247c3.498,3.193,7.207,6.184,11.107,8.953
	c-3.167,17.309-3.517,38.096-1.104,64.853c1.467,16.274,14.882,28.545,31.203,28.545c0.936,0,1.89-0.043,2.844-0.128
	c8.342-0.752,15.893-4.708,21.259-11.139c5.367-6.431,7.908-14.567,7.156-22.908c-1.359-15.09-1.68-27.386-0.973-37.326
	c3.499,0.294,7.04,0.453,10.619,0.453c3.568,0,7.107-0.162,10.619-0.454c0.708,9.941,0.387,22.237-0.973,37.327
	c-0.752,8.342,1.789,16.478,7.156,22.909c5.367,6.431,12.917,10.387,21.267,11.139c0.947,0.084,1.902,0.127,2.837,0.127
	c13.467,0,25.397-8.577,29.691-21.341c1.321-3.926-0.791-8.179-4.718-9.5c-3.924-1.322-8.179,0.792-9.499,4.717
	c-2.396,7.12-9.374,11.731-16.973,11.057c-4.352-0.392-8.29-2.456-11.09-5.81c-2.8-3.355-4.126-7.599-3.733-11.951
	c1.476-16.38,1.781-29.824,0.917-40.815c11.081-2.28,21.717-6.05,31.666-11.244c1.096,8.03,1.603,16.891,1.512,26.852
	c-0.037,4.142,3.289,7.531,7.432,7.568c0.023,0,0.046,0,0.069,0c4.11,0,7.461-3.313,7.499-7.431
	c0.121-13.36-0.756-25.012-2.664-35.455c0.435-0.309,0.863-0.625,1.294-0.939c0.221,0.37,0.444,0.743,0.662,1.109
	c10.734,18.04,25.436,42.745,58.653,51.732c6.94,1.878,14.048,2.831,21.122,2.831c22.087,0,40.582-9.324,52.078-26.253
	C469.595,426.47,468.971,400.167,453.979,380.115z M113.485,65.71c-16.01,13.254-28.909,28.417-38.416,44.879
	C59.331,82.64,60.114,55.325,63.234,38.012c15.68,3.462,35.447,10.567,53.51,25.064C115.648,63.944,114.561,64.82,113.485,65.71z
	 M129.273,53.979c-20.808-17.785-43.906-26.353-62.138-30.462c2.231-4.229,6.414-7.172,11.283-7.747
	c28.919-3.406,57.417,4.624,79.844,22.177C148.104,42.527,138.406,47.884,129.273,53.979z M343.223,37.948
	c22.427-17.554,50.926-25.582,79.844-22.177c4.869,0.574,9.052,3.518,11.283,7.747c-18.232,4.108-41.329,12.678-62.138,30.462
	C363.079,47.884,353.381,42.527,343.223,37.948z M426.417,110.589C416.91,94.128,404.01,78.964,388,65.71
	c-1.075-0.89-2.163-1.766-3.258-2.633c18.063-14.498,37.829-21.601,53.509-25.064C441.37,55.325,442.154,82.64,426.417,110.589z
	 M388.486,322.251c2.39,3.658,3.213,8.028,2.315,12.304c-0.897,4.277-3.405,7.948-7.064,10.339
	c-8.622,5.634-18.148,8.678-28.346,9.072c-0.04,0.003-0.08,0.003-0.12,0.006c-0.716,0.026-1.434,0.041-2.157,0.041
	c-7.792,0-15.771-1.552-23.717-4.612c-21.083-8.121-40.245-26.673-44.572-43.155c-1.109-4.227-0.507-8.632,1.697-12.405
	c2.204-3.773,5.746-6.462,9.975-7.572c1.371-0.361,2.751-0.533,4.111-0.533c7.154,0,13.779,4.758,15.791,11.935
	c0.012,0.04,0.023,0.08,0.035,0.119c0.063,0.261,0.14,0.519,0.229,0.771c0.294,0.82,0.717,1.559,1.237,2.199
	c3.952,6.214,14.152,15.398,25.901,19.029c8.475,2.618,15.684,1.871,22.038-2.285C373.395,312.569,383.553,314.699,388.486,322.251z
	 M176.821,229.653c7.941-2.996,13.84-10.087,15.393-18.505c5.2-28.196,29.815-48.661,58.529-48.661
	c28.713,0,53.329,20.465,58.53,48.662c1.554,8.419,7.452,15.509,15.393,18.504c23.043,8.694,38.526,31.084,38.526,55.717
	c0,6.141-0.934,12.165-2.766,17.955c-0.947,0.488-1.877,1.029-2.787,1.624c-1.151,0.753-3.546,2.32-9.406,0.51
	c-8.874-2.743-16.128-10.225-17.624-12.635c-4.917-15.895-21.742-25.31-37.92-21.061c-8.103,2.127-14.891,7.281-19.116,14.514
	c-4.225,7.233-5.38,15.678-3.253,23.779c4.377,16.674,18.752,33.672,37.184,45.103c-0.29,0.627-0.563,1.261-0.799,1.909
	c-8.52,23.451-31.009,39.208-55.963,39.208s-47.443-15.757-55.963-39.208c-2.627-7.231-8.306-12.752-15.579-15.147
	c-13.261-4.365-24.155-13.045-31.36-24.178c-0.169-0.317-0.366-0.616-0.578-0.905c-1.884-3.03-3.494-6.235-4.812-9.578
	c-0.033-0.09-0.069-0.178-0.105-0.266c-2.624-6.75-4.052-14.053-4.052-21.623C138.294,260.737,153.777,238.347,176.821,229.653z
	 M151.788,415.136c-1.87,7.22-8.376,12.262-15.82,12.262c-1.379,0-2.765-0.178-4.118-0.528
	c-8.732-2.262-13.996-11.207-11.735-19.939c4.872-18.802,8.31-35.674,11.356-50.626c0.881-4.323,1.716-8.421,2.533-12.306
	c2.439,19.514,10.377,37.481,22.33,52.509C154.844,402.971,153.35,409.111,151.788,415.136z M222.424,491.125
	c-2.8,3.354-6.738,5.418-11.084,5.81c-9.228,0.815-16.958-5.843-17.768-14.825c-2.021-22.407-2.036-40.22-0.007-55.047
	c9.787,5.109,20.43,8.95,31.675,11.282c-0.865,10.994-0.561,24.442,0.916,40.83C226.55,483.526,225.224,487.77,222.424,491.125z
	 M312.367,406.935c-13.437,9.353-28.814,15.39-45.154,17.812c-0.078,0.009-0.155,0.01-0.233,0.021
	c-0.05,0.007-0.097,0.02-0.147,0.028c-5.276,0.763-10.65,1.158-16.092,1.158c-52.754,0-96.325-37.003-101.928-84.396
	c7.342,6.397,16.016,11.422,25.697,14.609c2.875,0.946,5.124,3.141,6.171,6.021c10.665,29.359,38.82,49.086,70.059,49.086
	s59.395-19.727,70.06-49.086c0.011-0.029,0.027-0.057,0.038-0.086c1.05,0.449,2.104,0.886,3.168,1.296
	c6.961,2.681,13.985,4.395,20.97,5.154C337.941,383.614,326.627,397.009,312.367,406.935z M443.158,438.702
	c-11.045,16.266-27.667,19.681-39.668,19.681c-5.672,0-11.621-0.799-17.205-2.31c-27.352-7.401-39.215-27.335-49.685-44.928
	c-0.616-1.035-1.252-2.098-1.895-3.165c3.744-3.581,7.211-7.407,10.402-11.422c1.449,2.344,2.855,4.692,4.232,7.005
	c9.903,16.646,19.258,32.368,40.818,38.202c17.456,4.72,32.688,0.463,40.738-11.391c6.771-9.975,6.457-22.691-0.802-32.399
	c-1.186-1.586-1.684-3.539-1.4-5.498c0.282-1.959,1.311-3.69,2.896-4.875c3.276-2.448,7.93-1.775,10.376,1.496
	C453.069,403.947,453.537,423.418,443.158,438.702z M151.587,171.782c-10.838-1.43-33.087,0.232-42.422,2.565
	c-4.019,1.004-6.461,5.077-5.457,9.095c0.853,3.408,3.91,5.683,7.271,5.683c0.603,0,1.215-0.073,1.825-0.226
	c7.686-1.921,28.025-3.407,36.818-2.246c4.089,0.538,7.874-2.346,8.418-6.453C158.582,176.093,155.693,172.324,151.587,171.782z"/>
<g>
</g>
<g>
</g>
<g>
</g>
<g>
</g>
<g>
</g>
<g>
</g>
<g>
</g>
<g>
</g>
<g>
</g>
<g>
</g>
<g>
</g>
<g>
</g>
<g>
</g>
<g>
</g>
<g>
</g>
</svg>
