<?xml version="1.0" encoding="iso-8859-1"?>
<!-- Generator: Adobe Illustrator 19.0.0, SVG Export Plug-In . SVG Version: 6.00 Build 0)  -->
<svg version="1.1" id="Capa_1" xmlns="http://www.w3.org/2000/svg" xmlns:xlink="http://www.w3.org/1999/xlink" x="0px" y="0px"
	 viewBox="0 0 512.003 512.003" style="enable-background:new 0 0 512.003 512.003;" xml:space="preserve">
<path style="fill:#EDA751;" d="M363.364,425.111c-36.9,0-57.807-25.799-76.396-48.738c-1.23-1.518-2.463-3.039-3.704-4.558
	c-4.904-6.004-4.014-14.847,1.991-19.753c6.006-4.906,14.847-4.013,19.753,1.99c1.263,1.547,2.52,3.097,3.773,4.644
	c20.426,25.205,34.261,40.53,59.892,38.077c17.504-1.674,26.876-8.044,36.799-14.788c10.307-7.006,21.99-14.947,40.413-14.947
	c7.753,0,14.038,6.285,14.038,14.038c0,7.753-6.285,14.038-14.038,14.038c-9.783,0-15.69,4.014-24.629,10.091
	c-11.247,7.645-25.244,17.159-49.909,19.517C368.604,424.985,365.945,425.111,363.364,425.111z"/>
<path style="fill:#FCD79D;" d="M445.884,367.038c-7.808,0-14.396,1.435-20.191,3.612c-0.533,7.185,0.417,17.398,7.236,27.389
	c3.92-1.857,7.925-2.925,12.955-2.925c7.753,0,14.038-6.285,14.038-14.038C459.922,373.322,453.637,367.038,445.884,367.038z"/>
<g>
	<path style="fill:#EDA751;" d="M284.92,504.5c-11.785,0-21.677-9.183-22.399-21.104c-2.563-42.334,0.371-71.319,1.781-85.249
		c1.249-12.341,12.273-21.331,24.608-20.085c12.343,1.249,21.335,12.267,20.085,24.609c-1.391,13.735-3.978,39.301-1.634,78.01
		c0.749,12.382-8.681,23.027-21.063,23.777C285.837,504.486,285.376,504.5,284.92,504.5z"/>
	<path style="fill:#EDA751;" d="M205.036,504.5c-11.784,0-21.677-9.183-22.398-21.104c-2.564-42.332,0.371-71.318,1.781-85.25
		c1.249-12.341,12.261-21.331,24.609-20.085c12.342,1.249,21.333,12.267,20.084,24.609c-1.389,13.736-3.978,39.305-1.634,78.01
		c0.75,12.382-8.68,23.028-21.062,23.777C205.953,504.486,205.493,504.5,205.036,504.5z"/>
</g>
<path style="fill:#495059;" d="M132.556,342.085c-23.315,0-52.521-5.188-73.897-26.565c-8.771-8.772-8.771-22.993,0-31.765
	c8.772-8.772,22.994-8.772,31.765,0c7.46,7.459,31.383,19.253,68.525,10.498c12.073-2.843,24.169,4.636,27.014,16.71
	c2.845,12.074-4.635,24.168-16.71,27.014C164.155,339.179,150.005,342.085,132.556,342.085z"/>
<path style="fill:#EDA751;" d="M90.423,283.755c-8.77-8.772-22.993-8.772-31.765,0c-8.771,8.771-8.771,22.993,0,31.765
	c6.97,6.971,14.775,12.211,22.935,16.12c12.321-12.657,18.313-27.692,21.226-40.093C97.025,289.061,92.849,286.18,90.423,283.755z"
	/>
<path style="opacity:0.15;enable-background:new    ;" d="M158.949,294.252c-10.683,2.518-20.266,3.33-28.686,3.041
	c-3.336,12.559-4.98,28.431-5.788,44.575c2.754,0.147,5.456,0.217,8.081,0.217c17.448,0,31.6-2.906,36.698-4.108
	c12.074-2.846,19.555-14.941,16.71-27.014C183.117,298.888,171.021,291.409,158.949,294.252z"/>
<path style="fill:#495059;" d="M357.803,342.085c23.315,0,52.521-5.188,73.897-26.565c8.772-8.772,8.772-22.993,0-31.765
	c-8.772-8.772-22.994-8.772-31.765,0c-7.46,7.459-31.383,19.253-68.525,10.498c-12.073-2.843-24.169,4.636-27.014,16.71
	c-2.846,12.074,4.635,24.168,16.71,27.014C326.204,339.179,340.354,342.085,357.803,342.085z"/>
<path style="fill:#EDA751;" d="M399.936,283.755c8.771-8.772,22.993-8.772,31.765,0c8.771,8.771,8.771,22.993,0,31.765
	c-6.97,6.971-14.775,12.211-22.935,16.12c-12.321-12.657-18.313-27.692-21.226-40.093
	C393.334,289.061,397.51,286.18,399.936,283.755z"/>
<path style="opacity:0.15;enable-background:new    ;" d="M331.411,294.252c10.683,2.518,20.266,3.33,28.685,3.041
	c3.336,12.559,4.981,28.431,5.788,44.575c-2.754,0.147-5.456,0.217-8.08,0.217c-17.448,0-31.6-2.906-36.698-4.108
	c-12.074-2.846-19.555-14.941-16.71-27.014C307.241,298.888,319.338,291.409,331.411,294.252z"/>
<g>
	<path style="opacity:0.2;fill:#A35F00;enable-background:new    ;" d="M308.78,358.695c-1.252-1.547-2.509-3.097-3.773-4.644
		c-4.906-6.003-13.747-6.896-19.753-1.99c-6.005,4.905-6.895,13.748-1.991,19.753c1.24,1.518,2.474,3.04,3.704,4.558
		c12.373,15.268,25.78,31.794,44.24,41.145c7.28-6.706,13.684-14.25,19.024-22.47C335.145,390.276,323.724,377.136,308.78,358.695z"
		/>
	<path style="opacity:0.2;fill:#A35F00;enable-background:new    ;" d="M209.027,378.061c-12.347-1.246-23.36,7.743-24.609,20.085
		c-0.768,7.593-1.988,19.669-2.525,35.932c13.433,7.61,28.527,12.879,44.644,15.193c0.049-21.609,1.604-37,2.575-46.601
		C230.36,390.328,221.369,379.31,209.027,378.061z"/>
	<path style="opacity:0.2;fill:#A35F00;enable-background:new    ;" d="M288.91,378.061c-12.335-1.246-23.359,7.743-24.608,20.085
		c-0.996,9.835-2.749,27.185-2.792,51.431c16.267-2.038,31.541-7.074,45.166-14.501c0.491-14.32,1.577-25.057,2.32-32.405
		C310.245,390.328,301.252,379.31,288.91,378.061z"/>
</g>
<ellipse style="fill:#FCD690;" cx="245.175" cy="334.916" rx="103.602" ry="96.272"/>
<path style="opacity:0.15;fill:#C17A00;enable-background:new    ;" d="M230.051,430.159
	c-47.342-31.082-32.67-94.785-24.633-122.644v-61.513c-37.482,14.489-63.837,48.84-63.837,88.916
	C141.581,383.308,180.007,423.355,230.051,430.159z"/>
<path style="fill:#495059;" d="M148.348,284.402c-9.114,18.219-10.836,52.857-11.161,82.605
	c-0.119,10.852,8.623,19.722,19.476,19.722h48.505c4.296,0,7.779-3.483,7.779-7.779v-94.549L148.348,284.402L148.348,284.402z"/>
<path style="fill:#8F959B;" d="M192.775,386.73h12.392c4.296,0,7.779-3.483,7.779-7.779v-94.549h-20.17V386.73H192.775z"/>
<path style="fill:#495059;" d="M342.011,284.402c9.114,18.219,10.836,52.857,11.161,82.605c0.119,10.852-8.623,19.722-19.476,19.722
	h-48.505c-4.296,0-7.779-3.483-7.779-7.779v-94.549L342.011,284.402L342.011,284.402z"/>
<path style="fill:#8F959B;" d="M297.583,386.73h-12.392c-4.296,0-7.779-3.483-7.779-7.779v-94.549h20.17L297.583,386.73
	L297.583,386.73z"/>
<path style="fill:#EDA751;" d="M182.133,167.992c20.271-17.01,33.807-45.566,5.213-87.778
	c-28.82-42.546-71.727-53.211-105.226-49.264c-8.258,0.973-15.188,6.787-17.58,14.751c-9.703,32.305-6.652,76.412,30.244,112.182
	C131.389,193.372,161.861,185.002,182.133,167.992z"/>
<path style="fill:#FF91AB;" d="M63.192,50.645c-7.955,31.762-3.457,73.258,31.592,107.239
	c31.729,30.762,58.843,28.564,78.707,16.356C159.83,81.498,100.15,56.904,63.192,50.645z"/>
<path style="fill:#EDA751;" d="M308.225,167.992c-20.272-17.01-33.807-45.566-5.213-87.778
	c28.819-42.546,71.727-53.211,105.226-49.264c8.258,0.973,15.188,6.787,17.58,14.751c9.703,32.305,6.651,76.412-30.244,112.182
	C358.969,193.372,328.498,185.002,308.225,167.992z"/>
<path style="fill:#FF91AB;" d="M427.167,50.645c7.955,31.762,3.457,73.258-31.592,107.239
	c-31.729,30.762-58.843,28.564-78.707,16.356C330.529,81.498,390.209,56.904,427.167,50.645z"/>
<path style="fill:#FFDC9C;" d="M421.554,193.665c0,80.643-78.966,115.965-176.375,115.965S68.804,274.31,68.804,193.665
	S147.77,47.647,245.179,47.647S421.554,113.022,421.554,193.665z"/>
<path style="opacity:0.15;fill:#C17A00;enable-background:new    ;" d="M151.004,70.192
	c-49.396,25.876-82.199,71.501-82.199,123.474c0,69.324,58.354,105.156,136.613,113.849
	C93.078,240.41,107.729,150.15,151.004,70.192z"/>
<g>
	<ellipse style="fill:#FF91AB;" cx="158.634" cy="197.064" rx="31.935" ry="25.431"/>
	<ellipse style="fill:#FF91AB;" cx="331.727" cy="197.064" rx="31.935" ry="25.431"/>
</g>
<g>
	<path style="fill:#495059;" d="M156.797,134.384c-4.666,0-8.448,3.783-8.448,8.448V162.5c0,16.415,14.461,29.723,32.3,29.723
		s32.3-13.307,32.3-29.723v-19.667c0-4.666-3.783-8.448-8.448-8.448H156.797z"/>
	<path style="fill:#495059;" d="M333.562,134.384c4.666,0,8.448,3.783,8.448,8.448V162.5c0,16.415-14.461,29.723-32.3,29.723
		c-17.838,0-32.3-13.307-32.3-29.723v-19.667c0-4.666,3.782-8.448,8.448-8.448H333.562z"/>
	<path style="fill:#495059;" d="M295.521,98.517h-99.836c-21.15,0-38.296-17.146-38.296-38.297l0,0
		c0-21.15,17.145-38.296,38.296-38.296h83.279c19.771,0,39.294-4.409,57.146-12.907l0,0c11.522-5.485,24.323,4.649,21.628,17.123
		l-5.8,26.845C346.2,79.552,322.703,98.517,295.521,98.517z"/>
</g>
<g style="opacity:0.1;">
	<path d="M273.412,68.807c-1.458,0-2.914-0.005-4.366-0.01c-1.388-0.005-2.77-0.01-4.144-0.01c-4.143,0-7.5-3.358-7.5-7.5
		s3.357-7.5,7.5-7.5c1.392,0,2.791,0.005,4.195,0.01c16.209,0.056,32.953,0.114,43.28-7.604c3.32-2.479,8.02-1.799,10.498,1.518
		c2.48,3.318,1.8,8.018-1.518,10.498C308.129,68.095,290.686,68.807,273.412,68.807z"/>
	<path d="M220.577,58.517h-19.653c-4.142,0-7.5-3.358-7.5-7.5s3.358-7.5,7.5-7.5h19.653c4.142,0,7.5,3.358,7.5,7.5
		S224.719,58.517,220.577,58.517z"/>
</g>
<path d="M268.019,177.389c-3.123-2.722-7.859-2.397-10.582,0.726c-3.095,3.551-7.562,5.587-12.257,5.587
	c-4.695,0-9.162-2.037-12.256-5.587c-2.722-3.123-7.459-3.447-10.582-0.727c-3.122,2.722-3.448,7.459-0.726,10.582
	c5.944,6.82,14.533,10.732,23.565,10.732c9.031,0,17.62-3.912,23.565-10.732C271.466,184.848,271.142,180.11,268.019,177.389z
	 M155.465,208.387c-9.988,2.652-28.835,12.118-36.154,17.521c-3.332,2.46-4.04,7.156-1.58,10.488c1.471,1.992,3.74,3.046,6.04,3.046
	c1.547,0,3.108-0.477,4.448-1.466c5.842-4.313,23.223-13.002,31.094-15.091c4.003-1.063,6.387-5.17,5.325-9.173
	C163.576,209.708,159.47,207.324,155.465,208.387z M445.884,359.537c-20.732,0-33.983,9.007-44.629,16.245
	c-9.5,6.457-17.704,12.034-33.298,13.525c-6.091,0.584-11.428,0.048-16.514-1.75c0.485-0.426,0.962-0.864,1.421-1.328
	c5.114-5.17,7.887-12.025,7.808-19.303c-0.06-5.523-0.171-11.379-0.376-17.364c19.16-0.295,36.367-3.994,51.032-10.878
	c0.427-0.155,0.842-0.351,1.241-0.587c9.231-4.491,17.428-10.266,24.435-17.273c5.658-5.659,8.774-13.183,8.774-21.186
	c0-8.003-3.116-15.527-8.774-21.185c-5.66-5.659-13.184-8.776-21.186-8.776c-8.004,0-15.527,3.117-21.185,8.775
	c-1.76,1.759-4.967,3.987-9.543,6.007c-0.322,0.111-0.628,0.249-0.926,0.399c-2.806,1.173-6.087,2.256-9.835,3.111
	c35.801-21.454,54.726-54.045,54.726-94.304c0-17.815-3.68-35.191-10.611-51.483c19.4-29.082,24.729-64.778,14.558-98.638
	c-3.258-10.85-12.634-18.717-23.885-20.042c-14.709-1.733-29.635-0.681-43.828,3.016c1.326-8.19-1.811-16.357-8.376-21.554
	c-6.887-5.453-16.093-6.494-24.023-2.718c-16.737,7.967-35.385,12.179-53.923,12.179h-83.279c-17.628,0-32.953,10.018-40.605,24.655
	c-29.159-17.506-58.307-17.407-73.838-15.577c-11.251,1.325-20.626,9.192-23.886,20.042c-10.18,33.89-4.833,69.621,14.611,98.718
	c-6.942,16.276-10.664,33.628-10.664,51.404c0,26.015,7.737,48.691,22.997,67.397c1.482,1.818,3.64,2.759,5.816,2.759
	c1.667,0,3.344-0.553,4.736-1.689c3.21-2.618,3.689-7.343,1.071-10.552c-13.019-15.959-19.62-35.445-19.62-57.915
	c0-46.878,29.281-90.708,76.977-116.175c6.832,16.714,23.261,28.527,42.405,28.527h99.835c14.854,0,29.401-5.138,40.961-14.466
	c3.392-2.737,6.475-5.81,9.233-9.141c42.913,26.136,68.34,67.302,68.34,111.257c0,35.396-16.144,62.907-47.981,81.771
	c-7.057,4.181-14.827,7.884-23.235,11.108c-0.08,0.031-0.162,0.059-0.24,0.093c-18.881,7.207-40.997,11.975-65.655,14.143
	c-0.163,0.01-0.325,0.023-0.485,0.044c-10.023,0.866-20.464,1.305-31.277,1.305c-10.822,0-21.252-0.442-31.265-1.304
	c-0.199-0.026-0.401-0.041-0.605-0.051c-24.559-2.158-46.545-6.881-65.335-14.034c-0.312-0.147-0.632-0.282-0.971-0.387
	c-0.018-0.005-0.035-0.008-0.053-0.014c-10.023-3.887-19.131-8.467-27.214-13.728c-3.471-2.259-8.118-1.278-10.377,2.194
	c-2.26,3.472-1.277,8.118,2.194,10.377c1.464,0.953,2.968,1.878,4.49,2.79c-3.748-0.855-7.03-1.939-9.837-3.111
	c-0.304-0.154-0.616-0.294-0.945-0.407c-4.572-2.019-7.777-4.246-9.535-6.004c-5.658-5.66-13.182-8.776-21.186-8.776
	c-8.003,0-15.527,3.117-21.186,8.776c-5.659,5.658-8.775,13.182-8.775,21.185c0,8.003,3.117,15.527,8.775,21.186
	c7.005,7.006,15.201,12.78,24.43,17.271c0.401,0.237,0.818,0.434,1.247,0.59c14.664,6.884,31.871,10.583,51.03,10.878
	c-0.204,5.985-0.315,11.841-0.376,17.364c-0.08,7.278,2.693,14.133,7.806,19.303c4.452,4.5,10.2,7.236,16.412,7.862
	c6.113,8.223,13.35,15.461,21.451,21.586c-1.566,22.064-1.646,44.411-0.207,68.172c0.956,15.785,14.083,28.15,29.886,28.15
	c0.606,0,1.217-0.018,1.833-0.055c7.988-0.484,15.309-4.049,20.616-10.04c5.306-5.991,7.962-13.689,7.478-21.677
	c-0.875-14.465-1.121-28.564-0.753-42.047c3.621,0.331,7.28,0.504,10.969,0.504c3.016,0,6.009-0.125,8.981-0.347
	c-0.35,14.768-0.064,30.032,0.874,45.512c0.957,15.785,14.084,28.151,29.887,28.151c0.605,0,1.218-0.018,1.831-0.055
	c13.304-0.806,24.594-10.452,27.455-23.458c0.89-4.045-1.668-8.046-5.714-8.936c-4.051-0.891-8.047,1.669-8.937,5.713
	c-1.428,6.491-7.066,11.306-13.71,11.708c-8.271,0.501-15.343-5.84-15.839-14.03c-0.964-15.915-1.228-31.591-0.794-46.692
	c10.709-2.199,20.933-5.858,30.387-10.817c-0.419,7.454-0.725,16.467-0.678,27.01c0.019,4.131,3.373,7.466,7.499,7.466h0.035
	c4.142-0.019,7.484-3.392,7.466-7.534c-0.07-15.416,0.643-27.438,1.331-35.975c14.8,10.886,30.601,16.209,48.112,16.209
	c2.84,0,5.766-0.142,8.694-0.422c26.577-2.541,42.088-13.083,53.412-20.78c8.614-5.855,12.938-8.794,20.413-8.794
	c11.876,0,21.538-9.662,21.538-21.538C467.422,369.202,457.76,359.537,445.884,359.537z M79.891,126.511
	c-14.328-25.784-13.725-50.936-10.886-67.08c14.523,3.259,32.688,9.847,49.35,23.095C102.449,95.209,89.445,110.128,79.891,126.511z
	 M149.943,62.309c-6.674,3.378-13.028,7.091-19.057,11.094c-19.381-16.486-40.833-24.532-57.894-28.446
	c2.092-3.584,5.764-6.058,10.007-6.558c14.081-1.658,40.991-1.694,67.35,15.408c-0.295,2.097-0.458,4.236-0.458,6.414
	C149.89,60.921,149.911,61.616,149.943,62.309z M350.408,24.555l-2.463,11.4l0,0l-3.336,15.445
	c-4.959,22.954-25.603,39.615-49.088,39.615h-99.835c-16.98,0-30.796-13.815-30.796-30.797c0-16.98,13.815-30.796,30.796-30.796
	h83.279c20.755,0,41.631-4.715,60.37-13.635c2.771-1.319,5.86-0.97,8.266,0.935C350.007,18.628,351.057,21.556,350.408,24.555z
	 M353.9,69.835c2.404-4.825,4.223-9.951,5.371-15.266l2.448-11.332c18.172-6.245,34.695-6.128,45.642-4.837
	c4.242,0.5,7.915,2.973,10.007,6.557c-17.058,3.913-38.505,11.957-57.882,28.436C357.655,72.18,355.793,70.994,353.9,69.835z
	 M410.516,126.42c-9.523-16.335-22.513-31.222-38.483-43.917c16.654-13.232,34.806-19.815,49.32-23.072
	C424.189,75.556,424.793,100.668,410.516,126.42z M405.239,289.058c2.825-2.826,6.582-4.382,10.578-4.382s7.753,1.556,10.58,4.382
	c2.825,2.826,4.381,6.582,4.381,10.579c0,3.996-1.556,7.753-4.382,10.579c-4.913,4.913-10.311,8.872-15.957,12.061
	c-6.241-7.54-10.947-16.477-14.046-26.684C400.055,293.52,403.021,291.276,405.239,289.058z M382.486,301.363
	c3.236,10.146,7.868,19.255,13.848,27.236c-12.794,4.426-25.855,5.842-36.778,5.975c-0.681-10.266-1.769-20.471-3.517-29.734
	C366.141,304.926,375.008,303.557,382.486,301.363z M79.917,322.278c-5.645-3.189-11.044-7.148-15.956-12.061
	c-2.826-2.826-4.382-6.583-4.382-10.579c0-3.996,1.556-7.753,4.382-10.579c2.826-2.826,6.583-4.382,10.579-4.382
	c3.996,0,7.753,1.556,10.579,4.383c2.218,2.218,5.184,4.462,8.844,6.536C90.865,305.801,86.159,314.739,79.917,322.278z
	 M130.802,334.573c-10.922-0.133-23.984-1.548-36.778-5.975c5.978-7.979,10.611-17.088,13.847-27.233
	c7.478,2.195,16.345,3.564,26.446,3.476C132.571,314.103,131.483,324.308,130.802,334.573z M284.912,315.057
	c20.264-2.198,38.895-6.127,55.515-11.717c4.241,19.066,5.04,44.975,5.245,63.75c0.036,3.241-1.197,6.292-3.472,8.591
	c-1.999,2.021-4.588,3.237-7.383,3.495c-0.173,0.001-0.345,0.012-0.517,0.025c-0.202,0.01-0.401,0.03-0.605,0.03h-1.101
	c-0.012,0-0.024,0-0.037,0H285.19c-0.153,0-0.278-0.125-0.278-0.279V315.057z M157.809,379.231c-0.017,0-0.033,0-0.05,0h-1.096
	c-3.22,0-6.24-1.261-8.505-3.55c-2.274-2.299-3.507-5.35-3.472-8.59c0.206-18.773,1.005-44.676,5.243-63.741
	c16.615,5.595,35.227,9.531,55.517,11.724v63.878c0,0.154-0.125,0.279-0.279,0.279H157.809z M216.256,491.958
	c-2.65,2.992-6.306,4.772-10.292,5.014c-8.28,0.491-15.345-5.839-15.84-14.029c-1.22-20.158-1.314-39.25-0.313-58.012
	c9.163,4.919,19.071,8.6,29.455,10.909c-0.46,14.503-0.218,29.706,0.726,45.294C220.232,485.123,218.906,488.967,216.256,491.958z
	 M310.209,400.298c-0.298,0.217-0.586,0.453-0.856,0.718c-1.61,1.338-3.262,2.624-4.959,3.853c-0.403,0.234-0.783,0.503-1.135,0.806
	c-12.361,8.68-26.87,14.483-42.4,16.829c-0.091,0.013-0.181,0.028-0.271,0.044c-5.043,0.748-10.192,1.134-15.409,1.134
	c-21.041,0-40.979-6.254-57.277-17.452c-0.312-0.257-0.647-0.487-0.999-0.692c-4.751-3.354-9.182-7.135-13.228-11.309h31.494
	c8.425,0,15.279-6.854,15.279-15.279v-62.594c8.02,0.513,16.268,0.775,24.732,0.775c8.458,0,16.706-0.264,24.732-0.781v62.601
	c0,8.425,6.854,15.279,15.278,15.279h31.494C314.623,396.357,312.462,398.38,310.209,400.298z M445.884,387.613
	c-12.091,0-19.484,5.026-28.845,11.389c-11.088,7.536-23.655,16.078-46.408,18.254c-2.457,0.235-4.901,0.354-7.267,0.354
	c-13.541,0-25.501-3.776-37.078-11.756c3.1-3.1,6.017-6.394,8.727-9.874c10.528,6.844,21.587,9.483,34.373,8.259
	c19.418-1.857,30.034-9.073,40.302-16.051c9.871-6.711,20.079-13.65,36.196-13.65c3.605,0,6.538,2.933,6.538,6.538
	S449.49,387.613,445.884,387.613z M111.786,186.825c-4.019,1.004-6.461,5.077-5.457,9.095c0.852,3.408,3.91,5.683,7.27,5.683
	c0.603,0,1.214-0.073,1.825-0.226c7.044-1.761,26.423-3.172,34.498-2.105c3.966,0.522,7.594-2.145,8.338-6.015
	c6.383,4.076,14.091,6.465,22.386,6.465c21.945,0,39.8-16.698,39.8-37.223v-9.024c6.89-0.621,15.174-0.934,24.732-0.934
	c9.557,0,17.842,0.314,24.732,0.934v9.024c0,20.524,17.854,37.223,39.8,37.223c8.295,0,16.004-2.389,22.386-6.465
	c0.746,3.871,4.39,6.538,8.337,6.015c8.076-1.068,27.454,0.344,34.498,2.105c0.611,0.153,1.223,0.226,1.825,0.226
	c3.36,0,6.418-2.275,7.271-5.683c1.004-4.019-1.439-8.091-5.457-9.095c-7.877-1.969-25.477-3.43-36.453-2.76
	c4.646-6.089,7.391-13.531,7.391-21.565v-19.667c0-8.794-7.154-15.949-15.948-15.949h-47.702c-7.282,0-13.426,4.911-15.328,11.592
	c-7.211-0.62-15.695-0.934-25.353-0.934c-9.658,0-18.142,0.315-25.352,0.934c-1.902-6.68-8.047-11.592-15.328-11.592h-47.702
	c-8.794,0-15.948,7.155-15.948,15.949V162.5c0,8.035,2.745,15.476,7.391,21.565C137.261,183.395,119.664,184.855,111.786,186.825z
	 M284.912,142.834c0-0.523,0.426-0.949,0.948-0.949h47.702c0.522,0,0.948,0.426,0.948,0.949v19.667
	c0,12.253-11.125,22.222-24.799,22.222c-13.674,0-24.799-9.969-24.799-22.222v-19.667H284.912z M155.848,142.834
	c0-0.523,0.425-0.949,0.948-0.949h47.702c0.523,0,0.949,0.426,0.949,0.949v19.667c0,12.253-11.124,22.222-24.799,22.222
	c-13.674,0-24.799-9.969-24.799-22.222L155.848,142.834L155.848,142.834z M334.894,208.387c-4.009-1.063-8.111,1.321-9.174,5.325
	c-1.063,4.004,1.321,8.11,5.324,9.173c7.87,2.089,25.251,10.778,31.095,15.091c1.341,0.989,2.9,1.466,4.448,1.466
	c2.3,0,4.569-1.054,6.04-3.046c2.46-3.333,1.753-8.028-1.58-10.488C363.727,220.505,344.881,211.038,334.894,208.387z"/>
<path style="fill:#FFFFFF;" d="M355.629,123.7L355.629,123.7c-3.501,0-6.338-2.837-6.338-6.338l0,0c0-4.005-3.086-7.512-7.089-7.615
	c-4.109-0.105-7.471,3.194-7.471,7.278v0.337c0,3.5-2.837,6.338-6.338,6.338l0,0c-4.004,0-7.512,3.085-7.615,7.088
	c-0.106,4.109,3.193,7.473,7.278,7.473h0.338c3.5,0,6.338,2.838,6.338,6.338v0.001c0,4.005,3.086,7.512,7.089,7.615
	c4.108,0.105,7.471-3.194,7.471-7.278V144.6c0-3.5,2.837-6.338,6.338-6.338h0.338c4.085,0,7.384-3.364,7.278-7.473
	C363.141,126.785,359.634,123.7,355.629,123.7z"/>
<g>
</g>
<g>
</g>
<g>
</g>
<g>
</g>
<g>
</g>
<g>
</g>
<g>
</g>
<g>
</g>
<g>
</g>
<g>
</g>
<g>
</g>
<g>
</g>
<g>
</g>
<g>
</g>
<g>
</g>
</svg>
