<?xml version="1.0" encoding="iso-8859-1"?>
<!-- Generator: Adobe Illustrator 19.0.0, SVG Export Plug-In . SVG Version: 6.00 Build 0)  -->
<svg version="1.1" id="Capa_1" xmlns="http://www.w3.org/2000/svg" xmlns:xlink="http://www.w3.org/1999/xlink" x="0px" y="0px"
	 viewBox="0 0 511.998 511.998" style="enable-background:new 0 0 511.998 511.998;" xml:space="preserve">
<path style="fill:#EDA751;" d="M140.76,442.35c-6.059,0-12.075-0.651-17.924-1.966c-29.132-6.552-49.503-27.94-51.897-54.486
	c-0.63-6.99,4.525-13.168,11.516-13.798c6.976-0.63,13.167,4.525,13.798,11.516c1.383,15.339,14.007,27.889,32.161,31.973
	c21.807,4.907,52.483-2.369,73.179-37.496c3.562-6.047,11.353-8.061,17.399-4.498c6.047,3.563,8.061,11.353,4.498,17.4
	c-11.909,20.214-28.245,35.354-47.241,43.782C164.949,439.789,152.775,442.35,140.76,442.35z"/>
<path style="fill:#FCD79D;" d="M99.67,395.209c-1.868-3.594-3.048-7.492-3.418-11.594c-0.631-6.99-6.822-12.146-13.798-11.516
	c-6.99,0.63-12.146,6.808-11.516,13.798c0.543,6.019,2.019,11.769,4.303,17.145C82.633,402.577,92.751,400.51,99.67,395.209z"/>
<g>
	<path style="fill:#EDA751;" d="M300.78,504.499c-1.364,0-2.747-0.138-4.135-0.424c-10.997-2.272-18.07-13.03-15.798-24.027
		c4.187-20.259,1.044-43.654-4.412-54.567c-5.022-10.044-0.951-22.257,9.093-27.279c10.046-5.021,22.257-0.951,27.279,9.093
		c10.41,20.821,13.571,53.365,7.865,80.983C318.685,497.885,310.221,504.499,300.78,504.499z"/>
	<path style="fill:#EDA751;" d="M212.955,504.5c-8.375,0-16.219-5.215-19.17-13.561c-12.739-36.034-2.886-63.629,7.122-83.645
		c5.023-10.043,17.235-14.115,27.279-9.093c10.044,5.022,14.115,17.236,9.093,27.279c-6.967,13.934-13.104,29.42-5.155,51.905
		c3.743,10.587-1.805,22.204-12.393,25.947C217.492,504.124,215.204,504.5,212.955,504.5z"/>
	<path style="fill:#EDA751;" d="M164.457,370.559c-24.856,0-55.864-6.6-80.441-21.866c-9.539-5.925-12.469-18.461-6.544-28
		c5.924-9.539,18.46-12.47,28-6.544c24.13,14.988,58.086,17.995,73.326,14.404c10.931-2.572,21.878,4.196,24.455,15.126
		c2.576,10.93-4.196,21.879-15.126,24.455C181.403,369.72,173.318,370.559,164.457,370.559z"/>
	<path style="fill:#EDA751;" d="M394.779,417.275c-7.298,0-14.353-3.94-17.997-10.843c-13.763-26.066-37.983-35.183-51.195-38.298
		c-10.93-2.576-17.702-13.525-15.125-24.455s13.527-17.701,24.455-15.125c19.933,4.698,56.55,18.597,77.826,58.89
		c5.243,9.93,1.444,22.23-8.487,27.474C401.228,416.517,397.98,417.275,394.779,417.275z"/>
</g>
<g>
	<path style="opacity:0.2;fill:#A35F00;enable-background:new    ;" d="M218.991,373.594c-6.047-3.563-13.837-1.548-17.399,4.498
		c-11.841,20.098-26.949,31.067-41.794,35.865c4.788,7.49,10.522,14.387,17.053,20.535c18.737-8.48,34.856-23.5,46.638-43.498
		C227.052,384.947,225.038,377.157,218.991,373.594z"/>
	<path style="opacity:0.2;fill:#A35F00;enable-background:new    ;" d="M322.825,445.721c-1.348-14.371-4.755-27.899-10.019-38.427
		c-5.022-10.044-17.234-14.114-27.279-9.093c-10.044,5.022-14.115,17.236-9.093,27.279c3.954,7.908,6.69,22.371,6.306,37.445
		C297.398,459.685,310.966,453.755,322.825,445.721z"/>
	<path style="opacity:0.2;fill:#A35F00;enable-background:new    ;" d="M228.187,398.201c-10.044-5.021-22.257-0.95-27.279,9.093
		c-5.131,10.262-10.213,22.522-12.239,36.884c11.761,8.382,25.305,14.658,39.997,18.216c-1.502-14.803,3.312-26.31,8.614-36.914
		C242.302,415.436,238.231,403.223,228.187,398.201z"/>
	<path style="opacity:0.2;fill:#A35F00;enable-background:new    ;" d="M178.798,328.553c-7.066,1.665-18.158,1.908-30.426,0.2
		c-3.059,9.647-4.71,19.859-4.71,30.429c0,3.376,0.175,6.713,0.503,10.009c7.029,0.917,13.868,1.368,20.292,1.368
		c8.861,0,16.946-0.84,23.67-2.425c10.93-2.576,17.702-13.525,15.126-24.455C200.677,332.75,189.729,325.981,178.798,328.553z"/>
	<path style="opacity:0.2;fill:#A35F00;enable-background:new    ;" d="M310.462,343.679c-2.576,10.93,4.195,21.878,15.125,24.455
		c9.988,2.354,26.264,8.146,39.56,22.09c3.185-9.826,4.904-20.248,4.904-31.042c0-5.93-0.526-11.747-1.52-17.416
		c-12.625-7.218-24.765-11.126-33.615-13.212C323.989,325.979,313.039,332.749,310.462,343.679z"/>
</g>
<ellipse style="fill:#FCD690;" cx="256.859" cy="359.18" rx="93.78" ry="87.14"/>
<path style="opacity:0.15;fill:#C17A00;enable-background:new    ;" d="M243.162,445.398
	c-42.855-28.136-29.573-85.802-22.299-111.021v-55.683c-33.929,13.116-57.787,44.212-57.787,80.489
	C163.076,402.987,197.861,439.238,243.162,445.398z"/>
<path style="fill:#EDA751;" d="M199.786,208.077c18.351-15.398,30.603-41.247,4.719-79.459
	c-26.088-38.514-64.93-48.168-95.253-44.595c-7.476,0.881-13.749,6.144-15.914,13.354c-8.784,29.243-6.021,69.17,27.377,101.55
	C153.851,231.052,181.435,223.475,199.786,208.077z"/>
<path style="fill:#FF91AB;" d="M92.117,101.851c-7.201,28.752-3.129,66.316,28.598,97.075
	c28.722,27.846,53.267,25.856,71.249,14.807C179.596,129.779,125.572,107.517,92.117,101.851z"/>
<path style="fill:#EDA751;" d="M313.928,208.077c-18.351-15.398-30.603-41.247-4.719-79.459
	c26.088-38.514,64.93-48.168,95.253-44.595c7.476,0.881,13.749,6.144,15.914,13.354c8.784,29.243,6.021,69.17-27.377,101.55
	C359.863,231.052,332.279,223.475,313.928,208.077z"/>
<path style="fill:#FF91AB;" d="M421.597,101.851c7.201,28.752,3.129,66.316-28.598,97.075
	c-28.722,27.846-53.267,25.856-71.249,14.807C334.118,129.779,388.142,107.517,421.597,101.851z"/>
<path style="fill:#FFDC9C;" d="M416.517,231.318c0,73.001-71.482,104.975-159.66,104.975s-159.66-31.974-159.66-104.975
	s71.482-132.18,159.66-132.18C345.035,99.137,416.517,158.316,416.517,231.318z"/>
<path style="opacity:0.15;fill:#C17A00;enable-background:new    ;" d="M171.607,119.545
	c-44.715,23.424-74.409,64.725-74.409,111.772c0,62.754,52.823,95.19,123.667,103.059
	C119.17,273.632,132.433,191.925,171.607,119.545z"/>
<path style="fill:#7694E4;" d="M343.195,282.955c3.354,2.784,4.408,7.495,2.514,11.42c-3.287,6.81-10.702,17.353-27.144,26.846
	c-16.442,9.493-29.28,10.643-36.821,10.085c-4.347-0.322-7.899-3.591-8.633-7.887L255.103,218.08l5.871-3.39L343.195,282.955z"/>
<g>
	<path style="fill:#82C7E6;" d="M343.195,282.955l-8.027-6.664c-6.638,8.326-16.408,17.528-28.42,24.464
		c-12.013,6.935-24.867,10.795-35.396,12.381l1.758,10.284c0.734,4.297,4.286,7.565,8.633,7.887
		c7.542,0.558,20.379-0.592,36.821-10.085c16.442-9.493,23.857-20.035,27.144-26.846
		C347.604,290.449,346.549,285.739,343.195,282.955z"/>
	<path style="fill:#82C7E6;" d="M260.973,214.689l-5.871,3.39l10.859,63.519c6.947-19.324,16.558-33.281,24.197-42.678
		L260.973,214.689z"/>
</g>
<g>
	<ellipse style="fill:#FF91AB;" cx="178.509" cy="234.4" rx="28.908" ry="23.02"/>
	<ellipse style="fill:#FF91AB;" cx="335.199" cy="234.4" rx="28.908" ry="23.02"/>
</g>
<path style="fill:#82C7E6;" d="M256.857,151.811c38.39,0,60.307-14.733,68.993-22.252c2.595-2.247,2.991-6.119,0.886-8.831
	l-64.792-83.483c-2.578-3.322-7.596-3.322-10.174,0l-64.793,83.483c-2.105,2.712-1.709,6.584,0.886,8.831
	C196.55,137.077,218.467,151.811,256.857,151.811z"/>
<path style="fill:#7694E4;" d="M261.944,37.245c-2.578-3.322-7.596-3.322-10.174,0l-64.792,83.483
	c-1.669,2.15-1.76,5.027-0.435,7.248c25.684-0.712,71.232-8.105,110.721-45.223L261.944,37.245z"/>
<circle style="fill:#78CFC0;" cx="255.099" cy="35.01" r="27.505"/>
<path d="M427.56,95.219c-3.032-10.093-11.753-17.412-22.22-18.644c-30.526-3.6-60.581,5.834-83.245,25.941l-37.631-48.487
	c3.563-5.481,5.643-12.012,5.643-19.023C290.107,15.703,274.404,0,255.102,0s-35.005,15.703-35.005,35.005
	c0,8.049,2.737,15.466,7.32,21.385l-35.798,46.125c-22.664-20.106-52.722-29.538-83.245-25.941
	c-10.466,1.233-19.188,8.552-22.22,18.644c-9.227,30.719-4.453,63.096,13.035,89.534c-6.262,14.823-9.492,30.521-9.492,46.565
	c0,39.32,19.565,70.048,55.992,89.418c-12.356-2.114-25.517-6.285-36.259-12.957c-6.316-3.923-13.783-5.151-21.021-3.46
	c-7.239,1.692-13.386,6.103-17.308,12.418s-5.151,13.78-3.459,21.019c1.691,7.239,6.101,13.386,12.416,17.309
	c21.354,13.263,49.913,21.611,77.508,22.823c1.892,8.784,5.091,17.131,9.396,24.858c-11.63,6.231-24.749,8.261-36.904,5.525
	c-14.915-3.355-25.253-13.297-26.337-25.33c-0.485-5.375-3.037-10.241-7.186-13.701c-4.146-3.458-9.384-5.093-14.756-4.61
	c-11.097,1.001-19.312,10.843-18.312,21.941c2.693,29.854,25.35,53.849,57.721,61.129c6.338,1.426,12.923,2.149,19.57,2.149
	c13.088,0,26.411-2.842,38.53-8.219c0.792-0.351,1.582-0.715,2.369-1.091c-2.939,17.556-1.268,35.013,5.056,52.9
	c3.925,11.101,14.471,18.56,26.241,18.56c3.159,0,6.281-0.537,9.278-1.597c14.469-5.116,22.079-21.049,16.963-35.518
	c-2.874-8.127-3.863-15.603-3.013-23.044c6.676,1.299,13.591,1.985,20.674,1.985c6.183,0,12.237-0.523,18.117-1.519
	c0.668,9.011,0.177,18.239-1.472,26.223c-3.105,15.03,6.596,29.784,21.628,32.89c1.863,0.384,3.764,0.579,5.65,0.579
	c13.123,0,24.578-9.338,27.236-22.204c4.123-19.954,3.876-43.069-0.566-62.816c11.439-10.403,20.265-23.302,25.454-37.748
	c5.066,3.994,9.464,8.627,13.103,13.877c1.457,2.101,3.794,3.227,6.17,3.227c1.474,0,2.963-0.434,4.267-1.337
	c3.404-2.36,4.25-7.033,1.89-10.437c-5.713-8.24-12.897-15.248-21.377-20.916c0.777-4.716,1.181-9.545,1.181-14.461
	c0-5.085-0.424-10.105-1.266-15.042c17.036,8.051,36.222,22.154,49.237,46.805c3.304,6.257,0.901,14.036-5.355,17.339
	c-1.632,0.861-3.381,1.354-5.198,1.465c-4.134,0.252-7.282,3.808-7.03,7.942c0.243,3.979,3.545,7.044,7.479,7.044
	c0.153,0,0.308-0.004,0.463-0.014c3.96-0.242,7.759-1.309,11.29-3.173c13.571-7.166,18.782-24.037,11.617-37.608
	c-17.083-32.353-43.379-48.737-64.531-57.002c6.68-2.775,12.942-5.877,18.734-9.309c32.999-19.551,50.44-49.398,50.44-86.315
	c0-16.044-3.231-31.742-9.492-46.565C432.013,158.314,436.787,125.937,427.56,95.219z M403.585,91.471
	c3.28,0.387,6.158,2.16,7.996,4.766c-15.239,3.616-34.131,10.865-51.292,25.317c-7.081-4.661-14.61-8.844-22.535-12.502
	C363.693,89.449,391.841,90.089,403.585,91.471z M255.102,15c11.031,0,20.005,8.975,20.005,20.005
	c0,11.031-8.975,20.005-20.005,20.005c-11.031,0-20.005-8.975-20.005-20.005C235.097,23.975,244.071,15,255.102,15z
	 M201.988,113.619c0.002-0.003,0.005-0.006,0.007-0.009l36.927-47.578c4.843,2.536,10.345,3.979,16.18,3.979
	c6.834,0,13.212-1.976,18.607-5.376l38.01,48.975c0.002,0.003,0.005,0.006,0.007,0.009l8.466,10.908
	c-21.254,17.841-51.301,19.784-63.335,19.784c-12.033,0-42.08-1.942-63.335-19.784L201.988,113.619z M110.129,91.471
	c11.743-1.381,39.892-2.022,65.831,17.581c-7.925,3.658-15.454,7.84-22.535,12.502c-17.161-14.453-36.053-21.702-51.292-25.317
	C103.971,93.631,106.849,91.857,110.129,91.471z M97.949,110.664c12.73,2.938,28.43,8.716,42.936,20.032
	c-8.057,6.491-15.38,13.665-21.816,21.477c-4.444,5.395-8.397,11.008-11.859,16.798C95.232,146.629,95.556,124.93,97.949,110.664z
	 M155.576,359.183c0,1.199,0.032,2.39,0.08,3.578c-24.29-1.474-49.077-8.881-67.683-20.438c-2.912-1.809-4.945-4.643-5.725-7.98
	s-0.214-6.779,1.595-9.691c1.808-2.912,4.642-4.945,7.979-5.725c3.337-0.78,6.779-0.213,9.692,1.596
	c17.93,11.137,39.895,15.801,56.793,16.723C156.495,344.377,155.576,351.71,155.576,359.183z M173.206,427.92
	c-10.218,4.533-21.438,6.93-32.447,6.93c-5.542,0-11.018-0.6-16.278-1.784c-25.892-5.823-43.977-24.603-46.073-47.842
	c-0.258-2.86,1.859-5.397,4.721-5.655c1.381-0.127,2.731,0.298,3.8,1.19c1.07,0.893,1.729,2.146,1.854,3.529
	c1.681,18.646,16.591,33.804,37.984,38.616c16.133,3.631,33.473,0.843,48.569-7.629c2.171,2.748,4.496,5.383,6.965,7.893
	C179.32,424.962,176.281,426.556,173.206,427.92z M217.232,496.261c-1.386,0.49-2.826,0.739-4.277,0.739
	c-5.426,0-10.288-3.44-12.099-8.56c-6.264-17.719-7.235-34.937-2.957-52.348c7.241,4.861,15.193,8.851,23.68,11.807
	c-1.575,10.427-0.424,20.957,3.475,31.986C227.413,486.556,223.904,493.902,217.232,496.261z M313.326,486.759
	c-1.226,5.933-6.502,10.239-12.546,10.239c-0.871,0-1.753-0.091-2.618-0.269c-6.929-1.432-11.402-8.235-9.97-15.165
	c2.107-10.195,2.609-21.647,1.526-32.856c8.751-2.813,16.961-6.717,24.449-11.536C316.814,453.241,316.567,471.076,313.326,486.759z
	 M365.931,304.728c-7.703,4.564-16.35,8.5-25.828,11.795c-0.075,0.025-0.15,0.049-0.225,0.077c-1.109,0.384-2.229,0.758-3.361,1.124
	c8.517-7.345,13.291-14.59,15.945-20.088c3.395-7.033,1.554-15.443-4.477-20.451l-70.784-58.769
	c0.524-0.516,1.036-1.046,1.523-1.604c2.721-3.122,2.396-7.86-0.727-10.581c-3.122-2.721-7.861-2.396-10.582,0.727
	c-2.666,3.059-6.515,4.814-10.56,4.814c-4.044,0-7.894-1.755-10.56-4.814c-2.721-3.124-7.459-3.448-10.581-0.727
	c-3.123,2.721-3.448,7.459-0.727,10.581c3.698,4.244,8.503,7.266,13.792,8.803l16.937,99.068c0.237,1.39,0.644,2.715,1.187,3.961
	c-3.309,0.095-6.655,0.149-10.047,0.149c-10.116,0-20.033-0.436-29.476-1.294c-4.126-0.372-7.774,2.665-8.148,6.79
	c-0.375,4.125,2.664,7.773,6.79,8.148c9.893,0.9,20.267,1.356,30.835,1.356c30.469,0,58-3.732,81.456-10.926
	c3.203,8.424,4.825,17.248,4.825,26.316c0,43.916-38.706,79.643-86.281,79.643s-86.281-35.728-86.281-79.643
	c0-9.07,1.622-17.896,4.826-26.321c4.782,1.465,9.73,2.807,14.884,3.991c0.565,0.13,1.129,0.192,1.686,0.192
	c3.417,0,6.505-2.351,7.303-5.823c0.927-4.037-1.594-8.061-5.631-8.988c-6.944-1.595-13.368-3.413-19.312-5.425
	c-0.449-0.205-0.907-0.365-1.37-0.476c-55.806-19.412-68.265-56.132-68.265-85.015c0-15.284,3.392-30.076,9.673-43.822
	c0.17-0.321,0.322-0.65,0.443-0.99c8.805-18.782,23.066-35.551,41.583-48.859c0.499-0.27,0.971-0.601,1.409-0.991
	c6.316-4.429,13.097-8.473,20.329-12.049c-0.016,3.939,1.624,7.854,4.821,10.622c10.389,8.994,33.805,24.082,73.902,24.082
	c40.099,0,63.514-15.088,73.902-24.082c3.197-2.767,4.837-6.682,4.821-10.622c7.232,3.576,14.012,7.619,20.328,12.048
	c0.439,0.39,0.912,0.722,1.411,0.992c18.516,13.308,32.776,30.076,41.581,48.856c0.122,0.342,0.274,0.674,0.446,0.997
	c6.28,13.745,9.671,28.535,9.671,43.818C409.017,263.09,394.521,287.789,365.931,304.728z M310.498,307.25
	c9.262-5.347,18.128-12.48,25.543-20.486l2.362,1.961c0.717,0.595,0.943,1.578,0.551,2.39c-2.953,6.118-9.538,15.18-24.14,23.611
	s-25.742,9.601-32.518,9.1c-0.9-0.066-1.638-0.754-1.794-1.671l-0.518-3.027C290.626,316.709,301.236,312.597,310.498,307.25z
	 M277.452,304.31l-13.188-77.14l60.212,49.991c-4.865,5.164-12.058,11.659-21.478,17.098
	C293.579,299.698,284.357,302.68,277.452,304.31z M406.504,168.971c-3.462-5.79-7.414-11.403-11.859-16.798
	c-6.436-7.812-13.759-14.986-21.817-21.477c14.506-11.316,30.207-17.094,42.936-20.032
	C418.158,124.93,418.482,146.628,406.504,168.971z M62.405,256.539c-2.002-2.001-2.002-5.258,0-7.259
	c7.85-7.85,7.85-20.623,0-28.472c-2.929-2.929-7.678-2.929-10.607,0s-2.929,7.678,0,10.606c2.001,2.001,2.001,5.258,0,7.259
	c-7.849,7.85-7.849,20.622,0,28.472c1.465,1.464,3.384,2.197,5.304,2.197c1.92,0,3.839-0.732,5.303-2.196
	C65.333,264.217,65.334,259.468,62.405,256.539z M454.996,312.789c0-5.378-2.094-10.434-5.897-14.236
	c-2.929-2.929-7.678-2.929-10.606,0c-2.929,2.929-2.929,7.678,0,10.607c0.969,0.97,1.503,2.259,1.503,3.63s-0.534,2.66-1.503,3.629
	c-3.803,3.803-5.897,8.858-5.897,14.236s2.094,10.434,5.897,14.236c1.465,1.464,3.384,2.196,5.303,2.196s3.839-0.732,5.304-2.197
	c2.929-2.929,2.928-7.678,0-10.607c-0.97-0.969-1.503-2.258-1.503-3.629s0.534-2.66,1.503-3.629
	C452.902,323.223,454.996,318.167,454.996,312.789z M371.218,259.932c-6.673-4.926-23.858-13.557-32.967-15.975
	c-4.004-1.059-8.11,1.322-9.173,5.325c-1.063,4.003,1.321,8.11,5.325,9.173c7.062,1.875,22.662,9.674,27.907,13.545
	c1.34,0.989,2.901,1.466,4.448,1.466c2.3,0,4.569-1.054,6.04-3.046C375.258,267.087,374.551,262.392,371.218,259.932z
	 M458.696,196.948c0-1.371,0.534-2.66,1.503-3.63c7.85-7.85,7.85-20.622,0-28.472c-2.929-2.929-7.678-2.929-10.607,0
	s-2.929,7.678,0,10.606c2.001,2.002,2.001,5.257,0,7.259c-3.803,3.803-5.897,8.858-5.897,14.236c0,5.378,2.094,10.434,5.897,14.236
	c1.465,1.464,3.384,2.196,5.303,2.196s3.839-0.732,5.304-2.197c2.929-2.929,2.928-7.678-0.001-10.607
	C459.23,199.608,458.696,198.319,458.696,196.948z M193.337,188.089c-11.901,0-21.583,9.682-21.583,21.583
	c0,4.142,3.358,7.5,7.5,7.5s7.5-3.358,7.5-7.5c0-3.629,2.953-6.583,6.583-6.583c3.629,0,6.582,2.953,6.582,6.583
	c0,4.142,3.358,7.5,7.5,7.5s7.5-3.358,7.5-7.5C214.919,197.771,205.237,188.089,193.337,188.089z M377.781,224.436
	c-8.045-2.012-27.222-3.445-36.567-2.209c-4.106,0.543-6.995,4.312-6.453,8.418c0.543,4.106,4.31,6.994,8.418,6.453
	c7.246-0.959,24.639,0.309,30.962,1.89c0.611,0.153,1.223,0.226,1.825,0.226c3.36-0.001,6.418-2.275,7.27-5.683
	C384.242,229.513,381.799,225.44,377.781,224.436z M318.356,193.723c-4.142,0-7.5,3.358-7.5,7.5v10.208c0,4.142,3.358,7.5,7.5,7.5
	s7.5-3.358,7.5-7.5v-10.208C325.856,197.081,322.498,193.723,318.356,193.723z M175.463,243.956
	c-9.109,2.418-26.294,11.05-32.966,15.975c-3.333,2.46-4.04,7.156-1.58,10.488c1.471,1.992,3.74,3.046,6.04,3.046
	c1.547,0,3.108-0.477,4.448-1.466c5.245-3.872,20.844-11.671,27.907-13.545c4.003-1.063,6.387-5.17,5.325-9.173
	C183.574,245.278,179.466,242.895,175.463,243.956z M170.534,237.098c4.105,0.543,7.876-2.346,8.419-6.453
	c0.542-4.106-2.346-7.876-6.453-8.418c-9.345-1.235-28.521,0.198-36.567,2.209c-4.019,1.004-6.462,5.077-5.457,9.095
	c0.852,3.408,3.91,5.683,7.27,5.683c0.603,0,1.214-0.073,1.825-0.226C145.895,237.406,163.289,236.138,170.534,237.098z"/>
<g>
</g>
<g>
</g>
<g>
</g>
<g>
</g>
<g>
</g>
<g>
</g>
<g>
</g>
<g>
</g>
<g>
</g>
<g>
</g>
<g>
</g>
<g>
</g>
<g>
</g>
<g>
</g>
<g>
</g>
</svg>
